<?xml version="1.0" encoding="utf-8"?>
<!-- Generator: Adobe Illustrator 26.0.3, SVG Export Plug-In . SVG Version: 6.00 Build 0)  -->
<svg version="1.1" id="Layer_1" xmlns="http://www.w3.org/2000/svg" xmlns:xlink="http://www.w3.org/1999/xlink" x="0px" y="0px"
	 viewBox="0 0 715.1 170.6" style="enable-background:new 0 0 715.1 170.6;" xml:space="preserve">
<style type="text/css">
	.Arched_x0020_Green{fill:url(#SVGID_1_);stroke:#FFFFFF;stroke-width:0.25;stroke-miterlimit:1;}
	.st0{fill:#03296A;}
</style>
<linearGradient id="SVGID_1_" gradientUnits="userSpaceOnUse" x1="-79.3286" y1="441.1274" x2="-78.6215" y2="440.4203">
	<stop  offset="0" style="stop-color:#20AC4B"/>
	<stop  offset="0.9831" style="stop-color:#19361A"/>
</linearGradient>
<g>
	<g>
		<path class="st0" d="M71.2,102.7c-4.8-0.5-10.1-0.6-16.1-0.2c-23.7,1.9-38-5.8-45.8-12.7c-1.6-1.4-3-2.8-4.3-4.4
			c-2.5-2.9-3.6-5.1-3.8-5.4l0,0c-0.4-0.8-0.8-1.5-1.2-2.3v55.7l48.8,28.2c-5-6.3-8-14.2-8-22.8C40.8,120.7,53.9,105.7,71.2,102.7z"
			/>
		<path class="st0" d="M86,54.2c0.1-0.5,0.2-0.9,0.3-1.3c0.1-0.3,0.2-0.6,0.3-0.9c0.1-0.2,0.1-0.4,0.2-0.5c0.1-0.4,0.2-0.7,0.3-1.1
			c0.1-0.2,0.2-0.5,0.3-0.7c0.1-0.2,0.2-0.4,0.2-0.7c0.1-0.3,0.2-0.6,0.4-0.9c-3.1,3.9-6.1,8.7-8.9,14.5
			C68.9,84,55.9,92.7,46.1,96.3c-0.3,0.1-0.5,0.2-0.8,0.3c-0.1,0-0.2,0.1-0.3,0.1c-2.1,0.7-4.3,1.3-6.5,1.6
			c4.8,0.6,10.1,0.8,16.1,0.3c31.5-2.5,46.1,10.4,51.7,17.7c-1.9-4.6-4.4-9.5-8-14.6C84,80.7,83.7,64.3,86,54.2
			C86,54.2,86,54.2,86,54.2z"/>
		<path class="st0" d="M140.2,93.8c-15.5,8.9-34.8,5.3-46-7.7c1.9,4.2,4.3,8.6,7.6,13.3c23,33.4,8.2,56.9,7.5,57.9l-0.1,0
			c-0.7,1.2-1.5,2.4-2.3,3.5l47.2-27.3v-54C151,85.2,146.3,90.2,140.2,93.8z"/>
		<path class="st0" d="M67.8,73.8c2.6-3.7,5.2-8,7.7-13.1c15.6-33,39.7-35.4,45.3-35.5L77.1,0L33.2,25.3c6.2,0,12.5,1.6,18.3,4.9
			C66.9,39.1,73.4,57.6,67.8,73.8z"/>
		<path class="st0" d="M154.1,57.1c-0.6-3.9-1.9-7.8-4-11.4c-1.3-2.3-2.9-4.3-4.6-6.2c-4.2-4.4-9.5-7.5-15.2-9
			c-0.3-0.1-0.5-0.1-0.8-0.2c-7.9-1.9-16.4-0.9-24,3.5c-1.1,0.6-2.1,1.3-3.1,2c0.4-0.1,0.9-0.2,1.4-0.2c0.7,0,1.4,0.2,2,0.5
			c1.6,0.8,2.6,2.3,2.6,4.2c0,1.9-1.1,3.4-2.6,4.2c-0.6,0.3-1.3,0.5-2,0.5c-0.7,0-1.4-0.2-2-0.5c-1.6-0.8-2.6-2.3-2.6-4.2
			c0-0.8,0.2-1.6,0.6-2.3c-2.4,2.2-4.5,4.8-6.1,7.5l0,0c0,0.1-0.2,0.3-0.4,0.6c-1.3,2.4-2.4,4.9-3.1,7.5c-2.2,8.1-1.2,17,3.3,24.8
			c2.2,3.8,5,7,8.3,9.5V47.6c0.6,0.2,1.3,0.3,2,0.3c0.7,0,1.4-0.1,2-0.3v42.9c2.4,1.3,4.9,2.3,7.5,3c8.1,2.2,17,1.2,24.8-3.3
			c2-1.1,3.8-2.5,5.4-3.9c-3.4,1.5-7.1,2.3-11,2.3c-9.6,0-18-4.9-23-12.3h9.6l13.3-36.5l-9,0.6l-11.9,1.2c0.1-0.5,0.2-1,0.2-1.6
			c0-1.1-0.2-2.2-0.7-3.1l15.2,1.1l4.9,0.3h1.9v0c2.5,0,4.6-1.1,5.1-2.5c0,0.1,0,0.1,0,0.2c0,2-2,3.6-4.6,3.8l13.3,36.5h4.4
			c0.9-1.9,1.7-3.9,2.2-5.9c0.3-1.2,0.6-2.4,0.7-3.6C154.6,63.6,154.6,60.4,154.1,57.1z"/>
		<polygon class="st0" points="121.3,76.3 144.6,76.3 133,44.3 		"/>
		<path class="st0" d="M101.9,152.5L87.1,154l-2.3,0c0,0.3,0.1,0.6,0.1,0.8l0,15.8c6.1-1.4,11.5-4.5,15.7-8.7
			c2.8-2.8,5.1-6.1,6.7-9.8L101.9,152.5z"/>
		<path class="st0" d="M108.4,149.2c1.1-3.3,1.7-6.8,1.7-10.4c0-5.9-1.6-11.5-4.3-16.3l0,0c0-0.1-0.2-0.3-0.4-0.7
			c-1.4-2.2-3-4.3-4.8-6.1c-5.9-5.9-14.1-9.6-23.1-9.6s-17.2,3.6-23.1,9.6c-5.9,5.9-9.6,14.1-9.6,23.1c0,3.6,0.6,7.1,1.7,10.4
			l3.1-0.2l23.1-1.7l0-21.4c1.4,0.8,3,1.2,4.7,1.2c1.7,0,3.3-0.4,4.7-1.2l0,21.4l1.2,0.1l21.9,1.6L108.4,149.2z M77.5,123.9
			c-3.9,0-7-3.2-7-7c0-3.9,3.2-7,7-7c3.9,0,7,3.2,7,7C84.5,120.8,81.4,123.9,77.5,123.9z"/>
		<path class="st0" d="M53,152.5l-5.3-0.4c1.6,3.7,3.9,7,6.7,9.8c4.2,4.2,9.7,7.3,15.7,8.7v-15.8c0-0.2,0-0.5,0.1-0.8l-2.3,0
			L53,152.5z"/>
		<path class="st0" d="M7.9,82.7l0.5-0.8c2-3.5,4.1-7,4.1-12.1c0-0.7,0-1.4-0.1-2l0-0.2c-0.5-5.9-0.5-8,0.4-12.5
			c1.8-1.1,3.4-2,5.2-2.5c0.2,2.7,0.8,4.7,1.3,6.6c0.7,2.3,1.3,4.4,1.3,7.6c0,3.5-1.7,5.9-3.6,8.5c-2,2.8-4,5.7-4,10
			c0,0.9,0.1,1.7,0.2,2.5c1.1,0.8,2.2,1.6,3.5,2.3c-0.7-1.4-1.1-3-1.1-4.8c0-3.5,1.7-5.9,3.6-8.5c2-2.8,4-5.7,4-10
			c0-3.6-0.7-6-1.4-8.3c-0.6-2-1.1-3.8-1.2-6.4c0.6-0.1,1.2-0.1,1.8-0.1c1,0,2,0.1,3,0.2c0.1,3.4,1.3,6.2,2.4,8.9
			c1.1,2.7,2.2,5.2,2.2,8.3c0,3.5-1.7,5.9-3.6,8.5c-2,2.8-4,5.7-4,10c0,2,0.4,3.7,1.1,5.3c1.1,0.3,2.2,0.6,3.3,0.9
			c-1.1-1.8-1.9-3.7-1.9-6.1c0-3.5,1.7-5.9,3.6-8.5c2-2.8,4-5.7,4-10c0-3.6-1.2-6.5-2.4-9.3c-1-2.4-2-4.7-2.2-7.5
			c1.7,0.3,3.3,0.8,4.9,1.2c-0.2,0.7-0.3,1.4-0.3,2.2c0,3.8,1.9,6.4,3.6,8.7c1.6,2.2,3.1,4.2,3.1,7.2c0,3.5-1.7,5.9-3.6,8.5
			c-2,2.8-4,5.7-4,10c0,1.6,0.3,2.9,0.7,4.2c0.2,0,0.4,0,0.6,0l0,0c0.1,0,0.4,0,0.8,0c0.4,0,0.9,0,1.3-0.1c-0.5-1.3-0.9-2.6-0.9-4.2
			c0-3.5,1.7-5.9,3.6-8.5c2-2.8,4-5.7,4-10c0-3.8-1.9-6.4-3.6-8.7c-1.6-2.2-3.1-4.2-3.1-7.2c0-0.5,0.1-1,0.2-1.4
			c3.3,1,6.8,1.9,11.2,1.9h3.9c2.5,0,4.3-0.3,6.2-1c0.3,1.5,0.5,3,0.7,4.6l-2.3,0.2v1.2c0,3.3-0.4,6.2-1.2,9.5h-7.1l0,10.8l10.9,1.9
			l0.1,0c1.4-1.6,2.7-3.4,3.8-5.3c4.5-7.8,5.4-16.7,3.3-24.8c-2.2-8.1-7.4-15.3-15.2-19.8c-7.8-4.5-16.7-5.4-24.8-3.3
			c-0.3,0.1-0.6,0.2-0.8,0.2c-4.9,1.4-9.4,4-13.2,7.6c-2.2,2.1-4.2,4.6-5.8,7.3c-4.5,7.8-5.4,16.7-3.3,24.8
			C2.8,74.9,4.9,79.1,7.9,82.7z M52.1,44.5c-1.9,0.8-3.8,1.1-6,1.2c1.4-1.4,2.5-3.1,2.6-5.4C50,41.6,51.1,43,52.1,44.5z M39,35.6
			c1.4,0.2,2.8,0.6,4.1,1.2c0.9,0.4,1.8,0.8,2.6,1.4c0.2,0.7,0.4,1.6,0.4,1.9c0,2.8-1.9,4.3-4.5,5.9h-1.3c-2.2-0.3-4.2-0.6-6-0.9
			c2.6-1.4,5-3.4,5-7.5C39.4,37,39.3,36.4,39,35.6z M35.4,35.2c0.3,0,0.5,0,0.8,0c0,0.1,0.1,0.2,0.1,0.4c0.2,0.6,0.5,1.5,0.5,1.8
			c0,3.2-2,4.4-5.1,6c-0.5,0.2-1,0.5-1.5,0.8c-1.6-0.3-3.3-0.5-5.1-0.7c2.2-1.8,4.5-3.9,4.9-7.8C31.7,35.4,33.5,35.2,35.4,35.2z
			 M27.4,36.5c-0.5,2.4-2.2,3.8-4.2,5.4c-0.6,0.5-1.2,0.9-1.8,1.5c-0.5,0-1,0-1.5,0c-0.6,0-1.2,0-1.8,0.1c0.7-0.8,1.4-1.6,2.1-2.4
			C22.1,38.9,24.6,37.4,27.4,36.5z M12.5,47.2c0.6-0.3,1.2-0.5,1.8-0.7c0.6-0.2,1.1-0.3,1.7-0.4c1-0.2,2.1-0.3,3.2-0.3
			c0.2,0,0.5,0,0.7,0c0.9,0,1.7,0,2.5,0.1c1.7,0.1,3.3,0.2,4.9,0.4c1.2,0.2,2.3,0.3,3.5,0.5c0.6,0.1,1.3,0.2,1.9,0.3
			c1.6,0.3,3.3,0.6,5.2,0.8c0.8,0.1,1.5,0.2,2.3,0.3l2.3,0l2.1,0c3.5,0,6.2-0.5,8.9-1.6c0.4-0.2,0.8-0.3,1.2-0.5
			c0.4-0.2,0.7-0.4,1.1-0.6c0.3-0.2,0.6-0.3,0.9-0.5l1.1,5.1l0.4,1.8c-0.3,0.2-0.7,0.3-1,0.5c-0.4,0.2-0.8,0.3-1.2,0.5
			c-1.7,0.7-3.3,1-5.6,1h-3.9c-3.8,0-6.8-0.7-9.9-1.6c-0.6-0.2-1.2-0.4-1.8-0.5c-0.3-0.1-0.6-0.2-0.9-0.3C32,50.9,30.1,50.4,28,50
			c-0.8-0.2-1.7-0.3-2.6-0.4c-1-0.1-2.1-0.2-3.2-0.2c-0.6,0-1.2,0-1.7,0.1c-0.9,0.1-1.8,0.2-2.6,0.4c-1.6,0.4-3,1-4.4,1.7
			c-0.5,0.3-1,0.6-1.6,0.9c-0.2,0.1-0.4,0.2-0.5,0.3l-0.6-1.2l-1.3-2.8C10.6,48.2,11.5,47.6,12.5,47.2z"/>
		<path class="st0" d="M45.8,87.1c1.9,0,3.5,1.2,4.3,2.8c0.7-0.4,1.4-0.9,2.1-1.4c-1.2-2.3-3.6-3.9-6.4-3.9c-4,0-7.2,3.2-7.2,7.2
			c0,0.8,0.1,1.6,0.4,2.3c0.8-0.2,1.7-0.3,2.5-0.5c-0.2-0.6-0.4-1.2-0.4-1.8C41.2,89.2,43.3,87.1,45.8,87.1z"/>
	</g>
	<g>
		<path class="st0" d="M225.7,76.7h-21v-2.5c1.9-0.1,3.4-0.4,4.6-0.7c1.2-0.4,1.8-0.8,1.8-1.3c0-0.2,0-0.5-0.1-0.8
			c0-0.3-0.1-0.6-0.2-0.8l-4.2-11.3h-17.8c-0.7,1.7-1.2,3.1-1.6,4.3c-0.4,1.2-0.8,2.4-1.1,3.4c-0.3,1-0.5,1.9-0.6,2.5
			c-0.1,0.6-0.2,1.2-0.2,1.6c0,1,0.7,1.7,2.2,2.2c1.5,0.5,3.2,0.8,5.1,0.9v2.5h-19v-2.5c0.6,0,1.4-0.2,2.3-0.4
			c0.9-0.2,1.7-0.5,2.3-0.9c1-0.6,1.7-1.3,2.2-2c0.5-0.7,1-1.7,1.5-2.9c2.5-6.3,5.3-13.5,8.4-21.4c3.1-7.9,5.8-15,8.2-21.1h2.9
			L218.3,69c0.4,0.9,0.8,1.7,1.2,2.2c0.5,0.6,1.1,1.1,1.9,1.7c0.5,0.3,1.3,0.6,2.1,0.8c0.9,0.2,1.6,0.4,2.2,0.4V76.7z M205.4,56
			l-7.7-19.6L190.2,56H205.4z"/>
		<path class="st0" d="M247.6,75.2c-1.5,0.6-3,1.2-4.4,1.6c-1.4,0.4-3.1,0.7-5.1,0.7c-2.9,0-5-0.7-6.2-2.2c-1.2-1.5-1.8-3.6-1.8-6.3
			V45.1h-6.3v-3.4h6.5V30.8h6.5v10.9h10.1v3.4h-10v19.6c0,1.5,0.1,2.7,0.2,3.7c0.1,1,0.4,1.8,0.8,2.6c0.4,0.7,1,1.2,1.7,1.6
			c0.8,0.4,1.8,0.5,3.1,0.5c0.6,0,1.5-0.1,2.6-0.2c1.2-0.1,2-0.2,2.4-0.4V75.2z"/>
		<path class="st0" d="M272.1,75.2c-1.5,0.6-3,1.2-4.4,1.6c-1.4,0.4-3.1,0.7-5.1,0.7c-2.9,0-5-0.7-6.2-2.2c-1.2-1.5-1.8-3.6-1.8-6.3
			V45.1h-6.3v-3.4h6.5V30.8h6.5v10.9h10.1v3.4h-10v19.6c0,1.5,0.1,2.7,0.2,3.7c0.1,1,0.4,1.8,0.8,2.6c0.4,0.7,1,1.2,1.7,1.6
			c0.8,0.4,1.8,0.5,3.1,0.5c0.6,0,1.5-0.1,2.6-0.2c1.2-0.1,2-0.2,2.4-0.4V75.2z"/>
		<path class="st0" d="M309.1,58.8c0,2.5-0.4,4.9-1.2,7.3c-0.8,2.4-1.9,4.4-3.4,6.1c-1.6,1.9-3.5,3.3-5.7,4.2
			c-2.2,0.9-4.6,1.4-7.3,1.4c-2.2,0-4.4-0.4-6.4-1.3c-2-0.8-3.8-2.1-5.4-3.7c-1.5-1.6-2.8-3.5-3.7-5.8c-0.9-2.3-1.4-4.9-1.4-7.7
			c0-5.5,1.6-10,4.8-13.5c3.2-3.5,7.4-5.2,12.6-5.2c4.9,0,9,1.7,12.2,5C307.5,48.8,309.1,53.3,309.1,58.8z M301.7,58.8
			c0-1.8-0.2-3.7-0.5-5.6c-0.4-2-0.9-3.7-1.6-5c-0.8-1.5-1.8-2.7-3-3.5c-1.2-0.9-2.8-1.3-4.5-1.3c-1.8,0-3.4,0.5-4.7,1.4
			c-1.3,0.9-2.4,2.1-3.2,3.7c-0.8,1.4-1.3,3.1-1.6,5c-0.3,1.9-0.5,3.6-0.5,5.4c0,2.3,0.2,4.4,0.6,6.3c0.4,1.9,1,3.7,1.8,5.2
			c0.8,1.5,1.8,2.7,3.1,3.6c1.2,0.9,2.7,1.3,4.6,1.3c3,0,5.3-1.4,7.1-4.3C300.9,67.9,301.7,63.9,301.7,58.8z"/>
		<path class="st0" d="M340.4,46.1c0,1.2-0.3,2.3-0.9,3.2c-0.6,0.9-1.5,1.4-2.7,1.4c-1.3,0-2.3-0.3-3-1c-0.7-0.7-1.1-1.4-1.1-2.3
			c0-0.5,0-1,0.1-1.4c0.1-0.4,0.2-0.9,0.2-1.3c-1.1,0-2.4,0.5-3.9,1.4c-1.5,0.9-2.8,2.2-3.8,3.8v20.5c0,0.8,0.2,1.5,0.5,2
			c0.3,0.5,0.8,0.9,1.5,1.2c0.6,0.2,1.4,0.4,2.3,0.5c0.9,0.1,1.8,0.2,2.4,0.2v2.4h-18.5v-2.4c0.5,0,1.1-0.1,1.7-0.1
			c0.6,0,1.1-0.1,1.5-0.3c0.7-0.2,1.2-0.6,1.5-1.1c0.3-0.5,0.5-1.2,0.5-2.1V49c0-0.7-0.2-1.5-0.5-2.2c-0.3-0.7-0.8-1.3-1.4-1.7
			c-0.5-0.3-1-0.5-1.6-0.6c-0.6-0.1-1.3-0.2-2-0.3v-2.4l11.7-0.8l0.5,0.5v5h0.2c1.5-1.9,3.1-3.4,4.9-4.4c1.8-1,3.5-1.5,5-1.5
			c1.5,0,2.7,0.5,3.7,1.5C339.9,43.1,340.4,44.4,340.4,46.1z"/>
		<path class="st0" d="M381.4,76.7h-17.2v-2.4c0.5,0,1.1-0.1,1.8-0.1c0.7,0,1.2-0.1,1.6-0.3c0.7-0.2,1.2-0.6,1.5-1.1
			c0.3-0.5,0.5-1.2,0.5-2.1V52.6c0-2.5-0.6-4.4-1.8-5.8c-1.2-1.4-2.6-2-4.3-2c-1.3,0-2.4,0.2-3.5,0.6c-1,0.4-2,0.9-2.8,1.4
			c-0.8,0.5-1.4,1.1-1.9,1.8c-0.5,0.6-0.8,1.1-1,1.5v20.2c0,0.8,0.2,1.5,0.5,2c0.3,0.5,0.8,0.9,1.5,1.2c0.5,0.2,1,0.4,1.6,0.5
			c0.6,0.1,1.2,0.2,1.8,0.2v2.4h-17.2v-2.4c0.5,0,1.1-0.1,1.7-0.1c0.6,0,1.1-0.1,1.5-0.3c0.7-0.2,1.2-0.6,1.5-1.1
			c0.3-0.5,0.5-1.2,0.5-2.1V49c0-0.8-0.2-1.5-0.5-2.2c-0.3-0.7-0.8-1.2-1.4-1.7c-0.5-0.3-1-0.5-1.6-0.6c-0.6-0.1-1.3-0.2-2-0.3v-2.4
			l11.7-0.8l0.5,0.5v5h0.2c0.6-0.6,1.3-1.3,2.1-2c0.9-0.8,1.7-1.4,2.4-1.9c0.9-0.6,1.9-1,3.1-1.4c1.2-0.4,2.6-0.6,4.1-0.6
			c3.4,0,5.9,1.1,7.5,3.2c1.6,2.1,2.4,4.9,2.4,8.4v18.3c0,0.8,0.1,1.5,0.4,2c0.3,0.5,0.8,0.9,1.5,1.2c0.6,0.2,1.1,0.4,1.5,0.5
			c0.4,0.1,1,0.2,1.7,0.2V76.7z"/>
		<path class="st0" d="M415.2,68.4c-1.5,2.8-3.4,5-5.9,6.7c-2.5,1.7-5.3,2.5-8.5,2.5c-2.8,0-5.3-0.5-7.4-1.5c-2.1-1-3.9-2.4-5.3-4.1
			c-1.4-1.7-2.4-3.7-3.1-6c-0.7-2.3-1-4.7-1-7.2c0-2.3,0.4-4.5,1.1-6.7c0.7-2.2,1.8-4.2,3.2-5.9c1.4-1.7,3-3,5-4.1
			c2-1,4.3-1.6,6.8-1.6c2.6,0,4.8,0.4,6.6,1.2c1.8,0.8,3.3,1.9,4.5,3.3c1.1,1.3,1.9,2.9,2.4,4.7c0.5,1.8,0.8,3.8,0.8,5.9V58h-23.3
			c0,2.3,0.2,4.4,0.7,6.3c0.4,1.9,1.1,3.5,2.1,5c0.9,1.4,2.1,2.5,3.6,3.3c1.5,0.8,3.3,1.2,5.3,1.2c2.1,0,3.9-0.5,5.5-1.5
			c1.5-1,3-2.8,4.4-5.4L415.2,68.4z M407.4,55c0-1.3-0.1-2.7-0.3-4.3c-0.2-1.5-0.6-2.8-1.1-3.8c-0.5-1.1-1.3-2-2.2-2.7
			c-1-0.7-2.2-1-3.7-1c-2.5,0-4.6,1-6.2,3.1c-1.7,2.1-2.5,5-2.7,8.7H407.4z"/>
		<path class="st0" d="M415.9,88.2c0-1.2,0.3-2.2,1-2.9c0.7-0.7,1.5-1.1,2.4-1.1c0.8,0,1.4,0.1,2,0.4c0.5,0.3,1,0.6,1.5,1.1
			c0.4,0.4,0.7,0.8,1.1,1.5c0.4,0.6,0.7,1.1,1,1.5c1.2-0.6,2.6-2.3,4.3-5c1.7-2.7,2.8-5.1,3.6-7.1c-2.3-5.6-4.3-10.7-6.1-15.1
			c-1.8-4.4-3.7-9-5.7-13.8c-0.5-1.1-1.2-1.9-2.3-2.5c-1.1-0.6-2.1-1-3.2-1.2v-2.4h16v2.5c-0.7,0-1.6,0.2-2.6,0.4
			c-1,0.3-1.5,0.6-1.5,0.9c0,0.1,0.1,0.4,0.2,0.7c0.1,0.3,0.2,0.7,0.4,1c0.9,2.4,2.3,5.7,4.1,10.2c1.8,4.4,3.3,8,4.3,10.6
			c1.1-2.5,2.2-5.2,3.3-7.9c1.2-2.7,2.4-5.9,3.9-9.6c0.2-0.5,0.4-1.1,0.7-1.9c0.3-0.8,0.5-1.5,0.5-2c0-0.6-0.5-1.2-1.6-1.7
			c-1.1-0.5-2.1-0.9-3.1-1v-2.3H453v2.2c-0.7,0.1-1.7,0.5-2.8,1.2c-1.2,0.7-2,1.7-2.6,3c-2.8,6.6-5.3,12.5-7.5,17.9
			c-2.2,5.4-3.9,9.4-5,11.9c-1.5,3.3-2.8,5.9-4,7.8c-1.2,1.9-2.3,3.3-3.4,4.4c-1.1,1-2.1,1.7-3,2c-0.9,0.3-1.8,0.5-2.8,0.5
			c-1.9,0-3.3-0.4-4.4-1.3C416.4,90.3,415.9,89.3,415.9,88.2z"/>
		<path class="st0" d="M520.5,56.5c-0.6,0.1-1.3,0.2-2.3,0.3c-1,0.2-1.7,0.4-2.3,0.7c-0.7,0.4-1.2,0.9-1.5,1.5
			c-0.3,0.7-0.4,1.4-0.4,2.3v3.9c0,2.9,0,4.8,0.1,5.8c0,1,0.1,1.8,0.1,2.5c-3.2,1.4-6.3,2.5-9.4,3.3c-3.1,0.8-6.2,1.1-9.2,1.1
			c-3.2,0-6.3-0.6-9.3-1.8c-3-1.2-5.6-2.9-7.8-5.2c-2.3-2.3-4.1-5-5.4-8.2c-1.3-3.2-2-6.8-2-10.8c0-3.9,0.6-7.4,1.9-10.7
			c1.3-3.3,3.1-6.2,5.4-8.6c2.3-2.4,4.9-4.2,8.1-5.5c3.1-1.3,6.5-2,10-2c2.9,0,5.3,0.3,7.4,1c2.1,0.7,4,1.5,5.6,2.5l1.5-2.4h2.9
			l0.3,17.7H511c-0.5-1.9-1.1-3.9-1.9-5.8c-0.7-1.9-1.7-3.6-2.9-5.1c-1.2-1.5-2.6-2.7-4.3-3.6c-1.7-0.9-3.7-1.3-6-1.3
			c-2.5,0-4.8,0.5-6.8,1.6c-2,1-3.7,2.6-5.2,4.6c-1.5,2-2.6,4.4-3.4,7.4c-0.8,2.9-1.2,6.2-1.2,9.9c0,3.2,0.4,6.2,1.2,9.1
			c0.8,2.8,1.9,5.3,3.4,7.4c1.5,2.1,3.3,3.8,5.5,5c2.2,1.2,4.7,1.8,7.5,1.8c2.1,0,4-0.3,5.7-1c1.7-0.6,2.9-1.3,3.7-2
			c0.2-1.2,0.3-2.5,0.3-3.7c0-1.3,0-2.3,0-3.2V62c0-1-0.1-1.9-0.4-2.7c-0.3-0.8-0.8-1.3-1.7-1.7c-0.8-0.4-1.8-0.6-3.2-0.8
			c-1.3-0.2-2.4-0.3-3.2-0.3v-2.6h22.2V56.5z"/>
		<path class="st0" d="M554.1,68.4c-1.5,2.8-3.4,5-5.9,6.7c-2.5,1.7-5.3,2.5-8.5,2.5c-2.8,0-5.3-0.5-7.4-1.5c-2.1-1-3.9-2.4-5.3-4.1
			c-1.4-1.7-2.4-3.7-3.1-6c-0.7-2.3-1-4.7-1-7.2c0-2.3,0.4-4.5,1.1-6.7c0.7-2.2,1.8-4.2,3.2-5.9c1.4-1.7,3-3,5-4.1
			c2-1,4.3-1.6,6.8-1.6c2.6,0,4.8,0.4,6.6,1.2c1.8,0.8,3.3,1.9,4.5,3.3c1.1,1.3,1.9,2.9,2.4,4.7c0.5,1.8,0.8,3.8,0.8,5.9V58H530
			c0,2.3,0.2,4.4,0.7,6.3c0.4,1.9,1.1,3.5,2.1,5c0.9,1.4,2.1,2.5,3.6,3.3c1.5,0.8,3.3,1.2,5.3,1.2c2.1,0,3.9-0.5,5.5-1.5
			c1.5-1,3-2.8,4.4-5.4L554.1,68.4z M546.2,55c0-1.3-0.1-2.7-0.3-4.3c-0.2-1.5-0.6-2.8-1.1-3.8c-0.5-1.1-1.3-2-2.2-2.7
			c-1-0.7-2.2-1-3.7-1c-2.5,0-4.6,1-6.2,3.1c-1.7,2.1-2.5,5-2.7,8.7H546.2z"/>
		<path class="st0" d="M596.2,76.7h-17.2v-2.4c0.5,0,1.1-0.1,1.8-0.1c0.7,0,1.2-0.1,1.6-0.3c0.7-0.2,1.2-0.6,1.5-1.1
			c0.3-0.5,0.5-1.2,0.5-2.1V52.6c0-2.5-0.6-4.4-1.8-5.8c-1.2-1.4-2.6-2-4.3-2c-1.3,0-2.4,0.2-3.5,0.6c-1,0.4-2,0.9-2.8,1.4
			c-0.8,0.5-1.4,1.1-1.9,1.8c-0.5,0.6-0.8,1.1-1,1.5v20.2c0,0.8,0.2,1.5,0.5,2c0.3,0.5,0.8,0.9,1.5,1.2c0.5,0.2,1,0.4,1.6,0.5
			c0.6,0.1,1.2,0.2,1.8,0.2v2.4h-17.2v-2.4c0.5,0,1.1-0.1,1.7-0.1c0.6,0,1.1-0.1,1.5-0.3c0.7-0.2,1.2-0.6,1.5-1.1
			c0.3-0.5,0.5-1.2,0.5-2.1V49c0-0.8-0.2-1.5-0.5-2.2c-0.3-0.7-0.8-1.2-1.4-1.7c-0.5-0.3-1-0.5-1.6-0.6c-0.6-0.1-1.3-0.2-2-0.3v-2.4
			l11.7-0.8l0.5,0.5v5h0.2c0.6-0.6,1.3-1.3,2.1-2c0.9-0.8,1.7-1.4,2.4-1.9c0.9-0.6,1.9-1,3.1-1.4c1.2-0.4,2.6-0.6,4.1-0.6
			c3.4,0,5.9,1.1,7.5,3.2c1.6,2.1,2.4,4.9,2.4,8.4v18.3c0,0.8,0.1,1.5,0.4,2c0.3,0.5,0.8,0.9,1.5,1.2c0.6,0.2,1.1,0.4,1.5,0.5
			c0.4,0.1,1,0.2,1.7,0.2V76.7z"/>
		<path class="st0" d="M631,68.4c-1.5,2.8-3.4,5-5.9,6.7c-2.5,1.7-5.3,2.5-8.5,2.5c-2.8,0-5.3-0.5-7.4-1.5c-2.1-1-3.9-2.4-5.3-4.1
			c-1.4-1.7-2.4-3.7-3.1-6c-0.7-2.3-1-4.7-1-7.2c0-2.3,0.4-4.5,1.1-6.7c0.7-2.2,1.8-4.2,3.2-5.9c1.4-1.7,3-3,5-4.1
			c2-1,4.3-1.6,6.8-1.6c2.6,0,4.8,0.4,6.6,1.2c1.8,0.8,3.3,1.9,4.5,3.3c1.1,1.3,1.9,2.9,2.4,4.7c0.5,1.8,0.8,3.8,0.8,5.9V58h-23.3
			c0,2.3,0.2,4.4,0.7,6.3c0.4,1.9,1.1,3.5,2.1,5c0.9,1.4,2.1,2.5,3.6,3.3c1.5,0.8,3.3,1.2,5.3,1.2c2.1,0,3.9-0.5,5.5-1.5
			c1.5-1,3-2.8,4.4-5.4L631,68.4z M623.2,55c0-1.3-0.1-2.7-0.3-4.3c-0.2-1.5-0.6-2.8-1.1-3.8c-0.5-1.1-1.3-2-2.2-2.7
			c-1-0.7-2.2-1-3.7-1c-2.5,0-4.6,1-6.2,3.1c-1.7,2.1-2.5,5-2.7,8.7H623.2z"/>
		<path class="st0" d="M660.3,46.1c0,1.2-0.3,2.3-0.9,3.2c-0.6,0.9-1.5,1.4-2.7,1.4c-1.3,0-2.3-0.3-3-1c-0.7-0.7-1.1-1.4-1.1-2.3
			c0-0.5,0-1,0.1-1.4c0.1-0.4,0.2-0.9,0.2-1.3c-1.1,0-2.4,0.5-3.9,1.4c-1.5,0.9-2.8,2.2-3.8,3.8v20.5c0,0.8,0.2,1.5,0.5,2
			c0.3,0.5,0.8,0.9,1.5,1.2c0.6,0.2,1.4,0.4,2.3,0.5c0.9,0.1,1.8,0.2,2.4,0.2v2.4h-18.5v-2.4c0.5,0,1.1-0.1,1.7-0.1
			c0.6,0,1.1-0.1,1.5-0.3c0.7-0.2,1.2-0.6,1.5-1.1c0.3-0.5,0.5-1.2,0.5-2.1V49c0-0.7-0.2-1.5-0.5-2.2c-0.3-0.7-0.8-1.3-1.4-1.7
			c-0.5-0.3-1-0.5-1.6-0.6c-0.6-0.1-1.3-0.2-2-0.3v-2.4l11.7-0.8l0.5,0.5v5h0.2c1.5-1.9,3.1-3.4,4.9-4.4c1.8-1,3.5-1.5,5-1.5
			c1.5,0,2.7,0.5,3.7,1.5C659.8,43.1,660.3,44.4,660.3,46.1z"/>
		<path class="st0" d="M695.8,76.1c-1.1,0.4-2.1,0.7-2.9,1c-0.8,0.2-1.8,0.4-2.9,0.4c-1.9,0-3.3-0.4-4.4-1.3
			c-1.1-0.9-1.8-2.1-2.1-3.8h-0.2c-1.5,1.7-3.2,3-5,3.9c-1.8,0.9-3.9,1.4-6.4,1.4c-2.6,0-4.8-0.8-6.5-2.4c-1.7-1.6-2.5-3.7-2.5-6.3
			c0-1.4,0.2-2.6,0.6-3.6c0.4-1.1,0.9-2,1.7-2.9c0.6-0.7,1.4-1.3,2.4-1.9c1-0.6,1.9-1,2.7-1.3c1.1-0.4,3.2-1.2,6.5-2.2
			c3.3-1.1,5.5-1.9,6.6-2.6v-3.5c0-0.3-0.1-0.9-0.2-1.8c-0.1-0.9-0.4-1.7-0.8-2.5c-0.5-0.9-1.1-1.6-2-2.3c-0.9-0.7-2.1-1-3.7-1
			c-1.1,0-2.1,0.2-3,0.6c-0.9,0.4-1.6,0.8-2,1.2c0,0.5,0.1,1.2,0.3,2.1c0.2,0.9,0.3,1.8,0.3,2.6c0,0.8-0.4,1.6-1.1,2.3
			c-0.7,0.7-1.8,1-3.1,1c-1.2,0-2.1-0.4-2.6-1.3c-0.6-0.8-0.8-1.8-0.8-2.8c0-1.1,0.4-2.1,1.2-3.1c0.8-1,1.8-1.9,3-2.7
			c1.1-0.7,2.4-1.2,3.9-1.7c1.5-0.5,3-0.7,4.5-0.7c2,0,3.7,0.1,5.2,0.4c1.5,0.3,2.8,0.9,4,1.8c1.2,0.9,2.1,2.1,2.8,3.6
			c0.6,1.5,0.9,3.5,0.9,5.8c0,3.4,0,6.4-0.1,9c-0.1,2.6-0.1,5.5-0.1,8.6c0,0.9,0.2,1.7,0.5,2.2c0.3,0.5,0.8,1,1.5,1.4
			c0.4,0.2,0.9,0.3,1.7,0.4c0.8,0,1.6,0,2.4,0V76.1z M683.4,57.2c-2,0.6-3.8,1.2-5.3,1.8c-1.5,0.6-2.9,1.3-4.2,2.1
			c-1.2,0.8-2.1,1.8-2.8,2.9c-0.7,1.1-1,2.4-1,3.9c0,2,0.5,3.4,1.6,4.4c1,0.9,2.3,1.4,3.9,1.4c1.7,0,3.2-0.4,4.5-1.2
			c1.3-0.8,2.4-1.8,3.2-2.9L683.4,57.2z"/>
		<path class="st0" d="M715.1,76.7h-17.1v-2.4c0.5,0,1.1-0.1,1.7-0.2c0.6-0.1,1.1-0.1,1.5-0.3c0.7-0.2,1.2-0.6,1.5-1.1
			c0.3-0.5,0.5-1.2,0.5-2.1V30c0-0.9-0.2-1.7-0.6-2.4c-0.4-0.7-0.8-1.3-1.4-1.8c-0.4-0.3-1.2-0.5-2.4-0.8c-1.1-0.2-2.1-0.4-2.7-0.4
			v-2.3l13.2-0.8l0.5,0.5v48.2c0,0.8,0.2,1.5,0.5,2c0.3,0.5,0.8,0.9,1.5,1.2c0.5,0.2,1,0.4,1.6,0.5c0.5,0.1,1.1,0.2,1.7,0.2V76.7z"
			/>
	</g>
	<g>
		<path class="st0" d="M194.2,96c0,0.8-0.2,1.5-0.6,2c-0.4,0.5-1.1,0.8-1.9,0.8c-0.5,0-1-0.1-1.4-0.3c-0.4-0.2-0.8-0.5-1.1-0.9
			c-0.4-0.4-0.7-0.8-1-1.3c-0.3-0.5-0.6-0.9-0.8-1.2c-1.2,0.1-2.1,0.9-2.7,2.5c-0.6,1.6-1,4.1-1,7.6v2.7h6.7v2.5h-6.7v18.7
			c0,0.6,0.1,1.1,0.4,1.5c0.2,0.4,0.6,0.7,1.1,0.9c0.4,0.2,1,0.3,1.7,0.4c0.7,0.1,1.3,0.2,1.8,0.2v1.7h-13.7v-1.7
			c0.4,0,0.8-0.1,1.3-0.1c0.4,0,0.8-0.1,1.1-0.2c0.5-0.2,0.9-0.4,1.1-0.8c0.2-0.4,0.4-0.9,0.4-1.5v-18.9h-5.1v-2.5h5.1v-1.7
			c0-3.9,1-7.1,3.1-9.6c2-2.4,4.6-3.7,7.7-3.7c1.6,0,2.7,0.3,3.5,0.9C193.8,94.3,194.2,95.1,194.2,96z"/>
		<path class="st0" d="M217.8,120.3c0,1.8-0.3,3.6-0.9,5.4c-0.6,1.8-1.4,3.3-2.5,4.5c-1.2,1.4-2.6,2.5-4.2,3.1c-1.6,0.7-3.4,1-5.4,1
			c-1.7,0-3.2-0.3-4.7-0.9c-1.5-0.6-2.8-1.5-4-2.7c-1.1-1.2-2.1-2.6-2.7-4.3c-0.7-1.7-1-3.6-1-5.7c0-4.1,1.2-7.4,3.5-10
			c2.4-2.6,5.5-3.9,9.3-3.9c3.6,0,6.6,1.2,9,3.7C216.6,113,217.8,116.3,217.8,120.3z M212.3,120.4c0-1.3-0.1-2.7-0.4-4.2
			c-0.3-1.5-0.7-2.7-1.2-3.7c-0.6-1.1-1.3-2-2.2-2.6c-0.9-0.7-2-1-3.4-1c-1.4,0-2.5,0.3-3.5,1c-1,0.7-1.7,1.6-2.3,2.7
			c-0.6,1.1-1,2.3-1.2,3.7c-0.2,1.4-0.3,2.7-0.3,4c0,1.7,0.1,3.2,0.4,4.7c0.3,1.4,0.7,2.7,1.3,3.8c0.6,1.1,1.4,2,2.3,2.6
			c0.9,0.6,2,1,3.4,1c2.2,0,3.9-1.1,5.2-3.2C211.7,127.1,212.3,124.1,212.3,120.4z"/>
		<path class="st0" d="M241.5,111c0,0.9-0.2,1.7-0.7,2.4c-0.4,0.7-1.1,1-2,1c-1,0-1.7-0.3-2.3-0.8c-0.5-0.5-0.8-1.1-0.8-1.7
			c0-0.4,0-0.7,0.1-1.1c0.1-0.3,0.1-0.6,0.2-0.9c-0.8,0-1.8,0.3-2.9,1c-1.1,0.7-2,1.6-2.8,2.8v15.1c0,0.6,0.1,1.1,0.4,1.5
			c0.2,0.4,0.6,0.7,1.1,0.9c0.4,0.2,1,0.3,1.7,0.4c0.7,0.1,1.3,0.1,1.8,0.2v1.7h-13.7v-1.7c0.4,0,0.8-0.1,1.3-0.1
			c0.4,0,0.8-0.1,1.1-0.2c0.5-0.2,0.9-0.4,1.1-0.8c0.2-0.4,0.4-0.9,0.4-1.5v-16c0-0.5-0.1-1.1-0.4-1.6c-0.3-0.5-0.6-0.9-1.1-1.3
			c-0.3-0.2-0.7-0.4-1.2-0.5c-0.5-0.1-0.9-0.2-1.5-0.2v-1.7l8.6-0.6l0.4,0.4v3.7h0.1c1.1-1.4,2.3-2.5,3.6-3.2
			c1.3-0.7,2.6-1.1,3.7-1.1s2,0.4,2.7,1.1C241.1,108.8,241.5,109.7,241.5,111z"/>
		<path class="st0" d="M295.8,98.1c-0.5,0-1.2,0.2-2.3,0.4c-1,0.3-1.7,0.5-2.2,0.8c-0.6,0.4-1.1,1.3-1.3,2.5
			c-0.2,1.2-0.3,2.8-0.3,4.7V134h-2.3l-22.7-30.6v19.3c0,2.2,0.1,3.8,0.4,5c0.3,1.2,0.7,2,1.3,2.5c0.4,0.4,1.2,0.7,2.5,1.1
			c1.3,0.3,2.1,0.5,2.5,0.5v1.9h-15.3v-1.9c0.5,0,1.3-0.2,2.4-0.5c1.1-0.3,1.8-0.6,2.1-0.8c0.6-0.5,1-1.2,1.3-2.3
			c0.2-1,0.3-2.7,0.3-5.2v-18.4c0-0.8-0.1-1.6-0.4-2.4c-0.3-0.8-0.7-1.4-1.1-1.9c-0.6-0.6-1.5-1.1-2.6-1.5c-1.1-0.4-2-0.6-2.6-0.7
			v-1.9h10.7l21,28.5v-17.8c0-2.2-0.1-3.9-0.4-5c-0.3-1.2-0.7-1.9-1.2-2.3c-0.5-0.3-1.3-0.7-2.4-1c-1.1-0.3-2-0.5-2.5-0.5v-1.9h15.2
			V98.1z"/>
		<path class="st0" d="M321.5,120.3c0,1.8-0.3,3.6-0.9,5.4c-0.6,1.8-1.4,3.3-2.5,4.5c-1.2,1.4-2.6,2.5-4.2,3.1c-1.6,0.7-3.4,1-5.4,1
			c-1.7,0-3.2-0.3-4.7-0.9c-1.5-0.6-2.8-1.5-4-2.7c-1.1-1.2-2.1-2.6-2.7-4.3c-0.7-1.7-1-3.6-1-5.7c0-4.1,1.2-7.4,3.5-10
			c2.4-2.6,5.5-3.9,9.3-3.9c3.6,0,6.6,1.2,9,3.7C320.3,113,321.5,116.3,321.5,120.3z M316,120.4c0-1.3-0.1-2.7-0.4-4.2
			c-0.3-1.5-0.7-2.7-1.2-3.7c-0.6-1.1-1.3-2-2.2-2.6c-0.9-0.7-2-1-3.4-1c-1.4,0-2.5,0.3-3.5,1c-1,0.7-1.7,1.6-2.3,2.7
			c-0.6,1.1-1,2.3-1.2,3.7c-0.2,1.4-0.3,2.7-0.3,4c0,1.7,0.1,3.2,0.4,4.7c0.3,1.4,0.7,2.7,1.3,3.8c0.6,1.1,1.4,2,2.3,2.6
			c0.9,0.6,2,1,3.4,1c2.2,0,3.9-1.1,5.2-3.2C315.4,127.1,316,124.1,316,120.4z"/>
		<path class="st0" d="M345.1,111c0,0.9-0.2,1.7-0.7,2.4c-0.4,0.7-1.1,1-2,1c-1,0-1.7-0.3-2.3-0.8c-0.5-0.5-0.8-1.1-0.8-1.7
			c0-0.4,0-0.7,0.1-1.1c0.1-0.3,0.1-0.6,0.2-0.9c-0.8,0-1.8,0.3-2.9,1c-1.1,0.7-2,1.6-2.8,2.8v15.1c0,0.6,0.1,1.1,0.4,1.5
			c0.2,0.4,0.6,0.7,1.1,0.9c0.4,0.2,1,0.3,1.7,0.4c0.7,0.1,1.3,0.1,1.8,0.2v1.7h-13.7v-1.7c0.4,0,0.8-0.1,1.3-0.1
			c0.4,0,0.8-0.1,1.1-0.2c0.5-0.2,0.9-0.4,1.1-0.8c0.2-0.4,0.4-0.9,0.4-1.5v-16c0-0.5-0.1-1.1-0.4-1.6c-0.3-0.5-0.6-0.9-1.1-1.3
			c-0.3-0.2-0.7-0.4-1.2-0.5c-0.5-0.1-0.9-0.2-1.5-0.2v-1.7l8.6-0.6l0.4,0.4v3.7h0.1c1.1-1.4,2.3-2.5,3.6-3.2
			c1.3-0.7,2.6-1.1,3.7-1.1s2,0.4,2.7,1.1C344.8,108.8,345.1,109.7,345.1,111z"/>
		<path class="st0" d="M363.4,132.5c-1.1,0.5-2.2,0.9-3.2,1.2c-1,0.3-2.3,0.5-3.7,0.5c-2.2,0-3.7-0.5-4.6-1.6
			c-0.9-1.1-1.3-2.6-1.3-4.7v-17.6h-4.7v-2.5h4.8v-8.1h4.8v8.1h7.5v2.5h-7.4v14.5c0,1.1,0,2,0.1,2.7c0.1,0.7,0.3,1.4,0.6,1.9
			c0.3,0.5,0.7,0.9,1.3,1.2c0.6,0.3,1.3,0.4,2.3,0.4c0.4,0,1.1,0,1.9-0.1c0.9-0.1,1.5-0.2,1.8-0.3V132.5z"/>
		<path class="st0" d="M394.3,133.6h-12.8v-1.7c0.4,0,0.9-0.1,1.3-0.1c0.5,0,0.9-0.1,1.2-0.2c0.5-0.2,0.9-0.4,1.1-0.8
			c0.2-0.4,0.4-0.9,0.4-1.5v-13.4c0-1.8-0.4-3.3-1.3-4.3c-0.9-1-1.9-1.5-3.2-1.5c-0.9,0-1.8,0.1-2.6,0.4c-0.8,0.3-1.5,0.6-2.1,1.1
			c-0.6,0.4-1.1,0.9-1.4,1.3c-0.3,0.4-0.6,0.8-0.7,1.1v15c0,0.6,0.1,1.1,0.4,1.5c0.2,0.4,0.6,0.7,1.1,0.9c0.4,0.2,0.8,0.3,1.2,0.4
			c0.4,0.1,0.9,0.1,1.4,0.2v1.7h-12.7v-1.7c0.4,0,0.8-0.1,1.3-0.1c0.4,0,0.8-0.1,1.1-0.2c0.5-0.2,0.9-0.4,1.1-0.8
			c0.2-0.4,0.4-0.9,0.4-1.5V98.9c0-0.6-0.1-1.2-0.4-1.8c-0.3-0.6-0.6-1-1.1-1.3c-0.3-0.2-0.9-0.4-1.7-0.5c-0.8-0.1-1.4-0.2-1.9-0.2
			v-1.7l9.6-0.6l0.4,0.4v18.1h0.1c0.6-0.6,1.1-1.1,1.6-1.5c0.5-0.4,1.1-0.9,1.9-1.4c0.7-0.4,1.5-0.8,2.4-1.1
			c0.9-0.3,1.9-0.4,3.1-0.4c2.3,0,4.1,0.7,5.4,2.2c1.2,1.5,1.9,3.6,1.9,6.3V129c0,0.6,0.1,1.1,0.3,1.5c0.2,0.4,0.6,0.7,1.1,0.9
			c0.4,0.2,0.8,0.3,1.1,0.4c0.3,0.1,0.8,0.1,1.3,0.2V133.6z"/>
		<path class="st0" d="M419.5,127.5c-1.1,2.1-2.5,3.7-4.4,5c-1.8,1.2-3.9,1.8-6.3,1.8c-2.1,0-3.9-0.4-5.5-1.1
			c-1.6-0.7-2.9-1.7-3.9-3c-1-1.3-1.8-2.7-2.3-4.4c-0.5-1.7-0.8-3.5-0.8-5.4c0-1.7,0.3-3.3,0.8-5c0.5-1.6,1.3-3.1,2.4-4.4
			c1-1.2,2.2-2.3,3.7-3c1.5-0.8,3.2-1.1,5-1.1c1.9,0,3.5,0.3,4.9,0.9c1.4,0.6,2.5,1.4,3.3,2.5c0.8,1,1.4,2.1,1.8,3.5
			c0.4,1.3,0.6,2.8,0.6,4.4v1.7h-17.2c0,1.7,0.2,3.3,0.5,4.7c0.3,1.4,0.8,2.6,1.5,3.7c0.7,1,1.6,1.8,2.7,2.4c1.1,0.6,2.4,0.9,4,0.9
			c1.6,0,2.9-0.4,4-1.1c1.1-0.7,2.2-2.1,3.3-4L419.5,127.5z M413.7,117.6c0-1-0.1-2-0.3-3.2c-0.2-1.1-0.4-2.1-0.8-2.8
			c-0.4-0.8-1-1.5-1.7-2c-0.7-0.5-1.6-0.8-2.7-0.8c-1.8,0-3.4,0.8-4.6,2.3c-1.2,1.5-1.9,3.7-2,6.4H413.7z"/>
		<path class="st0" d="M442.4,111c0,0.9-0.2,1.7-0.7,2.4c-0.4,0.7-1.1,1-2,1c-1,0-1.7-0.3-2.3-0.8c-0.5-0.5-0.8-1.1-0.8-1.7
			c0-0.4,0-0.7,0.1-1.1c0.1-0.3,0.1-0.6,0.2-0.9c-0.8,0-1.8,0.3-2.9,1c-1.1,0.7-2,1.6-2.8,2.8v15.1c0,0.6,0.1,1.1,0.4,1.5
			c0.2,0.4,0.6,0.7,1.1,0.9c0.4,0.2,1,0.3,1.7,0.4c0.7,0.1,1.3,0.1,1.8,0.2v1.7h-13.7v-1.7c0.4,0,0.8-0.1,1.3-0.1
			c0.4,0,0.8-0.1,1.1-0.2c0.5-0.2,0.9-0.4,1.1-0.8c0.2-0.4,0.4-0.9,0.4-1.5v-16c0-0.5-0.1-1.1-0.4-1.6c-0.3-0.5-0.6-0.9-1.1-1.3
			c-0.3-0.2-0.7-0.4-1.2-0.5c-0.5-0.1-0.9-0.2-1.5-0.2v-1.7l8.6-0.6l0.4,0.4v3.7h0.1c1.1-1.4,2.3-2.5,3.6-3.2
			c1.3-0.7,2.6-1.1,3.7-1.1s2,0.4,2.7,1.1C442.1,108.8,442.4,109.7,442.4,111z"/>
		<path class="st0" d="M473.4,133.6h-12.7v-1.7c0.4,0,0.8-0.1,1.3-0.1c0.5,0,0.9-0.1,1.2-0.2c0.5-0.2,0.9-0.4,1.1-0.8
			c0.2-0.4,0.4-0.9,0.4-1.5v-13.4c0-1.8-0.4-3.3-1.3-4.3c-0.9-1-1.9-1.5-3.2-1.5c-0.9,0-1.8,0.1-2.6,0.4c-0.8,0.3-1.5,0.6-2.1,1.1
			c-0.6,0.4-1,0.8-1.4,1.3c-0.3,0.5-0.6,0.8-0.8,1.1v15c0,0.6,0.1,1.1,0.4,1.5c0.2,0.4,0.6,0.7,1.1,0.9c0.4,0.2,0.8,0.3,1.2,0.4
			c0.4,0.1,0.9,0.1,1.3,0.2v1.7h-12.7v-1.7c0.4,0,0.8-0.1,1.3-0.1c0.4,0,0.8-0.1,1.1-0.2c0.5-0.2,0.9-0.4,1.1-0.8
			c0.2-0.4,0.4-0.9,0.4-1.5v-16c0-0.6-0.1-1.1-0.4-1.6c-0.3-0.5-0.6-0.9-1.1-1.2c-0.3-0.2-0.7-0.4-1.2-0.5c-0.5-0.1-0.9-0.2-1.5-0.2
			v-1.7l8.6-0.6l0.4,0.4v3.7h0.1c0.4-0.4,0.9-0.9,1.6-1.5c0.6-0.6,1.2-1.1,1.8-1.4c0.7-0.4,1.4-0.8,2.3-1.1c0.9-0.3,1.9-0.4,3-0.4
			c2.5,0,4.3,0.8,5.6,2.3c1.2,1.6,1.8,3.6,1.8,6.2V129c0,0.6,0.1,1.1,0.3,1.5c0.2,0.4,0.6,0.7,1.1,0.9c0.4,0.2,0.8,0.3,1.1,0.4
			c0.3,0.1,0.7,0.1,1.3,0.2V133.6z"/>
		<path class="st0" d="M506.6,133.6h-16.8v-1.9c0.5,0,1.2-0.1,2.1-0.2c0.9-0.1,1.5-0.2,1.9-0.3c0.6-0.2,1-0.5,1.3-0.9
			c0.3-0.4,0.4-0.9,0.4-1.6v-27.1c0-0.6-0.1-1.1-0.3-1.5c-0.2-0.4-0.7-0.8-1.4-1c-0.5-0.2-1.2-0.4-2-0.6c-0.8-0.2-1.5-0.3-2-0.3
			v-1.9h16.8v1.9c-0.5,0-1.2,0.1-2,0.2c-0.8,0.1-1.4,0.3-2,0.4c-0.7,0.2-1.1,0.6-1.3,1c-0.2,0.5-0.3,1-0.3,1.6v27.1
			c0,0.6,0.1,1.1,0.4,1.5c0.3,0.4,0.7,0.8,1.3,1.1c0.4,0.1,1,0.3,1.8,0.5c0.8,0.2,1.5,0.3,2.1,0.3V133.6z"/>
		<path class="st0" d="M530.5,111c0,0.9-0.2,1.7-0.7,2.4c-0.4,0.7-1.1,1-2,1c-1,0-1.7-0.3-2.3-0.8c-0.5-0.5-0.8-1.1-0.8-1.7
			c0-0.4,0-0.7,0.1-1.1c0.1-0.3,0.1-0.6,0.2-0.9c-0.8,0-1.8,0.3-2.9,1c-1.1,0.7-2,1.6-2.8,2.8v15.1c0,0.6,0.1,1.1,0.4,1.5
			c0.2,0.4,0.6,0.7,1.1,0.9c0.4,0.2,1,0.3,1.7,0.4c0.7,0.1,1.3,0.1,1.8,0.2v1.7h-13.7v-1.7c0.4,0,0.8-0.1,1.3-0.1
			c0.4,0,0.8-0.1,1.1-0.2c0.5-0.2,0.9-0.4,1.1-0.8c0.2-0.4,0.4-0.9,0.4-1.5v-16c0-0.5-0.1-1.1-0.4-1.6c-0.3-0.5-0.6-0.9-1.1-1.3
			c-0.3-0.2-0.7-0.4-1.2-0.5c-0.5-0.1-0.9-0.2-1.5-0.2v-1.7l8.6-0.6l0.4,0.4v3.7h0.1c1.1-1.4,2.3-2.5,3.6-3.2
			c1.3-0.7,2.6-1.1,3.7-1.1c1.1,0,2,0.4,2.7,1.1C530.2,108.8,530.5,109.7,530.5,111z"/>
		<path class="st0" d="M555.8,127.5c-1.1,2.1-2.5,3.7-4.4,5c-1.8,1.2-3.9,1.8-6.3,1.8c-2.1,0-3.9-0.4-5.5-1.1
			c-1.6-0.7-2.9-1.7-3.9-3c-1-1.3-1.8-2.7-2.3-4.4c-0.5-1.7-0.8-3.5-0.8-5.4c0-1.7,0.3-3.3,0.8-5c0.5-1.6,1.3-3.1,2.4-4.4
			c1-1.2,2.2-2.3,3.7-3c1.5-0.8,3.2-1.1,5-1.1c1.9,0,3.5,0.3,4.9,0.9c1.4,0.6,2.5,1.4,3.3,2.5c0.8,1,1.4,2.1,1.8,3.5
			c0.4,1.3,0.6,2.8,0.6,4.4v1.7H538c0,1.7,0.2,3.3,0.5,4.7c0.3,1.4,0.8,2.6,1.5,3.7c0.7,1,1.6,1.8,2.7,2.4c1.1,0.6,2.4,0.9,4,0.9
			c1.6,0,2.9-0.4,4-1.1c1.1-0.7,2.2-2.1,3.3-4L555.8,127.5z M550,117.6c0-1-0.1-2-0.3-3.2c-0.2-1.1-0.4-2.1-0.8-2.8
			c-0.4-0.8-1-1.5-1.7-2c-0.7-0.5-1.6-0.8-2.7-0.8c-1.8,0-3.4,0.8-4.6,2.3c-1.2,1.5-1.9,3.7-2,6.4H550z"/>
		<path class="st0" d="M571,133.6h-12.7v-1.7c0.4,0,0.8-0.1,1.3-0.1c0.5,0,0.8-0.1,1.1-0.2c0.5-0.2,0.9-0.4,1.1-0.8
			c0.2-0.4,0.4-0.9,0.4-1.5V99c0-0.6-0.1-1.2-0.4-1.8c-0.3-0.6-0.6-1-1.1-1.3c-0.3-0.2-0.9-0.4-1.7-0.6c-0.8-0.2-1.5-0.3-2-0.3v-1.7
			l9.8-0.6l0.4,0.4v35.7c0,0.6,0.1,1.1,0.3,1.5c0.2,0.4,0.6,0.7,1.1,0.9c0.4,0.2,0.8,0.3,1.1,0.4c0.4,0.1,0.8,0.1,1.3,0.2V133.6z"/>
		<path class="st0" d="M598.9,133.1c-0.8,0.3-1.6,0.5-2.2,0.7c-0.6,0.2-1.3,0.3-2.1,0.3c-1.4,0-2.5-0.3-3.3-1
			c-0.8-0.6-1.3-1.6-1.6-2.8h-0.2c-1.1,1.3-2.4,2.2-3.7,2.9c-1.3,0.7-2.9,1-4.7,1c-2,0-3.6-0.6-4.8-1.8c-1.3-1.2-1.9-2.8-1.9-4.7
			c0-1,0.1-1.9,0.4-2.7c0.3-0.8,0.7-1.5,1.3-2.1c0.4-0.5,1-1,1.7-1.4c0.7-0.4,1.4-0.7,2-1c0.8-0.3,2.4-0.9,4.8-1.7
			c2.4-0.8,4-1.4,4.9-1.9v-2.6c0-0.2,0-0.7-0.1-1.3c-0.1-0.6-0.3-1.3-0.6-1.8c-0.4-0.6-0.8-1.2-1.5-1.7c-0.6-0.5-1.6-0.7-2.7-0.7
			c-0.8,0-1.6,0.1-2.3,0.4c-0.7,0.3-1.2,0.6-1.5,0.9c0,0.4,0.1,0.9,0.2,1.6c0.2,0.7,0.2,1.3,0.2,1.9c0,0.6-0.3,1.2-0.8,1.7
			c-0.6,0.5-1.3,0.8-2.3,0.8c-0.9,0-1.5-0.3-1.9-0.9c-0.4-0.6-0.6-1.3-0.6-2.1c0-0.8,0.3-1.6,0.9-2.3c0.6-0.7,1.3-1.4,2.2-2
			c0.8-0.5,1.7-0.9,2.9-1.3c1.1-0.3,2.2-0.5,3.3-0.5c1.5,0,2.8,0.1,3.9,0.3c1.1,0.2,2.1,0.6,3,1.3c0.9,0.7,1.6,1.5,2,2.6
			c0.5,1.1,0.7,2.6,0.7,4.3c0,2.5,0,4.7-0.1,6.7c-0.1,1.9-0.1,4.1-0.1,6.4c0,0.7,0.1,1.2,0.4,1.6c0.2,0.4,0.6,0.7,1.1,1
			c0.3,0.2,0.7,0.2,1.3,0.3c0.6,0,1.2,0,1.8,0V133.1z M589.7,119.2c-1.5,0.4-2.8,0.9-3.9,1.3c-1.1,0.4-2.2,1-3.1,1.6
			c-0.9,0.6-1.6,1.3-2.1,2.1c-0.5,0.8-0.8,1.8-0.8,2.9c0,1.5,0.4,2.5,1.1,3.2c0.8,0.7,1.7,1,2.9,1c1.2,0,2.3-0.3,3.3-0.9
			c0.9-0.6,1.8-1.3,2.4-2.2L589.7,119.2z"/>
		<path class="st0" d="M630.2,133.6h-12.7v-1.7c0.4,0,0.8-0.1,1.3-0.1c0.5,0,0.9-0.1,1.2-0.2c0.5-0.2,0.9-0.4,1.1-0.8
			c0.2-0.4,0.4-0.9,0.4-1.5v-13.4c0-1.8-0.4-3.3-1.3-4.3c-0.9-1-1.9-1.5-3.2-1.5c-0.9,0-1.8,0.1-2.6,0.4c-0.8,0.3-1.5,0.6-2.1,1.1
			c-0.6,0.4-1,0.8-1.4,1.3c-0.3,0.5-0.6,0.8-0.8,1.1v15c0,0.6,0.1,1.1,0.4,1.5c0.2,0.4,0.6,0.7,1.1,0.9c0.4,0.2,0.8,0.3,1.2,0.4
			c0.4,0.1,0.9,0.1,1.3,0.2v1.7h-12.7v-1.7c0.4,0,0.8-0.1,1.3-0.1c0.4,0,0.8-0.1,1.1-0.2c0.5-0.2,0.9-0.4,1.1-0.8
			c0.2-0.4,0.4-0.9,0.4-1.5v-16c0-0.6-0.1-1.1-0.4-1.6c-0.3-0.5-0.6-0.9-1.1-1.2c-0.3-0.2-0.7-0.4-1.2-0.5c-0.5-0.1-0.9-0.2-1.5-0.2
			v-1.7l8.6-0.6l0.4,0.4v3.7h0.1c0.4-0.4,0.9-0.9,1.6-1.5c0.6-0.6,1.2-1.1,1.8-1.4c0.7-0.4,1.4-0.8,2.3-1.1c0.9-0.3,1.9-0.4,3-0.4
			c2.5,0,4.3,0.8,5.5,2.3c1.2,1.6,1.8,3.6,1.8,6.2V129c0,0.6,0.1,1.1,0.3,1.5c0.2,0.4,0.6,0.7,1.1,0.9c0.4,0.2,0.8,0.3,1.1,0.4
			c0.3,0.1,0.7,0.1,1.3,0.2V133.6z"/>
		<path class="st0" d="M660.9,133.1l-9.1,0.6l-0.4-0.4v-2.4l-0.2-0.1c-0.9,1-2,1.9-3.4,2.5c-1.3,0.6-2.7,1-4.1,1
			c-1.5,0-2.9-0.3-4.3-1c-1.4-0.7-2.6-1.6-3.6-2.8c-1-1.2-1.9-2.7-2.5-4.4c-0.6-1.7-0.9-3.6-0.9-5.6c0-1.9,0.3-3.7,1-5.4
			c0.6-1.7,1.5-3.2,2.7-4.4c1.1-1.2,2.4-2.1,3.9-2.8c1.6-0.7,3.1-1.1,4.8-1.1c1.2,0,2.4,0.2,3.6,0.5c1.2,0.3,2.2,0.7,3,1.2v-9.1
			c0-0.7-0.1-1.4-0.4-2c-0.2-0.6-0.6-1.1-1-1.4c-0.5-0.3-1.2-0.6-2-0.7c-0.8-0.1-1.7-0.3-2.7-0.3v-1.6l10.7-0.6l0.4,0.4v35
			c0,0.6,0.1,1.1,0.4,1.6c0.2,0.4,0.6,0.8,1,1.1c0.3,0.2,0.8,0.3,1.4,0.4s1.2,0.1,1.7,0.1V133.1z M651.3,128.6v-15.2
			c-0.1-0.5-0.4-0.9-0.7-1.5c-0.3-0.5-0.7-1-1.2-1.5c-0.5-0.4-1.1-0.8-1.8-1.1c-0.7-0.3-1.5-0.4-2.4-0.4c-1.1,0-2,0.3-2.9,0.8
			c-0.9,0.5-1.7,1.3-2.4,2.3c-0.7,1-1.2,2.2-1.5,3.8c-0.4,1.5-0.6,3.2-0.6,5c0,1.5,0.1,2.8,0.4,4c0.3,1.2,0.8,2.3,1.4,3.4
			c0.6,1,1.4,1.8,2.4,2.4c1,0.6,2.1,0.9,3.4,0.9c1.4,0,2.6-0.3,3.5-0.9C649.9,130,650.7,129.3,651.3,128.6z"/>
	</g>
</g>
</svg>
