<?xml version="1.0" encoding="utf-8"?>
<!-- Generator: Adobe Illustrator 25.4.1, SVG Export Plug-In . SVG Version: 6.00 Build 0)  -->
<svg version="1.1" id="Layer_1" xmlns="http://www.w3.org/2000/svg" xmlns:xlink="http://www.w3.org/1999/xlink" x="0px" y="0px"
	 viewBox="0 0 261.8 259.7" style="enable-background:new 0 0 261.8 259.7;" xml:space="preserve">
<style type="text/css">
	.st0{fill:#FEFEFE;}
	.st1{fill:#231F20;}
	.st2{fill:#136DB4;}
</style>
<g>
	<path class="st0" d="M2.1,119.4c0-38.8,0-77.6,0-116.4c0-1.8,0.3-2.2,2.1-2.2c237.2,0.1,474.4,0.1,711.6,0c1.8,0,2.2,0.3,2.2,2.2
		c-0.1,84.4-0.1,168.8,0,253.1c0,2-0.5,2.4-2.4,2.4c-196.5-0.1-393-0.1-589.5,0c0-19.8,0-39.7,0-59.5c0-1.7-0.2-2.6-2.3-2.5
		c-1.6,0-3.2-0.2-4.7-0.6c-15.5-2.9-28.5-10.1-38.8-22c-14.8-17.2-19.7-37.1-14.8-59c6.2-27.6,29.3-48.2,57.4-51.3
		c1.8-0.2,2.6-0.7,2.6-2.9c-0.2-18.9-0.4-37.9-0.4-56.8c0-1.7-0.3-2.3-2.1-2.2c-6.3,0.2-12.6,1-18.8,2.4
		C75.9,10.5,52,24.4,33.1,46.4c-15.7,18.1-26,40.3-29.5,64.1C3.1,113.4,3.3,116.5,2.1,119.4z M211.1,133.9c-2,0.2-5.3,0.5-8.6,0.7
		c-4.8,0.2-4.7,0.2-5.7,4.9c-0.4,1.9,0.1,2.6,2,2.6c3.9,0.1,7.7,0.4,11.6,0.5c-3.3,0.4-6.5,0.6-9.8,0.9c-4.6,0.4-4.5,0.4-5.7,4.7
		c-0.5,1.7-0.3,2.4,1.8,2.5c5.1,0.1,10.2,0.5,14.4,0.7c-4.4,0.7-8.9,1-13.3,1c-3.1,0.1-4.7,1-5.9,4.1c-0.9,2.4-0.3,2.6,1.7,2.7
		c4.4,0.3,8.7,0.6,13.1,0.9c-3.8,0.6-7.7,1-11.6,1.1c-5.4,0.3-7.1,1.5-8.6,6.2l21.3,1.3c-6.9,1-13.9,1.5-20.8,1.9
		c-3.7,0.2-5.4,1.4-6.9,5.2l27.1,1.6c-0.2,0.3-0.6,0.5-1,0.5c-9.1,0.6-18.3,1.2-27.4,1.6c-3.5,0.2-6,1.7-8.2,4.5l38.1,2.1
		c-14.8,1.4-29.6,2.2-44.4,3c-3,0.1-5.8,1.2-8.2,2.9l52.7,2.8c0,0.2,0,0.3,0,0.5l-69.7,4.2v0.3l66.9,3.6c0,0.3,0,0.6,0,0.9
		l-66.3,3.9c0,0.2,0,0.3,0,0.5l64.3,3.4c0,0.4,0,0.7,0,1.1l-63.2,3.8v0.5l64.2,3.5c0,0.3,0,0.6,0,0.9l-64.8,3.9
		c11.6,1.2,23.3,1.7,34.9,2.3c11.2,0.6,22.4,1.2,33.6,1.8c1.7,0.2,3.3-0.3,4.6-1.4c6.4-5.4,12.3-11.3,17.5-17.9
		c21.7-26.7,31.8-61.1,27.8-95.3c-3.8-32.8-20-63-45.5-84.1c-1.7-1.6-3.9-2.4-6.2-2.2c-9.1,0.7-18.3,1.3-27.4,1.8
		c-13.4,0.8-26.9,1.4-40.3,2.1c0,0.2,0,0.4,0,0.6l72.5,3.8c-24,2-48.2,2.8-72.3,4.9l65,3.5v0.9l-64,3.8v0.6l68,3.5
		c0,0.2,0,0.4,0,0.6L139,59.6c0,0.1,0,0.3,0,0.4l71.7,3.9c0,0,0,0.1,0,0.1L155,67.4c4.2,3.3,8.8,2.7,13.1,3
		c14.4,0.8,28.9,1.5,43.3,2.2v0.2l-42.3,2.7c2.9,2.1,4.7,4.2,7.9,4.3c9.2,0.3,18.3,0.9,27.5,1.4c0.4,0,1-0.2,1.2,0.6l-27.3,1.8
		c2.5,1.8,3.1,4.8,6.1,5c3.3,0.3,6.7,0.4,10,0.6c5.4,0.3,10.7,0.7,16.1,1.1c0.1,0,0.1-0.1,0.2-0.2c0,0.1,0,0.1,0,0.2
		c-8.2,0.7-16.6,0.7-24.7,1.7c1.2,4.4,3.9,6.6,8.4,5.7c0.2,0,0.5,0.1,0.8,0.2c5.5,0.5,11,0.3,14.9,1l-19.3,1.5c0.4,1,0.8,2,1.1,3.1
		c0.7,3,2.6,4.2,5.6,3.8c0.9-0.1,1.8-0.1,2.6-0.1c2.2,0.2,4.5-0.2,6.6,0.7c-3.4,0.4-6.8,0.6-10.2,0.8c-0.7,0-1.7-0.2-2.1,0.7
		c-0.8,1.8,1.9,6.1,3.9,6.2c2.8,0.2,5.7,0,8.9,0.7c-0.7,0.3-1.4,0.6-2.2,0.7c-1.7,0.1-3.4,0.1-5,0.1c-3.8,0.1-3.7,0.3-3.3,4
		c0.3,2.9,1.5,3.7,4.2,3.5c2.8-0.2,5.6,0,8.2,0.8c-2.8,0.2-5.8,0.5-8.7,0.5c-2.3,0-3.2,0.8-3,3c0.1,0.7,0.1,1.4,0.1,2.1
		c-0.2,1.7,0.4,2.3,2.2,2.3C203.9,133.4,208.1,133.8,211.1,133.9L211.1,133.9z M459.2,134.4c-0.6-0.2-1-0.8-1-1.4
		c-1.9-7.2-3.9-14.3-5.8-21.5c-0.3-1.3-0.5-2.5-2.4-2.5c-5.6,0.1-11.1,0.1-16.7,0c-1.3,0-1.6,0.5-1.6,1.7c0,15.3,0,30.7,0,46
		c0,1.2,0.3,1.7,1.6,1.7c2.7-0.1,5.5-0.1,8.2,0c1.4,0,1.8-0.5,1.8-1.9c-0.1-4.8,0-9.5,0-14.3v-17.5c0.6,0.6,1,1.4,1.2,2.3
		c2.1,8,4.3,16,6.4,24c2,7.6,2,7.6,9.9,7.3c1,0.1,2-0.6,2.2-1.6c0,0,0-0.1,0-0.1c2-8.1,3.9-16.1,6.1-24.1c0.7-2.6,1-5.3,2.5-8.3v3
		c0,9.6,0,19.2,0,28.8c0,1.1-0.3,2.3,1.6,2.2c3.7-0.1,7.4-0.1,11.1,0c1.4,0,1.5-0.6,1.5-1.8c0-15.2,0-30.5,0-45.7
		c0-1.6-0.5-1.9-2-1.9c-5.4,0.1-10.8,0.1-16.1,0c-1.6,0-2.1,0.7-2.5,2c-0.5,2.3-1,4.6-1.6,6.9C462.2,123.5,460.7,128.9,459.2,134.4
		L459.2,134.4z M406.4,86.3c-2.8-6.7-5.3-13-8-19.3c-0.7-1.5-0.7-2.4,1-3.3c5.2-2.7,7.2-7.3,6.8-12.9c-0.1-5.2-3.3-9.9-8.1-12
		c-2.3-1.1-4.8-1.7-7.3-1.8c-9-0.2-18-0.1-27-0.1c-1.3,0-1.6,0.5-1.6,1.7c0,15.3,0,30.7,0,46c0,1.6,0.6,1.9,2,1.8
		c3.8-0.1,7.6-0.1,11.4,0c1.6,0,1.9-0.6,1.9-2c-0.1-4.8-0.1-9.5,0-14.3c0-0.9-1-2.6,1.1-2.5c1.6,0.1,3.6-1,4.5,1.7
		c1.7,5.1,3.8,10.1,5.7,15.2c0.3,0.9,0.6,1.8,1.9,1.8C395.8,86.3,400.9,86.3,406.4,86.3z M403.4,158.5c-0.4-1.1-0.7-1.9-1-2.7
		c-2.3-5.6-4.6-11.1-7-16.7c-0.6-1.4-0.7-2.2,0.9-3.1c6.1-3,8.2-9.5,6.3-16.5c-1.8-6.4-6.7-10-14.3-10.2c-9.1-0.3-18.2-0.1-27.2-0.2
		c-1.5,0-1.9,0.4-1.9,1.9c0,15.2,0,30.5,0,45.7c0,1.4,0.3,1.8,1.8,1.8c3.9-0.1,7.8-0.1,11.6,0c1.7,0.1,2.1-0.5,2-2.1
		c-0.1-4.9,0-9.9,0-14.8c0-0.7-0.4-1.6,0.6-2.1c2-0.8,4.3,0.2,5.1,2.1c1.9,5,3.7,10,5.6,14.9c0.3,0.9,0.5,1.8,1.9,1.8
		C392.9,158.5,398,158.5,403.4,158.5z M673.4,61.5c0,7.6,0,15.2,0,22.7c0,1.6,0.3,2.2,2,2.1c6-0.1,12,0,18-0.1
		c5.7-0.1,11.2-1.2,15.6-5.3c7-6.6,9.3-14.6,8-24c-1.4-11.4-10.9-20-22.4-20.1c-6.3-0.1-12.7,0-19.1-0.1c-1.7,0-2.2,0.5-2.2,2.2
		C673.4,46.5,673.3,54,673.4,61.5L673.4,61.5z M520.8,56.3c5,9.4,10.8,18.2,16.1,27.1c1.3,2.2,2.8,3.3,5.4,3
		c2.8-0.3,6.5,1.1,8.2-0.5s0.5-5.5,0.5-8.4c0.1-12.8,0-25.6,0.1-38.3c0-1.9-0.5-2.4-2.3-2.3c-2.7,0.2-5.5,0.1-8.2,0
		c-1.2,0-1.7,0.3-1.7,1.6c0.2,5.6-0.3,11.3,0.4,16.9c0.3,2.6,0.3,5.3,0.5,8c-1.1,0-1.2-0.9-1.6-1.4c-3.9-6.4-8.1-12.6-11.4-19.2
		c-2.4-4.7-5.3-6.8-10.5-5.9c-2.3,0.4-5.4-0.9-6.9,0.5c-1.7,1.6-0.5,4.7-0.6,7.1c-0.1,13.1,0,26.3-0.1,39.4c0,2,0.5,2.7,2.5,2.6
		c2.6-0.2,5.3-0.1,7.9,0c1.4,0,1.8-0.4,1.8-1.8c-0.1-7.9-0.1-15.9,0-23.8C520.9,59.3,519.7,58,520.8,56.3z M444.8,81.5
		c1.3,1.4,1,3.9,2.6,4.5s3.5,0.1,5.2,0.3c1.5,0.1,1.9-0.6,1.9-2c-0.1-7.8-0.1-15.7,0-23.5c0-1.7-0.6-2.1-2.1-2.1
		c-5,0.1-10.1,0-15.1,0c-5.2,0-5.2,0-5.2,5.2s0,5.1,5,5.1c1,0,2.4-0.6,2.9,0.4c0.6,1.3-0.4,2.5-1.1,3.6c-0.7,0.9-1.7,1.6-2.8,2
		c-4.5,1.6-9-1-10.2-6.2c-1.1-4.9-1.1-10,0-14.9c0.9-4.4,3.3-6.7,6.5-6.9s5.3,1.6,6.9,6.3c0.1,0.2,0.2,0.5,0.3,0.7
		c0.1,0.7,0.5,0.8,1.1,0.7c4.1-0.5,8.2-1,12.3-1.4c1-0.1,1.2-0.6,1-1.4c-0.9-3.4-2.1-6.7-4.6-9.3c-6.8-7.1-15.2-7.3-24-5.5
		c-4.7,1-8.8,4-11.2,8.1c-5.5,8.4-6.3,17.5-3.4,26.9c1.9,6.3,5.8,11.3,12.3,13.5C431,88.2,438.5,87.9,444.8,81.5L444.8,81.5z
		 M333.3,36.2c-10.5,0.1-17.9,4.8-21.5,13.8c-1.6,4.1-2,8.3-2,12.7c0,11.4,6.9,23,20.8,24.2c8.3,0.7,15.8-1.4,21-8.3
		c4.9-6.5,5.9-13.8,4.9-21.7C355,44.1,346.1,36.1,333.3,36.2z M601.5,36.2c-2.8-0.1-5.7,0.3-8.4,1.2c-8.9,2.8-13.5,11.7-10.4,20.2
		c1.9,5.3,6.4,7.2,11.1,8.8c3.7,1.2,7.7,1.8,11.5,2.8c1.6,0.3,2.8,1.7,2.8,3.4c0,1.5-1.2,2.3-2.5,2.7c-3.8,1-10.2,0.3-11.8-4.3
		c-0.4-1.2-1.2-1.3-2.3-1.1c-3.4,0.8-6.9,1.4-10.3,1.9c-2.3,0.2-1.9,1.3-1.4,2.5c1.3,3.6,3.7,6.6,6.8,8.8c7.7,5.4,22.4,5.4,30.1,0
		c9-6.2,9.3-19,0.4-24.7c-3-1.7-6.2-2.9-9.5-3.5c-2.8-0.7-5.7-1.1-8.5-1.8c-1.3-0.4-2.7-1.3-2.5-3c0.2-1.5,1.2-2.3,2.8-2.7
		c3.7-1,7,0,9.3,3.2c0.8,1.1,1.5,1.5,2.8,1c2.9-1,5.8-1.8,8.8-2.6c1.5-0.4,2.1-1.1,1.2-2.6c-0.4-0.7-0.8-1.4-1.2-2
		C615.7,38.1,609.3,36.1,601.5,36.2z M629.9,61.4v22.7c0,1.1-0.2,2.2,1.7,2.2c11.2-0.1,22.4-0.1,33.6,0c1.3,0,1.9-0.4,1.8-1.8
		c-0.1-2.6-0.1-5.3,0-7.9c0.1-1.6-0.5-2.2-2.1-2.1c-4.7,0.1-9.3,0-14,0c-6.4,0-6.4,0-6.2-6.3c0-1.5,0.5-1.7,1.8-1.7
		c4.8,0.1,9.5,0,14.3,0.1c1.5,0,2-0.5,1.9-2c-0.1-2.4-0.1-4.8,0-7.1c0.1-1.6-0.3-2.2-2-2.1c-3.6,0.1-7.2,0-10.8,0
		c-5.3,0-5.3,0-5.2-5.5c0-1.5,0.4-2,1.9-2c3.9,0.1,7.8,0,11.7,0c2.8,0,6.6,1,8.2-0.4c1.8-1.6,0.3-5.5,0.6-8.3
		c0.2-1.8-0.5-2.4-2.3-2.4c-10.8,0.1-21.7,0.1-32.6,0c-2,0-2.3,0.7-2.2,2.4C630,46.6,629.9,54,629.9,61.4z M493.8,133.7
		c0,7.6,0,15.2,0,22.7c0,1.3,0.1,2.1,1.8,2.1c11.2-0.1,22.4-0.1,33.6,0c1.5,0,1.7-0.6,1.7-1.9c-0.1-2.6-0.1-5.3,0-7.9
		c0.1-1.5-0.4-1.9-1.9-1.9c-4.8,0.1-9.7,0-14.6,0c-5.9,0-5.9,0-5.9-6c0-2,0.7-2.4,2.5-2.3c4.1,0.1,8.1-0.1,12.2,0.1
		c2.6,0.1,3.9-0.4,3.5-3.3c-0.2-1.9-0.2-3.9,0-5.8c0.1-1.4-0.4-1.8-1.8-1.8c-3.8,0.1-7.6,0-11.4,0c-4.9,0-4.8,0-4.9-4.8
		c0-2,0.4-2.8,2.6-2.7c5.8,0.2,11.6,0,17.5,0.1c1.9,0,2.4-0.5,2.3-2.4c-0.2-2.1-0.2-4.2,0-6.3c0.2-2-0.4-2.7-2.6-2.7
		c-10.8,0.1-21.5,0.1-32.3,0c-2,0-2.3,0.7-2.3,2.4C493.9,118.9,493.8,126.3,493.8,133.7z M480.8,36.9c-1.9,0.1-3.9,0.1-5.8-0.1
		c-1.8-0.2-2.5,0.7-2.9,2.1c-2.6,8.4-5.1,16.8-7.7,25.3c-2.1,6.8-4.1,13.5-6.3,20.2c-0.6,1.7-0.1,2,1.4,1.9c2.4-0.1,4.8-0.1,7.1,0
		c2.3,0.2,3.5-0.4,4-2.9s0.9-5.4,2.5-6.6s4.6-0.3,7-0.4c0.7,0.1,1.4,0.1,2.1,0c3.1-0.6,4.7,0.6,5,3.8c0.1,1.4,0.9,2.8,1.2,4.3
		s1,1.8,2.4,1.7c3.7-0.1,7.4-0.2,11.1,0c2.3,0.1,2.3-0.7,1.7-2.5c-4.7-14.7-9.3-29.5-13.8-44.2c-0.6-2.1-1.5-3-3.8-2.8
		C484.4,36.9,482.6,36.9,480.8,36.9L480.8,36.9z M325.2,133.3c-0.2-3.2,0.2-6.5,1.3-9.5c0.9-2.6,2.6-4.4,5.6-4.4s4.7,1.6,5.8,4.2
		c0.4,0.9,0.6,1.8,0.7,2.8c0,1.9,0.7,2.8,2.8,2.5c3.2-0.5,6.5-0.7,9.8-0.5c1.8,0.1,1.8-0.8,1.5-2.1c-1.8-10-7.2-16.8-18.1-17.7
		s-19.6,3.6-23.1,14c-1.7,5.3-2.2,10.9-1.6,16.4c1.1,11.6,9.1,19.5,20.8,20.2s20-5.7,22.1-17c0.2-1.1,0.2-1.8-1.3-1.8
		c-3.2,0-6.3-0.4-9.5-0.6c-2.3-0.1-2.9,0.6-3.4,2.6c-0.9,3.8-3.1,5.5-6.4,5.5c-3.1,0-5.4-2.2-6.3-5.7
		C325.1,139.7,325.3,137.1,325.2,133.3z M580.2,206.3c0,7.2,0.1,14.4,0,21.7c0,2.3,0.5,3.5,3,3c0.4-0.1,0.7-0.1,1.1,0
		c1.9,0.3,2.3-0.6,2.3-2.4c-0.1-5.3,0.1-10.6-0.1-15.9c-0.1-2.6,0.7-3.7,3.4-3.5c2.6,0.2,5.1,0.2,7.7,0c1.7-0.3,3.3,0.8,3.8,2.4
		c2.2,5.4,4.7,10.6,6.7,16c1,2.7,2.5,3.5,5.2,3.4s2.5-0.9,1.7-2.9c-2.6-5.8-5-11.6-7.4-17.4c-0.5-1.3-1.7-2.7,0.8-3.8
		c5.8-2.6,8-9,7.2-13.8c-0.9-6.1-5.7-10.8-11.8-11.4c-6.8-1-13.7-0.1-20.6-0.5c-2.2-0.1-2.9,0.6-2.8,2.8
		C580.3,191.5,580.2,198.9,580.2,206.3z M570.6,204.6c0.1-5.6-1.5-11.1-4.7-15.8c-6.5-9.9-21.6-11.1-29.3-2.3c-8.6,9.8-9,28-1,38.3
		c7.3,9.2,22.1,9.1,29.1-0.3C568.9,218.9,570.7,212.5,570.6,204.6L570.6,204.6z M470.4,230.7c0-0.2-0.1-0.5-0.2-0.7
		c-4.3-8.2-8.3-16.7-13.2-24.5c-3.2-5.1-2.9-8.8,1.2-13c3.1-3.2,5.6-7.1,8.3-10.7c-2.7,0.2-5.5-1.6-7.6,1.1
		c-5.7,7.6-11.6,15-17.4,22.5c-1,1.4-2.2,2.7-3.5,3.7c0-8.6-0.1-16.8,0-25c0-2.4-0.8-3.1-3.1-2.9c-1.9,0.1-3.4-0.2-3.4,2.8
		c0.2,14.4,0.1,28.7,0.1,43.1c0,4,0,3.9,3.9,3.9c1.9,0,2.5-0.6,2.4-2.4c-0.1-3,0-6-0.1-9c0-1.5,0.5-2.9,1.5-4
		c2.6-3.1,5.1-6.3,7.6-9.4c2-2.5,2.2-2.5,3.6,0.2c3.6,6.6,7.5,13.1,10.7,19.9C463.4,230.5,465.9,232,470.4,230.7L470.4,230.7z
		 M404.7,231.6c2.8,0.1,5.5-0.4,8.1-1.5c6.2-2.4,9.6-7.5,9.4-14.3c-0.2-5.3-4.2-9.8-10.2-11.7c-4.9-1.6-10.1-2.3-15-4
		c-2.8-0.8-4.8-3.2-4.9-6.1c-0.2-2.7,1.3-5.3,3.7-6.5c6.9-4.2,16.8-0.6,18.6,5.3c0.1,0.8,0.8,1.4,1.6,1.3c0.2,0,0.3-0.1,0.5-0.2
		c4.8-1.4,4.2-0.8,2.2-4.9c-0.4-0.8-0.9-1.5-1.5-2.1c-4.8-5.6-11.2-6.8-18-5.9c-5.5,0.7-10.2,3.1-12.4,8.6
		c-2.8,7.1,0.9,14.4,8.6,16.8c4.8,1.5,9.8,2.6,14.7,4.1c3.1,0.8,5.3,3.5,5.6,6.6c0.2,3.3-1.7,6.5-4.7,7.9c-3.6,1.6-7.5,1.9-11.3,1
		c-4.5-0.8-8.3-3.8-10.1-8c-0.6-1.4-3.3-1.6-5.1-0.5c-1.4,0.9-0.3,1.9,0.1,2.7C388.5,228.2,395.1,231.7,404.7,231.6L404.7,231.6z
		 M574.4,61.4c0-7.5,0-15,0-22.5c0-1.5-0.2-2.2-2-2.2c-3.7,0.2-7.4,0.1-11.1,0c-1.5,0-1.9,0.4-1.9,1.9c0.1,15.2,0.1,30.5,0,45.7
		c0,1.6,0.5,1.9,2,1.9c3.6-0.1,7.2-0.1,10.8,0c1.8,0.1,2.2-0.5,2.2-2.2C574.3,76.6,574.4,69,574.4,61.4z M409,133.6
		c0,7.6,0,15.1,0,22.7c0,1.7,0.4,2.3,2.2,2.2c3.6-0.1,7.2-0.1,10.8,0c1.4,0,2.1-0.2,2.1-1.8c0-15.3,0-30.6,0-45.9
		c0-1.2-0.4-1.7-1.7-1.6c-3.8,0.1-7.6,0.1-11.4,0c-1.6,0-2.1,0.5-2,2.1C409,118.7,409,126.2,409,133.6z M670.3,206.2
		c0,7.5,0.1,15,0,22.5c0,1.9,0.5,2.4,2.3,2.3c9.1-0.1,18.2-0.1,27.3,0c2,0,2.7-0.5,2.6-2.5c-0.1-1.7,0-2.9-2.4-3
		c-7.2-0.3-14.3-0.1-21.4-0.1c-1.5,0-2.2-0.4-2.1-2.1c0.1-4.5,0.2-9,0-13.5c-0.1-2.2,0.8-2.7,2.8-2.7c4.9,0.1,9.9,0,14.8,0
		c1.5,0,2.7-0.1,2.5-2c-0.2-1.4,0.1-2.9-2.3-2.8c-5.2,0.2-10.4,0-15.6,0.1c-1.5,0-2.2-0.4-2.1-2.1c0.1-3.6,0.2-7.2,0-10.8
		c-0.1-2.3,0.7-2.8,2.8-2.8c6.6,0.1,13.2,0,19.9,0.1c2.5,0,2.4-1.5,2.4-3.3c0.1-2-0.8-2.3-2.5-2.2c-8.7,0.1-17.5,0.1-26.2,0
		c-2.2,0-2.6,0.7-2.6,2.7C670.3,191.4,670.3,198.8,670.3,206.2L670.3,206.2z M376.5,231c3.8,0,3.8,0,2.7-3.4
		c-4.7-14.6-9.6-29.1-14.1-43.8c-1-3.4-3.3-2.2-5.4-2.5c-2.3-0.4-3,0.8-3.6,2.7c-2.8,8.7-5.6,17.3-8.4,26c-2,6.3-4,12.7-6,19
		c-0.2,0.6-0.9,1.3-0.1,1.9c1.3,1,4.6-0.2,5.1-1.9c1.1-3.4,2.2-6.8,3.2-10.3c0.1-1.4,1.4-2.4,2.8-2.2c0.1,0,0.1,0,0.2,0
		c4.7,0.1,9.4,0.1,14,0c1.8,0,2.5,0.7,3,2.2c1.1,3.2,2.3,6.4,3.3,9.7C373.6,230.5,374.6,231.5,376.5,231z M642.3,231.6
		c8.3,0,14.3-4.2,17.3-12.4c1.4-3.8,1-4.1-3-4.6c-2.2-0.2-1.9,1.5-2.3,2.5c-1.9,5-4.8,8.9-10.6,9.3c-6.5,0.4-11.2-3.3-13.3-10.1
		c-1.5-5.2-1.8-10.6-1-15.9c0.7-4.8,2.3-9.5,6.6-12.5c6.5-4.5,14.2-1.6,17.8,6.4c1.5,3.3,2.4,3.6,5.9,2.5c1-0.3,1-0.8,0.8-1.6
		c-2.1-6.8-5.7-12.4-13.3-13.9c-7.2-1.4-13.8,0.1-18.9,5.9c-7.8,8.7-7.4,25.9-1.9,35.1C630,228.1,635.1,231.6,642.3,231.6
		L642.3,231.6z M498,206c0,7.5,0,15,0,22.5c0,0.8-0.4,1.8,0.6,2.4c1.8,1,4,0.5,5.1-1.3c0.3-0.5,0.5-1.1,0.5-1.7c0-5.7,0-11.4,0-17.2
		c0-3.4,0-3.4,3.6-3.4c4.8,0,9.5-0.1,14.3,0.1c2.1,0.1,2.3-1,2.3-2.6s-0.3-2.4-2.3-2.3c-5.2,0.2-10.4,0-15.6,0.1
		c-1.6,0-2.4-0.4-2.4-2.2c0.1-3.8,0.1-7.6,0-11.4c0-1.6,0.6-2.1,2.1-2.1c4.6,0.1,9.2,0.1,13.8,0c2.3,0,4.6-0.2,6.9-0.2
		c1.8,0,1.4-1.3,1.3-2.2s0.8-2.9-1.1-2.9c-5.9-0.1-11.8,0-17.7,0.1c-3.1,0-6.3,0.6-9.2,0.1c-2.3-0.4-2.1,0.5-2.1,1.9
		C498,191.1,498,198.5,498,206z M322.7,208.9c0,6.6,0,13.2,0,19.8c0,0.7-0.3,1.9,0.6,2.1c1.6,0.4,3.4,0.4,5,0c1.3-0.4,0.6-2,0.6-3.1
		c0-12.8,0.1-25.6,0-38.3c0-2,0.5-2.6,2.5-2.5c3.2,0.2,6.4-0.1,9.5,0.1c2.3,0.1,2.3-1.2,2.3-2.9s0.2-2.9-2.2-2.8
		c-10,0.1-19.9,0.1-29.9,0c-2,0-2.4,0.8-2.2,2.5c0.1,1.4-0.6,3.3,2.1,3.2c2.9-0.1,5.8,0.1,8.7-0.1c2.3-0.1,3.2,0.4,3.1,3
		C322.6,196.2,322.7,202.5,322.7,208.9L322.7,208.9z M139.2,234.8c0,0.1,0,0.2,0,0.3c6.9,0.4,13.7,0.8,20.5,1.2
		c11.6,0.6,23.3,0.6,34.8,1.9c7.3,0.8,10.8-4.2,15.4-7.6L139.2,234.8z M208.4,28.7c-2.1-2.7-4.8-4.2-7.3-6.1
		c-1.6-1.2-3.6-1.7-5.6-1.5c-15,1-29.9,1.7-44.9,2.7c-3.7,0.3-7.5-0.1-11.8,1.1L208.4,28.7z M195.6,241c0-0.2-0.1-0.5-0.1-0.8
		l-55.3,3.3c3.5,0.7,7,1.1,10.5,1.2c9.8,0.5,19.6,0.7,29.3,1.6C186.3,246.8,190.7,243.6,195.6,241L195.6,241z M193.9,19.1
		c-2.6-2.4-5.7-4.2-9-5.5c-0.7-0.3-1.5-0.5-2.3-0.4c-10,0.6-20.1,1.1-30.1,1.6c-5.2,0.3-10.4,0.8-15.6,1.1c0,0.1,0,0.2,0,0.2
		L193.9,19.1z M140.9,252.4c5.6,0.4,11.5,0.8,17.5,1.2c5.3,0.5,10.6-0.5,15.2-2.9C162.4,250.7,151.5,252.2,140.9,252.4L140.9,252.4z
		 M171.3,8.8c-9.1-5-18.1-1.9-26.9-2c0,0.2,0,0.5,0,0.7L171.3,8.8z"/>
	<path class="st1" d="M2.1,119.4c1.3-2.8,1-5.9,1.5-8.9c3.5-23.7,13.8-46,29.5-64.1C52,24.4,75.9,10.5,104.2,4.2
		c6.2-1.4,12.5-2.2,18.8-2.4c1.8-0.1,2.1,0.5,2.1,2.2c0.1,18.9,0.2,37.9,0.4,56.8c0,2.2-0.8,2.7-2.6,2.9
		C94.8,66.8,71.7,87.4,65.5,115c-4.8,21.9,0,41.8,14.8,58.9c10.3,12,23.3,19.1,38.8,22c1.5,0.4,3.1,0.6,4.7,0.6
		c2-0.1,2.3,0.8,2.3,2.5c0,19.8,0,39.7,0.1,59.5h-6.4c-0.1-0.4-0.4-0.5-0.8-0.5c-36.4-3.2-69.8-21.8-91.5-51.2
		c-12.7-16.8-20.9-36.5-23.9-57.3c-0.5-3.1-0.3-6.4-1.5-9.4V119.4z"/>
	<path class="st0" d="M2.1,140c1.1,3,1,6.3,1.5,9.4c3,20.8,11.2,40.5,23.9,57.3c21.8,29.4,55.1,48.1,91.5,51.3
		c0.4,0,0.7,0.1,0.8,0.5c-38.5,0-77,0-115.5,0c-1.8,0-2.2-0.4-2.2-2.2C2.1,217.6,2.1,178.8,2.1,140z"/>
	<path class="st2" d="M211.1,133.9c-2.9-0.2-7.1-0.5-11.3-0.6c-1.8-0.1-2.4-0.6-2.2-2.3c0-0.7,0-1.4-0.1-2.1c-0.2-2.2,0.8-3,3-3
		c3,0,6-0.3,8.7-0.5c-2.7-0.7-5.5-1-8.2-0.8c-2.7,0.1-3.9-0.7-4.2-3.5c-0.4-3.7-0.5-3.9,3.3-4c1.7,0,3.4,0,5-0.1
		c0.8-0.2,1.5-0.4,2.2-0.7c-3.2-0.7-6.1-0.5-8.9-0.7c-1.9-0.2-4.6-4.5-3.9-6.2c0.4-1,1.4-0.7,2.1-0.7c3.4-0.2,6.8-0.4,10.2-0.8
		c-2.1-0.9-4.4-0.6-6.6-0.7c-0.9-0.1-1.8,0-2.6,0.1c-3,0.4-4.9-0.8-5.6-3.8c-0.3-1-0.7-2-1.1-3l19.3-1.5c-3.9-0.7-9.4-0.5-14.9-1
		c-0.3,0-0.5-0.2-0.8-0.2c-4.5,0.8-7.1-1.3-8.4-5.7c8.1-1,16.4-1,24.7-1.7c0,0,0-0.1,0-0.2s-0.1,0.2-0.2,0.2
		c-5.4-0.4-10.7-0.8-16.1-1.1c-3.3-0.2-6.7-0.3-10-0.6c-3-0.3-3.5-3.3-6.1-5l27.4-1.9c-0.2-0.8-0.8-0.6-1.2-0.6
		c-9.1-0.5-18.3-1.1-27.5-1.4c-3.2-0.1-5-2.2-7.9-4.3l42.3-2.7v-0.2c-14.4-0.7-28.9-1.4-43.3-2.2c-4.3-0.2-8.9,0.4-13.1-3l55.8-3.4
		c0,0,0-0.1,0-0.1L139.1,60c0-0.1,0-0.3,0-0.4l69.2-4.1c0-0.2,0-0.4,0-0.6l-68-3.5v-0.6l64-3.8V46l-65-3.5
		c24.1-2.2,48.3-2.9,72.3-4.9l-72.5-3.8c0-0.2,0-0.4,0-0.6c13.4-0.7,26.9-1.4,40.4-2.1c9.2-0.5,18.3-1.1,27.4-1.8
		c2.3-0.2,4.5,0.6,6.2,2.2c25.4,21.2,41.7,51.3,45.4,84.1c4,34.2-6,68.6-27.8,95.3c-5.2,6.5-11.1,12.5-17.6,17.9
		c-1.3,1.1-2.9,1.6-4.6,1.4c-11.2-0.6-22.4-1.2-33.6-1.8c-11.6-0.6-23.2-1.2-34.9-2.3l64.8-3.9c0-0.3,0-0.6,0-0.9l-64.2-3.5v-0.5
		l63.2-3.8c0-0.4,0-0.7,0-1.1l-64.4-3.4c0-0.2,0-0.3,0-0.5l66.3-3.9c0-0.3,0-0.6,0-0.9l-66.8-3.6v-0.3l69.7-4.2c0-0.2,0-0.3,0-0.5
		l-52.7-2.8c2.4-1.8,5.3-2.8,8.2-2.9c14.8-0.8,29.6-1.6,44.4-3l-38.1-2.1c2.2-2.8,4.7-4.4,8.2-4.5c9.2-0.4,18.3-1.1,27.4-1.6
		c0.4,0,0.8-0.2,1-0.5l-27.1-1.6c1.5-3.8,3.2-5,6.9-5.2c6.9-0.4,13.8-0.9,20.8-1.9l-21.3-1.4c1.4-4.7,3.2-5.9,8.6-6.2
		c3.9-0.1,7.8-0.5,11.6-1.1c-4.4-0.3-8.7-0.6-13.1-0.9c-2-0.1-2.6-0.3-1.7-2.7c1.1-3.1,2.7-4,5.9-4.1c4.5,0,8.9-0.3,13.3-1
		c-4.2-0.2-9.4-0.6-14.4-0.7c-2-0.1-2.2-0.8-1.8-2.5c1.2-4.3,1.1-4.3,5.7-4.7c3.2-0.3,6.5-0.4,9.8-0.9c-3.9-0.2-7.7-0.4-11.6-0.5
		c-1.9-0.1-2.4-0.7-2-2.6c0.9-4.7,0.9-4.6,5.7-4.9C205.8,134.4,209.1,134.1,211.1,133.9z M205.1,213.2c0.4,0,0.8,0,0.8-0.4
		c0-0.1-0.4-0.3-0.7-0.3s-0.4,0.2-0.7,0.3L205.1,213.2z"/>
	<path class="st1" d="M459.2,134.4c1.5-5.5,2.9-11,4.4-16.4c0.6-2.3,1.1-4.6,1.6-6.9c0.3-1.3,0.8-2,2.5-2c5.4,0.1,10.8,0.1,16.1,0
		c1.5,0,2,0.3,2,1.9c0,15.2,0,30.5,0,45.7c0,1.1-0.1,1.8-1.5,1.8c-3.7-0.1-7.4-0.1-11.1,0c-1.9,0.1-1.6-1.1-1.6-2.2
		c0-9.6,0-19.2,0-28.8v-3c-1.6,3-1.9,5.7-2.5,8.3c-2.1,8-4.1,16.1-6.1,24.1c-0.1,1-1,1.8-2.1,1.7c0,0-0.1,0-0.1,0
		c-7.9,0.2-7.9,0.3-9.9-7.3c-2.1-8-4.2-16-6.4-24c-0.2-0.9-0.6-1.7-1.2-2.3v17.5c0,4.8,0,9.5,0,14.3c0,1.4-0.4,1.9-1.8,1.9
		c-2.7-0.1-5.5-0.1-8.2,0c-1.3,0-1.6-0.5-1.6-1.7c0-15.3,0-30.7,0-46c0-1.2,0.2-1.7,1.6-1.7c5.6,0,11.1,0.1,16.7,0
		c1.9,0,2,1.2,2.4,2.5c1.9,7.2,3.9,14.3,5.8,21.5C458.3,133.8,458.7,134.2,459.2,134.4z"/>
	<path class="st1" d="M406.4,86.3c-5.4,0-10.5,0-15.6,0c-1.3,0-1.5-0.9-1.9-1.8c-1.9-5.1-4-10.1-5.7-15.2c-0.9-2.7-2.9-1.7-4.5-1.7
		c-2.1-0.1-1.1,1.7-1.1,2.5c-0.1,4.8-0.1,9.5,0,14.3c0,1.4-0.3,2-1.9,2c-3.8-0.1-7.6-0.1-11.4,0c-1.4,0-2-0.2-2-1.8
		c0-15.3,0-30.7,0-46c0-1.2,0.3-1.7,1.6-1.7c9,0.1,18,0,27,0.1c2.5,0.1,5,0.7,7.3,1.8c4.8,2.1,8,6.8,8.1,12
		c0.3,5.6-1.6,10.2-6.8,12.9c-1.7,0.9-1.7,1.7-1,3.3C401,73.2,403.6,79.5,406.4,86.3z M377.6,52.3c0,1.2,0,2.3,0,3.4
		c0,0.9,0.3,1.3,1.2,1.3c2.7-0.1,5.5,0.3,8.1-0.5c2.4-0.7,3.6-2.2,3.5-4.6c0-2.2-1.7-4.1-3.9-4.3c-1.3-0.2-2.7-0.2-4-0.2
		C377.6,47.3,377.6,47.3,377.6,52.3L377.6,52.3z"/>
	<path class="st1" d="M403.4,158.5c-5.4,0-10.5,0-15.6,0c-1.4,0-1.5-1-1.9-1.8c-1.9-5-3.8-10-5.6-14.9c-0.8-2-3.1-2.9-5.1-2.1
		c-1,0.4-0.6,1.4-0.6,2.1c0,4.9-0.1,9.9,0,14.8c0,1.6-0.3,2.1-2,2.1c-3.9-0.1-7.8-0.1-11.6,0c-1.4,0-1.8-0.4-1.8-1.8
		c0-15.2,0-30.5,0-45.7c0-1.5,0.4-2,1.9-1.9c9.1,0.1,18.2,0,27.2,0.2c7.6,0.2,12.6,3.8,14.3,10.2c1.9,6.9-0.2,13.5-6.3,16.5
		c-1.6,0.8-1.5,1.7-0.9,3.1c2.4,5.5,4.6,11.1,7,16.7C402.7,156.6,403,157.4,403.4,158.5z M379.1,129.1c1.6,0,3.2-0.1,4.7-0.4
		c2.3-0.3,3.9-2.4,3.6-4.7c-0.1-2.3-2-4.1-4.3-4.2c-1.3-0.1-2.6-0.1-4-0.1c-4.7,0-4.7,0-4.7,4.7C374.6,128.9,374.6,129,379.1,129.1z
		"/>
	<path class="st1" d="M673.3,61.5c0-7.5,0-15,0-22.5c0-1.7,0.5-2.2,2.2-2.2c6.3,0.1,12.7,0,19.1,0.1C706,37.1,715.6,45.6,717,57
		c1.3,9.4-1,17.5-8,24c-4.4,4.1-9.8,5.2-15.6,5.3c-6,0.1-12,0-18,0.1c-1.7,0-2-0.6-2-2.1C673.4,76.6,673.3,69,673.3,61.5z
		 M688.3,61.5c0,3.9,0,7.8,0,11.6c0,0.8-0.2,1.7,1.1,2c3.8,0.9,7.8-0.9,9.7-4.4c2.7-4.8,3.1-10.6,1.2-15.8c-1.8-5.4-4.4-7-10-7
		c-1.7,0-2.1,0.6-2,2.2C688.4,53.8,688.3,57.6,688.3,61.5L688.3,61.5z"/>
	<path class="st1" d="M520.8,56.3c-1,1.8,0.1,3.1,0.1,4.5c-0.1,7.9,0,15.9,0,23.8c0,1.4-0.5,1.8-1.8,1.8c-2.7-0.1-5.3-0.1-7.9,0
		c-2,0.1-2.5-0.6-2.5-2.6c0.1-13.1,0-26.3,0.1-39.4c0-2.4-1.1-5.5,0.6-7.1c1.5-1.4,4.6-0.1,6.9-0.5c5.2-0.9,8.2,1.2,10.5,5.9
		c3.3,6.7,7.6,12.8,11.4,19.2c0.3,0.5,0.4,1.4,1.6,1.4c-0.2-2.7-0.2-5.4-0.5-8c-0.8-5.6-0.2-11.3-0.4-16.9c0-1.3,0.5-1.7,1.7-1.6
		c2.7,0.1,5.5,0.2,8.2,0c1.9-0.1,2.3,0.4,2.3,2.3c-0.1,12.8,0,25.6-0.1,38.3c0,2.9,1.3,6.6-0.5,8.4s-5.4,0.2-8.2,0.5
		c-2.6,0.3-4-0.7-5.4-3C531.5,74.4,525.8,65.7,520.8,56.3z"/>
	<path class="st1" d="M444.8,81.5c-6.3,6.3-13.8,6.6-21.7,4c-6.5-2.2-10.4-7.2-12.3-13.5c-2.9-9.4-2-18.5,3.4-26.9
		c2.5-4.1,6.5-7,11.2-8.1c8.8-1.8,17.2-1.6,24,5.5c2.5,2.6,3.7,5.9,4.6,9.3c0.2,0.8,0.1,1.3-1,1.4c-4.1,0.4-8.2,0.9-12.3,1.4
		c-0.6,0.1-1,0-1.1-0.7c-0.1-0.3-0.1-0.5-0.3-0.7c-1.6-4.7-3.6-6.5-6.9-6.3s-5.6,2.5-6.5,6.9c-1.1,4.9-1,10,0,14.9
		c1.2,5.3,5.6,7.9,10.2,6.2c1.1-0.4,2.1-1.1,2.8-2c0.8-1,1.8-2.3,1.1-3.6c-0.5-1-1.9-0.4-2.9-0.4c-5.1-0.1-5.1,0-5-5.2
		s0-5.2,5.2-5.2c5,0,10.1,0,15.1,0c1.6,0,2.2,0.4,2.1,2.1c-0.1,7.8-0.1,15.7,0,23.5c0,1.4-0.4,2.1-1.9,2c-1.8-0.1-3.7,0.3-5.2-0.3
		S446.2,82.9,444.8,81.5z"/>
	<path class="st1" d="M333.3,36.2c12.8-0.1,21.7,7.9,23.3,20.6c1,7.9,0,15.2-4.9,21.7c-5.3,7-12.7,9.1-21,8.3
		c-14-1.2-20.9-12.8-20.8-24.2c0-4.3,0.3-8.6,2-12.7C315.4,41,322.9,36.3,333.3,36.2z M340.7,62.1c0.1-4-0.1-7.9-1.9-11.4
		c-1-2.2-3.1-3.5-5.5-3.4c-2.4-0.1-4.5,1.4-5.3,3.6c-2.8,6.6-2.9,14.1-0.4,20.8c0.8,2.5,3.2,4.2,5.9,4c2.9,0,4.7-1.6,5.8-4.1
		C340.5,68.6,340.9,65.4,340.7,62.1z"/>
	<path class="st1" d="M601.5,36.2c7.8-0.1,14.2,1.8,18.7,8c0.5,0.6,0.8,1.3,1.2,2c0.9,1.5,0.3,2.2-1.2,2.6c-2.9,0.8-5.9,1.7-8.8,2.6
		c-1.3,0.4-2,0.1-2.8-1c-2.3-3.2-5.6-4.1-9.3-3.2c-1.6,0.4-2.6,1.2-2.8,2.7c-0.2,1.7,1.2,2.6,2.5,3c2.8,0.8,5.7,1.2,8.5,1.8
		c3.4,0.6,6.6,1.8,9.5,3.5c8.8,5.7,8.6,18.4-0.4,24.7c-7.7,5.4-22.4,5.3-30.1,0c-3.1-2.2-5.5-5.3-6.8-8.8c-0.5-1.2-0.9-2.3,1.4-2.5
		c3.5-0.4,6.9-1.1,10.4-1.8c1.1-0.2,1.8-0.1,2.3,1.1c1.6,4.7,8,5.3,11.8,4.3c1.4-0.4,2.6-1.2,2.5-2.7c0-1.7-1.2-3.1-2.8-3.4
		c-3.8-1-7.8-1.5-11.5-2.8c-4.7-1.5-9.2-3.5-11.1-8.8c-3.1-8.5,1.5-17.4,10.4-20.2C595.8,36.6,598.7,36.2,601.5,36.2z"/>
	<path class="st1" d="M629.9,61.4c0-7.4,0-14.8,0-22.2c0-1.7,0.3-2.4,2.2-2.4c10.8,0.1,21.7,0.1,32.6,0c1.9,0,2.5,0.5,2.3,2.4
		c-0.3,2.9,1.2,6.7-0.6,8.3c-1.6,1.4-5.4,0.4-8.2,0.4c-3.9,0-7.8,0.1-11.7,0c-1.5,0-1.9,0.5-1.9,2c-0.1,5.5-0.1,5.5,5.2,5.5
		c3.6,0,7.2,0.1,10.8,0c1.7-0.1,2.1,0.5,2,2.1c-0.1,2.4-0.1,4.8,0,7.1c0.1,1.5-0.4,2-1.9,2c-4.8-0.1-9.5,0-14.3-0.1
		c-1.3,0-1.8,0.3-1.8,1.7c-0.2,6.3-0.2,6.3,6.2,6.3c4.7,0,9.3,0,14,0c1.6,0,2.2,0.5,2.1,2.1c-0.1,2.6-0.1,5.3,0,7.9
		c0.1,1.4-0.5,1.8-1.8,1.8c-11.2,0-22.4-0.1-33.6,0c-1.9,0-1.7-1-1.7-2.2L629.9,61.4z"/>
	<path class="st1" d="M493.8,133.7c0-7.4,0-14.8,0-22.2c0-1.8,0.3-2.4,2.3-2.4c10.8,0.1,21.5,0.1,32.3,0c2.2,0,2.7,0.6,2.6,2.7
		c-0.2,2.1-0.2,4.2,0,6.3c0.1,1.8-0.4,2.4-2.3,2.4c-5.8-0.1-11.7,0.1-17.5-0.1c-2.2-0.1-2.6,0.7-2.6,2.7c0.1,4.8,0,4.8,4.9,4.8
		c3.8,0,7.6,0.1,11.4,0c1.4,0,1.9,0.4,1.8,1.8c-0.2,1.9-0.2,3.9,0,5.8c0.4,2.9-0.9,3.5-3.5,3.3c-4-0.2-8.1,0-12.2-0.1
		c-1.7,0-2.5,0.3-2.5,2.3c0,5.9,0,5.9,5.9,5.9c4.8,0,9.7,0.1,14.6,0c1.5,0,2,0.4,1.9,1.9c-0.1,2.6-0.1,5.3,0,7.9
		c0,1.2-0.2,1.9-1.7,1.9c-11.2-0.1-22.4-0.1-33.6,0c-1.7,0-1.8-0.8-1.8-2.1C493.9,148.9,493.8,141.3,493.8,133.7z"/>
	<path class="st1" d="M480.8,36.9c1.8,0.1,3.5,0.1,5.3,0c2.3-0.3,3.1,0.7,3.8,2.8c4.5,14.7,9.1,29.5,13.8,44.2
		c0.6,1.8,0.6,2.7-1.7,2.5c-3.7-0.2-7.4-0.1-11.1,0c-1.4,0-2.1-0.2-2.4-1.7s-1-2.8-1.2-4.3c-0.3-3.2-1.9-4.4-5-3.8
		c-0.7,0.1-1.4,0.1-2.1,0c-2.4,0-5.4-0.8-7,0.4s-2.1,4.2-2.5,6.6s-1.7,3.1-4,2.9c-2.4-0.1-4.8-0.1-7.1,0c-1.5,0-2-0.2-1.4-1.9
		c2.2-6.7,4.2-13.5,6.3-20.2c2.6-8.4,5.2-16.8,7.7-25.3c0.4-1.5,1.1-2.3,2.9-2.1C476.9,36.9,478.8,37,480.8,36.9z M479.8,52.6
		l-0.5-0.1c-0.8,2.5-1.7,4.9-2.3,7.5c-1.7,7-3.2,5.7,4.7,5.9h0.3c1.1,0.1,1.5-0.4,1.2-1.4C482,60.5,480.9,56.6,479.8,52.6
		L479.8,52.6z"/>
	<path class="st1" d="M325.2,133.3c0.1,3.8-0.1,6.4,0.6,9c0.9,3.5,3.2,5.6,6.3,5.7c3.3,0,5.5-1.7,6.4-5.5c0.5-2,1.1-2.8,3.4-2.6
		c3.2,0.2,6.3,0.6,9.5,0.6c1.5,0,1.5,0.7,1.3,1.8c-2.1,11.2-10.5,17.6-22.1,17s-19.6-8.7-20.8-20.3c-0.6-5.5-0.1-11.1,1.6-16.4
		c3.5-10.4,12.4-15,23.1-14s16.4,7.7,18.1,17.7c0.2,1.3,0.2,2.2-1.5,2.1c-3.3-0.2-6.5,0-9.8,0.5c-2.1,0.4-2.8-0.6-2.8-2.5
		c0-1-0.2-1.9-0.7-2.8c-1.1-2.6-2.9-4.2-5.8-4.2s-4.7,1.9-5.6,4.4C325.5,126.9,325,130.1,325.2,133.3z"/>
	<path class="st2" d="M580.2,206.3c0-7.4,0.1-14.8,0-22.2c0-2.2,0.7-2.9,2.8-2.8c6.9,0.3,13.8-0.5,20.6,0.5
		c6.1,0.7,10.9,5.5,11.7,11.5c0.8,4.8-1.4,11.2-7.2,13.8c-2.4,1.1-1.3,2.5-0.8,3.8c2.4,5.8,4.9,11.6,7.4,17.4c0.9,2,1,2.8-1.7,2.9
		s-4.2-0.6-5.2-3.4c-2-5.4-4.5-10.6-6.7-16c-0.4-1.7-2.1-2.7-3.8-2.4c-2.6,0.2-5.1,0.2-7.7,0c-2.7-0.2-3.5,0.9-3.4,3.5
		c0.2,5.3,0,10.6,0.1,15.9c0,1.8-0.4,2.7-2.3,2.4c-0.4-0.1-0.7-0.1-1.1,0c-2.5,0.5-3-0.7-3-3C580.3,220.7,580.2,213.5,580.2,206.3z
		 M586.5,195.5v4c0,4.8,0,4.9,4.8,4.8c3.6-0.1,7.2,0.6,10.8-0.2c4.4-0.9,7.4-5,7.1-9.5c-0.2-4.4-3-7.3-7.8-7.7
		c-4.4-0.3-8.8-0.1-13.2-0.2c-1.5,0-1.7,0.7-1.7,2C586.6,191,586.5,193.2,586.5,195.5z"/>
	<path class="st2" d="M570.6,204.6c0.1,7.9-1.7,14.3-5.8,19.9c-7,9.4-21.8,9.5-29.1,0.3c-8.1-10.2-7.6-28.5,1-38.3
		c7.7-8.7,22.7-7.5,29.3,2.3C569.1,193.5,570.7,199,570.6,204.6z M564.3,205.9c0-4.1-0.9-8.2-2.5-12.1c-2.2-4.9-5.8-7.9-11.4-7.9
		s-9.3,3.1-11.6,8c-1.7,3.9-2.5,8.1-2.4,12.3c0,5.6,0.9,11.1,4.5,15.7c3.8,5.2,11.2,6.2,16.3,2.4c0.8-0.6,1.5-1.3,2.2-2.1
		C563.2,217.4,564,211.6,564.3,205.9z"/>
	<path class="st2" d="M470.4,230.7c-4.5,1.3-7-0.2-9-4.4c-3.1-6.8-7.1-13.3-10.7-19.9c-1.5-2.7-1.6-2.7-3.6-0.2
		c-2.5,3.2-5,6.3-7.6,9.4c-1,1.1-1.5,2.5-1.5,4c0.1,3,0,6,0.1,9c0.1,1.8-0.5,2.4-2.4,2.4c-3.9-0.1-3.9,0-3.9-3.9
		c0-14.4,0.1-28.7-0.1-43.1c0-3,1.4-2.6,3.4-2.8c2.3-0.1,3.1,0.5,3.1,2.9c-0.1,8.2,0,16.4,0,25c1.4-1,2.6-2.3,3.5-3.7
		c5.8-7.5,11.7-15,17.4-22.5c2.1-2.8,4.8-1,7.6-1.1c-2.8,3.6-5.2,7.5-8.3,10.7c-4.2,4.2-4.4,7.9-1.2,13c4.9,7.9,8.8,16.3,13.2,24.5
		C470.3,230.2,470.4,230.4,470.4,230.7z"/>
	<path class="st2" d="M404.7,231.6c-9.7,0.1-16.2-3.4-20-11.5c-0.4-0.8-1.5-1.8-0.1-2.7c1.8-1.1,4.5-0.8,5.1,0.5
		c1.8,4.2,5.6,7.2,10.1,8c3.8,0.9,7.8,0.5,11.4-1.1c3-1.4,4.9-4.5,4.7-7.9c-0.3-3.2-2.6-5.8-5.6-6.6c-4.9-1.4-9.9-2.5-14.7-4.1
		c-7.7-2.4-11.4-9.7-8.6-16.8c2.2-5.5,6.9-7.9,12.4-8.6c6.8-0.9,13.2,0.2,18,5.9c0.6,0.6,1.1,1.4,1.5,2.1c2,4.2,2.6,3.5-2.2,4.9
		c-0.7,0.4-1.6,0.1-2-0.6c-0.1-0.2-0.1-0.3-0.2-0.5c-1.9-6-11.7-9.6-18.6-5.3c-2.4,1.3-3.9,3.8-3.7,6.5c0.1,2.9,2.1,5.4,4.9,6.1
		c4.9,1.7,10,2.4,15,4c6,1.9,10,6.4,10.2,11.7c0.2,6.8-3.1,11.9-9.4,14.3C410.3,231.1,407.5,231.6,404.7,231.6z"/>
	<path class="st1" d="M574.4,61.4c0,7.6,0,15.1,0,22.7c0,1.7-0.4,2.3-2.2,2.2c-3.6-0.2-7.2-0.1-10.8,0c-1.5,0-2-0.3-2-1.9
		c0.1-15.2,0.1-30.5,0-45.7c0-1.5,0.5-1.9,1.9-1.9c3.7,0.1,7.4,0.1,11.1,0c1.8-0.1,2,0.7,2,2.2C574.3,46.5,574.4,53.9,574.4,61.4z"
		/>
	<path class="st1" d="M409,133.6c0-7.5,0-15,0-22.4c0-1.6,0.4-2.1,2-2.1c3.8,0.1,7.6,0.1,11.4,0c1.3,0,1.7,0.4,1.7,1.6
		c0,15.3,0,30.6,0,45.9c0,1.6-0.7,1.9-2.1,1.8c-3.6-0.1-7.2-0.1-10.8,0c-1.8,0.1-2.2-0.5-2.2-2.2C409,148.8,409,141.2,409,133.6z"/>
	<path class="st2" d="M670.3,206.2c0-7.4,0.1-14.8,0-22.2c0-2,0.4-2.8,2.6-2.7c8.7,0.1,17.5,0.1,26.2,0c1.7,0,2.6,0.2,2.5,2.2
		c-0.1,1.8,0.1,3.3-2.4,3.3c-6.6-0.1-13.2,0.1-19.9-0.1c-2.1,0-3,0.5-2.8,2.8c0.2,3.6,0.1,7.2,0,10.8c0,1.7,0.6,2.1,2.1,2.1
		c5.2-0.1,10.4,0.1,15.6-0.1c2.4-0.1,2.2,1.4,2.3,2.8c0.2,2-1,2.1-2.5,2c-4.9,0-9.9,0-14.8,0c-2,0-2.9,0.5-2.8,2.7
		c0.2,4.5,0.1,9,0,13.5c0,1.7,0.6,2,2.1,2.1c7.1,0,14.3-0.1,21.4,0.1c2.5,0.1,2.3,1.3,2.4,3c0.1,2-0.7,2.5-2.6,2.5
		c-9.1-0.1-18.2-0.1-27.3,0c-1.9,0-2.4-0.5-2.3-2.3C670.3,221.2,670.3,213.7,670.3,206.2z"/>
	<path class="st2" d="M376.5,231c-1.9,0.5-2.8-0.5-3.4-2.5c-1-3.3-2.2-6.5-3.3-9.7c-0.5-1.5-1.2-2.3-3-2.2c-4.7,0.1-9.4,0.1-14,0
		c-1.4-0.2-2.7,0.7-2.9,2.1c0,0.1,0,0.1,0,0.2c-0.9,3.5-2.1,6.9-3.2,10.3c-0.5,1.6-3.8,2.8-5.1,1.9c-0.8-0.6-0.1-1.2,0.1-1.9
		c2-6.3,4-12.7,6-19c2.8-8.7,5.7-17.3,8.4-26c0.6-1.9,1.4-3.1,3.6-2.7c2,0.3,4.3-0.9,5.4,2.5c4.5,14.6,9.4,29.2,14.1,43.8
		C380.3,231,380.3,231,376.5,231z M359.9,211.6L359.9,211.6c1.9,0,3.9,0,5.8,0c1.2,0,1.6-0.4,1.2-1.6c-1.9-5.9-3.7-11.9-5.6-17.8
		c-0.2-0.7-1-1.7-1.4-1.6c-0.7,0.1-1.1,0.9-1.4,1.8c-1.5,4.8-3.1,9.5-4.6,14.3c-1.6,5-1.6,5,3.8,5H359.9z"/>
	<path class="st2" d="M642.3,231.6c-7.2,0-12.3-3.5-15.9-9.5c-5.5-9.1-5.9-26.4,1.9-35.1c5.2-5.8,11.7-7.3,18.9-5.9
		c7.5,1.5,11.2,7.1,13.3,13.9c0.2,0.8,0.2,1.2-0.8,1.6c-3.5,1.1-4.4,0.8-5.9-2.5c-3.5-8-11.2-10.9-17.8-6.4
		c-4.3,2.9-5.9,7.6-6.6,12.5c-0.8,5.3-0.5,10.8,1,15.9c2.1,6.8,6.8,10.5,13.3,10.1c5.8-0.4,8.7-4.3,10.6-9.3c0.4-1,0.1-2.7,2.3-2.5
		c4,0.4,4.4,0.8,3,4.6C656.6,227.3,650.7,231.6,642.3,231.6z"/>
	<path class="st2" d="M498,206v-22.5c0-1.4-0.2-2.3,2.1-1.9c3,0.5,6.1-0.1,9.2-0.1c5.9-0.1,11.8-0.2,17.7-0.1c1.9,0,1,1.9,1.1,2.9
		s0.5,2.2-1.3,2.2c-2.3,0-4.6,0.2-6.9,0.2c-4.6,0-9.2,0-13.8,0c-1.6,0-2.2,0.4-2.1,2.1c0.1,3.8,0.1,7.6,0,11.4
		c-0.1,1.8,0.8,2.2,2.4,2.2c5.2,0,10.4,0.1,15.6-0.1c1.9-0.1,2.2,0.9,2.3,2.3s-0.2,2.6-2.3,2.6c-4.8-0.2-9.5-0.1-14.3-0.1
		c-3.6,0-3.6,0-3.6,3.4c0,5.7,0,11.4,0,17.2c-0.1,2-1.8,3.6-3.8,3.6c-0.6,0-1.2-0.2-1.7-0.5c-1-0.6-0.6-1.6-0.6-2.4
		C498,221,498,213.5,498,206z"/>
	<path class="st2" d="M322.7,208.9c0-6.3-0.1-12.7,0.1-19c0.1-2.6-0.8-3.1-3.1-3c-2.9,0.2-5.8-0.1-8.7,0.1s-2-1.8-2.1-3.2
		c-0.2-1.7,0.1-2.5,2.2-2.5c10,0.1,20,0.1,29.9,0c2.4,0,2.2,1.3,2.2,2.8s0.1,3-2.3,2.9c-3.2-0.2-6.4,0.1-9.5-0.1
		c-2-0.1-2.5,0.5-2.5,2.5c0.1,12.8,0.1,25.6,0,38.3c0,1.1,0.7,2.7-0.6,3.1c-1.6,0.4-3.4,0.4-5,0c-0.9-0.1-0.6-1.3-0.6-2.1
		C322.7,222.1,322.7,215.5,322.7,208.9z"/>
	<path class="st2" d="M139.2,234.8l70.8-4.2c-4.7,3.4-8.1,8.4-15.4,7.6c-11.5-1.3-23.2-1.3-34.8-1.9c-6.9-0.4-13.7-0.8-20.5-1.2
		C139.2,235,139.2,234.9,139.2,234.8z"/>
	<path class="st2" d="M208.4,28.7L138.8,25c4.3-1.2,8.1-0.9,11.8-1.1c14.9-1,29.9-1.8,44.9-2.7c2-0.2,4,0.3,5.6,1.5
		C203.6,24.4,206.4,26,208.4,28.7z"/>
	<path class="st2" d="M195.6,240.9c-4.9,2.7-9.3,5.9-15.6,5.3c-9.7-0.9-19.5-1.1-29.3-1.6c-3.5-0.1-7.1-0.5-10.5-1.2l55.3-3.3
		C195.5,240.4,195.6,240.7,195.6,240.9z"/>
	<path class="st2" d="M193.9,19l-57-2.9c0-0.1,0-0.2,0-0.2c5.2-0.4,10.4-0.8,15.6-1.1c10-0.6,20.1-1.1,30.1-1.6
		c0.8,0,1.6,0.1,2.3,0.4C188.2,14.8,191.3,16.7,193.9,19z"/>
	<path class="st2" d="M140.9,252.4c10.6-0.2,21.5-1.7,32.7-1.7c-4.7,2.5-10,3.5-15.2,2.9C152.4,253.1,146.4,252.8,140.9,252.4z"/>
	<path class="st2" d="M171.3,8.8l-26.9-1.3c0-0.2,0-0.5,0-0.7C153.2,6.9,162.2,3.8,171.3,8.8z"/>
	<path class="st0" d="M205.1,213.2l-0.5-0.4c0.2-0.1,0.4-0.2,0.7-0.3c0.2,0,0.7,0.2,0.7,0.3C205.9,213.2,205.4,213.1,205.1,213.2z"
		/>
	<path class="st0" d="M377.6,52.2c0-4.9,0-4.9,5-4.9c1.3-0.1,2.7,0,4,0.2c2.2,0.3,3.8,2.1,3.8,4.3c0.1,2.4-1.1,3.9-3.5,4.6
		c-2.7,0.8-5.4,0.4-8.1,0.5c-0.9,0-1.2-0.4-1.2-1.3C377.6,54.5,377.6,53.4,377.6,52.2z"/>
	<path class="st0" d="M379.1,129.1c-4.6-0.1-4.6-0.1-4.6-4.8c0-4.7,0-4.7,4.7-4.7c1.3,0,2.6,0,4,0.1c2.3,0.1,4.1,1.9,4.3,4.2
		c0.3,2.3-1.4,4.4-3.6,4.7C382.3,128.9,380.7,129,379.1,129.1z"/>
	<path class="st0" d="M688.3,61.4c0-3.8,0.1-7.6,0-11.4c0-1.5,0.3-2.1,2-2.2c5.6,0,8.2,1.6,10,7c1.9,5.2,1.5,11-1.2,15.8
		c-1.9,3.5-5.8,5.3-9.7,4.4c-1.4-0.2-1.1-1.1-1.1-2C688.3,69.2,688.3,65.3,688.3,61.4z"/>
	<path class="st0" d="M340.7,62.1c0.3,3.2-0.2,6.4-1.4,9.4c-1.1,2.6-2.9,4.1-5.8,4.1c-2.7,0.2-5.1-1.5-5.9-4
		c-2.5-6.7-2.4-14.2,0.4-20.8c0.8-2.2,3-3.7,5.3-3.6c2.4-0.1,4.5,1.3,5.5,3.4C340.6,54.3,340.8,58.1,340.7,62.1z"/>
	<path class="st0" d="M479.8,52.6c1.1,3.9,2.2,7.9,3.3,11.8c0.3,1-0.1,1.5-1.2,1.4h-0.3c-8-0.2-6.4,1.2-4.7-5.9
		c0.6-2.5,1.5-5,2.3-7.5L479.8,52.6z"/>
	<path class="st0" d="M586.5,195.5c0-2.3,0-4.6,0-6.9c0-1.3,0.2-2,1.7-2c4.4,0.1,8.8-0.1,13.2,0.2c4.8,0.3,7.6,3.3,7.8,7.7
		c0.4,4.5-2.7,8.5-7.1,9.5c-3.6,0.9-7.2,0.1-10.8,0.2c-4.8,0.1-4.8,0-4.8-4.8L586.5,195.5z"/>
	<path class="st0" d="M564.3,205.9c-0.4,5.7-1.1,11.5-4.9,16.2c-4,5-11.3,5.9-16.4,1.9c-0.8-0.6-1.5-1.4-2.1-2.2
		c-3.6-4.6-4.5-10.1-4.5-15.7c-0.1-4.2,0.7-8.4,2.4-12.3c2.3-4.9,5.9-8.1,11.6-8s9.2,3,11.4,7.9
		C563.4,197.6,564.3,201.7,564.3,205.9z"/>
	<path class="st0" d="M359.9,211.6h-2.1c-5.4,0-5.4,0-3.8-5c1.5-4.8,3.1-9.5,4.6-14.3c0.3-0.8,0.7-1.7,1.4-1.8
		c0.4-0.1,1.1,1,1.4,1.6c1.9,5.9,3.8,11.9,5.6,17.8c0.4,1.2,0,1.6-1.2,1.6C363.7,211.6,361.8,211.6,359.9,211.6L359.9,211.6z"/>
</g>
</svg>
