<?xml version="1.0" encoding="utf-8"?>
<!-- Generator: Adobe Illustrator 26.1.0, SVG Export Plug-In . SVG Version: 6.00 Build 0)  -->
<svg version="1.1" id="Layer_1" xmlns="http://www.w3.org/2000/svg" xmlns:xlink="http://www.w3.org/1999/xlink" x="0px" y="0px"
	 viewBox="0 0 620.8 85" style="enable-background:new 0 0 620.8 85;" xml:space="preserve">
<style type="text/css">
	.st0{fill:#FFFFFF;}
</style>
<g>
	<path class="st0" d="M29.8,13.1c-0.4-0.6-0.9-1.2-1.5-1.6c-0.6-0.4-1.2-0.8-1.9-1c-0.7-0.2-1.5-0.3-2.2-0.3c-1.4,0-2.6,0.3-3.6,0.8
		c-1,0.5-1.8,1.3-2.5,2.1c-0.6,0.9-1.1,1.9-1.4,3c-0.3,1.1-0.5,2.3-0.5,3.4c0,1.2,0.2,2.3,0.5,3.4c0.3,1.1,0.8,2.1,1.4,3
		c0.6,0.9,1.5,1.6,2.5,2.1c1,0.5,2.2,0.8,3.6,0.8c1,0,1.9-0.2,2.7-0.5c0.8-0.4,1.5-0.8,2.1-1.5c0.6-0.6,1-1.3,1.4-2.2
		s0.6-1.7,0.7-2.7h2c-0.1,1.3-0.4,2.5-0.9,3.6c-0.5,1.1-1.1,2-1.9,2.7c-0.8,0.7-1.6,1.3-2.7,1.7c-1,0.4-2.2,0.6-3.4,0.6
		c-1.7,0-3.1-0.3-4.4-0.9c-1.3-0.6-2.3-1.4-3.2-2.4c-0.8-1-1.5-2.2-1.9-3.5C14.2,22.4,14,21,14,19.5s0.2-2.9,0.6-4.2
		c0.4-1.3,1-2.5,1.9-3.5c0.8-1,1.9-1.8,3.2-2.5c1.3-0.6,2.7-0.9,4.4-0.9c1,0,2,0.1,3,0.4c1,0.3,1.8,0.7,2.6,1.3
		c0.8,0.6,1.4,1.3,2,2.2c0.5,0.9,0.9,1.8,1,3h-2C30.5,14.5,30.2,13.8,29.8,13.1z"/>
	<path class="st0" d="M37.6,8.9v8.6h0.1c0.4-0.9,1-1.7,1.9-2.3c0.9-0.6,1.9-0.9,3-0.9c1.1,0,2,0.1,2.7,0.4s1.3,0.7,1.7,1.2
		c0.4,0.5,0.7,1.1,0.9,1.9c0.2,0.7,0.3,1.6,0.3,2.5v9.9h-1.9v-9.6c0-0.7-0.1-1.3-0.2-1.8c-0.1-0.6-0.3-1.1-0.6-1.5
		c-0.3-0.4-0.7-0.7-1.2-1s-1.1-0.4-1.9-0.4c-0.8,0-1.4,0.1-2,0.4c-0.6,0.3-1.1,0.6-1.5,1.1c-0.4,0.5-0.7,1-1,1.7
		c-0.2,0.6-0.4,1.4-0.4,2.1v9h-1.9V8.9H37.6z"/>
	<path class="st0" d="M53.7,8.9v3h-1.9v-3H53.7z M53.7,14.8v15.4h-1.9V14.8H53.7z"/>
	<path class="st0" d="M59.2,8.9v21.4h-1.9V8.9H59.2z"/>
	<path class="st0" d="M74.7,30.2v-2.9h-0.1c-0.2,0.5-0.5,1-0.9,1.4c-0.4,0.4-0.8,0.8-1.3,1.1c-0.5,0.3-1,0.5-1.6,0.7
		c-0.6,0.2-1.1,0.2-1.7,0.2c-1.2,0-2.2-0.2-3.1-0.6c-0.9-0.4-1.6-1-2.2-1.8c-0.6-0.7-1-1.6-1.3-2.6c-0.3-1-0.4-2-0.4-3.1
		c0-1.1,0.1-2.1,0.4-3.1c0.3-1,0.7-1.9,1.3-2.6c0.6-0.7,1.3-1.3,2.2-1.8s1.9-0.7,3.1-0.7c0.6,0,1.1,0.1,1.7,0.2
		c0.5,0.1,1.1,0.4,1.5,0.6c0.5,0.3,0.9,0.6,1.3,1.1c0.4,0.4,0.7,0.9,0.9,1.5h0.1V8.9h1.9v21.4H74.7z M64.4,24.9
		c0.2,0.8,0.5,1.5,0.9,2.1c0.4,0.6,0.9,1.1,1.6,1.5c0.6,0.4,1.4,0.6,2.3,0.6c1,0,1.8-0.2,2.5-0.6c0.7-0.4,1.2-0.9,1.7-1.5
		c0.4-0.6,0.7-1.3,0.9-2.1c0.2-0.8,0.3-1.6,0.3-2.4c0-0.8-0.1-1.6-0.3-2.4s-0.5-1.5-0.9-2.1c-0.4-0.6-1-1.1-1.7-1.5
		c-0.7-0.4-1.5-0.6-2.5-0.6c-0.9,0-1.7,0.2-2.3,0.6c-0.6,0.4-1.2,0.9-1.6,1.5c-0.4,0.6-0.7,1.3-0.9,2.1c-0.2,0.8-0.3,1.6-0.3,2.4
		C64.1,23.3,64.2,24.1,64.4,24.9z"/>
	<path class="st0" d="M81.7,14.8v3.6h0.1c0.5-1.3,1.2-2.2,2.2-2.9c1-0.7,2.2-1,3.6-0.9v1.9c-0.9,0-1.6,0.1-2.3,0.3
		c-0.7,0.3-1.3,0.7-1.8,1.2s-0.9,1.1-1.2,1.8c-0.3,0.7-0.4,1.4-0.4,2.3v8.2H80V14.8H81.7z"/>
	<path class="st0" d="M90.3,25.1c0.2,0.7,0.5,1.4,0.9,2c0.4,0.6,0.9,1.1,1.6,1.4c0.6,0.4,1.4,0.6,2.3,0.6c1.4,0,2.5-0.4,3.2-1.1
		s1.3-1.7,1.6-2.9h1.9c-0.4,1.8-1.1,3.1-2.2,4.1c-1.1,1-2.6,1.4-4.5,1.4c-1.2,0-2.3-0.2-3.2-0.6c-0.9-0.4-1.6-1-2.2-1.8
		c-0.6-0.7-1-1.6-1.2-2.6c-0.3-1-0.4-2-0.4-3.1c0-1,0.1-2,0.4-3c0.3-1,0.7-1.8,1.2-2.6s1.3-1.4,2.2-1.9c0.9-0.5,1.9-0.7,3.2-0.7
		c1.2,0,2.3,0.2,3.2,0.7c0.9,0.5,1.6,1.2,2.1,2c0.5,0.8,0.9,1.7,1.2,2.8c0.2,1,0.3,2.1,0.3,3.2H90C90,23.7,90.1,24.4,90.3,25.1z
		 M99.6,19.3c-0.2-0.7-0.6-1.2-1-1.7c-0.4-0.5-0.9-0.9-1.5-1.2c-0.6-0.3-1.3-0.5-2-0.5c-0.8,0-1.5,0.2-2.1,0.5
		c-0.6,0.3-1.1,0.7-1.5,1.2c-0.4,0.5-0.8,1.1-1,1.8c-0.2,0.7-0.4,1.4-0.5,2h10C100,20.7,99.8,20,99.6,19.3z"/>
	<path class="st0" d="M106.3,14.8v2.7h0.1c0.4-0.9,1-1.7,1.9-2.3c0.9-0.6,1.9-0.9,3-0.9c1.1,0,2,0.1,2.7,0.4s1.3,0.7,1.7,1.2
		c0.4,0.5,0.7,1.1,0.9,1.9c0.2,0.7,0.3,1.6,0.3,2.5v9.9H115v-9.6c0-0.7-0.1-1.3-0.2-1.8c-0.1-0.6-0.3-1.1-0.6-1.5
		c-0.3-0.4-0.7-0.7-1.2-1s-1.1-0.4-1.9-0.4c-0.8,0-1.4,0.1-2,0.4c-0.6,0.3-1.1,0.6-1.5,1.1c-0.4,0.5-0.7,1-1,1.7
		c-0.2,0.6-0.4,1.4-0.4,2.1v9h-1.9V14.8H106.3z"/>
	<path class="st0" d="M124.1,12c0,0.4-0.1,0.9-0.2,1.3c-0.1,0.4-0.3,0.8-0.5,1.2c-0.2,0.4-0.5,0.7-0.8,1c-0.3,0.3-0.7,0.5-1.2,0.6
		v-1.3c0.3-0.1,0.5-0.2,0.7-0.4c0.2-0.2,0.3-0.5,0.4-0.7c0.1-0.3,0.2-0.6,0.3-0.9c0-0.3,0.1-0.6,0-0.8h-1.3V8.9h2.5V12z"/>
	<path class="st0" d="M134.3,17.8c-0.2-0.4-0.5-0.8-0.9-1.1c-0.4-0.3-0.8-0.5-1.3-0.6c-0.5-0.1-1-0.2-1.5-0.2c-0.4,0-0.8,0-1.3,0.1
		c-0.4,0.1-0.8,0.2-1.2,0.4c-0.4,0.2-0.6,0.5-0.9,0.8s-0.3,0.8-0.3,1.3c0,0.4,0.1,0.8,0.3,1.1s0.5,0.5,0.8,0.7
		c0.3,0.2,0.7,0.4,1,0.5c0.4,0.1,0.7,0.2,1,0.3l2.5,0.6c0.5,0.1,1.1,0.2,1.6,0.4c0.5,0.2,1,0.5,1.4,0.8c0.4,0.3,0.7,0.8,1,1.3
		c0.3,0.5,0.4,1.1,0.4,1.8c0,0.8-0.2,1.6-0.6,2.1c-0.4,0.6-0.9,1.1-1.5,1.4c-0.6,0.4-1.3,0.6-2,0.8c-0.7,0.2-1.5,0.2-2.2,0.2
		c-1.8,0-3.3-0.4-4.4-1.3c-1.1-0.9-1.8-2.2-1.9-4.1h1.9c0.1,1.3,0.5,2.2,1.4,2.9c0.8,0.6,1.9,1,3.2,1c0.5,0,0.9,0,1.4-0.1
		c0.5-0.1,0.9-0.3,1.4-0.5c0.4-0.2,0.8-0.5,1-0.9s0.4-0.8,0.4-1.4c0-0.5-0.1-0.8-0.3-1.2c-0.2-0.3-0.4-0.6-0.8-0.8
		c-0.3-0.2-0.7-0.4-1.1-0.5c-0.4-0.1-0.8-0.3-1.2-0.4l-2.4-0.5c-0.6-0.2-1.2-0.3-1.7-0.6c-0.5-0.2-1-0.5-1.4-0.8
		c-0.4-0.3-0.7-0.7-0.9-1.1s-0.3-1-0.3-1.7c0-0.8,0.2-1.4,0.5-2c0.3-0.6,0.8-1,1.4-1.3c0.6-0.3,1.2-0.6,1.9-0.7
		c0.7-0.2,1.4-0.2,2-0.2c0.8,0,1.5,0.1,2.2,0.3c0.7,0.2,1.3,0.5,1.8,0.9c0.5,0.4,0.9,0.9,1.2,1.6c0.3,0.6,0.5,1.3,0.5,2.2h-1.9
		C134.7,18.7,134.6,18.2,134.3,17.8z"/>
	<path class="st0" d="M150,25.9c0.4,0.7,0.9,1.3,1.5,1.8s1.4,0.8,2.2,0.9c0.9,0.2,1.8,0.3,2.8,0.3c0.6,0,1.2-0.1,1.8-0.2
		c0.7-0.2,1.3-0.4,1.8-0.8c0.6-0.3,1-0.8,1.4-1.3c0.4-0.5,0.6-1.2,0.6-2c0-0.6-0.1-1.1-0.4-1.6s-0.6-0.8-1-1.1
		c-0.4-0.3-0.9-0.5-1.4-0.7c-0.5-0.2-1-0.3-1.5-0.5l-4.8-1.2c-0.6-0.2-1.2-0.4-1.8-0.6c-0.6-0.2-1.1-0.6-1.5-1
		c-0.4-0.4-0.8-0.9-1.1-1.5c-0.3-0.6-0.4-1.3-0.4-2.1c0-0.5,0.1-1.1,0.3-1.8c0.2-0.7,0.6-1.4,1.1-2c0.5-0.6,1.3-1.1,2.3-1.6
		c1-0.4,2.2-0.6,3.7-0.6c1.1,0,2.1,0.1,3,0.4c1,0.3,1.8,0.7,2.5,1.3c0.7,0.6,1.3,1.3,1.7,2.1c0.4,0.8,0.6,1.8,0.6,2.9h-2
		c0-0.8-0.2-1.5-0.6-2.1c-0.3-0.6-0.8-1.1-1.3-1.5c-0.5-0.4-1.1-0.7-1.8-0.9c-0.7-0.2-1.4-0.3-2.2-0.3c-0.7,0-1.4,0.1-2,0.2
		c-0.6,0.1-1.2,0.4-1.7,0.7c-0.5,0.3-0.9,0.8-1.2,1.3c-0.3,0.5-0.4,1.2-0.4,2c0,0.5,0.1,0.9,0.3,1.3c0.2,0.4,0.4,0.7,0.7,0.9
		s0.6,0.5,1,0.6c0.4,0.2,0.8,0.3,1.2,0.4l5.2,1.3c0.8,0.2,1.5,0.4,2.1,0.7c0.7,0.3,1.3,0.6,1.8,1.1s0.9,1,1.2,1.6
		c0.3,0.6,0.4,1.4,0.4,2.2c0,0.2,0,0.6-0.1,1s-0.2,0.8-0.4,1.3s-0.5,0.9-0.8,1.4c-0.3,0.5-0.8,0.9-1.4,1.2s-1.4,0.7-2.3,0.9
		c-0.9,0.2-2,0.3-3.2,0.3s-2.4-0.1-3.5-0.4c-1.1-0.3-2-0.7-2.8-1.3c-0.8-0.6-1.3-1.4-1.7-2.3c-0.4-0.9-0.6-2.1-0.5-3.4h2
		C149.5,24.3,149.6,25.2,150,25.9z"/>
	<path class="st0" d="M176.6,15c0.9,0.4,1.7,1,2.3,1.8c0.6,0.7,1.1,1.6,1.4,2.6c0.3,1,0.5,2,0.5,3.2c0,1.1-0.2,2.2-0.5,3.2
		c-0.3,1-0.8,1.8-1.4,2.6c-0.6,0.7-1.4,1.3-2.3,1.7c-0.9,0.4-1.9,0.6-3.1,0.6c-1.2,0-2.2-0.2-3.1-0.6c-0.9-0.4-1.7-1-2.3-1.7
		c-0.6-0.7-1.1-1.6-1.4-2.6c-0.3-1-0.5-2-0.5-3.2c0-1.1,0.2-2.2,0.5-3.2c0.3-1,0.8-1.8,1.4-2.6c0.6-0.7,1.4-1.3,2.3-1.8
		c0.9-0.4,1.9-0.7,3.1-0.7C174.7,14.3,175.7,14.5,176.6,15z M171.2,16.5c-0.7,0.4-1.2,0.9-1.7,1.5c-0.4,0.6-0.8,1.3-1,2.1
		c-0.2,0.8-0.3,1.6-0.3,2.4s0.1,1.6,0.3,2.4c0.2,0.8,0.6,1.5,1,2.1c0.4,0.6,1,1.1,1.7,1.5c0.7,0.4,1.5,0.6,2.4,0.6
		c0.9,0,1.7-0.2,2.4-0.6c0.7-0.4,1.2-0.9,1.7-1.5c0.4-0.6,0.8-1.3,1-2.1c0.2-0.8,0.3-1.6,0.3-2.4s-0.1-1.6-0.3-2.4
		c-0.2-0.8-0.6-1.5-1-2.1c-0.4-0.6-1-1.1-1.7-1.5c-0.7-0.4-1.5-0.6-2.4-0.6C172.6,15.9,171.8,16.1,171.2,16.5z"/>
	<path class="st0" d="M193.1,16.9c-0.7-0.7-1.7-1-2.9-1c-0.9,0-1.7,0.2-2.4,0.6c-0.7,0.4-1.2,0.9-1.7,1.5c-0.4,0.6-0.8,1.3-1,2.1
		c-0.2,0.8-0.3,1.6-0.3,2.4s0.1,1.6,0.3,2.4c0.2,0.8,0.6,1.5,1,2.1c0.4,0.6,1,1.1,1.7,1.5c0.7,0.4,1.5,0.6,2.4,0.6
		c0.6,0,1.1-0.1,1.6-0.3c0.5-0.2,1-0.5,1.4-0.9c0.4-0.4,0.7-0.9,1-1.4c0.3-0.5,0.4-1.1,0.5-1.8h1.9c-0.3,1.9-0.9,3.3-2.1,4.4
		c-1.1,1-2.6,1.6-4.3,1.6c-1.2,0-2.2-0.2-3.1-0.6c-0.9-0.4-1.7-1-2.3-1.7c-0.6-0.7-1.1-1.6-1.4-2.6c-0.3-1-0.5-2-0.5-3.2
		c0-1.1,0.2-2.2,0.5-3.2c0.3-1,0.8-1.8,1.4-2.6c0.6-0.7,1.4-1.3,2.3-1.8c0.9-0.4,1.9-0.7,3.1-0.7c1.7,0,3.1,0.4,4.2,1.3
		c1.1,0.9,1.8,2.2,2,4h-1.9C194.2,18.5,193.8,17.6,193.1,16.9z"/>
	<path class="st0" d="M201.1,8.9v3h-1.9v-3H201.1z M201.1,14.8v15.4h-1.9V14.8H201.1z"/>
	<path class="st0" d="M205.1,17.2c0.3-0.7,0.8-1.2,1.3-1.6c0.5-0.4,1.2-0.7,1.9-0.9c0.7-0.2,1.6-0.3,2.5-0.3c0.7,0,1.4,0.1,2,0.2
		s1.3,0.4,1.8,0.7c0.5,0.4,1,0.9,1.3,1.5c0.3,0.6,0.5,1.5,0.5,2.5v8.2c0,0.8,0.4,1.1,1.1,1.1c0.2,0,0.4,0,0.6-0.1v1.6
		c-0.2,0-0.4,0.1-0.6,0.1c-0.2,0-0.4,0-0.6,0c-0.5,0-0.9-0.1-1.2-0.2c-0.3-0.1-0.5-0.3-0.7-0.6c-0.2-0.2-0.3-0.5-0.3-0.9
		c-0.1-0.3-0.1-0.7-0.1-1.1h-0.1c-0.3,0.5-0.7,0.9-1,1.3s-0.7,0.7-1.2,1s-0.9,0.5-1.5,0.6s-1.2,0.2-2,0.2c-0.7,0-1.4-0.1-2-0.3
		c-0.6-0.2-1.2-0.4-1.6-0.8s-0.8-0.8-1.1-1.4c-0.3-0.6-0.4-1.2-0.4-2c0-1.1,0.2-1.9,0.7-2.5c0.5-0.6,1.1-1.1,1.9-1.4
		c0.8-0.3,1.7-0.5,2.7-0.7c1-0.1,2-0.3,3-0.4c0.4,0,0.7-0.1,1-0.1c0.3-0.1,0.5-0.2,0.7-0.3s0.4-0.4,0.5-0.6c0.1-0.3,0.2-0.6,0.2-1
		c0-0.6-0.1-1.2-0.3-1.6c-0.2-0.4-0.5-0.7-0.9-1s-0.8-0.4-1.3-0.5c-0.5-0.1-1-0.1-1.6-0.1c-1.2,0-2.2,0.3-2.9,0.9
		c-0.8,0.6-1.2,1.5-1.2,2.7h-1.9C204.6,18.6,204.7,17.8,205.1,17.2z M214.5,21.8c-0.1,0.2-0.3,0.4-0.7,0.5c-0.3,0.1-0.6,0.2-0.9,0.2
		c-0.8,0.1-1.6,0.3-2.5,0.4c-0.8,0.1-1.6,0.3-2.3,0.5c-0.7,0.2-1.3,0.5-1.7,0.9c-0.4,0.4-0.7,1-0.7,1.7c0,0.5,0.1,0.9,0.3,1.3
		c0.2,0.4,0.4,0.7,0.8,1c0.3,0.3,0.7,0.5,1.1,0.6c0.4,0.1,0.8,0.2,1.3,0.2c0.7,0,1.4-0.1,2.1-0.3c0.7-0.2,1.2-0.5,1.7-1
		c0.5-0.4,0.9-0.9,1.2-1.5c0.3-0.6,0.4-1.3,0.4-2L214.5,21.8L214.5,21.8z"/>
	<path class="st0" d="M222.1,8.9v21.4h-1.9V8.9H222.1z"/>
	<path class="st0" d="M249.1,13.1c-0.4-0.6-0.9-1.2-1.5-1.6c-0.6-0.4-1.2-0.8-1.9-1c-0.7-0.2-1.5-0.3-2.2-0.3
		c-1.4,0-2.6,0.3-3.6,0.8c-1,0.5-1.8,1.3-2.5,2.1c-0.6,0.9-1.1,1.9-1.4,3c-0.3,1.1-0.5,2.3-0.5,3.4c0,1.2,0.2,2.3,0.5,3.4
		c0.3,1.1,0.8,2.1,1.4,3c0.6,0.9,1.5,1.6,2.5,2.1c1,0.5,2.2,0.8,3.6,0.8c1,0,1.9-0.2,2.7-0.5c0.8-0.4,1.5-0.8,2.1-1.5
		c0.6-0.6,1-1.3,1.4-2.2s0.6-1.7,0.7-2.7h2c-0.1,1.3-0.4,2.5-0.9,3.6c-0.5,1.1-1.1,2-1.9,2.7c-0.8,0.7-1.6,1.3-2.7,1.7
		c-1,0.4-2.2,0.6-3.4,0.6c-1.7,0-3.1-0.3-4.4-0.9c-1.3-0.6-2.3-1.4-3.2-2.4c-0.8-1-1.5-2.2-1.9-3.5c-0.4-1.3-0.6-2.7-0.6-4.2
		s0.2-2.9,0.6-4.2c0.4-1.3,1-2.5,1.9-3.5c0.8-1,1.9-1.8,3.2-2.5c1.3-0.6,2.7-0.9,4.4-0.9c1,0,2,0.1,3,0.4c1,0.3,1.8,0.7,2.6,1.3
		c0.8,0.6,1.4,1.3,2,2.2c0.5,0.9,0.9,1.8,1,3h-2C249.8,14.5,249.5,13.8,249.1,13.1z"/>
	<path class="st0" d="M255.5,17.2c0.3-0.7,0.8-1.2,1.3-1.6c0.5-0.4,1.2-0.7,1.9-0.9c0.7-0.2,1.6-0.3,2.5-0.3c0.7,0,1.4,0.1,2,0.2
		s1.3,0.4,1.8,0.7c0.5,0.4,1,0.9,1.3,1.5c0.3,0.6,0.5,1.5,0.5,2.5v8.2c0,0.8,0.4,1.1,1.1,1.1c0.2,0,0.4,0,0.6-0.1v1.6
		c-0.2,0-0.4,0.1-0.6,0.1c-0.2,0-0.4,0-0.6,0c-0.5,0-0.9-0.1-1.2-0.2c-0.3-0.1-0.5-0.3-0.7-0.6c-0.2-0.2-0.3-0.5-0.3-0.9
		c-0.1-0.3-0.1-0.7-0.1-1.1H265c-0.3,0.5-0.7,0.9-1,1.3s-0.7,0.7-1.2,1s-0.9,0.5-1.5,0.6s-1.2,0.2-2,0.2c-0.7,0-1.4-0.1-2-0.3
		c-0.6-0.2-1.2-0.4-1.6-0.8c-0.5-0.4-0.8-0.8-1.1-1.4c-0.3-0.6-0.4-1.2-0.4-2c0-1.1,0.2-1.9,0.7-2.5c0.5-0.6,1.1-1.1,1.9-1.4
		c0.8-0.3,1.7-0.5,2.7-0.7c1-0.1,2-0.3,3-0.4c0.4,0,0.7-0.1,1-0.1c0.3-0.1,0.5-0.2,0.7-0.3s0.4-0.4,0.5-0.6c0.1-0.3,0.2-0.6,0.2-1
		c0-0.6-0.1-1.2-0.3-1.6c-0.2-0.4-0.5-0.7-0.9-1s-0.8-0.4-1.3-0.5c-0.5-0.1-1-0.1-1.6-0.1c-1.2,0-2.2,0.3-2.9,0.9
		c-0.8,0.6-1.2,1.5-1.2,2.7h-1.9C255,18.6,255.2,17.8,255.5,17.2z M264.9,21.8c-0.1,0.2-0.3,0.4-0.7,0.5c-0.3,0.1-0.6,0.2-0.9,0.2
		c-0.8,0.1-1.6,0.3-2.5,0.4c-0.8,0.1-1.6,0.3-2.3,0.5c-0.7,0.2-1.3,0.5-1.7,0.9c-0.4,0.4-0.7,1-0.7,1.7c0,0.5,0.1,0.9,0.3,1.3
		c0.2,0.4,0.4,0.7,0.8,1c0.3,0.3,0.7,0.5,1.1,0.6c0.4,0.1,0.8,0.2,1.3,0.2c0.7,0,1.4-0.1,2.1-0.3c0.7-0.2,1.2-0.5,1.7-1
		c0.5-0.4,0.9-0.9,1.2-1.5c0.3-0.6,0.4-1.3,0.4-2L264.9,21.8L264.9,21.8z"/>
	<path class="st0" d="M272.3,14.8v3.6h0.1c0.5-1.3,1.2-2.2,2.2-2.9c1-0.7,2.2-1,3.6-0.9v1.9c-0.9,0-1.6,0.1-2.3,0.3
		c-0.7,0.3-1.3,0.7-1.8,1.2c-0.5,0.5-0.9,1.1-1.2,1.8s-0.4,1.4-0.4,2.3v8.2h-1.9V14.8H272.3z"/>
	<path class="st0" d="M280.9,25.1c0.2,0.7,0.5,1.4,0.9,2s0.9,1.1,1.6,1.4c0.6,0.4,1.4,0.6,2.3,0.6c1.4,0,2.5-0.4,3.2-1.1
		c0.8-0.7,1.3-1.7,1.6-2.9h1.9c-0.4,1.8-1.1,3.1-2.2,4.1s-2.6,1.4-4.5,1.4c-1.2,0-2.3-0.2-3.2-0.6c-0.9-0.4-1.6-1-2.2-1.8
		c-0.6-0.7-1-1.6-1.2-2.6c-0.3-1-0.4-2-0.4-3.1c0-1,0.1-2,0.4-3c0.3-1,0.7-1.8,1.2-2.6c0.6-0.8,1.3-1.4,2.2-1.9
		c0.9-0.5,1.9-0.7,3.2-0.7c1.2,0,2.3,0.2,3.2,0.7c0.9,0.5,1.6,1.2,2.1,2c0.5,0.8,0.9,1.7,1.2,2.8c0.2,1,0.3,2.1,0.3,3.2h-11.9
		C280.6,23.7,280.7,24.4,280.9,25.1z M290.2,19.3c-0.2-0.7-0.6-1.2-1-1.7c-0.4-0.5-0.9-0.9-1.5-1.2c-0.6-0.3-1.3-0.5-2-0.5
		c-0.8,0-1.5,0.2-2.1,0.5c-0.6,0.3-1.1,0.7-1.5,1.2c-0.4,0.5-0.8,1.1-1,1.8c-0.2,0.7-0.4,1.4-0.5,2h10
		C290.6,20.7,290.4,20,290.2,19.3z"/>
	<path class="st0" d="M305.1,25.9c0.4,0.7,0.9,1.3,1.5,1.8s1.4,0.8,2.2,0.9c0.9,0.2,1.8,0.3,2.8,0.3c0.6,0,1.2-0.1,1.8-0.2
		c0.7-0.2,1.3-0.4,1.8-0.8s1-0.8,1.4-1.3c0.4-0.5,0.6-1.2,0.6-2c0-0.6-0.1-1.1-0.4-1.6c-0.3-0.4-0.6-0.8-1-1.1
		c-0.4-0.3-0.9-0.5-1.4-0.7c-0.5-0.2-1-0.3-1.5-0.5l-4.8-1.2c-0.6-0.2-1.2-0.4-1.8-0.6s-1.1-0.6-1.5-1c-0.4-0.4-0.8-0.9-1.1-1.5
		c-0.3-0.6-0.4-1.3-0.4-2.1c0-0.5,0.1-1.1,0.3-1.8c0.2-0.7,0.6-1.4,1.1-2C305.3,10,306,9.5,307,9c1-0.4,2.2-0.6,3.7-0.6
		c1.1,0,2.1,0.1,3,0.4c1,0.3,1.8,0.7,2.5,1.3s1.3,1.3,1.7,2.1s0.6,1.8,0.6,2.9h-2c0-0.8-0.2-1.5-0.6-2.1c-0.3-0.6-0.8-1.1-1.3-1.5
		s-1.1-0.7-1.8-0.9c-0.7-0.2-1.4-0.3-2.2-0.3c-0.7,0-1.4,0.1-2,0.2c-0.6,0.1-1.2,0.4-1.7,0.7c-0.5,0.3-0.9,0.8-1.2,1.3
		c-0.3,0.5-0.4,1.2-0.4,2c0,0.5,0.1,0.9,0.3,1.3c0.2,0.4,0.4,0.7,0.7,0.9c0.3,0.3,0.6,0.5,1,0.6c0.4,0.2,0.8,0.3,1.2,0.4l5.2,1.3
		c0.8,0.2,1.5,0.4,2.1,0.7s1.3,0.6,1.8,1.1c0.5,0.4,0.9,1,1.2,1.6c0.3,0.6,0.4,1.4,0.4,2.2c0,0.2,0,0.6-0.1,1
		c-0.1,0.4-0.2,0.8-0.4,1.3s-0.5,0.9-0.8,1.4c-0.3,0.5-0.8,0.9-1.4,1.2c-0.6,0.4-1.4,0.7-2.3,0.9c-0.9,0.2-2,0.3-3.2,0.3
		s-2.4-0.1-3.5-0.4c-1.1-0.3-2-0.7-2.8-1.3c-0.8-0.6-1.3-1.4-1.7-2.3c-0.4-0.9-0.6-2.1-0.5-3.4h2C304.6,24.3,304.8,25.2,305.1,25.9z
		"/>
	<path class="st0" d="M323.6,25.1c0.2,0.7,0.5,1.4,0.9,2s0.9,1.1,1.6,1.4c0.6,0.4,1.4,0.6,2.3,0.6c1.4,0,2.5-0.4,3.2-1.1
		c0.8-0.7,1.3-1.7,1.6-2.9h1.9c-0.4,1.8-1.1,3.1-2.2,4.1s-2.6,1.4-4.5,1.4c-1.2,0-2.3-0.2-3.2-0.6c-0.9-0.4-1.6-1-2.2-1.8
		c-0.6-0.7-1-1.6-1.2-2.6c-0.3-1-0.4-2-0.4-3.1c0-1,0.1-2,0.4-3c0.3-1,0.7-1.8,1.2-2.6c0.6-0.8,1.3-1.4,2.2-1.9
		c0.9-0.5,1.9-0.7,3.2-0.7c1.2,0,2.3,0.2,3.2,0.7c0.9,0.5,1.6,1.2,2.1,2c0.5,0.8,0.9,1.7,1.2,2.8c0.2,1,0.3,2.1,0.3,3.2h-11.9
		C323.3,23.7,323.4,24.4,323.6,25.1z M332.9,19.3c-0.2-0.7-0.6-1.2-1-1.7c-0.4-0.5-0.9-0.9-1.5-1.2c-0.6-0.3-1.3-0.5-2-0.5
		c-0.8,0-1.5,0.2-2.1,0.5c-0.6,0.3-1.1,0.7-1.5,1.2c-0.4,0.5-0.8,1.1-1,1.8c-0.2,0.7-0.4,1.4-0.5,2h10
		C333.2,20.7,333.1,20,332.9,19.3z"/>
	<path class="st0" d="M339.4,14.8v3.6h0.1c0.5-1.3,1.2-2.2,2.2-2.9c1-0.7,2.2-1,3.6-0.9v1.9c-0.9,0-1.6,0.1-2.3,0.3
		c-0.7,0.3-1.3,0.7-1.8,1.2c-0.5,0.5-0.9,1.1-1.2,1.8s-0.4,1.4-0.4,2.3v8.2h-1.9V14.8H339.4z"/>
	<path class="st0" d="M348.5,14.8l4.8,13.5h0.1l4.8-13.5h1.9l-5.8,15.4h-2l-6-15.4H348.5z"/>
	<path class="st0" d="M363.9,8.9v3H362v-3H363.9z M363.9,14.8v15.4H362V14.8H363.9z"/>
	<path class="st0" d="M376.9,16.9c-0.7-0.7-1.7-1-2.9-1c-0.9,0-1.7,0.2-2.4,0.6s-1.2,0.9-1.7,1.5c-0.4,0.6-0.8,1.3-1,2.1
		c-0.2,0.8-0.3,1.6-0.3,2.4s0.1,1.6,0.3,2.4c0.2,0.8,0.6,1.5,1,2.1c0.4,0.6,1,1.1,1.7,1.5s1.5,0.6,2.4,0.6c0.6,0,1.1-0.1,1.6-0.3
		c0.5-0.2,1-0.5,1.4-0.9c0.4-0.4,0.7-0.9,1-1.4s0.4-1.1,0.5-1.8h1.9c-0.3,1.9-0.9,3.3-2.1,4.4c-1.1,1-2.6,1.6-4.3,1.6
		c-1.2,0-2.2-0.2-3.1-0.6c-0.9-0.4-1.7-1-2.3-1.7c-0.6-0.7-1.1-1.6-1.4-2.6c-0.3-1-0.5-2-0.5-3.2c0-1.1,0.2-2.2,0.5-3.2
		c0.3-1,0.8-1.8,1.4-2.6c0.6-0.7,1.4-1.3,2.3-1.8c0.9-0.4,1.9-0.7,3.1-0.7c1.7,0,3.1,0.4,4.2,1.3c1.1,0.9,1.8,2.2,2,4h-1.9
		C378.1,18.5,377.6,17.6,376.9,16.9z"/>
	<path class="st0" d="M384.4,25.1c0.2,0.7,0.5,1.4,0.9,2s0.9,1.1,1.6,1.4c0.6,0.4,1.4,0.6,2.3,0.6c1.4,0,2.5-0.4,3.2-1.1
		c0.8-0.7,1.3-1.7,1.6-2.9h1.9c-0.4,1.8-1.1,3.1-2.2,4.1s-2.6,1.4-4.5,1.4c-1.2,0-2.3-0.2-3.2-0.6c-0.9-0.4-1.6-1-2.2-1.8
		c-0.6-0.7-1-1.6-1.2-2.6c-0.3-1-0.4-2-0.4-3.1c0-1,0.1-2,0.4-3c0.3-1,0.7-1.8,1.2-2.6c0.6-0.8,1.3-1.4,2.2-1.9
		c0.9-0.5,1.9-0.7,3.2-0.7c1.2,0,2.3,0.2,3.2,0.7c0.9,0.5,1.6,1.2,2.1,2c0.5,0.8,0.9,1.7,1.2,2.8c0.2,1,0.3,2.1,0.3,3.2h-11.9
		C384.1,23.7,384.2,24.4,384.4,25.1z M393.7,19.3c-0.2-0.7-0.6-1.2-1-1.7c-0.4-0.5-0.9-0.9-1.5-1.2c-0.6-0.3-1.3-0.5-2-0.5
		c-0.8,0-1.5,0.2-2.1,0.5c-0.6,0.3-1.1,0.7-1.5,1.2c-0.4,0.5-0.8,1.1-1,1.8c-0.2,0.7-0.4,1.4-0.5,2h10
		C394.1,20.7,393.9,20,393.7,19.3z"/>
	<path class="st0" d="M407.4,17.8c-0.2-0.4-0.5-0.8-0.9-1.1c-0.4-0.3-0.8-0.5-1.3-0.6c-0.5-0.1-1-0.2-1.5-0.2c-0.4,0-0.8,0-1.3,0.1
		c-0.4,0.1-0.8,0.2-1.2,0.4c-0.4,0.2-0.6,0.5-0.9,0.8s-0.3,0.8-0.3,1.3c0,0.4,0.1,0.8,0.3,1.1s0.5,0.5,0.8,0.7
		c0.3,0.2,0.7,0.4,1,0.5c0.4,0.1,0.7,0.2,1,0.3l2.5,0.6c0.5,0.1,1.1,0.2,1.6,0.4c0.5,0.2,1,0.5,1.4,0.8c0.4,0.3,0.7,0.8,1,1.3
		c0.3,0.5,0.4,1.1,0.4,1.8c0,0.8-0.2,1.6-0.6,2.1s-0.9,1.1-1.5,1.4c-0.6,0.4-1.3,0.6-2,0.8c-0.7,0.2-1.5,0.2-2.2,0.2
		c-1.8,0-3.3-0.4-4.4-1.3c-1.1-0.9-1.8-2.2-1.9-4.1h1.9c0.1,1.3,0.5,2.2,1.4,2.9c0.8,0.6,1.9,1,3.2,1c0.5,0,0.9,0,1.4-0.1
		c0.5-0.1,0.9-0.3,1.4-0.5s0.8-0.5,1-0.9c0.3-0.4,0.4-0.8,0.4-1.4c0-0.5-0.1-0.8-0.3-1.2c-0.2-0.3-0.4-0.6-0.8-0.8
		c-0.3-0.2-0.7-0.4-1.1-0.5c-0.4-0.1-0.8-0.3-1.2-0.4l-2.4-0.5c-0.6-0.2-1.2-0.3-1.7-0.6c-0.5-0.2-1-0.5-1.4-0.8
		c-0.4-0.3-0.7-0.7-0.9-1.1s-0.3-1-0.3-1.7c0-0.8,0.2-1.4,0.5-2c0.3-0.6,0.8-1,1.4-1.3c0.6-0.3,1.2-0.6,1.9-0.7s1.4-0.2,2-0.2
		c0.8,0,1.5,0.1,2.2,0.3c0.7,0.2,1.3,0.5,1.8,0.9c0.5,0.4,0.9,0.9,1.2,1.6c0.3,0.6,0.5,1.3,0.5,2.2h-1.9
		C407.7,18.7,407.6,18.2,407.4,17.8z"/>
	<path class="st0" d="M423.8,8.9l12.4,18.1h0.1V8.9h2v21.4h-2.3l-12.4-18.1h-0.1v18.1h-2V8.9H423.8z"/>
	<path class="st0" d="M450.9,15c0.9,0.4,1.7,1,2.3,1.8c0.6,0.7,1.1,1.6,1.4,2.6c0.3,1,0.5,2,0.5,3.2c0,1.1-0.2,2.2-0.5,3.2
		c-0.3,1-0.8,1.8-1.4,2.6c-0.6,0.7-1.4,1.3-2.3,1.7c-0.9,0.4-1.9,0.6-3.1,0.6c-1.2,0-2.2-0.2-3.1-0.6c-0.9-0.4-1.7-1-2.3-1.7
		c-0.6-0.7-1.1-1.6-1.4-2.6c-0.3-1-0.5-2-0.5-3.2c0-1.1,0.2-2.2,0.5-3.2c0.3-1,0.8-1.8,1.4-2.6c0.6-0.7,1.4-1.3,2.3-1.8
		c0.9-0.4,1.9-0.7,3.1-0.7C449,14.3,450,14.5,450.9,15z M445.4,16.5c-0.7,0.4-1.2,0.9-1.7,1.5c-0.4,0.6-0.8,1.3-1,2.1
		c-0.2,0.8-0.3,1.6-0.3,2.4s0.1,1.6,0.3,2.4c0.2,0.8,0.6,1.5,1,2.1c0.4,0.6,1,1.1,1.7,1.5s1.5,0.6,2.4,0.6c0.9,0,1.7-0.2,2.4-0.6
		s1.2-0.9,1.7-1.5c0.4-0.6,0.8-1.3,1-2.1c0.2-0.8,0.3-1.6,0.3-2.4s-0.1-1.6-0.3-2.4c-0.2-0.8-0.6-1.5-1-2.1c-0.4-0.6-1-1.1-1.7-1.5
		s-1.5-0.6-2.4-0.6C446.9,15.9,446.1,16.1,445.4,16.5z"/>
	<path class="st0" d="M459.6,14.8v3.6h0.1c0.5-1.3,1.2-2.2,2.2-2.9c1-0.7,2.2-1,3.6-0.9v1.9c-0.9,0-1.6,0.1-2.3,0.3
		c-0.7,0.3-1.3,0.7-1.8,1.2c-0.5,0.5-0.9,1.1-1.2,1.8s-0.4,1.4-0.4,2.3v8.2h-1.9V14.8H459.6z"/>
	<path class="st0" d="M474.4,14.8v1.6h-3.1v10.4c0,0.6,0.1,1.1,0.3,1.5c0.2,0.3,0.6,0.5,1.3,0.6c0.5,0,1.1,0,1.6-0.1v1.6
		c-0.3,0-0.6,0-0.8,0c-0.3,0-0.6,0-0.8,0c-1.3,0-2.1-0.2-2.6-0.7s-0.7-1.4-0.7-2.7V16.4h-2.7v-1.6h2.7v-4.6h1.9v4.6H474.4z"/>
	<path class="st0" d="M479,8.9v8.6h0.1c0.4-0.9,1-1.7,1.9-2.3c0.9-0.6,1.9-0.9,3-0.9c1.1,0,2,0.1,2.7,0.4s1.3,0.7,1.7,1.2
		c0.4,0.5,0.7,1.1,0.9,1.9c0.2,0.7,0.3,1.6,0.3,2.5v9.9h-1.9v-9.6c0-0.7-0.1-1.3-0.2-1.8c-0.1-0.6-0.3-1.1-0.6-1.5
		c-0.3-0.4-0.7-0.7-1.2-1c-0.5-0.2-1.1-0.4-1.9-0.4s-1.4,0.1-2,0.4c-0.6,0.3-1.1,0.6-1.5,1.1c-0.4,0.5-0.7,1-1,1.7s-0.4,1.4-0.4,2.1
		v9h-1.9V8.9H479z"/>
	<path class="st0" d="M493.6,25.1c0.2,0.7,0.5,1.4,0.9,2s0.9,1.1,1.6,1.4c0.6,0.4,1.4,0.6,2.3,0.6c1.4,0,2.5-0.4,3.2-1.1
		c0.8-0.7,1.3-1.7,1.6-2.9h1.9c-0.4,1.8-1.1,3.1-2.2,4.1s-2.6,1.4-4.5,1.4c-1.2,0-2.3-0.2-3.2-0.6c-0.9-0.4-1.6-1-2.2-1.8
		c-0.6-0.7-1-1.6-1.2-2.6c-0.3-1-0.4-2-0.4-3.1c0-1,0.1-2,0.4-3c0.3-1,0.7-1.8,1.2-2.6c0.6-0.8,1.3-1.4,2.2-1.9
		c0.9-0.5,1.9-0.7,3.2-0.7c1.2,0,2.3,0.2,3.2,0.7c0.9,0.5,1.6,1.2,2.1,2c0.5,0.8,0.9,1.7,1.2,2.8c0.2,1,0.3,2.1,0.3,3.2h-11.9
		C493.3,23.7,493.4,24.4,493.6,25.1z M502.9,19.3c-0.2-0.7-0.6-1.2-1-1.7c-0.4-0.5-0.9-0.9-1.5-1.2c-0.6-0.3-1.3-0.5-2-0.5
		c-0.8,0-1.5,0.2-2.1,0.5c-0.6,0.3-1.1,0.7-1.5,1.2c-0.4,0.5-0.8,1.1-1,1.8c-0.2,0.7-0.4,1.4-0.5,2h10
		C503.3,20.7,503.2,20,502.9,19.3z"/>
	<path class="st0" d="M509.5,14.8v3.6h0.1c0.5-1.3,1.2-2.2,2.2-2.9c1-0.7,2.2-1,3.6-0.9v1.9c-0.9,0-1.6,0.1-2.3,0.3
		c-0.7,0.3-1.3,0.7-1.8,1.2c-0.5,0.5-0.9,1.1-1.2,1.8s-0.4,1.4-0.4,2.3v8.2h-1.9V14.8H509.5z"/>
	<path class="st0" d="M519.5,14.8v2.7h0.1c0.4-0.9,1-1.7,1.9-2.3c0.9-0.6,1.9-0.9,3-0.9c1.1,0,2,0.1,2.7,0.4s1.3,0.7,1.7,1.2
		c0.4,0.5,0.7,1.1,0.9,1.9c0.2,0.7,0.3,1.6,0.3,2.5v9.9h-1.9v-9.6c0-0.7-0.1-1.3-0.2-1.8c-0.1-0.6-0.3-1.1-0.6-1.5
		c-0.3-0.4-0.7-0.7-1.2-1c-0.5-0.2-1.1-0.4-1.9-0.4s-1.4,0.1-2,0.4c-0.6,0.3-1.1,0.6-1.5,1.1c-0.4,0.5-0.7,1-1,1.7s-0.4,1.4-0.4,2.1
		v9h-1.9V14.8H519.5z"/>
	<path class="st0" d="M543.6,8.9v21.4h-2V8.9H543.6z"/>
	<path class="st0" d="M548.4,14.8v3.6h0.1c0.5-1.3,1.2-2.2,2.2-2.9c1-0.7,2.2-1,3.6-0.9v1.9c-0.9,0-1.6,0.1-2.3,0.3
		c-0.7,0.3-1.3,0.7-1.8,1.2c-0.5,0.5-0.9,1.1-1.2,1.8s-0.4,1.4-0.4,2.3v8.2h-1.9V14.8H548.4z"/>
	<path class="st0" d="M557,25.1c0.2,0.7,0.5,1.4,0.9,2s0.9,1.1,1.6,1.4c0.6,0.4,1.4,0.6,2.3,0.6c1.4,0,2.5-0.4,3.2-1.1
		c0.8-0.7,1.3-1.7,1.6-2.9h1.9c-0.4,1.8-1.1,3.1-2.2,4.1s-2.6,1.4-4.5,1.4c-1.2,0-2.3-0.2-3.2-0.6c-0.9-0.4-1.6-1-2.2-1.8
		c-0.6-0.7-1-1.6-1.2-2.6c-0.3-1-0.4-2-0.4-3.1c0-1,0.1-2,0.4-3c0.3-1,0.7-1.8,1.2-2.6c0.6-0.8,1.3-1.4,2.2-1.9
		c0.9-0.5,1.9-0.7,3.2-0.7c1.2,0,2.3,0.2,3.2,0.7c0.9,0.5,1.6,1.2,2.1,2c0.5,0.8,0.9,1.7,1.2,2.8c0.2,1,0.3,2.1,0.3,3.2h-11.9
		C556.7,23.7,556.8,24.4,557,25.1z M566.3,19.3c-0.2-0.7-0.6-1.2-1-1.7c-0.4-0.5-0.9-0.9-1.5-1.2c-0.6-0.3-1.3-0.5-2-0.5
		c-0.8,0-1.5,0.2-2.1,0.5c-0.6,0.3-1.1,0.7-1.5,1.2c-0.4,0.5-0.8,1.1-1,1.8c-0.2,0.7-0.4,1.4-0.5,2h10
		C566.6,20.7,566.5,20,566.3,19.3z"/>
	<path class="st0" d="M573,8.9v21.4h-1.9V8.9H573z"/>
	<path class="st0" d="M577,17.2c0.3-0.7,0.8-1.2,1.3-1.6c0.5-0.4,1.2-0.7,1.9-0.9s1.6-0.3,2.5-0.3c0.7,0,1.4,0.1,2,0.2
		s1.3,0.4,1.8,0.7c0.5,0.4,1,0.9,1.3,1.5c0.3,0.6,0.5,1.5,0.5,2.5v8.2c0,0.8,0.4,1.1,1.1,1.1c0.2,0,0.4,0,0.6-0.1v1.6
		c-0.2,0-0.4,0.1-0.6,0.1c-0.2,0-0.4,0-0.6,0c-0.5,0-0.9-0.1-1.2-0.2s-0.5-0.3-0.7-0.6c-0.2-0.2-0.3-0.5-0.3-0.9s-0.1-0.7-0.1-1.1
		h-0.1c-0.3,0.5-0.7,0.9-1,1.3s-0.7,0.7-1.2,1s-0.9,0.5-1.5,0.6c-0.5,0.1-1.2,0.2-2,0.2c-0.7,0-1.4-0.1-2-0.3
		c-0.6-0.2-1.2-0.4-1.6-0.8s-0.8-0.8-1.1-1.4c-0.3-0.6-0.4-1.2-0.4-2c0-1.1,0.2-1.9,0.7-2.5c0.5-0.6,1.1-1.1,1.9-1.4
		c0.8-0.3,1.7-0.5,2.7-0.7c1-0.1,2-0.3,3-0.4c0.4,0,0.7-0.1,1-0.1c0.3-0.1,0.5-0.2,0.7-0.3c0.2-0.1,0.4-0.4,0.5-0.6
		c0.1-0.3,0.2-0.6,0.2-1c0-0.6-0.1-1.2-0.3-1.6c-0.2-0.4-0.5-0.7-0.9-1s-0.8-0.4-1.3-0.5c-0.5-0.1-1-0.1-1.6-0.1
		c-1.2,0-2.2,0.3-2.9,0.9c-0.8,0.6-1.2,1.5-1.2,2.7h-1.9C576.5,18.6,576.7,17.8,577,17.2z M586.4,21.8c-0.1,0.2-0.3,0.4-0.7,0.5
		c-0.3,0.1-0.6,0.2-0.9,0.2c-0.8,0.1-1.6,0.3-2.5,0.4c-0.8,0.1-1.6,0.3-2.3,0.5c-0.7,0.2-1.3,0.5-1.7,0.9c-0.4,0.4-0.7,1-0.7,1.7
		c0,0.5,0.1,0.9,0.3,1.3s0.4,0.7,0.8,1c0.3,0.3,0.7,0.5,1.1,0.6c0.4,0.1,0.8,0.2,1.3,0.2c0.7,0,1.4-0.1,2.1-0.3
		c0.7-0.2,1.2-0.5,1.7-1c0.5-0.4,0.9-0.9,1.2-1.5c0.3-0.6,0.4-1.3,0.4-2L586.4,21.8L586.4,21.8z"/>
	<path class="st0" d="M594,14.8v2.7h0.1c0.4-0.9,1-1.7,1.9-2.3c0.9-0.6,1.9-0.9,3-0.9c1.1,0,2,0.1,2.7,0.4s1.3,0.7,1.7,1.2
		c0.4,0.5,0.7,1.1,0.9,1.9c0.2,0.7,0.3,1.6,0.3,2.5v9.9h-1.9v-9.6c0-0.7-0.1-1.3-0.2-1.8c-0.1-0.6-0.3-1.1-0.6-1.5
		c-0.3-0.4-0.7-0.7-1.2-1c-0.5-0.2-1.1-0.4-1.9-0.4s-1.4,0.1-2,0.4c-0.6,0.3-1.1,0.6-1.5,1.1c-0.4,0.5-0.7,1-1,1.7s-0.4,1.4-0.4,2.1
		v9h-1.9V14.8H594z"/>
	<path class="st0" d="M619,30.2v-2.9H619c-0.2,0.5-0.5,1-0.9,1.4c-0.4,0.4-0.8,0.8-1.3,1.1c-0.5,0.3-1,0.5-1.6,0.7
		c-0.6,0.2-1.1,0.2-1.7,0.2c-1.2,0-2.2-0.2-3.1-0.6c-0.9-0.4-1.6-1-2.2-1.8c-0.6-0.7-1-1.6-1.3-2.6c-0.3-1-0.4-2-0.4-3.1
		c0-1.1,0.1-2.1,0.4-3.1c0.3-1,0.7-1.9,1.3-2.6c0.6-0.7,1.3-1.3,2.2-1.8s1.9-0.7,3.1-0.7c0.6,0,1.1,0.1,1.7,0.2
		c0.5,0.1,1.1,0.4,1.5,0.6s0.9,0.6,1.3,1.1c0.4,0.4,0.7,0.9,0.9,1.5h0.1V8.9h1.9v21.4H619z M608.7,24.9c0.2,0.8,0.5,1.5,0.9,2.1
		c0.4,0.6,0.9,1.1,1.6,1.5c0.6,0.4,1.4,0.6,2.3,0.6c1,0,1.8-0.2,2.5-0.6c0.7-0.4,1.2-0.9,1.7-1.5c0.4-0.6,0.7-1.3,0.9-2.1
		c0.2-0.8,0.3-1.6,0.3-2.4c0-0.8-0.1-1.6-0.3-2.4c-0.2-0.8-0.5-1.5-0.9-2.1c-0.4-0.6-1-1.1-1.7-1.5c-0.7-0.4-1.5-0.6-2.5-0.6
		c-0.9,0-1.7,0.2-2.3,0.6c-0.6,0.4-1.2,0.9-1.6,1.5c-0.4,0.6-0.7,1.3-0.9,2.1s-0.3,1.6-0.3,2.4C608.4,23.3,608.5,24.1,608.7,24.9z"
		/>
	<path class="st0" d="M25.6,44.7l8,21.4h-4.9l-1.6-4.8h-8l-1.7,4.8h-4.7l8.1-21.4H25.6z M25.9,57.8L23.2,50h-0.1l-2.8,7.8H25.9z"/>
	<path class="st0" d="M39,50.6v2.2h0.1c0.5-0.9,1.2-1.5,2.1-2c0.9-0.4,1.7-0.6,2.6-0.6c1.1,0,2.1,0.2,2.8,0.5
		c0.7,0.3,1.3,0.7,1.7,1.3c0.4,0.5,0.7,1.2,0.9,2c0.2,0.8,0.3,1.7,0.3,2.6v9.5h-4.2v-8.7c0-1.3-0.2-2.2-0.6-2.9s-1.1-0.9-2.1-0.9
		c-1.2,0-2,0.3-2.5,1c-0.5,0.7-0.8,1.8-0.8,3.4v8.1H35V50.6H39z"/>
	<path class="st0" d="M66.2,44.7v21.4h-4.7V44.7H66.2z"/>
	<path class="st0" d="M73.9,50.6v2.2H74c0.5-0.9,1.2-1.5,2.1-2c0.9-0.4,1.7-0.6,2.6-0.6c1.1,0,2.1,0.2,2.8,0.5
		c0.7,0.3,1.3,0.7,1.7,1.3c0.4,0.5,0.7,1.2,0.9,2c0.2,0.8,0.3,1.7,0.3,2.6v9.5h-4.2v-8.7c0-1.3-0.2-2.2-0.6-2.9s-1.1-0.9-2.1-0.9
		c-1.2,0-2,0.3-2.5,1c-0.5,0.7-0.8,1.8-0.8,3.4v8.1h-4.2V50.6H73.9z"/>
	<path class="st0" d="M98.6,64.1c-0.5,0.8-1.2,1.4-2,1.8c-0.8,0.4-1.7,0.6-2.7,0.6c-1.2,0-2.2-0.2-3-0.7c-0.9-0.4-1.6-1.1-2.2-1.8
		c-0.6-0.8-1-1.6-1.3-2.6c-0.3-1-0.4-2-0.4-3.1c0-1,0.1-2,0.4-3c0.3-1,0.7-1.8,1.3-2.6c0.6-0.7,1.3-1.3,2.1-1.8
		c0.9-0.4,1.9-0.7,3-0.7c0.9,0,1.8,0.2,2.6,0.6c0.8,0.4,1.5,1,2,1.7h0.1v-7.8h4.2v21.4h-4L98.6,64.1L98.6,64.1z M98.4,56.5
		c-0.1-0.6-0.3-1.1-0.6-1.6c-0.3-0.4-0.7-0.8-1.1-1.1c-0.5-0.3-1-0.4-1.7-0.4c-0.7,0-1.3,0.1-1.8,0.4c-0.5,0.3-0.9,0.6-1.2,1.1
		c-0.3,0.5-0.5,1-0.6,1.6c-0.1,0.6-0.2,1.2-0.2,1.8c0,0.6,0.1,1.2,0.2,1.8c0.1,0.6,0.4,1.1,0.7,1.6s0.7,0.8,1.2,1.1
		c0.5,0.3,1,0.4,1.7,0.4c0.7,0,1.3-0.1,1.7-0.4c0.5-0.3,0.8-0.7,1.1-1.1c0.3-0.5,0.5-1,0.6-1.6c0.1-0.6,0.2-1.2,0.2-1.9
		S98.5,57.1,98.4,56.5z"/>
	<path class="st0" d="M110.4,62.4c0.6,0.6,1.6,0.9,2.8,0.9c0.9,0,1.6-0.2,2.2-0.6c0.6-0.4,1-0.9,1.1-1.4h3.7c-0.6,1.9-1.5,3.2-2.8,4
		c-1.2,0.8-2.7,1.2-4.5,1.2c-1.2,0-2.3-0.2-3.3-0.6c-1-0.4-1.8-0.9-2.5-1.7c-0.7-0.7-1.2-1.6-1.6-2.6c-0.4-1-0.6-2.1-0.6-3.3
		c0-1.2,0.2-2.2,0.6-3.2c0.4-1,0.9-1.9,1.6-2.6s1.5-1.3,2.5-1.7c1-0.4,2-0.6,3.2-0.6c1.3,0,2.5,0.3,3.4,0.8c1,0.5,1.8,1.2,2.4,2
		c0.6,0.9,1.1,1.8,1.4,2.9c0.3,1.1,0.4,2.2,0.3,3.4h-11.2C109.4,60.8,109.8,61.8,110.4,62.4z M115.2,54.2c-0.5-0.6-1.3-0.8-2.3-0.8
		c-0.7,0-1.2,0.1-1.7,0.3c-0.4,0.2-0.8,0.5-1.1,0.9c-0.3,0.3-0.5,0.7-0.6,1.1c-0.1,0.4-0.2,0.7-0.2,1h6.9
		C116.1,55.6,115.7,54.8,115.2,54.2z"/>
	<path class="st0" d="M127.1,50.6v2h0.1c0.5-0.8,1.2-1.4,2-1.8c0.8-0.4,1.7-0.6,2.6-0.6c1.2,0,2.3,0.2,3.1,0.7
		c0.9,0.5,1.6,1.1,2.2,1.8s1,1.6,1.3,2.6c0.3,1,0.4,2.1,0.4,3.2c0,1-0.1,2-0.4,3c-0.3,1-0.7,1.8-1.3,2.5c-0.6,0.7-1.3,1.3-2.1,1.8
		c-0.8,0.4-1.8,0.7-3,0.7c-1,0-1.8-0.2-2.6-0.6c-0.8-0.4-1.5-1-2-1.7h-0.1v7.3H123V50.6H127.1z M132.6,62.9c0.5-0.3,0.8-0.6,1.1-1.1
		c0.3-0.4,0.5-1,0.6-1.6c0.1-0.6,0.2-1.2,0.2-1.8s-0.1-1.2-0.2-1.8c-0.1-0.6-0.3-1.1-0.6-1.6c-0.3-0.5-0.7-0.8-1.2-1.1
		c-0.5-0.3-1-0.4-1.7-0.4c-0.7,0-1.3,0.1-1.7,0.4c-0.5,0.3-0.8,0.7-1.1,1.1c-0.3,0.5-0.5,1-0.6,1.6c-0.1,0.6-0.2,1.2-0.2,1.9
		c0,0.6,0.1,1.2,0.2,1.8c0.1,0.6,0.3,1.1,0.6,1.6c0.3,0.4,0.7,0.8,1.2,1.1c0.5,0.3,1.1,0.4,1.7,0.4
		C131.5,63.3,132.1,63.2,132.6,62.9z"/>
	<path class="st0" d="M145.8,62.4c0.6,0.6,1.6,0.9,2.8,0.9c0.9,0,1.6-0.2,2.2-0.6c0.6-0.4,1-0.9,1.1-1.4h3.7c-0.6,1.9-1.5,3.2-2.8,4
		c-1.2,0.8-2.7,1.2-4.5,1.2c-1.2,0-2.3-0.2-3.3-0.6c-1-0.4-1.8-0.9-2.5-1.7c-0.7-0.7-1.2-1.6-1.6-2.6c-0.4-1-0.6-2.1-0.6-3.3
		c0-1.2,0.2-2.2,0.6-3.2c0.4-1,0.9-1.9,1.6-2.6s1.5-1.3,2.5-1.7c1-0.4,2-0.6,3.2-0.6c1.3,0,2.5,0.3,3.4,0.8c1,0.5,1.8,1.2,2.4,2
		c0.6,0.9,1.1,1.8,1.4,2.9c0.3,1.1,0.4,2.2,0.3,3.4h-11.2C144.8,60.8,145.2,61.8,145.8,62.4z M150.6,54.2c-0.5-0.6-1.3-0.8-2.3-0.8
		c-0.7,0-1.2,0.1-1.7,0.3c-0.4,0.2-0.8,0.5-1.1,0.9c-0.3,0.3-0.5,0.7-0.6,1.1c-0.1,0.4-0.2,0.7-0.2,1h6.9
		C151.5,55.6,151.1,54.8,150.6,54.2z"/>
	<path class="st0" d="M162.5,50.6v2.2h0.1c0.5-0.9,1.2-1.5,2.1-2c0.9-0.4,1.7-0.6,2.6-0.6c1.1,0,2.1,0.2,2.8,0.5
		c0.7,0.3,1.3,0.7,1.7,1.3c0.4,0.5,0.7,1.2,0.9,2c0.2,0.8,0.3,1.7,0.3,2.6v9.5h-4.2v-8.7c0-1.3-0.2-2.2-0.6-2.9s-1.1-0.9-2.1-0.9
		c-1.2,0-2,0.3-2.5,1c-0.5,0.7-0.8,1.8-0.8,3.4v8.1h-4.2V50.6H162.5z"/>
	<path class="st0" d="M187.2,64.1c-0.5,0.8-1.2,1.4-2,1.8c-0.8,0.4-1.7,0.6-2.7,0.6c-1.2,0-2.2-0.2-3-0.7c-0.9-0.4-1.6-1.1-2.2-1.8
		c-0.6-0.8-1-1.6-1.3-2.6c-0.3-1-0.4-2-0.4-3.1c0-1,0.1-2,0.4-3c0.3-1,0.7-1.8,1.3-2.6c0.6-0.7,1.3-1.3,2.1-1.8
		c0.9-0.4,1.9-0.7,3-0.7c0.9,0,1.8,0.2,2.6,0.6c0.8,0.4,1.5,1,2,1.7h0.1v-7.8h4.2v21.4h-4L187.2,64.1L187.2,64.1z M187,56.5
		c-0.1-0.6-0.3-1.1-0.6-1.6c-0.3-0.4-0.7-0.8-1.1-1.1c-0.5-0.3-1-0.4-1.7-0.4c-0.7,0-1.3,0.1-1.8,0.4c-0.5,0.3-0.9,0.6-1.2,1.1
		c-0.3,0.5-0.5,1-0.6,1.6c-0.1,0.6-0.2,1.2-0.2,1.8c0,0.6,0.1,1.2,0.2,1.8c0.1,0.6,0.4,1.1,0.7,1.6s0.7,0.8,1.2,1.1
		c0.5,0.3,1,0.4,1.7,0.4c0.7,0,1.3-0.1,1.7-0.4c0.5-0.3,0.8-0.7,1.1-1.1c0.3-0.5,0.5-1,0.6-1.6c0.1-0.6,0.2-1.2,0.2-1.9
		S187.1,57.1,187,56.5z"/>
	<path class="st0" d="M199,62.4c0.6,0.6,1.6,0.9,2.8,0.9c0.9,0,1.6-0.2,2.2-0.6c0.6-0.4,1-0.9,1.1-1.4h3.7c-0.6,1.9-1.5,3.2-2.8,4
		c-1.2,0.8-2.7,1.2-4.5,1.2c-1.2,0-2.3-0.2-3.3-0.6c-1-0.4-1.8-0.9-2.5-1.7c-0.7-0.7-1.2-1.6-1.6-2.6c-0.4-1-0.6-2.1-0.6-3.3
		c0-1.2,0.2-2.2,0.6-3.2c0.4-1,0.9-1.9,1.6-2.6s1.5-1.3,2.5-1.7c1-0.4,2-0.6,3.2-0.6c1.3,0,2.5,0.3,3.4,0.8c1,0.5,1.8,1.2,2.4,2
		c0.6,0.9,1.1,1.8,1.4,2.9c0.3,1.1,0.4,2.2,0.3,3.4h-11.2C198,60.8,198.4,61.8,199,62.4z M203.8,54.2c-0.5-0.6-1.3-0.8-2.3-0.8
		c-0.7,0-1.2,0.1-1.7,0.3c-0.4,0.2-0.8,0.5-1.1,0.9c-0.3,0.3-0.5,0.7-0.6,1.1c-0.1,0.4-0.2,0.7-0.2,1h6.9
		C204.7,55.6,204.3,54.8,203.8,54.2z"/>
	<path class="st0" d="M215.6,50.6v2.2h0.1c0.5-0.9,1.2-1.5,2.1-2c0.9-0.4,1.7-0.6,2.6-0.6c1.1,0,2.1,0.2,2.8,0.5
		c0.7,0.3,1.3,0.7,1.7,1.3c0.4,0.5,0.7,1.2,0.9,2c0.2,0.8,0.3,1.7,0.3,2.6v9.5h-4.2v-8.7c0-1.3-0.2-2.2-0.6-2.9s-1.1-0.9-2.1-0.9
		c-1.2,0-2,0.3-2.5,1c-0.5,0.7-0.8,1.8-0.8,3.4v8.1h-4.2V50.6H215.6z"/>
	<path class="st0" d="M237.8,50.6v2.8h-3.1v7.7c0,0.7,0.1,1.2,0.4,1.4s0.7,0.4,1.4,0.4c0.2,0,0.5,0,0.7,0c0.2,0,0.4,0,0.6-0.1v3.3
		c-0.4,0.1-0.8,0.1-1.2,0.1c-0.4,0-0.9,0-1.3,0c-0.7,0-1.3,0-1.9-0.1c-0.6-0.1-1.1-0.3-1.6-0.5c-0.4-0.3-0.8-0.6-1.1-1.1
		c-0.3-0.5-0.4-1.1-0.4-1.9v-9.1h-2.6v-2.8h2.6V46h4.2v4.6H237.8z"/>
	<path class="st0" d="M260.1,44.7c1,0,1.8,0.2,2.6,0.5c0.8,0.3,1.4,0.7,2,1.3c0.5,0.5,1,1.2,1.3,1.9c0.3,0.7,0.4,1.5,0.4,2.3
		c0,1.3-0.3,2.3-0.8,3.3c-0.5,0.9-1.4,1.6-2.6,2.1V56c0.6,0.2,1.1,0.4,1.4,0.7c0.4,0.3,0.7,0.7,0.9,1.2s0.4,0.9,0.5,1.5
		s0.2,1.1,0.2,1.6c0,0.3,0,0.7,0.1,1.2c0,0.5,0.1,0.9,0.1,1.4c0,0.5,0.1,0.9,0.2,1.4c0.1,0.4,0.3,0.8,0.5,1.1h-4.7
		c-0.3-0.7-0.4-1.5-0.5-2.4c-0.1-0.9-0.1-1.8-0.3-2.7c-0.2-1.1-0.5-1.9-1-2.5c-0.5-0.5-1.4-0.8-2.5-0.8h-4.7v8.3h-4.7V44.7H260.1z
		 M258.5,54.4c1.1,0,1.9-0.2,2.4-0.7c0.5-0.5,0.8-1.3,0.8-2.3c0-1-0.3-1.8-0.8-2.3c-0.5-0.5-1.3-0.7-2.4-0.7h-5.1v6H258.5z"/>
	<path class="st0" d="M274.3,62.4c0.6,0.6,1.6,0.9,2.8,0.9c0.9,0,1.6-0.2,2.2-0.6c0.6-0.4,1-0.9,1.1-1.4h3.7c-0.6,1.9-1.5,3.2-2.8,4
		c-1.2,0.8-2.7,1.2-4.5,1.2c-1.2,0-2.3-0.2-3.3-0.6s-1.8-0.9-2.5-1.7c-0.7-0.7-1.2-1.6-1.6-2.6c-0.4-1-0.6-2.1-0.6-3.3
		c0-1.2,0.2-2.2,0.6-3.2c0.4-1,0.9-1.9,1.6-2.6s1.5-1.3,2.5-1.7s2-0.6,3.2-0.6c1.3,0,2.5,0.3,3.4,0.8c1,0.5,1.8,1.2,2.4,2
		c0.6,0.9,1.1,1.8,1.4,2.9s0.4,2.2,0.3,3.4h-11.2C273.3,60.8,273.7,61.8,274.3,62.4z M279.1,54.2c-0.5-0.6-1.3-0.8-2.3-0.8
		c-0.7,0-1.2,0.1-1.7,0.3c-0.4,0.2-0.8,0.5-1.1,0.9c-0.3,0.3-0.5,0.7-0.6,1.1c-0.1,0.4-0.2,0.7-0.2,1h6.9
		C280,55.6,279.6,54.8,279.1,54.2z"/>
	<path class="st0" d="M290.8,66.1l-5.3-15.5h4.5l3.3,10.6h0.1l3.3-10.6h4.2l-5.2,15.5H290.8z"/>
	<path class="st0" d="M302.6,48.2v-3.5h4.2v3.5H302.6z M306.8,50.6v15.5h-4.2V50.6H306.8z"/>
	<path class="st0" d="M314.7,62.4c0.6,0.6,1.6,0.9,2.8,0.9c0.9,0,1.6-0.2,2.2-0.6c0.6-0.4,1-0.9,1.1-1.4h3.7c-0.6,1.9-1.5,3.2-2.8,4
		c-1.2,0.8-2.7,1.2-4.5,1.2c-1.2,0-2.3-0.2-3.3-0.6s-1.8-0.9-2.5-1.7c-0.7-0.7-1.2-1.6-1.6-2.6c-0.4-1-0.6-2.1-0.6-3.3
		c0-1.2,0.2-2.2,0.6-3.2c0.4-1,0.9-1.9,1.6-2.6s1.5-1.3,2.5-1.7s2-0.6,3.2-0.6c1.3,0,2.5,0.3,3.4,0.8c1,0.5,1.8,1.2,2.4,2
		c0.6,0.9,1.1,1.8,1.4,2.9s0.4,2.2,0.3,3.4h-11.2C313.8,60.8,314.1,61.8,314.7,62.4z M319.5,54.2c-0.5-0.6-1.3-0.8-2.3-0.8
		c-0.7,0-1.2,0.1-1.7,0.3c-0.4,0.2-0.8,0.5-1.1,0.9c-0.3,0.3-0.5,0.7-0.6,1.1c-0.1,0.4-0.2,0.7-0.2,1h6.9
		C320.4,55.6,320.1,54.8,319.5,54.2z"/>
	<path class="st0" d="M340.7,66.1l-2.8-10.4h-0.1l-2.6,10.4h-4.4l-4.9-15.5h4.5l2.8,10.5h0.1l2.6-10.5h4.1l2.6,10.5h0.1l2.8-10.5
		h4.4L345,66.1H340.7z"/>
	<rect class="st0" width="2.1" height="85"/>
</g>
</svg>
