<?xml version="1.0" encoding="utf-8"?>
<!-- Generator: Adobe Illustrator 25.4.1, SVG Export Plug-In . SVG Version: 6.00 Build 0)  -->
<svg version="1.1" id="Layer_1" xmlns="http://www.w3.org/2000/svg" xmlns:xlink="http://www.w3.org/1999/xlink" x="0px" y="0px"
	 viewBox="0 0 715.97 257.75" style="enable-background:new 0 0 715.97 257.75;" xml:space="preserve">
<style type="text/css">
	.st0{fill:#FDFDFD;}
	.st1{fill:#231F20;}
	.st2{fill:#116CB3;}
</style>
<g>
	<path class="st0" d="M0.05,118.56C0.05,79.76,0.07,40.96,0,2.17C0,0.35,0.36,0,2.17,0C239.38,0.05,476.59,0.05,713.8,0
		c1.81,0,2.17,0.35,2.17,2.17c-0.06,84.38-0.06,168.77,0,253.15c0,1.98-0.45,2.43-2.43,2.43c-196.5-0.05-393-0.05-589.49-0.05
		c-0.03-19.83-0.07-39.66-0.05-59.49c0-1.7-0.23-2.6-2.26-2.47c-1.55,0.1-3.14-0.28-4.69-0.57c-15.48-2.89-28.52-10.09-38.82-22.04
		c-14.8-17.16-19.62-37.06-14.78-58.92c6.13-27.7,29.54-48.25,57.45-51.29c1.79-0.2,2.64-0.72,2.62-2.88
		c-0.23-18.94-0.34-37.88-0.4-56.82c-0.01-1.68-0.31-2.26-2.13-2.19c-6.34,0.26-12.65,0.99-18.81,2.37
		C73.89,9.72,49.99,23.55,31.05,45.6C15.13,64.14,5.25,85.48,1.53,109.66C1.08,112.63,1.31,115.72,0.05,118.56z M209.07,133.13
		c-2.02,0.17-5.3,0.51-8.59,0.68c-4.8,0.25-4.72,0.21-5.67,4.89c-0.38,1.9,0.1,2.56,2.02,2.61c3.87,0.1,7.73,0.35,11.59,0.54
		c-3.27,0.41-6.53,0.59-9.78,0.85c-4.57,0.36-4.51,0.4-5.68,4.69c-0.46,1.71-0.26,2.43,1.76,2.48c5.1,0.14,10.2,0.5,14.45,0.73
		c-3.86,0.71-8.6,0.89-13.32,1c-3.13,0.07-4.73,0.98-5.87,4.09c-0.89,2.43-0.26,2.61,1.7,2.73c4.37,0.27,8.73,0.59,13.09,0.89
		c-3.88,0.71-7.74,0.93-11.61,1.13c-5.4,0.28-7.14,1.51-8.58,6.22c7.12,0.46,14.2,0.91,21.29,1.36c-6.94,0.98-13.85,1.48-20.77,1.86
		c-3.67,0.2-5.39,1.38-6.9,5.22c9.05,0.55,18.07,1.1,27.08,1.65c-0.34,0.4-0.67,0.49-1.01,0.52c-9.15,0.57-18.3,1.22-27.45,1.63
		c-3.54,0.16-6,1.71-8.22,4.52c12.91,0.73,25.5,1.44,38.09,2.15c-14.82,1.38-29.62,2.16-44.41,2.96c-2.91,0.16-5.57,1.03-8.24,2.92
		c17.82,0.95,35.24,1.88,52.66,2.82c0,0.16,0.01,0.33,0.01,0.49c-23.24,1.41-46.47,2.82-69.71,4.23c0.01,0.1,0.02,0.2,0.03,0.31
		c22.28,1.21,44.57,2.42,66.85,3.62c-0.01,0.28-0.01,0.57-0.02,0.85c-22.11,1.28-44.22,2.56-66.33,3.85
		c-0.01,0.17-0.01,0.33-0.02,0.5c21.45,1.13,42.9,2.26,64.35,3.39c-0.01,0.36-0.01,0.71-0.02,1.07
		c-21.06,1.27-42.11,2.54-63.17,3.82c0.01,0.16,0.02,0.32,0.03,0.49c21.4,1.17,42.8,2.33,64.2,3.5c-0.01,0.29-0.01,0.59-0.02,0.88
		c-21.6,1.29-43.21,2.57-64.81,3.86c11.65,1.16,23.27,1.74,34.89,2.34c11.19,0.58,22.37,1.19,33.55,1.8c1.72,0.09,3.15-0.2,4.6-1.41
		c6.48-5.36,12.3-11.34,17.57-17.85c11.03-13.64,19.07-28.9,23.8-45.75c4.55-16.21,5.97-32.75,3.98-49.55
		c-1.55-13.07-4.9-25.65-10.26-37.64c-8.12-18.18-19.97-33.6-35.17-46.5c-1.87-1.59-3.7-2.35-6.18-2.17
		c-9.14,0.69-18.3,1.28-27.45,1.8c-13.45,0.76-26.9,1.43-40.35,2.15c-0.01,0.19-0.01,0.39-0.02,0.58
		c24.21,1.27,48.41,2.55,72.52,3.82c-24.01,2-48.2,2.75-72.29,4.93c21.66,1.17,43.32,2.33,64.99,3.5c-0.01,0.31-0.02,0.62-0.03,0.93
		c-21.33,1.27-42.66,2.54-64,3.81c0,0.21,0,0.42,0,0.63c22.66,1.18,45.32,2.35,67.98,3.53c0.01,0.2,0.01,0.4,0.02,0.59
		c-23.06,1.37-46.12,2.74-69.18,4.1c0.01,0.14,0.01,0.27,0.02,0.41c23.91,1.3,47.82,2.61,71.72,3.91c0.01,0.03,0.01,0.07,0.02,0.1
		c-18.44,1.11-36.88,2.23-55.75,3.37c4.25,3.35,8.81,2.74,13.13,2.98c14.44,0.81,28.89,1.49,43.33,2.22c0,0.05,0,0.11,0,0.16
		c-13.85,0.87-27.7,1.74-42.29,2.65c2.9,2.12,4.68,4.19,7.89,4.31c9.16,0.33,18.31,0.93,27.47,1.45c0.4,0.02,0.97-0.18,1.2,0.64
		c-8.89,0.59-17.72,1.18-27.33,1.82c2.54,1.76,3.11,4.77,6.07,5.05c3.32,0.31,6.67,0.36,10,0.57c5.37,0.35,10.73,0.74,16.1,1.1
		c0.06,0,0.13-0.1,0.19-0.15c-0.01,0.07-0.01,0.14-0.01,0.16c-8.25,0.72-16.56,0.71-24.67,1.74c1.25,4.44,3.86,6.55,8.37,5.72
		c0.24-0.04,0.51,0.14,0.77,0.16c5.47,0.52,10.99,0.3,14.85,1c-5.3,0.41-12.21,0.94-19.27,1.49c0.4,1.09,0.86,2.04,1.11,3.05
		c0.74,2.97,2.59,4.16,5.59,3.76c0.87-0.12,1.77-0.14,2.64-0.07c2.2,0.16,4.46-0.2,6.59,0.71c-3.42,0.42-6.84,0.6-10.25,0.85
		c-0.72,0.05-1.66-0.24-2.07,0.71c-0.75,1.78,1.95,6.08,3.9,6.25c2.82,0.24,5.69,0.02,8.9,0.7c-1.02,0.35-1.59,0.67-2.18,0.71
		c-1.67,0.1-3.35,0.07-5.03,0.11c-3.76,0.1-3.67,0.26-3.3,3.99c0.28,2.86,1.49,3.66,4.19,3.52c2.83-0.14,5.7-0.03,8.24,0.75
		c-2.76,0.16-5.75,0.5-8.72,0.46c-2.26-0.03-3.23,0.75-3.03,2.98c0.06,0.69,0.19,1.4,0.1,2.08c-0.2,1.7,0.43,2.27,2.18,2.31
		C201.94,132.6,206.14,132.95,209.07,133.13z M457.23,133.64c-0.92-0.49-0.89-0.96-1-1.38c-1.93-7.17-3.87-14.33-5.8-21.5
		c-0.34-1.27-0.46-2.52-2.36-2.48c-5.56,0.11-11.12,0.09-16.68,0.05c-1.33-0.01-1.59,0.51-1.59,1.72c0.03,15.33,0.03,30.67-0.01,46
		c0,1.22,0.29,1.72,1.6,1.68c2.73-0.08,5.47-0.08,8.21,0c1.42,0.04,1.81-0.51,1.79-1.86c-0.06-4.76-0.02-9.52-0.02-14.27
		c0-5.85,0-11.69,0-17.54c0.69,0.72,0.95,1.5,1.16,2.3c2.13,8.01,4.24,16.03,6.37,24.04c2.02,7.63,2.03,7.58,9.92,7.34
		c1.34-0.04,1.85-0.51,2.15-1.7c1.99-8.06,3.94-16.12,6.06-24.14c0.68-2.55,0.97-5.26,2.53-8.28c0,1.48,0,2.26,0,3.04
		c0,9.6,0,19.21,0.01,28.81c0,1.1-0.34,2.31,1.58,2.25c3.7-0.11,7.41-0.08,11.12,0c1.41,0.03,1.54-0.65,1.54-1.78
		c-0.02-15.24-0.04-30.49,0.02-45.73c0.01-1.57-0.54-1.92-2-1.9c-5.38,0.08-10.77,0.11-16.15-0.01c-1.62-0.04-2.14,0.7-2.45,2.02
		c-0.53,2.3-1.05,4.61-1.64,6.89C460.16,122.66,458.7,128.1,457.23,133.64z M404.38,85.46c-2.78-6.74-5.33-13.05-8-19.31
		c-0.66-1.54-0.73-2.39,1.02-3.28c5.23-2.67,7.16-7.31,6.84-12.92c-0.31-5.51-2.97-9.56-8.07-12c-2.34-1.12-4.82-1.76-7.3-1.8
		c-9-0.16-18-0.06-27-0.12c-1.31-0.01-1.63,0.46-1.63,1.69c0.03,15.33,0.05,30.66-0.01,45.98c-0.01,1.61,0.6,1.86,2.02,1.83
		c3.79-0.09,7.59-0.12,11.38,0c1.61,0.05,1.91-0.56,1.89-1.98c-0.07-4.76-0.07-9.51,0.03-14.27c0.02-0.88-0.98-2.61,1.08-2.54
		c1.61,0.05,3.58-1,4.5,1.72c1.72,5.13,3.81,10.14,5.74,15.2c0.34,0.9,0.57,1.83,1.87,1.82C393.84,85.45,398.93,85.46,404.38,85.46z
		 M401.38,157.7c-0.42-1.09-0.71-1.9-1.04-2.68c-2.31-5.56-4.6-11.14-6.96-16.68c-0.59-1.38-0.72-2.25,0.94-3.06
		c6.13-3,8.19-9.52,6.32-16.46c-1.75-6.44-6.72-10.04-14.31-10.25c-9.08-0.26-18.17-0.13-27.25-0.25c-1.51-0.02-1.91,0.44-1.91,1.93
		c0.05,15.24,0.05,30.47,0,45.71c0,1.36,0.34,1.82,1.76,1.78c3.88-0.1,7.77-0.13,11.64,0.01c1.69,0.06,2.06-0.48,2.03-2.07
		c-0.1-4.93-0.05-9.86-0.02-14.8c0.01-0.71-0.41-1.6,0.63-2.06c1.9-0.83,4.34,0.19,5.07,2.14c1.87,4.99,3.73,9.98,5.63,14.95
		c0.33,0.85,0.52,1.83,1.88,1.81C390.87,157.66,395.96,157.7,401.38,157.7z M671.34,60.66c0,7.58,0.04,15.15-0.03,22.73
		c-0.02,1.55,0.28,2.17,2.01,2.14c6-0.11,12,0.03,18-0.06c5.73-0.09,11.19-1.17,15.58-5.26c7.03-6.56,9.32-14.64,8.03-24.05
		c-1.55-11.36-10.89-19.92-22.36-20.06c-6.35-0.08-12.71,0.03-19.06-0.08c-1.74-0.03-2.23,0.45-2.21,2.19
		C671.39,45.69,671.34,53.17,671.34,60.66z M518.78,55.45c5.03,9.43,10.75,18.16,16.09,27.11c1.34,2.25,2.76,3.27,5.39,2.96
		c2.79-0.32,6.52,1.12,8.19-0.51c1.8-1.76,0.52-5.49,0.53-8.36c0.06-12.78-0.01-25.56,0.07-38.34c0.01-1.87-0.48-2.42-2.34-2.31
		c-2.73,0.16-5.47,0.1-8.21,0.02c-1.24-0.04-1.74,0.32-1.68,1.62c0.24,5.63-0.34,11.27,0.41,16.89c0.35,2.63,0.35,5.31,0.51,8.01
		c-1.14-0.03-1.24-0.87-1.57-1.41c-3.87-6.38-8.1-12.58-11.43-19.23c-2.37-4.73-5.31-6.83-10.54-5.9c-2.31,0.41-5.4-0.93-6.91,0.47
		c-1.68,1.56-0.54,4.68-0.56,7.11c-0.07,13.13,0.01,26.27-0.08,39.4c-0.01,1.97,0.51,2.66,2.5,2.55c2.64-0.15,5.3-0.1,7.94-0.02
		c1.36,0.04,1.84-0.36,1.83-1.78c-0.08-7.93-0.13-15.86-0.05-23.79C518.91,58.54,517.73,57.2,518.78,55.45z M442.82,80.73
		c1.34,1.38,0.98,3.86,2.59,4.51c1.52,0.61,3.46,0.14,5.21,0.26c1.55,0.11,1.92-0.56,1.91-2.01c-0.06-7.84-0.07-15.69,0.01-23.53
		c0.02-1.67-0.59-2.12-2.15-2.1c-5.03,0.06-10.06,0.03-15.09,0.03c-5.19,0-5.19,0-5.21,5.23c-0.01,5.11-0.01,5.08,5.05,5.15
		c1,0.01,2.44-0.58,2.94,0.4c0.64,1.26-0.35,2.51-1.15,3.56c-0.7,0.92-1.62,1.57-2.75,1.97c-4.55,1.64-9.04-0.97-10.19-6.25
		c-1.08-4.94-1.02-9.96,0.01-14.9c0.91-4.38,3.27-6.72,6.5-6.93c3.32-0.21,5.31,1.61,6.91,6.3c0.08,0.25,0.24,0.49,0.27,0.74
		c0.06,0.72,0.48,0.82,1.09,0.74c4.1-0.5,8.19-1.02,12.3-1.43c1.05-0.11,1.17-0.61,0.97-1.38c-0.89-3.41-2.08-6.7-4.56-9.31
		c-6.76-7.11-15.22-7.34-23.98-5.53c-4.82,0.99-8.56,3.98-11.24,8.08c-5.47,8.39-6.27,17.53-3.42,26.91
		c1.91,6.27,5.76,11.29,12.28,13.48C429.01,87.37,436.51,87.07,442.82,80.73z M331.32,35.41c-10.47,0.06-17.9,4.81-21.54,13.82
		c-1.64,4.06-1.96,8.32-1.97,12.66c-0.02,11.37,6.85,22.95,20.83,24.19c8.33,0.74,15.77-1.36,21.05-8.35
		c4.88-6.46,5.94-13.81,4.93-21.7C353,43.27,344.14,35.33,331.32,35.41z M599.49,35.41c-2.52-0.05-5.47,0.26-8.37,1.16
		c-8.89,2.76-13.47,11.69-10.4,20.19c1.9,5.26,6.41,7.25,11.11,8.78c3.73,1.22,7.66,1.81,11.48,2.76c1.7,0.42,2.82,1.63,2.84,3.37
		c0.02,1.49-1.18,2.3-2.55,2.66c-3.78,1-10.21,0.35-11.83-4.3c-0.42-1.19-1.18-1.29-2.26-1.08c-3.44,0.68-6.87,1.54-10.35,1.86
		c-2.3,0.21-1.87,1.29-1.36,2.54c1.44,3.57,3.6,6.59,6.81,8.82c7.73,5.36,22.39,5.39,30.11,0.04c9.01-6.25,9.26-18.99,0.44-24.65
		c-2.9-1.87-6.21-2.74-9.53-3.52c-2.81-0.66-5.68-1.08-8.46-1.84c-1.35-0.37-2.69-1.33-2.5-2.99c0.17-1.49,1.24-2.32,2.81-2.73
		c3.68-0.96,7.01-0.01,9.27,3.15c0.8,1.12,1.46,1.48,2.78,1.03c2.89-0.96,5.83-1.82,8.77-2.64c1.51-0.42,2.07-1.12,1.16-2.57
		c-0.42-0.67-0.77-1.38-1.23-2.01C613.69,37.25,607.29,35.29,599.49,35.41z M627.91,60.62c0,7.58,0,15.15,0,22.73
		c0,1.14-0.25,2.2,1.66,2.18c11.21-0.09,22.41-0.06,33.62-0.03c1.32,0,1.89-0.36,1.84-1.79c-0.1-2.64-0.11-5.29,0-7.93
		c0.07-1.63-0.51-2.15-2.13-2.12c-4.68,0.08-9.35,0.03-14.03,0.03c-6.43,0-6.37,0-6.19-6.34c0.04-1.46,0.53-1.74,1.84-1.72
		c4.76,0.07,9.53-0.03,14.29,0.06c1.52,0.03,2.01-0.46,1.94-1.95c-0.11-2.37-0.12-4.76,0-7.13c0.09-1.59-0.35-2.16-2.03-2.1
		c-3.61,0.13-7.23,0.04-10.85,0.04c-5.33,0-5.28,0-5.2-5.45c0.02-1.46,0.36-2,1.91-1.96c3.88,0.1,7.76,0.05,11.65,0.03
		c2.81-0.02,6.58,0.98,8.18-0.44c1.83-1.62,0.31-5.47,0.6-8.33c0.18-1.84-0.46-2.4-2.33-2.38c-10.85,0.08-21.71,0.09-32.56-0.01
		c-1.98-0.02-2.27,0.69-2.25,2.42C627.96,45.82,627.91,53.22,627.91,60.62z M491.82,132.91c0,7.58,0.02,15.16-0.02,22.73
		c-0.01,1.33,0.12,2.1,1.81,2.09c11.21-0.07,22.42-0.06,33.62,0c1.52,0.01,1.72-0.63,1.69-1.88c-0.07-2.64-0.11-5.29,0.01-7.93
		c0.07-1.51-0.43-1.92-1.92-1.9c-4.85,0.09-9.71,0.03-14.56,0.03c-5.93,0-5.85,0-5.88-5.95c-0.01-1.97,0.74-2.35,2.48-2.31
		c4.06,0.1,8.13-0.12,12.17,0.1c2.62,0.14,3.89-0.4,3.48-3.33c-0.26-1.9-0.13-3.87-0.02-5.81c0.08-1.39-0.37-1.81-1.78-1.77
		c-3.79,0.1-7.59,0.03-11.38,0.03c-4.93,0-4.83,0-4.94-4.8c-0.04-2,0.39-2.75,2.59-2.69c5.82,0.17,11.65-0.02,17.47,0.11
		c1.9,0.04,2.43-0.54,2.3-2.36c-0.16-2.1-0.17-4.24,0-6.34c0.16-2.02-0.41-2.67-2.57-2.65c-10.77,0.12-21.53,0.11-32.3,0
		c-1.98-0.02-2.31,0.66-2.29,2.41C491.87,118.1,491.82,125.51,491.82,132.91z M478.8,36.05c-1.94,0-3.9,0.17-5.82-0.05
		c-1.81-0.21-2.45,0.68-2.89,2.13c-2.56,8.42-5.14,16.84-7.72,25.26c-2.07,6.75-4.07,13.53-6.26,20.24
		c-0.57,1.73-0.09,1.96,1.44,1.91c2.38-0.08,4.77-0.18,7.13,0.01c2.29,0.18,3.49-0.45,3.97-2.89c0.47-2.34,0.92-5.4,2.53-6.59
		c1.55-1.15,4.57-0.32,6.95-0.36c0.71-0.01,1.43,0.11,2.11-0.02c3.12-0.59,4.69,0.62,4.97,3.83c0.13,1.45,0.94,2.83,1.17,4.29
		c0.24,1.51,1.03,1.76,2.37,1.73c3.7-0.08,7.42-0.15,11.11,0.02c2.32,0.11,2.31-0.72,1.73-2.54c-4.65-14.73-9.26-29.47-13.77-44.24
		c-0.64-2.08-1.49-3.05-3.76-2.76C482.35,36.23,480.57,36.05,478.8,36.05z M323.24,132.54c-0.15-2.5,0.03-6.1,1.3-9.52
		c0.94-2.55,2.63-4.42,5.59-4.43c2.91-0.01,4.72,1.64,5.81,4.21c0.38,0.9,0.67,1.81,0.66,2.8c-0.03,1.91,0.74,2.85,2.81,2.5
		c3.22-0.55,6.49-0.65,9.75-0.53c1.76,0.07,1.79-0.78,1.55-2.12c-1.76-9.99-7.2-16.77-18.12-17.69
		c-10.79-0.91-19.61,3.62-23.14,14.05c-1.81,5.34-2.11,10.8-1.59,16.39c1.08,11.61,9.15,19.54,20.77,20.23
		c11.58,0.69,19.95-5.74,22.09-16.96c0.21-1.12,0.2-1.76-1.3-1.78c-3.16-0.03-6.32-0.41-9.48-0.62c-2.31-0.15-2.94,0.62-3.41,2.64
		c-0.87,3.76-3.09,5.49-6.39,5.46c-3.08-0.03-5.4-2.18-6.33-5.66C323.13,138.91,323.31,136.28,323.24,132.54z M578.24,205.47
		c0,7.23,0.09,14.45-0.05,21.68c-0.04,2.32,0.46,3.52,2.99,3.04c0.34-0.06,0.71-0.06,1.06-0.01c1.92,0.33,2.34-0.56,2.3-2.35
		c-0.12-5.29,0.07-10.58-0.1-15.86c-0.08-2.61,0.74-3.69,3.43-3.51c2.55,0.17,5.13,0.17,7.67,0c2-0.13,3.04,0.64,3.78,2.44
		c2.19,5.35,4.72,10.58,6.71,16.01c1.01,2.74,2.45,3.46,5.2,3.38c2.65-0.08,2.54-0.87,1.65-2.85c-2.58-5.76-5.03-11.57-7.44-17.4
		c-0.54-1.3-1.65-2.73,0.76-3.8c5.78-2.58,7.95-8.99,7.17-13.75c-1.03-6.34-5.57-10.67-11.72-11.53c-6.85-0.96-13.74-0.14-20.6-0.48
		c-2.2-0.11-2.89,0.57-2.85,2.78C578.32,190.67,578.24,198.07,578.24,205.47z M568.59,203.77c0.01-5.75-1.4-10.79-4.69-15.74
		c-6.55-9.87-21.62-11.07-29.28-2.34c-8.58,9.78-9.05,28.02-0.98,38.27c7.27,9.24,22.06,9.12,29.1-0.28
		C566.94,218.08,568.7,211.67,568.59,203.77z M468.42,229.87c-0.06-0.24-0.08-0.51-0.2-0.72c-4.34-8.21-8.29-16.67-13.18-24.54
		c-3.19-5.13-2.94-8.77,1.22-12.99c3.15-3.2,5.59-7.1,8.34-10.68c-2.73,0.16-5.47-1.61-7.56,1.15
		c-5.74,7.56-11.59,15.04-17.41,22.53c-0.98,1.26-1.94,2.56-3.55,3.71c0-8.58-0.08-16.77,0.05-24.96c0.04-2.4-0.77-3.05-3.06-2.9
		c-1.94,0.12-3.4-0.21-3.37,2.75c0.18,14.36,0.08,28.72,0.08,43.08c0,3.96,0,3.85,3.89,3.93c1.88,0.04,2.48-0.58,2.42-2.4
		c-0.11-2.99,0.05-5.99-0.06-8.98c-0.06-1.61,0.48-2.84,1.49-4.05c2.59-3.11,5.09-6.29,7.61-9.45c2-2.51,2.17-2.52,3.65,0.19
		c3.61,6.62,7.52,13.1,10.68,19.92C461.39,229.66,463.89,231.19,468.42,229.87z M402.74,230.75c2.2,0.19,5.17-0.39,8.1-1.53
		c6.24-2.43,9.63-7.49,9.38-14.31c-0.19-5.29-4.18-9.82-10.16-11.73c-4.93-1.57-10.07-2.29-14.97-3.98
		c-3.05-1.05-4.69-3.13-4.92-6.14c-0.21-2.84,1.26-5.06,3.69-6.54c6.94-4.22,16.81-0.63,18.65,5.34c0.36,1.16,1.01,1.48,2.13,1.14
		c4.8-1.43,4.22-0.76,2.21-4.93c-0.38-0.78-0.98-1.46-1.55-2.13c-4.78-5.64-11.16-6.77-17.98-5.88c-5.46,0.71-10.17,3.07-12.35,8.6
		c-2.8,7.11,0.87,14.36,8.61,16.81c4.84,1.53,9.81,2.63,14.69,4.05c3.2,0.93,5.41,3.68,5.62,6.62c0.23,3.22-1.65,6.47-4.71,7.88
		c-3.63,1.68-7.46,1.88-11.32,1.05c-4.66-1-8.14-3.52-10.08-8c-0.59-1.37-3.29-1.63-5.08-0.53c-1.42,0.87-0.29,1.91,0.08,2.71
		C386.51,227.36,393.08,230.86,402.74,230.75z M572.38,60.62c0-7.49-0.03-14.97,0.03-22.46c0.01-1.48-0.17-2.23-1.96-2.16
		c-3.7,0.15-7.41,0.11-11.11,0.01c-1.48-0.04-1.94,0.4-1.93,1.9c0.05,15.24,0.05,30.47-0.01,45.71c-0.01,1.57,0.53,1.92,1.99,1.88
		c3.61-0.09,7.23-0.13,10.83,0.02c1.78,0.08,2.21-0.47,2.19-2.18C572.33,75.77,572.38,68.2,572.38,60.62z M406.99,132.83
		c0,7.57,0.05,15.14-0.04,22.71c-0.02,1.73,0.44,2.26,2.2,2.2c3.61-0.14,7.23-0.09,10.84-0.01c1.37,0.03,2.07-0.19,2.06-1.82
		c-0.05-15.31-0.03-30.63,0-45.94c0-1.23-0.41-1.66-1.68-1.64c-3.79,0.07-7.58,0.1-11.37-0.02c-1.64-0.05-2.07,0.46-2.05,2.08
		C407.04,117.87,406.99,125.35,406.99,132.83z M668.27,205.41c0,7.49,0.06,14.99-0.04,22.48c-0.03,1.86,0.49,2.36,2.35,2.34
		c9.09-0.1,18.19-0.1,27.28-0.01c1.95,0.02,2.71-0.49,2.61-2.5c-0.09-1.71,0.02-2.89-2.43-2.98c-7.15-0.26-14.29-0.09-21.44-0.14
		c-1.55-0.01-2.16-0.38-2.12-2.06c0.11-4.49,0.15-9-0.01-13.49c-0.08-2.2,0.82-2.72,2.79-2.69c4.94,0.08,9.89-0.01,14.83,0.04
		c1.49,0.02,2.68-0.09,2.47-2.04c-0.16-1.45,0.08-2.9-2.32-2.81c-5.2,0.19-10.41,0.02-15.62,0.08c-1.54,0.02-2.19-0.42-2.14-2.1
		c0.12-3.61,0.18-7.24-0.03-10.84c-0.13-2.29,0.68-2.81,2.82-2.77c6.62,0.12,13.24-0.01,19.87,0.07c2.51,0.03,2.36-1.5,2.44-3.26
		c0.09-2-0.83-2.27-2.54-2.25c-8.74,0.07-17.48,0.11-26.22-0.03c-2.22-0.03-2.62,0.74-2.6,2.73
		C668.32,190.6,668.26,198,668.27,205.41z M374.48,230.19c3.84-0.02,3.84-0.02,2.73-3.43c-4.74-14.58-9.59-29.12-14.13-43.76
		c-1.04-3.37-3.33-2.18-5.37-2.51c-2.26-0.37-3.03,0.8-3.63,2.71c-2.75,8.68-5.63,17.32-8.43,25.99
		c-2.04,6.33-4.01,12.68-6.02,19.03c-0.19,0.62-0.87,1.26-0.07,1.85c1.31,0.97,4.58-0.22,5.1-1.86c1.09-3.42,2.23-6.82,3.16-10.28
		c0.45-1.66,1.2-2.26,2.93-2.22c4.68,0.11,9.36,0.12,14.04-0.01c1.79-0.05,2.51,0.73,3,2.24c1.06,3.25,2.3,6.44,3.27,9.71
		C371.64,229.65,372.6,230.7,374.48,230.19z M640.34,230.75c8.31,0.04,14.3-4.25,17.33-12.44c1.4-3.78,1.05-4.15-2.98-4.59
		c-2.22-0.24-1.92,1.48-2.3,2.47c-1.94,4.96-4.76,8.88-10.6,9.26c-6.45,0.41-11.19-3.32-13.28-10.1c-1.62-5.25-1.7-10.63-0.97-15.95
		c0.66-4.84,2.28-9.51,6.57-12.46c6.53-4.48,14.22-1.63,17.75,6.38c1.45,3.28,2.42,3.65,5.86,2.49c0.96-0.32,1.04-0.8,0.81-1.56
		c-2.11-6.84-5.74-12.42-13.27-13.93c-7.25-1.45-13.76,0.11-18.92,5.86c-7.8,8.68-7.44,25.92-1.91,35.07
		C628.04,227.25,633.13,230.78,640.34,230.75z M496.03,205.2c0,7.49-0.01,14.97,0.02,22.46c0,0.82-0.4,1.83,0.56,2.41
		c2.4,1.43,5.57-0.29,5.58-3.05c0.03-5.72,0-11.45,0-17.17c0-3.44,0.01-3.44,3.58-3.44c4.76,0,9.53-0.11,14.29,0.05
		c2.08,0.07,2.35-0.99,2.32-2.55c-0.03-1.47-0.34-2.39-2.27-2.33c-5.2,0.16-10.41,0.02-15.61,0.07c-1.6,0.01-2.41-0.38-2.35-2.23
		c0.13-3.78,0.12-7.57,0.01-11.36c-0.05-1.65,0.56-2.13,2.13-2.11c4.59,0.07,9.17,0.06,13.76,0.03c2.29-0.02,4.57-0.19,6.86-0.21
		c1.81-0.01,1.37-1.34,1.28-2.25c-0.1-1.05,0.82-2.9-1.11-2.94c-5.9-0.11-11.8,0.01-17.7,0.09c-3.09,0.04-6.26,0.65-9.24,0.14
		c-2.3-0.39-2.11,0.5-2.11,1.92C496.04,190.23,496.04,197.71,496.03,205.2z M320.72,208.08c0,6.61-0.01,13.21,0.01,19.82
		c0,0.74-0.34,1.93,0.58,2.08c1.63,0.26,3.42,0.43,4.96-0.01c1.29-0.36,0.62-2.01,0.63-3.06c0.04-12.77,0.07-25.55-0.02-38.32
		c-0.01-1.96,0.48-2.61,2.49-2.51c3.17,0.17,6.36-0.08,9.52,0.08c2.34,0.12,2.3-1.23,2.26-2.85c-0.04-1.54,0.17-2.87-2.24-2.84
		c-9.97,0.13-19.94,0.11-29.91,0c-2.05-0.02-2.37,0.83-2.19,2.48c0.15,1.44-0.63,3.34,2.11,3.2c2.9-0.15,5.83,0.1,8.73-0.08
		c2.31-0.14,3.2,0.42,3.12,2.98C320.58,195.39,320.72,201.74,320.72,208.08z M137.21,233.97c0,0.11,0.01,0.22,0.01,0.32
		c6.85,0.4,13.69,0.83,20.54,1.18c11.61,0.6,23.28,0.61,34.81,1.9c7.34,0.83,10.76-4.16,15.42-7.59
		C184.39,231.18,160.8,232.57,137.21,233.97z M206.41,27.86c-2.07-2.69-4.8-4.25-7.31-6.12c-1.73-1.29-3.51-1.62-5.65-1.48
		c-14.96,0.96-29.93,1.69-44.87,2.74c-3.71,0.26-7.53-0.09-11.79,1.15C160.42,25.41,183.42,26.63,206.41,27.86z M193.61,240.12
		c-0.04-0.25-0.09-0.51-0.13-0.76c-18.44,1.1-36.87,2.2-55.31,3.3c3.54,0.73,7.04,0.99,10.54,1.18c9.76,0.51,19.55,0.66,29.26,1.6
		C184.29,246.04,188.74,242.81,193.61,240.12z M191.91,18.22c-2.72-2.5-5.76-4.16-8.99-5.47c-0.75-0.3-1.49-0.47-2.31-0.42
		c-10.04,0.55-20.07,1.05-30.11,1.64c-5.2,0.31-10.39,0.76-15.59,1.14c0,0.08,0,0.16-0.01,0.24
		C153.91,16.31,172.91,17.27,191.91,18.22z M138.88,251.56c5.55,0.39,11.52,0.78,17.48,1.23c5.3,0.4,10.36-0.31,15.25-2.94
		C160.41,249.91,149.48,251.39,138.88,251.56z M169.31,8.03C160.25,3,151.24,6.14,142.4,6.02c-0.01,0.24-0.02,0.47-0.04,0.71
		C151.18,7.15,160.01,7.58,169.31,8.03z"/>
	<path class="st1" d="M0.05,118.56c1.26-2.83,1.03-5.93,1.48-8.89c3.71-24.18,13.6-45.52,29.52-64.06
		C49.99,23.55,73.89,9.72,102.17,3.4c6.16-1.38,12.47-2.11,18.81-2.37c1.82-0.08,2.12,0.51,2.13,2.19
		c0.06,18.94,0.17,37.88,0.4,56.82c0.03,2.15-0.82,2.68-2.62,2.88c-27.9,3.04-51.31,23.59-57.45,51.29
		c-4.84,21.87-0.02,41.76,14.78,58.92c10.31,11.95,23.35,19.15,38.82,22.04c1.55,0.29,3.15,0.67,4.69,0.57
		c2.03-0.13,2.26,0.77,2.26,2.47c-0.02,19.83,0.02,39.66,0.05,59.49c-2.12,0-4.24,0-6.36,0c-0.11-0.41-0.42-0.48-0.79-0.51
		c-10.68-0.99-21.07-3.16-31.21-6.76c-24.64-8.76-44.69-23.7-60.31-44.53C12.6,188.86,4.59,169.76,1.51,148.63
		c-0.46-3.15-0.32-6.4-1.46-9.44C0.05,132.31,0.05,125.44,0.05,118.56z"/>
	<path class="st0" d="M0.05,139.19c1.14,3.04,1,6.29,1.46,9.44c3.08,21.13,11.09,40.23,23.86,57.27
		c15.61,20.82,35.66,35.76,60.31,44.53c10.14,3.6,20.53,5.77,31.21,6.76c0.37,0.03,0.68,0.11,0.79,0.51
		c-38.5,0-77.01-0.02-115.51,0.05c-1.81,0-2.17-0.36-2.17-2.17C0.07,216.79,0.05,177.99,0.05,139.19z"/>
	<path class="st2" d="M209.07,133.13c-2.93-0.18-7.13-0.53-11.33-0.64c-1.76-0.05-2.39-0.61-2.18-2.31c0.08-0.68-0.04-1.39-0.1-2.08
		c-0.2-2.23,0.77-3.02,3.03-2.98c2.98,0.05,5.96-0.29,8.72-0.46c-2.53-0.77-5.41-0.89-8.24-0.75c-2.7,0.14-3.91-0.66-4.19-3.52
		c-0.37-3.72-0.46-3.89,3.3-3.99c1.68-0.04,3.36-0.01,5.03-0.11c0.59-0.04,1.16-0.36,2.18-0.71c-3.21-0.68-6.08-0.46-8.9-0.7
		c-1.95-0.17-4.65-4.47-3.9-6.25c0.41-0.96,1.35-0.66,2.07-0.71c3.41-0.25,6.83-0.43,10.25-0.85c-2.13-0.91-4.39-0.55-6.59-0.71
		c-0.88-0.07-1.77-0.04-2.64,0.07c-3,0.4-4.85-0.79-5.59-3.76c-0.25-1-0.71-1.96-1.11-3.05c7.06-0.54,13.96-1.08,19.27-1.49
		c-3.85-0.7-9.37-0.48-14.85-1c-0.26-0.02-0.53-0.2-0.77-0.16c-4.51,0.83-7.12-1.29-8.37-5.72c8.11-1.03,16.42-1.01,24.67-1.74
		c0-0.02,0.01-0.09,0.01-0.16c-0.06,0.05-0.13,0.15-0.19,0.15c-5.37-0.37-10.73-0.76-16.1-1.1c-3.33-0.22-6.68-0.27-10-0.57
		c-2.97-0.27-3.53-3.29-6.07-5.05c9.61-0.64,18.44-1.23,27.33-1.82c-0.23-0.82-0.8-0.62-1.2-0.64c-9.15-0.51-18.31-1.12-27.47-1.45
		c-3.21-0.11-4.99-2.19-7.89-4.31c14.59-0.91,28.44-1.78,42.29-2.65c0-0.05,0-0.11,0-0.16c-14.44-0.73-28.89-1.41-43.33-2.22
		c-4.33-0.24-8.89,0.37-13.13-2.98c18.86-1.14,37.31-2.25,55.75-3.37c-0.01-0.03-0.01-0.07-0.02-0.1
		c-23.91-1.3-47.82-2.61-71.72-3.91c-0.01-0.14-0.01-0.27-0.02-0.41c23.06-1.37,46.12-2.74,69.18-4.1c-0.01-0.2-0.01-0.4-0.02-0.59
		c-22.66-1.18-45.32-2.35-67.98-3.53c0-0.21,0-0.42,0-0.63c21.33-1.27,42.66-2.54,64-3.81c0.01-0.31,0.02-0.62,0.03-0.93
		c-21.66-1.17-43.32-2.33-64.99-3.5c24.09-2.18,48.29-2.93,72.29-4.93c-24.11-1.27-48.31-2.54-72.52-3.82
		c0.01-0.19,0.01-0.39,0.02-0.58c13.45-0.71,26.9-1.38,40.35-2.15c9.15-0.52,18.31-1.11,27.45-1.8c2.48-0.19,4.31,0.58,6.18,2.17
		c15.2,12.89,27.05,28.32,35.17,46.5c5.35,11.99,8.71,24.57,10.26,37.64c1.99,16.8,0.57,33.34-3.98,49.55
		c-4.73,16.85-12.77,32.11-23.8,45.75c-5.27,6.52-11.09,12.5-17.57,17.85c-1.45,1.2-2.89,1.5-4.6,1.41
		c-11.18-0.61-22.37-1.21-33.55-1.8c-11.62-0.61-23.24-1.19-34.89-2.34c21.6-1.29,43.21-2.57,64.81-3.86
		c0.01-0.29,0.01-0.59,0.02-0.88c-21.4-1.17-42.8-2.33-64.2-3.5c-0.01-0.16-0.02-0.32-0.03-0.49c21.06-1.27,42.11-2.54,63.17-3.82
		c0.01-0.36,0.01-0.71,0.02-1.07c-21.45-1.13-42.9-2.26-64.35-3.39c0.01-0.17,0.01-0.33,0.02-0.5c22.11-1.28,44.22-2.56,66.33-3.85
		c0.01-0.28,0.01-0.57,0.02-0.85c-22.28-1.21-44.57-2.42-66.85-3.62c-0.01-0.1-0.02-0.2-0.03-0.31c23.24-1.41,46.47-2.82,69.71-4.23
		c0-0.16-0.01-0.33-0.01-0.49c-17.42-0.93-34.85-1.86-52.66-2.82c2.67-1.88,5.33-2.76,8.24-2.92c14.79-0.8,29.59-1.58,44.41-2.96
		c-12.59-0.71-25.18-1.42-38.09-2.15c2.22-2.81,4.68-4.37,8.22-4.52c9.16-0.41,18.3-1.07,27.45-1.63c0.34-0.02,0.67-0.11,1.01-0.52
		c-9.01-0.55-18.02-1.1-27.08-1.65c1.5-3.84,3.22-5.02,6.9-5.22c6.92-0.38,13.83-0.88,20.77-1.86c-7.09-0.45-14.17-0.91-21.29-1.36
		c1.44-4.71,3.18-5.94,8.58-6.22c3.86-0.2,7.73-0.42,11.61-1.13c-4.36-0.3-8.73-0.63-13.09-0.89c-1.96-0.12-2.58-0.3-1.7-2.73
		c1.13-3.11,2.73-4.02,5.87-4.09c4.72-0.11,9.47-0.29,13.32-1c-4.25-0.23-9.35-0.59-14.45-0.73c-2.02-0.05-2.23-0.77-1.76-2.48
		c1.17-4.29,1.11-4.33,5.68-4.69c3.25-0.26,6.51-0.43,9.78-0.85c-3.86-0.19-7.73-0.44-11.59-0.54c-1.92-0.05-2.41-0.71-2.02-2.61
		c0.95-4.68,0.86-4.64,5.67-4.89C203.77,133.64,207.05,133.29,209.07,133.13z M203.05,212.36c0.4-0.04,0.81,0.04,0.83-0.41
		c0-0.09-0.43-0.27-0.66-0.27c-0.23,0-0.45,0.19-0.68,0.29C202.73,212.12,202.91,212.26,203.05,212.36z"/>
	<path class="st1" d="M457.23,133.64c1.47-5.54,2.94-10.98,4.36-16.42c0.6-2.29,1.11-4.59,1.64-6.89c0.3-1.31,0.82-2.05,2.45-2.02
		c5.38,0.12,10.77,0.08,16.15,0.01c1.46-0.02,2,0.34,2,1.9c-0.05,15.24-0.04,30.49-0.02,45.73c0,1.13-0.13,1.81-1.54,1.78
		c-3.7-0.08-7.42-0.11-11.12,0c-1.92,0.06-1.58-1.15-1.58-2.25c0-9.6,0-19.21-0.01-28.81c0-0.78,0-1.56,0-3.04
		c-1.56,3.02-1.86,5.72-2.53,8.28c-2.12,8.02-4.08,16.08-6.06,24.14c-0.29,1.19-0.81,1.66-2.15,1.7c-7.89,0.24-7.89,0.29-9.92-7.34
		c-2.13-8.01-4.24-16.03-6.37-24.04c-0.21-0.8-0.47-1.58-1.16-2.3c0,5.85,0,11.69,0,17.54c0,4.76-0.04,9.52,0.02,14.27
		c0.02,1.35-0.37,1.9-1.79,1.86c-2.73-0.08-5.47-0.09-8.21,0c-1.31,0.04-1.61-0.46-1.6-1.68c0.04-15.33,0.04-30.67,0.01-46
		c0-1.2,0.25-1.73,1.59-1.72c5.56,0.05,11.12,0.06,16.68-0.05c1.9-0.04,2.02,1.21,2.36,2.48c1.93,7.17,3.87,14.33,5.8,21.5
		C456.34,132.68,456.31,133.15,457.23,133.64z"/>
	<path class="st1" d="M404.38,85.46c-5.44,0-10.54-0.02-15.64,0.01c-1.29,0.01-1.52-0.92-1.87-1.82c-1.93-5.06-4.02-10.07-5.74-15.2
		c-0.91-2.72-2.88-1.67-4.5-1.72c-2.06-0.07-1.06,1.66-1.08,2.54c-0.1,4.75-0.1,9.51-0.03,14.27c0.02,1.42-0.29,2.03-1.89,1.98
		c-3.79-0.12-7.59-0.1-11.38,0c-1.42,0.04-2.02-0.22-2.02-1.83c0.05-15.33,0.04-30.66,0.01-45.98c0-1.23,0.32-1.69,1.63-1.69
		c9,0.06,18-0.04,27,0.12c2.49,0.05,4.96,0.68,7.3,1.8c5.1,2.44,7.75,6.49,8.07,12c0.32,5.6-1.61,10.24-6.84,12.92
		c-1.74,0.89-1.68,1.74-1.02,3.28C399.05,72.42,401.6,78.73,404.38,85.46z M375.57,51.41c0,1.15,0.03,2.29-0.01,3.44
		c-0.03,0.86,0.27,1.31,1.2,1.27c2.72-0.11,5.46,0.26,8.15-0.5c2.36-0.66,3.62-2.16,3.48-4.6c-0.14-2.41-1.54-3.91-3.89-4.34
		c-1.29-0.23-2.64-0.16-3.96-0.17C375.56,46.5,375.56,46.51,375.57,51.41z"/>
	<path class="st1" d="M401.38,157.7c-5.41,0-10.5-0.04-15.59,0.02c-1.36,0.02-1.55-0.96-1.88-1.81c-1.9-4.98-3.76-9.97-5.63-14.95
		c-0.73-1.95-3.17-2.97-5.07-2.14c-1.04,0.45-0.62,1.35-0.63,2.06c-0.04,4.93-0.08,9.87,0.02,14.8c0.03,1.59-0.34,2.13-2.03,2.07
		c-3.88-0.14-7.76-0.1-11.64-0.01c-1.41,0.04-1.76-0.42-1.76-1.78c0.04-15.24,0.05-30.47,0-45.71c-0.01-1.49,0.4-1.95,1.91-1.93
		c9.08,0.12,18.17,0,27.25,0.25c7.59,0.21,12.57,3.81,14.31,10.25c1.88,6.93-0.18,13.46-6.32,16.46c-1.65,0.81-1.52,1.68-0.94,3.06
		c2.36,5.54,4.65,11.12,6.96,16.68C400.67,155.8,400.96,156.61,401.38,157.7z M377.15,128.25c1.58-0.11,3.19-0.04,4.72-0.38
		c2.56-0.57,3.83-2.37,3.65-4.7c-0.18-2.34-1.73-3.95-4.27-4.25c-1.3-0.15-2.64-0.1-3.95-0.1c-4.73,0-4.73,0-4.73,4.65
		C372.56,128.16,372.56,128.16,377.15,128.25z"/>
	<path class="st1" d="M671.34,60.66c0-7.49,0.05-14.98-0.04-22.46c-0.02-1.74,0.47-2.22,2.21-2.19c6.35,0.11,12.71,0,19.06,0.08
		c11.47,0.14,20.81,8.71,22.36,20.06c1.29,9.41-1,17.5-8.03,24.05c-4.39,4.09-9.85,5.17-15.58,5.26c-6,0.09-12-0.05-18,0.06
		c-1.73,0.03-2.02-0.59-2.01-2.14C671.38,75.82,671.34,68.24,671.34,60.66z M686.34,60.62c0,3.88-0.01,7.75,0.01,11.63
		c0,0.82-0.25,1.71,1.11,1.97c4.02,0.75,7.67-0.76,9.69-4.37c2.82-5.05,3.02-10.38,1.23-15.78c-1.79-5.38-4.4-7.02-10.04-6.97
		c-1.7,0.01-2.07,0.6-2.03,2.15C686.4,53.04,686.34,56.83,686.34,60.62z"/>
	<path class="st1" d="M518.78,55.45c-1.05,1.75,0.13,3.09,0.11,4.49c-0.08,7.93-0.04,15.86,0.05,23.79
		c0.01,1.42-0.47,1.82-1.83,1.78c-2.65-0.08-5.3-0.13-7.94,0.02c-1.99,0.11-2.51-0.58-2.5-2.55c0.09-13.13,0.01-26.27,0.08-39.4
		c0.01-2.43-1.12-5.55,0.56-7.11c1.51-1.41,4.59-0.06,6.91-0.47c5.24-0.93,8.17,1.18,10.54,5.9c3.34,6.65,7.57,12.85,11.43,19.23
		c0.33,0.55,0.43,1.38,1.57,1.41c-0.16-2.7-0.16-5.38-0.51-8.01c-0.75-5.63-0.18-11.26-0.41-16.89c-0.05-1.3,0.45-1.65,1.68-1.62
		c2.73,0.08,5.48,0.15,8.21-0.02c1.86-0.11,2.35,0.44,2.34,2.31c-0.09,12.78-0.01,25.56-0.07,38.34c-0.01,2.87,1.27,6.6-0.53,8.36
		c-1.67,1.63-5.4,0.19-8.19,0.51c-2.63,0.3-4.05-0.72-5.39-2.96C529.53,73.61,523.82,64.88,518.78,55.45z"/>
	<path class="st1" d="M442.82,80.73c-6.31,6.34-13.81,6.64-21.71,3.99c-6.52-2.19-10.37-7.21-12.28-13.48
		c-2.85-9.37-2.05-18.52,3.42-26.91c2.68-4.1,6.42-7.09,11.24-8.08c8.76-1.81,17.22-1.58,23.98,5.53c2.48,2.61,3.67,5.91,4.56,9.31
		c0.2,0.77,0.08,1.28-0.97,1.38c-4.11,0.42-8.2,0.94-12.3,1.43c-0.61,0.07-1.03-0.02-1.09-0.74c-0.02-0.25-0.18-0.49-0.27-0.74
		c-1.6-4.7-3.59-6.52-6.91-6.3c-3.22,0.2-5.58,2.54-6.5,6.93c-1.03,4.94-1.09,9.96-0.01,14.9c1.16,5.28,5.64,7.89,10.19,6.25
		c1.13-0.41,2.05-1.05,2.75-1.97c0.8-1.05,1.79-2.3,1.15-3.56c-0.5-0.98-1.94-0.39-2.94-0.4c-5.06-0.06-5.06-0.04-5.05-5.15
		c0.01-5.24,0.01-5.24,5.21-5.23c5.03,0,10.06,0.04,15.09-0.03c1.56-0.02,2.16,0.44,2.15,2.1c-0.08,7.84-0.07,15.69-0.01,23.53
		c0.01,1.45-0.35,2.12-1.91,2.01c-1.75-0.12-3.69,0.35-5.21-0.26C443.8,84.59,444.16,82.11,442.82,80.73z"/>
	<path class="st1" d="M331.32,35.41c12.82-0.08,21.68,7.86,23.31,20.61c1.01,7.89-0.05,15.25-4.93,21.7
		c-5.29,6.99-12.72,9.09-21.05,8.35c-13.98-1.24-20.85-12.82-20.83-24.19c0.01-4.34,0.33-8.6,1.97-12.66
		C313.42,40.22,320.85,35.47,331.32,35.41z M338.66,61.34c0.13-4.02-0.06-7.86-1.93-11.4c-1.15-2.18-2.87-3.46-5.47-3.44
		c-2.62,0.02-4.4,1.35-5.32,3.6c-2.82,6.85-2.85,13.85-0.4,20.8c0.93,2.62,2.97,4.03,5.9,4c2.94-0.03,4.7-1.56,5.82-4.13
		C338.59,67.68,338.82,64.48,338.66,61.34z"/>
	<path class="st1" d="M599.49,35.41c7.8-0.12,14.2,1.84,18.73,8.03c0.46,0.63,0.82,1.34,1.23,2.01c0.91,1.45,0.34,2.15-1.16,2.57
		c-2.94,0.82-5.87,1.68-8.77,2.64c-1.32,0.44-1.97,0.09-2.78-1.03c-2.26-3.16-5.6-4.11-9.27-3.15c-1.57,0.41-2.64,1.24-2.81,2.73
		c-0.19,1.66,1.16,2.62,2.5,2.99c2.78,0.76,5.65,1.18,8.46,1.84c3.32,0.78,6.63,1.65,9.53,3.52c8.81,5.67,8.57,18.4-0.44,24.65
		c-7.72,5.36-22.38,5.32-30.11-0.04c-3.21-2.23-5.38-5.25-6.81-8.82c-0.5-1.25-0.94-2.33,1.36-2.54c3.48-0.32,6.91-1.18,10.35-1.86
		c1.08-0.21,1.85-0.11,2.26,1.08c1.62,4.65,8.05,5.3,11.83,4.3c1.36-0.36,2.56-1.17,2.55-2.66c-0.02-1.74-1.14-2.95-2.84-3.37
		c-3.82-0.95-7.75-1.54-11.48-2.76c-4.7-1.54-9.2-3.53-11.11-8.78c-3.08-8.5,1.5-17.43,10.4-20.19
		C594.02,35.67,596.96,35.37,599.49,35.41z"/>
	<path class="st1" d="M627.91,60.62c0-7.4,0.05-14.8-0.04-22.2c-0.02-1.73,0.27-2.44,2.25-2.42c10.85,0.1,21.71,0.09,32.56,0.01
		c1.88-0.01,2.52,0.54,2.33,2.38c-0.29,2.86,1.24,6.71-0.6,8.33c-1.6,1.42-5.37,0.42-8.18,0.44c-3.88,0.03-7.77,0.08-11.65-0.03
		c-1.55-0.04-1.89,0.5-1.91,1.96c-0.08,5.45-0.13,5.45,5.2,5.45c3.62,0,7.24,0.09,10.85-0.04c1.69-0.06,2.12,0.51,2.03,2.1
		c-0.13,2.37-0.11,4.76,0,7.13c0.07,1.49-0.42,1.98-1.94,1.95c-4.76-0.09-9.53,0.01-14.29-0.06c-1.32-0.02-1.8,0.26-1.84,1.72
		c-0.18,6.34-0.24,6.34,6.19,6.34c4.68,0,9.35,0.05,14.03-0.03c1.61-0.03,2.2,0.49,2.13,2.12c-0.11,2.64-0.1,5.29,0,7.93
		c0.06,1.43-0.51,1.79-1.84,1.79c-11.21-0.03-22.41-0.06-33.62,0.03c-1.91,0.02-1.66-1.04-1.66-2.18
		C627.91,75.78,627.91,68.2,627.91,60.62z"/>
	<path class="st1" d="M491.82,132.91c0-7.4,0.05-14.8-0.04-22.21c-0.02-1.75,0.3-2.43,2.29-2.41c10.77,0.11,21.53,0.12,32.3,0
		c2.15-0.02,2.73,0.62,2.57,2.65c-0.17,2.1-0.16,4.24,0,6.34c0.14,1.82-0.4,2.41-2.3,2.36c-5.82-0.13-11.65,0.06-17.47-0.11
		c-2.2-0.06-2.63,0.69-2.59,2.69c0.11,4.8,0.01,4.8,4.94,4.8c3.79,0,7.59,0.07,11.38-0.03c1.41-0.04,1.86,0.38,1.78,1.77
		c-0.11,1.93-0.24,3.91,0.02,5.81c0.41,2.93-0.86,3.47-3.48,3.33c-4.05-0.22-8.12,0-12.17-0.1c-1.74-0.04-2.49,0.33-2.48,2.31
		c0.04,5.95-0.05,5.95,5.88,5.95c4.85,0,9.71,0.06,14.56-0.03c1.49-0.03,1.98,0.39,1.92,1.9c-0.12,2.64-0.08,5.29-0.01,7.93
		c0.03,1.25-0.17,1.89-1.69,1.88c-11.21-0.06-22.42-0.06-33.62,0c-1.68,0.01-1.81-0.76-1.81-2.09
		C491.85,148.06,491.82,140.49,491.82,132.91z"/>
	<path class="st1" d="M478.8,36.05c1.76,0,3.55,0.17,5.29-0.04c2.27-0.28,3.12,0.68,3.76,2.76c4.51,14.77,9.12,29.51,13.77,44.24
		c0.57,1.82,0.58,2.65-1.73,2.54c-3.7-0.18-7.41-0.1-11.11-0.02c-1.35,0.03-2.13-0.22-2.37-1.73c-0.24-1.46-1.04-2.84-1.17-4.29
		c-0.28-3.21-1.85-4.41-4.97-3.83c-0.68,0.13-1.41,0.01-2.11,0.02c-2.38,0.04-5.4-0.79-6.95,0.36c-1.61,1.19-2.06,4.25-2.53,6.59
		c-0.49,2.44-1.68,3.07-3.97,2.89c-2.36-0.19-4.76-0.09-7.13-0.01c-1.53,0.05-2-0.17-1.44-1.91c2.19-6.71,4.19-13.49,6.26-20.24
		c2.58-8.42,5.15-16.84,7.72-25.26c0.44-1.45,1.08-2.34,2.89-2.13C474.9,36.22,476.86,36.05,478.8,36.05z M477.79,51.82
		c-0.18-0.03-0.36-0.07-0.53-0.1c-0.77,2.48-1.68,4.93-2.29,7.45c-1.71,7.04-3.24,5.75,4.72,5.9c0.09,0,0.18-0.01,0.26,0
		c1.08,0.09,1.46-0.42,1.18-1.42C480.02,59.71,478.9,55.77,477.79,51.82z"/>
	<path class="st1" d="M323.24,132.54c0.07,3.75-0.11,6.37,0.58,8.97c0.93,3.48,3.25,5.64,6.33,5.66c3.3,0.03,5.52-1.71,6.39-5.46
		c0.47-2.03,1.1-2.79,3.41-2.64c3.16,0.2,6.31,0.58,9.48,0.62c1.5,0.02,1.52,0.66,1.3,1.78c-2.14,11.22-10.51,17.65-22.09,16.96
		c-11.62-0.69-19.69-8.62-20.77-20.23c-0.52-5.59-0.22-11.05,1.59-16.39c3.53-10.43,12.35-14.97,23.14-14.05
		c10.91,0.93,16.36,7.7,18.12,17.69c0.23,1.33,0.21,2.18-1.55,2.12c-3.26-0.12-6.52-0.02-9.75,0.53c-2.08,0.35-2.84-0.59-2.81-2.5
		c0.01-0.99-0.28-1.9-0.66-2.8c-1.09-2.57-2.91-4.22-5.81-4.21c-2.97,0.01-4.66,1.89-5.59,4.43
		C323.27,126.44,323.08,130.04,323.24,132.54z"/>
	<path class="st2" d="M578.24,205.47c0-7.4,0.08-14.81-0.04-22.21c-0.04-2.22,0.66-2.89,2.85-2.78c6.86,0.34,13.76-0.47,20.6,0.48
		c6.15,0.86,10.68,5.19,11.72,11.53c0.78,4.75-1.39,11.17-7.17,13.75c-2.41,1.07-1.3,2.5-0.76,3.8c2.41,5.83,4.86,11.64,7.44,17.4
		c0.89,1.98,1,2.77-1.65,2.85c-2.75,0.08-4.19-0.64-5.2-3.38c-1.99-5.43-4.51-10.65-6.71-16.01c-0.74-1.81-1.78-2.58-3.78-2.44
		c-2.55,0.17-5.13,0.17-7.67,0c-2.68-0.18-3.51,0.9-3.43,3.51c0.17,5.28-0.02,10.58,0.1,15.86c0.04,1.79-0.38,2.68-2.3,2.35
		c-0.34-0.06-0.71-0.06-1.06,0.01c-2.53,0.47-3.04-0.72-2.99-3.04C578.32,219.93,578.24,212.7,578.24,205.47z M584.51,194.72
		c0,1.32,0,2.64,0,3.96c0,4.83,0,4.92,4.82,4.81c3.59-0.08,7.2,0.62,10.78-0.23c4.5-1.07,7.29-4.78,7.06-9.47
		c-0.22-4.39-2.98-7.33-7.79-7.67c-4.38-0.31-8.79-0.12-13.19-0.21c-1.48-0.03-1.74,0.71-1.7,1.96
		C584.56,190.15,584.51,192.43,584.51,194.72z"/>
	<path class="st2" d="M568.59,203.77c0.11,7.9-1.65,14.31-5.85,19.92c-7.05,9.4-21.83,9.51-29.1,0.28
		c-8.07-10.25-7.6-28.49,0.98-38.27c7.66-8.73,22.72-7.52,29.28,2.34C567.19,192.98,568.6,198.01,568.59,203.77z M562.31,205.08
		c-0.21-4.24-0.72-8.3-2.47-12.13c-2.24-4.9-5.85-7.87-11.41-7.93c-5.71-0.06-9.29,3.07-11.62,8c-1.85,3.92-2.35,8.12-2.37,12.33
		c-0.03,5.6,0.88,11.06,4.46,15.68c4.75,6.13,13.64,6.29,18.48,0.28C561.21,216.55,561.95,210.82,562.31,205.08z"/>
	<path class="st2" d="M468.42,229.87c-4.53,1.32-7.03-0.21-8.97-4.41c-3.15-6.83-7.07-13.3-10.68-19.92
		c-1.48-2.71-1.65-2.7-3.65-0.19c-2.52,3.16-5.02,6.34-7.61,9.45c-1.01,1.21-1.55,2.44-1.49,4.05c0.11,2.99-0.05,5.99,0.06,8.98
		c0.06,1.82-0.54,2.44-2.42,2.4c-3.89-0.08-3.89,0.03-3.89-3.93c0-14.36,0.1-28.72-0.08-43.08c-0.04-2.96,1.42-2.63,3.37-2.75
		c2.28-0.14,3.1,0.51,3.06,2.9c-0.13,8.19-0.05,16.38-0.05,24.96c1.62-1.15,2.58-2.45,3.55-3.71c5.83-7.5,11.67-14.97,17.41-22.53
		c2.1-2.76,4.83-0.99,7.56-1.15c-2.75,3.59-5.19,7.49-8.34,10.68c-4.16,4.22-4.41,7.86-1.22,12.99c4.89,7.87,8.84,16.33,13.18,24.54
		C468.33,229.36,468.35,229.63,468.42,229.87z"/>
	<path class="st2" d="M402.74,230.75c-9.66,0.11-16.23-3.39-19.96-11.49c-0.37-0.8-1.5-1.84-0.08-2.71c1.79-1.1,4.49-0.84,5.08,0.53
		c1.94,4.48,5.42,7,10.08,8c3.86,0.83,7.69,0.63,11.32-1.05c3.06-1.41,4.94-4.66,4.71-7.88c-0.21-2.94-2.42-5.69-5.62-6.62
		c-4.88-1.42-9.85-2.51-14.69-4.05c-7.74-2.45-11.41-9.7-8.61-16.81c2.18-5.53,6.89-7.89,12.35-8.6c6.82-0.89,13.2,0.24,17.98,5.88
		c0.57,0.67,1.17,1.35,1.55,2.13c2.02,4.16,2.6,3.49-2.21,4.93c-1.12,0.34-1.77,0.02-2.13-1.14c-1.85-5.96-11.71-9.55-18.65-5.34
		c-2.43,1.48-3.91,3.7-3.69,6.54c0.23,3.01,1.87,5.09,4.92,6.14c4.9,1.69,10.04,2.41,14.97,3.98c5.98,1.91,9.97,6.43,10.16,11.73
		c0.24,6.82-3.14,11.88-9.38,14.31C407.91,230.36,404.94,230.95,402.74,230.75z"/>
	<path class="st1" d="M572.38,60.62c0,7.57-0.05,15.15,0.04,22.72c0.02,1.71-0.41,2.26-2.19,2.18c-3.61-0.16-7.22-0.12-10.83-0.02
		c-1.46,0.04-2-0.31-1.99-1.88c0.06-15.24,0.06-30.47,0.01-45.71c0-1.51,0.45-1.94,1.93-1.9c3.7,0.1,7.41,0.14,11.11-0.01
		c1.79-0.07,1.97,0.68,1.96,2.16C572.35,45.65,572.38,53.14,572.38,60.62z"/>
	<path class="st1" d="M406.99,132.83c0-7.48,0.05-14.96-0.04-22.44c-0.02-1.63,0.42-2.13,2.05-2.08c3.79,0.11,7.58,0.09,11.37,0.02
		c1.27-0.02,1.69,0.41,1.68,1.64c-0.03,15.31-0.05,30.63,0,45.94c0,1.63-0.69,1.85-2.06,1.82c-3.61-0.07-7.23-0.12-10.84,0.01
		c-1.76,0.07-2.22-0.47-2.2-2.2C407.04,147.97,406.99,140.4,406.99,132.83z"/>
	<path class="st2" d="M668.26,205.41c0-7.41,0.06-14.81-0.04-22.22c-0.03-1.98,0.38-2.76,2.6-2.73c8.74,0.14,17.48,0.09,26.22,0.03
		c1.71-0.01,2.63,0.25,2.54,2.25c-0.08,1.76,0.07,3.28-2.44,3.26c-6.62-0.07-13.25,0.06-19.87-0.07c-2.14-0.04-2.95,0.48-2.82,2.77
		c0.21,3.6,0.14,7.23,0.03,10.84c-0.05,1.68,0.59,2.12,2.14,2.1c5.21-0.06,10.42,0.11,15.62-0.08c2.4-0.09,2.16,1.36,2.32,2.81
		c0.21,1.96-0.98,2.06-2.47,2.04c-4.94-0.05-9.89,0.03-14.83-0.04c-1.97-0.03-2.87,0.49-2.79,2.69c0.16,4.49,0.12,8.99,0.01,13.49
		c-0.04,1.68,0.57,2.05,2.12,2.06c7.14,0.04,14.29-0.13,21.44,0.14c2.45,0.09,2.35,1.27,2.43,2.98c0.1,2.01-0.65,2.52-2.61,2.5
		c-9.09-0.1-18.19-0.09-27.28,0.01c-1.86,0.02-2.37-0.48-2.35-2.34C668.33,220.4,668.27,212.9,668.26,205.41z"/>
	<path class="st2" d="M374.48,230.19c-1.88,0.51-2.84-0.54-3.44-2.54c-0.97-3.27-2.21-6.46-3.27-9.71c-0.49-1.51-1.21-2.29-3-2.24
		c-4.68,0.13-9.36,0.12-14.04,0.01c-1.73-0.04-2.48,0.56-2.93,2.22c-0.93,3.46-2.07,6.86-3.16,10.28c-0.52,1.63-3.79,2.82-5.1,1.86
		c-0.8-0.59-0.12-1.23,0.07-1.85c2.01-6.34,3.98-12.69,6.02-19.03c2.79-8.67,5.68-17.31,8.43-25.99c0.6-1.91,1.37-3.08,3.63-2.71
		c2.04,0.33,4.32-0.85,5.37,2.51c4.54,14.64,9.39,29.18,14.13,43.76C378.32,230.17,378.32,230.17,374.48,230.19z M357.87,210.75
		c0,0,0-0.01,0-0.01c1.94,0,3.88-0.03,5.82,0.01c1.18,0.02,1.6-0.39,1.22-1.59c-1.88-5.93-3.71-11.88-5.63-17.8
		c-0.21-0.66-0.96-1.68-1.35-1.64c-0.68,0.08-1.1,0.92-1.36,1.75c-1.48,4.77-3.06,9.52-4.59,14.28c-1.61,4.99-1.61,4.99,3.78,5
		C356.46,210.75,357.17,210.75,357.87,210.75z"/>
	<path class="st2" d="M640.34,230.75c-7.21,0.02-12.3-3.5-15.92-9.5c-5.53-9.15-5.89-26.39,1.91-35.07
		c5.17-5.75,11.68-7.31,18.92-5.86c7.53,1.51,11.16,7.09,13.27,13.93c0.23,0.76,0.15,1.23-0.81,1.56c-3.45,1.15-4.42,0.79-5.86-2.49
		c-3.53-8.01-11.22-10.86-17.75-6.38c-4.29,2.95-5.92,7.62-6.57,12.46c-0.72,5.32-0.64,10.7,0.97,15.95
		c2.09,6.78,6.82,10.51,13.28,10.1c5.84-0.37,8.66-4.29,10.6-9.26c0.39-0.99,0.09-2.72,2.3-2.47c4.03,0.44,4.38,0.81,2.98,4.59
		C654.64,226.5,648.66,230.79,640.34,230.75z"/>
	<path class="st2" d="M496.03,205.2c0-7.49,0-14.97,0-22.46c0-1.42-0.19-2.31,2.11-1.92c2.98,0.51,6.15-0.1,9.24-0.14
		c5.9-0.08,11.81-0.2,17.7-0.09c1.93,0.04,1.01,1.89,1.11,2.94c0.09,0.91,0.53,2.24-1.28,2.25c-2.29,0.01-4.57,0.19-6.86,0.21
		c-4.59,0.03-9.17,0.05-13.76-0.03c-1.57-0.02-2.17,0.45-2.13,2.11c0.11,3.78,0.12,7.58-0.01,11.36c-0.06,1.84,0.75,2.24,2.35,2.23
		c5.2-0.05,10.41,0.09,15.61-0.07c1.93-0.06,2.24,0.86,2.27,2.33c0.03,1.56-0.24,2.62-2.32,2.55c-4.76-0.16-9.52-0.05-14.29-0.05
		c-3.56,0-3.57,0-3.58,3.44c0,5.72,0.02,11.45,0,17.17c-0.01,2.75-3.18,4.48-5.58,3.05c-0.96-0.57-0.56-1.59-0.56-2.41
		C496.02,220.17,496.03,212.68,496.03,205.2z"/>
	<path class="st2" d="M320.72,208.08c0-6.34-0.14-12.69,0.07-19.03c0.08-2.56-0.81-3.12-3.12-2.98c-2.9,0.18-5.83-0.07-8.73,0.08
		c-2.75,0.14-1.96-1.76-2.11-3.2c-0.18-1.66,0.14-2.51,2.19-2.48c9.97,0.11,19.94,0.12,29.91,0c2.41-0.03,2.2,1.3,2.24,2.84
		c0.04,1.62,0.08,2.96-2.26,2.85c-3.17-0.16-6.36,0.09-9.52-0.08c-2.01-0.11-2.5,0.54-2.49,2.51c0.09,12.77,0.06,25.55,0.02,38.32
		c0,1.06,0.66,2.7-0.63,3.06c-1.54,0.43-3.33,0.27-4.96,0.01c-0.92-0.15-0.58-1.34-0.58-2.08
		C320.71,221.3,320.72,214.69,320.72,208.08z"/>
	<path class="st2" d="M137.21,233.97c23.59-1.39,47.19-2.79,70.78-4.18c-4.66,3.44-8.08,8.42-15.42,7.59
		c-11.53-1.3-23.2-1.3-34.81-1.9c-6.85-0.35-13.69-0.79-20.54-1.18C137.21,234.18,137.21,234.07,137.21,233.97z"/>
	<path class="st2" d="M206.41,27.86c-23-1.22-45.99-2.45-69.62-3.71c4.26-1.24,8.08-0.89,11.79-1.15
		c14.95-1.05,29.92-1.79,44.87-2.74c2.14-0.14,3.92,0.19,5.65,1.48C201.61,23.6,204.35,25.16,206.41,27.86z"/>
	<path class="st2" d="M193.61,240.12c-4.87,2.69-9.32,5.92-15.64,5.31c-9.71-0.94-19.5-1.09-29.26-1.6c-3.5-0.18-7-0.44-10.54-1.18
		c18.44-1.1,36.87-2.2,55.31-3.3C193.52,239.61,193.57,239.87,193.61,240.12z"/>
	<path class="st2" d="M191.91,18.22c-19-0.96-38-1.91-57-2.87c0-0.08,0-0.16,0.01-0.24c5.2-0.39,10.39-0.84,15.59-1.14
		c10.03-0.59,20.07-1.09,30.11-1.64c0.81-0.04,1.56,0.12,2.31,0.42C186.15,14.07,189.19,15.72,191.91,18.22z"/>
	<path class="st2" d="M138.88,251.56c10.61-0.17,21.53-1.66,32.73-1.71c-4.89,2.63-9.95,3.34-15.25,2.94
		C150.4,252.34,144.43,251.95,138.88,251.56z"/>
	<path class="st2" d="M169.31,8.03c-9.3-0.45-18.12-0.87-26.94-1.3c0.01-0.24,0.02-0.47,0.04-0.71C151.24,6.14,160.25,3,169.31,8.03
		z"/>
	<path class="st0" d="M203.05,212.36c-0.13-0.1-0.32-0.24-0.51-0.38c0.23-0.11,0.45-0.29,0.68-0.29c0.23,0,0.66,0.18,0.66,0.27
		C203.85,212.4,203.45,212.32,203.05,212.36z"/>
	<path class="st0" d="M375.57,51.41c-0.01-4.9-0.01-4.91,4.98-4.89c1.32,0.01,2.67-0.07,3.96,0.17c2.35,0.43,3.75,1.93,3.89,4.34
		c0.14,2.44-1.12,3.94-3.48,4.6c-2.69,0.75-5.43,0.39-8.15,0.5c-0.93,0.04-1.23-0.41-1.2-1.27
		C375.59,53.7,375.57,52.56,375.57,51.41z"/>
	<path class="st0" d="M377.15,128.25c-4.59-0.09-4.59-0.09-4.59-4.79c0-4.64,0-4.65,4.73-4.65c1.32,0,2.65-0.05,3.95,0.1
		c2.53,0.3,4.08,1.91,4.27,4.25c0.18,2.33-1.08,4.13-3.65,4.7C380.34,128.21,378.72,128.14,377.15,128.25z"/>
	<path class="st0" d="M686.34,60.62c0-3.79,0.06-7.58-0.03-11.36c-0.04-1.55,0.33-2.14,2.03-2.15c5.64-0.05,8.25,1.59,10.04,6.97
		c1.8,5.39,1.6,10.73-1.23,15.78c-2.02,3.6-5.66,5.11-9.69,4.37c-1.37-0.25-1.11-1.14-1.11-1.97
		C686.33,68.38,686.34,64.5,686.34,60.62z"/>
	<path class="st0" d="M338.66,61.34c0.16,3.14-0.07,6.35-1.4,9.41c-1.11,2.57-2.88,4.1-5.82,4.13c-2.93,0.03-4.98-1.37-5.9-4
		c-2.45-6.95-2.42-13.94,0.4-20.8c0.92-2.25,2.71-3.58,5.32-3.6c2.6-0.02,4.32,1.26,5.47,3.44
		C338.6,53.47,338.79,57.32,338.66,61.34z"/>
	<path class="st0" d="M477.79,51.82c1.11,3.94,2.24,7.88,3.34,11.83c0.28,1-0.1,1.51-1.18,1.42c-0.09-0.01-0.18,0-0.26,0
		c-7.96-0.15-6.43,1.15-4.72-5.9c0.61-2.52,1.52-4.97,2.29-7.45C477.43,51.76,477.61,51.79,477.79,51.82z"/>
	<path class="st0" d="M584.51,194.72c0-2.29,0.05-4.57-0.02-6.86c-0.04-1.26,0.22-1.99,1.7-1.96c4.4,0.1,8.81-0.1,13.19,0.21
		c4.81,0.34,7.57,3.28,7.79,7.67c0.23,4.69-2.56,8.4-7.06,9.47c-3.58,0.85-7.19,0.15-10.78,0.23c-4.82,0.11-4.82,0.02-4.82-4.81
		C584.51,197.36,584.51,196.04,584.51,194.72z"/>
	<path class="st0" d="M562.31,205.08c-0.36,5.74-1.1,11.47-4.93,16.23c-4.84,6.01-13.73,5.84-18.48-0.28
		c-3.58-4.62-4.49-10.07-4.46-15.68c0.02-4.21,0.52-8.42,2.37-12.33c2.33-4.93,5.91-8.06,11.62-8c5.56,0.06,9.16,3.04,11.41,7.93
		C561.59,196.78,562.1,200.85,562.31,205.08z"/>
	<path class="st0" d="M357.87,210.75c-0.71,0-1.41,0-2.12,0c-5.39-0.01-5.39-0.01-3.78-5c1.54-4.76,3.11-9.5,4.59-14.28
		c0.26-0.83,0.68-1.67,1.36-1.75c0.39-0.05,1.14,0.97,1.35,1.64c1.92,5.92,3.75,11.87,5.63,17.8c0.38,1.2-0.04,1.61-1.22,1.59
		c-1.94-0.04-3.88-0.01-5.82-0.01C357.87,210.74,357.87,210.75,357.87,210.75z"/>
</g>
</svg>
