<svg viewBox="0 0 250 250" xmlns="http://www.w3.org/2000/svg"><style type="text/css">  .st0{fill-rule:evenodd;clip-rule:evenodd;fill:#066AA7;} .st1{fill-rule:evenodd;clip-rule:evenodd;fill:#4F4F4F;}</style><polygon class="st0" points="226.7 175.8 124.7 226.7 22.8 175.8 22.8 73.8 124.7 22.9 166 43.5 166.7 21.8 124.7 0.8 62.7 31.8 0.7 62.8 0.7 124.8 0.7 186.8 62.7 217.8 124.7 248.8 186.7 217.8 248.7 186.8 248.7 124.8 248.7 62.8 226.7 51.8 226.7 51.8 226.7 73.8 226.7 108.6 "/><polygon class="st1" points="86.7 194.5 116.1 209.2 116.1 101.5 86.7 86.6 "/><polygon class="st1" points="38.2 170.3 69.8 186 69.8 145.3 38.2 129 "/><polygon class="st1" points="163 194.5 133.6 209.2 133.6 45.6 163 60.5 "/><polygon class="st1" points="211.5 170.3 179.9 186 179.9 28.3 211.5 45.5 "/></svg>
