<?xml version="1.0" encoding="utf-8"?>
<!-- Generator: Adobe Illustrator 25.4.1, SVG Export Plug-In . SVG Version: 6.00 Build 0)  -->
<svg version="1.1" id="Layer_1" xmlns="http://www.w3.org/2000/svg" xmlns:xlink="http://www.w3.org/1999/xlink" x="0px" y="0px"
	 viewBox="0 0 138.9 100.6" style="enable-background:new 0 0 138.9 100.6;" xml:space="preserve">
<style type="text/css">
	.st0{fill:#623B93;}
	.st1{fill:#4A2E83;}
	.st2{fill:#FFFFFF;}
</style>
<g>
	<path class="st0" d="M197,49.3c0,3.1-0.4,5.9-1.3,8.2c-0.9,2.4-2.1,4.3-3.6,5.9s-3.4,2.8-5.7,3.5s-4.7,1.2-7.5,1.2
		c-2.7,0-5.2-0.4-7.4-1.2c-2.2-0.8-4.1-1.9-5.6-3.5s-2.8-3.5-3.6-5.8c-0.8-2.3-1.3-5-1.3-8V25.5h7.3v23.9c0,3.9,0.9,6.9,2.8,9
		c1.9,2,4.5,3.1,7.9,3.1c3.3,0,5.9-1,7.8-2.9s2.8-4.9,2.8-8.8V25.5h7.3V49.3z"/>
	<path class="st0" d="M209.5,67.5h-7.3V35.8h7.3v7.1c1-2.4,2.4-4.3,4.3-5.8s4.2-2.1,7-2v7.7h-0.4c-1.6,0-3.1,0.3-4.4,0.8
		s-2.5,1.3-3.4,2.3c-1,1-1.7,2.3-2.2,3.9s-0.8,3.4-0.8,5.5V67.5z"/>
	<path class="st0" d="M253.9,58.1c-0.9,2-2,3.8-3.5,5.2s-3.3,2.7-5.4,3.6s-4.3,1.3-6.8,1.3c-2.4,0-4.6-0.4-6.7-1.3s-3.8-2-5.3-3.5
		s-2.7-3.2-3.5-5.2s-1.3-4.1-1.3-6.4s0.4-4.4,1.3-6.5s2-3.8,3.5-5.3s3.3-2.7,5.3-3.6s4.3-1.3,6.8-1.3s4.7,0.4,6.8,1.3s3.8,2,5.3,3.5
		s2.7,3.2,3.5,5.2s1.3,4.1,1.3,6.4C255.1,53.9,254.7,56.1,253.9,58.1z M247.1,47.8c-0.5-1.2-1.1-2.3-2-3.3c-0.9-0.9-1.9-1.7-3-2.2
		s-2.5-0.8-3.9-0.8c-1.4,0-2.7,0.3-3.9,0.8s-2.2,1.3-3,2.2s-1.5,2-1.9,3.2c-0.4,1.2-0.7,2.5-0.7,3.9s0.2,2.7,0.7,4
		c0.5,1.3,1.1,2.3,2,3.3c0.9,0.9,1.9,1.7,3,2.2c1.2,0.5,2.5,0.8,3.9,0.8c1.5,0,2.8-0.3,4-0.8c1.2-0.5,2.2-1.3,3-2.2
		c0.8-0.9,1.5-2,1.9-3.2c0.4-1.2,0.7-2.5,0.7-3.9C247.8,50.4,247.6,49,247.1,47.8z"/>
	<path class="st0" d="M258.8,67.5V23.7h7.3v43.8H258.8z"/>
	<path class="st0" d="M302.1,58.1c-0.9,2-2,3.8-3.5,5.2s-3.3,2.7-5.4,3.6s-4.3,1.3-6.8,1.3c-2.4,0-4.6-0.4-6.7-1.3s-3.8-2-5.3-3.5
		s-2.7-3.2-3.5-5.2s-1.3-4.1-1.3-6.4s0.4-4.4,1.3-6.5c0.9-2,2-3.8,3.5-5.3s3.3-2.7,5.3-3.6s4.3-1.3,6.8-1.3s4.7,0.4,6.8,1.3
		s3.8,2,5.3,3.5s2.7,3.2,3.5,5.2s1.3,4.1,1.3,6.4C303.4,53.9,303,56.1,302.1,58.1z M295.4,47.8c-0.5-1.2-1.1-2.3-2-3.3
		c-0.9-0.9-1.9-1.7-3-2.2s-2.5-0.8-3.9-0.8s-2.7,0.3-3.9,0.8s-2.2,1.3-3,2.2c-0.8,0.9-1.5,2-1.9,3.2c-0.4,1.2-0.7,2.5-0.7,3.9
		s0.2,2.7,0.7,4c0.5,1.3,1.1,2.3,2,3.3c0.9,0.9,1.9,1.7,3,2.2c1.2,0.5,2.5,0.8,3.9,0.8c1.5,0,2.8-0.3,4-0.8c1.2-0.5,2.2-1.3,3-2.2
		c0.8-0.9,1.5-2,1.9-3.2c0.4-1.2,0.7-2.5,0.7-3.9S295.9,49,295.4,47.8z"/>
	<path class="st0" d="M334.8,73.3c-3,2.6-7.2,3.9-12.6,3.9c-5.3,0-10-1.3-14.2-3.8l2.7-5.5c1.7,1,3.4,1.9,5.3,2.5s3.8,0.9,6,0.9
		c3.2,0,5.7-0.8,7.4-2.5s2.6-4.1,2.6-7.3v-2.5c-1.3,1.7-2.9,3.2-4.6,4.2s-3.9,1.6-6.5,1.6c-1.9,0-3.7-0.3-5.4-1s-3.2-1.6-4.6-2.9
		s-2.4-2.8-3.2-4.7s-1.2-3.9-1.2-6.3s0.4-4.5,1.2-6.3c0.8-1.8,1.9-3.4,3.2-4.7s2.9-2.3,4.6-2.9s3.5-1,5.4-1c2.7,0,4.9,0.5,6.6,1.6
		s3.2,2.3,4.5,3.8v-4.8h7.3V61C339.2,66.6,337.7,70.7,334.8,73.3z M331.3,46.5c-0.5-1.1-1.2-2-2-2.8s-1.8-1.3-3-1.8
		s-2.3-0.6-3.6-0.6c-1.3,0-2.5,0.2-3.5,0.6c-1.1,0.4-2,1-2.9,1.8s-1.5,1.7-1.9,2.7c-0.5,1.1-0.7,2.3-0.7,3.6c0,1.3,0.2,2.5,0.7,3.6
		c0.5,1.1,1.1,2,1.9,2.8c0.8,0.8,1.8,1.4,2.9,1.8c1.1,0.4,2.3,0.6,3.5,0.6c1.2,0,2.4-0.2,3.6-0.6c1.1-0.4,2.1-1,3-1.8
		c0.8-0.8,1.5-1.7,2-2.7c0.5-1,0.8-2.2,0.8-3.5C332,48.8,331.8,47.6,331.3,46.5z"/>
	<path class="st0" d="M362.4,68.4c-0.6,1.6-1.3,3-2,4.1c-0.7,1.1-1.4,2-2.3,2.7c-0.8,0.7-1.8,1.2-2.8,1.5s-2.1,0.5-3.4,0.5
		c-1.5,0-2.9-0.2-4-0.5c-1.2-0.3-2.3-0.8-3.5-1.4l2.5-5.4c0.7,0.4,1.4,0.7,2.1,0.9s1.4,0.3,2.2,0.3c1,0,1.9-0.3,2.6-0.8
		s1.3-1.5,1.9-2.9l-13.2-31.6h7.7l9,23.5l8.2-23.5h7.6L362.4,68.4z"/>
	<path class="st0" d="M399.8,38.6c0.3,0.6,0.8,1.2,1.5,1.7s1.8,1,3.1,1.4c1.3,0.4,3,0.9,5,1.4c2.2,0.6,4.2,1.2,5.9,1.9
		s3.1,1.5,4.2,2.5c1.1,1,2,2.1,2.6,3.4s0.9,2.8,0.9,4.6c0,2-0.4,3.8-1.1,5.3s-1.8,2.9-3.1,4c-1.3,1.1-2.9,1.9-4.7,2.5
		s-3.9,0.8-6.1,0.8c-3.2,0-6.3-0.6-9.3-1.7c-3-1.1-5.7-2.8-8.2-5.1l4.4-5.3c2,1.8,4.1,3.1,6.2,4s4.4,1.4,7.1,1.4
		c2.3,0,4.1-0.5,5.4-1.4s2-2.3,2-3.9c0-0.8-0.1-1.4-0.4-2c-0.3-0.6-0.7-1.2-1.5-1.7c-0.7-0.5-1.7-1-2.9-1.4s-2.8-0.9-4.8-1.4
		c-2.2-0.5-4.2-1.1-6-1.7c-1.8-0.6-3.2-1.4-4.4-2.4c-1.2-1-2.1-2.1-2.7-3.5s-0.9-3-0.9-5c0-1.8,0.4-3.5,1.1-5c0.7-1.5,1.7-2.8,3-3.9
		c1.2-1.1,2.8-1.9,4.5-2.5s3.7-0.9,5.8-0.9c3.1,0,5.9,0.5,8.3,1.4c2.5,0.9,4.8,2.2,6.9,3.9l-4,5.6c-1.9-1.4-3.8-2.5-5.7-3.2
		c-1.9-0.7-3.8-1.1-5.7-1.1c-2.2,0-3.8,0.5-5,1.5c-1.2,1-1.8,2.2-1.8,3.6C399.4,37.3,399.5,38,399.8,38.6z"/>
	<path class="st0" d="M435.2,60.2c1.6,1.4,3.6,2.1,6,2.1c1.8,0,3.4-0.3,4.7-1s2.6-1.6,3.9-2.8l4.3,3.8c-1.5,1.8-3.3,3.2-5.4,4.3
		s-4.6,1.6-7.5,1.6c-2.3,0-4.4-0.4-6.4-1.2c-2-0.8-3.7-1.9-5.2-3.4c-1.5-1.4-2.6-3.2-3.5-5.2c-0.8-2-1.3-4.3-1.3-6.8
		c0-2.3,0.4-4.4,1.1-6.4s1.8-3.8,3.2-5.2s3-2.7,4.9-3.6s4-1.3,6.2-1.3c2.5,0,4.7,0.5,6.6,1.4c1.9,0.9,3.5,2.2,4.7,3.7
		c1.3,1.6,2.2,3.4,2.9,5.5s1,4.3,1,6.5c0,0.3,0,0.6,0,1s0,0.7-0.1,1h-23.3C432.6,56.8,433.6,58.8,435.2,60.2z M448.3,49.4
		c-0.1-1.2-0.4-2.2-0.8-3.3s-0.9-1.9-1.6-2.6c-0.7-0.7-1.5-1.3-2.4-1.8s-2-0.7-3.2-0.7c-2.2,0-4.1,0.8-5.5,2.3s-2.4,3.5-2.7,6H448.3
		z"/>
	<path class="st0" d="M466,67.5h-7.3V35.8h7.3v7.1c1-2.4,2.4-4.3,4.3-5.8s4.2-2.1,7-2v7.7h-0.4c-1.6,0-3.1,0.3-4.4,0.8
		S470,45,469,46c-1,1-1.7,2.3-2.2,3.9s-0.8,3.4-0.8,5.5L466,67.5L466,67.5z"/>
	<path class="st0" d="M505.4,35.8h7.6l-13,31.9h-6.5l-13-31.9h7.8l8.5,23.3L505.4,35.8z"/>
	<path class="st0" d="M516.5,30.9V24h7.9v6.9H516.5z M516.8,67.5V35.8h7.3v31.7H516.8z"/>
	<path class="st0" d="M551.8,66.6c-2,1.1-4.5,1.7-7.6,1.7c-2.4,0-4.5-0.4-6.5-1.3c-2-0.9-3.7-2-5.2-3.5c-1.5-1.5-2.6-3.2-3.5-5.2
		s-1.2-4.1-1.2-6.4s0.4-4.4,1.2-6.4s2-3.8,3.5-5.3c1.5-1.5,3.2-2.7,5.2-3.6c2-0.9,4.2-1.3,6.6-1.3c3,0,5.5,0.5,7.5,1.5
		s3.7,2.3,5.2,4l-4.5,4.9c-1.1-1.2-2.3-2.1-3.6-2.8c-1.3-0.7-2.8-1.1-4.7-1.1c-1.3,0-2.5,0.3-3.7,0.8s-2.1,1.3-2.9,2.2
		s-1.4,2-1.9,3.2c-0.5,1.2-0.7,2.5-0.7,3.9c0,1.4,0.2,2.8,0.7,4s1.1,2.3,2,3.2c0.8,0.9,1.8,1.7,3,2.2c1.2,0.5,2.4,0.8,3.8,0.8
		c1.7,0,3.2-0.4,4.5-1.1c1.3-0.7,2.5-1.7,3.7-2.8l4.4,4.3C555.5,64,553.8,65.5,551.8,66.6z"/>
	<path class="st0" d="M568.7,60.2c1.6,1.4,3.6,2.1,6,2.1c1.8,0,3.4-0.3,4.7-1s2.6-1.6,3.9-2.8l4.3,3.8c-1.5,1.8-3.3,3.2-5.4,4.3
		s-4.6,1.6-7.5,1.6c-2.3,0-4.4-0.4-6.4-1.2c-2-0.8-3.7-1.9-5.2-3.4c-1.5-1.4-2.6-3.2-3.5-5.2s-1.3-4.3-1.3-6.8
		c0-2.3,0.4-4.4,1.1-6.4s1.8-3.8,3.2-5.2s3-2.7,4.9-3.6s4-1.3,6.2-1.3c2.5,0,4.7,0.5,6.6,1.4c1.9,0.9,3.5,2.2,4.7,3.7
		s2.2,3.4,2.8,5.5c0.6,2.1,1,4.3,1,6.5c0,0.3,0,0.6,0,1s0,0.7-0.1,1h-23.3C566,56.8,567,58.8,568.7,60.2z M581.8,49.4
		c-0.1-1.2-0.4-2.2-0.8-3.3s-0.9-1.9-1.6-2.6c-0.7-0.7-1.5-1.3-2.4-1.8s-2-0.7-3.2-0.7c-2.2,0-4.1,0.8-5.5,2.3
		c-1.5,1.5-2.3,3.5-2.7,6H581.8z"/>
	<path class="st0" d="M613.9,62.5c-0.6,1.2-1.4,2.3-2.5,3.1s-2.3,1.4-3.8,1.9s-3,0.6-4.6,0.6c-2.3,0-4.6-0.4-6.9-1.2
		c-2.3-0.8-4.5-2-6.5-3.5l3.2-4.9c1.7,1.3,3.5,2.2,5.2,2.9s3.5,1,5.1,1c1.6,0,2.8-0.3,3.6-0.9s1.3-1.5,1.3-2.5v-0.1
		c0-0.6-0.2-1.1-0.6-1.6c-0.4-0.4-0.9-0.8-1.6-1.2c-0.7-0.3-1.4-0.6-2.3-0.9c-0.9-0.3-1.8-0.5-2.7-0.8c-1.2-0.4-2.3-0.8-3.5-1.2
		c-1.2-0.4-2.2-1-3.2-1.7s-1.7-1.6-2.3-2.6s-0.9-2.3-0.9-3.8v-0.1c0-1.5,0.3-2.8,0.9-4s1.4-2.2,2.4-3.1s2.2-1.5,3.6-1.9
		s2.8-0.7,4.4-0.7c2,0,4,0.3,6.1,1s3.9,1.5,5.6,2.6l-2.9,5.2c-1.5-0.9-3.1-1.7-4.6-2.2c-1.6-0.5-3-0.8-4.3-0.8
		c-1.4,0-2.5,0.3-3.3,0.9c-0.8,0.6-1.2,1.4-1.2,2.3v0.1c0,0.6,0.2,1,0.6,1.5c0.4,0.4,0.9,0.8,1.6,1.1c0.7,0.3,1.4,0.7,2.3,1
		c0.9,0.3,1.8,0.6,2.7,0.9c1.2,0.4,2.3,0.8,3.5,1.3s2.2,1.1,3.2,1.8s1.7,1.5,2.3,2.5s0.9,2.2,0.9,3.7v0.1
		C614.8,59.8,614.5,61.3,613.9,62.5z"/>
	<path class="st0" d="M641.8,25.5v42h-7.3v-42H641.8z"/>
	<path class="st0" d="M654,67.5h-7.3V35.8h7.3v5c0.5-0.8,1.1-1.5,1.7-2.2c0.6-0.7,1.3-1.3,2.2-1.8c0.8-0.5,1.7-0.9,2.7-1.2
		c1-0.3,2.1-0.5,3.3-0.5c3.6,0,6.4,1.1,8.3,3.3c2,2.2,2.9,5.2,2.9,8.9v20.2h-7.3v-18c0-2.5-0.6-4.4-1.8-5.7c-1.2-1.3-2.8-2-5-2
		c-2.1,0-3.8,0.7-5.1,2.1s-2,3.3-2,5.8L654,67.5L654,67.5z"/>
	<path class="st0" d="M703.6,77.1V62.2c-1.2,1.6-2.6,3-4.3,4.2c-1.7,1.2-3.9,1.7-6.4,1.7c-1.9,0-3.7-0.4-5.5-1.1s-3.3-1.8-4.7-3.2
		s-2.5-3.2-3.3-5.2c-0.8-2-1.3-4.4-1.3-7s0.4-5,1.2-7s1.9-3.8,3.3-5.2c1.4-1.4,2.9-2.5,4.7-3.2c1.8-0.7,3.6-1.1,5.5-1.1
		c2.6,0,4.8,0.6,6.5,1.7s3.2,2.4,4.3,3.9v-4.9h7.3v41.3H703.6z M703,47.5c-0.5-1.2-1.2-2.3-2-3.2c-0.8-0.9-1.8-1.6-2.9-2.1
		c-1.1-0.5-2.3-0.7-3.5-0.7c-1.2,0-2.4,0.2-3.5,0.7s-2.1,1.1-2.9,2c-0.8,0.9-1.5,2-2,3.2c-0.5,1.3-0.7,2.7-0.7,4.3
		c0,1.6,0.2,3,0.7,4.2s1.1,2.3,2,3.2c0.8,0.9,1.8,1.6,2.9,2c1.1,0.5,2.3,0.7,3.5,0.7c1.2,0,2.3-0.2,3.5-0.7s2.1-1.2,2.9-2.1
		c0.8-0.9,1.5-2,2-3.2c0.5-1.2,0.8-2.6,0.8-4.2C703.7,50.1,703.5,48.7,703,47.5z"/>
	<path class="st0" d="M736.6,35.8h7.3v31.7h-7.3v-5c-1,1.5-2.3,2.9-3.9,4s-3.5,1.7-6,1.7c-3.6,0-6.4-1.1-8.3-3.3
		c-2-2.2-2.9-5.2-2.9-8.9V35.8h7.3v18c0,2.5,0.6,4.4,1.8,5.7s2.8,2,5,2c2.1,0,3.8-0.7,5.1-2.1s2-3.3,2-5.8V35.8z"/>
	<path class="st0" d="M749,30.9V24h7.9v6.9H749z M749.3,67.5V35.8h7.3v31.7H749.3z"/>
	<path class="st0" d="M769.2,67.5h-7.3V35.8h7.3v7.1c1-2.4,2.4-4.3,4.3-5.8s4.2-2.1,7-2v7.7H780c-1.6,0-3.1,0.3-4.4,0.8
		s-2.5,1.3-3.4,2.3c-1,1-1.7,2.3-2.2,3.9c-0.5,1.6-0.8,3.4-0.8,5.5L769.2,67.5L769.2,67.5z"/>
	<path class="st0" d="M803.6,68.4c-0.6,1.6-1.3,3-2,4.1s-1.4,2-2.3,2.7c-0.8,0.7-1.8,1.2-2.8,1.5s-2.1,0.5-3.4,0.5
		c-1.5,0-2.9-0.2-4-0.5c-1.2-0.3-2.3-0.8-3.5-1.4l2.5-5.4c0.7,0.4,1.4,0.7,2.1,0.9s1.4,0.3,2.2,0.3c1,0,1.9-0.3,2.6-0.8
		s1.3-1.5,1.9-2.9l-13.2-31.6h7.8l9,23.5l8.2-23.5h7.6L803.6,68.4z"/>
</g>
<g>
	<ellipse class="st1" cx="69.5" cy="50.3" rx="69.5" ry="50.3"/>
	<g>
		<g>
			<path class="st2" d="M56.4,84.1c-3.2-2.4-5.1-6.2-6.2-10.1c-0.2-0.8-0.4-1.7-0.5-2.6c-0.8-4.8-0.5-9.8-0.5-14.8V24.1
				c0.4-7.4,8.6-7.1,8.6-7.1v-1.4H31.6V17c0,0,6.7-0.3,8.3,5.2c0.1,0.7,0.2,1.4,0.2,2v38.6c0,2.8,0.1,5.6,0.6,8.4
				c0.4,2.1,1,4.2,1.8,6.2c1,2.4,2.3,4.6,4,6.4c1.9,2.2,4.2,3.9,6.9,5c3.1,1.4,6.5,1.9,9.9,2c1.6,0,3.3-0.1,5-0.3
				c0.2,0,2-0.3,3.3-0.6v-1.7C71.8,88.3,62.6,89,56.4,84.1z"/>
			<path class="st2" d="M98.9,71c0,1.8-0.1,3.6-0.5,5.4c-1,4.4-3.5,8.2-7.2,10.8c-2.8,1.9-6.1,3.1-9.5,3.6c-0.1,0.1-0.3,0.1-0.5,0.1
				v-2.5c5-1.7,7.7-6.7,8.5-11.8c1.5-10-12.1-18.3-23.3-24.7C55,45.3,55,35,55,35c-0.2-3.5,0.2-7,1.7-10.2c1.6-3.3,4.3-5.9,7.6-7.4
				c2.4-1.2,5-1.8,7.6-2.1h0.3v2.1c-1.5,0.3-2.9,0.9-4.2,1.8c-1.4,1-2.6,2.3-3.6,3.7c-0.1,0-9.3,12.8,13.4,23.9
				C91.5,53.3,98.9,62.6,98.9,71z"/>
			<g>
				<path class="st2" d="M98.8,24.3c0-0.6,0.1-1.3,0.2-2c1.6-5.5,8.3-5.2,8.3-5.2v-1.4H81.1V17c0,0,8.2-0.3,8.6,7.1v24.2h9
					L98.8,24.3L98.8,24.3z"/>
			</g>
		</g>
	</g>
</g>
</svg>
