<svg enable-background="new 0 0 250 250" viewBox="0 0 250 250" xmlns="http://www.w3.org/2000/svg"><style type="text/css">.st0{fill:#C9D32C;} .st1{fill:#0F6132;} .st2{fill:#86A43D;}</style><g><path class="st0" d="M43.63,148.46V70.12c0.34-6.31-1.31-12.6-4.8-18.38C34.22,44.89,20.77,39.7,20.77,39.7L1.17,31.14v138.37c0,40.8,38.42,69.67,112.14,69.67c7.12,0,14.24-0.29,21.32-0.88C74.84,233.04,43.63,204.1,43.63,148.46z"/><path class="st1" d="M158.17,148.46V42.09c0.41-6.91-0.99-13.82-4.13-20.35c-3.36-5.96-14.89-10.52-14.89-10.52l-23.44-10.1v168.4c0,40.73,38.42,69.6,112.19,69.6c7.11,0,14.21-0.29,21.27-0.88C189.38,233.04,158.17,204.1,158.17,148.46z"/><path class="st2" d="M100.63,158.25V58.79c0,0,1.2-12.28-3.7-19.54c-3.76-4.92-9.1-9.09-15.56-12.17l-23.2-11.09v142.26c0,61.99,38.42,90.86,112.14,90.86c7.12,0,14.24-0.29,21.32-0.88C131.85,242.94,100.63,214.03,100.63,158.25z"/></g><g></g><g></g><g></g><g></g><g></g><g></g></svg>

