<?xml version="1.0" encoding="utf-8"?>
<!-- Generator: Adobe Illustrator 26.2.1, SVG Export Plug-In . SVG Version: 6.00 Build 0)  -->
<svg version="1.1" id="Layer_1" xmlns="http://www.w3.org/2000/svg" xmlns:xlink="http://www.w3.org/1999/xlink" x="0px" y="0px"
	 viewBox="0 0 702.9 228" style="enable-background:new 0 0 702.9 228;" xml:space="preserve">
<style type="text/css">
	.st0{fill:#004D6D;}
	.st1{fill:none;}
	.st2{fill:#0782A4;}
	.st3{fill:#82C341;}
	.st4{fill:#27AAE1;}
</style>
<g>
	<path class="st0" d="M227,127.5c-0.9-1-2.2-1.7-3.8-2.3c-1.6-0.5-3.5-0.8-5.9-0.8h-13.5v36.8h4.1v-15.9h7.3c1.7,0,3.4-0.1,5-0.5
		c1.7-0.3,3.2-0.9,4.6-1.6c1.4-0.8,2.5-1.9,3.3-3.2c0.9-1.4,1.3-3.1,1.3-5.1c0-1.4-0.2-2.7-0.5-3.9
		C228.6,129.6,227.9,128.5,227,127.5z M215.4,141.6H208V128h8.4c3.1,0,5.4,0.6,6.8,1.7c1.4,1.1,2.1,2.7,2.1,4.9
		c0,1.5-0.2,2.7-0.7,3.6c-0.4,0.9-1.1,1.6-1.9,2.1c-0.8,0.5-1.9,0.9-3.1,1.1C218.4,141.5,217,141.6,215.4,141.6z"/>
	<path class="st0" d="M235.5,158.3c1.1,1.2,2.4,2.1,3.9,2.6c1.5,0.6,3.1,0.9,4.8,0.9l0,0c1.8,0,3.6-0.3,5.1-1s2.9-1.6,3.9-2.9
		c1.1-1.2,1.9-2.7,2.5-4.4c0.6-1.7,0.9-3.6,0.9-5.7c0-1.9-0.2-3.8-0.7-5.4c-0.5-1.7-1.3-3.2-2.3-4.5c-1-1.2-2.3-2.3-3.9-3
		c-1.5-0.7-3.4-1.1-5.5-1.1s-3.9,0.4-5.4,1.1c-1.5,0.7-2.9,1.8-3.9,3s-1.8,2.8-2.3,4.4c-0.5,1.7-0.8,3.5-0.8,5.4
		c0,2.3,0.3,4.4,1,6.1C233.5,155.6,234.4,157.1,235.5,158.3z M244.2,137.3c1.5,0,2.8,0.3,3.9,0.8c1,0.5,1.9,1.3,2.6,2.2
		c0.7,0.9,1.2,2.1,1.5,3.4c0.3,1.3,0.5,2.7,0.5,4.2c0,1.4-0.2,2.7-0.5,4c-0.3,1.2-0.8,2.4-1.5,3.4s-1.5,1.8-2.6,2.4
		c-1.1,0.6-2.4,0.9-3.8,0.9c-1.4,0-2.6-0.3-3.6-0.8s-1.9-1.2-2.6-2.1c-0.7-0.9-1.2-2.1-1.6-3.4c-0.4-1.3-0.6-2.8-0.6-4.3
		c0-1.4,0.2-2.7,0.5-4s0.8-2.4,1.5-3.4s1.5-1.8,2.6-2.3C241.5,137.6,242.8,137.3,244.2,137.3z"/>
	<rect x="261.3" y="124.4" class="st0" width="3.8" height="36.8"/>
	<rect x="271.8" y="124.4" class="st0" width="4" height="5.2"/>
	<rect x="271.9" y="134.5" class="st0" width="3.8" height="26.6"/>
	<path class="st0" d="M303.3,155.9c0.6-1.2,1-2.6,1.3-4l0.1-0.4h-4v0.3c-0.4,2.1-1.2,3.7-2.5,4.9s-3,1.8-5.1,1.8
		c-1.5,0-2.8-0.3-3.8-0.9c-1-0.6-1.9-1.4-2.6-2.4s-1.2-2.1-1.5-3.4c-0.3-1.3-0.5-2.6-0.5-3.9c0-1.3,0.2-2.6,0.5-3.9
		c0.3-1.3,0.8-2.4,1.5-3.4s1.5-1.8,2.6-2.4c1-0.6,2.3-0.9,3.8-0.9c1.9,0,3.5,0.5,4.7,1.5s2.1,2.5,2.6,4.3l0.1,0.3h3.8l-0.1-0.4
		c-0.5-3.1-1.7-5.4-3.6-6.9s-4.4-2.2-7.5-2.2c-2,0-3.8,0.4-5.3,1.2s-2.8,1.8-3.9,3.1c-1,1.3-1.8,2.8-2.3,4.5s-0.8,3.5-0.8,5.3
		c0,1.9,0.2,3.8,0.7,5.4c0.5,1.7,1.2,3.2,2.2,4.5s2.3,2.3,3.8,3s3.4,1.1,5.5,1.1c1.7,0,3.2-0.2,4.5-0.7s2.5-1.2,3.4-2.1
		C301.9,158.2,302.7,157.1,303.3,155.9z"/>
	<rect x="309.8" y="134.5" class="st0" width="3.8" height="26.6"/>
	<rect x="309.7" y="124.4" class="st0" width="4" height="5.2"/>
	<path class="st0" d="M339.9,137.7c-1-1.4-2.2-2.4-3.6-3s-3-0.9-4.6-0.9c-1.9,0-3.5,0.4-4.8,1.3c-1.1,0.7-2.1,1.5-3.1,2.5v-3.1H320
		v26.6h3.8v-14.3c0-0.9,0-1.7,0.1-2.5c0.1-0.7,0.2-1.5,0.5-2.3c0.2-0.6,0.5-1.2,1-1.8c0.4-0.6,0.9-1.1,1.5-1.5s1.2-0.8,2-1.1
		c0.7-0.3,1.5-0.4,2.4-0.4c2.3,0,3.9,0.6,4.9,1.6c1,1.1,1.5,2.8,1.5,5v17.3h3.8v-17.3c0-1.1-0.1-2.1-0.2-3.1
		C341,139.7,340.6,138.6,339.9,137.7z"/>
	<path class="st0" d="M358.5,171.8c2.5,0,4.6-0.4,6.2-1.1c1.6-0.7,2.9-1.8,3.8-3s1.6-2.7,1.9-4.3c0.4-1.6,0.5-3.3,0.5-5.1v-23.8
		h-3.8v3.8c-0.3-0.5-0.7-0.9-1.1-1.3c-0.7-0.7-1.5-1.3-2.3-1.7s-1.7-0.8-2.6-1s-1.8-0.4-2.6-0.4c-2.1,0-4,0.4-5.5,1.1
		s-2.8,1.7-3.8,3s-1.7,2.8-2.1,4.5s-0.7,3.5-0.7,5.4c0,1.8,0.2,3.6,0.7,5.3s1.2,3.2,2.2,4.5s2.2,2.3,3.7,3.1s3.3,1.2,5.3,1.2
		c1.9,0,3.7-0.4,5.4-1.3c1.4-0.7,2.5-1.6,3.4-2.8c0,1.1-0.1,2.1-0.2,3.1c-0.2,1.4-0.6,2.6-1.2,3.7c-0.6,1.1-1.5,1.9-2.7,2.6
		c-1.2,0.7-2.8,1-4.7,1c-0.9,0-1.7-0.1-2.5-0.2c-0.8-0.1-1.5-0.4-2.2-0.7c-0.6-0.3-1.2-0.8-1.7-1.4c-0.5-0.6-0.8-1.3-1-2.2l-0.1-0.3
		h-3.9v0.4c0,0.8,0.3,1.7,0.8,2.6c0.5,0.9,1.2,1.8,2.1,2.5s2.1,1.4,3.5,1.9C354.9,171.5,356.6,171.8,358.5,171.8z M358.9,158.4
		c-1.5,0-2.8-0.3-3.9-0.9c-1.1-0.6-2-1.4-2.7-2.4s-1.2-2.2-1.5-3.6c-0.3-1.4-0.5-2.9-0.4-4.5c0-1.6,0.2-3,0.6-4.2s1-2.2,1.8-3.1
		c0.8-0.8,1.7-1.5,2.7-1.9s2.1-0.6,3.4-0.6s2.5,0.3,3.6,0.8c1,0.5,1.9,1.3,2.6,2.2s1.2,2.1,1.6,3.4c0.4,1.3,0.6,2.8,0.6,4.3
		c0,1.4-0.2,2.8-0.6,4.1s-1,2.4-1.7,3.3s-1.6,1.7-2.6,2.2C361.4,158.1,360.2,158.4,358.9,158.4z"/>
	<path class="st0" d="M412.2,157.1l3.3,4h5l-6.2-7.3c0.8-1.4,1.4-2.9,1.8-4.4c0.4-1.6,0.6-3.3,0.6-4.9v-0.4H413v0.4
		c0,1.2-0.1,2.4-0.3,3.6c-0.1,1-0.5,1.9-0.9,2.8l-8.4-9.9c0.8-0.5,1.6-1,2.3-1.5c0.9-0.6,1.7-1.2,2.3-1.9c0.7-0.7,1.2-1.5,1.6-2.5
		c0.4-0.9,0.6-2,0.6-3.3c0-1-0.2-1.9-0.6-2.8c-0.4-0.9-0.9-1.7-1.6-2.3c-0.7-0.7-1.5-1.2-2.5-1.6c-1.9-0.8-4.4-0.7-6.4-0.1
		c-1,0.3-1.9,0.8-2.7,1.4c-0.8,0.6-1.4,1.4-1.9,2.3s-0.7,2-0.7,3.2c0,1.7,0.4,3.2,1.3,4.6c0.7,1.2,1.5,2.3,2.4,3.4
		c-1,0.5-2,1.1-2.9,1.7c-1.1,0.7-2,1.6-2.8,2.5c-0.8,1-1.5,2-1.9,3.2c-0.5,1.2-0.7,2.5-0.7,3.8c0,1.6,0.3,3.2,0.9,4.5
		s1.4,2.5,2.5,3.5s2.3,1.7,3.7,2.2c1.4,0.5,2.9,0.8,4.5,0.8c2.5,0,4.6-0.4,6.5-1.2C409,160.1,410.7,158.8,412.2,157.1z M402.1,127.9
		c0.9,0,1.6,0.2,2.2,0.6s1.1,0.8,1.5,1.4s0.5,1.2,0.6,1.9c0,0.7-0.1,1.3-0.3,1.9c-0.5,1.1-1.2,1.9-2.1,2.6c-0.9,0.6-1.8,1.2-2.7,1.8
		c-0.3-0.3-0.6-0.7-0.9-1.2c-0.4-0.6-0.8-1.1-1.2-1.7c-0.4-0.6-0.7-1.2-1-1.8c-0.2-0.6-0.4-1.1-0.4-1.6c0-0.6,0.1-1.1,0.4-1.6
		c0.2-0.5,0.6-0.9,1-1.2s0.9-0.6,1.4-0.8C401,127.9,401.5,127.9,402.1,127.9z M401,158.7c-1.1,0-2.2-0.2-3.1-0.5s-1.8-0.8-2.4-1.5
		c-0.7-0.6-1.2-1.4-1.6-2.3c-0.4-0.9-0.6-1.9-0.6-3.1c0-0.9,0.2-1.8,0.5-2.7c0.4-0.9,0.8-1.7,1.4-2.5s1.3-1.5,2.1-2.1
		c0.8-0.6,1.6-1.1,2.5-1.5l9.9,11.7c-1.1,1.3-2.4,2.4-3.7,3.1C404.6,158.2,402.9,158.7,401,158.7z"/>
	<path class="st0" d="M467.7,148.6h-4.3l-0.1,0.3c-0.3,1.4-0.8,2.7-1.4,3.9s-1.4,2.2-2.3,3s-2,1.5-3.2,2s-2.6,0.7-4.1,0.7
		c-2.4,0-4.4-0.4-6-1.4c-1.6-0.9-2.8-2.1-3.8-3.6c-0.9-1.5-1.6-3.2-2-5.1c-0.4-1.9-0.6-3.9-0.6-5.8c0-2.1,0.2-4.1,0.7-6
		s1.2-3.5,2.2-4.9s2.2-2.6,3.8-3.4c1.5-0.8,3.3-1.2,5.4-1.2c3,0,5.4,0.6,7.2,1.9c1.8,1.2,3.1,3.4,3.8,6.3l0.1,0.3h4.2l-0.1-0.4
		c-0.3-1.9-0.9-3.6-1.7-5.1c-0.8-1.4-1.8-2.7-3.1-3.7c-1.2-1-2.7-1.7-4.3-2.2c-1.6-0.5-3.4-0.7-5.2-0.7c-2.4,0-4.7,0.3-6.8,1
		c-2.1,0.7-3.9,1.8-5.5,3.4c-1.5,1.5-2.8,3.6-3.6,6c-0.9,2.4-1.3,5.4-1.3,8.9c0,2.6,0.3,5.1,0.9,7.4c0.6,2.3,1.5,4.4,2.8,6.1
		c1.3,1.8,3,3.2,5,4.2s4.5,1.6,7.3,1.6c2.4,0,4.6-0.4,6.4-1.1s3.4-1.7,4.7-2.9s2.3-2.6,3.1-4.2c0.8-1.6,1.4-3.2,1.8-5V148.6z"/>
	<path class="st0" d="M494.9,142.4c-0.5-1.7-1.3-3.2-2.3-4.5c-1-1.2-2.3-2.3-3.9-3c-1.5-0.7-3.4-1.1-5.5-1.1c-2,0-3.9,0.4-5.4,1.1
		s-2.9,1.8-3.9,3s-1.8,2.8-2.3,4.4c-0.5,1.7-0.8,3.5-0.8,5.4c0,2.3,0.3,4.4,1,6.1c0.6,1.7,1.5,3.2,2.7,4.4c1.1,1.2,2.4,2.1,3.9,2.6
		s3.1,0.9,4.8,0.9l0,0c1.8,0,3.5-0.3,5.1-1s2.9-1.6,3.9-2.9s1.9-2.7,2.5-4.4s0.9-3.6,0.9-5.7C495.6,145.9,495.4,144.1,494.9,142.4z
		 M483.2,137.3c1.5,0,2.8,0.3,3.9,0.8s1.9,1.3,2.6,2.2s1.2,2.1,1.5,3.4c0.3,1.3,0.5,2.7,0.5,4.2c0,1.4-0.2,2.7-0.5,4
		c-0.3,1.2-0.8,2.4-1.5,3.4s-1.5,1.8-2.6,2.4c-1,0.6-2.4,0.9-3.8,0.9s-2.6-0.3-3.6-0.8s-1.9-1.2-2.6-2.1c-0.7-0.9-1.2-2.1-1.6-3.4
		c-0.4-1.3-0.6-2.8-0.6-4.3c0-1.4,0.2-2.7,0.5-4s0.8-2.4,1.5-3.4s1.5-1.8,2.6-2.3C480.5,137.6,481.8,137.3,483.2,137.3z"/>
	<path class="st0" d="M534,137.2c-0.6-1-1.5-1.8-2.6-2.4c-1.1-0.6-2.6-0.9-4.4-0.9c-1.9,0-3.7,0.4-5.2,1.3c-1.3,0.7-2.4,1.8-3.2,3.2
		c-0.2-0.4-0.5-0.9-0.7-1.3c-0.4-0.6-0.9-1.2-1.5-1.7s-1.4-0.9-2.2-1.1c-0.9-0.3-1.9-0.4-3.2-0.4c-1.8,0-3.4,0.4-4.9,1.2
		c-1.1,0.6-2.1,1.5-2.9,2.6v-3.1h-3.8v26.6h3.8v-14.3c0-0.5,0-1.1,0.1-1.7c0-0.6,0.1-1.2,0.3-1.9c0.1-0.6,0.3-1.2,0.5-1.8
		s0.5-1,0.8-1.4c0.7-0.9,1.6-1.7,2.5-2.1c1-0.5,2-0.7,3-0.7c2,0,3.4,0.5,4.1,1.4c0.7,1,1.1,2.4,1.1,4.2v18.3h3.8v-14.3
		c0-0.5,0-1.1,0.1-1.7c0-0.6,0.1-1.2,0.3-1.9c0.1-0.6,0.3-1.2,0.5-1.8s0.5-1,0.8-1.4c0.7-0.9,1.6-1.7,2.5-2.1c1-0.5,2-0.7,3-0.7
		c2,0,3.4,0.5,4.1,1.4c0.7,1,1.1,2.4,1.1,4.2v18.3h3.8v-16.7c0-1.3-0.1-2.6-0.3-3.9C535,139.3,534.6,138.1,534,137.2z"/>
	<path class="st0" d="M576.6,161.2v-16.7c0-1.3-0.1-2.6-0.3-3.9c-0.2-1.3-0.6-2.4-1.2-3.4c-0.6-1-1.5-1.8-2.6-2.4
		c-1.1-0.6-2.6-0.9-4.4-0.9c-1.9,0-3.7,0.4-5.2,1.3c-1.3,0.7-2.4,1.8-3.2,3.2c-0.2-0.5-0.5-0.9-0.7-1.3c-0.4-0.6-0.9-1.2-1.5-1.7
		s-1.4-0.9-2.2-1.1c-0.9-0.3-1.9-0.4-3.2-0.4c-1.8,0-3.4,0.4-4.9,1.2c-1.2,0.6-2.1,1.5-2.8,2.6v-3.1h-3.8v26.6h3.8v-14.3
		c0-0.5,0-1.1,0.1-1.7c0-0.6,0.1-1.2,0.3-1.9c0.1-0.6,0.3-1.2,0.5-1.8c0.2-0.5,0.5-1,0.8-1.4c0.7-0.9,1.6-1.7,2.5-2.1
		c1-0.5,2-0.7,3-0.7c2,0,3.4,0.5,4.1,1.4c0.7,1,1.1,2.4,1.1,4.2v18.3h3.8v-14.3c0-0.5,0-1.1,0.1-1.7c0-0.6,0.1-1.2,0.3-1.9
		s0.3-1.2,0.5-1.8s0.5-1,0.8-1.4c0.7-0.9,1.6-1.7,2.5-2.1c1-0.5,2-0.7,3-0.7c2,0,3.4,0.5,4.1,1.4c0.7,1,1.1,2.4,1.1,4.2v18.3
		L576.6,161.2L576.6,161.2z"/>
	<path class="st0" d="M603.5,161.2v-26.6h-3.8V149c0,1.4-0.2,2.7-0.5,3.8s-0.8,2.2-1.5,3c-0.6,0.8-1.4,1.5-2.3,1.9
		c-0.9,0.5-2,0.7-3.2,0.7c-2.2,0-3.9-0.6-4.8-1.6c-1-1.1-1.5-2.8-1.5-4.9v-17.4h-3.8v17.4c0,1.4,0.2,2.7,0.5,3.9s0.9,2.3,1.6,3.2
		c0.8,0.9,1.8,1.6,3,2.1s2.7,0.8,4.5,0.8c1.2,0,2.2-0.1,3.1-0.4c0.9-0.3,1.7-0.7,2.4-1.1s1.3-0.9,1.8-1.4c0.2-0.2,0.5-0.5,0.7-0.7v3
		L603.5,161.2L603.5,161.2z"/>
	<path class="st0" d="M629.4,137.7c-1-1.4-2.2-2.4-3.6-3c-1.4-0.6-3-0.9-4.6-0.9c-1.9,0-3.5,0.4-4.8,1.3c-1.1,0.7-2.1,1.5-3.2,2.5
		v-3.1h-3.8v26.6h3.8v-14.3c0-0.9,0-1.7,0.1-2.5c0.1-0.7,0.2-1.5,0.5-2.3c0.2-0.6,0.5-1.2,1-1.8c0.4-0.6,0.9-1.1,1.5-1.5
		s1.2-0.8,2-1.1c0.7-0.3,1.5-0.4,2.4-0.4c2.3,0,3.9,0.6,4.9,1.6c1,1.1,1.5,2.8,1.5,5v17.3h3.8v-17.3c0-1.1-0.1-2.1-0.2-3.1
		C630.5,139.7,630.1,138.6,629.4,137.7z"/>
	<rect x="637.1" y="124.4" class="st0" width="4" height="5.2"/>
	<rect x="637.2" y="134.5" class="st0" width="3.8" height="26.6"/>
	<path class="st0" d="M655.6,158.3c-1,0.2-2,0.1-2.5-0.1c-0.3-0.1-0.5-0.3-0.6-0.5s-0.2-0.6-0.2-1c0-0.5,0-1,0-1.6v-17.4h4.8v-3.2
		h-4.8v-7.2h-3.8v7.2h-3.7v3.2h3.7v18.6c0,2.1,0.4,3.5,1.3,4.3c0.8,0.8,2.1,1.2,3.7,1.2c0.8,0,1.5-0.1,2.1-0.3s1.1-0.3,1.4-0.3
		l0.3-0.1V158l-0.5,0.1C656.4,158.2,656,158.2,655.6,158.3z"/>
	<path class="st0" d="M678.1,134.5l-8,21.6l-8-21.6h-4.2l10.2,26.4c-0.3,0.6-0.5,1.2-0.8,2c-0.2,0.8-0.5,1.6-0.8,2.3
		s-0.8,1.3-1.2,1.8c-0.5,0.5-1,0.7-1.8,0.7c-0.4,0-0.8,0-1.2-0.1l-1.7-0.3v3.6l0.3,0.1c0.4,0.1,0.9,0.2,1.4,0.3s1,0.1,1.6,0.1
		c1.1,0,2.1-0.3,2.9-0.8c0.8-0.5,1.5-1.2,2.2-2.2c0.6-0.9,1.2-2.1,1.8-3.4c0.5-1.3,1.1-2.8,1.7-4.4l9.8-26.1L678.1,134.5
		L678.1,134.5z"/>
	<path class="st0" d="M225.7,193.8c-1-0.8-2.1-1.4-3.4-1.8c-1.3-0.4-2.6-0.8-3.9-1.1c-1.3-0.3-2.6-0.6-3.9-0.9
		c-1.2-0.3-2.4-0.6-3.5-1.1c-1-0.4-1.9-1-2.6-1.6c-0.7-0.6-1.1-1.5-1.3-2.6c-0.2-0.9-0.1-1.8,0.1-2.6c0.2-0.9,0.7-1.7,1.4-2.4
		s1.6-1.3,2.7-1.8c1.1-0.5,2.6-0.7,4.2-0.7c1.1,0,2.2,0.1,3.2,0.4c1,0.3,1.9,0.7,2.7,1.3s1.4,1.4,1.9,2.3c0.5,0.9,0.7,2.1,0.7,3.4
		v0.4h4v-0.4c0-1.5-0.3-2.9-0.8-4.3c-0.5-1.3-1.3-2.5-2.3-3.6c-1-1-2.4-1.8-3.9-2.4c-1.6-0.6-3.4-0.9-5.5-0.9c-2,0-3.9,0.3-5.4,0.8
		c-1.6,0.6-2.9,1.3-3.9,2.2c-1.1,0.9-1.9,2-2.4,3.2s-0.8,2.5-0.8,3.8c0,1.8,0.3,3.4,1,4.6c0.7,1.2,1.5,2.2,2.6,2.9
		c1,0.8,2.3,1.4,3.6,1.8c1.3,0.4,2.7,0.8,4.1,1.1c1.4,0.3,2.7,0.6,4,1c1.3,0.3,2.4,0.8,3.4,1.3s1.8,1.2,2.4,2
		c0.6,0.8,0.9,1.9,0.9,3.2c0,0.9-0.2,1.9-0.5,2.7s-0.8,1.6-1.5,2.2s-1.6,1.2-2.7,1.5c-1.1,0.4-2.5,0.6-4,0.6c-1.3,0-2.6-0.2-3.8-0.5
		c-1.1-0.3-2.2-0.8-3-1.5c-0.9-0.7-1.6-1.5-2.1-2.6c-0.6-1.1-0.9-2.4-1-3.9v-0.3h-4v0.4c0,2,0.3,3.8,1,5.3s1.6,2.8,2.8,3.8
		s2.6,1.8,4.3,2.3c1.6,0.5,3.4,0.7,5.3,0.7c4.2,0,7.6-0.9,9.9-2.8c2.4-1.9,3.6-4.6,3.6-8c0-1.8-0.3-3.3-0.9-4.5
		C227.5,195.5,226.7,194.6,225.7,193.8z"/>
	<path class="st0" d="M254.8,208.3c-0.2-0.1-0.5-0.6-0.5-1.9v-14.1c0-1.6-0.3-2.9-0.8-4s-1.2-2-2.1-2.6c-0.9-0.6-1.9-1.1-3.1-1.4
		c-2.4-0.6-5.4-0.6-7.8,0.1c-1.3,0.3-2.4,0.9-3.4,1.6c-1,0.7-1.8,1.6-2.4,2.8c-0.6,1.1-1,2.5-1.1,4.1v0.4h3.8V193
		c0.1-1.1,0.4-2,0.8-2.7c0.4-0.7,0.9-1.3,1.5-1.7s1.3-0.7,2.1-0.9s1.8-0.3,2.8-0.3c2.2,0,3.8,0.5,4.7,1.4s1.4,2.1,1.4,3.5
		c0,0.4-0.1,0.9-0.2,1.4c-0.1,0.4-0.3,0.7-0.7,0.9c-0.5,0.2-1.1,0.4-1.8,0.5c-0.8,0.1-1.4,0.2-2,0.3l-4.1,0.6
		c-6.2,0.8-9.4,3.6-9.4,8.2c0,1.3,0.2,2.5,0.7,3.4c0.5,1,1.2,1.8,2,2.4s1.8,1.2,2.9,1.5c1.1,0.3,2.2,0.5,3.4,0.5
		c1.9,0,3.8-0.4,5.4-1.1c1.4-0.6,2.7-1.5,3.9-2.6c0,0.2,0,0.3,0.1,0.5c0.1,0.5,0.2,0.9,0.4,1.3c0.2,0.4,0.5,0.7,0.8,1
		c0.4,0.3,0.8,0.5,1.4,0.6c0.9,0.2,1.9,0.2,2.9-0.1c0.5-0.1,0.8-0.2,1-0.3l0.3-0.1V208l-0.5,0.2C255.8,208.4,255,208.5,254.8,208.3z
		 M239.5,208.1c-0.6-0.2-1.2-0.4-1.7-0.8c-0.5-0.4-0.9-0.8-1.1-1.3c-0.3-0.5-0.4-1.2-0.4-1.9c0-1.6,0.6-2.8,1.8-3.6s3-1.3,5.2-1.5
		c1.3-0.1,2.6-0.2,3.9-0.4c1.1-0.1,2.3-0.4,3.4-0.9v3.5c0,1.2-0.2,2.3-0.8,3.2c-0.5,0.9-1.2,1.6-2,2.2c-0.8,0.6-1.8,1-2.9,1.3
		C243.1,208.4,241.3,208.6,239.5,208.1z"/>
	<path class="st0" d="M269.3,173.8c-0.4,0-0.9-0.1-1.3-0.1c-2.1,0-3.7,0.7-4.6,2s-1.3,3-1.3,5.1v3.7h-3.9v3.2h3.9v23.4h3.8v-23.4h5
		v-3.2h-5v-2.8c0-0.6,0-1.2,0.1-1.7c0-0.5,0.2-1,0.4-1.5c0.2-0.4,0.4-0.7,0.8-1c0.6-0.4,1.8-0.5,3.3-0.1l0.5,0.1V174l-0.3-0.1
		C270.1,173.8,269.7,173.8,269.3,173.8z"/>
	<path class="st0" d="M285.2,183.8c-1.9,0-3.6,0.4-5.2,1.1c-1.5,0.7-2.8,1.8-3.9,3.1c-1,1.3-1.9,2.8-2.4,4.5
		c-0.6,1.7-0.8,3.5-0.8,5.5c0,1.9,0.2,3.8,0.7,5.4c0.5,1.7,1.2,3.2,2.2,4.4c1,1.3,2.3,2.3,3.8,3s3.4,1.1,5.5,1.1
		c1.7,0,3.1-0.2,4.4-0.7c1.3-0.4,2.4-1.1,3.3-1.9s1.7-1.8,2.3-2.9c0.6-1.1,1.1-2.2,1.5-3.5l0.1-0.5h-4.1l-0.1,0.3
		c-0.4,1.8-1.3,3.2-2.7,4.2c-1.3,1-3,1.5-4.8,1.5c-1.4,0-2.6-0.3-3.6-0.8s-1.9-1.2-2.6-2.1c-0.7-0.9-1.2-1.9-1.6-3.1
		c-0.3-1.1-0.5-2.3-0.5-3.5H297v-0.4c0-4.7-1-8.4-3.1-10.9C291.8,185.1,288.9,183.8,285.2,183.8z M285.2,187.3
		c1.3,0,2.4,0.2,3.4,0.7s1.8,1.1,2.5,1.9c0.6,0.8,1.1,1.7,1.5,2.8c0.3,1,0.5,2,0.5,3.1H277c0.1-1.1,0.4-2.1,0.8-3
		c0.4-1.1,1-2,1.7-2.8s1.5-1.4,2.5-1.9C282.8,187.5,283.9,187.3,285.2,187.3z"/>
	<path class="st0" d="M309.8,208.3c-1,0.2-2,0.1-2.5-0.1c-0.3-0.1-0.5-0.3-0.6-0.5s-0.2-0.6-0.2-1c0-0.5,0-1,0-1.6v-17.4h4.9v-3.2
		h-4.9v-7.2h-3.8v7.2H299v3.2h3.6v18.6c0,2.1,0.4,3.5,1.3,4.3s2.1,1.2,3.7,1.2c0.8,0,1.5-0.1,2.1-0.3s1.1-0.3,1.4-0.3l0.3-0.1V208
		l-0.5,0.1C310.6,208.2,310.2,208.2,309.8,208.3z"/>
	<path class="st0" d="M324.3,206.1l-8-21.6h-4.2l10.2,26.4c-0.3,0.6-0.5,1.2-0.8,2c-0.2,0.8-0.5,1.6-0.9,2.3
		c-0.3,0.7-0.8,1.3-1.2,1.8c-0.5,0.5-1,0.7-1.8,0.7c-0.4,0-0.8,0-1.2-0.1l-1.7-0.3v3.6l0.3,0.1c0.4,0.1,0.9,0.2,1.4,0.3
		s1,0.1,1.6,0.1c1.1,0,2.1-0.3,2.9-0.8s1.5-1.2,2.2-2.2c0.6-0.9,1.2-2.1,1.8-3.4c0.5-1.3,1.1-2.8,1.7-4.4l9.8-26.1h-4L324.3,206.1z"
		/>
	<path class="st0" d="M376.4,177.5c-0.9-1-2.2-1.7-3.8-2.3c-1.5-0.5-3.5-0.8-5.9-0.8h-13.5v36.8h4.1v-15.9h7.3c1.7,0,3.4-0.1,5-0.5
		c1.7-0.3,3.2-0.9,4.5-1.6c1.4-0.8,2.5-1.9,3.3-3.2c0.9-1.4,1.3-3.1,1.3-5.1c0-1.4-0.2-2.7-0.5-3.9
		C377.9,179.6,377.3,178.5,376.4,177.5z M364.8,191.6h-7.4V178h8.4c3.1,0,5.4,0.6,6.8,1.7c1.4,1.1,2.1,2.7,2.1,4.9
		c0,1.5-0.2,2.7-0.7,3.6c-0.5,0.9-1.1,1.6-1.9,2.1s-1.9,0.9-3.1,1.1C367.8,191.5,366.3,191.6,364.8,191.6z"/>
	<path class="st0" d="M404.1,208.3c-0.2-0.1-0.5-0.6-0.5-1.9v-14.1c0-1.6-0.3-2.9-0.8-4s-1.2-2-2.1-2.6s-1.9-1.1-3.1-1.4
		c-2.4-0.6-5.4-0.6-7.8,0.1c-1.3,0.3-2.4,0.9-3.4,1.6c-1,0.7-1.8,1.6-2.4,2.8c-0.6,1.1-1,2.5-1.1,4.1v0.4h3.8V193
		c0.1-1.1,0.4-2,0.8-2.7s0.9-1.3,1.5-1.7s1.3-0.7,2.1-0.9c0.8-0.2,1.8-0.3,2.8-0.3c2.2,0,3.8,0.5,4.7,1.4c0.9,0.9,1.4,2.1,1.4,3.5
		c0,0.4-0.1,0.9-0.2,1.4c-0.1,0.4-0.3,0.7-0.7,0.9c-0.5,0.2-1.1,0.4-1.8,0.5c-0.8,0.1-1.4,0.2-2,0.3l-4.1,0.6
		c-6.2,0.8-9.4,3.6-9.4,8.2c0,1.3,0.2,2.5,0.7,3.4c0.5,1,1.2,1.8,2,2.4s1.8,1.2,2.9,1.5s2.2,0.5,3.4,0.5c1.9,0,3.8-0.4,5.5-1.1
		c1.4-0.6,2.7-1.5,3.9-2.6c0,0.2,0,0.3,0.1,0.5c0.1,0.5,0.2,0.9,0.4,1.3c0.2,0.4,0.5,0.7,0.8,1c0.4,0.3,0.8,0.5,1.4,0.6
		c0.9,0.2,1.9,0.2,2.9-0.1c0.5-0.1,0.8-0.2,1-0.3l0.3-0.1V208l-0.5,0.2C405.2,208.4,404.4,208.5,404.1,208.3z M388.8,208.1
		c-0.6-0.2-1.2-0.4-1.7-0.8c-0.5-0.4-0.9-0.8-1.1-1.3c-0.3-0.5-0.4-1.2-0.4-1.9c0-1.6,0.6-2.8,1.8-3.6c1.2-0.8,3-1.3,5.2-1.5
		c1.3-0.1,2.6-0.2,3.9-0.4c1.1-0.1,2.3-0.4,3.4-0.9v3.5c0,1.2-0.2,2.3-0.8,3.2c-0.5,0.9-1.2,1.6-2,2.2c-0.8,0.6-1.8,1-2.9,1.3
		C392.5,208.4,390.6,208.6,388.8,208.1z"/>
	<path class="st0" d="M416.9,185.1c-1.1,0.7-2,1.7-2.8,3.1v-3.7h-3.8v26.6h3.8V198c0-1.4,0.1-2.8,0.4-4.1c0.2-1.3,0.7-2.4,1.3-3.3
		c0.6-0.9,1.5-1.6,2.5-2.2c1-0.5,2.2-0.8,3.8-0.8h0.6v-4h-0.4C420.1,183.8,418.2,184.2,416.9,185.1z"/>
	<path class="st0" d="M435.5,208.3c-1,0.2-2,0.1-2.5-0.1c-0.3-0.1-0.5-0.3-0.6-0.5s-0.2-0.6-0.2-1c0-0.5,0-1,0-1.6v-17.4h4.9v-3.2
		h-4.9v-7.2h-3.8v7.2h-3.6v3.2h3.6v18.6c0,2.1,0.4,3.5,1.3,4.3s2.1,1.2,3.7,1.2c0.8,0,1.5-0.1,2.1-0.3s1.1-0.3,1.4-0.3l0.3-0.1V208
		l-0.5,0.1C436.3,208.2,435.9,208.2,435.5,208.3z"/>
	<path class="st0" d="M460.6,187.7c-1-1.4-2.2-2.4-3.6-3s-3-0.9-4.6-0.9c-1.9,0-3.5,0.4-4.8,1.3c-1.1,0.7-2.1,1.5-3.1,2.5v-3.1h-3.8
		v26.6h3.8v-14.3c0-0.9,0-1.7,0.1-2.5c0.1-0.7,0.2-1.5,0.5-2.3c0.2-0.6,0.5-1.2,1-1.8c0.4-0.6,0.9-1.1,1.5-1.5s1.2-0.8,2-1.1
		c0.7-0.3,1.5-0.4,2.4-0.4c2.3,0,3.9,0.6,4.9,1.6c1,1.1,1.5,2.8,1.5,5v17.3h3.8v-17.3c0-1.1-0.1-2.1-0.2-3.1
		C461.7,189.7,461.3,188.6,460.6,187.7z"/>
	<path class="st0" d="M478.9,183.8c-1.9,0-3.6,0.4-5.2,1.1c-1.5,0.7-2.8,1.8-3.9,3.1s-1.9,2.8-2.4,4.5c-0.6,1.7-0.8,3.5-0.8,5.5
		c0,1.9,0.2,3.8,0.7,5.4c0.5,1.7,1.2,3.2,2.2,4.4c1,1.3,2.3,2.3,3.8,3s3.4,1.1,5.5,1.1c1.7,0,3.1-0.2,4.4-0.7
		c1.3-0.4,2.4-1.1,3.3-1.9c0.9-0.8,1.7-1.8,2.3-2.9c0.6-1.1,1.1-2.2,1.5-3.5l0.1-0.5h-4.1l-0.1,0.3c-0.4,1.8-1.3,3.2-2.7,4.2
		c-1.3,1-3,1.5-4.8,1.5c-1.4,0-2.6-0.3-3.6-0.8s-1.9-1.2-2.6-2.1c-0.7-0.9-1.2-1.9-1.6-3.1c-0.3-1.1-0.5-2.3-0.5-3.5h20.1v-0.4
		c0-4.7-1-8.4-3.1-10.9C485.5,185.1,482.6,183.8,478.9,183.8z M478.9,187.3c1.3,0,2.4,0.2,3.4,0.7s1.8,1.1,2.5,1.9
		c0.6,0.8,1.1,1.7,1.5,2.8c0.3,1,0.5,2,0.5,3.1h-16.1c0.1-1.1,0.4-2.1,0.8-3c0.4-1.1,1-2,1.7-2.8s1.5-1.4,2.5-1.9
		C476.5,187.5,477.6,187.3,478.9,187.3z"/>
	<path class="st0" d="M501.9,185.1c-1.1,0.7-2,1.7-2.8,3.1v-3.7h-3.8v26.6h3.8V198c0-1.4,0.1-2.8,0.4-4.1c0.2-1.3,0.7-2.4,1.3-3.3
		c0.6-0.9,1.5-1.6,2.5-2.2c1-0.5,2.2-0.8,3.8-0.8h0.6v-4h-0.4C505.1,183.8,503.3,184.2,501.9,185.1z"/>
	<path class="st0" d="M526.8,197.5c-1.2-0.6-2.6-1-4.1-1.3c-1.4-0.3-2.8-0.6-4-1s-2.2-0.9-3-1.4c-0.7-0.6-1.1-1.3-1.1-2.4
		c0-1.2,0.5-2.2,1.4-2.9c0.9-0.8,2.3-1.1,4.1-1.1s3.3,0.4,4.5,1.2s1.9,2.1,2.1,4v0.3h3.8v-0.4c-0.4-3-1.5-5.2-3.3-6.5
		s-4.2-1.9-7-1.9c-3,0-5.3,0.7-7,2.2c-1.7,1.4-2.5,3.3-2.5,5.6c0,1.8,0.4,3.2,1.3,4.2c0.8,1,1.9,1.7,3.2,2.2
		c1.2,0.5,2.6,0.9,4.1,1.1c1.4,0.2,2.8,0.6,4,0.9c1.2,0.3,2.2,0.8,3,1.4c0.7,0.6,1.1,1.4,1.1,2.5c0,0.6-0.1,1.1-0.4,1.6
		c-0.2,0.5-0.6,1-1.1,1.4s-1.1,0.8-1.8,1c-0.8,0.2-1.7,0.4-2.7,0.4c-2.2,0-3.8-0.4-5-1.3c-1.1-0.9-1.9-2.4-2.4-4.5l-0.1-0.3h-3.8
		v0.4c0.1,1.3,0.4,2.5,0.8,3.6c0.5,1.1,1.2,2.1,2,2.9c0.9,0.8,1.9,1.5,3.2,1.9c1.2,0.5,2.6,0.7,4.2,0.7c1.5,0,3-0.2,4.3-0.5
		s2.5-0.8,3.5-1.5s1.8-1.5,2.3-2.5c0.6-1,0.8-2.2,0.8-3.5c0-1.8-0.4-3.1-1.3-4.1C529.1,198.8,528,198,526.8,197.5z"/>
	<path class="st0" d="M555.9,187.7c-1-1.4-2.2-2.4-3.6-3c-1.4-0.6-3-0.9-4.6-0.9c-1.9,0-3.5,0.4-4.8,1.3c-1.1,0.7-2.1,1.5-3.2,2.5
		v-13.2h-3.8v36.8h3.8v-14.3c0-0.9,0-1.7,0.1-2.5c0.1-0.7,0.2-1.5,0.5-2.3c0.2-0.6,0.5-1.2,1-1.8c0.4-0.6,0.9-1.1,1.5-1.5
		s1.2-0.8,2-1.1c0.7-0.3,1.5-0.4,2.4-0.4c2.3,0,3.9,0.6,4.9,1.6c1,1.1,1.5,2.8,1.5,5v17.3h3.8v-17.3c0-1.1-0.1-2.1-0.2-3.1
		C556.9,189.7,556.5,188.6,555.9,187.7z"/>
	<rect x="563.5" y="174.4" class="st0" width="4" height="5.2"/>
	<rect x="563.7" y="184.5" class="st0" width="3.8" height="26.6"/>
	<path class="st0" d="M595.9,187.9c-1-1.3-2.2-2.3-3.8-3s-3.4-1.1-5.5-1.1c-0.9,0-1.8,0.1-2.7,0.4c-0.9,0.2-1.8,0.6-2.6,1
		s-1.6,1-2.3,1.7c-0.4,0.4-0.8,0.9-1.1,1.3v-3.8h-3.8v36.8h3.8v-13.5c0.9,1.2,2.1,2.1,3.4,2.8c1.7,0.8,3.6,1.3,5.4,1.3
		c2,0,3.8-0.4,5.3-1.2s2.8-1.8,3.7-3.1c1-1.3,1.7-2.8,2.2-4.5s0.7-3.5,0.7-5.3c0-1.9-0.2-3.8-0.7-5.4
		C597.6,190.6,596.9,189.1,595.9,187.9z M594.4,201.5c-0.3,1.4-0.8,2.6-1.5,3.6s-1.6,1.8-2.7,2.4c-1.1,0.6-2.4,0.9-3.8,0.9
		c-1.3,0-2.5-0.3-3.5-0.8c-1-0.6-1.9-1.3-2.6-2.2c-0.7-0.9-1.3-2.1-1.7-3.3c-0.4-1.3-0.6-2.6-0.6-4.1s0.2-3,0.6-4.3
		c0.4-1.3,0.9-2.4,1.6-3.4c0.7-0.9,1.6-1.7,2.6-2.2s2.2-0.8,3.6-0.8c1.2,0,2.3,0.2,3.3,0.6c1,0.4,1.9,1.1,2.7,1.9
		c0.8,0.8,1.4,1.9,1.8,3.1s0.7,2.6,0.7,4.2C594.8,198.6,594.7,200.1,594.4,201.5z"/>
	<path class="st0" d="M619.2,197.5c-1.2-0.6-2.6-1-4.1-1.3c-1.4-0.3-2.8-0.6-4-1s-2.2-0.9-3-1.4c-0.7-0.6-1.1-1.3-1.1-2.4
		c0-1.2,0.5-2.2,1.4-2.9c0.9-0.8,2.3-1.1,4.1-1.1s3.3,0.4,4.5,1.2s1.9,2.1,2.1,4v0.3h3.8v-0.4c-0.4-3-1.5-5.2-3.3-6.5
		s-4.2-1.9-7-1.9c-3,0-5.3,0.7-7,2.2c-1.7,1.4-2.5,3.3-2.5,5.6c0,1.8,0.4,3.2,1.3,4.2c0.8,1,1.9,1.7,3.2,2.2
		c1.2,0.5,2.6,0.9,4.1,1.1c1.4,0.2,2.8,0.6,4,0.9c1.2,0.3,2.2,0.8,3,1.4c0.7,0.6,1.1,1.4,1.1,2.5c0,0.6-0.1,1.1-0.4,1.6
		c-0.2,0.5-0.6,1-1.1,1.4s-1.1,0.8-1.8,1c-0.8,0.2-1.7,0.4-2.7,0.4c-2.2,0-3.8-0.4-5-1.3c-1.1-0.9-1.9-2.4-2.4-4.5l-0.1-0.3h-3.8
		v0.4c0.1,1.3,0.3,2.5,0.8,3.6s1.2,2.1,2,2.9c0.9,0.8,1.9,1.5,3.2,1.9c1.2,0.5,2.6,0.7,4.2,0.7c1.5,0,3-0.2,4.3-0.5s2.5-0.8,3.5-1.5
		s1.8-1.5,2.3-2.5c0.6-1,0.8-2.2,0.8-3.5c0-1.8-0.4-3.1-1.3-4.1C621.6,198.8,620.5,198,619.2,197.5z"/>
</g>
<g>
	<path class="st1" d="M50.7,58.8H33.5v36.4h11.3c3-7,7.5-13.4,13.5-19.1c3.8-3.6,7.9-6.7,12.3-9.2C67.2,61.6,60.7,58.8,50.7,58.8z"
		/>
	<path class="st1" d="M190.3,58.8H173v36.4h18.2c6.8,0,12-1.6,15.6-4.8c3.7-3.2,5.5-7.8,5.5-13.7C212.4,64.8,205.1,58.8,190.3,58.8z
		"/>
	<path class="st2" d="M58.3,109.4c5.1-0.6,9.4-1.5,12.9-2.9c5.9-2.4,10.5-6.2,13.9-11.4c3.4-5.2,5.1-11.2,5.1-18c0-0.3,0-0.6,0-0.8
		c-7.4,1.9-13.9,5.6-19.5,10.9C64.1,93.5,60,100.9,58.3,109.4z"/>
	<path class="st2" d="M33.5,95.2V58.8h17.2c10,0,16.5,2.7,19.8,8.1c4.9-2.8,10.2-4.9,15.8-6.2c-1.6-2.9-3.6-5.4-6.1-7.7
		c-6.6-6-15.5-9-26.6-9H16.7v116.5h16.7V110h7.2c0.7-5.2,2.1-10.2,4.1-14.8H33.5L33.5,95.2z"/>
	<path class="st2" d="M156.3,105.7v0.7c0-0.2,0-0.3,0-0.5C156.3,105.9,156.3,105.8,156.3,105.7z"/>
	<path class="st0" d="M219.8,53c-6.6-6-15.5-9-26.6-9h-36.9v31.8c10.4,7.8,15.7,17.4,15.7,28.6c0,9.3-3.1,16.9-9.4,22.7
		c-1.9,1.8-4,3.3-6.3,4.6v28.8H173V110h12.3c11,0,19.4-1.2,25.3-3.5c5.9-2.4,10.5-6.2,13.9-11.4s5.1-11.2,5.1-18
		C229.7,67.1,226.4,59,219.8,53z M206.9,90.4c-3.7,3.2-8.9,4.8-15.6,4.8h-18.2V58.8h17.2c14.8,0,22.1,6,22.1,17.9
		C212.4,82.7,210.6,87.3,206.9,90.4z"/>
	<path class="st3" d="M44.8,95.2h6.9c6.8,0,12-1.6,15.7-4.8c3.7-3.2,5.5-7.8,5.5-13.7c0-3.9-0.8-7.2-2.4-9.8
		c-4.4,2.5-8.5,5.6-12.3,9.2C52.3,81.9,47.8,88.2,44.8,95.2z"/>
	<path class="st3" d="M40.7,110.1c-0.4,2.9-0.6,5.8-0.6,8.8c0,10.7,2.6,20.6,7.9,29.7c5.3,9.2,12.4,16.4,21.5,21.6
		c9.1,5.2,20.1,7.8,33.1,7.8c16,0,30.1-3.3,42.3-10v-18.3c-13.4,8.7-27.2,13-41.3,13c-13.5,0-24.6-4.1-33.2-12.3
		c-8.7-8.2-13-18.7-13-31.5c0-3.3,0.3-6.4,0.9-9.4c-3.7,0.4-7.9,0.6-12.5,0.6L40.7,110.1L40.7,110.1z"/>
	<path class="st3" d="M111.4,63.8c-1.1-1.5-2-3.1-2.7-4.8c-1.9-0.2-3.9-0.2-5.8-0.2c-5.8,0-11.4,0.6-16.6,1.9
		c2.4,4.5,3.7,9.7,3.8,15.6c4.3-1.1,8.8-1.7,13.7-1.7c9.7,0,19.5,2.2,29.5,6.5l-4.9-3C120.4,73.3,114.8,68.5,111.4,63.8z"/>
	<path class="st0" d="M86.3,60.7c-5.6,1.3-10.9,3.4-15.8,6.2c1.6,2.6,2.4,5.9,2.4,9.8c0,5.2-1.4,9.3-4.2,12.4l-1.3,1.3
		c-3.7,3.2-8.9,4.8-15.7,4.8h-6.9c-2,4.7-3.4,9.6-4.1,14.8h5.1c4.6,0,8.8-0.2,12.5-0.6c1.6-8,5.2-14.9,11-20.9
		c0.4-0.4,0.8-0.9,1.3-1.3c5.6-5.3,12.1-9,19.5-10.9C90,70.4,88.7,65.2,86.3,60.7z"/>
	<path class="st2" d="M172,104.4c0-11.2-5.2-20.8-15.7-28.6v29.9c0,0.1,0,0.2,0,0.3c0,0.2,0,0.3,0,0.5v25.2c2.3-1.2,4.4-2.8,6.3-4.6
		C168.9,121.3,172,113.8,172,104.4z"/>
	<g>
		<path class="st4" d="M126.9,35.5c3.5-2.5,8-3.8,13.4-3.8c9.7,0,18.7,4,27.1,12.1V24.9c-8.1-5.4-17-8.2-26.7-8.2
			c-10.2,0-18.4,2.9-24.8,8.6s-9.5,13.2-9.5,22.3c0,4.1,0.8,8,2.3,11.5c0.7,1.7,1.6,3.2,2.7,4.8c3.4,4.7,9,9.5,16.9,14.3l4.9,3
			l7.8,4.7c10.1,6.3,15.2,12.9,15.3,19.9v-30c-1.7-1.3-3.6-2.6-5.6-3.8L138,64.6c-5.7-3.3-9.9-6.5-12.4-9.6c-2.6-3-3.9-6.3-3.9-9.8
			C121.7,41.2,123.4,38,126.9,35.5z"/>
		<path class="st4" d="M151.1,116.9c-3.5,2.9-7.8,4.4-13,4.4c-11.8,0-22.2-5.7-31.2-17.1v21.2c9.4,7.1,19.9,10.6,31.4,10.6
			c6.9,0,12.9-1.4,18.1-4.2v-25.2C156.2,110.6,154.5,114.1,151.1,116.9z"/>
	</g>
</g>
</svg>
