<?xml version="1.0" encoding="utf-8"?>
<!-- Generator: Adobe Illustrator 25.4.1, SVG Export Plug-In . SVG Version: 6.00 Build 0)  -->
<svg version="1.1" id="Layer_1" xmlns="http://www.w3.org/2000/svg" xmlns:xlink="http://www.w3.org/1999/xlink" x="0px" y="0px"
	 viewBox="0 0 752.71 109.31" style="enable-background:new 0 0 752.71 109.31;" xml:space="preserve">
<style type="text/css">
	.st0{fill:#174748;}
	.st1{fill:#5AACA5;}
</style>
<g>
	<g>
		<path class="st0" d="M286.68,40.4V0.86h4.45l14.93,31.49l14.85-31.49h4.5v39.51h-4.64V11.6l-13.43,28.8h-2.61l-13.42-28.8v28.8
			H286.68z"/>
		<path class="st0" d="M343.09,41.17c-1.92,0-3.56-0.3-4.91-0.91c-1.35-0.61-2.48-1.41-3.38-2.42c-0.9-1.01-1.6-2.12-2.11-3.35
			c-0.51-1.23-0.87-2.48-1.08-3.76c-0.21-1.28-0.32-2.48-0.32-3.6V10.75h4.94V25.6c0,1.39,0.13,2.74,0.38,4.04
			c0.26,1.3,0.69,2.47,1.3,3.51c0.61,1.04,1.44,1.87,2.47,2.47c1.03,0.6,2.33,0.91,3.88,0.91c1.23,0,2.34-0.21,3.34-0.63
			c1-0.42,1.85-1.05,2.57-1.88c0.71-0.83,1.27-1.89,1.66-3.17c0.39-1.28,0.59-2.77,0.59-4.47l3.21,0.99c0,2.86-0.52,5.32-1.55,7.38
			c-1.03,2.07-2.49,3.66-4.37,4.76C347.84,40.61,345.63,41.17,343.09,41.17z M352.97,40.4v-7.93h-0.55V10.75h4.91V40.4H352.97z"/>
		<path class="st0" d="M376.24,41.22c-3,0-5.55-0.67-7.65-2.02c-2.1-1.35-3.7-3.2-4.8-5.56c-1.11-2.36-1.67-5.05-1.69-8.07
			c0.02-3.07,0.59-5.79,1.73-8.14c1.13-2.35,2.75-4.19,4.86-5.52c2.1-1.33,4.64-1.99,7.6-1.99c3.13,0,5.83,0.77,8.09,2.31
			c2.26,1.54,3.77,3.64,4.54,6.31L384.09,20c-0.64-1.72-1.66-3.06-3.06-4.01c-1.4-0.95-3-1.43-4.79-1.43
			c-2.03,0-3.71,0.47-5.02,1.41c-1.32,0.94-2.3,2.24-2.94,3.9c-0.64,1.66-0.97,3.56-0.99,5.7c0.04,3.29,0.8,5.95,2.29,7.98
			c1.49,2.02,3.71,3.03,6.66,3.03c1.94,0,3.55-0.44,4.82-1.33c1.27-0.89,2.25-2.17,2.92-3.86l4.94,1.29
			c-1.03,2.76-2.63,4.88-4.8,6.34S379.32,41.22,376.24,41.22z"/>
		<path class="st0" d="M394.53,40.4l0.03-39.53h4.94v24.16l12.44-14.28h6.34l-13.09,14.83l14.63,14.82h-6.84L399.5,26.12V40.4
			H394.53z"/>
		<path class="st0" d="M430.99,41.22c-2.22,0-4.07-0.41-5.56-1.22c-1.49-0.81-2.62-1.89-3.38-3.23c-0.76-1.34-1.14-2.8-1.14-4.39
			c0-1.56,0.29-2.9,0.88-4.04s1.42-2.09,2.51-2.86c1.09-0.77,2.38-1.37,3.88-1.81c1.41-0.38,2.98-0.72,4.72-1
			c1.74-0.28,3.5-0.54,5.3-0.78c1.79-0.24,3.48-0.47,5.05-0.69l-1.76,1.02c0.04-2.62-0.49-4.56-1.59-5.83
			c-1.1-1.27-3-1.91-5.71-1.91c-1.79,0-3.36,0.41-4.71,1.24c-1.35,0.82-2.29,2.14-2.84,3.95l-4.64-1.4c0.71-2.6,2.1-4.64,4.15-6.12
			c2.05-1.48,4.75-2.22,8.1-2.22c2.69,0,5,0.48,6.93,1.44c1.93,0.96,3.32,2.41,4.16,4.35c0.42,0.92,0.69,1.91,0.8,2.98
			c0.11,1.07,0.16,2.19,0.16,3.36V40.4h-4.34v-7.11l1.02,0.66c-1.12,2.42-2.68,4.23-4.7,5.45
			C436.28,40.61,433.84,41.22,430.99,41.22z M431.73,37.13c1.76,0,3.28-0.31,4.57-0.95c1.29-0.63,2.33-1.46,3.12-2.5
			s1.3-2.16,1.54-3.39c0.26-0.92,0.4-1.93,0.44-3.05c0.04-1.12,0.06-1.99,0.06-2.61l1.7,0.74c-1.59,0.24-3.16,0.46-4.71,0.66
			c-1.55,0.2-3,0.41-4.36,0.63c-1.36,0.22-2.6,0.49-3.69,0.8c-0.81,0.26-1.56,0.59-2.27,1c-0.71,0.41-1.27,0.93-1.7,1.56
			c-0.43,0.63-0.64,1.4-0.64,2.32c0,0.8,0.21,1.57,0.62,2.31c0.41,0.73,1.05,1.33,1.92,1.78S430.32,37.13,431.73,37.13z"/>
		<path class="st0" d="M452.15,40.4V10.75h4.37v7.93h0.55V40.4H452.15z M469.91,40.4l0.03-18.78c0-2.25-0.59-4.03-1.76-5.33
			c-1.17-1.3-2.73-1.95-4.67-1.95c-1.92,0-3.48,0.66-4.67,1.99c-1.19,1.33-1.78,3.07-1.78,5.23l-2.58-1.54
			c0-1.92,0.46-3.64,1.37-5.15c0.92-1.51,2.16-2.7,3.73-3.58c1.57-0.88,3.36-1.32,5.35-1.32c1.99,0,3.73,0.43,5.22,1.28
			c1.48,0.85,2.63,2.06,3.43,3.62c0.81,1.56,1.21,3.42,1.21,5.56l-0.03,19.96H469.91z M487.62,40.4l0.03-18.97
			c0-2.21-0.59-3.95-1.77-5.2c-1.18-1.25-2.71-1.88-4.6-1.88c-1.1,0-2.14,0.26-3.13,0.77c-0.99,0.51-1.79,1.3-2.42,2.36
			c-0.62,1.06-0.93,2.43-0.93,4.09l-2.58-1.04c-0.04-2.11,0.4-3.95,1.3-5.53s2.15-2.81,3.72-3.69c1.57-0.88,3.35-1.32,5.33-1.32
			c3.09,0,5.53,0.94,7.3,2.83c1.78,1.88,2.66,4.4,2.66,7.55L492.5,40.4H487.62z"/>
		<path class="st0" d="M510.75,41.22c-2.95,0-5.49-0.67-7.62-2c-2.13-1.34-3.78-3.18-4.93-5.53c-1.15-2.35-1.73-5.07-1.73-8.14
			c0-3.09,0.59-5.82,1.76-8.17c1.17-2.35,2.83-4.18,4.97-5.49s4.66-1.96,7.55-1.96c2.96,0,5.52,0.67,7.66,2
			c2.14,1.34,3.78,3.18,4.93,5.52c1.14,2.34,1.72,5.04,1.72,8.1c0,3.09-0.58,5.82-1.73,8.17s-2.8,4.19-4.94,5.52
			C516.24,40.56,513.7,41.22,510.75,41.22z M510.75,36.58c3.06,0,5.34-1.03,6.85-3.07c1.51-2.05,2.27-4.7,2.27-7.96
			c0-3.33-0.76-5.99-2.28-7.99s-3.8-2.99-6.84-2.99c-2.07,0-3.77,0.47-5.11,1.4c-1.34,0.93-2.33,2.22-2.99,3.87
			c-0.66,1.65-0.99,3.55-0.99,5.71c0,3.33,0.77,6,2.31,8.02C505.51,35.58,507.77,36.58,510.75,36.58z"/>
		<path class="st0" d="M529.83,40.4V10.75h4.37v7.17l-0.71-0.93c0.35-0.92,0.8-1.76,1.36-2.53s1.19-1.4,1.88-1.89
			c0.77-0.62,1.64-1.09,2.61-1.41c0.97-0.32,1.96-0.51,2.97-0.58c1.01-0.06,1.95,0,2.83,0.18v4.59c-1.03-0.26-2.15-0.32-3.38-0.19
			c-1.23,0.13-2.36,0.57-3.4,1.32c-0.95,0.7-1.69,1.52-2.21,2.48c-0.52,0.96-0.88,2-1.08,3.13c-0.2,1.12-0.3,2.27-0.3,3.44V40.4
			H529.83z"/>
		<path class="st0" d="M562.63,41.22c-2.91,0-5.45-0.65-7.62-1.94c-2.17-1.29-3.86-3.09-5.07-5.41c-1.21-2.32-1.81-5.02-1.81-8.11
			c0-3.24,0.6-6.04,1.78-8.42c1.19-2.37,2.85-4.2,4.98-5.49c2.13-1.29,4.63-1.94,7.51-1.94c2.98,0,5.52,0.69,7.62,2.06
			s3.67,3.33,4.72,5.88c1.05,2.54,1.51,5.57,1.36,9.09h-4.94v-1.76c-0.05-3.64-0.8-6.36-2.22-8.17c-1.43-1.8-3.55-2.7-6.37-2.7
			c-3.02,0-5.32,0.97-6.89,2.91c-1.57,1.94-2.36,4.72-2.36,8.35c0,3.5,0.79,6.2,2.36,8.13c1.57,1.92,3.82,2.88,6.73,2.88
			c1.96,0,3.66-0.45,5.11-1.35s2.58-2.19,3.4-3.87l4.69,1.62c-1.15,2.62-2.89,4.64-5.2,6.08C568.1,40.5,565.51,41.22,562.63,41.22z
			 M551.68,26.95v-3.93h21.91v3.93H551.68z"/>
		<path class="st0" d="M596.79,40.4l13.23-39.53h6.81l13.23,39.53h-5.08L612.61,3.72h1.54L601.87,40.4H596.79z M603.16,31.15v-4.58
			h20.54v4.58H603.16z"/>
		<path class="st0" d="M633.71,40.4V0.86h4.91v17.71h-0.55V40.4H633.71z M647.36,41.22c-2.78,0-5.12-0.69-7.03-2.07
			c-1.9-1.38-3.35-3.25-4.32-5.61c-0.98-2.36-1.47-5.02-1.47-7.99c0-2.98,0.49-5.65,1.47-8c0.98-2.35,2.43-4.21,4.34-5.57
			c1.91-1.36,4.26-2.04,7.04-2.04c2.75,0,5.11,0.68,7.1,2.04c1.99,1.36,3.51,3.23,4.57,5.59c1.06,2.36,1.59,5.02,1.59,7.99
			c0,2.97-0.53,5.63-1.59,8c-1.06,2.37-2.59,4.24-4.57,5.61C652.5,40.54,650.12,41.22,647.36,41.22z M646.75,36.75
			c1.94,0,3.56-0.49,4.85-1.48c1.29-0.99,2.26-2.33,2.9-4.02c0.64-1.69,0.96-3.59,0.96-5.7c0-2.09-0.32-3.97-0.96-5.66
			c-0.64-1.68-1.61-3.02-2.91-4.01c-1.3-0.99-2.96-1.48-4.97-1.48c-1.92,0-3.51,0.47-4.78,1.41c-1.26,0.94-2.21,2.26-2.83,3.94
			c-0.62,1.68-0.93,3.61-0.93,5.79c0,2.16,0.31,4.09,0.92,5.78c0.61,1.69,1.56,3.02,2.84,3.98
			C643.12,36.27,644.76,36.75,646.75,36.75z"/>
		<path class="st0" d="M664.12,40.4V0.86h4.91v17.71h-0.55V40.4H664.12z M677.76,41.22c-2.78,0-5.12-0.69-7.03-2.07
			c-1.9-1.38-3.35-3.25-4.32-5.61c-0.98-2.36-1.47-5.02-1.47-7.99c0-2.98,0.49-5.65,1.47-8c0.98-2.35,2.43-4.21,4.34-5.57
			c1.91-1.36,4.26-2.04,7.04-2.04c2.75,0,5.11,0.68,7.1,2.04c1.99,1.36,3.51,3.23,4.57,5.59c1.06,2.36,1.59,5.02,1.59,7.99
			c0,2.97-0.53,5.63-1.59,8c-1.06,2.37-2.59,4.24-4.57,5.61C682.9,40.54,680.53,41.22,677.76,41.22z M677.16,36.75
			c1.94,0,3.56-0.49,4.85-1.48c1.29-0.99,2.26-2.33,2.9-4.02c0.64-1.69,0.96-3.59,0.96-5.7c0-2.09-0.32-3.97-0.96-5.66
			c-0.64-1.68-1.61-3.02-2.91-4.01c-1.3-0.99-2.96-1.48-4.97-1.48c-1.92,0-3.51,0.47-4.78,1.41c-1.26,0.94-2.21,2.26-2.83,3.94
			c-0.62,1.68-0.93,3.61-0.93,5.79c0,2.16,0.31,4.09,0.92,5.78c0.61,1.69,1.56,3.02,2.84,3.98S675.16,36.75,677.16,36.75z"/>
		<path class="st0" d="M708.67,41.22c-2.91,0-5.45-0.65-7.62-1.94c-2.17-1.29-3.86-3.09-5.07-5.41c-1.21-2.32-1.81-5.02-1.81-8.11
			c0-3.24,0.59-6.04,1.78-8.42c1.19-2.37,2.85-4.2,4.98-5.49c2.13-1.29,4.63-1.94,7.51-1.94c2.98,0,5.52,0.69,7.62,2.06
			c2.1,1.37,3.67,3.33,4.72,5.88s1.51,5.57,1.36,9.09h-4.94v-1.76c-0.06-3.64-0.8-6.36-2.22-8.17c-1.43-1.8-3.55-2.7-6.37-2.7
			c-3.02,0-5.32,0.97-6.89,2.91c-1.57,1.94-2.36,4.72-2.36,8.35c0,3.5,0.79,6.2,2.36,8.13c1.57,1.92,3.82,2.88,6.73,2.88
			c1.96,0,3.66-0.45,5.11-1.35s2.58-2.19,3.4-3.87l4.7,1.62c-1.15,2.62-2.89,4.64-5.2,6.08C714.14,40.5,711.54,41.22,708.67,41.22z
			 M697.72,26.95v-3.93h21.91v3.93H697.72z"/>
		<path class="st0" d="M731.81,53.58l5.74-15.59l0.08,4.61l-12.96-31.85h5.13l10.16,25.61h-1.76l9.53-25.61h4.97l-16.14,42.83
			H731.81z"/>
		<path class="st0" d="M286.68,96.13V56.6h4.89v17.43h20.81V56.6h4.89v39.53h-4.89V78.67h-20.81v17.46H286.68z"/>
		<path class="st0" d="M336.3,96.95c-2.95,0-5.49-0.67-7.62-2c-2.13-1.34-3.77-3.18-4.93-5.53c-1.15-2.35-1.73-5.07-1.73-8.14
			c0-3.09,0.59-5.82,1.76-8.17c1.17-2.35,2.83-4.18,4.97-5.49c2.14-1.31,4.66-1.96,7.55-1.96c2.97,0,5.52,0.67,7.66,2
			c2.14,1.34,3.78,3.18,4.93,5.52c1.14,2.34,1.72,5.04,1.72,8.1c0,3.09-0.58,5.82-1.73,8.17c-1.15,2.35-2.8,4.19-4.94,5.52
			C341.8,96.29,339.25,96.95,336.3,96.95z M336.3,92.32c3.06,0,5.34-1.03,6.85-3.07c1.51-2.05,2.27-4.7,2.27-7.96
			c0-3.33-0.76-5.99-2.28-7.99c-1.52-2-3.8-2.99-6.84-2.99c-2.07,0-3.77,0.47-5.11,1.4c-1.34,0.93-2.33,2.22-2.99,3.87
			c-0.66,1.65-0.99,3.55-0.99,5.71c0,3.33,0.77,6,2.31,8.02C331.06,91.31,333.32,92.32,336.3,92.32z"/>
		<path class="st0" d="M366.17,96.93c-3.53,0-6.43-0.77-8.69-2.32c-2.26-1.55-3.65-3.71-4.16-6.49l5-0.8
			c0.4,1.61,1.33,2.89,2.77,3.83c1.45,0.94,3.24,1.41,5.38,1.41c2.01,0,3.6-0.42,4.76-1.26c1.16-0.84,1.74-1.99,1.74-3.43
			c0-0.82-0.19-1.5-0.58-2.02c-0.38-0.52-1.18-1.01-2.38-1.47c-1.2-0.46-3.01-1.02-5.42-1.68c-2.62-0.7-4.68-1.41-6.18-2.15
			c-1.5-0.74-2.57-1.61-3.21-2.6c-0.64-0.99-0.96-2.2-0.96-3.62c0-1.74,0.48-3.26,1.43-4.56c0.95-1.3,2.28-2.31,3.99-3.03
			c1.71-0.72,3.7-1.08,5.97-1.08c2.25,0,4.26,0.36,6.04,1.07c1.77,0.71,3.21,1.73,4.3,3.03c1.09,1.31,1.73,2.83,1.94,4.57l-5,0.91
			c-0.24-1.57-1.01-2.82-2.31-3.75c-1.3-0.92-2.96-1.41-4.97-1.47c-1.92-0.05-3.48,0.29-4.68,1.04c-1.2,0.75-1.8,1.76-1.8,3.02
			c0,0.73,0.22,1.35,0.67,1.85c0.45,0.5,1.28,0.98,2.5,1.44c1.22,0.46,2.99,0.98,5.31,1.56c2.62,0.66,4.68,1.38,6.19,2.16
			c1.51,0.78,2.58,1.69,3.23,2.75c0.64,1.05,0.96,2.35,0.96,3.88c0,2.86-1.05,5.1-3.16,6.74C372.77,96.11,369.87,96.93,366.17,96.93
			z"/>
		<path class="st0" d="M382.8,109.31V66.48h4.37v21.83h0.55v21H382.8z M396.44,96.95c-2.78,0-5.12-0.69-7.03-2.07
			c-1.9-1.38-3.35-3.25-4.32-5.61c-0.98-2.36-1.47-5.02-1.47-7.99c0-2.98,0.49-5.65,1.47-8c0.98-2.35,2.43-4.21,4.34-5.57
			c1.91-1.36,4.26-2.04,7.04-2.04c2.75,0,5.11,0.68,7.1,2.04c1.99,1.36,3.51,3.23,4.57,5.59c1.06,2.36,1.59,5.02,1.59,7.99
			c0,2.97-0.53,5.63-1.59,8s-2.59,4.24-4.57,5.61C401.58,96.27,399.21,96.95,396.44,96.95z M395.84,92.48
			c1.94,0,3.56-0.49,4.85-1.48c1.29-0.99,2.26-2.33,2.9-4.02c0.64-1.69,0.96-3.59,0.96-5.7c0-2.09-0.32-3.97-0.96-5.66
			c-0.64-1.68-1.61-3.02-2.91-4.01c-1.3-0.99-2.96-1.48-4.97-1.48c-1.92,0-3.51,0.47-4.78,1.41c-1.26,0.94-2.21,2.26-2.83,3.94
			c-0.62,1.68-0.93,3.61-0.93,5.79c0,2.16,0.31,4.09,0.92,5.78c0.61,1.69,1.56,3.02,2.84,3.98C392.21,92,393.84,92.48,395.84,92.48z
			"/>
		<path class="st0" d="M415.05,61.24v-5.05h4.89v5.05H415.05z M415.05,96.13V66.48h4.89v29.65H415.05z"/>
		<path class="st0" d="M424.88,70.52v-4.04h19.85v4.04H424.88z M444.73,96.13c-1.76,0.37-3.49,0.52-5.2,0.45
			c-1.71-0.06-3.24-0.41-4.59-1.04c-1.35-0.63-2.36-1.62-3.03-2.98c-0.59-1.17-0.9-2.36-0.95-3.56c-0.05-1.2-0.07-2.56-0.07-4.08
			V58.24h4.89v26.47c0,1.21,0.01,2.24,0.04,3.1c0.03,0.86,0.21,1.6,0.56,2.22c0.66,1.17,1.71,1.86,3.14,2.06
			c1.44,0.2,3.17,0.15,5.2-0.16V96.13z"/>
		<path class="st0" d="M459.19,96.95c-2.21,0-4.07-0.41-5.56-1.22c-1.49-0.81-2.62-1.89-3.38-3.23c-0.76-1.34-1.14-2.8-1.14-4.39
			c0-1.56,0.29-2.9,0.88-4.04c0.59-1.13,1.42-2.09,2.51-2.86c1.09-0.77,2.38-1.37,3.88-1.81c1.41-0.38,2.98-0.72,4.72-1
			c1.74-0.28,3.51-0.54,5.3-0.78c1.79-0.24,3.48-0.47,5.05-0.69l-1.76,1.02c0.04-2.62-0.49-4.56-1.59-5.83
			c-1.1-1.27-3-1.91-5.71-1.91c-1.79,0-3.36,0.41-4.71,1.24c-1.35,0.82-2.29,2.14-2.84,3.95l-4.64-1.4c0.71-2.6,2.1-4.64,4.15-6.12
			c2.05-1.48,4.75-2.22,8.1-2.22c2.69,0,5,0.48,6.93,1.44c1.93,0.96,3.32,2.41,4.16,4.35c0.42,0.92,0.69,1.91,0.8,2.98
			c0.11,1.07,0.16,2.19,0.16,3.36v18.34h-4.34v-7.11l1.02,0.66c-1.12,2.42-2.68,4.23-4.69,5.45
			C464.48,96.35,462.05,96.95,459.19,96.95z M459.94,92.86c1.76,0,3.28-0.31,4.57-0.95c1.29-0.63,2.33-1.46,3.12-2.5
			c0.79-1.03,1.3-2.16,1.54-3.39c0.26-0.92,0.4-1.93,0.44-3.05c0.04-1.12,0.05-1.99,0.05-2.61l1.7,0.74
			c-1.59,0.24-3.16,0.46-4.71,0.66c-1.55,0.2-3,0.41-4.37,0.63c-1.36,0.22-2.59,0.49-3.69,0.8c-0.81,0.26-1.56,0.59-2.27,1
			c-0.7,0.41-1.27,0.93-1.7,1.56c-0.43,0.63-0.65,1.4-0.65,2.32c0,0.8,0.21,1.57,0.62,2.31c0.41,0.73,1.05,1.33,1.92,1.78
			C457.39,92.64,458.53,92.86,459.94,92.86z"/>
		<path class="st0" d="M480.93,96.13V55.77h4.89v40.36H480.93z"/>
		<path class="st1" d="M505.58,96.13V56.6h6.62v39.53H505.58z"/>
		<path class="st1" d="M519.11,96.13V66.48h5.9v9.2h0.8v20.45H519.11z M539.68,96.13V81.85c0-0.93-0.06-1.97-0.19-3.1
			c-0.13-1.13-0.43-2.23-0.89-3.28c-0.47-1.05-1.16-1.92-2.09-2.59c-0.92-0.68-2.17-1.02-3.75-1.02c-0.84,0-1.68,0.14-2.5,0.41
			c-0.82,0.27-1.57,0.75-2.24,1.41c-0.67,0.67-1.2,1.58-1.61,2.75c-0.4,1.16-0.6,2.65-0.6,4.46l-3.93-1.67
			c0-2.53,0.49-4.81,1.47-6.86c0.98-2.05,2.42-3.68,4.32-4.9c1.9-1.22,4.25-1.83,7.03-1.83c2.2,0,4.01,0.37,5.44,1.1
			c1.43,0.73,2.56,1.67,3.4,2.8c0.84,1.13,1.46,2.34,1.87,3.62c0.4,1.28,0.66,2.49,0.78,3.64c0.12,1.14,0.18,2.07,0.18,2.79v16.55
			H539.68z"/>
		<path class="st1" d="M564.13,96.95c-2.73,0-5.11-0.69-7.14-2.06c-2.03-1.37-3.61-3.24-4.72-5.6c-1.12-2.36-1.68-5.02-1.68-7.99
			c0-3,0.56-5.68,1.69-8.03c1.13-2.35,2.72-4.21,4.79-5.57c2.07-1.36,4.5-2.04,7.3-2.04c2.82,0,5.18,0.68,7.1,2.04
			c1.91,1.36,3.36,3.23,4.35,5.59c0.99,2.36,1.48,5.03,1.48,8.02c0,2.95-0.49,5.6-1.48,7.98c-0.99,2.37-2.46,4.24-4.42,5.61
			C569.45,96.27,567.02,96.95,564.13,96.95z M565.15,91.02c1.78,0,3.21-0.41,4.3-1.22c1.09-0.81,1.88-1.95,2.39-3.42
			c0.5-1.46,0.76-3.16,0.76-5.08c0-1.94-0.25-3.64-0.76-5.09c-0.5-1.45-1.29-2.59-2.35-3.4c-1.06-0.81-2.44-1.22-4.12-1.22
			c-1.78,0-3.24,0.44-4.39,1.3c-1.15,0.87-2,2.04-2.55,3.51c-0.55,1.47-0.82,3.11-0.82,4.9c0,1.81,0.27,3.45,0.81,4.93
			c0.54,1.47,1.37,2.64,2.48,3.5C562.01,90.59,563.43,91.02,565.15,91.02z M571.76,109.31V87.29h0.82V66.48h5.85v42.83H571.76z"/>
		<path class="st1" d="M595.97,96.98c-2.2,0-4.01-0.37-5.44-1.1c-1.43-0.73-2.56-1.67-3.4-2.8c-0.84-1.13-1.46-2.34-1.87-3.62
			c-0.4-1.28-0.66-2.49-0.78-3.64c-0.12-1.14-0.18-2.07-0.18-2.79V66.48h6.7v14.28c0,0.92,0.06,1.94,0.19,3.09
			c0.13,1.14,0.43,2.24,0.89,3.29c0.47,1.05,1.16,1.92,2.09,2.59c0.92,0.68,2.17,1.02,3.75,1.02c0.84,0,1.67-0.14,2.5-0.41
			c0.82-0.27,1.57-0.75,2.24-1.41c0.67-0.67,1.2-1.59,1.61-2.76c0.4-1.17,0.61-2.65,0.61-4.45l3.93,1.67c0,2.53-0.49,4.81-1.47,6.86
			c-0.98,2.05-2.42,3.68-4.32,4.9C601.09,96.37,598.75,96.98,595.97,96.98z M605.66,96.13v-9.2h-0.8V66.48h6.64v29.65H605.66z"/>
		<path class="st1" d="M618.47,61.98v-6.07h6.62v6.07H618.47z M618.47,96.13V66.48h6.62v29.65H618.47z"/>
		<path class="st1" d="M632.06,96.13V66.48h5.85v7.22l-0.71-0.93c0.37-0.99,0.86-1.89,1.47-2.7c0.61-0.81,1.35-1.49,2.21-2.02
			c0.73-0.49,1.54-0.88,2.43-1.17c0.89-0.28,1.8-0.46,2.73-0.52c0.93-0.06,1.84-0.02,2.72,0.12v6.18c-0.88-0.26-1.89-0.34-3.03-0.25
			c-1.14,0.09-2.17,0.41-3.09,0.96c-0.92,0.49-1.66,1.12-2.24,1.89c-0.58,0.77-1,1.64-1.28,2.62c-0.28,0.98-0.41,2.04-0.41,3.17
			v15.07H632.06z"/>
		<path class="st1" d="M658.23,109.31l5.71-15.68l0.11,4.61l-12.93-31.76h6.89l9.17,23.5h-1.76l8.92-23.5h6.62l-16.53,42.83H658.23z
			"/>
	</g>
	<g>
		<g>
			<polygon class="st0" points="109.36,59.22 135.07,59.22 122.12,17.24 			"/>
			<polygon class="st0" points="95.78,0.29 79.55,0.29 47.89,63.88 16.23,0.29 0,0.29 0,96.07 16.89,96.07 16.89,38.87 44.69,96.07 
				51.08,96.07 78.88,38.87 78.88,96.07 79.53,96.07 95.78,42.92 			"/>
			<polygon class="st0" points="165.07,96.07 164.89,95.46 164.89,96.07 			"/>
			<polygon class="st0" points="207.72,0.29 207.72,39.67 164.89,39.67 164.89,0.29 146.79,0.29 146.79,36.26 164.89,95.46 
				164.89,56.56 207.72,56.56 207.72,96.07 225.81,96.07 225.81,0.29 			"/>
		</g>
		<path class="st1" d="M235.58,95.78V0h18.09v95.78H235.58z"/>
		<g>
			<polygon class="st0" points="104.18,76.29 98.12,96.24 146.4,96.24 140.24,76.29 			"/>
			<polygon class="st0" points="109.31,59.4 135.03,59.4 122.07,17.42 			"/>
		</g>
	</g>
</g>
</svg>
