<?xml version="1.0" standalone="no"?>
<!DOCTYPE svg PUBLIC "-//W3C//DTD SVG 20010904//EN"
 "http://www.w3.org/TR/2001/REC-SVG-20010904/DTD/svg10.dtd">
<svg version="1.0" xmlns="http://www.w3.org/2000/svg"
 width="700.000000pt" height="700.000000pt" viewBox="0 0 700.000000 700.000000"
 preserveAspectRatio="xMidYMid meet">
<metadata>
Created by potrace 1.14, written by Peter Selinger 2001-2017
</metadata>
<g transform="translate(0.000000,700.000000) scale(0.100000,-0.100000)"
fill="#000000" stroke="none">
<path d="M6717 6943 c-2 -1 -453 -12 -737 -18 -69 -1 -258 -6 -420 -9 -162 -4
-374 -9 -470 -11 -300 -7 -667 -15 -875 -20 -189 -5 -294 -7 -850 -20 -126 -3
-331 -7 -455 -10 -124 -3 -317 -7 -430 -10 -113 -3 -302 -7 -420 -10 -252 -6
-547 -13 -895 -20 -284 -6 -618 -15 -654 -18 -22 -2 -26 -13 -56 -127 -18 -69
-52 -197 -75 -285 -23 -88 -60 -225 -80 -305 -21 -80 -48 -181 -60 -225 -37
-138 -98 -373 -147 -560 l-47 -180 98 -275 c53 -151 108 -304 121 -340 13 -36
53 -148 89 -250 36 -102 99 -282 141 -400 42 -118 106 -298 142 -400 35 -102
100 -286 145 -410 44 -124 94 -265 111 -313 l32 -89 57 119 c31 65 93 192 136
283 170 353 227 469 282 585 32 66 92 192 135 280 43 88 103 214 135 280 62
131 140 292 245 510 37 77 93 194 125 260 32 66 88 183 125 260 166 344 201
417 250 520 29 61 85 178 125 260 40 83 97 201 127 263 29 62 57 111 62 108 4
-3 23 -8 42 -11 19 -3 93 -17 164 -32 72 -14 136 -26 143 -27 18 -3 32 -29
143 -261 50 -104 123 -255 161 -335 39 -80 100 -206 135 -280 36 -74 96 -198
133 -275 37 -77 100 -207 140 -290 40 -82 103 -213 140 -290 171 -354 217
-449 275 -570 34 -71 89 -184 121 -250 32 -66 59 -122 60 -125 0 -3 30 -66 66
-140 102 -210 208 -428 303 -625 131 -271 185 -384 185 -389 0 -3 -59 -134
-131 -293 -72 -158 -138 -303 -146 -322 l-14 -33 28 7 c15 4 35 8 43 10 8 2
35 8 60 15 25 7 52 14 61 15 26 5 181 45 214 55 17 5 41 11 55 14 14 3 70 16
125 30 163 41 773 193 1005 251 118 29 265 66 327 81 l112 28 -4 30 c-2 17 -6
67 -10 111 -3 44 -8 98 -10 120 -2 22 -7 72 -10 112 -3 40 -8 87 -10 105 -2
18 -6 69 -10 113 -7 97 -14 173 -20 243 -3 28 -7 76 -10 105 -11 124 -15 166
-20 232 -3 39 -7 94 -11 123 -3 30 -7 77 -9 105 -5 61 -14 164 -20 227 -2 25
-7 79 -11 120 -3 41 -8 89 -9 105 -2 17 -6 70 -10 118 -4 49 -8 97 -10 107 -2
10 -6 63 -10 117 -3 54 -8 109 -10 123 -2 14 -7 61 -10 105 -3 44 -7 98 -10
120 -6 61 -14 152 -20 230 -2 39 -7 88 -9 110 -3 22 -8 76 -12 120 -3 44 -8
96 -9 115 -2 19 -7 69 -11 110 -3 41 -8 82 -9 90 -1 8 1 20 5 25 4 6 68 145
143 310 193 428 196 434 224 495 14 30 42 93 63 140 21 47 54 119 73 160 55
120 77 169 77 173 0 4 -249 4 -253 0z"/>
<path d="M2881 4768 c-20 -53 -283 -693 -303 -738 -14 -32 -269 -632 -276
-651 -2 -5 262 -8 587 -8 l590 0 -9 24 c-5 14 -18 44 -29 68 -10 23 -42 96
-71 162 -29 66 -60 138 -70 160 -85 194 -307 741 -322 795 -6 19 -13 40 -17
45 -4 6 -20 45 -35 88 -16 42 -30 77 -32 77 -3 0 -8 -10 -13 -22z"/>
<path d="M2012 2652 c-23 -2 -36 -10 -41 -25 -8 -22 -21 -51 -71 -162 -12 -27
-47 -106 -77 -175 -30 -69 -73 -163 -94 -208 -21 -46 -39 -86 -39 -89 0 -3
-14 -35 -31 -71 -17 -37 -56 -123 -86 -192 -31 -69 -71 -158 -89 -198 -19 -41
-34 -75 -34 -77 0 -3 -13 -34 -30 -69 -23 -51 -27 -70 -20 -93 10 -32 95 -270
105 -293 3 -8 285 -126 647 -270 353 -140 653 -260 667 -266 14 -7 252 -102
528 -212 l501 -199 223 491 c122 270 240 529 261 576 22 47 46 99 53 115 7 17
24 55 38 85 183 404 217 483 213 487 -5 6 -36 -1 -261 -62 -71 -19 -135 -35
-141 -35 -6 0 -35 53 -64 118 -29 64 -73 160 -97 212 -25 52 -79 169 -120 260
-42 91 -93 202 -114 248 -22 45 -39 87 -39 92 0 6 -17 10 -37 11 -139 2 -1724
3 -1751 1z"/>
</g>
</svg>
