<?xml version="1.0" standalone="no"?>
<!DOCTYPE svg PUBLIC "-//W3C//DTD SVG 20010904//EN"
 "http://www.w3.org/TR/2001/REC-SVG-20010904/DTD/svg10.dtd">
<svg version="1.0" xmlns="http://www.w3.org/2000/svg"
 width="700.000000pt" height="700.000000pt" viewBox="0 0 700.000000 700.000000"
 preserveAspectRatio="xMidYMid meet">
<metadata>
Created by potrace 1.14, written by Peter Selinger 2001-2017
</metadata>
<g transform="translate(0.000000,700.000000) scale(0.100000,-0.100000)"
fill="#000000" stroke="none">
<path d="M3460 6942 c-19 -10 -102 -54 -185 -97 -82 -43 -190 -99 -240 -125
-49 -26 -153 -80 -230 -120 -77 -40 -185 -96 -240 -125 -55 -29 -149 -78 -210
-110 -108 -56 -159 -83 -500 -260 -240 -125 -312 -165 -300 -166 6 0 33 -2 60
-4 162 -8 318 -36 475 -86 74 -23 69 -21 212 -88 319 -147 575 -395 731 -706
32 -65 91 -225 101 -277 32 -162 38 -208 38 -323 1 -140 -16 -256 -55 -393
-14 -46 -21 -80 -17 -75 87 103 221 315 390 618 332 593 806 1017 1362 1216
142 51 239 76 391 100 82 13 120 17 171 18 24 1 36 5 30 10 -5 5 -76 43 -159
86 -82 43 -195 101 -250 130 -55 29 -158 83 -230 120 -71 37 -166 87 -210 110
-44 23 -147 77 -230 120 -82 43 -190 99 -240 125 -420 221 -612 320 -621 320
-5 0 -25 -8 -44 -18z"/>
<path d="M1379 5766 c-2 -2 -26 -6 -54 -10 -423 -52 -788 -264 -1029 -599
-103 -144 -186 -351 -215 -532 -13 -83 -10 -303 5 -378 7 -34 15 -74 18 -89 9
-53 59 -184 101 -268 55 -108 187 -293 199 -279 2 2 19 30 39 61 148 234 182
374 152 628 -14 113 -2 336 21 413 8 26 232 130 235 109 8 -66 43 -212 65
-273 49 -139 65 -321 36 -409 -25 -72 -52 -116 -163 -257 -116 -147 -161 -258
-158 -390 1 -44 4 -86 8 -91 8 -13 144 -92 150 -87 2 3 -1 10 -6 17 -32 41
-45 191 -23 268 12 45 44 113 61 134 6 6 20 25 32 42 12 17 51 69 85 115 168
220 187 374 88 691 -38 121 -64 253 -53 264 7 8 194 7 206 -1 4 -2 8 -20 9
-40 2 -61 32 -152 100 -310 101 -235 119 -327 88 -447 -13 -48 -65 -151 -86
-168 -3 -3 -40 -51 -82 -107 -83 -110 -129 -197 -148 -282 -16 -68 -8 -190 17
-257 20 -52 37 -63 128 -80 l37 -7 -24 44 c-49 87 -66 193 -46 281 9 41 57
145 78 171 191 229 250 347 251 504 0 101 -23 183 -101 363 -62 142 -100 253
-100 294 0 21 7 20 121 -5 96 -22 97 -23 89 -48 -12 -43 -2 -146 21 -205 20
-54 79 -151 116 -191 68 -73 134 -182 148 -245 28 -124 -12 -231 -159 -424
-134 -176 -169 -258 -170 -391 0 -44 6 -101 13 -128 l14 -47 58 0 c33 0 59 4
59 9 0 5 -7 28 -15 52 -32 90 -21 205 27 294 11 22 65 99 118 170 140 187 181
288 173 420 -6 112 -44 191 -170 350 -39 50 -79 106 -88 125 -24 46 -44 134
-38 162 10 47 11 48 38 38 14 -5 82 -22 152 -36 118 -25 147 -27 373 -28 234
-1 285 2 360 24 37 11 49 2 51 -35 0 -11 2 -29 4 -40 2 -11 7 -35 10 -54 8
-40 -4 -51 -57 -51 l-38 0 -1 -57 c0 -32 -2 -65 -3 -73 -2 -8 -6 -46 -10 -85
-3 -38 -14 -104 -24 -145 l-18 -75 -145 -1 c-80 0 -152 -3 -160 -6 -12 -5 -15
-42 -14 -216 0 -116 3 -213 5 -216 3 -2 114 -21 248 -42 l243 -38 30 35 c31
34 122 156 146 194 74 117 144 300 170 443 18 102 20 312 4 397 -6 33 -14 73
-17 89 -2 16 -18 66 -34 111 -152 441 -537 775 -1025 890 -55 13 -118 27 -140
30 -45 7 -380 17 -386 11z m299 -260 c39 -91 1 -184 -100 -245 -82 -49 -182
-92 -202 -87 -12 3 -49 8 -83 11 -34 4 -70 8 -80 10 -10 2 -22 4 -28 4 -5 1 5
13 23 27 93 73 155 160 173 241 8 36 17 53 28 54 29 0 146 11 148 13 1 1 26 2
55 1 49 0 54 -2 66 -29z m229 -12 c95 -26 182 -71 193 -99 25 -67 2 -153 -57
-206 -46 -43 -121 -90 -145 -92 -22 -1 -152 11 -193 19 -11 2 -40 6 -65 10
-25 3 -47 8 -48 9 -2 2 13 13 35 23 64 34 120 90 150 150 23 47 28 70 28 134
0 88 -10 83 102 52z m-637 -28 c0 -35 -71 -115 -165 -187 l-99 -76 -76 -1 -75
-1 92 88 c88 85 175 141 270 176 49 18 53 18 53 1z m991 -169 c13 -12 46 -48
72 -79 43 -51 46 -58 30 -66 -28 -14 -101 -30 -177 -38 l-70 -7 37 43 c32 38
77 131 77 160 0 14 4 13 31 -13z m339 -214 c6 -27 13 -55 15 -63 2 -8 11 -48
20 -89 20 -86 25 -79 -85 -116 -99 -32 -145 -38 -330 -39 -210 -2 -330 12
-513 60 -34 9 -69 18 -77 20 -8 2 -31 8 -50 13 -69 19 -246 61 -280 66 -20 3
-47 8 -60 11 -14 3 -81 7 -150 9 -184 5 -292 -18 -460 -98 l-75 -36 -41 82
-41 81 46 24 c135 70 275 101 439 96 99 -2 236 -11 302 -19 19 -3 58 -7 85
-10 28 -4 91 -12 140 -20 50 -8 108 -16 130 -19 56 -7 112 -15 165 -21 56 -8
384 -7 425 0 17 3 55 10 87 16 67 12 179 49 233 77 22 12 45 21 51 22 7 0 17
-21 24 -47z"/>
<path d="M5295 5758 c-110 -19 -204 -42 -290 -70 -91 -29 -291 -123 -333 -156
-22 -17 -22 -17 24 -16 62 2 117 -21 159 -67 96 -106 48 -253 -100 -303 -78
-27 -204 24 -239 97 -20 44 -26 93 -15 131 5 16 7 31 6 33 -8 7 -172 -170
-225 -242 -115 -158 -193 -338 -227 -525 -13 -70 -13 -305 0 -375 21 -114 44
-202 65 -250 107 -246 230 -413 408 -556 l77 -62 3 814 2 814 90 0 90 0 2
-870 3 -869 80 -34 c193 -81 389 -122 591 -126 278 -5 516 48 759 171 74 38
245 147 245 157 0 2 -37 -9 -82 -25 -235 -78 -565 -78 -808 1 -198 65 -373
171 -512 311 -134 135 -140 126 80 127 103 0 199 1 213 1 25 1 32 14 113 219
48 119 91 226 96 237 5 11 80 196 166 410 86 215 176 439 200 499 24 59 44
110 44 113 0 3 -26 2 -57 -1 -32 -3 -110 -8 -173 -12 -63 -3 -133 -7 -155 -9
-126 -10 -195 -16 -235 -20 -57 -6 -124 -12 -220 -21 -41 -3 -78 -8 -81 -10
-4 -2 -7 27 -7 65 0 38 -5 78 -11 89 -18 34 -13 42 22 37 17 -2 75 -6 127 -10
91 -5 198 -12 305 -20 335 -24 581 -27 638 -6 21 7 55 27 74 44 35 31 36 31
28 7 -19 -62 -83 -110 -166 -125 l-37 -7 285 -706 c157 -389 290 -722 296
-739 6 -18 17 -33 26 -34 19 -1 137 -1 167 0 16 1 29 16 49 59 26 55 63 150
70 182 1 8 8 33 13 55 21 78 24 112 28 260 3 162 -7 236 -52 385 -96 319 -352
617 -673 783 -97 51 -273 117 -346 132 -16 3 -64 13 -105 21 -87 18 -417 26
-495 12z"/>
<path d="M5877 4838 c-69 -172 -178 -441 -242 -598 -64 -157 -117 -289 -119
-295 -2 -5 -8 -23 -14 -38 -7 -16 -12 -31 -12 -35 0 -5 927 -8 1022 -3 13 1
-38 136 -240 641 -141 352 -259 640 -263 640 -4 0 -63 -141 -132 -312z"/>
<path d="M3917 4923 c-88 -109 -217 -306 -312 -478 -278 -504 -534 -816 -879
-1069 -264 -194 -623 -352 -889 -392 -26 -3 -46 -8 -44 -10 19 -19 522 -25
777 -9 219 13 533 8 675 -10 17 -2 55 -6 85 -10 47 -5 144 -20 255 -41 72 -13
238 -58 335 -90 332 -112 603 -274 813 -489 l79 -79 -66 130 c-70 138 -180
310 -313 489 -304 410 -511 868 -559 1235 -2 19 -8 62 -12 95 -9 68 -8 287 2
355 4 25 9 63 12 85 9 69 42 190 73 271 17 43 29 79 27 81 -2 2 -28 -27 -59
-64z"/>
<path d="M45 2675 c0 -618 3 -1126 5 -1128 3 -2 68 -37 145 -77 77 -40 181
-94 230 -120 50 -26 149 -78 220 -115 204 -106 334 -174 410 -215 39 -21 138
-72 220 -115 172 -89 325 -169 440 -230 366 -193 505 -264 505 -257 0 4 -10
18 -23 32 -133 145 -280 463 -303 655 -2 17 -7 59 -11 95 -14 104 -4 306 17
379 5 17 9 34 9 36 -1 41 64 231 111 326 127 252 356 491 617 642 151 87 280
138 473 186 104 26 111 29 70 31 -25 2 -63 4 -85 6 -84 6 -457 4 -561 -3 -209
-15 -693 -7 -764 12 -8 2 -40 6 -70 10 -30 3 -67 8 -82 10 -16 3 -40 7 -55 10
-477 83 -909 288 -1222 580 -78 72 -193 213 -241 295 -24 39 -45 72 -49 74 -3
2 -6 -501 -6 -1119z"/>
<path d="M6939 3708 c-7 -13 -41 -61 -77 -106 -198 -256 -471 -448 -782 -552
-101 -34 -233 -65 -315 -75 -27 -3 -66 -8 -85 -11 -38 -5 -274 -5 -330 0 -402
39 -751 194 -1029 454 -18 18 -35 32 -38 32 -7 0 74 -146 141 -253 33 -54 99
-149 144 -210 103 -137 224 -317 282 -417 57 -98 160 -306 160 -323 0 -7 4
-17 9 -22 18 -19 90 -245 116 -362 35 -163 51 -298 49 -438 -1 -111 -9 -219
-19 -255 -2 -8 -6 -32 -9 -52 -27 -179 -123 -419 -221 -553 -28 -38 -60 -83
-71 -100 l-19 -29 55 31 c30 17 127 68 215 113 159 82 287 149 460 240 133 70
265 139 400 210 66 35 156 82 200 105 44 23 139 73 210 110 72 37 171 89 220
115 50 26 149 78 220 115 l130 68 0 1093 c0 602 -1 1094 -2 1094 -1 0 -8 -10
-14 -22z"/>
<path d="M2014 3519 c-100 -24 -201 -114 -225 -202 -15 -53 -15 -128 0 -155 9
-17 16 -19 41 -12 35 10 35 10 56 10 12 0 14 8 9 43 -15 98 43 184 144 213 79
24 144 8 210 -52 l50 -45 40 23 c23 13 41 28 41 34 0 22 -86 98 -137 121 -60
27 -165 38 -229 22z"/>
<path d="M3418 2655 c-2 -2 -34 -5 -73 -8 -82 -7 -147 -20 -269 -54 -538 -148
-944 -595 -1012 -1113 -19 -142 -3 -340 38 -485 l23 -80 90 1 c81 1 197 7 370
19 152 12 207 15 295 20 52 4 118 8 145 10 28 2 100 7 160 11 61 3 112 8 115
9 3 2 5 193 5 425 0 232 3 426 6 432 4 7 14 6 30 -3 86 -46 253 -44 370 5 14
6 16 -35 16 -424 0 -237 2 -433 4 -434 2 -2 60 -7 129 -11 69 -4 139 -9 155
-10 17 -1 82 -5 145 -9 63 -4 135 -9 160 -11 25 -2 92 -7 150 -10 58 -4 125
-9 150 -11 25 -2 99 -6 166 -10 l121 -6 22 68 c39 125 50 217 47 389 -4 133
-9 177 -30 259 -32 120 -71 215 -131 321 -132 231 -360 438 -616 559 -90 43
-241 98 -305 110 -50 10 -137 25 -179 32 -40 6 -292 14 -297 9z m256 -190 c91
-43 159 -148 159 -244 1 -185 -192 -322 -388 -276 -67 16 -108 38 -156 86 -60
60 -82 118 -77 204 7 106 64 185 167 233 97 45 196 44 295 -3z"/>
<path d="M2190 785 c0 -15 53 -107 101 -175 120 -172 330 -347 533 -445 130
-63 336 -132 356 -120 6 4 10 119 10 336 l0 329 -67 1 c-38 0 -76 2 -86 4 -10
2 -55 6 -99 10 -45 4 -89 8 -97 10 -9 1 -61 6 -115 10 -55 4 -108 9 -119 11
-19 3 -91 9 -237 19 -41 3 -99 7 -127 10 -29 4 -53 3 -53 0z"/>
<path d="M4777 784 c-1 -1 -47 -5 -102 -8 -55 -4 -116 -9 -135 -11 -19 -2 -66
-6 -105 -9 -138 -12 -181 -16 -220 -21 -22 -2 -76 -7 -120 -11 -44 -4 -87 -8
-95 -10 -8 -1 -45 -3 -82 -3 l-66 -1 0 -335 0 -335 31 5 c98 17 280 86 395
150 230 127 421 312 540 522 l41 73 -40 -3 c-23 -1 -41 -3 -42 -3z"/>
</g>
</svg>
