<?xml version="1.0" standalone="no"?>
<!DOCTYPE svg PUBLIC "-//W3C//DTD SVG 20010904//EN"
 "http://www.w3.org/TR/2001/REC-SVG-20010904/DTD/svg10.dtd">
<svg version="1.0" xmlns="http://www.w3.org/2000/svg"
 width="700.000000pt" height="700.000000pt" viewBox="0 0 700.000000 700.000000"
 preserveAspectRatio="xMidYMid meet">
<metadata>
Created by potrace 1.14, written by Peter Selinger 2001-2017
</metadata>
<g transform="translate(0.000000,700.000000) scale(0.100000,-0.100000)"
fill="#000000" stroke="none">
<path d="M1755 6110 l-1730 -867 -3 -1736 -2 -1737 1737 -868 1738 -869 1735
868 1735 867 0 1732 c0 953 -2 1735 -5 1739 -3 4 -141 75 -307 158 -242 122
-302 148 -305 135 -2 -10 -3 -790 -3 -1736 l1 -1718 -1258 -629 c-692 -346
-1266 -633 -1276 -639 -9 -5 -85 -42 -168 -83 l-150 -75 -1425 711 c-783 391
-1426 712 -1428 714 -5 3 -5 2853 0 2857 2 2 645 323 1428 714 l1423 711 579
-289 579 -289 1 77 c0 42 2 120 4 172 2 52 6 154 9 227 l5 132 -572 287 c-314
157 -581 289 -592 293 -15 5 -481 -224 -1750 -859z"/>
<path d="M5039 6196 c-7 -7 -3 -4385 4 -4392 3 -4 202 91 442 210 317 158 435
221 436 234 1 22 1 3453 0 3468 -1 7 -70 49 -153 94 -84 46 -175 95 -203 110
-27 15 -131 71 -230 125 -99 54 -203 111 -232 126 -55 30 -57 31 -64 25z"/>
<path d="M3740 3435 c0 -1257 3 -2285 8 -2285 4 0 189 91 412 203 l405 202 0
1873 c0 1237 -3 1876 -10 1882 -11 8 -767 390 -797 402 -17 7 -18 -96 -18
-2277z"/>
<path d="M2430 3062 l0 -1508 405 -202 c223 -111 408 -202 410 -202 3 0 4 678
3 1506 l-3 1505 -265 135 c-146 75 -326 167 -401 205 -75 38 -139 69 -143 69
-3 0 -6 -679 -6 -1508z"/>
<path d="M1070 2812 l0 -579 435 -216 c239 -119 438 -216 443 -214 8 2 10
1114 2 1126 -5 8 -137 77 -535 281 -110 56 -233 120 -272 141 l-73 39 0 -578z"/>
</g>
</svg>
