<?xml version="1.0" encoding="utf-8"?>
<!-- Generator: Adobe Illustrator 26.2.1, SVG Export Plug-In . SVG Version: 6.00 Build 0)  -->
<svg version="1.1" id="Layer_1" xmlns="http://www.w3.org/2000/svg" xmlns:xlink="http://www.w3.org/1999/xlink" x="0px" y="0px"
	 viewBox="0 0 212.9 201" style="enable-background:new 0 0 212.9 201;" xml:space="preserve">
<style type="text/css">
	.st0{fill:none;}
	.st1{fill:#0782A4;}
	.st2{fill:#004D6D;}
	.st3{fill:#82C341;}
	.st4{fill:#27AAE1;}
</style>
<g>
	<path class="st0" d="M34,61.8H16.8v36.4h11.3c3-7,7.5-13.4,13.5-19.1c3.8-3.6,7.9-6.7,12.3-9.2C50.5,64.6,44,61.8,34,61.8z"/>
	<path class="st0" d="M173.6,61.8h-17.3v36.4h18.2c6.8,0,12-1.6,15.6-4.8c3.7-3.2,5.5-7.8,5.5-13.7
		C195.7,67.8,188.4,61.8,173.6,61.8z"/>
	<path class="st1" d="M41.6,112.4c5.1-0.6,9.4-1.5,12.9-2.9c5.9-2.4,10.5-6.2,13.9-11.4c3.4-5.2,5.1-11.2,5.1-18c0-0.3,0-0.6,0-0.8
		c-7.4,1.9-13.9,5.6-19.5,10.9C47.4,96.5,43.3,103.9,41.6,112.4z"/>
	<path class="st1" d="M16.8,98.2V61.8H34c10,0,16.5,2.7,19.8,8.1c4.9-2.8,10.2-4.9,15.8-6.2C68,60.8,66,58.3,63.5,56
		c-6.6-6-15.5-9-26.6-9H0v116.5h16.7V113h7.2c0.7-5.2,2.1-10.2,4.1-14.8H16.8L16.8,98.2z"/>
	<path class="st1" d="M139.6,108.7v0.7c0-0.2,0-0.3,0-0.5C139.6,108.9,139.6,108.8,139.6,108.7z"/>
	<path class="st2" d="M203.1,56c-6.6-6-15.5-9-26.6-9h-36.9v31.8c10.4,7.8,15.7,17.4,15.7,28.6c0,9.3-3.1,16.9-9.4,22.7
		c-1.9,1.8-4,3.3-6.3,4.6v28.8h16.7V113h12.3c11,0,19.4-1.2,25.3-3.5c5.9-2.4,10.5-6.2,13.9-11.4s5.1-11.2,5.1-18
		C213,70.1,209.7,62,203.1,56z M190.2,93.4c-3.7,3.2-8.9,4.8-15.6,4.8h-18.2V61.8h17.2c14.8,0,22.1,6,22.1,17.9
		C195.7,85.7,193.9,90.3,190.2,93.4z"/>
	<path class="st3" d="M28.1,98.2H35c6.8,0,12-1.6,15.7-4.8c3.7-3.2,5.5-7.8,5.5-13.7c0-3.9-0.8-7.2-2.4-9.8
		c-4.4,2.5-8.5,5.6-12.3,9.2C35.6,84.9,31.1,91.2,28.1,98.2z"/>
	<path class="st3" d="M24,113.1c-0.4,2.9-0.6,5.8-0.6,8.8c0,10.7,2.6,20.6,7.9,29.7c5.3,9.2,12.4,16.4,21.5,21.6
		c9.1,5.2,20.1,7.8,33.1,7.8c16,0,30.1-3.3,42.3-10v-18.3c-13.4,8.7-27.2,13-41.3,13c-13.5,0-24.6-4.1-33.2-12.3
		c-8.7-8.2-13-18.7-13-31.5c0-3.3,0.3-6.4,0.9-9.4c-3.7,0.4-7.9,0.6-12.5,0.6L24,113.1L24,113.1z"/>
	<path class="st3" d="M94.7,66.8c-1.1-1.5-2-3.1-2.7-4.8c-1.9-0.2-3.9-0.2-5.8-0.2c-5.8,0-11.4,0.6-16.6,1.9
		c2.4,4.5,3.7,9.7,3.8,15.6c4.3-1.1,8.8-1.7,13.7-1.7c9.7,0,19.5,2.2,29.5,6.5l-4.9-3C103.7,76.3,98.1,71.5,94.7,66.8z"/>
	<path class="st2" d="M69.6,63.7C64,65,58.7,67.1,53.8,69.9c1.6,2.6,2.4,5.9,2.4,9.8c0,5.2-1.4,9.3-4.2,12.4l-1.3,1.3
		c-3.7,3.2-8.9,4.8-15.7,4.8h-6.9c-2,4.7-3.4,9.6-4.1,14.8h5.1c4.6,0,8.8-0.2,12.5-0.6c1.6-8,5.2-14.9,11-20.9
		c0.4-0.4,0.8-0.9,1.3-1.3c5.6-5.3,12.1-9,19.5-10.9C73.3,73.4,72,68.2,69.6,63.7z"/>
	<path class="st1" d="M155.3,107.4c0-11.2-5.2-20.8-15.7-28.6v29.9c0,0.1,0,0.2,0,0.3c0,0.2,0,0.3,0,0.5v25.2
		c2.3-1.2,4.4-2.8,6.3-4.6C152.2,124.3,155.3,116.8,155.3,107.4z"/>
	<g>
		<path class="st4" d="M110.2,38.5c3.5-2.5,8-3.8,13.4-3.8c9.7,0,18.7,4,27.1,12.1V27.9c-8.1-5.4-17-8.2-26.7-8.2
			c-10.2,0-18.4,2.9-24.8,8.6c-6.4,5.7-9.5,13.2-9.5,22.3c0,4.1,0.8,8,2.3,11.5c0.7,1.7,1.6,3.2,2.7,4.8c3.4,4.7,9,9.5,16.9,14.3
			l4.9,3l7.8,4.7c10.1,6.3,15.2,12.9,15.3,19.9v-30c-1.7-1.3-3.6-2.6-5.6-3.8l-12.7-7.4c-5.7-3.3-9.9-6.5-12.4-9.6
			c-2.6-3-3.9-6.3-3.9-9.8C105,44.2,106.7,41,110.2,38.5z"/>
		<path class="st4" d="M134.4,119.9c-3.5,2.9-7.8,4.4-13,4.4c-11.8,0-22.2-5.7-31.2-17.1v21.2c9.4,7.1,19.9,10.6,31.4,10.6
			c6.9,0,12.9-1.4,18.1-4.2v-25.2C139.5,113.6,137.8,117.1,134.4,119.9z"/>
	</g>
</g>
</svg>
