<svg viewBox="0 0 250 250" xmlns="http://www.w3.org/2000/svg"><style type="text/css">.st0{fill-rule:evenodd;clip-rule:evenodd;fill:#066AA7;} .st1{fill-rule:evenodd;clip-rule:evenodd;fill:#4F4F4F;}</style><g><g><polygon class="st0" points="226.65,175.77 124.72,226.72 22.79,175.77 22.79,73.84 124.72,22.89 166.01,43.52 166.73,21.81 124.72,0.8 62.7,31.81 0.72,62.8 0.72,124.8 0.72,186.81 62.7,217.8 124.72,248.8 186.73,217.8 248.72,186.81 248.72,124.8 248.72,62.8 226.71,51.8 226.65,51.76 226.65,73.84 226.65,108.56 		"/><polygon class="st1" points="86.72,194.51 116.12,209.15 116.12,101.49 86.72,86.55 		"/><polygon class="st1" points="38.19,170.26 69.82,186.01 69.82,145.3 38.19,128.99 		"/><polygon class="st1" points="163.01,194.51 133.61,209.15 133.61,45.64 163.01,60.5 		"/></g><polygon class="st1" points="211.52,170.26 179.91,186.01 179.91,28.34 211.52,45.52 	"/></g><g></g><g></g><g></g><g></g><g></g><g></g></svg>
