<svg xmlns="http://www.w3.org/2000/svg" version="1.1" xmlns:xlink="http://www.w3.org/1999/xlink" width="777.61334" height="777.61334"><svg version="1.1" id="SvgjsSvg1035" width="777.61334" height="777.61334" viewBox="0 0 777.61334 777.61334" sodipodi:docname="UR SOCIAL circle on white.eps" xmlns:inkscape="http://www.inkscape.org/namespaces/inkscape" xmlns:sodipodi="http://sodipodi.sourceforge.net/DTD/sodipodi-0.dtd" xmlns="http://www.w3.org/2000/svg" xmlns:svg="http://www.w3.org/2000/svg">
  <defs id="SvgjsDefs1034"></defs>
  <sodipodi:namedview id="SvgjsSodipodi:namedview1033" pagecolor="#ffffff" bordercolor="#000000" borderopacity="0.25" inkscape:showpageshadow="2" inkscape:pageopacity="0.0" inkscape:pagecheckerboard="0" inkscape:deskcolor="#d1d1d1">
    <inkscape:page x="0" y="0" inkscape:label="1" id="SvgjsInkscape:page1032" width="777.61334" height="777.61334" margin="0" bleed="0"></inkscape:page>
  </sodipodi:namedview>
  <g id="SvgjsG1031" inkscape:groupmode="layer" inkscape:label="1">
    <g id="SvgjsG1030">
      <path id="SvgjsPath1029" d="M 5832.05,2916.02 C 5832.05,1305.55 4526.5,0 2916.03,0 1305.55,0 0,1305.55 0,2916.02 0,4526.5 1305.55,5832.05 2916.03,5832.05 c 1610.47,0 2916.02,-1305.55 2916.02,-2916.03" style="fill:#ffffff;fill-opacity:1;fill-rule:nonzero;stroke:none" transform="matrix(0.13333333,0,0,-0.13333333,0,777.61333)"></path>
      <path id="SvgjsPath1028" d="M 2031.97,3461.04 H 2486.3 V 2372.09 c 0,-185.09 -28.85,-324.52 -88.94,-420.68 -117.79,-189.9 -317.31,-302.88 -586.55,-302.88 -149.03,0 -276.44,28.85 -379.81,88.94 -209.14,122.6 -310.1,288.46 -310.1,632.22 v 1091.35 h 454.33 V 2376.9 c 0,-221.15 69.71,-329.33 230.77,-329.33 153.85,0 225.97,76.93 225.97,326.93 v 1086.54" style="fill:#1c4563;fill-opacity:1;fill-rule:nonzero;stroke:none" transform="matrix(0.13333333,0,0,-0.13333333,0,777.61333)"></path>
      <path id="SvgjsPath1027" d="m 3286.81,2566.8 c 180.29,0 290.87,84.14 290.87,254.82 0,153.84 -115.38,240.38 -286.07,240.38 h -173.07 v -495.2 z m 247.6,-884.62 -411.06,574.52 h -4.81 v -574.52 h -435.1 v 1778.86 h 581.74 c 185.1,0 326.92,-24.03 420.67,-64.9 192.32,-86.54 326.93,-295.68 326.93,-548.08 0,-281.26 -168.27,-512.02 -442.31,-560.11 l 483.18,-605.77 h -519.24" style="fill:#1c4563;fill-opacity:1;fill-rule:nonzero;stroke:none" transform="matrix(0.13333333,0,0,-0.13333333,0,777.61333)"></path>
      <path id="SvgjsPath1026" d="m 3658.81,3885.35 h 679.32 v -675.93 h 527.33 v 1204.5 H 3658.81 v -528.57" style="fill:#40bb6a;fill-opacity:1;fill-rule:nonzero;stroke:none" transform="matrix(0.13333333,0,0,-0.13333333,0,777.61333)"></path>
    </g>
  </g>
</svg><style>@media (prefers-color-scheme: light) { :root { filter: none; } }
@media (prefers-color-scheme: dark) { :root { filter: none; } }
</style></svg>