<svg height="90" viewBox="0 0 215 90" width="215" xmlns="http://www.w3.org/2000/svg"><g fill="#272c5e"><path d="m.1 89.7v-.5c.4 0 .7 0 1.1-.1.1 0 .1-.1.2-.2.1-.3.1-.6.1-.8 0-.7 0-1.3 0-1.8v-6.5c0-.1 0-.2 0-.3-.1-.1-.2-.2-.3-.3 0-.2-.2-.2-.3-.3-.3 0-.6 0-.8 0v-.5h1.7 1.2l1 1.3 1.6 2 2.3 2.8c.8.9 1.4 1.7 1.8 2.2.3.3.5.6.7.8v-5.8c0-.5 0-1.1-.1-1.8 0-.3 0-.6-.1-.8 0-.1-.1-.1-.2-.2-.4-.1-.7-.1-1.1-.1v-.5h1.9s1.1 0 1.7 0v.5c-.4 0-.7 0-1.1.1-.1 0-.1.1-.2.2-.1.3-.1.6-.1.8v1.8 3.8 4.3l-.8-.2h-.2s-.1 0-.1-.1c0 0-.1-.1-.3-.3-.4-.5-.8-.8-1-1.1l-1-1.3-5.5-6.8v6.1c0 .5 0 1.1.1 1.9 0 .3 0 .6.1.8 0 .2.1.2.2.2.4.1.7.1 1.1.1v.5c-.5 0-1-.1-1.5-.1s-1.4.1-2.1.2"/><path d="m15.2 85.4c0 .7.1 1.3.3 2 .2.6.5 1.1.9 1.5.4.3.9.5 1.3.5.6 0 1.2-.3 1.5-.7.5-.7.7-1.4.6-2.2 0-.7-.1-1.5-.4-2.2-.2-.5-.5-1-.9-1.3-.4-.2-.8-.4-1.3-.4-.6 0-1.2.2-1.6.7-.2.6-.4 1.3-.4 2.1m-1.5.6c0-1.1.4-2.1 1.1-2.9.8-.8 1.8-1.2 2.9-1.1 2-.1 3.7 1.4 3.8 3.4v.3c0 .7-.2 1.5-.5 2.1-.4.6-.9 1.2-1.5 1.5-.7.4-1.4.6-2.2.5-.5 0-1.1-.1-1.6-.3-.4-.2-.7-.4-1-.8-.3-.3-.5-.6-.6-1-.3-.5-.4-1.1-.4-1.7"/><path d="m22.4 89.7v-.5h1c.1 0 .1 0 .2-.1 0 0 .1-.1.1-.1.1-.2.1-.4.1-.6 0-1.4 0-2.2 0-2.2v-1c0-.4 0-.9 0-1.4 0-.2 0-.4-.1-.6 0-.1-.1-.1-.2-.1-.3 0-.7 0-1 0v-.5c.8-.1 1.6-.3 2.3-.6.1 0 .1-.1.2-.1h.1v.1.1 1.5c.2-.3.5-.6.7-.8.1-.2.3-.4.4-.5.5-.5 1.2-.6 1.9-.3v.1c-.1.8-.1 1.5-.1 2h-.4c-.1-.2-.2-.4-.4-.6-.2-.1-.4-.2-.6-.2-.4 0-.8.2-1 .5-.3.4-.5 1-.4 1.5v.8 1.9.6c0 .1 0 .1.1.2 0 0 .1.1.2.1.4.1.9.1 1.3.1v.5c-.9 0-1.7-.1-2.4-.1-.7.2-1.4.2-2 .3"/><path d="m28.8 83.4v-.3c.4-.2.8-.3 1.2-.5v-2.4c.5-.2.9-.4 1.3-.6l.2.2c-.1.4-.1 1.4-.2 2.9h.8.9.6l.1.1-.2.7h-2.1v3.2 1.4c0 .1.1.3.2.4s.2.2.3.3c.2.1.4.1.6.2h.5c.2 0 .3-.1.5-.1l.1.3c-.2.2-.5.4-.7.6-.2.1-.4.1-.6.2-.2 0-.4 0-.6 0s-.5 0-.7-.1-.3-.2-.5-.3c-.1-.1-.3-.3-.3-.4-.1-.3-.2-.6-.2-.8 0-.4 0-.8 0-1.2 0-.1 0-.2 0-.3v-3.3h-.3c-.2-.2-.5-.2-.9-.2"/><path d="m33.9 89.7v-.5h.7c.1 0 .2 0 .3-.1.1 0 .1-.1.1-.1.1-.2.1-.4.1-.6 0-.1 0-.8.1-2.3v-4.1c0-.9 0-1.8 0-2.7 0-.4 0-.7-.1-1.1 0-.1-.1-.1-.1-.1-.4-.1-.7-.1-1.1-.1v-.5c.9-.1 1.7-.3 2.5-.6h.2.1v.1.2.3 2.4 1.2 2.3c.1-.1.3-.2.6-.5l.6-.5c.1-.1.1-.1.2-.2s.3-.1.5-.2c.7-.2 1.5-.1 2.2.2.4.2.7.5.9.8.2.5.3 1 .3 1.5v1.4 1.1 1.1c0 .2 0 .4.1.6 0 0 .1.1.1.1.1 0 .1.1.2.1h.8v.5c-.6 0-1 0-1.3 0h-1.4c.1-.8.1-1.5.1-2.3v-2c0-.4 0-.9-.1-1.3-.1-.3-.3-.5-.6-.7s-.7-.3-1.1-.3c-.3 0-.5 0-.8.1-.2.1-.4.2-.6.4s-.3.3-.5.6c-.1.1-.1.2-.1.3v.8.9 2.2c0 .2 0 .4.1.6 0 0 .1.1.1.1.1 0 .1.1.2.1h.9v.5c-.9 0-1.6-.1-2-.1s-1.1.2-2.2.4"/><path d="m45.2 85.2.8.1h1.6 1.4c0-.1 0-.2 0-.3.1-.7-.1-1.3-.5-1.8-.3-.4-.8-.6-1.4-.6s-1.1.2-1.4.6c-.4.5-.6 1.3-.5 2m5 3.2-.2.6c-.3.2-.6.3-.8.5-.3.1-.6.2-.8.3-.3.1-.7.1-1 .1-.7 0-1.3-.1-1.9-.4s-1-.7-1.3-1.3-.5-1.3-.5-2c0-.6.1-1.1.3-1.7.1-.4.3-.8.6-1.1.2-.2.5-.4.7-.6.3-.2.6-.4 1-.5.4-.2.9-.3 1.4-.3.6 0 1.1.1 1.6.4s.8.6 1.1 1.1c.2.5.3 1 .3 1.6v.5c-.3.1-.7.1-1 .1-.6.1-1.1.1-1.7.1h-2.5c0 .6.1 1.3.4 1.8.2.4.5.8 1 1 .1.3.6.4 1.1.4.3 0 .6-.1 1-.2.4-.2.8-.3 1.2-.6z"/><path d="m51.4 89.7v-.5h1c.1 0 .1 0 .2-.1 0 0 .1-.1.1-.1.1-.2.1-.4.1-.6 0-1.4 0-2.2 0-2.2v-1c0-.4 0-.9 0-1.4 0-.2 0-.4-.1-.6 0-.1-.1-.1-.2-.1-.3 0-.7 0-1 0v-.5c.8-.1 1.6-.3 2.3-.6.1 0 .1-.1.2-.1h.1v.1.1 1.5c.2-.3.5-.6.7-.8.1-.2.3-.4.4-.5.5-.5 1.2-.6 1.9-.3v.1c-.1.7-.1 1.3-.1 1.9h-.4c-.1-.2-.2-.4-.4-.6-.2-.1-.4-.2-.6-.2-.4 0-.8.2-1 .5-.3.4-.5 1-.4 1.5v.8 1.9.6c0 .1 0 .1.1.2 0 0 .1.1.2.1.4.1.9.1 1.3.1v.5c-.9 0-1.7-.1-2.4-.1s-1.4.3-2 .4"/><path d="m57.7 89.7v-.5h.8c.1 0 .2 0 .3-.1.1 0 .1-.1.1-.1.1-.2.1-.4.1-.6 0-.1 0-.8 0-2.3v-1c0-.4 0-.9 0-1.4 0-.2 0-.4-.1-.6 0-.1-.1-.1-.2-.1-.3 0-.7 0-1 0v-.5c.8-.1 1.6-.3 2.3-.6.1 0 .1-.1.2-.1h.1v.1.1c0 .2 0 .6-.1 1.2l1.5-1.3c.4-.1.8-.2 1.2-.2s.8.1 1.2.3c.3.1.6.4.8.7s.3.6.4 1c0 .2.1.9.1 2v1.4c0 .5 0 .9.1 1.4 0 .1.1.2.1.3.1.1.2.1.3.1h.8v.5c-.5 0-1-.1-1.3-.1s-.8 0-1.5.1c.1-1.3.1-2.1.1-2.5v-1.3c0-.6 0-1.1-.1-1.7-.1-.3-.3-.6-.6-.8s-.7-.3-1.1-.3-.8.1-1.1.3-.5.4-.7.7c-.2.4-.2.8-.2 1.2v1 2.2c0 .2 0 .4.1.6 0 0 .1.1.1.1.1 0 .1.1.2.1h.8v.5c-.6 0-1.2-.1-1.8-.1s-1.2 0-2.2.1"/><path d="m76 89.1v.5c-1.1 0-1.9-.1-2.2-.1l-2.4.1v-.5c.4 0 .8 0 1.1-.1.1 0 .2-.1.3-.2.1-.2.1-.5.1-.8 0-.1 0-.8 0-2.2v-3.7c0-.7 0-1.4 0-2.1 0-.3 0-.6-.1-.9-.1-.1-.2-.2-.3-.2-.4-.1-.8-.1-1.1-.1v-.5c1 0 1.8.1 2.3.1s1.3 0 2.3-.1v.5c-.4 0-.8 0-1.1.1-.1 0-.2.1-.3.2-.1.2-.1.5-.1.8v2.2 3.7 2.1c0 .3 0 .6.1.9.1.1.2.2.3.2.3.1.7.2 1.1.1"/><path d="m76.8 89.7v-.5h1c.1 0 .1 0 .2-.1 0 0 .1-.1.1-.1.1-.2.1-.4.1-.6 0-1.4 0-2.2 0-2.2v-1c0-.4 0-.9 0-1.4 0-.2 0-.4-.1-.6 0-.1-.1-.1-.2-.1-.3 0-.7 0-1 0v-.5c.8-.1 1.6-.3 2.3-.6.1 0 .1-.1.2-.1h.1v.1.1c0 .3 0 .8-.1 1.5.2-.3.5-.6.7-.8.1-.2.3-.4.4-.5.2-.1.3-.3.5-.3.4-.2.9-.2 1.3 0l.1.1c-.1.6-.1 1.2-.1 1.9h-.3c-.1-.2-.2-.4-.4-.6-.2-.1-.4-.2-.6-.2-.4 0-.8.2-1 .5-.3.4-.5 1-.4 1.5v.8 1.9.6c0 .1 0 .1.1.2 0 0 .1.1.2.1.4.1.9.1 1.3.1v.5c-.9 0-1.7-.1-2.4-.1s-1.3 0-2 .1"/><path d="m84.5 85.2.8.1h1.7 1.4c0-.1 0-.2 0-.3.1-.7-.1-1.3-.5-1.8-.3-.4-.8-.6-1.4-.6s-1.1.2-1.4.6c-.5.5-.7 1.3-.6 2m5.1 3.2-.3.6c-.3.2-.5.3-.8.5-.3.1-.6.2-.8.3-.3.1-.7.1-1 .1-.7 0-1.3-.1-1.9-.4s-1-.7-1.3-1.3-.5-1.3-.5-2c0-.6.1-1.1.3-1.7.1-.4.3-.8.6-1.1.2-.2.5-.4.7-.6.3-.2.6-.4 1-.5.4-.2.9-.3 1.4-.3.6 0 1.1.1 1.6.4s.8.6 1.1 1.1c.2.5.3 1 .3 1.6v.5c-.3.1-.7.1-1 .1-.6.1-1.1.1-1.7.1h-2.5c0 .6.1 1.3.4 1.8.2.4.6.8 1 1s.9.3 1.4.3c.3 0 .7-.1 1-.2.4-.2.8-.3 1.2-.6z"/><path d="m90.8 89.7v-.5h.7c.1 0 .2 0 .3-.1.1 0 .1-.1.1-.1.1-.2.1-.4.1-.6 0-.1 0-.8.1-2.3v-3.3c0-.9 0-1.8 0-2.7 0-.4 0-.7-.1-1.1 0-.1-.1-.1-.1-.1-.4-.1-.7-.1-1.1-.1v-.5c.9-.1 1.7-.3 2.5-.6 0 0 .1 0 .2-.1h.1v.1.2.3 2.4 1.4 4.1 2.2c0 .2 0 .4.1.6 0 0 .1.1.1.1.1 0 .1.1.2.1h.9v.5c-.7 0-1.4-.1-1.9-.1s-1.3 0-2.2.2"/><path d="m100.4 85.5c-.6.1-1.2.2-1.8.4-.4.1-.7.2-1 .4-.1.1-.2.2-.3.4-.1.3-.2.5-.2.8-.1.6.4 1.2 1 1.2h.2c.4 0 .7-.1 1-.3.4-.2.7-.6 1-.9v-2zm-3.6-1.3-.4-.1c0-.1 0-.3 0-.5s0-.4 0-.5c.5-.4 1.1-.7 1.7-.9.4-.1.7-.2 1.1-.2.5 0 1.1.1 1.5.3s.7.6.9 1 .2.8.2 1.2v1.5 2.4c0 .2 0 .4.1.5 0 .1.1.1.2.2.1 0 .2.1.3.1l.5.1v.5c-.4 0-.8-.1-1.1-.1s-.7 0-1.3.1v-1.4c-1.1.8-1.7 1.3-1.9 1.4s-.5.2-.8.2c-.5 0-1.1-.1-1.5-.5s-.6-.9-.5-1.4c0-.3.1-.7.2-1s.3-.5.5-.7.3-.3.5-.4c.5-.2 1-.4 1.5-.5.7-.2 1.4-.3 2.1-.4 0-.4 0-.8-.2-1.2-.1-.3-.4-.5-.6-.7-.3-.2-.7-.3-1.1-.3-.3 0-.6 0-.8.1-.2 0-.3.1-.4.2l-.1.3c-.3.3-.4.5-.6.7"/><path d="m103.4 89.7v-.5h.8c.1 0 .2 0 .3-.1.1 0 .1-.1.1-.1.1-.2.1-.4.1-.6 0-.1 0-.8 0-2.3v-1c0-.4 0-.9 0-1.4 0-.2 0-.4-.1-.6 0-.1-.1-.1-.2-.1-.3 0-.7 0-1 0v-.5c.8-.1 1.6-.3 2.3-.6.1 0 .1-.1.2-.1h.1v.1.1c0 .2 0 .6-.1 1.2l1.5-1.3c.4-.2.8-.2 1.2-.2s.8.1 1.2.3c.3.1.6.4.8.7s.3.6.4 1c0 .2.1.9.1 2v1.4c0 .5 0 .9.1 1.4 0 .1.1.2.1.3.1.1.2.1.3.1h.8v.5c-.5 0-1-.1-1.3-.1s-.8 0-1.5.1c.1-1.3.1-2.1.1-2.5v-1.3c0-.6 0-1.1-.1-1.7-.1-.3-.3-.6-.6-.8s-.7-.3-1.1-.3-.8.1-1.1.3-.5.4-.7.7c-.2.4-.2.8-.2 1.2v1 2.2c0 .2 0 .4.1.6 0 0 .1.1.1.1.1 0 .1.1.2.1h.8v.5c-.6 0-1.2-.1-1.8-.1s-1.2 0-2.2.1"/><path d="m119.4 83.9c-.3-.4-.7-.6-1.1-.8s-.8-.3-1.2-.3-.8.1-1.2.3-.7.6-.8 1c-.2.5-.3 1.1-.3 1.6-.1.8.2 1.6.7 2.3.4.5 1.1.8 1.7.8.3 0 .7-.1.9-.2.3-.2.5-.4.7-.6.2-.3.4-.6.4-.9.1-.6.1-1.2.1-1.7zm-1.4-5.1v-.5c.5 0 1-.1 1.5-.2.4-.1.8-.2 1.2-.3l.1.1c0 .5-.1 1.3-.1 2.6v1.3 5 1.4c0 .2 0 .5.1.7l.2.2c.3.1.7.1 1 .1v.4c-.6 0-1.1-.1-1.4-.1s-.7 0-1.4.1c0-.4 0-.8 0-1.5-.2.2-.5.4-.8.7s-.6.6-.8.8c-.4.1-.7.2-1.1.2-.6 0-1.2-.1-1.7-.4s-.9-.8-1.2-1.3c-.3-.6-.4-1.2-.4-1.9 0-.5.1-1 .3-1.5.1-.4.3-.8.6-1.1s.6-.5 1-.7.8-.5 1.2-.7c.3-.1.7-.2 1-.2.7 0 1.3.2 1.9.5v-2.1c0-.4 0-.9-.1-1.3 0-.1-.1-.1-.1-.1-.2-.2-.6-.2-1-.2"/><path d="m130 85.2h4l-2-4.8zm-3.7 4.5v-.5c.3 0 .5 0 .8-.1.1 0 .2-.1.3-.2.2-.2.3-.4.4-.6l1-2.2 2-4.5c.2-.5.7-1.6 1.4-3.3h.5l3.4 8c.6 1.3.9 2.1 1.1 2.4.1.2.2.3.3.4.3.1.6.1.8.1v.5c-.8-.1-1.4-.1-1.7-.1l-2.5.1v-.5c.4 0 .7 0 1.1-.1.1 0 .2-.1.3-.1 0-.1.1-.1.1-.2 0-.2-.1-.3-.1-.5l-1-2.4h-4.6l-.8 2c-.1.3-.2.5-.2.8 0 .1 0 .1.1.2s.2.1.3.1c.3.1.7.1 1 .1v.5c-.9-.1-1.6-.1-2-.1-.7.1-1.2.1-2 .2"/><path d="m148.1 89.2v.5c-.7 0-1.2-.1-1.6-.1s-.8 0-1.2.1c0-.4.1-.9.1-1.4-.4.3-.8.7-1.1 1-.1.1-.2.2-.3.2-.2.1-.4.2-.7.3s-.6.1-.8.1c-.4 0-.7 0-1.1-.2-.3-.1-.5-.3-.7-.5s-.3-.4-.4-.7-.1-.7-.1-1c0-.2 0-.4 0-.5 0-.2 0-.3 0-.5v-1.4c0-.1 0-.5 0-1 0-.2 0-.5-.1-.7 0-.1-.1-.1-.1-.1-.1-.1-.3-.1-.4-.1h-.7v-.5c.9 0 1.7-.3 2.5-.6.1 0 .1-.1.2-.1h.1v.1.2s0 .5-.1 1c0 .8-.1 1.5-.1 1.8v1.5c0 .5 0 .9.1 1.4.1.3.3.5.5.6.3.2.6.3.9.2.3 0 .5 0 .8-.1.2-.1.5-.2.7-.4.2-.1.3-.3.5-.5.1-.1.2-.2.2-.4 0-.1.1-.2.1-.4 0-.5 0-.9 0-1.4v-.7c0-.1 0-.5 0-1 0-.2 0-.5-.1-.7 0-.1-.1-.1-.1-.1-.1-.1-.3-.1-.4-.1h-.7v-.5c.9 0 1.7-.3 2.5-.6.1 0 .1-.1.2-.1h.1v.1.2c0 .1 0 .5-.1 1 0 .8-.1 1.4-.1 1.7v1 1.1 1.1c0 .2 0 .4.1.6 0 0 .1.1.1.1.1 0 .1.1.2.1z"/><path d="m155.2 83.9c-.3-.4-.7-.6-1.1-.8s-.8-.3-1.2-.3-.8.1-1.2.3-.7.6-.8 1c-.2.5-.3 1.1-.3 1.6 0 .8.2 1.6.7 2.3.4.5 1.1.8 1.7.8.3 0 .7-.1 1-.2.3-.2.5-.4.7-.6.2-.3.3-.6.4-.9.1-.6.1-1.2.1-1.7zm-1.3-5.1v-.5c.5 0 1-.1 1.5-.2.4-.1.8-.2 1.2-.3l.1.1c0 .5 0 1.3-.1 2.6v1.3 5 1.4c0 .2 0 .5.1.7l.2.2c.3.1.7.1 1 .1v.4c-.6 0-1.1-.1-1.4-.1s-.7 0-1.4.1c0-.4 0-.8 0-1.5-.2.2-.5.4-.8.7s-.6.6-.8.8c-.4.1-.7.2-1.1.2-.6 0-1.2-.1-1.7-.4s-.9-.8-1.2-1.3c-.3-.6-.4-1.2-.4-1.9 0-.5.1-1 .3-1.5.1-.4.3-.8.6-1.1s.6-.5 1-.7.8-.5 1.2-.7c.3-.1.7-.2 1-.2s.7 0 1 .1.6.2.9.4v-2.1c0-.4 0-.9-.1-1.3 0-.1-.1-.1-.1-.1-.3-.2-.7-.2-1-.2"/><path d="m160.7 78.5c.2 0 .5.1.6.3.2.2.3.4.3.6s-.1.5-.3.6c-.2.2-.4.3-.6.3s-.5-.1-.6-.3c-.3-.4-.3-.9 0-1.3.2-.1.4-.2.6-.2m-1.9 4.6v-.5c.9-.1 1.8-.3 2.6-.7l.2.1c0 1.1-.1 2-.1 2.6v1.4c0 1.4 0 2.1.1 2.2 0 .2 0 .4.1.6 0 0 .1.1.1.1.1 0 .1.1.2.1h.8v.5c-.8 0-1.4-.1-1.9-.1s-1.1 0-2.1.1v-.5h.8c.1 0 .2 0 .3-.1.1 0 .1-.1.1-.1.1-.2.1-.4.1-.6 0-.1 0-.8 0-2.3v-1.4c0-.5 0-.9-.1-1.4 0-.1-.1-.2-.2-.2-.4.2-.7.2-1 .2"/><path d="m163.5 83.4v-.3c.4-.2.8-.3 1.2-.5v-2.4c.5-.2.9-.4 1.3-.6l.2.2c-.1.4-.1 1.4-.2 2.9h.8.8.6l.1.1-.2.7h-2.1v3.2 1.4c0 .3.2.5.4.7.2.1.4.1.6.2h.5c.2 0 .3-.1.5-.2l.1.3c-.3.2-.5.4-.7.6-.2.1-.4.1-.6.2-.2 0-.4 0-.6 0s-.5 0-.7-.1-.3-.2-.5-.3c-.1-.1-.3-.3-.3-.4-.1-.3-.2-.5-.2-.8 0-.4 0-.8 0-1.2 0-.1 0-.2 0-.3v-3.3h-.3c-.3 0-.6 0-.9 0"/><path d="m174.6 83.4c0 .5 0 1 .1 1.5s.2.9.4 1.3c.2.6.6 1.1 1 1.6.4.4.8.7 1.4 1 .5.2 1.1.3 1.7.3.8 0 1.6-.2 2.2-.6s1.1-1 1.4-1.8.5-1.7.5-2.6c0-.8-.1-1.6-.3-2.3-.1-.4-.3-.8-.5-1.2-.2-.3-.5-.7-.8-.9-.4-.3-.8-.5-1.2-.7-.5-.2-1.1-.3-1.6-.3-.8 0-1.5.2-2.2.6-.6.4-1.1.9-1.4 1.6-.6.9-.8 1.7-.7 2.5m-1.7.7c0-.8.1-1.6.4-2.3s.7-1.4 1.2-1.9c.6-.6 1.3-1 2-1.3.8-.3 1.7-.5 2.5-.4.8 0 1.6.1 2.4.4.6.2 1.2.5 1.8 1 .4.4.8.8 1.1 1.3.2.4.4.8.5 1.3s.2 1 .2 1.5c0 1.7-.6 3.3-1.8 4.4-1.2 1.2-2.8 1.8-4.5 1.8-.8 0-1.6-.1-2.3-.4s-1.3-.7-1.8-1.2c-.5-.6-.9-1.2-1.1-1.9-.5-.8-.6-1.6-.6-2.3"/><path d="m185.9 83.5v-.3c.4-.2.7-.3 1.1-.6v-.5c0-.5 0-1 .1-1.5.1-.3.2-.5.4-.8.3-.4.7-.9 1.1-1.2.2-.2.5-.5.8-.6.2-.1.5-.2.8-.2.2 0 .4 0 .6.1v1.3l-.2.1c-.1-.1-.3-.2-.5-.3s-.4-.1-.6-.1-.5 0-.7.2c-.2.1-.3.3-.4.5-.1.4-.1.9-.1 1.3v1.7h.8c.4 0 .8 0 1.2-.1l.1.1-.2.8h-1-1v2.8 1.9.6c0 .1 0 .1.1.2 0 0 .1.1.2.1.4.1.9.1 1.3.1v.5l-2.3-.1-2 .1v-.5h.8c.1 0 .2 0 .3-.1.1 0 .1-.1.1-.1.1-.2.1-.4.1-.6 0-.1 0-.8 0-2.3v-2.8z"/><path d="m191 83.5v-.3c.4-.2.7-.3 1.1-.6v-.5c0-.5 0-1 .1-1.5.1-.3.2-.5.4-.8.3-.4.7-.9 1.1-1.2.2-.2.5-.5.8-.6.2-.1.5-.2.8-.2.2 0 .4 0 .6.1v1.3l-.2.1c-.1-.1-.3-.2-.5-.3s-.4-.1-.6-.1-.5 0-.7.2c-.2.1-.3.3-.4.5-.1.4-.1.9-.1 1.3v1.7h.8c.4 0 .8 0 1.2-.1l.1.1-.2.8h-1-1v2.8 1.9.6c0 .1 0 .1.1.2 0 .1.1.1.2.1.4.1.9.1 1.3.1v.5l-2.3-.1-2 .1v-.5h.8c.1 0 .2 0 .3-.1.1 0 .1-.1.1-.1.1-.2.1-.4.1-.6 0-.1 0-.8 0-2.3v-2.8z"/><path d="m198.1 78.5c.2 0 .5.1.6.3.2.2.3.4.3.6s-.1.5-.3.6c-.2.2-.4.3-.6.3s-.5-.1-.6-.3c-.3-.3-.4-.9 0-1.2.2-.2.4-.3.6-.3m-1.9 4.6v-.5c.9-.1 1.8-.3 2.6-.7l.2.1c0 1.1-.1 2-.1 2.6v1.4c0 1.4 0 2.1.1 2.2 0 .2 0 .4.1.6 0 .1.1.1.1.1.1 0 .1.1.2.1h.8v.5c-.8 0-1.4-.1-1.9-.1s-1.1 0-2.1.1v-.5h.8c.1 0 .2 0 .3-.1.1 0 .1-.1.1-.1.1-.2.1-.4.1-.6 0-.1 0-.8 0-2.3v-1.4c0-.5 0-.9-.1-1.4 0-.1-.1-.1-.2-.2-.4.2-.7.2-1 .2"/><path d="m207.5 88.8-.3.5c-.3.2-.7.3-1.1.4s-.8.1-1.2.1c-1 0-2-.3-2.7-1s-1-1.7-1-2.8c0-.6.1-1.1.3-1.6.1-.4.4-.8.7-1.1s.6-.5 1-.7c.3-.2.7-.4 1-.5.4-.2.9-.2 1.3-.2s.9 0 1.3.2c.3.1.5.2.7.3-.1.4-.1.7-.1.9s-.1.6-.1 1.1h-.5c0-.3 0-.6-.1-1 0-.1-.1-.2-.1-.2-.2-.2-.5-.3-.7-.4-.3-.1-.6-.2-1-.2s-.8.1-1.1.3-.6.5-.8.8c-.2.5-.3 1-.3 1.5 0 .7.1 1.3.4 2 .2.5.6 1 1 1.3s.9.4 1.5.4c.3 0 .5 0 .8-.1s.7-.2 1-.4z"/><path d="m209.7 85.2.8.1h1.6 1.4v-.3c.1-.7-.1-1.3-.5-1.8-.3-.4-.8-.6-1.4-.6s-1.1.2-1.4.6c-.4.5-.6 1.3-.5 2m5.1 3.2-.3.6c-.3.2-.6.3-.8.5-.3.1-.6.2-.8.3-.3.1-.7.1-1 .1-.7 0-1.3-.1-1.9-.4s-1-.7-1.3-1.3-.5-1.3-.5-2c0-.6.1-1.1.3-1.7.1-.4.3-.8.6-1.1.2-.2.5-.4.7-.6.3-.2.6-.4 1-.5.4-.2.9-.3 1.4-.3.6 0 1.1.1 1.6.4.5.2.8.6 1.1 1.1.2.5.3 1 .3 1.6v.5c-.3.1-.7.1-1 .1-.6.1-1.1.1-1.7.1h-2.5c0 .6.1 1.3.4 1.8.2.4.6.8 1 1s.9.3 1.4.3c.3 0 .7-.1 1-.2.4-.2.8-.3 1.2-.6z"/><path d="m11.2 47.1c.9 0 1.9-.1 2.8-.2.1-.1.3-.1.4-.3s.2-.5.3-.7c.1-.5.2-1.8.3-3.8 0-1.1 0-2.6 0-4.4v-6.6l-.1-6c0-.7 0-1.3-.1-2 0-.2-.1-.5-.3-.7s-.4-.3-.6-.3c-.9-.1-1.7-.2-2.6-.3v-1.7c1.7.1 3 .1 3.8.1l3-.1 1.9-.1c2.8 3.7 6.2 7.9 10.3 12.7 2.9 3.5 5.3 6.2 7.2 8.1v-4.7c0-7.4-.1-11.7-.2-13 0-.4-.1-.7-.4-1-.3-.2-1.4-.4-3.2-.4v-1.7c1.7.1 3.2.1 4.6.1s3.1-.1 5.2-.1v1.7c-1-.1-2 .1-3 .4-.1.1-.2.2-.2.3-.3 1.5-.4 3.1-.4 4.7-.1 2.4-.1 4.3-.1 5.4 0 9.1.1 14.6.3 16.6l-.3.2c-1.1-.2-2.3-.4-3.5-.5-4.4-4.9-10.7-12.4-18.8-22.3v10.2c0 2.1 0 4.3.1 6.6 0 1 .1 1.9.2 2.9.1.2.1.3.3.4s.4.2.7.2c.6.1 1.3.1 2 .2h.4v1.7l-4.4-.1c-1.3 0-3.1 0-5.4.1z"/><path d="m87.1 20.1v1.8c-.8 0-1.7 0-2.5.2-.2 0-.4.1-.6.2-.1.1-.2.2-.2.3-.1.4-.2.9-.2 1.3s-.1 1-.1 2c-.1 3.4-.1 5.2-.1 5.5v8.3l.1 3.8c0 .9 0 1.8.2 2.8 0 .2.1.3.3.4s.4.2.6.2c.8.1 1.6.1 2.4.1v1.8c-2.2-.1-4.6-.1-7.2-.1-2.2 0-4.2 0-5.9.1v-1.8c1.4-.1 2.2-.1 2.5-.1.2 0 .4-.1.6-.2.1-.1.2-.2.2-.3 0-.2.1-.8.2-1.9.1-1.7.2-3.2.2-4.6v-8.6c0-2.7 0-4.5 0-5.3 0-1.1-.1-2.2-.2-3.3 0-.2-.1-.3-.2-.4s-.3-.2-.5-.2c-.9-.1-1.7-.2-2.6-.2v-1.8c1.7.1 3.7.1 5.9.1 2.4.1 4.8 0 7.1-.1"/><path d="m127.1 37.8c1.3 0 2.8.1 4.4.1s3 0 4.2-.1l-4.4-10.6zm-9.1 11.1v-1.7c.7 0 1.3-.1 2-.2.2-.1.4-.1.5-.3.2-.2.3-.4.5-.6.2-.3.6-1.3 1.4-3.1.4-.8 1-2.5 2.1-5l5.4-13.2 1.8-4.7h2.9l9.2 21.5 1.3 2.8.8 1.9c.1.2.2.4.4.5.1.1.3.2.4.3.4.1.8.1 1.2.1l.9.1v1.7l-5.7-.1-7.2.1v-1.7c.9 0 1.9-.1 2.8-.3.2-.1.3-.3.3-.6-.1-.6-.2-1.1-.5-1.7l-1.8-4.5h-10.7l-.9 2.5c-.5 1.1-.8 2.3-1 3.5 0 .3.1.5.3.7 1 .3 1.9.4 2.9.4v1.7l-4.7-.1z"/><path d="m177.8 33.6c-.1 2.7.4 5.4 1.3 7.9.6 1.8 1.8 3.3 3.4 4.4 2.9 1.7 6.5 1.7 9.5.1 1.5-1 2.6-2.5 3.2-4.2.8-2.3 1.2-4.7 1.2-7.1 0-1.8-.2-3.5-.6-5.3-.4-1.5-1-2.8-1.8-4.1-.7-1-1.7-1.9-2.8-2.5-1.3-.6-2.7-.9-4.2-.9-1.8-.1-3.6.4-5.1 1.4s-2.5 2.5-3.1 4.2c-.7 2-1.1 4.1-1 6.1m-6.4 1.3c-.1-2.3.3-4.5 1.1-6.6.7-1.8 1.8-3.4 3.3-4.7 1.3-1.2 2.9-2.2 4.6-2.8 2.3-.8 4.6-1.1 7-1.1 2.3 0 4.5.4 6.7 1.1 2.8 1 5.2 2.9 6.7 5.4.6 1.1 1.1 2.3 1.4 3.5.3 1.4.5 2.8.5 4.2 0 2.5-.4 4.9-1.3 7.2-.7 1.6-1.6 3.1-2.9 4.4-1.2 1.2-2.7 2.2-4.3 2.9-2.4 1-5 1.4-7.6 1.4-2.7.1-5.5-.5-7.9-1.7-2.2-1.1-4-2.8-5.2-4.9-1.5-2.7-2.1-5.5-2.1-8.3"/></g><path d="m0 .9h215" fill="none" stroke="#272c5e" stroke-width="1.89"/><path d="m0 65h215" fill="none" stroke="#fff" stroke-width="1.89"/><path d="m160.3 7.2v52.6m-53.6-52.6v52.6m-53.3-52.6v52.6m160.5-.2h-213.1v-52.3h213.2z" fill="none" stroke="#272c5e" stroke-width="1.89"/><path d="m0 65.6h215" fill="none" stroke="#272c5e" stroke-width="1.89"/></svg>