<?xml version="1.0" encoding="utf-8"?>
<!-- Generator: Adobe Illustrator 25.4.1, SVG Export Plug-In . SVG Version: 6.00 Build 0)  -->
<svg version="1.0" id="Layer_1" xmlns="http://www.w3.org/2000/svg" xmlns:xlink="http://www.w3.org/1999/xlink" x="0px" y="0px"
	 viewBox="0 0 158 54" style="enable-background:new 0 0 158 54;" xml:space="preserve">
<style type="text/css">
	.st0{fill:#253244;}
	.st1{fill:#FED272;}
	.st2{clip-path:url(#SVGID_2_);fill:#253244;}
	.st3{clip-path:url(#SVGID_4_);fill:#253244;}
	.st4{clip-path:url(#SVGID_6_);fill:#253244;}
	.st5{clip-path:url(#SVGID_8_);fill:#253244;}
	.st6{fill:#ED7B21;}
	.st7{fill:#A2D1CD;}
	.st8{clip-path:url(#SVGID_10_);fill:#253244;}
</style>
<g>
	<rect x="110.76" y="10.97" class="st0" width="1.02" height="7.71"/>
	<rect x="123.87" y="10.97" class="st0" width="0.99" height="7.71"/>
	<g>
		<polygon class="st1" points="12,46.06 29.45,53.12 35.41,39.81 		"/>
		<polygon class="st0" points="15.55,33.52 11.13,43.57 12,46.06 31.01,40.98 32.26,40.65 29.02,33.52 		"/>
		<g>
			<defs>
				<rect id="SVGID_1_" x="1.11" y="1.15" width="156.11" height="51.97"/>
			</defs>
			<clipPath id="SVGID_2_">
				<use xlink:href="#SVGID_1_"  style="overflow:visible;"/>
			</clipPath>
			<path class="st2" d="M66.72,31.95c-0.57-1.31-1.13-2.63-1.51-3.73c-0.36,0.87-1.02,2.54-1.54,3.73H66.72z M65.15,23.31h0.1
				l6.07,12.72h-2.79l-1.01-2.21h-4.67l-0.97,2.21h-2.79L65.15,23.31z"/>
			<path class="st2" d="M78.28,36.04l-0.07-0.99c-0.02-0.31,0.03-0.52,0.07-0.61h-0.03c-0.36,0.8-1.51,1.84-2.95,1.84
				c-1.96,0-3.02-1.2-3.02-3.5v-5.45h2.6v5.01c0,0.87,0.24,1.57,1.18,1.57c1.18,0,1.99-0.94,1.99-2.24v-4.33h2.58v8.7H78.28z"/>
			<path class="st2" d="M84.57,31.69c0,1.43,0.87,2.4,2.06,2.4c1.04,0,2.08-0.8,2.08-2.4c0-1.6-1.04-2.4-2.08-2.4
				C85.43,29.28,84.57,30.24,84.57,31.69 M91.38,36.04h-2.36l-0.05-0.8c-0.02-0.35,0.03-0.57,0.03-0.57h-0.03
				c-0.4,0.87-1.54,1.62-2.81,1.62c-2.24,0-4.04-1.74-4.04-4.59c0-2.87,1.8-4.59,3.97-4.59c1.27,0,2.26,0.59,2.72,1.27h0.03
				c0,0-0.05-0.23-0.05-0.71v-4.14h2.58V36.04z"/>
			<path class="st2" d="M95.9,36.04h-2.6v-8.7h2.6V36.04z M94.6,23.44c0.87,0,1.44,0.54,1.44,1.41c0,0.84-0.57,1.39-1.44,1.39
				c-0.88,0-1.44-0.56-1.44-1.39C93.16,23.98,93.71,23.44,94.6,23.44"/>
			<path class="st2" d="M98.6,27.33v-2.61h2.52v2.61h2.31v2.04h-2.31v3.5c0,0.92,0.54,1.24,1.11,1.24c0.54,0,1.09-0.17,1.47-0.37
				v2.14c-0.38,0.19-1.18,0.4-2.2,0.4c-1.37,0-2.71-0.64-2.9-2.47c-0.02-0.28-0.05-0.57-0.05-0.89v-3.55h-1.2v-2.04H98.6z"/>
			<path class="st2" d="M115.51,33.83c2.26,0,3.85-1.81,3.85-4.05c0-2.23-1.6-4.06-3.85-4.06c-2.26,0-3.85,1.83-3.85,4.06
				C111.66,32.02,113.26,33.83,115.51,33.83 M115.51,23.26c3.76,0,6.54,2.89,6.54,6.51c0,3.65-2.76,6.51-6.54,6.51
				s-6.54-2.85-6.54-6.51C108.97,26.17,111.73,23.26,115.51,23.26"/>
			<path class="st2" d="M124.28,27.33v-0.78c0-1.98,1.27-3.29,3.59-3.29c0.54,0,0.99,0.07,1.14,0.1v2.21
				c-0.14-0.05-0.47-0.12-0.88-0.12c-0.88,0-1.46,0.49-1.46,1.39v0.49h2.03v2.04h-1.93v6.67h-2.58v-6.67h-1.14v-2.04H124.28z"/>
			<path class="st2" d="M130.58,27.33v-0.78c0-1.98,1.27-3.29,3.59-3.29c0.54,0,0.99,0.07,1.14,0.1v2.21
				c-0.14-0.05-0.47-0.12-0.88-0.12c-0.88,0-1.46,0.49-1.46,1.39v0.49h2.03v2.04h-1.93v6.67h-2.58v-6.67h-1.14v-2.04H130.58z"/>
			<path class="st2" d="M139.05,36.04h-2.6v-8.7h2.6V36.04z M137.75,23.44c0.87,0,1.44,0.54,1.44,1.41c0,0.84-0.57,1.39-1.44,1.39
				c-0.88,0-1.44-0.56-1.44-1.39C136.31,23.98,136.86,23.44,137.75,23.44"/>
			<path class="st2" d="M145.42,34c1.04,0,1.98-0.49,2.31-0.71v2.35c-0.35,0.17-1.25,0.64-2.65,0.64c-2.78,0-4.61-1.95-4.61-4.6
				c0-2.64,1.84-4.59,4.61-4.59c1.39,0,2.26,0.45,2.6,0.63v2.37c-0.49-0.35-1.35-0.71-2.26-0.71c-1.37,0-2.34,0.9-2.34,2.31
				C143.08,33.1,144.01,34,145.42,34"/>
			<path class="st2" d="M153.17,29.14c-1.04,0-1.63,0.8-1.7,1.74h3.28C154.78,29.94,154.22,29.14,153.17,29.14 M157.23,31.16
				c0,0.47-0.05,0.89-0.07,1.06h-5.69c0.1,1.18,1.01,1.86,2.41,1.86c1.23,0,2.52-0.37,3-0.64v2.21c-0.54,0.28-1.7,0.63-3.24,0.63
				c-2.98,0-4.86-1.93-4.86-4.59c0-2.65,1.93-4.59,4.41-4.59C155.85,27.09,157.23,29.01,157.23,31.16"/>
		</g>
		<polygon class="st0" points="67.8,18.81 63.03,13.61 62.79,13.35 62.79,18.68 61.76,18.68 61.76,10.84 61.77,10.84 66.55,16.04
			66.79,16.3 66.79,10.97 67.82,10.97 67.82,18.81 		"/>
		<g>
			<defs>
				<rect id="SVGID_3_" x="1.11" y="1.15" width="156.11" height="51.97"/>
			</defs>
			<clipPath id="SVGID_4_">
				<use xlink:href="#SVGID_3_"  style="overflow:visible;"/>
			</clipPath>
			<path class="st3" d="M73.89,16c0-1.14-0.76-1.94-1.79-1.94c-1.02,0-1.78,0.8-1.78,1.94c0,1.14,0.76,1.94,1.78,1.94
				C73.13,17.94,73.89,17.14,73.89,16 M74.85,16c0,1.62-1.16,2.81-2.75,2.81c-1.58,0-2.74-1.19-2.74-2.81
				c0-1.62,1.16-2.81,2.74-2.81C73.69,13.2,74.85,14.39,74.85,16"/>
			<path class="st3" d="M76.27,13.33h0.93l0.01,0.75c0.01,0.2-0.02,0.36-0.01,0.4h0.01c0.31-0.76,0.88-1.27,1.64-1.27
				c0.15,0,0.28,0.02,0.32,0.03v0.96c-0.04-0.01-0.14-0.03-0.28-0.03c-1.04,0-1.63,1.15-1.63,2.18v2.33h-0.99V13.33z"/>
			<path class="st3" d="M80.78,13.33v-1.61h0.97v1.61h1.61v0.81h-1.61v2.77c0,0.76,0.34,1.02,0.79,1.02c0.33,0,0.7-0.1,1-0.24v0.87
				c-0.24,0.13-0.67,0.25-1.2,0.25c-0.77,0-1.58-0.4-1.58-1.6v-3.07h-0.88v-0.81H80.78z"/>
			<path class="st3" d="M84.64,10.97h0.98v2.98c0,0.25-0.03,0.45-0.03,0.54h0.01c0.22-0.48,0.88-1.28,2.01-1.28
				c1.31,0,1.83,0.78,1.83,2.12v3.36h-0.99v-3.16c0-0.74-0.13-1.4-1.01-1.4c-1.05,0-1.79,0.84-1.79,1.93v2.63h-0.99V10.97z"/>
			<path class="st3" d="M93.38,14.03c-0.92,0-1.47,0.71-1.56,1.48h3C94.83,14.74,94.33,14.03,93.38,14.03 M95.8,15.69
				c0,0.21-0.02,0.42-0.02,0.52h-3.97v0.01c0.03,1.05,0.74,1.71,1.86,1.71c0.73,0,1.48-0.21,1.93-0.5v0.91
				c-0.42,0.24-1.13,0.46-2,0.46c-1.69,0-2.83-1.15-2.83-2.81c0-1.62,1.14-2.81,2.62-2.81C94.96,13.2,95.8,14.38,95.8,15.69"/>
			<path class="st3" d="M97.19,13.33h0.93l0.01,0.75c0.01,0.2-0.02,0.36-0.01,0.4h0.01c0.31-0.76,0.88-1.27,1.64-1.27
				c0.15,0,0.28,0.02,0.32,0.03v0.96c-0.04-0.01-0.14-0.03-0.28-0.03c-1.04,0-1.63,1.15-1.63,2.18v2.33h-0.99V13.33z"/>
			<path class="st3" d="M102.25,13.33l0.02,0.75c0,0.23-0.03,0.39-0.04,0.41h0.02c0.2-0.48,0.91-1.28,2.04-1.28
				c1.31,0,1.83,0.78,1.83,2.12v3.36h-0.99v-3.16c0-0.74-0.13-1.4-1.01-1.4c-1.05,0-1.79,0.84-1.79,1.93v2.63h-0.99v-5.36H102.25z"
				/>
		</g>
		<g>
			<defs>
				<rect id="SVGID_5_" x="1.11" y="1.15" width="156.11" height="51.97"/>
			</defs>
			<clipPath id="SVGID_6_">
				<use xlink:href="#SVGID_5_"  style="overflow:visible;"/>
			</clipPath>
			<path class="st4" d="M113.69,13.33h0.93l0.01,0.75c0.01,0.2-0.02,0.36-0.01,0.4h0.01c0.31-0.76,0.88-1.27,1.64-1.27
				c0.15,0,0.28,0.02,0.32,0.03v0.96c-0.04-0.01-0.14-0.03-0.28-0.03c-1.04,0-1.63,1.15-1.63,2.18v2.33h-0.99V13.33z"/>
			<path class="st4" d="M119.98,14.03c-0.92,0-1.47,0.71-1.56,1.48h3C121.43,14.74,120.93,14.03,119.98,14.03 M122.41,15.69
				c0,0.21-0.02,0.42-0.02,0.52h-3.97v0.01c0.03,1.05,0.74,1.71,1.86,1.71c0.73,0,1.48-0.21,1.93-0.5v0.91
				c-0.42,0.24-1.13,0.46-2,0.46c-1.69,0-2.83-1.15-2.83-2.81c0-1.62,1.14-2.81,2.61-2.81C121.56,13.2,122.41,14.38,122.41,15.69"/>
		</g>
		<g>
			<defs>
				<rect id="SVGID_7_" x="1.11" y="1.15" width="156.11" height="51.97"/>
			</defs>
			<clipPath id="SVGID_8_">
				<use xlink:href="#SVGID_7_"  style="overflow:visible;"/>
			</clipPath>
			<path class="st5" d="M129.76,16.28c-1.74-0.28-2.48,0.19-2.48,0.92c0,0.47,0.34,0.8,0.88,0.8
				C129.07,18.01,129.76,17.12,129.76,16.28 M126.65,13.59c0.3-0.16,1-0.4,1.88-0.4c1.5,0,2.24,0.73,2.24,2.07v3.42h-0.92
				l-0.01-0.63c-0.01-0.26,0.03-0.43,0.03-0.43h-0.02c-0.06,0.15-0.65,1.19-1.86,1.19c-0.98,0-1.69-0.59-1.69-1.57
				c0-1.31,1.25-1.96,3.48-1.65v-0.27c0-0.93-0.56-1.25-1.4-1.25c-0.74,0-1.42,0.26-1.74,0.45V13.59z"/>
			<path class="st5" d="M133.45,13.33l0.02,0.75c0,0.23-0.03,0.39-0.04,0.41h0.02c0.2-0.48,0.91-1.28,2.04-1.28
				c1.31,0,1.83,0.78,1.83,2.12v3.36h-0.99v-3.16c0-0.74-0.13-1.4-1.01-1.4c-1.05,0-1.79,0.84-1.79,1.93v2.63h-0.99v-5.36H133.45z"
				/>
			<path class="st5" d="M139.61,16c0,1.11,0.66,1.94,1.65,1.94c0.8,0,1.68-0.6,1.68-1.94c0-1.34-0.88-1.94-1.68-1.94
				C140.27,14.07,139.61,14.87,139.61,16 M143.94,18.68h-0.92L143,18.05c0-0.24,0.03-0.4,0.03-0.4h-0.02
				c-0.28,0.6-1.02,1.16-1.89,1.16c-1.41,0-2.48-1.15-2.48-2.81c0-1.68,1.07-2.81,2.45-2.81c0.86,0,1.57,0.47,1.86,0.97h0.02
				c0,0-0.03-0.16-0.03-0.44v-2.76h0.99V18.68z"/>
		</g>
		<polygon class="st6" points="48.36,10.92 35.41,39.81 50.53,35.99 		"/>
		<path class="st7" d="M4.42,2.27l43.94,8.65l4.38-9.77L4.42,2.27z M52.74,1.15L4.42,2.27L52.74,1.15z"/>
		<polygon class="st0" points="1.11,14.93 7.66,33.64 21.03,5.54 4.42,2.27 		"/>
		<g>
			<defs>
				<rect id="SVGID_9_" x="1.11" y="1.15" width="156.11" height="51.97"/>
			</defs>
			<clipPath id="SVGID_10_">
				<use xlink:href="#SVGID_9_"  style="overflow:visible;"/>
			</clipPath>
			<path class="st8" d="M26.71,28.1c-1.65-3.77-3.25-7.59-4.36-10.75c-1.05,2.51-2.95,7.34-4.46,10.75H26.71z"/>
		</g>
		<polygon class="st0" points="23.87,6.1 23.85,6.1 37.6,34.92 37.61,34.9 44.93,18.57 48.36,10.92 		"/>
	</g>
</g>
</svg>
