<svg enable-background="new 0 0 1162.14 247.41" viewBox="0 0 1162.14 247.41" xmlns="http://www.w3.org/2000/svg"><path d="m245.89 139.06c-.4.31-.81.17-1.2.07-7.96-1.91-15.99-3.54-23.94-5.49-2.55-.63-5.14-1.17-7.72-1.7-5.31-1.09-10.57-2.45-15.86-3.65-11.3-2.57-22.62-5.11-33.92-7.66-2.04-.46-2.04-.47-1.58-2.55 1.2-5.41 2.41-10.83 3.6-16.24.25-1.14.48-2.28.66-3.43.23-1.42.9-1.71 2.32-1.38 7.58 1.78 15.18 3.45 22.78 5.15 12.76 2.87 25.52 5.72 38.27 8.61 6.74 1.53 13.47 3.15 20.22 4.67 1.31.29 1.62.85 1.33 2.13-1.26 5.45-2.46 10.92-3.66 16.39-.24 1.09-.39 2.2-.59 3.3-.13.64-.25 1.29-.71 1.78z" fill="#d53830"/><path d="m8.69 159.73c2.16-.52 4.13-1.01 6.1-1.46 11.59-2.62 23.18-5.22 34.77-7.85 11.63-2.64 23.25-5.3 34.87-7.96 2.12-.49 4.25-.96 6.36-1.53 1.2-.33 1.74.02 2.02 1.24 1.39 6.09 2.84 12.16 4.27 18.24.05.2.05.4.1.6.87 3.41 1.21 3.11-2.22 3.9-8.06 1.87-16.13 3.69-24.21 5.52-9.46 2.13-18.92 4.24-28.37 6.38-9.01 2.04-18.02 4.08-27.01 6.21-1.45.34-1.95.04-2.28-1.41-1.52-6.73-3.16-13.44-4.76-20.16-.17-.72-.44-1.44.36-1.72z" fill="#a6c251"/><path d="m186.79 227.26c-1.93-3.98-3.68-7.58-5.43-11.19-2.14-4.43-4.27-8.86-6.41-13.3-1.76-3.65-3.52-7.31-5.29-10.96-2.14-4.43-4.3-8.85-6.43-13.28-2.11-4.39-4.2-8.79-6.31-13.17-2.11-4.39-4.2-8.78-6.38-13.14-1.07-2.14-1.04-2.26 1.06-3.27 4.57-2.2 9.1-4.47 13.65-6.71 1.45-.72 2.97-1.33 4.36-2.15 1.37-.81 1.82.06 2.28 1.02 1.42 2.97 2.81 5.96 4.24 8.93 2.34 4.84 4.71 9.66 7.04 14.51 2.81 5.85 5.57 11.73 8.39 17.57 2.2 4.57 4.49 9.1 6.7 13.67 2.79 5.75 5.56 11.51 8.28 17.29.54 1.15 1.18 2.24 1.72 3.39.6 1.29.18 1.83-.9 2.36-2.82 1.38-5.62 2.82-8.45 4.2-3.14 1.54-6.31 3.03-9.45 4.58-1.18.6-2.29 1.09-2.67-.35z" fill="#e4983d"/><path d="m140.17 169.25c.15.72-.14 1.26-.4 1.81-2.65 5.6-5.29 11.21-7.95 16.81-3.45 7.25-6.92 14.49-10.37 21.73-5.82 12.2-11.64 24.4-17.43 36.61-.57 1.21-1.12 1.5-2.41.87-5.97-2.94-11.98-5.79-17.98-8.66-2.04-.98-2.08-1.06-1.13-3.06 4.4-9.27 8.8-18.54 13.22-27.8 7.49-15.73 15.01-31.44 22.48-47.18.49-1.04.98-1.21 1.99-.72 6.45 3.12 12.91 6.19 19.37 9.28.2.11.42.22.61.31z" fill="#f4ca46"/><path d="m113.3 86.85c-.2.02-.5.07-.79.07-7.16.07-14.32.13-21.48.21-1.02.01-1.29-.52-1.29-1.44-.02-7.47-.05-14.94-.1-22.41-.11-15.14-.24-30.27-.35-45.41-.04-5.33-.02-10.67-.09-16-.02-1.36.45-1.72 1.79-1.72 6.8.03 13.6-.04 20.41-.15 1.46-.02 1.9.43 1.9 1.92.06 17.93.19 35.86.32 53.78.07 9.85.15 19.7.23 29.56.01.56.1 1.14-.55 1.59z" fill="#3c7fab"/><path d="m21.52 55.12c.89-.76 1.38-.21 1.89.2 3.05 2.44 6.1 4.89 9.16 7.33 7.38 5.88 14.78 11.73 22.15 17.63 8.08 6.46 16.14 12.97 24.21 19.44 3.4 2.73 6.82 5.43 10.25 8.12.68.53.89.98.29 1.75-4.35 5.55-8.69 11.12-12.98 16.72-.78 1.02-1.33 1.02-2.31.23-9.97-8.02-19.97-16.01-29.98-23.98-8.82-7.02-17.66-14.01-26.49-21.01-3.02-2.4-6-4.85-9.04-7.22-.96-.74-1.14-1.33-.33-2.36 4.28-5.42 8.5-10.88 12.74-16.33.19-.24.39-.46.44-.52z" fill="#64b0d8"/><path d="m146.73 91.39c-1.09.98-1.73.61-2.57-.47-3.05-3.92-6.27-7.71-9.34-11.6-1.16-1.47-2.29-2.97-3.55-4.37-.84-.93-.76-1.67.32-2.52 4.69-3.7 9.31-7.51 13.97-11.25 3.91-3.14 7.86-6.25 11.77-9.39 3.67-2.95 7.32-5.94 10.98-8.9 3.15-2.55 6.32-5.08 9.48-7.63 3.99-3.21 7.97-6.43 11.96-9.64 2.33-1.88 4.66-3.75 6.99-5.63.62-.5 1.13-.5 1.68.18 2.52 3.11 5.07 6.19 7.61 9.29 1.96 2.39 3.86 4.84 5.87 7.18.68.8.79 1.29-.07 1.98-3.45 2.82-6.86 5.7-10.31 8.52-3.85 3.14-7.75 6.22-11.62 9.33-3.99 3.21-7.97 6.43-11.95 9.64-2.8 2.26-5.59 4.53-8.39 6.79-4.02 3.25-8.05 6.49-12.07 9.74-3.61 2.93-7.18 5.84-10.76 8.75z" fill="#a73186"/><path d="m2.95 133.87c-5.63-8.43-2.89-20.19 5.63-25.48 8.79-5.46 20.38-2.92 25.79 6.01 5.3 8.75 2.73 20.01-6.06 25.59-8.38 5.33-20.4 2.65-25.36-6.12z" fill="#a6c251"/><path d="m160.17 241.51c-9.02 5.64-20.16 2.9-25.75-5.91-5.84-9.21-2.3-20.52 5.86-25.66 8.26-5.21 20.08-2.75 25.53 5.94 5.41 8.63 2.89 20.23-5.64 25.63z" fill="#e4983d"/><path d="m70.18 222.29c-8.5 5.47-20.1 2.99-25.63-5.89-5.8-9.31-2.55-20.45 5.8-25.65 8.75-5.44 20.02-2.87 25.6 5.97 5.44 8.62 2.84 20.13-5.77 25.57z" fill="#f4ca46"/><path d="m234.5 65.15c5.61 8.63 3.39 19.96-5.63 25.62-8.8 5.52-20 2.82-25.55-5.84-5.6-8.74-3.05-20.06 5.59-25.68 8.29-5.39 20.23-3 25.59 5.9z" fill="#a73186"/><path d="m210.87 151.29c8.68-5.45 20.43-2.85 25.77 5.93 5.28 8.69 3.24 19.89-5.75 25.59-8.84 5.6-20.07 2.87-25.72-6.02-5.37-8.49-2.71-20.21 5.7-25.5z" fill="#d53830"/><path d="m135.69 2.98c8.33-5.48 20.12-3.06 25.59 5.64 5.6 8.9 3.11 20.24-5.42 25.63-8.81 5.57-20.28 3.08-25.8-5.69-5.53-8.8-2.88-20.31 5.63-25.58z" fill="#3c7fab"/><path d="m46.87 24.87c8.47-5.58 20.13-3 25.63 5.97 5.27 8.6 2.78 20.04-5.76 25.46-8.66 5.5-20.05 2.89-25.58-5.96-5.41-8.64-3.16-20.07 5.71-25.47z" fill="#64b0d8"/><g fill="#575d71"><path d="m295.42 41.03v64.14h-11.18v-64.14z"/><path d="m317.11 105.17h-11.18v-48.38h11.18v7.59c.79-1.17 1.66-2.26 2.6-3.28s2.04-1.93 3.29-2.73 2.62-1.43 4.11-1.9c1.49-.46 3.18-.69 5.07-.69 5.48 0 9.72 1.68 12.7 5.04s4.48 7.88 4.48 13.56v30.79h-11.18v-27.42c0-3.78-.89-6.69-2.68-8.73s-4.31-3.06-7.58-3.06c-3.21 0-5.81 1.05-7.81 3.15s-3 5.04-3 8.82z"/><path d="m395.5 105.17v-8.06c-1.77 2.51-3.98 4.64-6.63 6.41s-5.92 2.66-9.83 2.66c-2.86 0-5.64-.55-8.32-1.65s-5.06-2.73-7.13-4.9-3.75-4.81-5.03-7.93-1.92-6.69-1.92-10.72.62-7.6 1.87-10.72 2.91-5.76 4.98-7.93 4.46-3.8 7.18-4.9c2.71-1.1 5.5-1.65 8.36-1.65 3.96 0 7.25.86 9.87 2.57s4.81 3.7 6.58 5.96v-26.03h11.18v66.89zm-.95-30.6c-.76-1.89-1.78-3.53-3.06-4.9s-2.77-2.43-4.47-3.16-3.47-1.1-5.3-1.1c-1.89 0-3.67.35-5.34 1.05s-3.15 1.73-4.43 3.07-2.28 2.98-3.01 4.9-1.1 4.11-1.1 6.55c0 2.38.36 4.54 1.1 6.46.73 1.92 1.73 3.56 3.01 4.9s2.75 2.38 4.43 3.12c1.67.73 3.46 1.1 5.34 1.1 1.83 0 3.59-.37 5.3-1.1 1.7-.73 3.2-1.79 4.47-3.16 1.28-1.37 2.3-3.01 3.06-4.9s1.14-4.03 1.14-6.41c0-2.39-.38-4.53-1.14-6.42z"/><path d="m430.1 94.04c2.5 2.11 5.56 3.16 9.16 3.16 2.75 0 5.13-.49 7.15-1.47s4-2.41 5.95-4.31l6.51 5.77c-2.32 2.75-5.08 4.95-8.29 6.6s-7.04 2.47-11.5 2.47c-3.48 0-6.73-.61-9.76-1.83-3.02-1.22-5.65-2.93-7.88-5.13s-3.99-4.84-5.27-7.93c-1.28-3.08-1.92-6.52-1.92-10.31 0-3.48.58-6.75 1.74-9.8s2.79-5.73 4.9-8.02 4.6-4.11 7.47-5.45 6.05-2.02 9.53-2.02c3.85 0 7.22.7 10.12 2.11s5.31 3.3 7.24 5.68c1.92 2.38 3.37 5.16 4.35 8.34s1.47 6.51 1.47 9.99c0 .49-.02.98-.05 1.47s-.08 1.01-.14 1.56h-35.55c.67 3.97 2.26 7.01 4.77 9.12zm19.97-16.45c-.18-1.77-.58-3.44-1.19-4.99-.61-1.56-1.44-2.9-2.47-4.03-1.04-1.13-2.28-2.03-3.71-2.7-1.44-.67-3.07-1.01-4.9-1.01-3.42 0-6.25 1.18-8.48 3.53s-3.59 5.42-4.08 9.21h24.83z"/><path d="m516.78 91.7c-1.25 3.12-2.93 5.76-5.04 7.93s-4.52 3.8-7.24 4.9-5.51 1.65-8.38 1.65c-3.97 0-7.27-.86-9.9-2.57s-4.8-3.69-6.51-5.96l.09 22.17h-11.18v-63.03h11.18v8.06c1.77-2.57 3.96-4.72 6.58-6.46s5.88-2.61 9.78-2.61c2.86 0 5.64.55 8.32 1.65s5.07 2.73 7.18 4.9c2.1 2.17 3.79 4.81 5.07 7.93s1.92 6.69 1.92 10.72c.01 4.03-.62 7.6-1.87 10.72zm-10.4-17.18c-.73-1.92-1.73-3.56-2.98-4.9s-2.72-2.38-4.4-3.12c-1.68-.73-3.47-1.1-5.36-1.1s-3.7.37-5.41 1.1-3.21 1.79-4.49 3.16-2.31 3.01-3.07 4.9-1.15 4.03-1.15 6.41.38 4.52 1.15 6.41c.76 1.89 1.79 3.53 3.07 4.9s2.78 2.43 4.49 3.16 3.51 1.1 5.41 1.1c1.89 0 3.68-.37 5.36-1.1s3.15-1.77 4.4-3.12c1.25-1.34 2.24-2.98 2.98-4.9.73-1.92 1.1-4.08 1.1-6.46 0-2.36-.37-4.52-1.1-6.44z"/><path d="m539.6 94.04c2.5 2.11 5.56 3.16 9.16 3.16 2.75 0 5.13-.49 7.15-1.47s4-2.41 5.96-4.31l6.51 5.77c-2.32 2.75-5.09 4.95-8.29 6.6-3.21 1.65-7.04 2.47-11.5 2.47-3.48 0-6.73-.61-9.76-1.83-3.02-1.22-5.65-2.93-7.88-5.13s-3.99-4.84-5.27-7.93c-1.28-3.08-1.92-6.52-1.92-10.31 0-3.48.58-6.75 1.74-9.8s2.79-5.73 4.9-8.02 4.6-4.11 7.47-5.45 6.05-2.02 9.53-2.02c3.85 0 7.22.7 10.12 2.11s5.31 3.3 7.24 5.68c1.92 2.38 3.37 5.16 4.35 8.34s1.47 6.51 1.47 9.99c0 .49-.02.98-.05 1.47s-.08 1.01-.14 1.56h-35.55c.67 3.97 2.25 7.01 4.76 9.12zm19.97-16.45c-.18-1.77-.58-3.44-1.19-4.99-.61-1.56-1.43-2.9-2.47-4.03s-2.28-2.03-3.71-2.7-3.07-1.01-4.9-1.01c-3.42 0-6.25 1.18-8.48 3.53s-3.59 5.42-4.08 9.21h24.83z"/><path d="m589.31 105.17h-11.18v-48.38h11.18v7.59c.79-1.17 1.66-2.26 2.6-3.28s2.04-1.93 3.29-2.73 2.62-1.43 4.11-1.9c1.49-.46 3.18-.69 5.07-.69 5.48 0 9.72 1.68 12.7 5.04s4.48 7.88 4.48 13.56v30.79h-11.18v-27.42c0-3.78-.89-6.69-2.68-8.73s-4.32-3.06-7.59-3.06c-3.21 0-5.81 1.05-7.81 3.15s-3 5.04-3 8.82v27.24z"/><path d="m667.7 105.17v-8.06c-1.77 2.51-3.98 4.64-6.63 6.41s-5.93 2.66-9.83 2.66c-2.86 0-5.64-.55-8.32-1.65s-5.06-2.73-7.13-4.9-3.75-4.81-5.03-7.93-1.92-6.69-1.92-10.72.62-7.6 1.87-10.72 2.91-5.76 4.98-7.93 4.47-3.8 7.18-4.9 5.5-1.65 8.36-1.65c3.96 0 7.25.86 9.87 2.57s4.81 3.7 6.58 5.96v-26.03h11.18v66.89zm-.96-30.6c-.76-1.89-1.78-3.53-3.06-4.9s-2.77-2.43-4.47-3.16c-1.71-.73-3.47-1.1-5.3-1.1-1.89 0-3.67.35-5.34 1.05s-3.15 1.73-4.43 3.07-2.28 2.98-3.01 4.9-1.1 4.11-1.1 6.55c0 2.38.37 4.54 1.1 6.46s1.73 3.56 3.01 4.9 2.76 2.38 4.43 3.12c1.67.73 3.46 1.1 5.34 1.1 1.83 0 3.59-.37 5.3-1.1 1.7-.73 3.19-1.79 4.47-3.16s2.3-3.01 3.06-4.9 1.14-4.03 1.14-6.41c0-2.39-.38-4.53-1.14-6.42z"/><path d="m702.29 94.04c2.5 2.11 5.56 3.16 9.16 3.16 2.75 0 5.13-.49 7.15-1.47s4-2.41 5.96-4.31l6.51 5.77c-2.32 2.75-5.08 4.95-8.29 6.6s-7.04 2.47-11.5 2.47c-3.48 0-6.74-.61-9.76-1.83s-5.65-2.93-7.88-5.13-3.99-4.84-5.27-7.93c-1.28-3.08-1.92-6.52-1.92-10.31 0-3.48.58-6.75 1.74-9.8s2.8-5.73 4.9-8.02c2.11-2.29 4.6-4.11 7.47-5.45s6.05-2.02 9.53-2.02c3.85 0 7.22.7 10.12 2.11s5.31 3.3 7.24 5.68c1.92 2.38 3.37 5.16 4.35 8.34s1.47 6.51 1.47 9.99c0 .49-.02.98-.05 1.47s-.08 1.01-.14 1.56h-35.55c.67 3.97 2.26 7.01 4.76 9.12zm19.98-16.45c-.18-1.77-.58-3.44-1.19-4.99-.61-1.56-1.43-2.9-2.47-4.03s-2.28-2.03-3.71-2.7-3.07-1.01-4.9-1.01c-3.42 0-6.25 1.18-8.48 3.53s-3.59 5.42-4.08 9.21h24.83z"/><path d="m752 105.17h-11.18v-48.38h11.18v7.59c.79-1.17 1.66-2.26 2.6-3.28s2.04-1.93 3.29-2.73 2.62-1.43 4.11-1.9c1.49-.46 3.18-.69 5.07-.69 5.48 0 9.72 1.68 12.7 5.04s4.48 7.88 4.48 13.56v30.79h-11.18v-27.42c0-3.78-.89-6.69-2.68-8.73s-4.32-3.06-7.59-3.06c-3.21 0-5.81 1.05-7.81 3.15s-3 5.04-3 8.82v27.24z"/><path d="m807.49 90.03c0 2.14.52 3.69 1.56 4.64s2.5 1.42 4.4 1.42c2.38 0 4.67-.55 6.87-1.65v9.07c-1.41.79-2.9 1.41-4.49 1.83-1.59.43-3.42.64-5.5.64-2.02 0-3.89-.24-5.61-.73s-3.22-1.29-4.48-2.39-2.23-2.56-2.91-4.36c-.68-1.81-1.02-4.06-1.02-6.75v-25.52h-6.14v-9.44h6.14v-13.29h11.18v13.29h13.01v9.44h-13.01z"/><path d="m901.5 105.17-15.81-22.36h-14.15v22.36h-11.18v-64.14h28.59c3.67 0 6.98.47 9.94 1.42s5.47 2.29 7.51 4.03c2.05 1.74 3.62 3.88 4.72 6.41 1.1 2.54 1.65 5.36 1.65 8.48 0 2.69-.38 5.09-1.15 7.19s-1.82 3.97-3.16 5.59-2.95 2.99-4.81 4.12-3.93 2-6.19 2.61l17.32 24.28h-13.28zm-3.68-51.25c-2.33-1.81-5.61-2.71-9.83-2.71h-16.45v21.62h16.54c4.04 0 7.26-.98 9.65-2.94s3.58-4.6 3.58-7.91c0-3.57-1.16-6.25-3.49-8.06z"/><path d="m933.98 94.04c2.5 2.11 5.56 3.16 9.16 3.16 2.75 0 5.13-.49 7.15-1.47s4-2.41 5.96-4.31l6.51 5.77c-2.32 2.75-5.08 4.95-8.29 6.6s-7.04 2.47-11.5 2.47c-3.48 0-6.74-.61-9.76-1.83s-5.65-2.93-7.88-5.13-3.99-4.84-5.27-7.93c-1.28-3.08-1.92-6.52-1.92-10.31 0-3.48.58-6.75 1.74-9.8s2.8-5.73 4.9-8.02c2.11-2.29 4.6-4.11 7.47-5.45s6.05-2.02 9.53-2.02c3.85 0 7.22.7 10.12 2.11s5.31 3.3 7.24 5.68c1.92 2.38 3.37 5.16 4.35 8.34s1.47 6.51 1.47 9.99c0 .49-.02.98-.05 1.47s-.08 1.01-.14 1.56h-35.55c.67 3.97 2.26 7.01 4.76 9.12zm19.97-16.45c-.18-1.77-.58-3.44-1.19-4.99-.61-1.56-1.43-2.9-2.47-4.03s-2.28-2.03-3.71-2.7-3.07-1.01-4.9-1.01c-3.42 0-6.25 1.18-8.48 3.53s-3.59 5.42-4.08 9.21h24.83z"/><path d="m1003.67 56.79h11.64l-19.79 48.74h-9.99l-19.88-48.74h11.91l13.01 35.55z"/><path d="m1021.31 49.37v-10.54h12v10.54zm.46 55.8v-48.38h11.18v48.38z"/><path d="m1056.91 94.04c2.5 2.11 5.56 3.16 9.16 3.16 2.75 0 5.13-.49 7.15-1.47s4-2.41 5.95-4.31l6.51 5.77c-2.32 2.75-5.08 4.95-8.29 6.6s-7.04 2.47-11.5 2.47c-3.48 0-6.74-.61-9.76-1.83s-5.65-2.93-7.88-5.13-3.99-4.84-5.27-7.93c-1.28-3.08-1.92-6.52-1.92-10.31 0-3.48.58-6.75 1.74-9.8s2.8-5.73 4.9-8.02c2.11-2.29 4.6-4.11 7.47-5.45s6.05-2.02 9.53-2.02c3.85 0 7.22.7 10.12 2.11s5.31 3.3 7.24 5.68c1.92 2.38 3.37 5.16 4.35 8.34s1.47 6.51 1.47 9.99c0 .49-.02.98-.05 1.47s-.08 1.01-.14 1.56h-35.55c.68 3.97 2.26 7.01 4.77 9.12zm19.97-16.45c-.18-1.77-.58-3.44-1.19-4.99-.61-1.56-1.43-2.9-2.47-4.03s-2.28-2.03-3.71-2.7-3.07-1.01-4.9-1.01c-3.42 0-6.25 1.18-8.48 3.53s-3.59 5.42-4.08 9.21h24.83z"/><path d="m1141.16 89.96 9.9-33.17h11.09l-15.85 48.74h-9.9l-10.81-33.08-10.9 33.08h-9.89l-15.67-48.74h11.36l9.71 33.17 10.72-33.35h9.44z"/><path d="m329.27 191.7c-1.31 3.06-3.12 5.73-5.41 8.02s-5.02 4.11-8.2 5.45-6.63 2.02-10.35 2.02c-3.66 0-7.07-.66-10.22-1.97s-5.86-3.12-8.16-5.41c-2.29-2.29-4.08-4.95-5.36-7.97s-1.92-6.28-1.92-9.76.66-6.77 1.97-9.85 3.12-5.77 5.41-8.06 5.01-4.11 8.16-5.45 6.58-2.02 10.31-2.02 7.16.66 10.31 1.97 5.86 3.12 8.16 5.41 4.08 4.96 5.36 8.02 1.92 6.32 1.92 9.8c-.01 3.47-.66 6.74-1.98 9.8zm-10.3-15.67c-.73-1.89-1.74-3.56-3.05-4.99s-2.85-2.57-4.64-3.39-3.78-1.24-5.96-1.24c-2.19 0-4.17.41-5.97 1.24-1.79.83-3.32 1.94-4.6 3.34-1.27 1.41-2.25 3.04-2.91 4.9-.67 1.86-1 3.86-1 6s.36 4.17 1.09 6.09 1.74 3.59 3.05 4.99c1.31 1.41 2.85 2.52 4.64 3.34s3.75 1.24 5.87 1.24c2.25 0 4.26-.41 6.05-1.24 1.79-.82 3.32-1.94 4.6-3.34 1.27-1.4 2.25-3.04 2.91-4.9.67-1.86 1-3.86 1-6 .01-2.13-.35-4.15-1.08-6.04z"/><path d="m363.39 158.07v9.16h-12.65v38.85h-11.18v-38.85h-6.14v-9.25h6.14v-3.48c0-5.37 1.29-9.36 3.88-11.96s6.27-3.89 11.05-3.89c1.95 0 3.63.12 5.04.37 1.4.24 2.72.55 3.94.92v9.35c-1.1-.37-2.15-.66-3.16-.87s-2.12-.32-3.34-.32c-4.28 0-6.41 2.44-6.41 7.33v2.66h12.83z"/><path d="m447.77 152.11h-36.28v16.49h32.16v10.17h-32.16v17.14h36.74v10.17h-47.92v-64.14h47.46z"/><path d="m492.26 206.08v-8.06c-1.77 2.5-3.98 4.64-6.63 6.41s-5.92 2.66-9.83 2.66c-2.86 0-5.64-.55-8.32-1.65s-5.06-2.73-7.13-4.9-3.75-4.81-5.03-7.92c-1.28-3.12-1.92-6.69-1.92-10.72s.62-7.61 1.87-10.72c1.25-3.12 2.91-5.76 4.98-7.93s4.46-3.8 7.18-4.9c2.71-1.1 5.5-1.65 8.36-1.65 3.96 0 7.25.86 9.87 2.57s4.81 3.7 6.58 5.96v-26.03h11.18v66.89h-11.16zm-.96-30.6c-.76-1.89-1.78-3.53-3.06-4.9s-2.77-2.43-4.47-3.16-3.47-1.1-5.3-1.1c-1.89 0-3.67.35-5.34 1.05s-3.15 1.73-4.43 3.07-2.28 2.98-3.01 4.9-1.1 4.11-1.1 6.55c0 2.38.36 4.53 1.1 6.46.73 1.92 1.73 3.56 3.01 4.9s2.75 2.38 4.43 3.12c1.67.73 3.46 1.1 5.34 1.1 1.83 0 3.59-.37 5.3-1.1 1.7-.73 3.2-1.79 4.47-3.16s2.3-3.01 3.06-4.9 1.14-4.03 1.14-6.41c0-2.39-.38-4.53-1.14-6.42z"/><path d="m545.36 157.7h11.18v48.38h-11.18v-7.59c-1.58 2.34-3.56 4.36-5.94 6.06s-5.42 2.54-9.14 2.54c-5.48 0-9.72-1.68-12.7-5.04-2.99-3.36-4.48-7.88-4.48-13.56v-30.79h11.18v27.42c0 3.78.89 6.69 2.68 8.73s4.32 3.06 7.59 3.06c3.21 0 5.81-1.05 7.81-3.15s3-5.04 3-8.82z"/><path d="m600.94 204.66c-3.06 1.68-6.93 2.52-11.64 2.52-3.6 0-6.93-.66-9.99-1.97s-5.71-3.12-7.95-5.41c-2.25-2.29-4-4.95-5.27-7.97-1.26-3.02-1.89-6.28-1.89-9.76s.63-6.75 1.89-9.81c1.26-3.05 3.02-5.74 5.27-8.06s4.91-4.15 8-5.5c3.09-1.34 6.43-2.02 10.04-2.02 4.58 0 8.38.76 11.41 2.29 3.02 1.53 5.66 3.54 7.92 6.05l-6.87 7.42c-1.71-1.77-3.53-3.22-5.45-4.35s-4.29-1.7-7.1-1.7c-2.02 0-3.88.41-5.59 1.24s-3.18 1.94-4.4 3.34c-1.22 1.41-2.19 3.04-2.89 4.9s-1.05 3.86-1.05 6c0 2.2.35 4.25 1.05 6.14s1.7 3.54 2.98 4.95 2.81 2.52 4.58 3.34 3.73 1.24 5.86 1.24c2.63 0 4.93-.56 6.92-1.69s3.86-2.58 5.64-4.35l6.69 6.6c-2.39 2.7-5.11 4.88-8.16 6.56z"/><path d="m645.15 206.08v-5.95c-1.65 1.96-3.76 3.6-6.32 4.95-2.57 1.34-5.68 2.02-9.35 2.02-2.32 0-4.52-.32-6.6-.96s-3.9-1.59-5.45-2.84c-1.56-1.25-2.81-2.81-3.76-4.67s-1.42-4.02-1.42-6.46v-.18c0-2.62.49-4.92 1.46-6.87.98-1.96 2.34-3.57 4.08-4.86 1.74-1.28 3.82-2.24 6.23-2.89 2.41-.64 5.02-.96 7.83-.96 2.93 0 5.42.18 7.47.55s4.02.86 5.91 1.47v-1.19c0-3.36-1.02-5.92-3.07-7.7-2.05-1.77-4.99-2.66-8.84-2.66-2.75 0-5.19.27-7.33.82s-4.31 1.28-6.51 2.2l-3.02-8.89c2.69-1.22 5.44-2.2 8.25-2.93s6.2-1.1 10.17-1.1c7.21 0 12.55 1.79 16.03 5.36s5.22 8.6 5.22 15.07v28.68h-10.98zm.28-20.52c-1.4-.55-3.07-1.01-4.99-1.37-1.92-.37-3.96-.55-6.09-.55-3.48 0-6.2.67-8.16 2.02-1.96 1.34-2.93 3.27-2.93 5.77v.18c0 2.32.9 4.09 2.7 5.31s4.02 1.83 6.64 1.83c1.83 0 3.53-.24 5.09-.73s2.92-1.18 4.08-2.06 2.06-1.95 2.7-3.21c.64-1.25.96-2.64.96-4.17z"/><path d="m676.93 190.95c0 2.14.52 3.69 1.56 4.64s2.5 1.43 4.4 1.43c2.38 0 4.67-.55 6.87-1.65v9.07c-1.41.79-2.9 1.4-4.49 1.83s-3.42.64-5.5.64c-2.02 0-3.89-.24-5.61-.73s-3.22-1.28-4.48-2.39c-1.26-1.1-2.23-2.56-2.91-4.36s-1.02-4.06-1.02-6.75v-25.53h-6.14v-9.44h6.14v-13.29h11.18v13.29h13.01v9.44h-13.01z"/><path d="m697.6 150.28v-10.54h12v10.54zm.46 55.8v-48.38h11.18v48.38z"/><path d="m766.96 191.7c-1.31 3.06-3.12 5.73-5.41 8.02s-5.02 4.11-8.2 5.45-6.63 2.02-10.35 2.02c-3.67 0-7.07-.66-10.22-1.97s-5.86-3.12-8.15-5.41-4.08-4.95-5.36-7.97-1.92-6.28-1.92-9.76.65-6.77 1.97-9.85c1.31-3.08 3.12-5.77 5.41-8.06s5.01-4.11 8.15-5.45c3.15-1.34 6.58-2.02 10.31-2.02 3.72 0 7.16.66 10.31 1.97s5.86 3.12 8.15 5.41 4.08 4.96 5.36 8.02 1.93 6.32 1.93 9.8c-.01 3.47-.67 6.74-1.98 9.8zm-10.3-15.67c-.73-1.89-1.75-3.56-3.05-4.99-1.31-1.43-2.85-2.57-4.65-3.39-1.79-.82-3.78-1.24-5.96-1.24-2.19 0-4.18.41-5.97 1.24s-3.33 1.94-4.6 3.34c-1.27 1.41-2.25 3.04-2.91 4.9-.67 1.86-1 3.86-1 6s.37 4.17 1.09 6.09 1.74 3.59 3.05 4.99c1.31 1.41 2.85 2.52 4.65 3.34 1.79.82 3.75 1.24 5.87 1.24 2.25 0 4.26-.41 6.05-1.24 1.79-.82 3.33-1.94 4.6-3.34s2.24-3.04 2.91-4.9 1-3.86 1-6c.01-2.13-.35-4.15-1.08-6.04z"/><path d="m787.76 206.08h-11.18v-48.38h11.18v7.59c.79-1.17 1.66-2.26 2.6-3.28s2.04-1.93 3.29-2.73 2.62-1.43 4.11-1.9c1.49-.46 3.18-.69 5.07-.69 5.48 0 9.72 1.68 12.7 5.04s4.48 7.88 4.48 13.56v30.79h-11.18v-27.42c0-3.78-.89-6.69-2.68-8.73s-4.32-3.06-7.59-3.06c-3.21 0-5.81 1.05-7.81 3.15s-3 5.04-3 8.82v27.24z"/></g></svg>