<?xml version="1.0" encoding="utf-8"?>
<!-- Generator: Adobe Illustrator 25.3.1, SVG Export Plug-In . SVG Version: 6.00 Build 0)  -->
<svg version="1.1" id="Layer_1" xmlns="http://www.w3.org/2000/svg" xmlns:xlink="http://www.w3.org/1999/xlink" x="0px" y="0px"
	 viewBox="0 0 738.24 153.98" style="enable-background:new 0 0 738.24 153.98;" xml:space="preserve">
<style type="text/css">
	.st0{fill:#6D6E71;}
	.st1{fill:#51C1E8;}
	.st2{fill:#1999CE;}
</style>
<g>
	<g>
		<path class="st0" d="M196.36,6.4h-0.12v37.06h-4.01V0.97h4.54l24.55,37.11h0.12V0.97h4.01v42.48h-4.66L196.36,6.4z"/>
		<path class="st0" d="M244.13,44.28c-1.97-0.04-3.81-0.39-5.52-1.06c-1.71-0.67-3.21-1.67-4.48-3.01
			c-1.28-1.34-2.29-3.01-3.04-5.02c-0.75-2.01-1.12-4.35-1.12-7.02c0-2.24,0.3-4.34,0.88-6.28c0.59-1.95,1.48-3.65,2.66-5.1
			c1.18-1.46,2.66-2.61,4.42-3.45c1.77-0.85,3.84-1.27,6.2-1.27c2.4,0,4.48,0.42,6.25,1.27c1.77,0.85,3.25,1.99,4.43,3.42
			c1.18,1.44,2.05,3.14,2.63,5.1c0.57,1.97,0.86,4.07,0.86,6.31c0,2.44-0.34,4.64-1,6.61c-0.67,1.97-1.62,3.66-2.86,5.07
			c-1.24,1.42-2.73,2.51-4.48,3.28C248.19,43.9,246.25,44.28,244.13,44.28z M254.51,28.17c0-1.81-0.2-3.5-0.59-5.07
			c-0.39-1.57-1-2.94-1.83-4.1c-0.83-1.16-1.89-2.07-3.19-2.74c-1.3-0.67-2.89-1-4.78-1c-1.85,0-3.43,0.36-4.75,1.09
			c-1.32,0.73-2.39,1.69-3.22,2.89c-0.83,1.2-1.44,2.58-1.83,4.13c-0.39,1.55-0.59,3.16-0.59,4.81c0,1.89,0.23,3.63,0.68,5.22
			c0.45,1.59,1.11,2.96,1.98,4.1c0.86,1.14,1.95,2.03,3.25,2.66c1.3,0.63,2.79,0.94,4.48,0.94c1.85,0,3.43-0.36,4.75-1.09
			c1.32-0.73,2.39-1.7,3.22-2.92c0.83-1.22,1.44-2.6,1.83-4.13C254.32,31.42,254.51,29.82,254.51,28.17z"/>
		<path class="st0" d="M266.05,43.45h-3.54V12.89h3.54v5.72h0.12c0.98-2.44,2.25-4.14,3.81-5.1c1.55-0.96,3.61-1.45,6.17-1.45v3.84
			c-2.01-0.04-3.66,0.28-4.96,0.94c-1.3,0.67-2.33,1.57-3.1,2.71c-0.77,1.14-1.3,2.49-1.59,4.04c-0.3,1.55-0.44,3.18-0.44,4.87
			V43.45z"/>
		<path class="st0" d="M292.72,43.57c-0.43,0.08-1,0.22-1.71,0.41c-0.71,0.2-1.5,0.3-2.36,0.3c-1.77,0-3.12-0.44-4.04-1.33
			c-0.92-0.88-1.39-2.47-1.39-4.75V15.84h-4.31v-2.95h4.31v-8.5h3.54v8.5h5.72v2.95h-5.72v20.95c0,0.75,0.02,1.4,0.06,1.95
			c0.04,0.55,0.16,1,0.35,1.36c0.2,0.35,0.5,0.61,0.91,0.77c0.41,0.16,0.99,0.24,1.74,0.24c0.47,0,0.95-0.04,1.45-0.12
			c0.49-0.08,0.97-0.18,1.45-0.3V43.57z"/>
		<path class="st0" d="M298.39,43.45V0.97h3.54v16.17c1.42-1.49,2.88-2.71,4.4-3.66c1.51-0.94,3.33-1.42,5.46-1.42
			c1.89,0,3.64,0.32,5.25,0.97c1.61,0.65,2.97,1.78,4.07,3.39c0.75,1.1,1.19,2.23,1.33,3.39c0.14,1.16,0.21,2.37,0.21,3.63v20h-3.54
			V23.51c0-2.75-0.61-4.82-1.83-6.2c-1.22-1.38-3.25-2.06-6.08-2.06c-1.1,0-2.1,0.17-3.01,0.5c-0.91,0.33-1.72,0.78-2.45,1.33
			c-0.73,0.55-1.35,1.18-1.86,1.89c-0.51,0.71-0.91,1.46-1.18,2.24c-0.35,0.98-0.57,1.93-0.65,2.83c-0.08,0.91-0.12,1.89-0.12,2.95
			v16.46H298.39z"/>
		<path class="st0" d="M330.93,29c0,1.65,0.22,3.22,0.65,4.69c0.43,1.47,1.07,2.75,1.92,3.83c0.85,1.08,1.92,1.95,3.22,2.6
			c1.3,0.65,2.79,0.97,4.48,0.97c2.32,0,4.31-0.61,5.96-1.83c1.65-1.22,2.75-2.95,3.3-5.19h3.95c-0.43,1.46-1,2.8-1.71,4.04
			c-0.71,1.24-1.59,2.32-2.66,3.25c-1.06,0.92-2.32,1.64-3.78,2.15s-3.15,0.77-5.07,0.77c-2.44,0-4.54-0.41-6.31-1.24
			c-1.77-0.83-3.23-1.96-4.37-3.39c-1.14-1.44-1.99-3.13-2.54-5.07c-0.55-1.95-0.83-4.04-0.83-6.28c0-2.24,0.32-4.35,0.97-6.31
			c0.65-1.97,1.57-3.69,2.77-5.16c1.2-1.47,2.66-2.63,4.4-3.48c1.73-0.85,3.7-1.27,5.9-1.27c4.21,0,7.51,1.45,9.91,4.34
			c2.4,2.89,3.58,7.09,3.54,12.6H330.93z M350.87,26.05c0-1.49-0.21-2.9-0.62-4.22c-0.41-1.32-1.02-2.46-1.83-3.42
			c-0.81-0.96-1.82-1.73-3.04-2.3c-1.22-0.57-2.62-0.86-4.19-0.86c-1.57,0-2.96,0.29-4.16,0.88c-1.2,0.59-2.22,1.38-3.07,2.36
			c-0.85,0.98-1.52,2.12-2.04,3.42c-0.51,1.3-0.85,2.68-1,4.13H350.87z"/>
		<path class="st0" d="M362.82,43.45h-3.54V12.89h3.54v5.72h0.12c0.98-2.44,2.25-4.14,3.8-5.1c1.55-0.96,3.61-1.45,6.17-1.45v3.84
			c-2.01-0.04-3.66,0.28-4.96,0.94c-1.3,0.67-2.33,1.57-3.1,2.71c-0.77,1.14-1.3,2.49-1.59,4.04c-0.3,1.55-0.44,3.18-0.44,4.87
			V43.45z"/>
		<path class="st0" d="M381.07,43.45h-3.54V12.89h3.54v4.25c1.42-1.49,2.88-2.71,4.4-3.66c1.51-0.94,3.33-1.42,5.46-1.42
			c1.89,0,3.64,0.32,5.25,0.97c1.61,0.65,2.97,1.78,4.07,3.39c0.75,1.1,1.19,2.23,1.33,3.39c0.14,1.16,0.21,2.37,0.21,3.63v20h-3.54
			V23.51c0-2.75-0.61-4.82-1.83-6.2c-1.22-1.38-3.24-2.06-6.08-2.06c-1.1,0-2.1,0.17-3.01,0.5c-0.91,0.33-1.72,0.78-2.45,1.33
			c-0.73,0.55-1.35,1.18-1.86,1.89c-0.51,0.71-0.9,1.46-1.18,2.24c-0.35,0.98-0.57,1.93-0.65,2.83c-0.08,0.91-0.12,1.89-0.12,2.95
			V43.45z"/>
		<path class="st0" d="M428.69,43.45V0.97h4.01v42.48H428.69z"/>
		<path class="st0" d="M443.19,43.45h-3.54V12.89h3.54v5.72h0.12c0.98-2.44,2.25-4.14,3.8-5.1c1.55-0.96,3.61-1.45,6.17-1.45v3.84
			c-2.01-0.04-3.66,0.28-4.96,0.94c-1.3,0.67-2.33,1.57-3.1,2.71c-0.77,1.14-1.3,2.49-1.59,4.04c-0.3,1.55-0.44,3.18-0.44,4.87
			V43.45z"/>
		<path class="st0" d="M458.86,29c0,1.65,0.22,3.22,0.65,4.69c0.43,1.47,1.07,2.75,1.92,3.83c0.85,1.08,1.92,1.95,3.22,2.6
			c1.3,0.65,2.79,0.97,4.48,0.97c2.32,0,4.31-0.61,5.96-1.83c1.65-1.22,2.75-2.95,3.3-5.19h3.95c-0.43,1.46-1,2.8-1.71,4.04
			c-0.71,1.24-1.59,2.32-2.66,3.25c-1.06,0.92-2.32,1.64-3.78,2.15s-3.15,0.77-5.07,0.77c-2.44,0-4.54-0.41-6.31-1.24
			c-1.77-0.83-3.23-1.96-4.37-3.39c-1.14-1.44-1.99-3.13-2.54-5.07c-0.55-1.95-0.83-4.04-0.83-6.28c0-2.24,0.32-4.35,0.97-6.31
			c0.65-1.97,1.57-3.69,2.77-5.16c1.2-1.47,2.66-2.63,4.4-3.48c1.73-0.85,3.7-1.27,5.9-1.27c4.21,0,7.51,1.45,9.91,4.34
			c2.4,2.89,3.58,7.09,3.54,12.6H458.86z M478.8,26.05c0-1.49-0.21-2.9-0.62-4.22c-0.41-1.32-1.02-2.46-1.83-3.42
			c-0.81-0.96-1.82-1.73-3.04-2.3c-1.22-0.57-2.62-0.86-4.19-0.86c-1.57,0-2.96,0.29-4.16,0.88c-1.2,0.59-2.22,1.38-3.07,2.36
			c-0.85,0.98-1.52,2.12-2.04,3.42c-0.51,1.3-0.85,2.68-1,4.13H478.8z"/>
		<path class="st0" d="M486.34,43.45V0.97h3.54v42.48H486.34z"/>
		<path class="st0" d="M509.28,25.63c0.67-0.08,1.46-0.2,2.39-0.35c0.92-0.16,1.68-0.37,2.27-0.65c0.59-0.27,0.95-0.74,1.09-1.39
			c0.14-0.65,0.21-1.25,0.21-1.8c0-1.81-0.58-3.29-1.74-4.45c-1.16-1.16-3.12-1.74-5.87-1.74c-1.22,0-2.34,0.11-3.36,0.32
			c-1.02,0.22-1.92,0.59-2.68,1.12s-1.4,1.24-1.89,2.12c-0.49,0.89-0.82,2-0.97,3.33h-3.6c0.12-1.81,0.53-3.35,1.24-4.63
			c0.71-1.28,1.62-2.32,2.74-3.13c1.12-0.81,2.42-1.4,3.89-1.77c1.48-0.37,3.04-0.56,4.69-0.56c1.53,0,2.98,0.17,4.34,0.5
			c1.36,0.33,2.54,0.87,3.54,1.59c1,0.73,1.79,1.7,2.36,2.92c0.57,1.22,0.86,2.71,0.86,4.48V38.2c0,1.38,0.24,2.25,0.74,2.63
			c0.49,0.37,1.48,0.29,2.98-0.27v2.77c-0.28,0.08-0.68,0.2-1.21,0.35c-0.53,0.16-1.05,0.24-1.56,0.24c-0.55,0-1.08-0.06-1.59-0.18
			c-0.59-0.08-1.06-0.27-1.42-0.56c-0.35-0.29-0.64-0.65-0.86-1.06c-0.22-0.41-0.36-0.86-0.44-1.36c-0.08-0.49-0.12-1.01-0.12-1.56
			c-1.5,1.65-3.21,2.91-5.13,3.78c-1.93,0.86-4.01,1.3-6.25,1.3c-1.34,0-2.63-0.18-3.87-0.53c-1.24-0.35-2.33-0.9-3.27-1.65
			c-0.94-0.75-1.69-1.66-2.24-2.74c-0.55-1.08-0.83-2.37-0.83-3.86c0-5.19,3.56-8.26,10.68-9.2L509.28,25.63z M515.24,27.41
			c-1.5,0.63-3.01,1.04-4.54,1.24c-1.53,0.2-3.07,0.35-4.6,0.47c-2.71,0.2-4.83,0.81-6.34,1.83c-1.51,1.02-2.27,2.58-2.27,4.66
			c0,0.94,0.19,1.76,0.56,2.45s0.86,1.26,1.48,1.71c0.61,0.45,1.32,0.79,2.12,1c0.81,0.22,1.62,0.32,2.45,0.32
			c1.42,0,2.79-0.18,4.13-0.53c1.34-0.35,2.53-0.89,3.57-1.62c1.04-0.73,1.88-1.65,2.51-2.77c0.63-1.12,0.94-2.45,0.94-3.98V27.41z"
			/>
		<path class="st0" d="M530.36,43.45h-3.54V12.89h3.54v4.25c1.42-1.49,2.88-2.71,4.4-3.66c1.51-0.94,3.33-1.42,5.46-1.42
			c1.89,0,3.64,0.32,5.25,0.97c1.61,0.65,2.97,1.78,4.07,3.39c0.75,1.1,1.19,2.23,1.33,3.39c0.14,1.16,0.21,2.37,0.21,3.63v20h-3.54
			V23.51c0-2.75-0.61-4.82-1.83-6.2c-1.22-1.38-3.24-2.06-6.08-2.06c-1.1,0-2.1,0.17-3.01,0.5c-0.91,0.33-1.72,0.78-2.45,1.33
			c-0.73,0.55-1.35,1.18-1.86,1.89c-0.51,0.71-0.9,1.46-1.18,2.24c-0.35,0.98-0.57,1.93-0.65,2.83c-0.08,0.91-0.12,1.89-0.12,2.95
			V43.45z"/>
		<path class="st0" d="M579.56,0.97h3.54v42.48h-3.54v-5.37h-0.12c-0.51,1.02-1.17,1.92-1.98,2.68c-0.81,0.77-1.69,1.41-2.66,1.92
			c-0.96,0.51-1.96,0.9-2.98,1.18c-1.02,0.27-2.03,0.41-3.01,0.41c-2.48,0-4.58-0.41-6.31-1.24c-1.73-0.83-3.16-1.96-4.28-3.39
			c-1.12-1.44-1.94-3.14-2.45-5.1c-0.51-1.97-0.77-4.07-0.77-6.31c0-2.12,0.27-4.17,0.83-6.14c0.55-1.97,1.39-3.69,2.51-5.16
			c1.12-1.48,2.54-2.66,4.25-3.54c1.71-0.89,3.73-1.33,6.05-1.33c2.16,0,4.24,0.48,6.23,1.45c1.99,0.96,3.55,2.39,4.69,4.28V0.97z
			 M579.56,28.05c0-1.73-0.24-3.37-0.71-4.93c-0.47-1.55-1.15-2.91-2.04-4.07c-0.89-1.16-1.97-2.08-3.25-2.77
			c-1.28-0.69-2.72-1.03-4.34-1.03c-1.85,0-3.44,0.36-4.78,1.09c-1.34,0.73-2.44,1.72-3.3,2.98c-0.86,1.26-1.49,2.72-1.89,4.4
			c-0.39,1.67-0.55,3.47-0.47,5.4c0,1.93,0.27,3.63,0.8,5.1c0.53,1.47,1.27,2.72,2.21,3.75c0.94,1.02,2.04,1.8,3.3,2.33
			c1.26,0.53,2.63,0.8,4.13,0.8c1.65,0,3.13-0.33,4.42-1c1.3-0.67,2.38-1.58,3.25-2.74c0.86-1.16,1.52-2.54,1.98-4.13
			C579.33,31.62,579.56,29.9,579.56,28.05z"/>
		<path class="st0" d="M191.94,104.47V61.99h27.38v3.42h-23.37v15.34h21.24v3.42h-21.24v20.3H191.94z"/>
		<path class="st0" d="M224.98,67.24v-5.25h3.89v5.25H224.98z M225.16,104.47V73.91h3.54v30.56H225.16z"/>
		<path class="st0" d="M237.34,94.91c0.55,2.64,1.54,4.49,2.98,5.58c1.44,1.08,3.49,1.62,6.17,1.62c1.3,0,2.42-0.16,3.36-0.47
			c0.94-0.31,1.72-0.74,2.33-1.27c0.61-0.53,1.07-1.13,1.39-1.8c0.31-0.67,0.47-1.38,0.47-2.12c0-1.49-0.48-2.61-1.45-3.33
			c-0.96-0.73-2.17-1.3-3.63-1.71c-1.46-0.41-3.03-0.77-4.72-1.06c-1.69-0.3-3.27-0.74-4.72-1.33c-1.46-0.59-2.67-1.44-3.63-2.54
			c-0.96-1.1-1.45-2.66-1.45-4.66c0-2.56,0.93-4.65,2.8-6.28c1.87-1.63,4.51-2.45,7.94-2.45c3.3,0,5.99,0.74,8.05,2.21
			c2.06,1.48,3.31,3.94,3.75,7.41h-3.6c-0.32-2.36-1.21-4.02-2.68-4.99c-1.48-0.96-3.33-1.45-5.58-1.45c-2.24,0-3.95,0.48-5.13,1.45
			c-1.18,0.97-1.77,2.23-1.77,3.81c0,1.38,0.48,2.43,1.45,3.16c0.96,0.73,2.17,1.32,3.63,1.77c1.46,0.45,3.03,0.86,4.72,1.21
			c1.69,0.35,3.26,0.86,4.72,1.5c1.46,0.65,2.66,1.53,3.63,2.63c0.96,1.1,1.45,2.64,1.45,4.6c0,1.46-0.32,2.74-0.94,3.87
			c-0.63,1.12-1.5,2.06-2.6,2.8c-1.1,0.75-2.41,1.31-3.92,1.68c-1.51,0.37-3.18,0.56-4.99,0.56c-1.81,0-3.41-0.27-4.81-0.8
			c-1.4-0.53-2.59-1.27-3.57-2.21c-0.98-0.94-1.75-2.05-2.3-3.3c-0.55-1.26-0.87-2.62-0.94-4.07H237.34z"/>
		<path class="st0" d="M283.99,83.53c-0.63-2.28-1.71-4.06-3.25-5.34c-1.53-1.28-3.48-1.92-5.84-1.92c-1.81,0-3.36,0.38-4.66,1.12
			c-1.3,0.75-2.36,1.74-3.19,2.98c-0.83,1.24-1.44,2.64-1.83,4.19c-0.39,1.55-0.59,3.12-0.59,4.69c0,1.61,0.19,3.19,0.56,4.72
			c0.37,1.54,0.97,2.91,1.8,4.13c0.83,1.22,1.89,2.19,3.19,2.92c1.3,0.73,2.87,1.09,4.72,1.09c2.63,0,4.75-0.73,6.34-2.18
			c1.59-1.46,2.6-3.46,3.04-6.02h3.78c-0.32,1.69-0.82,3.24-1.5,4.63c-0.69,1.4-1.57,2.6-2.66,3.6c-1.08,1-2.37,1.78-3.86,2.33
			c-1.5,0.55-3.21,0.83-5.13,0.83c-2.44,0-4.54-0.41-6.31-1.24c-1.77-0.83-3.23-1.96-4.37-3.39c-1.14-1.43-1.99-3.14-2.54-5.1
			c-0.55-1.97-0.83-4.07-0.83-6.31c0-2.12,0.3-4.16,0.91-6.11c0.61-1.95,1.5-3.67,2.68-5.16c1.18-1.49,2.65-2.69,4.4-3.57
			c1.75-0.88,3.77-1.33,6.05-1.33c3.54,0,6.4,0.85,8.58,2.54c2.18,1.69,3.55,4.33,4.1,7.91H283.99z"/>
		<path class="st0" d="M306.74,86.65c0.67-0.08,1.47-0.2,2.39-0.35c0.92-0.16,1.68-0.37,2.27-0.65c0.59-0.27,0.95-0.74,1.09-1.39
			c0.14-0.65,0.21-1.25,0.21-1.8c0-1.81-0.58-3.29-1.74-4.45c-1.16-1.16-3.12-1.74-5.87-1.74c-1.22,0-2.34,0.11-3.36,0.32
			c-1.02,0.22-1.92,0.59-2.68,1.12c-0.77,0.53-1.4,1.24-1.89,2.12c-0.49,0.89-0.82,2-0.97,3.33h-3.6c0.12-1.81,0.53-3.35,1.24-4.63
			c0.71-1.28,1.62-2.32,2.74-3.13c1.12-0.81,2.42-1.4,3.89-1.77c1.48-0.37,3.04-0.56,4.69-0.56c1.53,0,2.98,0.17,4.34,0.5
			c1.36,0.33,2.54,0.87,3.54,1.59c1,0.73,1.79,1.7,2.36,2.92c0.57,1.22,0.86,2.71,0.86,4.48v16.64c0,1.38,0.25,2.25,0.74,2.63
			c0.49,0.37,1.48,0.29,2.98-0.27v2.77c-0.28,0.08-0.68,0.2-1.21,0.35c-0.53,0.16-1.05,0.24-1.56,0.24c-0.55,0-1.08-0.06-1.59-0.18
			c-0.59-0.08-1.06-0.27-1.42-0.56c-0.35-0.3-0.64-0.65-0.86-1.06c-0.22-0.41-0.36-0.86-0.44-1.36c-0.08-0.49-0.12-1.01-0.12-1.56
			c-1.5,1.65-3.21,2.91-5.13,3.78c-1.93,0.86-4.01,1.3-6.25,1.3c-1.34,0-2.63-0.18-3.86-0.53c-1.24-0.35-2.33-0.9-3.27-1.65
			c-0.94-0.75-1.69-1.66-2.24-2.74c-0.55-1.08-0.83-2.37-0.83-3.86c0-5.19,3.56-8.26,10.68-9.2L306.74,86.65z M312.7,88.42
			c-1.5,0.63-3.01,1.04-4.54,1.24c-1.53,0.2-3.07,0.35-4.6,0.47c-2.71,0.2-4.83,0.81-6.34,1.83c-1.51,1.02-2.27,2.58-2.27,4.66
			c0,0.94,0.19,1.76,0.56,2.45c0.37,0.69,0.86,1.26,1.48,1.71c0.61,0.45,1.32,0.79,2.12,1c0.81,0.22,1.62,0.32,2.45,0.32
			c1.42,0,2.79-0.18,4.13-0.53c1.34-0.35,2.53-0.89,3.57-1.62c1.04-0.73,1.88-1.65,2.51-2.77c0.63-1.12,0.94-2.45,0.94-3.98V88.42z"
			/>
		<path class="st0" d="M326.03,104.47V61.99h3.54v42.48H326.03z"/>
		<path class="st0" d="M385.68,74.32c-0.83-3.62-2.36-6.2-4.6-7.73c-2.24-1.53-5.17-2.3-8.79-2.3c-2.56,0-4.76,0.51-6.61,1.53
			c-1.85,1.02-3.37,2.4-4.57,4.13c-1.2,1.73-2.09,3.73-2.66,5.99c-0.57,2.26-0.86,4.65-0.86,7.17c0,2.36,0.25,4.68,0.74,6.96
			c0.49,2.28,1.31,4.32,2.45,6.11c1.14,1.79,2.67,3.24,4.6,4.34c1.93,1.1,4.35,1.65,7.26,1.65c1.81,0,3.46-0.3,4.96-0.89
			c1.49-0.59,2.8-1.41,3.92-2.45c1.12-1.04,2.07-2.27,2.83-3.69c0.77-1.42,1.35-2.97,1.74-4.66h4.19c-0.47,2.05-1.16,3.98-2.07,5.81
			c-0.91,1.83-2.09,3.43-3.57,4.81c-1.48,1.38-3.27,2.47-5.37,3.27c-2.1,0.81-4.57,1.21-7.4,1.21c-3.27,0-6.06-0.6-8.38-1.8
			c-2.32-1.2-4.22-2.82-5.69-4.87c-1.48-2.04-2.55-4.42-3.22-7.11s-1-5.56-1-8.59c0-4.05,0.5-7.49,1.5-10.33
			c1-2.83,2.39-5.14,4.16-6.93c1.77-1.79,3.86-3.09,6.26-3.89c2.4-0.81,5.02-1.21,7.85-1.21c2.16,0,4.18,0.29,6.05,0.86
			s3.52,1.43,4.96,2.57c1.44,1.14,2.62,2.55,3.54,4.22c0.92,1.67,1.56,3.61,1.92,5.81H385.68z"/>
		<path class="st0" d="M407.31,105.3c-1.97-0.04-3.81-0.39-5.52-1.06c-1.71-0.67-3.21-1.67-4.48-3.01
			c-1.28-1.34-2.29-3.01-3.04-5.02c-0.75-2.01-1.12-4.35-1.12-7.02c0-2.24,0.3-4.34,0.89-6.28c0.59-1.95,1.47-3.65,2.65-5.1
			c1.18-1.45,2.66-2.6,4.43-3.45c1.77-0.85,3.83-1.27,6.2-1.27c2.4,0,4.48,0.42,6.25,1.27c1.77,0.85,3.24,1.99,4.42,3.42
			s2.05,3.14,2.63,5.1c0.57,1.97,0.86,4.07,0.86,6.31c0,2.44-0.33,4.64-1,6.61c-0.67,1.97-1.62,3.66-2.86,5.07
			c-1.24,1.42-2.73,2.51-4.48,3.27C411.37,104.91,409.44,105.3,407.31,105.3z M417.69,89.19c0-1.81-0.2-3.5-0.59-5.07
			c-0.39-1.57-1-2.94-1.83-4.1c-0.83-1.16-1.89-2.08-3.19-2.74c-1.3-0.67-2.89-1-4.78-1c-1.85,0-3.43,0.36-4.75,1.09
			c-1.32,0.73-2.39,1.69-3.22,2.89c-0.83,1.2-1.44,2.58-1.83,4.13c-0.39,1.56-0.59,3.16-0.59,4.81c0,1.89,0.23,3.63,0.68,5.22
			c0.45,1.59,1.11,2.96,1.98,4.1c0.86,1.14,1.95,2.03,3.25,2.65c1.3,0.63,2.79,0.94,4.48,0.94c1.85,0,3.43-0.36,4.75-1.09
			c1.32-0.73,2.39-1.7,3.21-2.92c0.83-1.22,1.44-2.6,1.83-4.13C417.5,92.44,417.69,90.84,417.69,89.19z"/>
		<path class="st0" d="M446.23,73.91h3.54v30.56h-3.54v-4.25c-0.47,0.55-1,1.12-1.59,1.71c-0.59,0.59-1.27,1.13-2.04,1.62
			c-0.77,0.49-1.66,0.91-2.69,1.24c-1.02,0.33-2.2,0.5-3.54,0.5c-2.05,0-3.76-0.29-5.13-0.86c-1.38-0.57-2.49-1.37-3.33-2.39
			c-0.85-1.02-1.46-2.21-1.83-3.57c-0.37-1.36-0.56-2.84-0.56-4.45V73.91h3.54v20.06c0,2.64,0.61,4.65,1.83,6.05
			c1.22,1.4,3.22,2.09,6.02,2.09c1.45,0,2.76-0.28,3.92-0.86c1.16-0.57,2.13-1.37,2.92-2.39c0.79-1.02,1.4-2.24,1.83-3.66
			c0.43-1.42,0.65-2.97,0.65-4.66V73.91z"/>
		<path class="st0" d="M459.42,104.47h-3.54V73.91h3.54v4.25c1.42-1.49,2.88-2.71,4.4-3.66c1.51-0.94,3.33-1.42,5.46-1.42
			c1.89,0,3.64,0.32,5.25,0.97c1.61,0.65,2.97,1.78,4.07,3.39c0.75,1.1,1.19,2.23,1.33,3.39c0.14,1.16,0.21,2.37,0.21,3.63v20h-3.54
			V84.53c0-2.75-0.61-4.82-1.83-6.2c-1.22-1.38-3.24-2.07-6.08-2.07c-1.1,0-2.1,0.17-3.01,0.5c-0.91,0.33-1.72,0.78-2.45,1.33
			c-0.73,0.55-1.35,1.18-1.86,1.89s-0.9,1.46-1.18,2.24c-0.35,0.98-0.57,1.93-0.65,2.83c-0.08,0.91-0.12,1.89-0.12,2.95V104.47z"/>
		<path class="st0" d="M507.89,83.53c-0.63-2.28-1.71-4.06-3.24-5.34c-1.53-1.28-3.48-1.92-5.84-1.92c-1.81,0-3.36,0.38-4.66,1.12
			c-1.3,0.75-2.36,1.74-3.19,2.98c-0.83,1.24-1.44,2.64-1.83,4.19c-0.39,1.55-0.59,3.12-0.59,4.69c0,1.61,0.19,3.19,0.56,4.72
			c0.37,1.54,0.97,2.91,1.8,4.13c0.83,1.22,1.89,2.19,3.19,2.92s2.87,1.09,4.72,1.09c2.64,0,4.75-0.73,6.34-2.18
			c1.59-1.46,2.61-3.46,3.04-6.02h3.78c-0.32,1.69-0.82,3.24-1.5,4.63c-0.69,1.4-1.57,2.6-2.66,3.6c-1.08,1-2.37,1.78-3.86,2.33
			s-3.21,0.83-5.13,0.83c-2.44,0-4.54-0.41-6.31-1.24c-1.77-0.83-3.23-1.96-4.37-3.39c-1.14-1.43-1.99-3.14-2.54-5.1
			c-0.55-1.97-0.83-4.07-0.83-6.31c0-2.12,0.3-4.16,0.92-6.11c0.61-1.95,1.5-3.67,2.68-5.16c1.18-1.49,2.64-2.69,4.4-3.57
			c1.75-0.88,3.77-1.33,6.05-1.33c3.54,0,6.4,0.85,8.59,2.54c2.18,1.69,3.55,4.33,4.1,7.91H507.89z"/>
		<path class="st0" d="M516.95,67.24v-5.25h3.89v5.25H516.95z M517.12,104.47V73.91h3.54v30.56H517.12z"/>
		<path class="st0" d="M527.78,104.47V61.99h3.54v42.48H527.78z"/>
	</g>
	<g>
		<path class="st1" d="M65.26,70.34c9.21,9.21,24.2,9.21,33.42,0c9.21-9.21,9.21-24.2,0-33.41c-9.21-9.21-24.2-9.21-33.41,0
			C56.05,46.14,56.05,61.13,65.26,70.34z"/>
		<path class="st1" d="M159.64,41.59C147.07,25.78,120.65,0,81.96,0C43.28,0,16.86,25.78,4.29,41.59
			c-5.61,7.05-5.76,17.07-0.24,24.18c12.14,15.63,37.9,40.79,77.91,40.79c11.3,0,21.45-2.01,30.49-5.24l-13.4-13.39
			c-5.15,2.58-10.95,4.04-17.1,4.04c-21.14,0-38.34-17.19-38.34-38.34c0-21.14,17.2-38.34,38.34-38.34
			c21.14,0,38.34,17.2,38.34,38.34c0,9.54-3.51,18.26-9.3,24.98l16.02,16.01c15.18-8.6,26.09-20.16,32.82-28.81
			C165.38,58.68,165.25,48.66,159.64,41.59z"/>
	</g>
</g>
<g>
	<path class="st2" d="M199.95,128.05c0.43,0,0.89,0,1.39,0.01c0.5,0.01,0.99,0.04,1.47,0.08c0.49,0.05,0.94,0.12,1.36,0.21
		c0.42,0.09,0.78,0.23,1.08,0.42c0.66,0.39,1.21,0.94,1.67,1.63c0.46,0.69,0.69,1.55,0.69,2.56c0,1.07-0.26,1.99-0.77,2.77
		c-0.52,0.78-1.25,1.35-2.21,1.73v0.06c1.24,0.26,2.18,0.82,2.84,1.69c0.66,0.86,0.98,1.91,0.98,3.15c0,0.73-0.13,1.44-0.39,2.14
		c-0.26,0.69-0.65,1.31-1.17,1.84c-0.52,0.53-1.15,0.96-1.91,1.29c-0.76,0.33-1.63,0.49-2.63,0.49h-9.69v-20.06H199.95z
		 M200.68,136.68c1.52,0,2.61-0.27,3.27-0.8c0.66-0.53,1-1.34,1-2.4c0-0.71-0.11-1.27-0.34-1.69c-0.22-0.41-0.53-0.73-0.93-0.96
		c-0.39-0.22-0.85-0.37-1.36-0.43c-0.52-0.07-1.06-0.1-1.64-0.1h-5.34v6.38H200.68z M202.03,145.86c1.18,0,2.1-0.32,2.77-0.95
		c0.66-0.64,1-1.52,1-2.64c0-0.66-0.12-1.2-0.37-1.63c-0.24-0.43-0.57-0.77-0.97-1.03c-0.4-0.25-0.87-0.43-1.39-0.53
		c-0.52-0.1-1.07-0.15-1.63-0.15h-6.1v6.94H202.03z"/>
	<path class="st2" d="M213.41,133.59v3.06h0.06c0.58-1.18,1.29-2.05,2.13-2.61c0.84-0.56,1.91-0.82,3.2-0.79v2.53
		c-0.96,0-1.77,0.13-2.44,0.39c-0.67,0.26-1.22,0.65-1.63,1.15c-0.41,0.51-0.71,1.12-0.9,1.84c-0.19,0.72-0.28,1.55-0.28,2.49v6.46
		h-2.39v-14.53H213.41z"/>
	<path class="st2" d="M220.46,130.97v-2.92h2.39v2.92H220.46z M222.85,133.59v14.53h-2.39v-14.53H222.85z"/>
	<path class="st2" d="M228.52,133.59v2.3h0.06c0.99-1.76,2.57-2.64,4.72-2.64c0.96,0,1.75,0.13,2.39,0.39
		c0.64,0.26,1.15,0.63,1.54,1.09c0.39,0.47,0.67,1.03,0.83,1.67c0.16,0.65,0.24,1.36,0.24,2.15v9.55h-2.39v-9.83
		c0-0.9-0.26-1.61-0.79-2.14s-1.25-0.79-2.16-0.79c-0.73,0-1.36,0.11-1.9,0.34c-0.53,0.23-0.98,0.54-1.33,0.96
		c-0.36,0.41-0.62,0.89-0.8,1.45c-0.18,0.55-0.27,1.16-0.27,1.81v8.2h-2.39v-14.53H228.52z"/>
	<path class="st2" d="M252.52,152.22c-1.09,1.18-2.79,1.77-5.11,1.77c-0.67,0-1.36-0.07-2.06-0.22c-0.7-0.15-1.34-0.39-1.91-0.73
		c-0.57-0.34-1.04-0.78-1.42-1.32c-0.37-0.54-0.58-1.21-0.62-1.99h2.39c0.02,0.43,0.15,0.8,0.41,1.09c0.25,0.3,0.56,0.54,0.93,0.73
		c0.37,0.19,0.76,0.32,1.19,0.41c0.43,0.08,0.84,0.13,1.24,0.13c0.79,0,1.45-0.14,1.99-0.41c0.54-0.27,0.99-0.65,1.35-1.12
		c0.36-0.48,0.61-1.05,0.77-1.73c0.16-0.68,0.24-1.41,0.24-2.22v-0.96h-0.06c-0.41,0.9-1.04,1.56-1.87,1.98
		c-0.83,0.42-1.72,0.63-2.65,0.63c-1.09,0-2.03-0.2-2.84-0.59c-0.81-0.39-1.48-0.92-2.02-1.59s-0.95-1.44-1.22-2.33
		c-0.27-0.89-0.41-1.83-0.41-2.82c0-0.86,0.11-1.75,0.34-2.65c0.22-0.91,0.6-1.73,1.12-2.47c0.52-0.74,1.22-1.35,2.08-1.83
		c0.86-0.48,1.92-0.72,3.18-0.72c0.92,0,1.76,0.2,2.53,0.61s1.37,1.01,1.8,1.81h0.03v-2.08h2.25v13.29
		C254.15,149.25,253.6,151.04,252.52,152.22z M249.47,145.68c0.55-0.33,1-0.76,1.33-1.29c0.34-0.53,0.59-1.14,0.74-1.81
		c0.16-0.67,0.24-1.35,0.24-2.02c0-0.64-0.07-1.27-0.22-1.88c-0.15-0.62-0.39-1.18-0.72-1.67c-0.33-0.5-0.75-0.89-1.28-1.19
		c-0.53-0.3-1.16-0.45-1.91-0.45c-0.77,0-1.42,0.14-1.97,0.44c-0.54,0.29-0.99,0.68-1.33,1.16c-0.35,0.49-0.6,1.05-0.76,1.69
		c-0.16,0.64-0.24,1.3-0.24,2c0,0.66,0.07,1.31,0.2,1.97c0.13,0.66,0.36,1.25,0.67,1.78c0.32,0.53,0.74,0.96,1.26,1.29
		c0.52,0.33,1.18,0.49,1.97,0.49C248.25,146.17,248.92,146.01,249.47,145.68z"/>
	<path class="st2" d="M257.6,130.97v-2.92h2.39v2.92H257.6z M259.99,133.59v14.53h-2.39v-14.53H259.99z"/>
	<path class="st2" d="M265.67,133.59v2.3h0.06c0.99-1.76,2.57-2.64,4.72-2.64c0.96,0,1.75,0.13,2.39,0.39
		c0.64,0.26,1.15,0.63,1.54,1.09c0.39,0.47,0.67,1.03,0.83,1.67c0.16,0.65,0.24,1.36,0.24,2.15v9.55h-2.39v-9.83
		c0-0.9-0.26-1.61-0.79-2.14c-0.52-0.52-1.25-0.79-2.16-0.79c-0.73,0-1.36,0.11-1.9,0.34c-0.53,0.23-0.98,0.54-1.33,0.96
		c-0.36,0.41-0.62,0.89-0.8,1.45c-0.18,0.55-0.27,1.16-0.27,1.81v8.2h-2.39v-14.53H265.67z"/>
	<path class="st2" d="M289.66,152.22c-1.09,1.18-2.79,1.77-5.11,1.77c-0.67,0-1.36-0.07-2.06-0.22c-0.7-0.15-1.34-0.39-1.91-0.73
		c-0.57-0.34-1.04-0.78-1.42-1.32c-0.37-0.54-0.58-1.21-0.62-1.99h2.39c0.02,0.43,0.15,0.8,0.41,1.09c0.25,0.3,0.56,0.54,0.93,0.73
		c0.37,0.19,0.76,0.32,1.19,0.41c0.43,0.08,0.84,0.13,1.24,0.13c0.79,0,1.45-0.14,1.99-0.41c0.54-0.27,0.99-0.65,1.35-1.12
		c0.36-0.48,0.61-1.05,0.77-1.73c0.16-0.68,0.24-1.41,0.24-2.22v-0.96h-0.06c-0.41,0.9-1.04,1.56-1.87,1.98
		c-0.83,0.42-1.72,0.63-2.65,0.63c-1.09,0-2.03-0.2-2.84-0.59c-0.81-0.39-1.48-0.92-2.02-1.59s-0.95-1.44-1.22-2.33
		c-0.27-0.89-0.41-1.83-0.41-2.82c0-0.86,0.11-1.75,0.34-2.65c0.22-0.91,0.6-1.73,1.12-2.47c0.52-0.74,1.22-1.35,2.08-1.83
		c0.86-0.48,1.92-0.72,3.18-0.72c0.92,0,1.76,0.2,2.53,0.61c0.77,0.4,1.37,1.01,1.8,1.81h0.03v-2.08h2.25v13.29
		C291.29,149.25,290.75,151.04,289.66,152.22z M286.61,145.68c0.55-0.33,1-0.76,1.33-1.29c0.34-0.53,0.59-1.14,0.74-1.81
		c0.16-0.67,0.24-1.35,0.24-2.02c0-0.64-0.07-1.27-0.22-1.88c-0.15-0.62-0.39-1.18-0.72-1.67c-0.33-0.5-0.75-0.89-1.28-1.19
		c-0.53-0.3-1.16-0.45-1.91-0.45c-0.77,0-1.42,0.14-1.97,0.44c-0.54,0.29-0.99,0.68-1.33,1.16c-0.35,0.49-0.6,1.05-0.76,1.69
		c-0.16,0.64-0.24,1.3-0.24,2c0,0.66,0.07,1.31,0.2,1.97c0.13,0.66,0.36,1.25,0.67,1.78c0.32,0.53,0.74,0.96,1.26,1.29
		c0.52,0.33,1.18,0.49,1.97,0.49S286.06,146.01,286.61,145.68z"/>
	<path class="st2" d="M308.34,133.59v2.11h-2.89v9.02c0,0.28,0.02,0.51,0.07,0.67c0.05,0.17,0.14,0.3,0.27,0.39
		c0.13,0.09,0.31,0.16,0.55,0.18c0.23,0.03,0.54,0.04,0.91,0.04h1.1v2.11h-1.83c-0.62,0-1.15-0.04-1.59-0.13
		c-0.44-0.08-0.8-0.24-1.07-0.46c-0.27-0.23-0.47-0.54-0.6-0.96c-0.13-0.41-0.2-0.95-0.2-1.63v-9.24h-2.47v-2.11h2.47v-4.36h2.39
		v4.36H308.34z"/>
	<path class="st2" d="M312.87,133.59v3.06h0.06c0.58-1.18,1.29-2.05,2.13-2.61c0.84-0.56,1.91-0.82,3.2-0.79v2.53
		c-0.96,0-1.77,0.13-2.44,0.39c-0.67,0.26-1.22,0.65-1.63,1.15c-0.41,0.51-0.71,1.12-0.9,1.84c-0.19,0.72-0.28,1.55-0.28,2.49v6.46
		h-2.39v-14.53H312.87z"/>
	<path class="st2" d="M332.65,148.06c-0.41,0.24-0.98,0.37-1.71,0.37c-0.62,0-1.11-0.17-1.47-0.52c-0.37-0.35-0.55-0.91-0.55-1.7
		c-0.66,0.79-1.42,1.35-2.29,1.7c-0.87,0.35-1.81,0.52-2.82,0.52c-0.66,0-1.28-0.07-1.87-0.23c-0.59-0.15-1.1-0.38-1.53-0.7
		c-0.43-0.32-0.77-0.73-1.03-1.25c-0.25-0.52-0.38-1.14-0.38-1.87c0-0.82,0.14-1.5,0.42-2.02c0.28-0.52,0.65-0.95,1.11-1.28
		s0.98-0.58,1.57-0.75c0.59-0.17,1.19-0.31,1.81-0.42c0.66-0.13,1.28-0.23,1.87-0.3c0.59-0.07,1.11-0.16,1.56-0.28
		s0.8-0.3,1.07-0.53c0.26-0.23,0.39-0.58,0.39-1.03c0-0.52-0.1-0.95-0.29-1.26c-0.2-0.32-0.45-0.56-0.76-0.73
		c-0.31-0.17-0.66-0.28-1.04-0.34s-0.76-0.08-1.14-0.08c-1.01,0-1.85,0.19-2.53,0.58c-0.67,0.38-1.04,1.11-1.1,2.18h-2.39
		c0.04-0.9,0.22-1.66,0.56-2.28c0.34-0.62,0.79-1.12,1.35-1.5c0.56-0.38,1.2-0.66,1.92-0.83c0.72-0.17,1.49-0.25,2.32-0.25
		c0.66,0,1.31,0.05,1.95,0.14c0.65,0.09,1.23,0.29,1.76,0.57c0.52,0.29,0.95,0.7,1.26,1.22c0.32,0.52,0.48,1.21,0.48,2.05v7.46
		c0,0.56,0.03,0.97,0.1,1.23c0.07,0.26,0.29,0.39,0.66,0.39c0.21,0,0.45-0.04,0.73-0.11V148.06z M328.77,140.61
		c-0.3,0.22-0.69,0.39-1.18,0.49c-0.49,0.1-1,0.19-1.53,0.25c-0.53,0.07-1.07,0.14-1.62,0.22c-0.54,0.08-1.03,0.22-1.46,0.41
		c-0.43,0.19-0.78,0.45-1.05,0.8c-0.27,0.35-0.41,0.82-0.41,1.41c0,0.39,0.08,0.72,0.24,0.99c0.16,0.27,0.37,0.49,0.62,0.66
		c0.25,0.17,0.55,0.29,0.88,0.36c0.34,0.07,0.69,0.11,1.07,0.11c0.79,0,1.46-0.11,2.02-0.32c0.56-0.21,1.02-0.48,1.38-0.81
		c0.36-0.33,0.62-0.68,0.79-1.06c0.17-0.38,0.25-0.74,0.25-1.08V140.61z"/>
	<path class="st2" d="M336.83,133.59v2.3h0.06c0.99-1.76,2.57-2.64,4.72-2.64c0.96,0,1.75,0.13,2.39,0.39
		c0.64,0.26,1.15,0.63,1.54,1.09c0.39,0.47,0.67,1.03,0.83,1.67c0.16,0.65,0.24,1.36,0.24,2.15v9.55h-2.39v-9.83
		c0-0.9-0.26-1.61-0.79-2.14s-1.25-0.79-2.16-0.79c-0.73,0-1.36,0.11-1.9,0.34c-0.53,0.23-0.98,0.54-1.33,0.96
		c-0.36,0.41-0.62,0.89-0.8,1.45c-0.18,0.55-0.27,1.16-0.27,1.81v8.2h-2.39v-14.53H336.83z"/>
	<path class="st2" d="M351.75,144.87c0.22,0.37,0.52,0.66,0.89,0.87c0.37,0.22,0.78,0.37,1.24,0.46c0.46,0.09,0.93,0.14,1.42,0.14
		c0.38,0,0.77-0.03,1.18-0.09c0.41-0.05,0.79-0.16,1.14-0.31c0.35-0.15,0.63-0.37,0.86-0.66c0.22-0.29,0.34-0.66,0.34-1.11
		c0-0.62-0.23-1.09-0.7-1.41c-0.47-0.32-1.05-0.58-1.76-0.77c-0.7-0.2-1.47-0.37-2.29-0.53c-0.82-0.16-1.59-0.38-2.29-0.68
		c-0.7-0.29-1.29-0.7-1.76-1.22c-0.47-0.52-0.7-1.25-0.7-2.19c0-0.73,0.16-1.36,0.49-1.88c0.33-0.52,0.75-0.95,1.26-1.28
		c0.52-0.33,1.1-0.57,1.74-0.73c0.65-0.16,1.29-0.24,1.92-0.24c0.82,0,1.58,0.07,2.28,0.21s1.31,0.38,1.84,0.73
		c0.53,0.35,0.96,0.81,1.28,1.41c0.32,0.59,0.51,1.32,0.56,2.2h-2.39c-0.04-0.47-0.16-0.86-0.37-1.16
		c-0.21-0.31-0.47-0.56-0.79-0.75c-0.32-0.19-0.67-0.32-1.05-0.41c-0.38-0.08-0.77-0.13-1.17-0.13c-0.36,0-0.72,0.03-1.08,0.08
		c-0.37,0.06-0.7,0.16-1,0.3c-0.3,0.14-0.54,0.33-0.73,0.56c-0.19,0.23-0.28,0.54-0.28,0.91c0,0.41,0.14,0.75,0.44,1.03
		c0.29,0.27,0.66,0.5,1.11,0.68c0.45,0.18,0.95,0.33,1.52,0.45c0.56,0.12,1.12,0.25,1.69,0.38c0.6,0.13,1.18,0.29,1.76,0.48
		c0.57,0.19,1.08,0.43,1.52,0.74c0.44,0.31,0.8,0.7,1.07,1.17c0.27,0.47,0.41,1.05,0.41,1.74c0,0.88-0.18,1.61-0.55,2.19
		c-0.37,0.58-0.84,1.05-1.43,1.41c-0.59,0.36-1.26,0.6-1.99,0.75c-0.74,0.14-1.48,0.21-2.21,0.21c-0.81,0-1.57-0.09-2.3-0.25
		c-0.73-0.17-1.38-0.45-1.94-0.83c-0.56-0.38-1.01-0.89-1.35-1.52s-0.52-1.39-0.56-2.29h2.39
		C351.4,144.06,351.53,144.5,351.75,144.87z"/>
	<path class="st2" d="M366.17,133.59v1.97h0.06c0.39-0.8,1.01-1.39,1.85-1.76c0.84-0.37,1.77-0.55,2.78-0.55
		c1.12,0,2.1,0.21,2.94,0.62c0.83,0.41,1.53,0.97,2.08,1.67c0.55,0.7,0.97,1.51,1.25,2.43c0.28,0.92,0.42,1.89,0.42,2.92
		c0,1.03-0.14,2-0.41,2.92s-0.68,1.72-1.23,2.4c-0.55,0.68-1.25,1.22-2.08,1.62c-0.83,0.39-1.8,0.59-2.91,0.59
		c-0.36,0-0.75-0.04-1.19-0.11c-0.44-0.07-0.88-0.2-1.31-0.37c-0.43-0.17-0.84-0.4-1.22-0.69c-0.38-0.29-0.71-0.65-0.97-1.08h-0.06
		v7.47h-2.39v-20.06H366.17z M374.75,138.74c-0.18-0.65-0.45-1.22-0.81-1.73c-0.37-0.5-0.83-0.91-1.4-1.21
		c-0.57-0.3-1.24-0.45-2.01-0.45c-0.81,0-1.49,0.16-2.05,0.48c-0.56,0.32-1.02,0.74-1.38,1.25c-0.36,0.52-0.61,1.1-0.77,1.76
		c-0.16,0.66-0.24,1.32-0.24,2c0,0.71,0.08,1.4,0.25,2.07c0.17,0.66,0.44,1.25,0.8,1.76c0.37,0.51,0.84,0.91,1.42,1.22
		c0.58,0.31,1.28,0.46,2.11,0.46c0.82,0,1.51-0.16,2.06-0.48c0.55-0.32,1-0.74,1.33-1.26c0.34-0.52,0.58-1.12,0.73-1.8
		c0.15-0.67,0.23-1.37,0.23-2.08C375.02,140.05,374.93,139.39,374.75,138.74z"/>
	<path class="st2" d="M392.94,148.06c-0.41,0.24-0.98,0.37-1.71,0.37c-0.62,0-1.11-0.17-1.48-0.52c-0.36-0.35-0.55-0.91-0.55-1.7
		c-0.66,0.79-1.42,1.35-2.29,1.7c-0.87,0.35-1.81,0.52-2.82,0.52c-0.66,0-1.28-0.07-1.87-0.23c-0.59-0.15-1.1-0.38-1.53-0.7
		c-0.43-0.32-0.77-0.73-1.03-1.25c-0.25-0.52-0.38-1.14-0.38-1.87c0-0.82,0.14-1.5,0.42-2.02c0.28-0.52,0.65-0.95,1.11-1.28
		c0.46-0.33,0.98-0.58,1.57-0.75c0.59-0.17,1.2-0.31,1.81-0.42c0.66-0.13,1.28-0.23,1.87-0.3c0.59-0.07,1.11-0.16,1.56-0.28
		s0.8-0.3,1.07-0.53c0.26-0.23,0.39-0.58,0.39-1.03c0-0.52-0.1-0.95-0.29-1.26c-0.2-0.32-0.45-0.56-0.76-0.73
		c-0.31-0.17-0.66-0.28-1.04-0.34c-0.38-0.06-0.76-0.08-1.14-0.08c-1.01,0-1.86,0.19-2.53,0.58c-0.68,0.38-1.04,1.11-1.1,2.18h-2.39
		c0.04-0.9,0.23-1.66,0.56-2.28c0.34-0.62,0.79-1.12,1.35-1.5c0.56-0.38,1.2-0.66,1.92-0.83c0.72-0.17,1.49-0.25,2.32-0.25
		c0.66,0,1.31,0.05,1.95,0.14c0.65,0.09,1.23,0.29,1.76,0.57c0.52,0.29,0.95,0.7,1.26,1.22c0.32,0.52,0.48,1.21,0.48,2.05v7.46
		c0,0.56,0.03,0.97,0.1,1.23c0.07,0.26,0.29,0.39,0.66,0.39c0.21,0,0.45-0.04,0.73-0.11V148.06z M389.06,140.61
		c-0.3,0.22-0.69,0.39-1.18,0.49c-0.49,0.1-1,0.19-1.53,0.25c-0.53,0.07-1.07,0.14-1.62,0.22c-0.54,0.08-1.03,0.22-1.46,0.41
		c-0.43,0.19-0.78,0.45-1.05,0.8c-0.27,0.35-0.41,0.82-0.41,1.41c0,0.39,0.08,0.72,0.24,0.99c0.16,0.27,0.37,0.49,0.62,0.66
		c0.25,0.17,0.55,0.29,0.88,0.36s0.69,0.11,1.07,0.11c0.79,0,1.46-0.11,2.02-0.32c0.56-0.21,1.02-0.48,1.38-0.81
		c0.36-0.33,0.62-0.68,0.79-1.06c0.17-0.38,0.25-0.74,0.25-1.08V140.61z"/>
	<path class="st2" d="M397.04,133.59v3.06h0.06c0.58-1.18,1.29-2.05,2.14-2.61c0.84-0.56,1.91-0.82,3.2-0.79v2.53
		c-0.96,0-1.77,0.13-2.45,0.39c-0.67,0.26-1.22,0.65-1.63,1.15c-0.41,0.51-0.71,1.12-0.9,1.84c-0.19,0.72-0.28,1.55-0.28,2.49v6.46
		h-2.39v-14.53H397.04z"/>
	<path class="st2" d="M413.73,147.19c-1.09,0.82-2.45,1.24-4.1,1.24c-1.16,0-2.17-0.19-3.02-0.56c-0.85-0.37-1.57-0.9-2.15-1.57
		c-0.58-0.67-1.02-1.48-1.31-2.42c-0.29-0.94-0.45-1.96-0.49-3.06c0-1.11,0.17-2.12,0.5-3.03c0.34-0.92,0.81-1.71,1.42-2.39
		c0.61-0.67,1.33-1.2,2.16-1.57s1.75-0.56,2.74-0.56c1.29,0,2.36,0.27,3.22,0.8c0.85,0.53,1.54,1.21,2.05,2.04
		c0.51,0.82,0.87,1.72,1.07,2.7c0.2,0.97,0.28,1.9,0.24,2.78h-10.87c-0.02,0.64,0.06,1.24,0.23,1.81c0.17,0.57,0.44,1.08,0.81,1.52
		c0.38,0.44,0.85,0.79,1.43,1.05c0.58,0.26,1.27,0.39,2.05,0.39c1.01,0,1.84-0.23,2.49-0.7c0.65-0.47,1.07-1.18,1.28-2.14h2.36
		C415.52,145.13,414.82,146.36,413.73,147.19z M413.16,137.86c-0.22-0.5-0.51-0.94-0.87-1.31c-0.37-0.36-0.8-0.66-1.29-0.87
		c-0.5-0.21-1.05-0.32-1.64-0.32c-0.62,0-1.18,0.11-1.67,0.32c-0.5,0.21-0.92,0.51-1.28,0.88c-0.36,0.37-0.64,0.81-0.84,1.31
		c-0.21,0.5-0.33,1.02-0.37,1.59h8.35C413.5,138.9,413.37,138.36,413.16,137.86z"/>
	<path class="st2" d="M420.5,133.59v2.3h0.06c0.99-1.76,2.57-2.64,4.72-2.64c0.95,0,1.75,0.13,2.39,0.39
		c0.64,0.26,1.15,0.63,1.55,1.09c0.39,0.47,0.67,1.03,0.83,1.67c0.16,0.65,0.24,1.36,0.24,2.15v9.55h-2.39v-9.83
		c0-0.9-0.26-1.61-0.79-2.14c-0.52-0.52-1.25-0.79-2.16-0.79c-0.73,0-1.36,0.11-1.9,0.34c-0.53,0.23-0.98,0.54-1.33,0.96
		c-0.36,0.41-0.62,0.89-0.8,1.45c-0.18,0.55-0.27,1.16-0.27,1.81v8.2h-2.39v-14.53H420.5z"/>
	<path class="st2" d="M442.28,136.12c-0.6-0.51-1.4-0.76-2.42-0.76c-0.86,0-1.58,0.16-2.16,0.48c-0.58,0.32-1.04,0.74-1.39,1.27
		c-0.35,0.52-0.59,1.13-0.74,1.81c-0.15,0.68-0.23,1.39-0.23,2.12c0,0.68,0.08,1.33,0.24,1.97c0.16,0.64,0.41,1.2,0.75,1.7
		c0.34,0.5,0.78,0.89,1.32,1.19c0.54,0.3,1.19,0.45,1.94,0.45c1.18,0,2.1-0.31,2.77-0.93c0.66-0.62,1.07-1.49,1.22-2.61h2.45
		c-0.26,1.8-0.93,3.19-2.01,4.16c-1.08,0.97-2.54,1.46-4.4,1.46c-1.11,0-2.08-0.18-2.94-0.53c-0.85-0.36-1.56-0.86-2.14-1.52
		c-0.57-0.66-1-1.44-1.29-2.35c-0.29-0.91-0.43-1.91-0.43-2.99c0-1.09,0.14-2.1,0.42-3.05c0.28-0.95,0.71-1.77,1.28-2.47
		c0.57-0.7,1.29-1.25,2.15-1.66c0.86-0.4,1.86-0.61,3.01-0.61c0.82,0,1.6,0.1,2.32,0.3c0.72,0.2,1.36,0.5,1.91,0.91
		c0.55,0.41,1.01,0.93,1.36,1.56c0.36,0.63,0.58,1.37,0.67,2.23h-2.47C443.27,137.33,442.88,136.62,442.28,136.12z"/>
	<path class="st2" d="M454.11,150.05c-0.28,0.71-0.56,1.31-0.83,1.8c-0.27,0.49-0.57,0.89-0.9,1.2s-0.69,0.53-1.1,0.67
		c-0.4,0.14-0.87,0.21-1.39,0.21c-0.28,0-0.56-0.02-0.84-0.05c-0.28-0.04-0.55-0.1-0.82-0.2v-2.19c0.21,0.09,0.45,0.17,0.72,0.24
		c0.27,0.06,0.5,0.1,0.69,0.1c0.49,0,0.89-0.12,1.22-0.35c0.33-0.23,0.58-0.57,0.75-1l0.98-2.44l-5.76-14.44h2.7l4.24,11.88h0.06
		l4.07-11.88h2.53L454.11,150.05z"/>
	<path class="st2" d="M475.91,133.59v2.11h-2.89v9.02c0,0.28,0.02,0.51,0.07,0.67c0.05,0.17,0.14,0.3,0.27,0.39
		c0.13,0.09,0.31,0.16,0.55,0.18c0.23,0.03,0.54,0.04,0.91,0.04h1.1v2.11h-1.83c-0.62,0-1.15-0.04-1.59-0.13
		c-0.44-0.08-0.8-0.24-1.07-0.46c-0.27-0.23-0.47-0.54-0.6-0.96c-0.13-0.41-0.2-0.95-0.2-1.63v-9.24h-2.47v-2.11h2.47v-4.36h2.39
		v4.36H475.91z"/>
	<path class="st2" d="M477.93,137.87c0.3-0.93,0.75-1.73,1.35-2.42c0.6-0.68,1.34-1.22,2.22-1.61c0.88-0.39,1.89-0.59,3.03-0.59
		c1.16,0,2.18,0.2,3.05,0.59c0.87,0.39,1.61,0.93,2.21,1.61c0.6,0.68,1.05,1.49,1.35,2.42c0.3,0.93,0.45,1.92,0.45,2.99
		c0,1.07-0.15,2.06-0.45,2.98c-0.3,0.92-0.75,1.72-1.35,2.4c-0.6,0.68-1.34,1.22-2.21,1.6c-0.87,0.38-1.89,0.58-3.05,0.58
		c-1.14,0-2.15-0.19-3.03-0.58c-0.88-0.38-1.62-0.92-2.22-1.6c-0.6-0.68-1.05-1.48-1.35-2.4c-0.3-0.92-0.45-1.91-0.45-2.98
		C477.48,139.8,477.63,138.8,477.93,137.87z M480.36,143.21c0.23,0.68,0.56,1.25,0.97,1.71c0.41,0.46,0.89,0.81,1.45,1.05
		c0.55,0.24,1.14,0.37,1.76,0.37c0.62,0,1.2-0.12,1.76-0.37c0.55-0.24,1.04-0.59,1.45-1.05c0.41-0.46,0.73-1.03,0.97-1.71
		c0.23-0.68,0.35-1.47,0.35-2.35c0-0.88-0.12-1.66-0.35-2.35c-0.23-0.68-0.56-1.26-0.97-1.73c-0.41-0.47-0.89-0.82-1.45-1.07
		c-0.55-0.24-1.14-0.36-1.76-0.36c-0.62,0-1.2,0.12-1.76,0.36c-0.55,0.24-1.04,0.6-1.45,1.07c-0.41,0.47-0.74,1.04-0.97,1.73
		c-0.23,0.68-0.35,1.47-0.35,2.35C480.01,141.74,480.13,142.53,480.36,143.21z"/>
	<path class="st2" d="M504.85,128.05l10.56,16.27h0.06v-16.27H518v20.06h-2.92l-10.48-16.1h-0.06v16.1h-2.53v-20.06H504.85z"/>
	<path class="st2" d="M524.82,128.05v20.06h-2.67v-20.06H524.82z"/>
	<path class="st2" d="M532.3,128.05v3.12c0,0.56-0.06,1.09-0.18,1.59s-0.31,0.93-0.56,1.31s-0.57,0.67-0.95,0.9
		c-0.38,0.22-0.85,0.34-1.39,0.34v-1.41c0.32,0,0.58-0.08,0.79-0.24c0.21-0.16,0.38-0.37,0.51-0.63c0.13-0.26,0.22-0.56,0.27-0.89
		c0.05-0.33,0.07-0.65,0.07-0.97h-1.66v-3.12H532.3z"/>
	<path class="st2" d="M535.92,144.87c0.22,0.37,0.52,0.66,0.88,0.87c0.37,0.22,0.78,0.37,1.24,0.46c0.46,0.09,0.93,0.14,1.42,0.14
		c0.38,0,0.77-0.03,1.18-0.09c0.41-0.05,0.79-0.16,1.14-0.31c0.35-0.15,0.63-0.37,0.86-0.66c0.22-0.29,0.34-0.66,0.34-1.11
		c0-0.62-0.23-1.09-0.7-1.41c-0.47-0.32-1.05-0.58-1.76-0.77c-0.7-0.2-1.46-0.37-2.29-0.53c-0.82-0.16-1.59-0.38-2.29-0.68
		c-0.7-0.29-1.29-0.7-1.76-1.22s-0.7-1.25-0.7-2.19c0-0.73,0.16-1.36,0.49-1.88c0.33-0.52,0.75-0.95,1.26-1.28
		c0.52-0.33,1.1-0.57,1.74-0.73c0.65-0.16,1.29-0.24,1.93-0.24c0.82,0,1.58,0.07,2.28,0.21c0.69,0.14,1.31,0.38,1.84,0.73
		s0.96,0.81,1.28,1.41c0.32,0.59,0.51,1.32,0.56,2.2h-2.39c-0.04-0.47-0.16-0.86-0.36-1.16c-0.21-0.31-0.47-0.56-0.79-0.75
		c-0.32-0.19-0.67-0.32-1.05-0.41c-0.38-0.08-0.77-0.13-1.16-0.13c-0.36,0-0.72,0.03-1.08,0.08s-0.7,0.16-1,0.3
		c-0.3,0.14-0.54,0.33-0.73,0.56c-0.19,0.23-0.28,0.54-0.28,0.91c0,0.41,0.14,0.75,0.44,1.03c0.29,0.27,0.66,0.5,1.11,0.68
		c0.45,0.18,0.95,0.33,1.52,0.45c0.56,0.12,1.12,0.25,1.69,0.38c0.6,0.13,1.18,0.29,1.76,0.48c0.57,0.19,1.08,0.43,1.52,0.74
		c0.44,0.31,0.8,0.7,1.07,1.17c0.27,0.47,0.41,1.05,0.41,1.74c0,0.88-0.18,1.61-0.55,2.19c-0.37,0.58-0.84,1.05-1.43,1.41
		c-0.59,0.36-1.26,0.6-2,0.75c-0.74,0.14-1.48,0.21-2.21,0.21c-0.8,0-1.57-0.09-2.3-0.25c-0.73-0.17-1.38-0.45-1.94-0.83
		c-0.56-0.38-1.01-0.89-1.35-1.52c-0.34-0.63-0.52-1.39-0.56-2.29h2.39C535.58,144.06,535.7,144.5,535.92,144.87z"/>
	<path class="st2" d="M557.87,133.59v1.97h0.06c0.39-0.8,1.01-1.39,1.85-1.76c0.84-0.37,1.77-0.55,2.78-0.55
		c1.12,0,2.1,0.21,2.94,0.62s1.53,0.97,2.08,1.67c0.55,0.7,0.97,1.51,1.25,2.43c0.28,0.92,0.42,1.89,0.42,2.92
		c0,1.03-0.14,2-0.41,2.92c-0.27,0.92-0.68,1.72-1.24,2.4c-0.55,0.68-1.25,1.22-2.08,1.62c-0.83,0.39-1.8,0.59-2.91,0.59
		c-0.36,0-0.75-0.04-1.2-0.11c-0.44-0.07-0.88-0.2-1.31-0.37c-0.43-0.17-0.84-0.4-1.22-0.69c-0.38-0.29-0.71-0.65-0.97-1.08h-0.06
		v7.47h-2.39v-20.06H557.87z M566.45,138.74c-0.18-0.65-0.45-1.22-0.82-1.73c-0.37-0.5-0.83-0.91-1.4-1.21
		c-0.57-0.3-1.24-0.45-2.01-0.45c-0.81,0-1.49,0.16-2.05,0.48c-0.56,0.32-1.02,0.74-1.38,1.25c-0.36,0.52-0.61,1.1-0.77,1.76
		c-0.16,0.66-0.24,1.32-0.24,2c0,0.71,0.09,1.4,0.25,2.07c0.17,0.66,0.44,1.25,0.8,1.76c0.36,0.51,0.84,0.91,1.42,1.22
		c0.58,0.31,1.28,0.46,2.11,0.46c0.82,0,1.51-0.16,2.07-0.48c0.55-0.32,1-0.74,1.33-1.26c0.34-0.52,0.58-1.12,0.73-1.8
		c0.15-0.67,0.23-1.37,0.23-2.08C566.72,140.05,566.63,139.39,566.45,138.74z"/>
	<path class="st2" d="M581.55,148.11v-2.3h-0.06c-0.51,0.9-1.15,1.56-1.94,1.98c-0.79,0.42-1.71,0.63-2.78,0.63
		c-0.96,0-1.75-0.13-2.39-0.38c-0.64-0.25-1.15-0.61-1.55-1.08c-0.39-0.47-0.67-1.02-0.83-1.67c-0.16-0.65-0.24-1.36-0.24-2.15
		v-9.55h2.39v9.83c0,0.9,0.26,1.61,0.79,2.14c0.52,0.52,1.25,0.79,2.16,0.79c0.73,0,1.36-0.11,1.9-0.34
		c0.53-0.23,0.98-0.54,1.33-0.96c0.36-0.41,0.62-0.89,0.8-1.45c0.18-0.55,0.27-1.16,0.27-1.81v-8.2h2.39v14.53H581.55z"/>
	<path class="st2" d="M589.59,128.05v7.5h0.06c0.39-0.8,1.01-1.39,1.85-1.76c0.84-0.37,1.77-0.55,2.78-0.55
		c1.12,0,2.1,0.21,2.94,0.62s1.53,0.97,2.08,1.67c0.55,0.7,0.97,1.51,1.25,2.43c0.28,0.92,0.42,1.89,0.42,2.92
		c0,1.03-0.14,2-0.41,2.92c-0.27,0.92-0.68,1.72-1.24,2.4c-0.55,0.68-1.25,1.22-2.08,1.62c-0.83,0.39-1.8,0.59-2.91,0.59
		c-0.36,0-0.75-0.04-1.2-0.11c-0.44-0.07-0.88-0.2-1.31-0.37c-0.43-0.17-0.84-0.4-1.22-0.69c-0.38-0.29-0.71-0.65-0.97-1.08h-0.06
		v1.94h-2.39v-20.06H589.59z M598.17,138.74c-0.18-0.65-0.45-1.22-0.82-1.73c-0.37-0.5-0.83-0.91-1.4-1.21
		c-0.57-0.3-1.24-0.45-2.01-0.45c-0.81,0-1.49,0.16-2.05,0.48c-0.56,0.32-1.02,0.74-1.38,1.25c-0.36,0.52-0.61,1.1-0.77,1.76
		c-0.16,0.66-0.24,1.32-0.24,2c0,0.71,0.09,1.4,0.25,2.07c0.17,0.66,0.44,1.25,0.8,1.76c0.36,0.51,0.84,0.91,1.42,1.22
		c0.58,0.31,1.28,0.46,2.11,0.46c0.82,0,1.51-0.16,2.07-0.48c0.55-0.32,1-0.74,1.33-1.26c0.34-0.52,0.58-1.12,0.73-1.8
		c0.15-0.67,0.23-1.37,0.23-2.08C598.44,140.05,598.35,139.39,598.17,138.74z"/>
	<path class="st2" d="M606.02,128.05v20.06h-2.39v-20.06H606.02z"/>
	<path class="st2" d="M609.59,130.97v-2.92h2.39v2.92H609.59z M611.98,133.59v14.53h-2.39v-14.53H611.98z"/>
	<path class="st2" d="M624.09,136.12c-0.6-0.51-1.4-0.76-2.42-0.76c-0.86,0-1.58,0.16-2.16,0.48c-0.58,0.32-1.04,0.74-1.39,1.27
		c-0.35,0.52-0.59,1.13-0.74,1.81c-0.15,0.68-0.23,1.39-0.23,2.12c0,0.68,0.08,1.33,0.24,1.97c0.16,0.64,0.41,1.2,0.75,1.7
		c0.34,0.5,0.78,0.89,1.32,1.19c0.54,0.3,1.19,0.45,1.94,0.45c1.18,0,2.1-0.31,2.77-0.93c0.66-0.62,1.07-1.49,1.22-2.61h2.45
		c-0.26,1.8-0.93,3.19-2.01,4.16c-1.08,0.97-2.54,1.46-4.4,1.46c-1.11,0-2.08-0.18-2.94-0.53c-0.85-0.36-1.56-0.86-2.14-1.52
		c-0.57-0.66-1-1.44-1.29-2.35c-0.29-0.91-0.43-1.91-0.43-2.99c0-1.09,0.14-2.1,0.42-3.05c0.28-0.95,0.71-1.77,1.28-2.47
		c0.57-0.7,1.29-1.25,2.15-1.66c0.86-0.4,1.86-0.61,3.01-0.61c0.82,0,1.6,0.1,2.32,0.3c0.72,0.2,1.36,0.5,1.91,0.91
		c0.55,0.41,1.01,0.93,1.36,1.56c0.36,0.63,0.58,1.37,0.67,2.23h-2.47C625.08,137.33,624.69,136.62,624.09,136.12z"/>
	<path class="st2" d="M636.28,135.69v-2.11h2.45v-2.16c0-1.18,0.34-2.07,1.03-2.68c0.68-0.61,1.68-0.91,2.99-0.91
		c0.22,0,0.48,0.02,0.77,0.06c0.29,0.04,0.55,0.09,0.77,0.17v2.08c-0.21-0.07-0.43-0.13-0.67-0.16c-0.24-0.03-0.47-0.04-0.67-0.04
		c-0.58,0-1.03,0.11-1.35,0.34c-0.32,0.22-0.48,0.66-0.48,1.29v2.02h2.81v2.11h-2.81v12.42h-2.39v-12.42H636.28z"/>
	<path class="st2" d="M645.92,130.97v-2.92h2.39v2.92H645.92z M648.31,133.59v14.53h-2.39v-14.53H648.31z"/>
	<path class="st2" d="M653.98,133.59v2.3h0.06c0.99-1.76,2.57-2.64,4.72-2.64c0.95,0,1.75,0.13,2.39,0.39
		c0.64,0.26,1.15,0.63,1.55,1.09c0.39,0.47,0.67,1.03,0.83,1.67c0.16,0.65,0.24,1.36,0.24,2.15v9.55h-2.39v-9.83
		c0-0.9-0.26-1.61-0.79-2.14s-1.25-0.79-2.16-0.79c-0.73,0-1.36,0.11-1.9,0.34c-0.53,0.23-0.98,0.54-1.33,0.96
		c-0.36,0.41-0.62,0.89-0.8,1.45c-0.18,0.55-0.27,1.16-0.27,1.81v8.2h-2.39v-14.53H653.98z"/>
	<path class="st2" d="M679.94,148.06c-0.41,0.24-0.98,0.37-1.71,0.37c-0.62,0-1.11-0.17-1.48-0.52c-0.36-0.35-0.55-0.91-0.55-1.7
		c-0.66,0.79-1.42,1.35-2.29,1.7c-0.87,0.35-1.81,0.52-2.82,0.52c-0.66,0-1.28-0.07-1.87-0.23c-0.59-0.15-1.1-0.38-1.53-0.7
		c-0.43-0.32-0.77-0.73-1.03-1.25c-0.25-0.52-0.38-1.14-0.38-1.87c0-0.82,0.14-1.5,0.42-2.02c0.28-0.52,0.65-0.95,1.11-1.28
		c0.46-0.33,0.98-0.58,1.57-0.75c0.59-0.17,1.2-0.31,1.81-0.42c0.66-0.13,1.28-0.23,1.87-0.3c0.59-0.07,1.11-0.16,1.56-0.28
		c0.45-0.12,0.8-0.3,1.07-0.53c0.26-0.23,0.39-0.58,0.39-1.03c0-0.52-0.1-0.95-0.29-1.26c-0.2-0.32-0.45-0.56-0.76-0.73
		c-0.31-0.17-0.66-0.28-1.04-0.34c-0.38-0.06-0.76-0.08-1.14-0.08c-1.01,0-1.86,0.19-2.53,0.58c-0.68,0.38-1.04,1.11-1.1,2.18h-2.39
		c0.04-0.9,0.23-1.66,0.56-2.28c0.34-0.62,0.79-1.12,1.35-1.5c0.56-0.38,1.2-0.66,1.92-0.83c0.72-0.17,1.49-0.25,2.32-0.25
		c0.66,0,1.31,0.05,1.95,0.14c0.65,0.09,1.23,0.29,1.76,0.57c0.52,0.29,0.95,0.7,1.26,1.22c0.32,0.52,0.48,1.21,0.48,2.05v7.46
		c0,0.56,0.03,0.97,0.1,1.23c0.07,0.26,0.29,0.39,0.66,0.39c0.21,0,0.45-0.04,0.73-0.11V148.06z M676.07,140.61
		c-0.3,0.22-0.69,0.39-1.18,0.49c-0.49,0.1-1,0.19-1.53,0.25c-0.53,0.07-1.07,0.14-1.62,0.22c-0.54,0.08-1.03,0.22-1.46,0.41
		c-0.43,0.19-0.78,0.45-1.05,0.8c-0.27,0.35-0.41,0.82-0.41,1.41c0,0.39,0.08,0.72,0.24,0.99c0.16,0.27,0.37,0.49,0.62,0.66
		c0.25,0.17,0.55,0.29,0.88,0.36s0.69,0.11,1.07,0.11c0.79,0,1.46-0.11,2.02-0.32c0.56-0.21,1.02-0.48,1.38-0.81
		c0.36-0.33,0.62-0.68,0.79-1.06c0.17-0.38,0.25-0.74,0.25-1.08V140.61z"/>
	<path class="st2" d="M684.13,133.59v2.3h0.06c0.99-1.76,2.57-2.64,4.72-2.64c0.95,0,1.75,0.13,2.39,0.39
		c0.64,0.26,1.15,0.63,1.55,1.09c0.39,0.47,0.67,1.03,0.83,1.67c0.16,0.65,0.24,1.36,0.24,2.15v9.55h-2.39v-9.83
		c0-0.9-0.26-1.61-0.79-2.14s-1.25-0.79-2.16-0.79c-0.73,0-1.36,0.11-1.9,0.34c-0.53,0.23-0.98,0.54-1.33,0.96
		c-0.36,0.41-0.62,0.89-0.8,1.45c-0.18,0.55-0.27,1.16-0.27,1.81v8.2h-2.39v-14.53H684.13z"/>
	<path class="st2" d="M705.9,136.12c-0.6-0.51-1.4-0.76-2.42-0.76c-0.86,0-1.58,0.16-2.16,0.48c-0.58,0.32-1.04,0.74-1.39,1.27
		c-0.35,0.52-0.59,1.13-0.74,1.81c-0.15,0.68-0.23,1.39-0.23,2.12c0,0.68,0.08,1.33,0.24,1.97c0.16,0.64,0.41,1.2,0.75,1.7
		c0.34,0.5,0.78,0.89,1.32,1.19c0.54,0.3,1.19,0.45,1.94,0.45c1.18,0,2.1-0.31,2.77-0.93c0.66-0.62,1.07-1.49,1.22-2.61h2.45
		c-0.26,1.8-0.93,3.19-2.01,4.16c-1.08,0.97-2.54,1.46-4.4,1.46c-1.11,0-2.08-0.18-2.94-0.53c-0.85-0.36-1.56-0.86-2.14-1.52
		c-0.57-0.66-1-1.44-1.29-2.35c-0.29-0.91-0.43-1.91-0.43-2.99c0-1.09,0.14-2.1,0.42-3.05c0.28-0.95,0.71-1.77,1.28-2.47
		c0.57-0.7,1.29-1.25,2.15-1.66c0.86-0.4,1.86-0.61,3.01-0.61c0.82,0,1.6,0.1,2.32,0.3c0.72,0.2,1.36,0.5,1.91,0.91
		c0.55,0.41,1.01,0.93,1.36,1.56c0.36,0.63,0.58,1.37,0.67,2.23h-2.47C706.89,137.33,706.5,136.62,705.9,136.12z"/>
	<path class="st2" d="M722.31,147.19c-1.09,0.82-2.45,1.24-4.1,1.24c-1.16,0-2.17-0.19-3.02-0.56s-1.57-0.9-2.15-1.57
		c-0.58-0.67-1.02-1.48-1.31-2.42c-0.29-0.94-0.45-1.96-0.49-3.06c0-1.11,0.17-2.12,0.5-3.03c0.34-0.92,0.81-1.71,1.42-2.39
		c0.61-0.67,1.33-1.2,2.16-1.57s1.75-0.56,2.74-0.56c1.29,0,2.36,0.27,3.22,0.8c0.85,0.53,1.54,1.21,2.05,2.04
		c0.51,0.82,0.87,1.72,1.07,2.7c0.2,0.97,0.28,1.9,0.24,2.78h-10.87c-0.02,0.64,0.06,1.24,0.23,1.81c0.17,0.57,0.44,1.08,0.81,1.52
		c0.38,0.44,0.85,0.79,1.43,1.05c0.58,0.26,1.27,0.39,2.05,0.39c1.01,0,1.84-0.23,2.49-0.7s1.07-1.18,1.28-2.14h2.36
		C724.1,145.13,723.4,146.36,722.31,147.19z M721.73,137.86c-0.22-0.5-0.51-0.94-0.87-1.31c-0.37-0.36-0.8-0.66-1.29-0.87
		c-0.5-0.21-1.05-0.32-1.64-0.32c-0.62,0-1.18,0.11-1.67,0.32c-0.5,0.21-0.92,0.51-1.28,0.88c-0.36,0.37-0.64,0.81-0.84,1.31
		c-0.21,0.5-0.33,1.02-0.37,1.59h8.35C722.08,138.9,721.95,138.36,721.73,137.86z"/>
	<path class="st2" d="M728.66,144.87c0.22,0.37,0.52,0.66,0.88,0.87c0.37,0.22,0.78,0.37,1.24,0.46c0.46,0.09,0.93,0.14,1.42,0.14
		c0.37,0,0.77-0.03,1.18-0.09c0.41-0.05,0.79-0.16,1.14-0.31c0.35-0.15,0.63-0.37,0.86-0.66c0.22-0.29,0.34-0.66,0.34-1.11
		c0-0.62-0.23-1.09-0.7-1.41s-1.05-0.58-1.76-0.77c-0.7-0.2-1.46-0.37-2.29-0.53c-0.82-0.16-1.59-0.38-2.29-0.68
		c-0.7-0.29-1.29-0.7-1.76-1.22c-0.47-0.52-0.7-1.25-0.7-2.19c0-0.73,0.16-1.36,0.49-1.88c0.33-0.52,0.75-0.95,1.26-1.28
		c0.52-0.33,1.1-0.57,1.74-0.73c0.65-0.16,1.29-0.24,1.93-0.24c0.82,0,1.58,0.07,2.28,0.21c0.69,0.14,1.31,0.38,1.84,0.73
		c0.53,0.35,0.96,0.81,1.28,1.41c0.32,0.59,0.51,1.32,0.56,2.2h-2.39c-0.04-0.47-0.16-0.86-0.36-1.16
		c-0.21-0.31-0.47-0.56-0.79-0.75c-0.32-0.19-0.67-0.32-1.05-0.41c-0.38-0.08-0.77-0.13-1.16-0.13c-0.36,0-0.72,0.03-1.08,0.08
		s-0.7,0.16-1,0.3c-0.3,0.14-0.54,0.33-0.73,0.56c-0.19,0.23-0.28,0.54-0.28,0.91c0,0.41,0.14,0.75,0.44,1.03
		c0.29,0.27,0.66,0.5,1.11,0.68c0.45,0.18,0.95,0.33,1.52,0.45c0.56,0.12,1.12,0.25,1.69,0.38c0.6,0.13,1.18,0.29,1.76,0.48
		c0.57,0.19,1.08,0.43,1.52,0.74c0.44,0.31,0.8,0.7,1.07,1.17c0.27,0.47,0.41,1.05,0.41,1.74c0,0.88-0.18,1.61-0.55,2.19
		c-0.37,0.58-0.84,1.05-1.43,1.41c-0.59,0.36-1.26,0.6-2,0.75c-0.74,0.14-1.48,0.21-2.21,0.21c-0.8,0-1.57-0.09-2.3-0.25
		c-0.73-0.17-1.38-0.45-1.94-0.83c-0.56-0.38-1.01-0.89-1.35-1.52c-0.34-0.63-0.52-1.39-0.56-2.29h2.39
		C728.31,144.06,728.44,144.5,728.66,144.87z"/>
</g>
</svg>
