<svg id="Layer_1" data-name="Layer 1" xmlns="http://www.w3.org/2000/svg" viewBox="0 0 250 250"><defs><style>.cls-1{fill:#582a5b;fill-rule:evenodd;}</style></defs><path class="cls-1" d="M106,105.42c.48-1.54-1.22-1.46-1.56,0Zm19.3,5.53v31.43h27.6V110.87c0-.87-.16-1.66-1.66-1.66C148.38,110.05,124.42,107.16,125.31,111Zm26.83,30.51H126.05V110.13h26.09Zm-50.93-31.31c.52.16.48.59.34.95S101,110.69,101.21,110.15Zm1.11,1.23c.21-.33.52-.59.93-.2A.68.68,0,0,1,102.32,111.38Zm16.85,74.06-6.79-1.35.34-2.56c-3.24-3-6.8-.67-2.27,0-3.35,2.91-5.12-1.54-3.08-3.28-2.51-3.61-6-1.13-2.62.56-1.5,1.31-5.21-3.17-1.16-4.78-.88-4.23-4.93-1.67-2.26,0-2.27,1.22-4.4-3.92,0-5.58-1.38-2.87-3.81-4.18-3.35-.31-3.47-4.23,0-6.45,2-5.48-.2-4.45-3.24-5.12-3.51-2.15-2.26-4.61,1-6.14,4-3.56.59-4.15-.92-7.42-2.53-5.89,2.26,3.31-3.56,3.66-2.27-.36,1.59-5.12,5.26-.3,11.32-.3,3.24,0,13.39-6.15,13.39,2.56l.65,29.46ZM99.42,149.35c1.59,1.05,2.9,4.27,2.09,10,0,0-1.59-2.79-3.31-2.35a10.33,10.33,0,0,1,3.47,8,2.68,2.68,0,0,0-2.58-1.12s4.07,3.61,4.16,6.53c0,0-1.42-1.52-2.67-.44a7,7,0,0,1,4.94,4.45.69.69,0,0,0-.89.39,8.12,8.12,0,0,1,4.28,3.22s-1.7,1.18-.77.75a5.36,5.36,0,0,1,2.58,0c-12.38-12.34-6-21.2-8.44-27.7,5.09,4.84,14.51-4.48,16.19,1.41.38,1.38,1.36,1.28,1.31-.31-1.61-8.94-13,2.81-20.36-2.84Zm19,34.3c1.51-33.1,1.54-41.34-4.53-1ZM103.91,155c-.86,8.11.45,18.91,9.39,23.32Zm1.13,0c.88,1.17,8.31,23,8.74,19.58-.68-.72-8.47-23.53-8.65-19.66Zm1.45-.47c.59,1.57,6.79,17.05,7.18,17.62,2.42,1.64-6.8-17.92-6.5-17.92-.41-.9-1-.67-.68.23Zm1.49-.23c.8,1.08,6.64,18.9,7.11,15.13-.68-.71-6.7-19.27-7.11-15.2Zm1.57-.23c.74,1.1,5.54,16,5.91,12.29-.62-.77-5.62-16.38-5.8-12.36Zm1.35-.66c.73,1.18,4.76,13.9,5.12,10.24-.61-.74-4.84-14.21-5.12-10.32Zm1.2-.62c.68,1.23,4,11.63,4.26,8.22-.56-.92-4-12-4.26-8.29Zm1.48,0c.27.64,2.26,5.33,2.46,5.69,1.66,2.56,2-6.15.75-6.61-1.27-1.25-3.67-.66-3.21.77ZM27.38,55.53,26,54.32V51.76l-3.72-6s-2.08.38-1.58-2.33a2,2,0,0,1-1-2.84,1.77,1.77,0,0,1,0-2.79s-1.52-2.92,1.75-3.2c0,0,0-3.15,2.53-1.77a1.74,1.74,0,0,1,2.38-1.07,1.92,1.92,0,0,1,.5.36,1.33,1.33,0,0,1,2-.52,1.54,1.54,0,0,1,.46.52,1.25,1.25,0,0,1,1.84-.48,1.31,1.31,0,0,1,.42.48A1,1,0,0,1,33,31.63h0L30.77,23.3l6-2.36,2.67,7.5c.29-.89,1.47-.51,1.47-.51a1.61,1.61,0,0,1,1.75-1.53,1.26,1.26,0,0,1,.33.1,1.84,1.84,0,0,1,2.43-1.64c.68-1.92,3.08-1,3.08-1,1.26-1.67,2.78.15,2.78.15a1.77,1.77,0,0,1,2.2,1.41,2.73,2.73,0,0,1,.07.64c2,.28,1.22,2.43,1.22,2.43a2.09,2.09,0,0,1,.69,2.64,1.63,1.63,0,0,1-.24.38c1.65,2.05-.29,2.92-.29,2.92l.18,8.07L56.24,44l-.67,1.64c7.58-2.56,4.89,2.81,6.31,5.4,1.68.23,5.75,5.68,7.43,4.68-1.59,2.56-3.44,1.92-3.44,1.92A14.87,14.87,0,0,0,72,64.72c-1.38,1.56-4.31,0-4.31,0,2.27,5.37,8.11,7.11,8.36,10a6.42,6.42,0,0,0-5-1.56c3.51,4.35,7.11,4.53,5.36,10.67a4.09,4.09,0,0,1,2.13,3.41c-.63-1.36-2.89-1.08-2.89-1.08.56,3.25,5.47,2.13,4.25,8.61,1.22,1.1.66,3.58,3,2.27l5.79-6.35c-1.92-2.56,1.39-5.12,1.39-5.12l-3.45-3,1.77-4.63-5.5-20.87c-4.37,1-4.53-6.19-2-7.09-4.39,1.59-5.36-6.19-2.26-6.86-4.3.92-6.14-9.37.61-8.86C74.06,32.9,77.46,22,82.92,27c-3.29-3.68,2.56-10.24,5.59-5.12-1.06-3.61,5.93-7.24,7.07-.84-.55-3.59,6.45-6.25,7.11,0,.61-2.74,7.17-1.82,6.65,2.43.25-1.46,5-1.25,5.16.18.46-5.58,5.44-5.48,5.67-11.78a4.2,4.2,0,0,0-4.53,3.33c-.23.87-.86.8-.86-.13V2.84c0-.92.86-.92.86,0s1,3.56,4.53,3.56a5.09,5.09,0,0,0-3.36-5.12C116,1,116,0,116.81,0h12.55c.84,0,.84,1,0,1.28A5.08,5.08,0,0,0,126,6.4c3.58,0,4.53-2.56,4.53-3.56s.86-1,.86,0V14.92c0,.93-.66,1-.86.13A4.22,4.22,0,0,0,126,11.72c.22,6.3,5.18,6.2,5.66,11.78.2-1.43,4.91-1.61,5.16-.18-.54-4.25,6-5.12,6.66-2.43.65-6.14,7.65-3.46,7.11,0,1.11-6.43,8.13-2.77,7,.84,3-5,8.88,1.46,5.59,5.12,5.48-5.12,8.88,5.87,3.69,7.22,6.8-.51,4.89,9.78.59,8.86,3.06.67,2.09,8.45-2.26,6.86,2.6.92,2.26,8.12-2,7.09l-5.39,21.05,1.65,4.53-3.32,3.14s3.64,4.05.15,6.51a72.48,72.48,0,0,0,15.51,7.45c.91-2.28,2.27-1.9,2.27-1.9l2.26-4.2c-2.4-3.94,2-6.47,2-6.47-1.06-6.1,3.38-6,4.83-9.27-4.76,2.36-10.33,10-9.72-.56-6.09-7.27,10.33-17.15,10.73-22.68-3.87.74-7.72-3.9-9.05,4,0,0-2.09-5.76,5.36-8.4a6,6,0,0,0-5.41,1.21s-.18-2.56,3.51-3.69a2.84,2.84,0,0,0-4.35-.12,3.72,3.72,0,0,0-.61.91c1.29-9.34,6.8-2,10.26-3.43a4.55,4.55,0,0,0-4.17-2c3.15-4.79,9.6,3.89,8.83-2.56-.43-1.07-17.93-35.84-18.27-36.66-.45-6.86,23.69,33.74,26.36,34a4.28,4.28,0,0,1,4,.29c3.4-11.19,1.9,10.24,10.3-.57,5.1-5.83,1.47,4.69,2.27,6.33A9,9,0,0,1,221,46.1s-1.72-.33-2,.62c0,0,5.37.36,7.54,4.35,0,0-2.85-1-3.12,0,4.23,1,3.69,2.56,5.86,3.28a3.09,3.09,0,0,1-2.26.31c3.91,4.19,6.43,1.45,7.76,5.58-3.3-2.28-3.67,1-6.47.12.49,3,5.72,1.8,6.79,5.12a7.52,7.52,0,0,0-6.09,1c2.26,3.12,6.22.62,7.56,4.22-4-1.51-4,1.87-5.77,1.21,1.56,1.79,6.07.51,5.11,7.5-3.35-4-3.75-1.43-7.31-2.25.18,2.1,5.59,1.17,4.53,7.52,0,0-1.52-3.63-4.12-2A5.81,5.81,0,0,1,231,90c-.05.1-.1.21-.16.31s0-4.15-2.85-3.23c0,0,2.69,1.82.77,5.91,0,0-.66-3.09-2.43-3.09,0,0,1.86,3.4.41,5.78,0,0,.27-3.33-2.26-3.2a5.28,5.28,0,0,1-3,6.42,4.06,4.06,0,0,1-1.19.24c2.72-1.59,3-4.1.36-5.12l-3.8,6.14v2.31l-1.22.74v1.61l-.93.59c.79,7.29-1.83,9.73.79,17.07,0,0,1.32-.74,4,4.61,1.9-1,6.43,9.17,3.8,10.45.25,5.35,3,2.2,1.84,11.85,6.29,3.79,5.23,19.28,13.11,19.28,2.67,0,10-4.07,2.08-16s-9.24-11.58-10.87-22.48c-14.19-11-.79-26.44-11-24.37,0,0,2.77-4.53,6.8,1.48,0,0,2.76-6.68-2.63-4.89,0,0-.45-5.27,4.8-4.09a2.58,2.58,0,0,1,2.75-2.49,2.42,2.42,0,0,1,.53.13c-.34-2.38,4.8-5.6,5.37-1.71,0,0,4-5.33,7.15.59,0,0-7.49,0-3.1,9.26,0,0,1.72-2.81,2.7-2.43,0,0-1.7,2.95-1,4.58,7.35,12.06-14.59,19.66-4.53,33.13-.91-11.7,5-7.68,5-15.18,0,0-.32-2-1.5-2,9.24,1.38-.88,10,.91,16.82,1.06-5.84,4.19-3.81,3-9.16,6.66,3.35-3.17,10.8-.23,14.79.25-4.68,2.4-4.91,2.49-6.55,0,0,2.86,1.2-.45,8.29a2.78,2.78,0,0,0,.63,3c-.31-3.79,2.27-3.4,1.73-6.4,3,3.3-.82,6.68,0,11.06,4.86,15.82-8.93,30.13-19.82,16.84.52,5.51-2.44,9.3-.7,14.37,2.65,7.68,6.3,4.58,8,7.32.65,1-.95,17.23-.77,19.63s2.53,8.07,1.29,11.42c-2.4-3.51.72,3.46-2.27,6.3l-.65-1.54c1.72,17.1-40.92,17.05-45.11,17.46a74.77,74.77,0,0,1-49-.72l-8.76-.43c-.73,7.17-15.13,6.81-15.85,0-11.73,1.33-35.6,10.24-52.78.69-4-.82-46.26,3.86-46.06-16.62-1.51-1-.92-4.6-.92-4.6-9.06-15.36,9.51-15.8,6.27-46.39-15,7.6-20.56-5.2-20.13-11.49A17.27,17.27,0,0,0,0,157.44a4.15,4.15,0,0,1,2.26,1.12c1.57-10.24-1.81-11.9-1.81-11.9a8.21,8.21,0,0,1,4.85,6.76c3.71-10.8-2.92-12.21-2.95-12.19,4.69-1.58,6.8,5.56,6.8,5.56,2-12.57-3.72-11.85-3.72-11.85,6.8-1.16,6.8,8.47,6.8,8.47,4.82-12.16-2.2-13.57-2.2-13.57,4.85-2.56,6.5,6.2,6.5,6.2,2.6-6.38-3.76-11-3.76-11a6.21,6.21,0,0,1,5.53,3s-.48-3.35-2.11-4.3c-17.44-9.4,1.13-23.91-9.78-27.09a3.82,3.82,0,0,1,5.71-1.14l.36.32c-1-4.35,2.83-7.68,2.83-7.68C13.86,93.62,16.42,95,16.42,95a7.24,7.24,0,0,1,1.26-4.32,8,8,0,0,0,2.9,6.07,2.23,2.23,0,0,1,.59-2c2.79,11,12.14,19.33,2.49,28.7,5.3,24.85-23,30.31-13.13,47,6.79,5.71,10.17-9.73,16.42-15.82,8.83-20.48,5.43-44.19,5.43-44.19-3.1-4.27,0-7.68-2.26-9.19a2.76,2.76,0,0,1-1.93,2s1-3.79.18-4.89a13,13,0,0,1-1.15-4.53c-1.32,4.07-2.58,3.25-2.58,3.25a6.36,6.36,0,0,0,.81-4.33c-.23-3,2.74-6.75,1.7-8.52-2.27.69-.84,4.35-2.45,5.78.28-3.5-1.06-3.27-1.06-6.19s2.76-5.43,1.92-6.76-2.26,2.79-2.26,2.79a5.33,5.33,0,0,1,0-4.22,5.61,5.61,0,0,0,1-4.53,2.23,2.23,0,0,1-1.72,1.1c.89-2.84-.56-4.25,2.27-8.94-3.47-7.88,2.56-7.88,2.56-7.88Zm150.32,176c6.5-4.5,15.24-3.27,12.91,6.84,0,2.56-6.64,4.89-9.2,5.76l-.22-.8c2.87-.33-1.45-8.26-1.34-9.75-.43-1.43-.77-1.69-1.92-1.25Zm6.48,8.94c.38,1.35.59,1.48,1.74,1,6.66-2.9,1.13-14.88-4.53-10.5Zm12.27-5.12c.5,1.25,1.29,1.07,2.26.48l.34.72-5,2.66-.33-.74c3.07-.67-2.59-8-2.59-9.5-.43-1.1-1.15-1.28-2.08-.61l-.34-.72c2.27-1.59,6.09-4.84,8.38-3.68a3.89,3.89,0,0,1,.84,6c2,.54,4.14,3.63,6.52,2.56l.34.72c-3.51,3-5.57.18-8.72-1.39l-1.09.67Zm-1.7-3.82a3.2,3.2,0,0,0,2.1-3.81,2.82,2.82,0,0,0-3.37-2.37,2.59,2.59,0,0,0-1.26.76Zm7.34-12.8c5.23-5.71,13.58,4.82,7.81,10.24-5.77,6.2-13.41-5-7.81-10.06Zm7.54,9.37c3.44-3.53-4.33-11.82-7.29-8.45-3.72,3.72,4.68,12.22,7.29,8.63Zm-68.16,3c0,1.72-3.82,9.4-1.06,9.83l-.16.82-3.42-.74.16-.82c1.22.31,1.36-.15,1.79-1.87-.14-1.38,3.55-9.06,1.22-9.42l.18-.82,3.26.87,1.18,9.65,4.76-8.06,3.3,1-.16.82c-1.13-.23-1.22-.23-1.45,1.31.23,1.69-2.92,10-.31,10.24l-.18.82-4.9-1.31.19-.82c2.76,1.56,2.26-8,3.12-9.55l-5.68,9.73h-.39Zm17,.64c7.45.34,6.48,14.72-1.18,13.88s-6.16-14.72,1.18-13.7Zm-.75,13c4.76.33,4.64-12.06.32-12.11-5-.44-4.55,12.62-.32,12.29Zm8.92-1.62c0,1.31.39,1.72,1.68,1.64v.85l-3.87.25V245c2.69.54.2-10.11.68-11.37a1.72,1.72,0,0,0-1.29-.38v-.85l3.3-.25,7,8.75c-.59-1.58.86-9.26-2.26-8.24v-.84l4.12-.31v.84c-3-1-.3,11.6-.77,12.8h-.86L166.15,235ZM206.55,215l3.06-3.92.49.51c-2.26,1.69,4.53,5.94,5.14,7.15a1,1,0,0,0,1.49.29,1.19,1.19,0,0,0,.35-.47l.5.51-3,3.81-.5-.51c2-1.61-4.73-5.91-5.18-7.06-.73-.75-1.27-.67-1.81,0Zm-83.94-24V145.48H94.26l-.77,1.82a7.72,7.72,0,0,1,1,5.71s-1.54-3.12-3.17-.41C92.65,181.78,102.87,185.44,122.61,190.92Zm-94,44.44a13.65,13.65,0,0,1,.77,5.12S32.42,238.64,28.58,235.36Zm6.56-2.79c-.25,1.15.52,5.12,2.27,5.38a4.14,4.14,0,0,0-1.76-5.17A2.87,2.87,0,0,0,35.14,232.57Zm.45-4.63a3.7,3.7,0,0,0,2.27,3.61A3.52,3.52,0,0,0,35.59,227.94Zm-9.85-8.3,5-7.06,2.52-10.24C22.62,210.43,25.74,219.64,25.74,219.64Zm38.84-37.35c-.91,10.53-3.49,13.09-2.49,17.49A47.57,47.57,0,0,1,75.31,210s4.66-1.69,5.75,5.37a22.94,22.94,0,0,0,15.49,6.51S86,214.22,83.14,206.54c0,0,13.91,9.21,23.06,5.94C80.9,201.57,80.47,186.8,64.58,182.29Zm102.91,11.37c2.81-4.91,12-13.41,16-13.93-6.52-16-2.08-26.72,9.06-30.2-9.06-11.09-8.88-19.92-14.86-22.68,7.16,21.37,3.17,45.47-10.34,62.46ZM77.35,187.8c-9.67-11.91-12.5-28.16-13.34-44.24a15.28,15.28,0,0,0-1,6.84A5.92,5.92,0,0,1,60.71,147s-1.14,5.12,0,7.68a6.51,6.51,0,0,1-2.9-3.74,12.93,12.93,0,0,0-.23,6.45,4.66,4.66,0,0,1-2.26-4.2c-3.17,6.63,8.85,5.12,9.51,27.11A24.16,24.16,0,0,1,77.35,187.8Zm106.69-6c-20.85,10-10.41,16.44-36.36,30.95,0,0,2.85,2,18.11-4.73,0,0-12,12.39-13,14.9,20.52-5.84,25.39-17.44,30.46-22.15S189.5,190.56,184,181.83ZM43.11,205.59a10.13,10.13,0,0,1,6.34-6.45A22.07,22.07,0,0,0,44.38,185c-6.2,8-15.8,26.49-11.71,36.32,7.48,17.49,47.55,35.46,74.16,22.33,5.8-.67,3.42-16.18,3.62-17.92,1.11-5.89-14.2-3.18-6.54-8-4.39,4.17,7.36.79,7.36,6.86l.27,6.68h2.76V214.47c-2.26.16-16.64.62-14,10.47,0,3.89,11.11-.82,4.75-2.38,4.53-.3,6.79,3.1-4,5.69A53.37,53.37,0,0,1,59,223.13c-18.47-10.91-23.77-24.43-18.7-31C40.37,192.23,38.22,201.19,43.11,205.59ZM221.18,214l-1.11,1.64-.55-.46c2.58-2.15-5.73-6.3-6.38-7.68-.91,1.64-2.43,2.3-.3,4.3l-.36.54-2.42-2.41.27-.41a25.27,25.27,0,0,0,4.89-7.45l.27-.41,2.74,1.92-.36.54c-2.26-1.71-2.45,0-3.56,1.59.48.33,6.8,5.81,7.14,5.73,1.49-2.56-6.07-30.72-12.89-21.89a12.28,12.28,0,0,1-1.94,9.84,6.36,6.36,0,0,0,4.32,2.56c2.92-4.41,1.25-11.32,1.25-11.32,8.26,6.07-12.28,50.25-67.32,37.4-10.78-2.56-8.63-6-4-5.68-6.36,1.56,4.76,6.27,4.76,2.38,2.65-9.83-11.87-10.24-14-10.47v16.66h2.76l.21-6.47c0-6.07,11.75-2.56,7.36-6.86,7.65,4.86-7.68,2.17-6.57,8,.29,1.75-2.27,17.46,3.62,17.92,27.78,11.58,77.67-2.17,82.2-29.54Zm-105-.74c.92,3.89-2.52,25.93,2.76,26.47,5.61,0-.21-8.88.29-2.71-3.6-1.13-2.1-7.32,1.56-4.36-1-2.22-.9-3.68,2.27-7.21,3.17,3.53,3.26,5.12,2.26,7.21,3.67-3,5.17,3.23,1.57,4.36.49-6.17-5.33,2.71.29,2.71,5.25-.46,1.83-22.68,2.76-26.47Zm13.76,29.06c-1,4.45-12.93,4.42-13.88,0C114.19,249.9,131.67,249.88,129.9,242.33Zm-89.39-33c7,4.18,10.82,13.8,1.74,17.13-2.26,1.38-7.43-4.12-9.44-6.22l.5-.69c1.81,2.79,5.61-6.17,6.79-6.86.88-1.26.88-1.74,0-2.56Zm-3.31,11.7c-.81,1.18-.81,1.44.16,2.38,6,5.12,12-7.29,5.64-10.57ZM50.09,219l4.32,3.23-.43.72c-2-2.56-5.21,6.88-6.34,7.68a1.46,1.46,0,0,0,.48,2.3l-.43.72-4.31-3.25.41-.72c2,2.3,5.19-7,6.25-7.68.66-1,.48-1.72-.36-2.25Zm11.48,8.78L58.35,226l-1.9,4.48c1.15.36,3.37,2.82,4.07.46l.59.31-1.67,4-.59-.33C60.09,233,57,232.32,56,231.57c0,.77-2.53,4.48-1.42,4.92,1.72.64,3.51,3,5,.2l.57.31-1.5,3-8.85-4.79.34-.79c.9.62,1.88.92,2.26-.46,0-1.64,5.66-9.42,2.56-10.24l.34-.77,8.08,4.38-1.06,3-.57-.31c.39-1.38.39-1.92-.24-2.28Zm10.84,3.05,4.08,1.46-.23.82c-4.32-1.1-1.76,13.67-9.55,10.65-8.43-2.56,1.4-12.8-2.47-14.9l.25-.85,4.93,1.77-.22.82c-2.27-1.54-2.83,6.22-3.58,7.35A3.43,3.43,0,0,0,67,242.22a2.41,2.41,0,0,0,.5.21c4.07,1.69,4.64-5.12,5.64-8,.49-1.69.2-2.56-1-2.76Zm16.94,2.56-3.65.15.18,5.12c1.18-.28,4.24.72,3.88-1.79h.65l.16,4.48h-.66c.3-2.38-2.76-1.3-4-1.43.27.74-.39,5.43.79,5.12,1.83-.33,4.53.87,4.53-2.56h.63V246l-10,.43v-.89c1.08,0,2.08-.18,1.92-1.69-.63-1.51,1.13-11.55-2-10.58v-.89l9.06-.39.27,3.25h-.63c-.28-1.48-.52-2-1.25-1.94ZM100,241.76c.13,1.38.9,1.62,2,1.26l.16.84-5.77,1.26-.14-.8c3.6.44-.54-10.24-.2-11.93-1.88.59-3.6-.18-3.19,3.36l-.66.15-.41-4.38h.52a23,23,0,0,0,9.17-2h.52l1,4-.66.13c-.77-3.43-2.15-2-4-1.76Zm3.8-175.92c-3.12-12.54-12.27-7.68-7.09-.59,1.34-5,5.3-2.4,6.28.9ZM106.1,65c.48-6.19,5.12-6.24,5.8-2.56,4.3-8.47-8.54-10.85-6.57,2.82Zm-1.54,1.56c-4.52,1.18-4.07,3.51.5,2.26s4-3.66-.54-2.33Zm1.36,8.94c-6,1.15-5.11,6.81.89,5.55s5.11-6.91-.93-5.65ZM123,80.59l-3.76-4.25L123,72.11l3.76,4.23Zm0,.92a119.6,119.6,0,0,1,30.25,3.84l-1.54-5.74,4.15-2.43,5-19.27-5.3-7.56-.11,1.57c3.3,4.3,2,11,2,11-5.25.18-3.39-7-3.39-7l-.75-.71-3.94,14.36.88.13c2.63-5.3,6.48-2.79,5.75-.69-2.64,8.42-11.63,9.62-13.72,1l-3-.56c-6.79,10.24-14.58.87-14.35-7.07,6.09,0,6.13,5.48,6.13,5.48h1.2v-15h-1.13c0,5.74-6.14,5-6.14,5-.37-3.8,2-7.22,5.4-7.64a2.92,2.92,0,0,1,.51,0V49H115.09v1.18c3.38.1,6,3.28,6,7.09,0,.2,0,.39,0,.59,0,0-6.16.74-6.16-5h-1.1v15h1.1s0-5.48,6.16-5.48c.21,8-7.63,17.34-14.35,7.07l-3,.56c-2.11,8.66-11.1,7.43-13.73-1-.72-2.1,3.13-4.61,5.76.69l.88-.13L92.61,55.17l-.75.71s1.84,7.2-3.39,7c0,0-1.29-6.68,2-11l-.11-1.57-5.3,7.56,5,19.27,4.12,2.43-1.51,5.74A122,122,0,0,1,123,81.41Zm18.75-15.8c2.9-8.26,7.09-11.93,3.51-19.58-6.09,5.27-3.65,10.47-4.08,19.33Zm1.22.46c1-3.3,4.92-5.86,6.27-.89,5.17-7.07-4-12-7.08.59Zm-2.26-.89c2-13.67-10.85-11.29-6.55-2.82.66-3.71,5.3-3.66,5.8,2.56Zm-3,1.46c-.45,1.41,6.79,3.38,7.06,1.89s-7-3.5-7.13-2Zm2.33,8.63c6,1.15,5.12,6.8-.86,5.55S134.11,74.11,140.09,75.37ZM92,23.91a2.64,2.64,0,0,0,1.44-3.23A2.42,2.42,0,0,0,92,19.05a2.64,2.64,0,0,0-1.45,3.23A2.43,2.43,0,0,0,92,23.91Zm-6.52,2.56A2.63,2.63,0,0,0,87,23.27a2.43,2.43,0,0,0-1.49-1.69,2.59,2.59,0,0,0-1.71,3.07,2.45,2.45,0,0,0,1.71,1.92Zm20.15-.87a2.35,2.35,0,0,0,1.9-2.64,2.05,2.05,0,1,0-4.06.3,2.31,2.31,0,0,0,2.16,2.44Zm-6.54-2.18a2.27,2.27,0,0,0,2.12-2.4,2.28,2.28,0,0,0-2.12-2.41,2.33,2.33,0,0,0-2.18,2.46,2.33,2.33,0,0,0,2.18,2.46ZM80.22,32.69A2.71,2.71,0,1,0,77.85,30,2.54,2.54,0,0,0,80.22,32.69Zm-1.65,8.6a2.7,2.7,0,1,0-2.39-2.7,2.55,2.55,0,0,0,2.39,2.7h0ZM80,48.66a2.27,2.27,0,1,0-2-2.26,2.13,2.13,0,0,0,2,2.26Zm2.27,7.07a2.27,2.27,0,0,0,0-4.51h0a2.15,2.15,0,0,0-2,2.28,2.12,2.12,0,0,0,2,2.23Zm54.34-29.57a2.15,2.15,0,1,0-4.26,0,2.19,2.19,0,0,0,2.42,2,2.28,2.28,0,0,0,1.8-2Zm19.9-4.73a2.25,2.25,0,0,0-2.74-1.86,2.44,2.44,0,0,0-1.65,1.86,2.25,2.25,0,0,0,2.81,1.74,2.45,2.45,0,0,0,1.54-1.74Zm6.44,2.74a2.24,2.24,0,0,0-2.84-1.69,2.43,2.43,0,0,0-1.49,1.69,2.22,2.22,0,0,0,2.83,1.68A2.45,2.45,0,0,0,162.92,24.17Zm-20.2-.85a2.21,2.21,0,0,0-2.34-2.14,2.28,2.28,0,0,0-1.9,2.14,2.22,2.22,0,0,0,2.34,2.15A2.3,2.3,0,0,0,142.72,23.32Zm6.54-2.2A2.22,2.22,0,0,0,146.93,19a2.28,2.28,0,0,0-1.9,2.15,2.21,2.21,0,0,0,2.33,2.15A2.28,2.28,0,0,0,149.26,21.12ZM168.4,30A2.4,2.4,0,1,0,166,32.69,2.55,2.55,0,0,0,168.4,30Zm1.65,8.6a2.38,2.38,0,1,0-2.37,2.68A2.54,2.54,0,0,0,170.05,38.6Zm-1.77,7.81a2,2,0,1,0-2,2.25A2.13,2.13,0,0,0,168.28,46.41ZM166,53.48a2,2,0,1,0-4,0,2,2,0,0,0,2.33,1.8,2.14,2.14,0,0,0,1.59-1.8ZM116,6.5v5.12l3.29-1.82-2-.87,2-1Zm9.29-5.12h-4.53l1.61,3.71.77-2.27.9,2.27ZM127,7.94l2,1-2,.87,3.28,1.82V6.53Zm-1.65,8-1.61-3.71L123,14.51l-1-2.27L120.75,16A5.08,5.08,0,0,1,125.31,16ZM123,7a2,2,0,0,0-1.6,2.26,2,2,0,0,0,1.6,1.81,2,2,0,0,0,1.55-2.3A1.91,1.91,0,0,0,123,7Zm-3.12,14.87a18.88,18.88,0,0,0,0-4.25C116.45,19.05,114.19,25.22,119.92,21.91Zm0,9.53c-1.09-2.79,2.46-5.12-.28-4.69-6.92,0-.27,6,.34,4.69Zm9.64-2.56c.82-1.33-.86-1.9-3.12-2.15-2.72-.34.81,1.89-.25,4.68.07,0,1.29,1.13,3.44-2.51Zm-12,3.3h-1.79V47.54h1.79Zm22,11.7a6.26,6.26,0,0,1,9.6-.48,8,8,0,0,1,1.72,2.83c5.21-3,7,4.59,7.45,3.61C167.4,24.45,147.74,26,131.53,37v4.41c6.75-2.21,8.11,2.45,8.11,2.45Zm-7.92-8.27c17.86-13.34,37.81-11.32,28.16,15.18.55,1,.86,1.56,1.07,1.2,10.23-26.21-9.06-33.46-29.21-17.71ZM130,22.07a7.53,7.53,0,0,0-3.78-4.41,20.13,20.13,0,0,0,0,4.25C126.75,22.63,130.56,23.47,130,22.07Zm-6.5,3.27c2.13-.33,8.58,2.95,6.2-1.07-4.8-.72-4.84-1.59-4.52-7a10.36,10.36,0,0,0-4.15,0c.25,5.48.18,6.32-4.53,7-2.74,4.25,5,.33,7,1.07Zm5,22.28h1.76V32.26h-1.76Zm-5.64-4.46a3,3,0,1,0-2.61-2.94,2.81,2.81,0,0,0,2.61,2.94h0Zm2.4-5.58c1.79-5.12-6.41-5.45-4.85-.13a3.25,3.25,0,0,1,4.89.13Zm0-3.74c1.79-5.12-6.41-5.45-4.85,0a3.23,3.23,0,0,1,4.89,0Zm.18,13.78c1.27-5.12-6.3-5.12-5,0Zm-.63-17.92a2.18,2.18,0,0,0-1.45-2.57,1.91,1.91,0,0,0-2.27,1.63,2.48,2.48,0,0,0,0,.94c0-1.28,3.62-1.18,3.69-.06ZM154.31,170c8.7-2.56,8.31-11.24,7.86-14.64a6.47,6.47,0,0,1-5.93,2.89,90,90,0,0,1-1.91,11.7Zm71.37-69.6c5.73,8.7-10.37,15,4.53,29,1.83,16.26,10.91,17.08,14.51,30.31,2.56,9.32-9.32,16.77-14.17,4.74s-6.79-12-6.79-12-.8,1.64-2,1.56l-1.84,4.92c9.22,12.39-.74,18.66,6.05,31,6.43,6.27,8.08,5.76,7,13.52a11,11,0,0,0-2.42-6.76c-14.45-8-3.94-25.6-10.58-34.56,0,0-2.44,7.37-4.28,8l-1.85,5.58s1.63.31-1.72,8.4c4.07,8.47,15,9.67,16.82,21s-5.84,19.41-7.22,20.48-1.32,3.28,1.83,2.77c5.64.56,5.21-9.4,6.39-4.76.63,12.8,3.51.28,1.44-6.25a16.6,16.6,0,0,1,2.27,7.5,7.64,7.64,0,0,0,.57-6.07c2.42,2.56-1.61-6.35-.39-11.21,4.69-20.79-7.79-10.06-8.88-24.58.8-5.93,3.63-16.71-1.56-25.26l.91-1.33c4.73,6.6,5.77,18.35,13.27,17.15,5.61-.87,13.58-6.76,8.35-17.92s-13.58-15.82-13.58-26.22c0-5.12,11.88-9.57,7.29-21.4.93,11.45-6.05,12.65-7.43,18.28,1.06-8.68,5-7.5,5.39-15.36s-2.49-5.12-2-12.8c-2.56,4.38,2.38,8.63-.13,14.49-2.27,5.3-4.06,5.71-4.53,10.93.34-10.24,7.36-12.57,1.9-22.88,2.26,8.67-6.64,13.59-2.49,25.11-6.64-8.55,4.53-18.66-.14-26.6.73,12-8.19,12.47-1.11,26.73-10.35-9.83,4.83-19.36-3.33-25.53Zm-5.23,129.4c0,1.69-6.61,8.53-5.12,8.86s11.33.46,12.57-9.11A20.74,20.74,0,0,1,220.45,229.78Zm-7.38,4.64c-1.65,5.86,8-4.54,6-4.84C218.5,229.27,215,232.78,213.07,234.42ZM197,154c-2.1-3.1-13.72-2.36-14.94,11.57-1,11.82,8,19,7.43,26.62.43,10.45-22.83,26.62-8.45,24.58,2.26-5.35,3.83-6.07,3.83-6.07a41.7,41.7,0,0,0-1.14,8.5c1.93-1.72,3.29-7,3.22-9.93a49.89,49.89,0,0,1,.48,8.29c2.06-1.43,1.74-10.55,1.74-10.55l1.36,3.07c-1.2-5.12,7.13-15.59,7.36-18.61,0-3.71-4.17-1.89-3.36-10.24.68-7.24,4.71,0,9.06-5.12a17.29,17.29,0,0,1-1.13-2.56c-4,2.33-9.24-.64-9.24,7,0,13.37,6.79,7.68-1.76,20.48,7.17-11.95-.62-8,.49-22.68.95-8.37,7.07-3.05,9.83-6.63-1.54-4.56,1.29-8.73-4.78-17.71Zm-27.46,71c-1.27,3.49,11.52-.12,11.7-5.12C176.8,213.94,171,221.46,169.53,224.94Zm3.78-7.83a21,21,0,0,1-5,4.17c-2.26,1.13-.34,1.87.86,1S175.32,216.93,173.31,217.11Zm7.38-107.88c-.63-16.46,16.12-11.52,16.12-11.52-13.58-3.3-20,15.11-9.19,12-34.08,14.08-30.93,2.56-31.52,47.38a4.43,4.43,0,0,0,4.53-4.33c0-2.91-1.54-1.35-2-6.65,1.09,3,3.08,3.45,4.89,8.57,1-3.53-2-7.24-3.19-10.24l4.53,5.12v-1.12a10,10,0,0,1-2.74-5.53,4.4,4.4,0,0,0,2.53,2c-3.15-4.71-4.82-13.85-2.26-16.15,3.55-3.18-2.27-3.69,11.48-5.12,15.85-1.54,25.92.48,30.86-17.28-.95,26.16-25.77,12.8-21.65,22.29,10.33,17.82,16.6,33.69,25.54,19.64,6.46-9.32-8-17.54-1.54-39.27-3.91,16.1,8.13,30.28,4.44,37.32-9.24,8.17-10.73,23.33-4.91,30.19a3.74,3.74,0,0,1,3.19-2.85l1.5-4.71c-1.45-.66,1.78-11.9,3.64-11.62a20.22,20.22,0,0,0,2.27-8.16c-2.7-2.95-6.12,2.2-6.12,2.2a5.6,5.6,0,0,1,5.71-4.41l1.7-5.32c-1.93-3.35-5.89-17.51-6.8-23.81-.7-4.58,2.9-12.8-1.26-15.74-6.53-5.66-36-16.57-32.45,8.52A2.47,2.47,0,0,0,180.69,109.23Zm-10.55,0c-1.5-1.87.81-7.14.81-7.14-.56-.18-.63-1.2-.63-1.2-6.57-.92-14.85-7.43-14.85-7.43-1.23,0-1.66,1.82-1.66,1.82a60.63,60.63,0,0,1,17.57,18.2c.57-1.76.25-2.53-1.24-4.37Zm44-17.92c7.27-12.46,7.54-47.18-10.6-39.37-1.27.72-1.92-2.43,6.39-11.44A10,10,0,0,0,202.65,48c-1.08,3.1-2.15,2.38-2.15,2.38s.75-1.31.21-1.9c0,0-4.53,1.28-1.84,4.92,0,0-3.35,0-2.26-5.12a7.13,7.13,0,0,0-4.92,4.1c-2.26-7.43-9.37,11.59-13,12.23-3.22,2.36-7.36,12.8-1.34,9.76,4-2.56,7.63-4.79,8.27-3.54s-5,4.59-5.48,6.38c-.16.77,2.54-2.56,4.53-3a8.35,8.35,0,0,0,3.92-3c-3.42,4.23-4.53,10.24-7.54,11.29,9,0,3.14-6.37,9.53-12.23-4.92,7.19-.32,7.68-3.42,12.49,4.53-1.69.93-9.93,5.7-12.8-.43,2.28-3.1,4.4-.67,7.68-2.5-14.75,16.12-3.23,12.29-21.07,8.31,12.8-10.23,13.9-12.5,23.17,0,0,1.22,2.86.75,4.17a2.55,2.55,0,0,1,2.44,1.82L196.4,81l9.29,2.36L205.1,87a2.09,2.09,0,0,1,3.08.59c2.26-3.82,5-3.64,3.64,1.66a1.84,1.84,0,0,1,2.29,1.46,2.63,2.63,0,0,1,.07.49ZM175,78.51c-1.06,2.44,1.27,5.3,4.53-3.07-3.37,1.41-3,5.56-4.53,3Zm1.82-7.45c.13-7.68,8.55-4,2.69,0,1.29-2.3-.91-2.89-2.69-.07Zm25.42-28.67c-8.78-3.4-12.65,5.53-20.1,4.59,6.79,3.84,10.23-4.74,17.3-4A10.74,10.74,0,0,0,192,48.79s2.56-3.66,9.94-5ZM201.68,45A3,3,0,0,0,198,47.21s2.26-2,3.42-1.59Zm.45-3.4.55-1.23c-1.7-2.38-5.66-1-5.66-1,4.41.59,5.11,2.18,5.11,2.18ZM187.23,61c2.7-2.25,0-8,7.48-7.5l-.25.72s-4.53-.7-4.37,2.38c2.62-1.9,4.53,0,5.64-.44-2,2.07-2,4.94-6.66,5.12l-1.07.95Zm5.28-2.1a1.13,1.13,0,1,0-1-1.12A1.07,1.07,0,0,0,192.51,58.93Zm-19.07-51c-.61.26,2.88,6.51,3.36,6S173.92,7.37,173.44,7.88Zm4.8,6.79c-.47-.26-1.24,1.71-.77,1.92S178.72,14.9,178.24,14.67Zm1.27,1.66c-.65-.3-1.47,2.36-.77,2.56S180.21,16.49,179.51,16.33Zm1.36,2c-.68-.33-1.67,2.79-1,3S181.6,18.51,180.87,18.28Zm2.42,4c-1,1.43-1.63,3.76-.4,4.48C182.89,26.73,185,23.5,183.29,22.25Zm1.86,2.22c-1.36,1.69-2.13,4.38-.52,5.12C184.63,29.7,187,26.14,185.15,24.47Zm1.5,2.26c-.77,2.56-3,4.5-.37,6.47C186.33,33.25,188.73,28.77,186.65,26.73ZM181.8,20c-.88.87-1.25,2.9-.36,3.64A3.56,3.56,0,0,0,181.8,20Zm7.11,9.5c-.93,2.1-2.45,5.12-.45,7.68C189.07,34.41,191.17,31.85,188.91,29.49Zm2.51,4c-.7.59-2.26,5.58-1,7.37,2.67-.41,2.54-5.2,1-7.37Zm2.27,3.68a4.82,4.82,0,0,1-1,3.61c1.63,2.33,4.26-2.68.88-3.61Zm12,12.06c3.48-.55,6-4,5.84-8a30.35,30.35,0,0,1-6,8ZM216,45.46c-1.3-.46-5,.62-5.35,2.56-.16.77.82,1.39,1.52.29a6.63,6.63,0,0,1,3.71-2.85Zm4.66,3.59a8.31,8.31,0,0,0-7.81,0c-1.09.72-.64,1.82.77,1.3A18.93,18.93,0,0,1,220.61,49.05ZM223.49,53c-1.52-4.5-13.12-1-7.57,0a8,8,0,0,1,7.61,0ZM230,58.34c-3.06-.43-7.61-6.4-13.09-3.66-1.2.59-.23,2,.81,1.49,4.71-2,9.92,3.37,12.32,2.17Zm.15,5.33c-2.4-.36-4.77-6.92-11.32-5.43-.86.2-1,1.92.95,1.71,6.3-.69,6.46,4.3,10.42,3.72Zm0,5.58c-2.71-2-5.47-7.68-9.87-6.81-1.06.25-.84,1.43.3,1.41,4-.11,5.11,4.63,9.55,5.4Zm.43,4.94c-3.62-1.64-4.12-6.15-9.75-7.48-.89-.2-1.39,1,0,1.44,5.07,1.63,3.62,4.78,9.73,6Zm-1,5.63c-4.07-2.56-4.82-8.14-8.4-9.14-1.09-.31-1.13.82-.36,1.18,4.28,2,3.21,6.55,8.81,8Zm-.84,4.74c-5.7-3.08-4.91-8-8-9.17-1.29-.54-1.7.36-.45,1.08,2.71,1.58,2,6.29,8.42,8.09Zm-9.37-4c3.67,3.77,1.24,6.35,6.61,7.17-3.26-1.46-2.69-6-5.84-7.86-1-.59-1.22.26-.79.69Zm-1.06,5.87c-2.79-.88,4.37,6,4.09,5.88S218.78,87.06,218.35,86.48Zm.4-2.56c.41.58,3.94,5.76,5.21,6.14-1.88-1.9-5.39-9.4-5.32-6.17Zm-20.38-4.64c1.7-5.45,16.53-14.74,5.73-24.73,13,8-.81,18.26-5.93,24.71Zm-17.91,15c5.35-5-3.71-9.75-3.55-2.81,1.43-3.77,5.41-1.87,3.35,2.79ZM175,100.61c.7.2,4.25-6.61,3.28-7.07s-4.19,6.84-3.49,7ZM174.6,108c1,.77,3.74-7,2.67-7.32s-3.92,6.56-2.87,7.3Zm-.5,4.61c1.22-.51-.16-6.3-1.43-5.68s0,6.17,1.23,5.66Zm-3.24-4.48c1.2.46,4.06-8.14,2.88-8.52s-4.26,8.06-3.08,8.5Zm2.79-4c-.52,1.44.18,1.77.68.31s-.36-1.77-.89-.33Zm24.7-21.88c3.22,3.78-.41,5.32-1.27,1.2l-1.38,6.3c4.53-4.82,3.4,2.56-1.38,2.07-6.25-.77-1.06-8.63-1-3.43,3-1.05,1.13-5.66-2.13-2.56a5.35,5.35,0,0,0,0-5.12c-1.79,1.33-1.29,4.4-1.29,4.4-3.4-3-4.14,1.08-2.56,2.33,1.59-4.27,4.39,3.56-.88,3.56-3.35,0-4-6.5-.95-2.23l-.32-5c-1.18,3-2.72,3.27-2.26.69l-1.11.2.13,3.79a3.67,3.67,0,0,1,.7,3.71c16.19,1.92,22.44,4.84,31,9.5-.27-.38,1.52-2.56,1.9-2.15L219,93.08l-1.69-1.56c-.39,5.12-2.27,4.43-2.27.36l-2.26,4.43c4.53-2.36,2.26,4.78-1.66,2.15-4.52-3.2,1.07-8.66.82-3.87,2-.36,2.47-4.58-1.9-3.51,0,0,2.13-2.84,1-5.12a5,5,0,0,0-2.26,4.59c-1.83-4.43-5.39-1.13-3,1.38,2.1-4.81,3.73,5.12-2.27,2.56-4.66-1.92-2.58-9.37-.43-2.56l1.31-6.32c-2.46,3.35-5.18,0-.7-1.8L198,82.07M191.4,91.7c0,1.07-2.63.77-2.49-.31s2.65-.67,2.51.31Zm17,5.53c-.41,1-2.69-.34-2.26-1.28s2.74.33,2.28,1.28Zm-10.76-4.46a1,1,0,0,1,1.12-.92,1.06,1.06,0,0,1,.81.92,1,1,0,0,1-1.11.92A1,1,0,0,1,197.69,92.77Zm2.68,117.1c-.27,11-12.09-1.31-2.27-2.56.66-.44.77-1.92.77-1.92-7-2.26-8.69,10.88-1.38,10.9,2.73,0,4.93-2.52,4.91-5.61a6.07,6.07,0,0,0-.61-2.66A3.29,3.29,0,0,0,200.37,209.87Zm.13-6.76c-2.58,6.27-.9,7.14,1.63.87S203,196.84,200.5,203.11Zm5.71-15.87c-2.11,6.47-.36,7.19,1.67.69S208.25,180.73,206.21,187.24Zm5.48-15.77c-2.27,5.91-.77,6.6,1.4.66S213.82,165.5,211.69,171.47Zm-10.1,23.68c-2.26,5.58-.93,6.29,1.34.69S203.85,189.54,201.59,195.15Zm3.64,1.56c-2.26,5.58-.92,6.29,1.34.69S207.5,191.1,205.23,196.71ZM204,195.27c-.5,1.26.27,1.64.77.39S204.47,194,204,195.27Zm2.9-15.94c-2,5.7-.64,6.34,1.36.61S208.88,173.59,206.89,179.33Zm3.71,1.33c-2,5.7-.63,6.34,1.36.61S212.59,174.92,210.6,180.66Zm-1.31-1.33c-.45,1.25.36,1.61.77.33S209.72,178.05,209.29,179.33Zm5.79-16.26c-.49,1.2.28,1.59.75.38S215.56,161.87,215.08,163.07Zm-10.86,20.15c.58,4.35.43,4.78-2.27,8.09l-1.9,5.32-1.45-.82c4.71-8.68-11.16-16.82,6.57-16A19.61,19.61,0,0,0,204.22,183.22Zm22.32,30.72c1.75-1.41,2.52-13.32-8.42-19.54,7.77,9.09,3.44,23.48,8.42,19.41Zm-8.65-83.59c-.88,1.16.32,5.74,1.47,6.58v-1.51A14,14,0,0,1,217.89,130.35Zm1.9-.82a15.71,15.71,0,0,1,2.27,6.56,7.07,7.07,0,0,0-2.4-7.5Zm-3.57-3.45,2,3.79.84.36c.31-.77-1.86-4.15-2.27-4.82H216Zm3.3,5.6c-.47,0,0,1.9.39,1.72S220,131.53,219.52,131.68Zm.7,4.36a26.85,26.85,0,0,1,.91,6.75c0,.52.7,1.72,1.13,0S220.93,132.07,220.22,136Zm.89,11.7c.63,0,.63-1.13,0-1.13a.53.53,0,0,0-.5.56A.55.55,0,0,0,221.11,147.74Zm2-3.92c.2.61-3.13,11.57,0,7C224.37,149,224.66,140.26,223.08,143.82Zm-2.79-1.26c-1.24-1-2.51,5.92-2.4,7.5C218.73,154.72,220.61,142.41,220.29,142.56Zm-3.55,17.64c1.61.62,5.09-8.73,3.76-9.26C219.52,150.58,216.08,159.84,216.74,160.2Zm-1.68,8.4c1.88,1.07,4.53-8,3.67-8.37C218.35,160.1,214.38,168.19,215.06,168.6Zm1-9.65c-2.26-2.08-5.77,11.82-3.19,7.68C213.61,162.4,216.47,159.31,216.08,159Zm-28.37,16.84c-3.62-4.94-1.59-16.15,6.5-19.45C186.33,162.17,186.65,169.67,187.71,175.79ZM89.58,92.36c-2.27,2.56-10.87,9.22-10.35,14.57C80.74,102.09,100,92.85,89.58,92.36ZM37.5,27.83l-2.56-1.51-1.34,3ZM32,24l2.67,1.51,1.34-3Zm4.53-1.23-1.34,3,2.65,1.51Zm-3.38,6.3,1.32-3-2.65-1.51Zm-10,6.15a.94.94,0,0,0,.69-1.09.9.9,0,0,0-.69-.78.93.93,0,0,0-.72,1.06.91.91,0,0,0,.68.81Zm2.49-1.11A.93.93,0,0,0,26.32,33a.89.89,0,0,0-.69-.77.93.93,0,0,0-.72,1.06.9.9,0,0,0,.68.8Zm2.63,0A1,1,0,0,0,29,33a.9.9,0,0,0-.69-.77,1,1,0,0,0-.56,1.17.88.88,0,0,0,.45.59ZM47,26a.94.94,0,0,0,.69-1.09.91.91,0,0,0-.69-.78,1,1,0,0,0-.51,1.21,1,1,0,0,0,.46.56Zm2.67-.26a1,1,0,0,0,0-1.89A1,1,0,0,0,49.15,25a.9.9,0,0,0,.51.61Zm2.27,1a.94.94,0,0,0,.68-1.09.88.88,0,0,0-.68-.78.91.91,0,0,0-.77,1,.92.92,0,0,0,.65.85Zm1.42,2a.93.93,0,0,0,.69-1.09.87.87,0,0,0-.69-.77,1,1,0,0,0-.56,1.17.91.91,0,0,0,.45.59Zm.68,2.15a.93.93,0,0,0,.69-1.09.9.9,0,0,0-.69-.77,1,1,0,0,0-.56,1.17.91.91,0,0,0,.45.59ZM21.19,37.43a.94.94,0,0,0,.69-1.09.89.89,0,0,0-.69-.78,1,1,0,0,0-.69,1.09A.91.91,0,0,0,21.19,37.43Zm-.47,2.71a1,1,0,0,0,.69-1.09.91.91,0,0,0-.69-.78A.94.94,0,0,0,20,39.36.9.9,0,0,0,20.72,40.14Zm.52,2.56a.72.72,0,0,0,0-1.43.75.75,0,0,0-.33.94.64.64,0,0,0,.44.41Zm32.9-9.6a.72.72,0,0,0,0-1.43.74.74,0,0,0-.4.91.68.68,0,0,0,.4.44Zm-23.73.69a.72.72,0,1,0-.63-.72A.68.68,0,0,0,30.41,33.79Zm11.75-5.12a.72.72,0,0,0,0-1.43.71.71,0,0,0-.61.79.69.69,0,0,0,.7.69Zm2.15-1.84a.72.72,0,0,0,0-1.44.73.73,0,0,0-.61.8.69.69,0,0,0,.7.69ZM22.42,44.65a.72.72,0,1,0-.64-.72A.69.69,0,0,0,22.42,44.65Zm10.1-11a.73.73,0,0,0,0-1.44.73.73,0,0,0,0,1.44Zm7.83-3.43a.73.73,0,1,0-.63-.72A.68.68,0,0,0,40.35,30.21ZM26.42,41c2-2.56,6-2,6.8-4.74-9.81-.48-10,2.33-9.06,5.3A2.51,2.51,0,0,0,26.42,41Zm-3,4.58,3.41,5.3L29.39,52l-.16,2.41A5.26,5.26,0,0,1,33,53.58a5,5,0,0,1,4.3-2.43s1-2.41,4.83-1.59c.63-1.23,2-3.63,4-1.94,0,0,3.22-1.95,4.53-1a1.85,1.85,0,0,1,2.54-1.1l-.77-1.87,1.31-1.51L54,34.84l-1.81-1.2s2.62,5.94-1.32,1.87l0,3.86c3.46-2.81,2.9,2,0,3s-4.37-3.58-.93-3.58c0,0,.25-3-2.42-.87l-.16-2.56-1.2-1.1-.64,1.61.43,2.2s-2.58-.56-1.9,2.38c2.67-1.89,4.53,2.56.61,3.89s-6.11-4.83-1.38-3.17L41.53,37c.25,3-3.76,4.58-1.45-1.1l-4.53,1.79c3,1.35,3.62,4.32-.73,2.4l1.5,4.23c2.26-5.81,3.94.82,0,3-2.88,1.56-6.18-2.56-1.81-3.27,0,0-.5-3.26-2.7,0l-.7-2-1.38-.64-.2,1.72.81,1.51s-3.62-.33-1.24,2.79c1.69-4.27,4.21,1.36,1.24,3.17s-5.48-3.3-2.4-2.56l-1.63-2.89s-1.09,5.38-1.86-1Zm18.86.85-.95,2.1-1.88-1.08,1-2.1ZM35.5,49.2c.55,1-2.69,2.79-3.08,1.67C31.88,49.79,35.12,48.05,35.5,49.2Zm14.07-4.55c.24,1.17-3.31,1.76-3.38.53C45.94,44,49.5,43.42,49.57,44.65ZM37.2,36.12a1.16,1.16,0,1,0-1-1.15A1.1,1.1,0,0,0,37.2,36.12Zm-.93-2.92a1.16,1.16,0,0,0,0-2.3,1.1,1.1,0,0,0-1,1.19,1.08,1.08,0,0,0,1.05,1.11h-.07Zm4.53,0,2.47.77s2.51-3.69,4.78-1.59a2.08,2.08,0,0,1,3.05-.53C51,28.34,48.32,25.27,41,33.2Zm-2.74-4.3c0-.79-4.87,1.08-4.53,1.72C33.53,31.44,38.42,29.57,38.06,28.9ZM24.05,43c-2.56-4.35-1.77-8.6,8.74-7.68v-.66c-11.32-.93-12.23,3.68-9.47,8.39ZM52.6,32c-1.22-11.44-11.12-2.4-12.77,0l.34.67c1.52-2.36,10.93-11.14,12,.2ZM65.21,121.8c1.86-.15,2.45-.77,2.27-3.86a12.8,12.8,0,0,1-2.11,3.86Zm-2.4-1.89c1.86-.16,2.45-.77,2.27-3.87A12.73,12.73,0,0,1,63,119.91ZM75,79.1c-2-2.4-6.1-1.28-7.59-6.83C69.92,75.37,73.29,74.34,75,79.1Zm-3.24,35.84c-1.79-3.07,3.44-8.55-.14-11.11,1.34,4.43-3.69,6.5.14,11.09ZM71.17,88c1.67,10.45,7.74,8,8.26,10.24C78.8,93.75,73.43,94.21,71.17,88ZM79,93.8c-.29-1.33-1.31-3-3-1.82a2.82,2.82,0,0,0,3,1.82ZM41.26,73.32c-2.27-4.76,2.53.94,5.41,0,2.85,0,4.53-2.28-1.91-4-5-2.56,6.07-.74,6.8-4.79.84-1.15,1.81.67.68,2-5.82,7.2,3.1,6.69,3.19-.81a1.22,1.22,0,0,1,1,.58C59,63.54,58,53.68,58,53.68c3-.77,4.8,1.79,7,1.44-4.23-4.36-5.64-2.9-7.2-3s-1.77-1.18-3.19-.93c2.4-7.68,6.18-5,5.73-1.81l.56-.13c-.32-7.55-6.27-3-7.88,2.17-1.63,0,0-3.09,0-3.09-.81,0-1.74,2.56-1.74,2.56-.79-.49.54-2.56.54-2.56-.52-1.41-2.56,2.81-2.56,2.81-.95-.25,1.2-3.56,1.2-3.56-1.35-.41-4.3,5.12-4.3,5.12-.47-.53,1.34-4.37,1.34-4.37-2.11.94-3.31,6.68-3.31,6.68-2.53-5.12-4.53-4.05-4.53-4.05,3.78,2.84,3.51,4.56,3.51,4.56C39.65,52,38,52.27,38,52.27c3.92,2.33,2.61,3.15,2.61,3.15-3-2.56-4.53-2-4.53-2C39.29,54.73,39,55.88,39,55.88a4.75,4.75,0,0,0-3.8-1.3c3.4,1.87,1,2.35,1,2.35-3.66-2.74-5.39-1.28-5.39-1.28,6.8,2.56,3.45,3.15,3.45,3.15-10.4-5.32-10.37.85-8.65,3.61l.88-.74c-3.56-4.92,2.94-5.63,5.91-1.89C24.79,61.41,24.52,68,24.52,68c3.42-7.35,7.25-6.76,7.25-6.76C28.21,67.61,40.83,72.6,43.9,76.8c0,0-1.29-1.77-2.69-3.56Zm11.11,6.24c-2.76-7.34-7-2.76-1.83,2.56,1.47,2.15,6.18,0,5.12-2.56C54.43,71,49.72,73,52.33,79.49Zm.18,4.84c.37,1.2,4.37-.66,3.88-1.82-.19-.87-4.33,1.08-3.92,1.75Zm-6.63-9s.29,1.17,1.09,1.15c0,0-.61-1-.18-1.33Zm8.56-3.2s.68.56.38,1.22c0,0,.89-.64.5-1.48Zm-24.07-9.6c-6.3,3.53-4.14,9.49-5.1,11.18,2.13-2.69-.38-6.19,5-9.5A1.5,1.5,0,0,0,30.41,62.57Zm-.23,5.12c1.36-1.49.52-2.56,0-2.13-6.22,6.63-.9,12-4.77,17.1,5-3.38.31-10.14,4.75-15Zm2.06,2c.61-.87-.49-2.56-1.76-.46C27,75,32.11,84,27.44,89.73c7.5-4.69.71-13.85,4.78-20Zm0,14.08c.23,4.89-5,9-2,13.92.79-7.68,4-7.47,4.53-12.54.38-3.51-1.56-9.11.41-12.6.74-1.3-1.23-3.37-2.27-1.58-2.06,4-1,6.94-.72,12.87Zm3.65-10.24c-2.27,9.06,1.67,11.72-.36,15.36-2.61,4.71-3.81,6.09-2.06,11.62.61,1.89-2.27,2.25-.84,5.58.29-3.4,4-3.2,1.86-7.3-2.27-5.12,4.95-6.47,3.39-13.84-1.67-2.92.14-16.08-2-11.32Zm.43,31.79c4.3-5.12,1.54-4.55,1.58-8.16s4.13-5.87,3.67-13c2.56,7.5-6.56,13.44.57,19.74-1.31-3.28-2.27-3.69,1.83-10s1-16.33-.68-16.56c-1.31-.18.73,7.37.8,10.24,0,4.33-1.75,4.51-3.67,10.24,0-5.12,5.82-7.68,1-20.76-.75-2-3.2-4.12-3.35-2.56-.68,7.35,1.51,6.12,1.67,12.31,0,3.2-4.8,8.17-2.9,14.54.7,2.31-4,4.82-1.22,7.68a6,6,0,0,1,.63-3.61Zm9.94-23.81c4.53,13.7-2.9,10.81-1.9,19.87C49.69,96.48,50.53,87.63,46.26,81.53Zm3.42,4.54c3.8,12-1.75,12.28-.3,17.07,3.26-6.5,5.14-4.5,2.83-14.21,1.7,7.09,8,9.22,6.8,14.42,3.55-3.43.11-8.2-1.23-14.95,2.61,4.63,4.53,8.44,3.4,12.41,4.53-5.45-3.33-13.8-2.6-19.33C60,90.24,66.25,92,66.25,95.9c1.68-5.74-6.79-9.35-7.38-17.41,3.62,8.47,9.49,12.8,9.06,16,1.88-7.29-3.4-10.72-5.59-13.87-4.53-6.5-4.92-9.76-4.92-9.76-2,3.08,2.27,12.16-.79,16.13,0,0-.77-1.64-1.49-1.38,0,0-.19,2.25-.91,2.41,0-.44-2.63-3.33-2.6-.57a2.44,2.44,0,0,0-2-1.35Zm5.8,2.56c-.16,4.27,3.1,6.88,3.44,9.08-.34-5-2.38-5.12-3.47-9Zm-1.41-36c-.36,2.26-3.28,4.28-3.28,4.28,1.42,0,3.26-2.43,3.26-2.43,1,6.63-2.27,5.73-3,8.8-.43-2.56-1-5.53-4.05-6.27a15.18,15.18,0,0,0,7-4.27Zm12.57,8.58c-1.32-2.07-3-6.43-7.29-6.58-1,0-.84,1.56.2,1.66C63.49,56.73,63.69,60,66.64,61.21Zm4.53,10.44C67.05,68.25,66,60.11,60,58.24c-1.07-.33-1.29,1.48-.16,1.89C65.62,62.21,65.66,71.7,71.17,71.65ZM53.75,105.93a6.07,6.07,0,0,0,2-7.7c0-.1-.1-.21-.16-.31A79.67,79.67,0,0,0,53.75,105.93Zm8.59-5.66c-1.25,3.1,1.4,5.84.83,7.43C65.21,105,62.43,102.48,62.34,100.27ZM59.41,63.56c3.94,2.23,4.71,10.6,7.59,13.11-3.65-1.64-4.39-9-8.31-11.54-.79-.54-1.29,1.28-.5,1.76,5,5.25,3.15,10.6,12.07,12.52A5.63,5.63,0,0,0,67.34,75c-2.08-1.51-1.92-10.39-7.61-13.13C58.67,61.21,58.4,63,59.41,63.56Zm-1.94,5.12c3.3,12.52,9.28,14,12.54,18.69-.79-8.06-7.31-6.35-11.59-19-.32-1.05-1.22-.71-.84.21ZM78,89.93c-5.21-1.87-3.46-9.29-10.69-10.47C72.91,83.22,71.44,91.88,78,89.93ZM64,96.54c-1.08,6,3.29,8.55,2.4,10.77s-2,3.54-1.17,5.71C71.17,105.16,65.35,103.81,64,96.54Zm3.33,4.27c4.06,9.52-3.24,11,2.7,17.38-4.35-7.68,4.37-11.13-1.47-17.76C67.52,99.2,66.84,99.58,67.36,100.81Zm1.93-4.07c.31,9.4,6.13,2.38,4.89,14.64C77.26,99.66,71.37,101,69.29,96.74Zm1.88-4.66c-1.93,7.94,8.51,7.5,5.45,15.62C81.9,99.53,72.48,98.87,71.17,92.08ZM76,84.4c-1.67-.23-2.12-4.71-5-4.53,1.56,1.59,3.26,4.79,5,4.46ZM10.28,110.82a12.8,12.8,0,0,0,6.29,11.6c-8.8-11-.54-16.34-5.93-25.09C12.82,101.86,10.26,104.93,10.28,110.82Zm3.67-2c-1.2,8.09,5.41,15,6.09,16.29,2.74,11.87-4.67,16.74-13.59,30.18C-6.11,180.89,21.06,184.21,25,167.06c.7-1.12,1.4-.43.86.57-3,5.6-2.26,15.92-2.26,23.45-.46,11.8-10.8,19.3-8.29,27.75l1.24-2.67.5,1c-2.51,6.73.39,6.25.39,6.25l.88-2.08a10.56,10.56,0,0,1,0,5.12l1.09-2c-1.93,6.83-.21,6.52-.21,6.52a4.7,4.7,0,0,1,1.25-2.56c-1,13.9,5.5,7.84,1.83-.87L24.57,232c.9,1.8-1,3.1.5,5,3.19,4,2.74-.74.92-4,1.54-.18,4,2,4,2,.18-2.71-5-2.22-5.59-5.5a19.19,19.19,0,0,0,5.71,2.84c2.1.87.83,5.79,2.92,5.66s.38-5.12-1.39-6.27l2.27-.52c-1.81-3.84-6.43,3.05-9.24-4.09,3.31,4.22,7.52.77,9.44,2.17l.12-1.74c-1.7-3.22-7.25,5.12-9.94-3.89-7.23-20.73,31.29-36.27,17.52-66.86,3.15-.23,5.48,5.78,5.48,5.78,2.88-8.42,10.76-19.4,12.93-22.55s-3.49-3.18-3.49-3.18c-.29,3.2-2.26,3.31-2.26,3.31a2,2,0,0,0-.16-2.13,3.32,3.32,0,0,1-2.56,2,31.15,31.15,0,0,1-13,14.72c6.36-4.37,11.69-13.69,11.87-16.05a2.68,2.68,0,0,1-3.81.34c2-1.08.52-1.75.52-1.75a3.38,3.38,0,0,1-4.52.31c1.15-.18,1-1.84,1-1.84A7.76,7.76,0,0,1,39.87,137l-9.46,21.17s8.13-20.28,7.92-23l-1.51-1.31a2.12,2.12,0,0,0,1.85-2.25,2,2,0,0,1-2.55-.31c3.53-3.76.27-3.55.27-3.55,2.49-3.33,1.9-4.51,1.08-4.25-.65-2.2,1.25-4.61,1.25-4.61-.61-.67-1.79,1-1.79,1-.81-1.33,2.81-5.12-.34-3.61a7.11,7.11,0,0,1,2.94-5.63s2.13,6.73,4.24,14.06,4.53,4.35,16.94,11a74.05,74.05,0,0,0,22.25,8c2.92,3.22,3.4,2.1,3.4,2.1A2.27,2.27,0,0,1,87.2,143L84,140.62l7.42,2a4.29,4.29,0,0,1-1.67-4l-4.4-.43c-2.44,3-4.52,2.22-4.52,2.22,7.38-5.6,2.26-7.68-3.54-9.75C57.11,120.22,60,117.86,52,121c3-4.74,11-1.74,12-6.43l-1.15-4.09c-.11,5.12-2.4,5.88-2.4,5.88a2.45,2.45,0,0,0,.88-3c-3.24-3.14,1.72-5.94-1-7.68-.18,3.43-1.9.49-2.92,6.74.27-2.56-2.85-2.15-.88-8-1.14,2.56-3.56,1.07-2.72,5.68-3.49-4.68.18-4.53,0-8.32-5.39,1.36-2.67,5.58-2.67,5.58a6.46,6.46,0,0,1-2.9-6.3,4.82,4.82,0,0,0-1.35,6.15,1.71,1.71,0,0,0,.13.23c-2.58-1.15-4.24-6.09-4.24-6.09,1.45,6.17-1.58,7.68-1.58,7.68,1.2-3.46-1-4.69-1-4.69a15.59,15.59,0,0,1-4.71,8.53c.86,29.41-6.09,42.16-6.09,42.16-4.83,2.15-11.78,25.6-20.38,16.28C-1.18,158.41,27.71,141,22.26,125.92c-.68-8,3.15-7.68,2.56-15a19.7,19.7,0,0,0-5.53-12c4,4.79,4.33,14.16,2.38,24-1.79-3.36,1.38-22.25-5.82-25.22,4.53,3.64,3.35,22.09,4.69,25.6-1.7-1.82-1.68-23.81-4.76-23.58a26.84,26.84,0,0,1,1,10.88,28.38,28.38,0,0,0,2.77,12.24C14.79,121.06,16.37,101,14,99.2A24.15,24.15,0,0,1,14,108.82Zm64.78,28.65c-20-.51-28-9.73-33.26-17.36C45.47,120.11,56.45,135,78.73,137.47ZM35.89,189.9s5.16-28.16-.93-29C44,159.31,35.89,189.9,35.89,189.9Zm-6.07-22.15c-7.9,28.7-2.26,29.73,1.83,28.7-2,2.25-4,.44-5.34,2.56s-8.58,12-5.91,23.91c-6.52-10.24.18-16.66,4.91-24.63C26.83,194.84,21.22,193.92,29.82,167.75ZM46.26,178.3l-.32,2.56c12.86,18.1,0,23.89,8,32.18l.38-3.15s1.2,5.38,3.4,6.66l-.16-3.74s1.29,4.94,3.17,5.81l.3-3.35s1.29,5.73,4.52,6.24c0,0,.46-2.3-.31-2.89,3.55,1.18,1.74,7,6.79,5.71,2-.49,1.52-3.61-2.54-4.89-1.06-.33,1.82-1,1.82-1-3.79-.52-5.28-.57-5.64-2.56,5.45,3.32,6.79-.87,10,3.63.41-7.91-5.07-2-9.53-6,7.4,2.82,6-.84,10.23,0-1.65-5.35-8.17,3.38-14-5.35-8.67-11.93,8.81-34.07-7.86-48.87l-.4,1.92-1.45-2.56-.55,3.82a36.55,36.55,0,0,1,8,22.45S58.55,170.29,49.9,163.4l.14,5.66-1.52-1.54c-4.37,10.76,8.06,19,6.34,34.33a13,13,0,0,0,5.44,11.68C46.26,207.43,60.16,193,46.26,178.3ZM39,112.56a1.81,1.81,0,0,0-1.28,2.13,1.89,1.89,0,0,0,.05.23S38.92,114.92,39,112.56Zm.81,3a2.31,2.31,0,0,0-1.45,2.38S40.53,117.27,39.85,115.51Zm.79,3c-1.6.67-1.92,3.15-1.92,3.15C42.36,120.68,40.64,118.47,40.64,118.47Zm1.57,4.38c-1.25-2.07-3.56,2.56-3.56,2.56C42.3,125,42.21,122.85,42.21,122.85Zm1.11,3c-1.25-2-4.17,2.84-4.17,2.84C42.07,129.25,44,126.85,43.32,125.82Zm.68,3.3c-2.54-1.71-4,3.69-4,3.69C42.52,129.35,45.33,130.07,44,129.12Zm-3,6.22s2.27,1.18,4.53-3.76c-1.76-2.84-3.64,3.64-4.59,3.76Zm4.53,1.59s3.69-1.38,2-4.4c-2-.15-1.11,2.92-2.18,4.4Zm4.35,1.28a3.5,3.5,0,0,0,.28-4.51l-.12-.15c-2.31.9,0,2.84-.32,4.66Zm2.54.41a2.79,2.79,0,0,0,.33-3.6,2.3,2.3,0,0,0-.79-.7c-1.38,2.48.8,2.66.3,4.3Zm3.26.21c1.31-2.15-1.09-3.49-1.09-3.49-1,1.95,1.15,1.46.93,3.49ZM73.43,220s2.51,3.79,1.68,6.12C75,226.12,78.68,221.28,73.43,220Zm3.31-8.65s1.13,1,1.11,1.74c0,0,1.49,0,1.85.38a2.74,2.74,0,0,0-3-2.12Zm-.12,4.12a7.13,7.13,0,0,1,1,4.35,2,2,0,0,1,2.71,1.31,2.42,2.42,0,0,1,.1.36,4.44,4.44,0,0,0-1.6-5.62,3.37,3.37,0,0,0-2.32-.4ZM98,142.85c-.48-1.87-3.22-4.36-3.76-2.41-.43,1.15,2,.87,3.67,2.41Zm.16-7.68c-.18-1.23-2.56-3-3.29-1.16-.56,1.31,1.7.23,3.2,1.21Zm-3.33-2.79c-3.28-.29-5.62,5.7,1.76,4.53-3.23-1.13-3-3.28-1.85-4.48Zm1,6.16c-5.16-1.86-7.2,1.82-2,4.64.5-2.15-3.58-4.51,2-4.58ZM90.39,145c-1.63-3.2-5.34-.93-1.7,3.89.39.51,2.56.82,1.41-.67-.82-.82-2.83-3.56.2-3.17Zm2.67,4c-.38-2.56-2.26-3.69-2.81-2.56,0,1.58,1.86,1.15,2.72,2.61Zm-7.52-14.78a5.4,5.4,0,0,1,.32,3.2h5.23s-1-1.86-.47-2.89c0,0-1.86,0-1.86-1.12Zm47.31,59.63,2.53-4.38-8,2.79A8.66,8.66,0,0,0,132.85,193.87Zm30-61.7c.29,2.89,2.72,1.08,4.12.74.27-.51,4-6.37,4.1-6.76h-5.23C166.27,126.72,163.07,129.69,162.87,132.17ZM170.18,148a3.32,3.32,0,0,0,1.33,4.16,2.63,2.63,0,0,0,3.67-1.5,3.45,3.45,0,0,0,0-2.53Zm-12.27,31.8-.52.56c-2.4-1.9-6.09.69-4.53,3.38,1.86,2.15,6-2.56,8.47.31s-1.88,6.14-3.12,7.68l-.28.3L155.67,190l.52-.56c1.74,1.56,5.46-.54,4.23-2.85-1.13-1.33-3.53.82-6.38.82a3.5,3.5,0,0,1-3.48-3.58,3.89,3.89,0,0,1,1.69-3.46c1.22-1.56,2.83-1.43,2.72-2.56l.36-.38Zm-6,16.51c1.63,0,3.26-.18,5-.36,18.86-14.85,27.17-45.54,17.53-69.79h-2.42l1.31,4.79-.66.23c-.68-3.86-3.19,3.23-3.91,3.61,1,0,6,3.12,4.84-.23l.66-.23L175.6,139l-.66.26c-.34-2.28-5.73-2.77-7.2-3.61-1.36.66-4.17.56-3,3.27l-.65.23-1.27-4.53a23,23,0,0,0,3.71,10.47c1.29-.56,9.74,1.85,8.77-1.71h.7c2.6,13.51-7.59,17.41-6.5,4.61h-3l-.66,4-.93-.46v1.85l.7.2c-.34,1.15-.56,2.56.68,2.77,1.52-.23,8.49,4.45,8.58.53l.66.21-2.4,11-2.65-.54.18-.74c2.61.95,2.27-3.84,2.92-5.3l-3.87-1.18c0,1.28-1.95,4.79.11,5.12l-.2.8-3.42-1.05.2-.8c1.77,1,1.91-3.14,2.27-4.35-.7,0-4-1.94-4.17-.48-.22,2-2.26,5,.41,6.17l-.18.76-1.79-.69c-1.09,1.69,6.79,5.43,7.43,6.33a2.59,2.59,0,0,0,1.08-1.18l.59.43L170,175l-10.28,2.79c1.61.46,5.75,6,6.8,2.23l.61.41L164.64,185l-.59-.41c2.67-2.56-7.29-6.56-8-7.68l.53-1,12.27-3.25c-1.63-.35-6.79-6.78-7.93-3.09l-.59-.41,1.09-2.08a8.45,8.45,0,0,1-4.53,3.71c-3.44,11.12-23,14.93-20.19,24.91a69.8,69.8,0,0,0,13.31.85l1.15-.87L149,191.84c-.84.87-4.31,2-3,3.84l-.64.44-1.79-3.51.62-.46c.7,2.13,3.3-.87,4.37-1.38-.57-.49-1.82-4.53-2.79-3.53-1.36,1.28-4.53,2-3.4,4.83l-.59.44-1.31-2.82,9.33-6.65.36.66c-.93.57-1.92,1.44-1.15,2.56,1.24,1,3.6,9.78,6,7l.36.66Zm-68.6-64.39c2.44-5.58-6.8-9.21-9.06-4.83A32.73,32.73,0,0,0,83.33,131.91ZM77,119.45,80.22,114l.59.44c-2.44,2.56,5.19,5.58,6,6.91.79.69,1.49.31,2-.77l.59.44-3.29,5.55-.56-.43c2.26-2.38-5.3-5.5-6-6.78-.83-.72-1.47-.39-2,.64Zm11.17-13.37-1.54,1.72,3.35,3.81v-6.19C89.12,104.75,88.56,105.47,88.13,106.08ZM108.05,103c-.25-11.88-14.56-6.73-6.47,2.56h1.29a4.88,4.88,0,0,1,5.18-2.69Zm10.39-12.24,4.81-.71v.77c-4.76.92,3.37,12-5.64,12.8-9.51,1.71-3.54-11.06-8.2-11v-.79l5.68-.77v.77c-2.85-.39-.58,6.09-.81,7.52a3,3,0,0,0,3.17,2.94,2.46,2.46,0,0,0,.47-.1c4.53-.41,2.88-5.81,2.65-9-.13-1.62-.83-2.08-2-1.8Zm5.82-.58,5.82.48v.8c-3.1-1.18-1.69,7.86-2.26,9.31-.16,1.11.5,1.59,1.61,1.59v.8l-5.8-.49v-.79c3,1.07,1.59-7.92,2.26-9.27,0-1.18-.45-1.64-1.49-1.64ZM145.8,105.5l1.88-5.74-5.78,5.74Zm-6,0-.15-9.66c-.21,1.82-5.37,7.68-2.27,8.91l-.27.67Zm27.7,10.24,1.76-.34c-21.6-38.93-82.69-33-97.36,9.83l1.56,1.33c3.28-8.49,13.77-3.35,10.58,5.59a20.73,20.73,0,0,0,2.08.43,43.39,43.39,0,0,1,3.76-7.68v-9.37l-5.1-5.84c-1.2,1.64-3.42,2.56-1.47,5l-.52.61-2.11-2.94.41-.46a37.28,37.28,0,0,0,7.5-8.35l.4-.46,2.52,2.36H98c-6.25-11.6,16.32-16.08,11.66-1.9,1.45,3.87,24.48,1.36,27.31,2l-3.72-2,.3-.71c2.26,1.76,4-6.45,5.21-7.68.43-.9.54-1.33-.57-2l.29-.72L142,94.23l.21,9.29,6.18-6.11,3.6,1.84-.3.72c-2.26-1.82-2.44,4.27-3.26,5.37,1.91,0,7.61.46,9.06-1.35l.18-.59,2,2.1c-.21,2-5,11.39-3.2,13l-.49.62v4.6c.47-.74.9-1.53,1.45-2.3l-1-1.56.57-.46a1.94,1.94,0,0,0,1.2,1c.9-2.33,8.58-3.87,6.79-7.4l.56-.46Zm-11.32-7.27.95-2.74-.95.59ZM123,86.12c9.06,0,27.17,3.63,30.39,4.3,10.76-3.54-17.43-7.86-30.39-7.89S81.9,86.86,92.61,90.42C95.82,89.75,113.83,86.12,123,86.12Zm-26.9,1.43,5.55-2.18-1,1h2l-2,1.1,1,.59ZM110.81,85l5.71-1.56-1.09.87h2.06l-2.06.9,1,.69Zm16.67-.87,5.86-.33-1.22.61,2,.54-2.27.43.86.9Zm14.76,1.95,5.87.2-1.25.51,1.95.72-2.27.23.8,1ZM106,206.59C81.56,198.4,64.24,172,66.82,143c-7.29,23.35,14.83,58.26,39.06,64.77Zm53.6-10.24c18.11-15.36,26.22-45.7,17.1-70l-1.39-.34c9.26,23.61,1.79,53.48-15.85,68.84ZM102.14,90.72C88,96.55,76.43,108.53,70.1,124l1,.57C77.6,108.31,88,99.84,102.14,90.72ZM171,114.28a59.55,59.55,0,0,0-22.64-21.46s.57,1.1-.18,1.31a58.41,58.41,0,0,1,22,21S171.29,115,171,114.28ZM89.8,168.78a43.57,43.57,0,0,1-4.89-22.12l-.75-.44a44.65,44.65,0,0,0,5.66,24.22Zm0-42.16A43.11,43.11,0,0,0,87,132.81h.83a42.21,42.21,0,0,1,2.09-4.58ZM110,198c.52,1.87,3,3.07,3.51,1.77s-2-2.18-3.44-1.77Zm5.09-7.11c-1.74-2.92-6.36,7.68-3.1,4.71.39-.93,1.86-4.51,3.17-4.71Zm-5.43,10.88c0-6.1-6.79,11.82,3.55,10.52C106.58,210.3,109.27,203.36,109.66,201.78Zm1.52,1.79s-1.18,2.05-.61,3.53c13.94,4.71,30.43,11.26,49-7.3-9.81,2.26-30-.25-43.48-7.44,0,0-1.74,1.56-1.7,2.73,0,0,3.15.36,1.68,3.41a2.55,2.55,0,0,1,.53,3.28,2,2,0,0,1-2.12,1c.07.61-1.17,2.79-3.23.82Zm1.58-1.85a.9.9,0,1,0,.09,0Zm1.95-5.83c-1.2,0-1.2,2.56,0,2.56s1.31-2.56.09-2.56Zm1,3.35c-1.11-.54-2.11,2.28-1,2.77s2.18-2.28,1-2.77Zm1.22-7.68c18.7,8.22,47.07,12.19,49.34.05-3.94,10.45-26.34,7.68-48.46-.48ZM99.67,187c-1.78-1.49-2.65,2.56-3.44,3.69l5.26,3.37c.47-1.45,3.26-4.45.79-5.4l.34-.69,5.09,3.3-.34.7c-2.26-2.56-4.53,6.32-5.59,7.29-.57,1-.11,1.72.79,2.2l-.34.69-5-3.17.36-.69c1.83,1.84,2.69-1.84,3.49-3.07l-5.26-3.38c-.5,1.38-2.9,4-.61,4.94l-.34.66-5.09-3.27.34-.69c2.26,2.56,4.52-6.25,5.61-7.25.59-1,.16-1.74-.81-2.25l.34-.69,5.09,3.3-.34.67Zm-17-.18c-6.07-7,2.83-16.28,8.81-8.65,6.5,7.83-3.12,16.23-8.72,8.78Zm8-8.42c-3.78-4.61-10.69,4.17-7.09,8.19,3.87,5.09,10.94-4.35,7.18-8.06Zm-6.27-6c1-.51,1.15-1,.54-2.56l.61-.36,1.9,4.53-.61.33c-.61-3.4-7.74,3-9,3a3.26,3.26,0,0,0,.29,1.69l-.63.33-1.72-3.84,3.64-11.31c-1.22,1.3-7.56,2.22-5.39,5.32l-.63.33L71.37,165l.63-.35c.37,3.86,8.86-3.36,10.15-3.33l.34,1.12-4.28,13.29Zm-13-9.12-1.23-6.45.68-.15c-.11,3.69,7.14-.41,8.56,0,1-.18,1.2-1,.91-2.2l.68-.18,1.22,6.45-.68.15c0-3.5-7.18.54-8.49.26-1,.18-1.27.95-1,2.07Zm10-17.92c.71,1.77-.86,4.61,0,5.12V151l-3.21.59v-.79c2.85-.72,3.67-5.56.79-6-2.65,0-2.42,6.71-6,6.81s-2.72-5.73-2.79-7.68v-.43l2-.34c-2.42-.71-4.17-1.33-4.17-1.33-3.14,28.88,14,55.63,38.5,63.72.54-2.56,1.85-6.94,1.85-6.94l-.95-2.17,2.27-.69c9.73-11.5-27.58-7.68-26-50.31a14.63,14.63,0,0,1-2.29-.1ZM73,143.51v.39c-5,2.91-1,10.11,2.26.25Zm38.24,65.38c-1.59-.23,7.2,3.38,11.73,3.74A62.27,62.27,0,0,0,111.2,208.89Zm23.37-.41c-1.63,1.77-4-1.2-2.27-2.89-3,0-1.4-5.45.82-3.53a1.81,1.81,0,0,1,1.93-1.74,1.88,1.88,0,0,1,1.53,1.74c2.27-1.92,3.85,3.5.82,3.53,1.7,1.69-.7,4.66-2.27,2.89Zm-1.27-.38a.9.9,0,0,0,0-1.79.88.88,0,0,0-.77,1,.86.86,0,0,0,.86.87Zm3,0a.9.9,0,0,0,0-1.79.89.89,0,0,0-.77,1,.86.86,0,0,0,.86.87h0Zm-4-3.53a.91.91,0,0,0,.65-1,.86.86,0,0,0-.65-.73.9.9,0,0,0-.65,1A.87.87,0,0,0,132.3,204.57Zm5.23,0a.91.91,0,0,0,.65-1,.86.86,0,0,0-.65-.73.92.92,0,0,0-.11,1.77ZM135,202.85a.9.9,0,0,0,.65-1,.71.71,0,1,0-1.37.23.85.85,0,0,0,.61.8Zm-23-174.28a2.28,2.28,0,0,0,2.13-2.41,2.14,2.14,0,1,0-4.25,0,2.28,2.28,0,0,0,2.12,2.41Zm2.59,5.84C94.28,18.61,75.06,25.93,85.3,52.12c.18.36.52-.26,1.06-1.2-9.67-26.75,10.35-28.6,28.15-15.29Zm0,7.19V37.09C98.34,26,78.66,24.52,87.74,49.77c.5,1,2.27-6.63,7.45-3.61,1.38-3.95,5.33-5.87,8.82-4.31a6.91,6.91,0,0,1,2.5,1.95s1.45-4.56,8-2.3Zm-9.76,23.86c-.41-8.83,2-14.11-4.06-19.33-3.57,7.68.59,11.29,3.49,19.58ZM51.38,60.34c2.08,1.28,3.78-5.4.7-3.28,2.69.23,0,4.2-.91,1.36,0-.05-.52,1.3.25,1.87Zm-9.2-2.15c-1.69,3-.15,5.53,1.16,7.68-2.47-1.56-4.12,1.66-7.68-3.74,0,0,2.81.2,3.83-1a7.62,7.62,0,0,1-4.94-.25,14.67,14.67,0,0,0,7.68-2.79Zm-2,4.38c1.22,2.68-3.24,2.15-1.5-.18-1.47,0-1.47,2.33.5,2.56C41.55,65.53,41.73,62.77,40.17,62.57ZM150.76,106.9H127.41c1,.26,0,1.72,0,1.72H151a1.23,1.23,0,0,1-.36-1.58Zm2.62,4.3v29.44s.86-.84,1.43,0V111a.9.9,0,0,1-1.35.3Zm-28.55,29.47V111.2s-1.13.64-1.45-.2v29.64A1,1,0,0,1,124.83,140.67Zm2.45,4H151c-.77-.67,0-1.74,0-1.74H127.25a1.35,1.35,0,0,1,0,1.74ZM152,108.36a.67.67,0,0,0,.47-.78.63.63,0,0,0-.47-.52.67.67,0,0,0-.46.78A.64.64,0,0,0,152,108.36Zm1.45-.87c-.86,1.05,0,1.92.82.87S154.31,106.47,153.47,107.49Zm.61,3.18a.68.68,0,0,0,.47-.79.63.63,0,0,0-.47-.52.67.67,0,0,0-.46.78A.65.65,0,0,0,154.08,110.67Zm-27.17-3a.59.59,0,0,0-.69-.52.62.62,0,0,0-.46.52.57.57,0,0,0,.75.41.64.64,0,0,0,.36-.41Zm-3.08-.59c-.54.54.8,2.18,1.32,1.62s-.84-2.2-1.36-1.62Zm1,2.87a.59.59,0,0,0-.69-.52.62.62,0,0,0-.46.52.57.57,0,0,0,.75.41.64.64,0,0,0,.36-.41Zm28.69,31.59a.58.58,0,0,0,.69.52.62.62,0,0,0,.47-.52.6.6,0,0,0-.7-.52A.64.64,0,0,0,153.54,141.59Zm.77,1.61c-.9-1-1.7,0-.77,1S155.24,144.15,154.31,143.2Zm-2.78.72a.61.61,0,0,0,.56.64.64.64,0,0,0,0-1.28A.61.61,0,0,0,151.53,143.92Zm-27.42-3a.67.67,0,0,0-.47.78.63.63,0,0,0,.47.52.67.67,0,0,0,.46-.78A.62.62,0,0,0,124.11,140.93Zm-.53,3.55c.48.64,1.93-.89,1.43-1.48S123.06,143.82,123.58,144.48Zm2.54-1.15a.66.66,0,0,0-.46.78.62.62,0,0,0,.46.53.7.7,0,0,0,0-1.38ZM127.77,127c1.34,0,1.34-1.41,0-1.41S126.37,127,127.77,127Zm-.49-1.72c.67,0,.67-1.2,0-1.2a.62.62,0,0,0-.46.7.6.6,0,0,0,.41.5Zm0,3.23c.67,0,.67-1.2,0-1.2a.63.63,0,0,0,0,1.2Zm23.14-3.07c-1.34,0-1.34,1.4,0,1.4S151.82,125.36,150.42,125.39Zm.52,1.71a.61.61,0,0,0-.42.73.58.58,0,0,0,.42.48c.72,0,.72-1.23,0-1.21Zm0-3.22a.6.6,0,0,0-.42.72.58.58,0,0,0,.42.48c.72,0,.72-1.23,0-1.08ZM140.57,141h11.09V128.84a1.3,1.3,0,0,1-1.74-1.58c-2.06-.34-1.54-2.05.16-2.31-.39-.51-.37-1.84,1.58-1.71v-12.6H126.48v12.8c1-.38,2.27.46,1.77,1.59,2.06.33,1.52,2-.18,2.3.38.49.36,1.85-1.59,1.72V140.9h13.36c-.56,0-.63-2.3,0-2.56,0,0-1.22.33-1-.49-.5,0-1.07-.12-.84.87-2.4-3.25,5.41-1,4.53-4.42,0,0-3.33.15-3.71-1.8a3.61,3.61,0,0,1-1.48,2.95s0-.92-.4-1.21c-.23,1.16-1.34,2-1.2,2.74a2.51,2.51,0,0,1,0-2.76,2.26,2.26,0,0,0-.89,2.05,2.61,2.61,0,0,1-.56-2.56c-2.27-3.36-.73,2.56-3.38.71,0,0,1.32,0,1-.79a.6.6,0,0,1-.36-.73.91.91,0,0,1,.11-.22s-1,.34-1-.43c0,0-1.06-.16-.43.89-1.54-.51-.47-2.94,1.68-1.89,0,0,1-1.69-.64-2.1,0,0,1.52-1.59,1.93,2h2.26c-1.54-1.67-2.53-5.53.79-5.53,2.54,0,1.64,1.61,3.65,1.61a4.3,4.3,0,0,0-2.6-3.89s.77,1,.63,1.61c0,0-.36-.43-.72-.3,0,0,.13.64.47.81a2.51,2.51,0,0,1-2.08-1.25.91.91,0,0,0,.11.72,1.9,1.9,0,0,1-1.9-1.15.45.45,0,0,1-.7,0,.52.52,0,0,1-.14-.21c.16,1,.14,2.56-1.13,2.56,0,0,.84-.84.41-1.2,0,0-.93,0-.59-.8,0,0-.41,1.16-.93.34,0,0-.79-.21-.5.77-.84-.47-.72-2.72.93-2.13,0,0-.75-.43-.48-.87,0,0-.15-1.33-.79-.31,0-1,1.45-1.84,2.49.49,0,0,1.59-.44,2-1.43,0,0-1.13-.18-1.22-.77.86.2,1.29-1,2-1.15-.95-.31-1.72,1.4-2.51-.16,0,0,1.2.31,1.45-.54,0,0-1.13.39-1.43-.61,0,0,1.27,0,1.27-.54a1.88,1.88,0,0,1-.82-1.84c-.61.84-2.58.69-2.26-.79,2.08,1.84,2.65-3.64.43-2.33,0,0,1.47-2.82,2.74.82,0,0,1.31,0,.66-1.34,1.72.49,0,2.33,0,3.08S137.8,117,138,118c0,0-.34-1.51,0-1.84,0,0,1.07,1.59,1.95.82,0,0-.91-.44-.93-1.15h.5c0-2.41-2.26.87-3.22-.59-.77-1,.64-1.08-.24-2.74,1.78.51.29,2.41,1.44,2.41s1.61-2.31,2.81.84h.48c.68-4-2.74-.72-3.08-3.61,1-.28,3-1.59,4.12-.56a1.54,1.54,0,0,1,1.52.38,1.69,1.69,0,0,1-.52.92c1,.62.86,1.57,1.58,1.85a.74.74,0,0,1-1,.18s.59.61.45,1,.68.72,1.11.59a1.29,1.29,0,0,1-1.24.36c.59,1,1.11,2,1.63,2.13a1.83,1.83,0,0,1-2.08-.69s0,1.84.63,2.35c0,0-.95-.36-1.13-1.07.43,1.84-.25,2.89.22,3.43,0,0-.81,0-1.24-1.36,0,3.33,2,3.33,2,5.73,0,3.92,3.53,3.69,3.53.39,0-2.79-2.27-3.07-2.45-5.56,0-3.71,5.64-6.88,2.27-8.86-.89-.48-.61,1.54.16,1.16,0,0,0,.66-.89.48.68,1.16.28,3.36-1.4,2.77,1.9-1.77-.34-2.72-.34-4,2.11-6.63,6.79,1.49,3.12,4.31,0,0,1.48-.39,1.59-1.49,0,2.74-3.44,3.2-3,5.53s3.53,5.12.72,8.45c-1.9,2.25-3.82-1.54-4,.36s2.92-.54,2.81,2c1.54,0,1,1.1,1.9,1.31-1.38.69-2-1-2.47.15,1.34.21,2.08,1.28,2.67,1a1.79,1.79,0,0,1-1.9.3,1.74,1.74,0,0,0,1.63.8,1.53,1.53,0,0,1-2.06.15,1.45,1.45,0,0,0,1.54.59,1.49,1.49,0,0,1-2.26,0s0,.82.54.9a1.45,1.45,0,0,1-1.83-.57.49.49,0,0,1-.72.19.52.52,0,0,1-.17-.19s2,2.38-.22,2.56c0,0,.74-.64,0-1,0,0-.89.31-.8-.46,0,0,0,1.28-.86.94,0,0,0,1,.84.57a2.69,2.69,0,0,1-1,.79Zm-2.45-20.71a1.15,1.15,0,0,1,.93-1.18c-.57.52-.16,1.9-.16,1.9a1.85,1.85,0,0,0,1.16-1.13,3.51,3.51,0,0,0,.31,2,2.56,2.56,0,0,0,.86-1.49,2.64,2.64,0,0,0,1,1.62,12,12,0,0,0-.34-3.54l1,1.28v-1.92l1.15.75-1-2h.7c0-.44-1.63-1.79-.36-1.87,0,0-.43-1.28-1.09-1.59,0,0,.46-.41.48-.64a1,1,0,0,0-1-.15c-2.27-1.15-2.27.28-3.76.15.68,2.56,3.46-1.43,3.28,3.41-.11,3.3-2.4,2-2.69,1.82-.59.58-.34,2.58-.34,2.58Zm.34,10.5c.14,1,1.56,2.84,4.39,2.92.84,2.32.16,2.81-4.73,3.84,0,0,2.06-.31,2.11.58,0,0-1,1.34,0,2.26-.39-1.31,1.94-2.79,2.26-1.13a1.93,1.93,0,0,0-.72-1.77s1.42.26,1.47-.35c0,0,1.06.43,1.29-.23,0,0-.77,0-.54-.85,0,0,.83.72,1.24.36,0,0-1-.56-.9-1.2a.82.82,0,0,0,1,.28s-1.58-.85-.59-1.67c0,0-.74-.33-.13-.76-.5.35-4.17-2.05-1.36-3.05.47-1.69-2.49-5.91-2.27-8.24a7.69,7.69,0,0,1-.92,1.69c-.55-.44-.43-2.56-.43-2.56a9.64,9.64,0,0,1-1,1.51c-.23,0-.36-1.72-.36-1.72l-.86,1.2a6.37,6.37,0,0,1-.18-3.07c-1.18-.51-3.2-1.89-3.4-4a1.82,1.82,0,0,0,.75-1,1,1,0,0,1-1.29-.46s0,1.8-.84,1.87c2-.38.75,1.85,3.55,4.15a2.21,2.21,0,0,0-1.26.9,1.28,1.28,0,0,0,1.6.66s-2.56,2.43-4.23,2c0,0-.41-.84-.73-.89s.91,1.41-1,2.2c0,0,1.85-.64,2.26,1,0,0-.16-1.46.23-1.67,0,0,4.16,1,5.61-1.35.28,0,4,5.81.71,5.94-.09.07-.89.69-.68,2.61Zm.16-2.56c-2.11-3.07-5.73-.85-2.79,3.56,0,0-2.51.84-3,0a2.57,2.57,0,0,0-.34-1.34,1.32,1.32,0,0,1-1.92,1.41s1.78.8,1.54,2a4.71,4.71,0,0,0,.79-1.63s4.71,3.71,5.48.41a3.12,3.12,0,0,1-.2-4,2.94,2.94,0,0,1,.51-.49Zm9.69-12.11c1.7-4.71-4.66-5.66-2.6,0-.16-5.35,2.87-2.79,2.65-.08ZM140,112.54c-.25,0-.23-.21,0-.21s.38.13,0,.13Zm-36.23-2.77c-.93.23-.72-.51-.72-.51-1.32.33-1-.41-.91-.77-.48.21-1.09.72-1.47.26a2.29,2.29,0,0,0-.61,2.56,2.07,2.07,0,0,0-1.39,1.51c.91,0,1,.13,1,.13a1.49,1.49,0,0,0-.79,1.48,3.38,3.38,0,0,0,1.27-.67,1.35,1.35,0,0,0,0,1.62c1.06,0,1.58-1.41,1.58-1.41a2.58,2.58,0,0,0,1.14,1.94c.65-.28.63-2,.63-2,.57.69,1,.52,1,.52a1.5,1.5,0,0,0-.47-1.41,1.32,1.32,0,0,0,1.13,0,2.86,2.86,0,0,0-1.13-2.56.76.76,0,0,0-.23-.8Zm3.17,21.68s.5.36,1.15-.56c0,0,6.8,0,6.1-1.13-2.27-1.71,6.13-1.45,5.07.62,0,0-1,0-1.25.51a.81.81,0,0,1,1,.65.93.93,0,0,1,0,.37.91.91,0,0,1,1.54.26c0-.46-.45-3.38-1.47-3.69-.23.39-8.72-.61-3.71-1.81.83,0,3.19,0,3.19-.92s-1.9-.77-2.27-.77h-6.63c-4.08-.57-1.7-4.66,2.26-2.18v-.61a3.18,3.18,0,0,0,3,1s-1.25-.47-.54-1c-.23.28-2.63.25-1.95-1-3.65-.76-6.79.36-6.64,2.33,1.48,3.13,8,1.33,10.65,1.8,1.31,0,1.27.61.13.61H104.75c.27.38,0,1.2,0,1.2s-.93.34-1.11,0c0,2.31-1.84,1.54-2.27,0,0,.8-1.24,1-1.24,1l.31,1.23c-2.8,1.44-4.14,0-4.14,0-.27-1.25-.93-1.1-.93-1.1s.48.46.3.92c0,0-.86-.15-1.09.31.63.51,1,.41,1,.41s0,.72-1,1.05a1.3,1.3,0,0,0,1.81-1c4.08,3,8.74-4.22,15.53-2.79-4.32,1.13,3.42,3-3.94,3,0,0,0-1-.77-.93,0,0,.55.77.21,1a1.2,1.2,0,0,0-1,.13c1,.15,1.45.44.63.9Zm-8.58-17.51a5.52,5.52,0,0,1-1.41-4.32s-.54,1.12-1.2.33c0,0,.71,1.69-1,1.41,2.13.64,2.51,3.48,4.23,4C99.09,115.4,98.18,114.63,98.34,113.94Zm4-1.76a1.87,1.87,0,0,1-.59,1.25c0-1.3-.7-1.23-1-.33a1.53,1.53,0,0,1,.34-1.56c1.1.13,1.38.64,1.38.64Zm-1.23,10.24c.52.15.48.59.34.94s-.5-.43-.25-1Zm1.11,1.23a.56.56,0,0,1,.79-.32l.14.11c-.29.56-.84.15-.84.15Zm8.52-11.5c.81.51,8.22-1.25,8.58,1.26,0,1.63-2.27,1.81-2.27,1.81.55.54,1.63.41,3,.39s-.39.79-.39.79c1.36.51,1.07,1.49,1.07,1.49,1.67,2.56-.59,2.94-.59,2.94,0-1.87-.88-.59-1.38-.28a2.26,2.26,0,0,1-.09-1.41c-.64-.18-1,.69-1,.69-1.13-2,1-1.92,1-1.92-.18-1.53-2.1-1-4.19-.82,3.76,3.3-.88,2.18-.88,2.18.57,0,.7-.59-.11-.59-.46,1.77-1.45,1.23-1.77.67,1.52-.34-.86-1-.61,0-.88,0-1.41-1.21-1.2,0-2-1.54-2.51,1.81-4,0,1.06,0,.93-.49.93-.49s-.5-.36-1.45.28c-.38-1.51,1.83-1.38,1.83-1.38a1.75,1.75,0,0,0-1.33-.39,1.45,1.45,0,0,1,2.09-.69,1.7,1.7,0,0,1,.69.9c1.23-.36,2.27-2.38.5-2.38-1.11,0-3.76,2.2-5.86,2.2-1.68,1.59.16,1.84.68,1.13.13,1.51-1.84,1.69-2.88.3h-.95c0,.44.66.52.66.52-1.11,1.2-1.63-.24-2.59-.41-.2.28.23.79.23.79-1,0-.75-1.13-1.9-1.1a1.71,1.71,0,0,1-2.55.55,2.11,2.11,0,0,1-.48-.55c.52.41,1.4-.62,1.4-.62-1.16.31-.79-.23-1.59-.28.19-1.35,1.88-1,1.88-1a1.06,1.06,0,0,0-1.17-1c.7-1.56,2.49-.38,2.6,1.23.91.62,3.33,0,3.17-1.33-.57.82-2,1.36-2.42-.82-.25,0-.34.59-.34.59-.8-.33-.61-2.25-.61-2.25-.41,0-.64.71-.64.71-.81-.61-.47-2-.47-2-1.79,1.22-1.77-.93-1.77-.93a2.25,2.25,0,0,0,1.93-.3,2.9,2.9,0,0,0-2.07-1.15c1.2-1.8,2.77,0,2.77,0,.36-.64-.3-1.28-.3-1.28,3-1.49.84,4.76,2.61,4.3a1.85,1.85,0,0,1,1.24-1.85A2.22,2.22,0,0,1,101,108l.19,0c0,1.12.72-.59,1.72.15-.73,1.1.65.23,1.36.74,0,0-.62.13-.53.41s1.2,0,1.25,1a.38.38,0,0,0-.54,0,2.32,2.32,0,0,1,.79,1.35c0-5.63,7.11-2.43,8-3.71.34.36-.36,1.38-.36,1.38a2.34,2.34,0,0,0,2.58-.59c.39.72-.59,1.31-.59,1.31,3.45.69,2.72-1.74,1.68-.87,2.4-3.07,2,4-4,1.61,0,1.18-1.67,1.41-1.67,1.41Zm-7,9.81c-.93.25-.72-.49-.72-.49-1.32.31-1-.44-.91-.79-.48.2-1.09.74-1.47.25a2.33,2.33,0,0,0-.61,2.56A2.05,2.05,0,0,0,98.65,125h1a1.51,1.51,0,0,0-.79,1.49,3.45,3.45,0,0,0,1.18-.44,1.34,1.34,0,0,0,0,1.62c1.06,0,1.58-1.39,1.58-1.39a2.59,2.59,0,0,0,1.14,1.92c.65-.28.63-2,.63-2,.57.72,1,.51,1,.51a1.45,1.45,0,0,0-.47-1.38,1.32,1.32,0,0,0,1.13,0A2.68,2.68,0,0,0,104,122.8s.25-.59-.14-.89Zm3.17-2.74s.5.33,1.15-.59c0-.13,6.8,0,6.1-1.13-2.27-1.71,6.13-1.43,5.07.64,0,0-1,0-1.25.51a.81.81,0,0,1,1,.65,1,1,0,0,1,0,.38c.32-.31,1.29-.67,1.54.23,0-.44-.45-3.36-1.47-3.66-.23.36-8.72-.62-3.71-1.82.83,0,3.19,0,3.19-1s-1.9-.74-2.27-.74h-6.63c-4.08-.59-1.7-4.68,2.26-2.18v-.64a3.1,3.1,0,0,0,3,1s-1.29-.51-.54-1c-.23.29-2.63.29-1.95-.94-3.65-.77-6.79.36-6.64,2.33,1.48,3.09,8,1.3,10.65,1.76,1.31,0,1.27.64.13.64H104.75c.27.39,0,1.21,0,1.21s-.93.33-1.11,0c0,2.27-1.84,1.51-2.27,0,0,.76-1.24,1-1.24,1l.31,1.22c-2.8,1.41-4.14,0-4.14,0-.27-1.22-.93-1.07-.93-1.07s.48.46.3.92c0,0-.86-.18-1.09.31.63.51,1,.41,1,.41s0,.69-1,1a1.3,1.3,0,0,0,1.81-1c4,3,8.72-4.25,15.51-2.81-4.26,1.1,3.28,3-3.94,3,0,0,0-1-.77-.92,0,0,.54.77.21,1a1.21,1.21,0,0,0-1.05,0c1.05.33,1.48.62.66,1.08Zm26.33,30.72c.14-.36.18-.8-.34-.95a.85.85,0,0,0,.43.92Zm.77.28c.21-.33.52-.59.93-.21-.22.52-.84.18-.84.18Zm1.52-1.69c-.93.23-.72-.51-.72-.51-1.32.33-1-.41-.91-.77-.48.2-1.09.72-1.47.25a2.31,2.31,0,0,0-.61,2.44,2,2,0,0,0-1.38,1.51h1a1.49,1.49,0,0,0-.79,1.48,3.43,3.43,0,0,0,1.18-.43,1.47,1.47,0,0,0-.11,1.61c1.06,0,1.58-1.41,1.58-1.41a2.56,2.56,0,0,0,1.25,2c.65-.28.63-2,.63-2,.57.69,1,.51,1,.51a1.49,1.49,0,0,0-.47-1.4,1.32,1.32,0,0,0,1.13,0,2.86,2.86,0,0,0-1.13-2.56.66.66,0,0,0-.14-.8Zm-5.41,4.25a5.54,5.54,0,0,1-1.41-4.33s-.54,1.13-1.2.33c0,0,.71,1.69-1,1.41,2.13.64,2.51,3.48,4.24,4.05.09,0-.75-.8-.57-1.49Zm4-1.77a1.92,1.92,0,0,1-.59,1.26c0-1.31-.7-1.23-1-.34-.39-.76.34-1.56.34-1.56,1.11.1,1.38.62,1.38.62Zm8.4,0c.81.51,8.22-1.25,8.58,1.26,0,1.63-2.27,1.81-2.27,1.81.55.54,1.63.41,3,.39s-.39.79-.39.79c1.36.51,1.07,1.49,1.07,1.49,1.67,2.56-.59,2.94-.59,2.94,0-1.87-.88-.59-1.38-.28a2.22,2.22,0,0,1-.32-1.36c-.63-.18-1,.69-1,.69-1.13-2,1-1.92,1-1.92-.19-1.53-2.11-1-4.19-.82,3.76,3.31-.89,2.18-.89,2.18.57-.13.71-.59,0-.59-.45,1.77-1.45,1.23-1.76.67,1.51-.34-.86-1-.61,0-.89,0-1.41-1.21-1.2,0-2-1.54-2.52,1.81-4,0,1.06,0,.93-.49.93-.49s-.5-.36-1.45.28c-.39-1.51,1.83-1.38,1.83-1.38a1.72,1.72,0,0,0-1.33-.38,1.44,1.44,0,0,1,2.09-.69,1.68,1.68,0,0,1,.69.89c1.22-.36,2.26-2.38.5-2.38-1.11,0-3.76,2.2-5.87,2.2-1.67,1.59.16,1.84.68,1.13.14,1.51-1.83,1.69-2.87.3h-.86c0,.44.65.52.65.52-1.11,1.2-1.63-.23-2.58-.41-.2.28.23.79.23.79-1,0-.75-1.13-1.9-1.1a1.71,1.71,0,0,1-2.55.55,2,2,0,0,1-.49-.55c.52.41,1.41-.61,1.41-.61-1.16.3-.8-.23-1.59-.29.18-1.35,1.88-1,1.88-1a1.07,1.07,0,0,0-1.18-.95c.71-1.56,2.49-.38,2.61,1.23.9.62,3.33,0,3.17-1.33-.57.82-2,1.36-2.43-.82-.24,0-.33.59-.33.59-.8-.33-.62-2.25-.62-2.25-.4,0-.63.72-.63.72-.82-.62-.48-2.05-.48-2.05-1.78,1.23-1.76-.92-1.76-.92a2.27,2.27,0,0,0,1.92-.31,2.86,2.86,0,0,0-2.06-1.15c1.2-1.8,2.76,0,2.76,0,.37-.64-.29-1.28-.29-1.28,2.94-1.49.84,4.76,2.6,4.3a1.87,1.87,0,0,1,1.25-1.85,2.22,2.22,0,0,1,1.22-2.71l.18,0c0,1.13.73-.59,1.72.15-.72,1.1.66.23,1.36.75,0,0-.61,0-.52.4s1.2,0,1.25,1a.39.39,0,0,0-.55,0,2.29,2.29,0,0,1,.8,1.35c0-5.63,7.11-2.56,8-3.71.34.36-.36,1.38-.36,1.38a2.35,2.35,0,0,0,2.58-.58c.39.71-.59,1.3-.59,1.3,3.44.69,2.72-1.74,1.68-.87,2.4-3.07,2,4-4,1.61,0,1.08-1.65,1.31-1.65,1.31Zm-3.83,7.07s.5.33,1.16-.59c0,0,6.79,0,6.09-1.13-2.27-1.71,6.13-1.43,5.07.64,0,0-1,0-1.25.51a.81.81,0,0,1,1,.65,1,1,0,0,1,0,.38c.32-.31,1.29-.67,1.54.23,0-.44-.45-3.35-1.47-3.66-.23.36-8.72-.62-3.71-1.82.83,0,3.19,0,3.19-.95s-1.9-.74-2.27-.74h-6.72c-4.08-.59-1.7-4.68,2.26-2.18v-.64a3.1,3.1,0,0,0,3,1s-1.27-.51-.54-1c-.23.29-2.63.29-2-.94-3.65-.77-6.79.36-6.64,2.33,1.48,3.09,8,1.3,10.65,1.76,1.31,0,1.27.64.13.64h-11.7c.27.39,0,1.21,0,1.21s-.93.33-1.11,0c0,2.28-1.84,1.51-2.27,0,0,.76-1.24,1.05-1.24,1.05l.31,1.23c-2.8,1.4-4.14,0-4.14,0-.27-1.23-.93-1.08-.93-1.08s.48.46.3.92c0,0-.86-.18-1.09.31.63.51,1,.41,1,.41s0,.69-1,1a1.3,1.3,0,0,0,1.81-1c4,3,8.72-4.25,15.51-2.81-4.26,1.1,3.28,3-3.94,3,0,0,0-1-.77-.92,0,0,.55.77.21,1a1.22,1.22,0,0,0-1.05.13c1,.2,1.48.43.66.9Zm-5.8,3.5c.52.18.48.59.34.95s-.49-.48-.25-1.05Zm1.11,1.26c.21-.33.52-.59.93-.21-.22.41-.84.11-.84.11Zm1.52-1.69c-.93.23-.72-.51-.72-.51-1.32.3-1-.41-.91-.8-.48.23-1.09.75-1.47.26a2.33,2.33,0,0,0-.61,2.56,2,2,0,0,0-1.38,1.51h1a1.44,1.44,0,0,0-.79,1.46,3.45,3.45,0,0,0,1.18-.44c-.57,1.05-.11,1.62-.11,1.62,1.06,0,1.58-1.39,1.58-1.39a2.61,2.61,0,0,0,1.13,2c.66-.31.64-2,.64-2,.56.72,1,.52,1,.52a1.45,1.45,0,0,0-.48-1.39,1.34,1.34,0,0,0,1.14,0,2.84,2.84,0,0,0-1.14-2.56s.37-.59,0-.89Zm-5.41,4.25a5.54,5.54,0,0,1-1.41-4.33s-.54,1.1-1.2.34c0,0,.71,1.66-1,1.38,2.13.66,2.51,3.48,4.24,4.07.09-.1-.75-.9-.57-1.56Zm4-1.79a2,2,0,0,1-.59,1.28c0-1.31-.7-1.26-1-.36-.39-.74.34-1.54.34-1.54,1.11,0,1.38.51,1.38.51Zm18.11,6.19a3.33,3.33,0,0,0-1.34-2.15c-.22.36-8.71-.61-3.71-1.82.84,0,3.19,0,3.19-.94s-1.9-.75-2.26-.75h-6.77c-4.08-.58-1.7-4.68,2.26-2.2v-.61a3.18,3.18,0,0,0,3,1s-1.36-.49-.54-1c-.23.28-2.63.28-2-1-3.65-.79-6.79.33-6.64,2.33,1.48,3.1,8,1.31,10.65,1.77,1.31,0,1.27.61.13.61h-11.7c.27.39,0,1.23,0,1.23s-.93.33-1.11,0c0,2.3-1.84,1.54-2.27,0,0,.79-1.24,1.08-1.24,1.08l.31,1.22c-2.8,1.41-4.14,0-4.14,0-.27-1.25-.93-1.07-.93-1.07a.94.94,0,0,1,.3.92s-.86-.18-1.09.31c.63.51,1,.41,1,.41s0,.69-1,1.05a1.32,1.32,0,0,0,1.81-1c4.12,2.95,8.81-4.25,15.6-2.86-4.25,1.1,3.29,3-3.94,3,0,0,0-1-.77-.89,0,0,.55.74.21,1a1.21,1.21,0,0,0-1.05,0c1,.18,1.39.46.57.9,0,0,.5.35,1.16-.57,0,0,6.79,0,6.09-1.12-2.27-1.72,6.13-1.44,5.07.61,0,0-1,0-1.25.51a.88.88,0,0,1,1,.77.89.89,0,0,1,0,.28s.75-.59,1.09-.28a3.5,3.5,0,0,0,.32-.87ZM133,174.13c.52.15.47.59.34,1s-.54-.49-.3-1.05Zm1.11,1.23c.2-.34.52-.59.93-.21-.27.44-.89,0-.89,0Zm1.52-1.69c-.93.25-.73-.51-.73-.51-1.31.33-1-.41-.9-.77-.48.2-1.09.71-1.48.25a2.31,2.31,0,0,0-.61,2.56,2.09,2.09,0,0,0-1.38,1.51h1a1.49,1.49,0,0,0-.79,1.49,3.33,3.33,0,0,0,1.17-.44c-.56,1.05-.11,1.62-.11,1.62,1.07,0,1.59-1.41,1.59-1.41a2.59,2.59,0,0,0,1.13,1.94c.66-.28.63-2,.63-2,.57.69,1,.51,1,.51a1.49,1.49,0,0,0-.47-1.4,1.32,1.32,0,0,0,1.13,0,2.86,2.86,0,0,0-1.13-2.56s.32-.62-.07-.92Zm-5.37,4.09a5.47,5.47,0,0,1-1.4-4.32s-.55,1.12-1.2.33c0,0,.7,1.69-1,1.41,2.13.66,2.51,3.48,4.24,4A1.68,1.68,0,0,1,130.22,177.76Zm4-1.76a1.89,1.89,0,0,1-.59,1.25c0-1.28-.7-1.23-1-.33-.39-.74.34-1.56.34-1.56a1.75,1.75,0,0,1,1.29.69Zm20.38-30.57H123.45v45.49a59.07,59.07,0,0,0,19.11-7.68c-.59-.31-1.18-1.05-.95,0-2-1.53-2.51,1.84-4,0,1.06,0,.93-.51.93-.51s-.5-.36-1.45.28c-.38-1.51,1.83-1.38,1.83-1.38a1.71,1.71,0,0,0-1.33-.38,1.45,1.45,0,0,1,2.09-.7,1.7,1.7,0,0,1,.69.9c1.23-.36,2.27-2.38.5-2.38-1.11,0-3.76,2.2-5.86,2.2-1.68,1.59.16,1.84.68,1.13.13,1.51-1.84,1.69-2.88.3h-.86c0,.44.66.54.66.54-1.11,1.18-1.63-.23-2.58-.43-.21.28.22.79.22.79-1,0-.75-1.13-1.9-1.1a1.71,1.71,0,0,1-2.55.55,2,2,0,0,1-.48-.55c.52.41,1.4-.61,1.4-.61-1.16.3-.79-.24-1.59-.26.19-1.38,1.88-1,1.88-1a1.06,1.06,0,0,0-1.17-.95c.7-1.56,2.49-.38,2.6,1.23.91.62,3.33,0,3.17-1.3-.57.79-2,1.33-2.42-.85-.25,0-.34.59-.34.59-.79-.31-.61-2.25-.61-2.25-.41,0-.64.71-.64.71-.81-.61-.47-2-.47-2-1.79,1.23-1.77-.92-1.77-.92a2.29,2.29,0,0,0,1.93-.31,2.88,2.88,0,0,0-2.06-1.13c1.2-1.82,2.76,0,2.76,0,.36-.64-.3-1.28-.3-1.28,2.95-1.46.84,4.76,2.61,4.3a1.84,1.84,0,0,1,1.24-1.84,2.23,2.23,0,0,1,1.22-2.71l.19-.06c0,1.13.72-.58,1.72.16-.73,1.12.65.23,1.36.74,0,0-.62.13-.53.41s1.21,0,1.25,1a.42.42,0,0,0-.54,0,2.35,2.35,0,0,1,.79,1.36c0-5.63,7.11-2.56,8-3.69.34.36-.36,1.36-.36,1.36a2.34,2.34,0,0,0,2.58-.49c.39.72-.58,1.31-.58,1.31,3.44.69,2.71-1.72,1.67-.87,2.4-3.07,2,4-4,1.61,0,.95-1.67,1.18-1.67,1.18h6.93a28,28,0,0,0,2.26-4.71l-1.06.56a2.12,2.12,0,0,1-.32-1.33c-.63-.2-1,.67-1,.67-1.13-2,1-1.9,1-1.9-.18-1.53-2.1-1.07-4.18-.84,3.75,3.33-.89,2.17-.89,2.17.57,0,.7-.59,0-.59-.45,1.77-1.45,1.26-1.76.7,1.51-.34-.86-1-.62,0-.88,0-1.4-1.18-1.2,0-2-1.57-2.51,1.81-4,0,1.06,0,.92-.49.92-.49s-.49-.38-1.44.26c-.39-1.52,1.83-1.36,1.83-1.36-.41-.51-1.34-.39-1.34-.39a1.46,1.46,0,0,1,2.09-.7,1.67,1.67,0,0,1,.7.88c1.22-.33,2.26-2.35.5-2.35-1.11,0-3.76,2.2-5.87,2.2-1.67,1.59.16,1.84.68,1.1.14,1.54-1.83,1.69-2.87.31h-.86c0,.43.65.54.65.54-1.11,1.2-1.63-.23-2.58-.44-.2.31.23.79.23.79-1,0-.75-1.1-1.9-1.07a1.71,1.71,0,0,1-2.55.55,2,2,0,0,1-.49-.55c.52.38,1.41-.62,1.41-.62-1.16.31-.8-.23-1.59-.28.18-1.35,1.88-1,1.88-1-.34-1.18-1.18-1-1.18-1,.7-1.54,2.49-.39,2.61,1.25.9.62,3.32,0,3.17-1.33-.57.79-2,1.36-2.43-.84-.25,0-.34.58-.34.58-.79-.3-.61-2.25-.61-2.25-.41,0-.63.72-.63.72-.82-.62-.48-2-.48-2-1.79,1.22-1.76-1-1.76-1a2.2,2.2,0,0,0,1.92-.31,2.81,2.81,0,0,0-2.06-1.12c1.2-1.82,2.76,0,2.76,0,.37-.64-.29-1.31-.29-1.31,2.94-1.46.84,4.79,2.6,4.33a1.87,1.87,0,0,1,1.25-1.87,2.21,2.21,0,0,1,1.22-2.71l.18-.06c0,1.15.73-.56,1.72.16-.72,1.12.66.25,1.36.74,0,0-.61,0-.52.43s1.2,0,1.25,1a.39.39,0,0,0-.55,0,2.21,2.21,0,0,1,.8,1.35c0-5.63,7.11-2.56,8-3.71.34.36-.36,1.38-.36,1.38a2.35,2.35,0,0,0,2.58-.58c.38.71-.59,1.3-.59,1.3,3.44.67,2.72-1.74,1.68-.9,2.4-3,2,4-4,1.64,0,.95-1.68,1.18-1.68,1.18.82.49,8.22-1.25,8.58,1.25,0,1.62-2.26,1.8-2.26,1.8.54.53,1.63.43,3,.38s-.38.79-.38.79a2.33,2.33,0,0,1,1,.8,86.85,86.85,0,0,0,1.95-23m-7.95,34.63c-1.95-.53-.79-1.86,1.27-1.51a7.32,7.32,0,0,0,.52-.69h-12c.27.39,0,1.21,0,1.21s-.93.33-1.11,0c0,2.3-1.84,1.51-2.27,0,0,.76-1.24,1-1.24,1l.31,1.22c-2.8,1.44-4.14,0-4.14,0-.27-1.22-.93-1.07-.93-1.07s.48.46.3.92c0,0-.86-.18-1.09.31.63.51,1,.41,1,.41s0,.71-1,1a1.3,1.3,0,0,0,1.81-1c4,3,8.72-4.25,15.51-2.81-4.26,1.1,3.28,3-3.94,3,0,0,0-1-.77-.92,0,0,.55.77.21,1a1.21,1.21,0,0,0-1.05,0c1,.15,1.39.44.57.9,0,0,.5.33,1.15-.59A30.8,30.8,0,0,0,144,182a21.55,21.55,0,0,0,2.76-2.23Zm2.47-3.17h-7.86c-4.08-.59-1.7-4.68,2.26-2.18v-.61a3.11,3.11,0,0,0,3,1s-1.4-.41-.54-1c-.23.28-2.63.26-2-1-6.34-1.74-9.44,4-2.83,4.09h7.52a2.6,2.6,0,0,0,.43-.33ZM98.34,126.18a5.5,5.5,0,0,1-1.41-4.35s-.54,1.12-1.2.36c0,0,.71,1.66-1,1.38,2.13.66,2.51,3.48,4.23,4C99.09,127.61,98.18,126.85,98.34,126.18Zm4-1.79a1.87,1.87,0,0,1-.59,1.25c0-1.28-.7-1.23-1-.33-.39-.74.34-1.54.34-1.54,1.1.23,1.38.62,1.38.62Zm16.41,20.3c-.34-.77-.22-1.1-.22-1.1-.64-.21-1,.66-1,.66-1.14-2,1-1.89,1-1.89-.18-1.54-2.11-1.08-4.19-.85,3.76,3.33-.88,2.18-.88,2.18.56,0,.7-.59-.12-.59-.45,1.77-1.44,1.26-1.76.69,1.52-.33-.86-1-.61,0-.89,0-1.41-1.17-1.2,0-2-1.56-2.52,1.82-4,0,1.06,0,.93-.48.93-.48s-.5-.39-1.45.25c-.39-1.48,1.83-1.35,1.83-1.35-.4-.52-1.33-.39-1.33-.39a1.46,1.46,0,0,1,2.08-.71,1.69,1.69,0,0,1,.7.89c1.22-.33,2.27-2.35.5-2.35-1.11,0-3.76,2.2-5.86,2.2-1.68,1.58.15,1.84.67,1.1.14,1.53-1.83,1.69-2.87.31h-.84c0,.4.64.46.64.46-.53.56-.86.56-1.23.38a4.11,4.11,0,0,1-.27.51Zm-19.29-9.35h.27a2.21,2.21,0,0,1,1.22-2.7,1.06,1.06,0,0,1,.19-.06c0,1.15.72-.56,1.72.15-.73,1.13.65.26,1.36.75,0,0-.62.12-.53.43s1.2,0,1.25,1a.4.4,0,0,0-.54,0,2.22,2.22,0,0,1,.79,1.36c0-5.63,7.11-2.56,8-3.71.34.36-.36,1.38-.36,1.38a2.35,2.35,0,0,0,2.58-.59c.39.72-.59,1.31-.59,1.31,3.45.66,2.72-1.74,1.68-.9,2.4-3,2,4-4,1.64,0,.95-1.67,1.18-1.67,1.18.81.48,8.22-1.26,8.58,1.25,0,1.62-2.27,1.79-2.27,1.79.55.57,1.63.44,3,.39s-.39.79-.39.79c1.36.54,1.07,1.49,1.07,1.49.88,1.33.74,2,.36,2.43h1.34V106.9H91.16v24.3s3.69,0,3.76-.92c-1.16.3-.79-.26-1.59-.29.19-1.35,1.88-1,1.88-1a1.05,1.05,0,0,0-1.17-.95c.7-1.56,2.49-.38,2.6,1.25.91.59,3.33,0,3.17-1.33-.57.8-2,1.33-2.42-.84-.25,0-.34.59-.34.59-.8-.31-.61-2.26-.61-2.26-.41,0-.64.72-.64.72-.81-.61-.47-2-.47-2-1.79,1.23-1.77-1-1.77-1a2.29,2.29,0,0,0,1.93-.31,2.87,2.87,0,0,0-2.07-1.12c1.2-1.82,2.77,0,2.77,0a1.19,1.19,0,0,0-.3-1.31c3-1.46.84,4.79,2.61,4.3a1.84,1.84,0,0,1,1.24-1.84,2.22,2.22,0,0,1,1.22-2.71l.19-.06c0,1.13.72-.58,1.72.16-.73,1.12.65.23,1.36.74,0,0-.62,0-.53.41s1.2,0,1.25,1a.42.42,0,0,0-.54,0,2.43,2.43,0,0,1,.72,1.56c0-5.63,7.11-2.56,8-3.68.34.36-.37,1.35-.37,1.35a2.33,2.33,0,0,0,2.59-.58c.38.71-.59,1.3-.59,1.3,3.44.69,2.71-1.71,1.67-.87,2.4-3,2,4-4,1.64,0,1-1.67,1.18-1.67,1.18.81.48,8.22-1.28,8.58,1.25,0,1.61-2.26,1.79-2.26,1.79.54.54,1.63.41,3,.39s-.38.79-.38.79c1.35.54,1.06,1.49,1.06,1.49,1.68,2.56-.59,2.94-.59,2.94,0-1.87-.88-.59-1.38-.28a2.2,2.2,0,0,1-.32-1.33c-.63-.21-1,.66-1,.66-1.13-2,1-1.92,1-1.92-.18-1.53-2.11-1.05-4.19-.82,3.76,3.33-.88,2.18-.88,2.18.56-.13.7-.59-.12-.59-.45,1.77-1.45,1.23-1.76.69,1.51-.36-.86-1-.62,0-.88,0-1.4-1.18-1.2,0-2-1.56-2.51,1.82-4,0,1.06,0,.93-.51.93-.51s-.5-.36-1.45.28C104.79,129.84,107,130,107,130c-.41-.49-1.34-.36-1.34-.36a1.46,1.46,0,0,1,2.09-.71,1.69,1.69,0,0,1,.7.89c1.22-.33,2.26-2.36.5-2.36-1.11,0-3.76,2.18-5.87,2.18-1.67,1.61.16,1.84.68,1.13.14,1.51-1.83,1.69-2.87.3h-.75c0,.44.66.54.66.54-1.11,1.18-1.63-.23-2.59-.43-.2.3.23.79.23.79-1,0-.75-1.13-1.9-1.07a2.88,2.88,0,0,1-.86.81,1.31,1.31,0,0,1,.56.77,4.43,4.43,0,0,1,3.15,2.89m.48,7.68c4.1-.64,5.39-4.53,12.11-3.45,0,0-1.65.41-1.45,1.23s1.75.74,1,1.46a3.7,3.7,0,0,1-3.51.36s0-1-.77-.9c0,0,.55.74.21,1a1.21,1.21,0,0,0-1,0c1,.18,1.39.46.57.9a1.08,1.08,0,0,0,1.36-.54s6.54,0,5.89-1.15c-2.27-1.72,6.13-1.44,5.07.61,0,0-1,0-1.25.51a.88.88,0,0,1,1,.78.82.82,0,0,1,0,.27c.32-.33,1.31-.66,1.54.23,0-.43-.45-3.37-1.47-3.66-.23.36-8.72-.61-3.71-1.81.83,0,3.19,0,3.19-1s-1.9-.74-2.27-.74h-6.72c-4.08-.59-1.7-4.69,2.26-2.2v-.7a3.18,3.18,0,0,0,3,1s-1.34-.51-.54-1c-.23.29-2.63.29-1.95-.94-3.65-.8-6.79.33-6.64,2.33,1.48,3.09,8,1.3,10.65,1.76,1.31,0,1.27.62.13.62H104.75c.27.38,0,1.23,0,1.23s-.93.33-1.11,0c0,2.3-1.84,1.53-2.27,0,0,.79-1.24,1.07-1.24,1.07l.31,1.23a6.11,6.11,0,0,1-.79.33,3.58,3.58,0,0,1,.23,1Zm1.33-8.31c.52.17.48.58.34.94s-.59-.51-.34-1.07Zm1.11,1.25c.21-.33.52-.59.93-.21a.81.81,0,0,1-.93.08Zm1.52-1.69c-.93.23-.72-.51-.72-.51-1.32.31-1-.41-.91-.8-.48.23-1.09.75-1.47.29a2.29,2.29,0,0,0-.61,2.43,2,2,0,0,0-1.38,1.51h1a1.43,1.43,0,0,0-.79,1.46,3.45,3.45,0,0,0,1.18-.44c-.57,1,0,1.61,0,1.61,1.06,0,1.58-1.38,1.58-1.38a2.62,2.62,0,0,0,1.14,1.95c.65-.31.63-2,.63-2,.57.72,1,.51,1,.51a1.45,1.45,0,0,0-.47-1.38,1.32,1.32,0,0,0,1.13,0,2.81,2.81,0,0,0-1.13-2.56s.16-.51-.23-.72Zm-5.3,5.5c.18.16.32,0,.55.21s-.91-.8-.66-1.46a2.32,2.32,0,0,1-.66-.82c-.34.13-1.24.49-1.29.54a4.45,4.45,0,0,1,2.06,1.41Zm3.9-3a2,2,0,0,1-.59,1.28c0-1.31-.7-1.26-1-.36-.39-.74.34-1.54.34-1.54,1,0,1.29.49,1.29.49Z"/></svg>