<?xml version="1.0" encoding="utf-8"?>
<!-- Generator: Adobe Illustrator 25.3.1, SVG Export Plug-In . SVG Version: 6.00 Build 0)  -->
<svg version="1.1" id="Layer_1" xmlns="http://www.w3.org/2000/svg" xmlns:xlink="http://www.w3.org/1999/xlink" x="0px" y="0px"
	 viewBox="0 0 163.9 106.6" style="enable-background:new 0 0 163.9 106.6;" xml:space="preserve">
<style type="text/css">
	.st0{fill:#51C1E8;}
</style>
<g id="b3566485-33d8-47be-9323-c2f97eb0fef5">
	<g id="a46e0105-9db0-4b06-9d4b-36400e6069e4">
		<g>
			<path class="st0" d="M65.3,70.3c9.2,9.2,24.2,9.2,33.4,0s9.2-24.2,0-33.4s-24.2-9.2-33.4,0c0,0,0,0,0,0
				C56.1,46.2,56.1,61.1,65.3,70.3z"/>
			<path class="st0" d="M159.6,41.6C147.1,25.8,120.7,0,82,0S16.9,25.8,4.3,41.6c-5.6,7-5.7,17-0.2,24.2
				C16.2,81.4,42,106.6,82,106.6c10.4,0,20.7-1.7,30.5-5.2L99.1,87.9c-19,9.5-42.1,1.8-51.7-17.2s-1.8-42.1,17.2-51.7
				s42.1-1.8,51.7,17.2c7,13.9,4.9,30.6-5.2,42.3l16,16c12.7-7.4,23.9-17.2,32.8-28.8C165.3,58.7,165.3,48.7,159.6,41.6z"/>
		</g>
	</g>
</g>
</svg>
