<?xml version="1.0" standalone="no"?>
<!DOCTYPE svg PUBLIC "-//W3C//DTD SVG 20010904//EN"
 "http://www.w3.org/TR/2001/REC-SVG-20010904/DTD/svg10.dtd">
<svg version="1.0" xmlns="http://www.w3.org/2000/svg"
 width="852.000000pt" height="852.000000pt" viewBox="0 0 852.000000 852.000000"
 preserveAspectRatio="xMidYMid meet">
<metadata>
Created by potrace 1.14, written by Peter Selinger 2001-2017
</metadata>
<g transform="translate(0.000000,852.000000) scale(0.100000,-0.100000)"
fill="#000000" stroke="none">
<path d="M4928 7495 c-1 -2 -46 -6 -98 -9 -217 -14 -425 -68 -589 -154 -224
-115 -430 -315 -522 -507 -13 -27 -27 -52 -31 -55 -4 -3 -9 -15 -11 -25 -2
-11 -7 -29 -11 -40 -22 -59 -27 -72 -31 -90 -2 -11 -12 -54 -21 -95 -18 -76
-24 -365 -11 -453 8 -48 43 -181 61 -227 l14 -35 -217 -1 c-193 0 -305 -6
-381 -19 -14 -2 -45 -6 -70 -9 -49 -6 -67 -10 -150 -28 -30 -6 -59 -12 -65
-13 -5 0 -21 18 -34 40 -117 192 -321 373 -535 474 -82 38 -241 94 -301 105
-16 3 -43 8 -60 11 -16 3 -41 8 -55 10 -37 7 -106 15 -183 19 -37 3 -71 7 -76
11 -5 3 -12 1 -16 -4 -3 -5 -15 -8 -27 -6 -12 3 -54 5 -93 5 -38 0 -79 0 -90
0 -11 0 -49 0 -85 -1 -36 0 -72 0 -80 1 -8 0 -28 0 -45 -1 -39 -1 -46 -1 -70
4 -11 2 -34 1 -51 -3 -18 -4 -38 -4 -45 1 -7 4 -21 3 -31 -2 -12 -7 -18 -6
-18 1 0 7 -6 8 -19 1 -10 -6 -20 -8 -23 -6 -2 3 -38 5 -79 5 -41 0 -83 0 -94
0 -11 0 -49 0 -85 -1 -36 0 -72 0 -80 1 -8 0 -28 0 -45 -1 -39 -1 -46 -1 -70
4 -11 2 -34 1 -51 -3 -18 -4 -38 -4 -45 1 -7 4 -21 3 -31 -2 -12 -7 -18 -6
-18 1 0 7 -6 8 -15 3 -8 -5 -46 -6 -84 -3 -39 3 -81 2 -95 -1 -13 -4 -30 -3
-37 2 -7 4 -17 5 -21 3 -4 -3 -8 -1053 -8 -2335 l0 -2329 334 0 334 0 0 1006
c1 553 2 1008 5 1010 4 4 23 5 147 4 36 0 77 1 93 3 15 3 30 0 33 -5 4 -6 10
-5 16 3 7 10 8 8 3 -6 -31 -86 -37 -524 -9 -669 2 -12 6 -32 9 -46 2 -14 7
-45 10 -70 4 -25 11 -63 16 -85 5 -22 12 -51 15 -65 3 -14 19 -70 36 -125 18
-55 32 -102 33 -105 1 -3 9 -22 18 -44 9 -21 17 -41 17 -45 0 -12 61 -137 115
-236 314 -575 828 -978 1445 -1135 41 -10 86 -21 100 -23 14 -3 54 -11 90 -17
74 -14 83 -16 165 -25 33 -3 76 -8 95 -11 29 -3 281 -16 315 -16 68 1 337 13
371 17 24 3 65 7 92 10 117 14 139 16 162 20 14 3 43 7 65 11 22 3 47 7 55 9
8 2 31 7 50 10 19 3 53 10 75 16 22 5 48 11 58 14 10 2 27 7 37 10 10 3 27 8
37 10 85 19 303 92 397 134 27 11 55 21 62 21 8 0 14 5 14 10 0 6 5 10 11 10
19 0 200 92 205 104 2 6 3 172 2 368 l-3 356 -90 -54 c-49 -29 -94 -57 -100
-62 -20 -16 -322 -160 -390 -186 -38 -15 -79 -31 -90 -36 -22 -10 -221 -73
-270 -86 -16 -4 -34 -8 -40 -10 -57 -15 -147 -34 -175 -38 -19 -3 -44 -7 -55
-9 -11 -3 -51 -8 -90 -12 -38 -4 -79 -9 -90 -12 -11 -2 -105 -6 -210 -7 -169
-3 -255 2 -375 19 -19 3 -51 7 -70 10 -19 2 -64 11 -100 20 -36 9 -74 18 -84
20 -95 22 -356 134 -461 198 -38 23 -80 52 -91 62 -6 5 -22 17 -34 25 -54 36
-157 126 -214 189 -17 18 -45 48 -61 65 -95 98 -216 294 -288 467 -17 40 -69
214 -73 244 -2 11 -5 31 -8 45 -13 58 -16 78 -23 125 -9 68 -9 438 -1 500 10
68 18 109 24 114 2 2 0 9 -6 16 -6 8 2 12 28 13 20 2 51 5 67 8 32 6 43 8 120
19 28 4 53 9 56 11 3 2 21 6 40 9 70 12 247 78 329 122 74 39 146 88 213 143
58 47 201 210 220 250 4 8 16 29 27 45 24 36 71 132 69 141 0 4 3 10 8 13 28
18 91 275 98 394 2 40 4 74 5 77 1 3 2 24 2 47 0 41 11 52 63 58 6 1 24 4 40
8 17 4 48 9 70 13 22 3 51 7 65 10 58 10 174 17 305 17 123 1 188 -3 325 -18
56 -6 233 -36 241 -40 4 -3 24 -7 45 -11 20 -3 48 -10 61 -15 13 -5 23 -6 23
-3 0 4 7 0 17 -7 9 -8 17 -12 17 -10 1 6 90 -16 121 -29 11 -5 38 -14 60 -20
22 -6 49 -15 60 -20 18 -7 53 -21 65 -25 3 -1 18 -7 33 -13 16 -7 32 -12 36
-12 4 0 45 -22 91 -50 46 -27 84 -50 86 -50 2 0 46 -27 99 -60 53 -33 98 -60
101 -60 3 0 10 -5 17 -10 7 -6 41 -29 77 -52 36 -23 67 -44 70 -48 3 -3 33
-27 67 -53 72 -55 233 -216 233 -234 0 -6 4 -13 9 -15 12 -4 74 -106 93 -153
34 -83 48 -125 42 -125 -4 0 -2 -6 3 -12 5 -7 9 -60 8 -118 -1 -96 -13 -160
-36 -200 -5 -8 -12 -22 -15 -30 -3 -8 -10 -22 -15 -30 -5 -8 -12 -22 -16 -30
-16 -34 -89 -109 -156 -159 -87 -66 -178 -106 -312 -137 -41 -10 -328 -10
-390 0 -27 4 -68 12 -90 18 -22 6 -47 12 -55 13 -8 2 -15 4 -15 5 0 1 -11 3
-25 6 -14 2 -34 8 -45 13 -48 21 -110 46 -115 46 -7 1 -74 35 -135 70 -65 36
-169 109 -236 165 -98 82 -299 292 -299 312 0 5 -6 8 -12 8 -10 0 -12 -89 -10
-420 l2 -419 113 -75 c240 -159 511 -270 766 -312 18 -3 43 -8 55 -10 45 -10
97 -14 276 -18 165 -3 216 -1 350 19 30 5 115 24 170 39 78 22 220 83 232 100
4 6 8 9 9 6 1 -3 3 -261 4 -575 l1 -570 335 0 334 0 0 1008 0 1009 32 -4 c18
-2 33 0 33 5 0 4 4 6 8 3 7 -4 66 -6 175 -6 144 1 178 1 212 -3 11 -2 36 0 55
5 19 4 39 3 46 -2 6 -6 13 -7 16 -4 3 3 64 7 134 9 71 3 149 7 174 10 25 2 68
7 95 10 139 15 138 14 287 46 54 11 113 26 133 35 19 8 36 14 37 13 5 -3 54
14 106 37 28 13 55 23 58 23 4 0 10 3 13 8 3 5 19 15 35 23 56 29 66 35 66 42
0 5 5 8 11 8 37 0 252 212 322 318 118 179 174 328 206 553 10 67 7 386 -3
429 -4 14 -9 41 -12 60 -5 34 -39 161 -51 190 -3 8 -5 18 -5 23 1 4 -3 7 -9 7
-5 0 -8 4 -5 8 7 11 -64 149 -116 225 -128 188 -325 347 -548 440 -65 27 -204
72 -250 81 -116 23 -210 36 -304 41 -48 3 -92 7 -96 10 -5 3 -11 1 -14 -4 -3
-4 -23 -5 -45 -1 -21 4 -46 3 -55 -2 -10 -6 -16 -5 -16 2 0 7 -6 8 -19 1 -10
-6 -20 -8 -23 -6 -2 3 -38 5 -79 5 -41 0 -81 0 -89 0 -8 0 -26 1 -40 3 -14 1
-38 0 -55 -3 -16 -4 -42 -3 -57 1 -16 4 -28 3 -28 -2 0 -4 -10 -5 -22 0 -12 4
-37 5 -55 1 -19 -5 -33 -4 -33 2 0 5 -5 6 -10 3 -11 -7 -113 -8 -145 -2 -11 2
-34 1 -51 -3 -18 -4 -38 -4 -45 1 -7 4 -21 3 -31 -2 -12 -7 -18 -6 -18 1 0 6
-5 8 -12 4 -11 -7 -168 -8 -175 0 -2 2 -19 0 -37 -4 -19 -4 -40 -4 -47 1 -7 4
-21 3 -31 -2 -12 -7 -18 -6 -18 1 0 7 -6 8 -16 2 -8 -5 -34 -6 -57 -2 -23 3
-56 3 -74 -1 -17 -3 -37 -3 -44 2 -7 4 -20 4 -29 -1 -11 -6 -21 -5 -28 2 -8 8
-13 6 -19 -7 -4 -11 -7 -300 -7 -642 l1 -623 -21 15 c-12 8 -39 27 -61 42 -22
14 -42 29 -45 33 -3 3 -12 10 -20 13 -8 4 -27 15 -42 25 -14 9 -57 35 -95 56
-37 22 -151 88 -252 148 -101 59 -185 108 -187 108 -6 0 -214 133 -239 152 -5
5 -28 22 -50 38 -117 88 -264 237 -265 268 0 6 -3 12 -8 12 -6 0 -42 66 -63
115 -39 96 -46 259 -15 345 38 104 111 191 213 257 54 34 153 82 183 88 8 2
44 11 80 21 50 14 104 18 235 18 154 1 197 -2 275 -18 14 -3 39 -8 55 -12 224
-46 521 -215 738 -421 l27 -26 0 379 0 380 -82 50 c-206 125 -446 215 -668
250 -19 3 -46 7 -60 10 -14 3 -79 7 -145 10 -66 3 -125 7 -132 9 -6 2 -13 2
-15 0z m-3348 -1699 c104 -14 192 -35 255 -62 17 -7 49 -20 73 -29 23 -10 42
-20 42 -24 0 -5 11 -13 24 -19 14 -6 35 -19 47 -29 36 -28 129 -133 129 -144
0 -3 -28 -23 -62 -44 -231 -141 -475 -356 -641 -566 -37 -46 -72 -89 -77 -96
-6 -7 -10 -15 -10 -18 0 -3 -11 -18 -25 -33 -14 -15 -25 -30 -25 -34 0 -4 -15
-29 -32 -55 -35 -50 -97 -164 -122 -223 -31 -70 -12 -65 -258 -66 l-225 -2 0
728 0 728 431 -3 c237 -2 451 -6 476 -9z m5585 0 c22 -3 54 -8 70 -10 17 -3
30 -5 30 -6 0 -1 11 -4 25 -6 85 -16 234 -78 295 -124 60 -45 138 -139 171
-204 19 -40 36 -79 37 -87 2 -8 6 -20 10 -26 5 -7 6 -17 2 -22 -3 -5 -1 -12 4
-16 5 -3 9 -13 9 -23 0 -9 3 -35 6 -57 7 -43 8 -207 2 -240 -2 -11 -7 -40 -12
-65 -9 -51 -11 -59 -13 -62 -2 -2 -4 -13 -7 -26 -12 -64 -90 -188 -162 -259
-30 -29 -157 -117 -171 -119 -3 0 -24 -8 -46 -18 -42 -18 -161 -50 -230 -62
-22 -4 -239 -8 -482 -9 l-443 -3 0 31 c-1 31 0 1266 0 1374 l0 52 433 -3 c237
-2 450 -7 472 -10z m-6070 -2036 c-3 -5 -12 -10 -18 -10 -7 0 -6 4 3 10 19 12
23 12 15 0z"/>
</g>
</svg>
