<?xml version="1.0" standalone="no"?>
<!DOCTYPE svg PUBLIC "-//W3C//DTD SVG 20010904//EN"
 "http://www.w3.org/TR/2001/REC-SVG-20010904/DTD/svg10.dtd">
<svg version="1.0" xmlns="http://www.w3.org/2000/svg"
 width="1004.000000pt" height="1004.000000pt" viewBox="0 0 1004.000000 1004.000000"
 preserveAspectRatio="xMidYMid meet">
<metadata>
Created by potrace 1.14, written by Peter Selinger 2001-2017
</metadata>
<g transform="translate(0.000000,1004.000000) scale(0.100000,-0.100000)"
fill="#000000" stroke="none">
<path d="M3480 9952 c-14 -2 -29 -8 -35 -13 -12 -12 -14 -979 -2 -979 5 0 5
-6 0 -12 -11 -19 -11 -131 0 -145 5 -7 6 -13 1 -13 -5 0 -9 -18 -9 -40 0 -22
3 -40 7 -40 4 0 5 -7 2 -15 -9 -23 -11 -118 -2 -142 4 -12 3 -25 -3 -28 -5 -4
-6 -13 0 -22 5 -9 5 -29 1 -44 -5 -15 -6 -30 -3 -33 5 -5 9 -415 14 -1518 l1
-396 23 -20 c14 -12 28 -17 35 -12 8 5 24 4 37 -1 16 -6 22 -5 18 1 -4 7 2 7
18 1 14 -6 28 -7 31 -4 9 10 216 10 216 0 0 -4 6 -5 13 0 6 4 111 9 232 10
121 1 241 2 267 2 26 1 53 7 60 15 12 11 14 84 11 407 -2 217 -4 586 -6 821
-2 235 -6 430 -9 434 -4 3 -3 16 1 28 9 25 8 147 -1 162 -4 5 -3 16 1 23 5 7
5 30 1 52 -4 21 -4 39 -1 39 8 0 5 76 -4 89 -3 5 -1 12 5 16 6 4 8 10 5 15 -5
9 -9 114 -5 135 1 6 1 15 0 20 -1 6 -3 271 -5 590 -1 319 -6 588 -10 598 -4 9
-15 18 -24 19 -29 3 -855 3 -881 0z"/>
<path d="M5697 9944 c-26 -7 -51 -13 -55 -13 -27 -4 -113 -38 -144 -58 -21
-12 -42 -23 -46 -23 -5 0 -18 -8 -30 -17 -11 -10 -35 -29 -53 -43 -127 -98
-242 -297 -264 -460 -24 -169 15 -365 96 -488 16 -24 29 -47 29 -52 0 -9 118
-130 161 -166 52 -43 205 -115 279 -131 71 -16 250 -25 250 -12 0 5 6 6 14 3
8 -3 50 4 94 15 253 65 452 261 526 515 24 81 42 256 26 256 -3 0 -5 15 -4 33
4 76 -61 248 -128 342 -40 56 -126 142 -173 175 -52 35 -152 90 -174 94 -9 2
-23 6 -31 10 -75 32 -282 44 -373 20z"/>
<path d="M7888 9173 c-1 -5 -23 -24 -48 -43 -25 -19 -50 -39 -56 -45 -6 -5
-26 -21 -44 -35 -18 -14 -38 -29 -44 -35 -6 -5 -45 -37 -86 -70 -41 -33 -81
-66 -90 -72 -158 -128 -243 -193 -251 -193 -6 0 -7 -4 -4 -10 3 -5 2 -10 -2
-10 -5 0 -26 -16 -48 -35 -22 -19 -43 -35 -47 -35 -4 0 -15 -8 -25 -18 -10
-10 -40 -36 -68 -58 -27 -21 -55 -43 -62 -49 -6 -5 -26 -21 -44 -35 -18 -14
-37 -29 -43 -35 -6 -5 -56 -46 -111 -89 -55 -44 -109 -88 -120 -98 -20 -17
-194 -158 -335 -270 -41 -32 -84 -67 -95 -76 -11 -10 -49 -40 -85 -67 -36 -28
-67 -53 -70 -56 -3 -4 -66 -54 -140 -112 -74 -59 -142 -113 -150 -120 -8 -8
-96 -79 -195 -158 -99 -79 -182 -146 -185 -149 -3 -3 -25 -21 -50 -40 -25 -19
-47 -37 -50 -40 -3 -3 -22 -18 -43 -33 -20 -15 -43 -40 -51 -55 -13 -26 -11
-30 89 -154 56 -70 113 -142 126 -159 13 -17 29 -36 34 -42 11 -12 209 -257
235 -291 49 -62 85 -96 103 -96 18 0 107 63 115 82 2 5 8 8 13 8 6 0 20 10 32
23 13 12 46 40 75 62 29 21 52 43 52 47 0 4 5 8 11 8 6 0 16 6 23 13 7 6 30
26 50 42 21 17 50 40 65 53 14 12 51 42 81 65 30 23 62 49 70 57 9 8 27 22 39
30 13 8 35 26 50 40 15 14 45 39 66 55 126 97 263 207 301 243 8 7 14 11 14 8
0 -3 8 2 18 12 22 20 33 29 172 141 58 46 107 87 110 90 3 3 21 18 42 33 20
15 42 33 50 40 7 7 78 65 158 128 160 127 179 143 224 183 17 15 33 27 37 27
3 0 17 10 31 23 13 12 39 33 57 47 18 14 43 34 56 45 13 12 38 32 56 45 18 14
37 30 43 35 6 6 29 24 51 40 21 17 47 37 55 45 9 8 33 29 54 45 21 17 43 35
50 40 6 6 49 42 96 80 47 38 87 72 90 75 3 3 28 23 55 44 60 48 115 102 115
114 0 4 -8 17 -17 28 -10 11 -65 78 -123 149 -135 167 -133 165 -145 179 -5 6
-28 34 -50 61 -21 28 -42 52 -45 55 -3 3 -23 28 -45 55 -22 28 -44 55 -50 61
-5 6 -21 25 -35 43 -58 75 -101 108 -112 84z"/>
<path d="M2237 9084 c-1 -1 -21 -4 -44 -8 -191 -26 -364 -125 -493 -282 -43
-53 -101 -165 -121 -235 -7 -24 -13 -46 -14 -49 -1 -3 -5 -25 -9 -50 -34 -209
18 -411 150 -580 61 -78 197 -190 231 -190 6 0 13 -4 15 -10 3 -11 136 -59
183 -67 17 -3 35 -6 40 -7 6 -1 15 -5 20 -8 6 -4 17 -3 25 2 8 5 21 5 29 2 49
-23 239 13 351 65 126 58 270 189 317 289 9 19 20 34 25 34 4 0 8 6 8 14 0 7
11 39 25 70 14 31 23 56 20 56 -2 0 0 12 6 27 11 30 22 118 23 183 0 189 -85
393 -218 525 -52 51 -121 105 -134 105 -6 0 -12 4 -14 8 -6 15 -148 74 -212
88 -43 10 -203 23 -209 18z"/>
<path d="M872 7747 c-26 -27 -120 -147 -242 -307 -14 -18 -30 -38 -35 -44 -6
-6 -26 -31 -45 -56 -19 -25 -38 -46 -42 -48 -5 -2 -8 -9 -8 -16 0 -6 -9 -18
-20 -26 -11 -8 -20 -20 -20 -26 0 -7 -7 -15 -16 -18 -9 -4 -14 -9 -11 -12 2
-3 -5 -15 -17 -27 -34 -36 -70 -87 -79 -113 -7 -20 -3 -30 27 -59 20 -19 36
-31 36 -27 0 4 4 2 8 -4 4 -6 43 -40 87 -74 44 -35 87 -69 95 -77 8 -8 112
-90 230 -183 118 -93 222 -176 230 -183 8 -7 43 -35 78 -62 34 -26 62 -52 62
-56 0 -5 4 -8 8 -6 4 1 26 -12 47 -30 34 -27 197 -156 298 -236 15 -12 33 -27
40 -32 7 -6 46 -37 87 -70 41 -33 80 -64 86 -70 7 -5 57 -45 113 -88 55 -43
101 -84 101 -89 0 -6 3 -8 6 -5 4 4 33 -16 64 -43 32 -28 61 -50 65 -50 4 0
13 -6 19 -14 6 -7 81 -68 166 -136 85 -68 160 -128 165 -134 6 -6 18 -15 26
-21 41 -25 189 -149 189 -157 0 -5 4 -7 8 -4 5 3 19 -5 33 -17 47 -44 274
-224 297 -236 21 -11 27 -9 60 26 20 21 47 52 59 68 71 94 405 523 420 540 24
26 60 78 62 88 2 12 -38 49 -114 108 -38 29 -72 56 -75 59 -16 17 -161 130
-166 130 -4 0 -14 8 -23 18 -9 10 -59 51 -111 92 -52 41 -97 77 -100 80 -3 3
-36 30 -75 60 -38 30 -81 65 -95 77 -14 11 -77 62 -140 112 -160 128 -172 137
-200 160 -32 27 -36 30 -90 71 -25 19 -47 37 -50 40 -8 8 -63 53 -100 80 -18
14 -61 48 -95 75 -33 28 -76 61 -94 75 -18 14 -38 30 -44 35 -7 6 -46 38 -87
70 -41 33 -77 62 -80 65 -3 3 -19 16 -36 28 -17 12 -44 33 -60 46 -16 14 -114
93 -219 175 -104 83 -201 159 -215 170 -22 17 -40 33 -117 96 -28 23 -42 34
-118 94 -44 35 -81 67 -83 72 -2 5 -8 9 -13 9 -8 0 -33 18 -63 46 -26 24 -44
22 -74 -9z"/>
<path d="M8660 7699 c-140 -22 -220 -52 -325 -123 -56 -37 -185 -161 -185
-177 0 -4 -7 -14 -15 -23 -14 -14 -75 -128 -75 -140 0 -2 -5 -17 -12 -33 -13
-33 -12 -28 -21 -73 -4 -19 -10 -46 -13 -60 -9 -43 -6 -188 6 -248 37 -184
132 -339 280 -452 24 -19 54 -40 67 -47 12 -6 35 -18 50 -27 45 -24 96 -45
123 -50 14 -3 25 -5 25 -6 0 -1 9 -3 20 -6 150 -30 290 -21 423 28 134 49 267
146 347 253 17 22 36 46 43 53 7 8 10 17 7 22 -3 5 -2 10 3 12 14 5 51 94 72
172 68 245 -9 514 -200 707 -60 60 -190 159 -190 143 0 -3 -10 0 -23 9 -25 16
-98 43 -144 52 -64 13 -81 15 -148 18 -38 1 -90 -1 -115 -4z"/>
<path d="M6674 6083 c-16 -12 -33 -47 -33 -69 1 -10 -2 -32 -6 -49 -4 -16 -9
-39 -10 -50 -2 -11 -4 -20 -5 -20 -2 0 -7 -23 -15 -70 -4 -22 -11 -48 -16 -57
-5 -10 -8 -18 -5 -18 2 0 -1 -19 -6 -42 -5 -24 -11 -50 -13 -58 -11 -49 -37
-169 -41 -190 -3 -14 -9 -38 -14 -55 -5 -16 -12 -45 -15 -63 -3 -18 -12 -59
-19 -92 -21 -91 -22 -91 187 -135 79 -16 123 -29 133 -36 6 -5 13 -6 16 -4 3
3 27 1 54 -5 27 -7 56 -13 65 -15 8 -2 44 -10 80 -19 35 -8 75 -17 89 -20 14
-2 53 -11 88 -20 34 -9 67 -14 72 -11 4 3 10 1 12 -4 1 -5 19 -12 38 -15 19
-3 67 -12 105 -21 99 -24 103 -24 128 -30 60 -13 93 -19 100 -17 4 1 7 -2 7
-8 0 -5 7 -7 15 -4 8 3 20 2 27 -2 7 -4 22 -9 33 -10 12 -1 41 -8 66 -14 24
-7 53 -14 64 -15 36 -6 80 -16 100 -22 11 -4 25 -8 30 -9 12 -2 50 -11 84 -18
13 -3 60 -14 105 -25 148 -36 390 -90 431 -97 22 -3 47 -9 55 -13 8 -4 22 -7
30 -6 8 1 29 -3 45 -8 17 -4 37 -10 45 -12 8 -2 35 -8 60 -15 25 -6 54 -12 65
-15 11 -2 34 -7 50 -10 17 -4 37 -8 45 -10 8 -2 15 -4 15 -5 0 -1 11 -4 25 -5
38 -6 54 -10 68 -18 6 -5 12 -6 12 -3 0 2 15 0 33 -5 17 -5 46 -12 62 -15 28
-5 115 -25 400 -90 211 -49 214 -49 230 -27 8 10 17 36 21 58 3 22 8 49 10 60
8 38 16 90 17 108 1 9 4 17 7 17 3 0 6 8 7 18 2 25 47 240 70 332 9 37 9 36
38 163 14 65 23 126 20 137 -7 23 -30 37 -66 42 -13 2 -29 6 -34 10 -6 4 -29
9 -50 12 -22 3 -58 10 -80 16 -37 9 -92 22 -155 36 -14 3 -43 10 -65 16 -22 5
-49 12 -60 14 -11 1 -37 7 -57 12 -20 5 -39 7 -42 4 -4 -3 -6 0 -6 6 0 6 -9 9
-20 7 -11 -2 -20 1 -20 6 0 6 -5 7 -10 4 -6 -4 -25 -2 -43 4 -17 6 -43 12 -57
15 -14 3 -36 8 -50 11 -14 3 -34 8 -45 10 -40 9 -63 14 -214 49 -85 19 -158
33 -162 30 -4 -2 -9 0 -11 5 -1 5 -19 12 -38 15 -19 3 -52 10 -72 15 -21 5
-38 7 -38 5 0 -3 -9 0 -19 5 -10 6 -34 13 -52 15 -29 4 -78 15 -194 43 -11 2
-33 6 -48 9 -16 2 -32 6 -37 9 -4 3 -25 7 -46 10 -22 3 -46 9 -54 12 -8 3 -33
9 -55 13 -22 4 -92 19 -155 34 -63 15 -124 29 -135 32 -11 2 -31 6 -45 10 -14
3 -34 7 -45 9 -11 2 -40 8 -65 14 -25 7 -56 14 -70 17 -14 3 -53 11 -86 19
-34 8 -73 16 -85 19 -13 3 -35 8 -49 11 -14 3 -34 8 -45 10 -51 11 -162 36
-175 39 -9 2 -69 16 -135 31 -66 15 -158 36 -205 47 -107 25 -152 30 -166 21z"/>
<path d="M705 5752 c-4 -4 -18 -8 -33 -9 -48 -4 -78 -9 -91 -17 -7 -4 -15 -5
-18 -2 -3 3 -12 1 -19 -4 -6 -6 -22 -13 -33 -15 -63 -12 -217 -112 -281 -182
-84 -91 -127 -159 -164 -261 -34 -95 -41 -139 -40 -267 0 -90 5 -126 27 -195
24 -77 90 -209 128 -254 62 -76 175 -176 197 -176 5 0 15 -7 22 -15 7 -9 15
-13 18 -11 3 3 17 -3 32 -14 16 -11 34 -20 42 -20 7 0 33 -7 58 -16 63 -22 99
-27 225 -27 104 0 179 12 260 43 17 6 31 10 31 8 1 -2 10 4 20 12 11 8 35 24
54 34 116 63 239 197 299 326 50 108 70 201 69 325 0 60 -3 115 -6 120 -4 6
-7 19 -8 30 -2 28 -31 110 -62 175 -48 102 -149 216 -252 287 -51 35 -155 84
-182 86 -10 1 -18 4 -18 7 0 4 -6 7 -12 8 -7 0 -26 3 -43 7 -16 3 -64 8 -105
11 -41 2 -83 6 -92 8 -9 2 -20 1 -23 -2z"/>
<path d="M6729 4334 c-44 -23 -82 -42 -85 -42 -3 0 -73 -34 -157 -75 -84 -41
-222 -110 -307 -151 -85 -42 -160 -84 -167 -92 -16 -21 -7 -45 81 -222 42 -84
76 -157 76 -162 0 -6 4 -10 10 -10 5 0 9 -3 8 -7 -2 -8 13 -41 113 -248 29
-60 54 -112 54 -115 1 -3 27 -57 58 -121 31 -64 57 -120 57 -125 0 -6 6 -16
13 -22 6 -7 12 -16 13 -20 0 -4 28 -63 61 -132 225 -463 265 -546 421 -870 25
-52 46 -97 47 -100 1 -3 36 -77 79 -165 43 -88 98 -203 122 -255 25 -52 49
-102 54 -110 6 -8 14 -24 19 -35 5 -11 36 -77 70 -145 33 -69 61 -131 61 -137
0 -7 4 -13 8 -13 4 0 14 -17 21 -37 16 -46 39 -73 60 -73 19 0 97 37 505 240
284 142 311 157 314 182 2 18 -23 80 -75 185 -42 87 -78 160 -78 163 -1 5 -34
76 -136 285 -33 66 -59 126 -59 133 0 6 -3 12 -8 12 -4 0 -13 15 -21 33 -7 17
-67 141 -132 274 -66 133 -119 247 -119 252 0 6 -4 11 -10 11 -5 0 -10 5 -10
12 0 7 -18 48 -39 93 -124 256 -192 398 -194 408 -1 7 -5 14 -8 17 -3 3 -17
30 -32 61 -14 30 -62 131 -106 223 -45 93 -81 172 -81 177 0 5 -4 9 -10 9 -5
0 -10 5 -10 12 0 6 -14 41 -32 77 -17 36 -32 68 -33 71 -1 3 -36 77 -79 165
-108 221 -176 364 -176 371 0 3 -9 19 -20 34 -26 37 -43 35 -141 -16z"/>
<path d="M3625 4332 c-3 -3 -13 -7 -23 -8 -9 -2 -35 -8 -57 -13 -22 -6 -78
-20 -125 -30 -47 -11 -134 -32 -195 -46 -60 -15 -119 -29 -130 -31 -11 -2 -90
-20 -175 -40 -85 -20 -163 -38 -172 -40 -76 -17 -122 -26 -128 -23 -3 1 -14
-2 -25 -8 -11 -6 -36 -14 -55 -17 -19 -3 -53 -11 -75 -17 -22 -5 -51 -12 -65
-14 -14 -1 -25 -4 -25 -5 0 -2 -26 -7 -60 -12 -11 -2 -26 -7 -32 -11 -7 -5
-13 -6 -13 -3 0 2 -15 0 -32 -5 -18 -6 -44 -12 -58 -14 -14 -2 -63 -13 -110
-24 -84 -20 -241 -57 -290 -67 -14 -3 -45 -10 -70 -15 -25 -6 -54 -13 -65 -15
-20 -4 -30 -6 -100 -23 -22 -5 -51 -12 -65 -15 -14 -2 -45 -9 -70 -15 -25 -7
-54 -13 -65 -16 -11 -2 -31 -6 -45 -9 -14 -3 -50 -11 -80 -17 -30 -6 -62 -14
-70 -17 -8 -2 -28 -6 -43 -8 -16 -1 -36 -6 -45 -10 -20 -8 -26 -10 -67 -17
-16 -3 -102 -22 -190 -42 -88 -20 -167 -38 -175 -40 -8 -2 -33 -8 -55 -13 -39
-11 -84 -21 -115 -26 -42 -7 -106 -29 -111 -38 -4 -6 -2 -26 3 -47 5 -20 11
-47 14 -61 2 -14 12 -54 20 -89 9 -36 17 -72 19 -80 2 -9 11 -45 20 -81 10
-36 19 -74 20 -85 1 -11 3 -20 4 -20 3 0 9 -28 15 -65 3 -14 14 -61 25 -105
11 -44 22 -91 25 -105 19 -97 38 -159 51 -170 14 -11 76 -9 107 5 9 4 22 4 28
0 5 -3 10 -2 10 2 0 5 8 9 18 10 10 1 45 8 78 17 56 14 94 23 139 31 20 4 25
5 100 25 22 6 55 13 74 16 19 2 37 7 42 9 4 3 29 10 56 15 64 14 82 18 179 40
45 11 95 22 111 25 15 2 43 9 61 14 17 5 32 8 32 5 0 -3 8 0 18 5 9 5 31 11
47 14 17 3 41 9 55 12 14 3 39 8 55 10 17 3 66 14 110 25 44 12 96 23 115 26
19 2 44 8 55 11 23 8 41 12 75 18 14 2 25 4 25 5 0 2 16 5 65 15 49 10 52 10
75 18 11 3 31 8 45 11 21 4 267 58 323 72 9 2 27 6 40 9 63 14 133 29 137 30
22 6 223 52 265 60 38 8 60 13 60 15 0 1 9 3 20 5 11 2 31 6 45 9 14 3 88 20
165 37 77 17 145 35 151 40 6 5 13 7 16 4 8 -8 336 71 353 85 8 7 12 17 8 24
-4 6 -8 20 -9 31 -1 11 -9 50 -18 88 -15 62 -42 180 -51 218 -49 220 -120 511
-129 533 -10 25 -19 30 -49 32 -20 1 -39 -1 -42 -4z"/>
<path d="M8818 4035 c-1 -1 -34 -6 -71 -10 -310 -31 -577 -283 -635 -600 -19
-105 0 -332 31 -372 5 -7 6 -13 3 -13 -4 0 14 -41 40 -91 34 -66 68 -113 127
-175 45 -46 87 -84 94 -84 6 0 17 -8 22 -17 6 -10 11 -13 11 -8 0 6 3 6 8 0 4
-6 34 -25 67 -42 166 -86 382 -102 558 -41 103 35 232 113 289 174 60 64 76
83 99 119 54 83 116 236 104 256 -3 4 -2 10 3 13 4 2 9 23 10 44 2 22 4 54 7
71 2 17 0 31 -5 31 -5 0 -6 10 -1 22 4 12 4 38 0 58 -4 19 -11 50 -14 69 -3
19 -10 42 -16 52 -5 11 -7 19 -5 19 6 0 -54 143 -63 150 -3 3 -13 18 -21 34
-24 47 -133 159 -199 204 -63 43 -162 92 -186 92 -7 0 -17 5 -20 11 -4 6 -13
8 -20 5 -7 -2 -16 -2 -19 2 -9 8 -27 11 -106 18 -36 3 -70 7 -77 9 -6 2 -13 2
-15 0z"/>
<path d="M4753 3578 c-6 -7 -22 -38 -36 -68 -14 -30 -56 -118 -92 -195 -37
-77 -82 -171 -100 -210 -18 -38 -60 -126 -93 -195 -32 -69 -82 -173 -111 -232
-28 -59 -51 -112 -51 -118 0 -5 -4 -10 -9 -10 -8 0 -25 -46 -19 -53 2 -2 -5
-11 -15 -21 -9 -10 -15 -22 -12 -27 4 -5 1 -9 -4 -9 -6 0 -11 -4 -11 -9 0 -4
-30 -71 -66 -147 -124 -261 -154 -325 -154 -335 0 -5 -4 -9 -10 -9 -5 0 -10
-4 -10 -10 0 -5 -19 -49 -42 -97 -23 -49 -43 -90 -43 -93 -1 -3 -24 -52 -52
-110 -28 -58 -72 -150 -99 -205 -26 -55 -47 -103 -46 -107 1 -5 -2 -8 -8 -8
-6 0 -9 -3 -8 -7 1 -10 -32 -86 -41 -93 -3 -3 -7 -10 -8 -16 -1 -7 -25 -57
-52 -113 -27 -56 -47 -101 -45 -101 3 0 -3 -12 -14 -27 -10 -16 -25 -44 -32
-63 -7 -19 -24 -53 -37 -76 -12 -22 -20 -44 -16 -47 3 -4 1 -7 -5 -7 -6 0 -13
-14 -17 -30 -4 -17 -11 -30 -17 -30 -6 0 -8 -3 -5 -6 4 -4 -3 -20 -14 -35 -11
-16 -18 -29 -15 -29 4 0 -6 -24 -21 -52 -15 -29 -28 -62 -29 -73 -2 -19 22
-55 36 -55 4 0 87 -38 184 -85 96 -47 180 -85 186 -85 5 0 10 -4 10 -10 0 -5
3 -9 8 -8 4 1 51 -19 104 -45 54 -26 102 -47 108 -47 5 0 10 -4 10 -10 0 -5 6
-10 13 -10 14 0 99 -41 107 -52 3 -4 22 -10 42 -13 33 -5 39 -3 60 25 13 18
23 35 23 38 1 4 23 52 50 107 27 55 49 102 50 105 0 3 7 16 15 30 8 14 15 27
15 30 0 3 13 32 29 65 113 237 145 305 162 340 10 22 23 43 28 47 6 4 8 8 4 8
-3 0 9 32 28 70 19 39 34 75 34 80 0 6 5 10 10 10 6 0 9 3 8 8 -1 4 19 51 45
106 26 54 47 102 47 107 0 5 5 9 12 9 6 0 8 3 5 6 -4 4 0 19 8 33 14 24 121
248 205 426 21 44 54 115 74 157 20 42 36 82 36 88 0 5 5 10 10 10 6 0 10 5
10 10 0 6 28 68 61 138 34 70 82 170 106 222 25 52 55 116 68 142 13 25 21 49
18 52 -4 3 -1 6 5 6 7 0 12 4 12 10 0 5 25 62 56 127 31 65 75 156 97 203 22
47 40 88 39 93 -1 4 3 7 8 7 5 0 9 3 8 8 -1 4 12 38 30 75 51 109 50 113 -16
145 -31 15 -60 31 -63 35 -3 5 -8 7 -10 6 -2 -2 -31 10 -64 25 -92 44 -267
127 -400 192 -66 32 -126 59 -134 60 -8 2 -18 9 -22 16 -5 7 -9 9 -9 5 0 -5
-10 -1 -22 7 -27 19 -72 21 -85 4z"/>
<path d="M2344 2449 c-2 -4 -15 -5 -29 -4 -14 2 -25 -1 -25 -6 0 -6 -5 -7 -10
-4 -6 4 -27 1 -48 -6 -20 -7 -43 -12 -49 -11 -7 2 -13 -2 -13 -8 0 -5 -3 -9
-7 -9 -5 1 -11 0 -15 -1 -5 -1 -11 -3 -15 -4 -26 -6 -133 -71 -177 -106 -44
-36 -136 -136 -136 -147 0 -7 -4 -13 -10 -13 -13 0 -84 -152 -104 -220 -26
-96 -33 -190 -21 -295 10 -90 69 -258 97 -276 5 -3 10 -10 10 -15 2 -30 144
-194 168 -194 5 0 10 -4 10 -8 0 -23 204 -121 280 -136 19 -3 46 -8 60 -11 31
-7 208 -7 218 -1 4 2 27 7 52 11 25 4 49 10 55 13 5 4 18 8 27 9 24 4 132 56
136 65 2 4 8 8 14 8 19 0 127 90 170 142 78 94 140 204 152 268 2 14 5 25 6
25 2 0 11 38 13 60 2 11 5 25 8 30 5 10 4 215 -1 225 -2 3 -4 10 -5 15 -5 30
-18 81 -23 90 -4 6 -7 16 -8 22 -4 23 -77 163 -86 163 -4 0 -8 6 -8 14 0 19
-125 146 -180 183 -66 45 -119 73 -135 73 -8 0 -15 4 -15 8 0 4 -10 8 -22 9
-11 1 -25 8 -29 15 -5 7 -9 10 -9 6 0 -3 -27 0 -61 8 -33 8 -65 12 -70 8 -5
-3 -9 -2 -9 3 0 9 -150 11 -156 2z"/>
<path d="M5967 1684 c-1 -1 -22 -4 -47 -7 -210 -26 -387 -133 -504 -305 -49
-72 -99 -176 -89 -186 4 -3 1 -6 -6 -6 -7 0 -9 -4 -6 -10 3 -5 2 -18 -3 -27
-23 -43 -34 -213 -19 -293 5 -25 10 -54 11 -65 9 -66 74 -205 132 -281 45 -59
114 -126 171 -165 47 -33 164 -89 185 -89 8 0 18 -4 24 -10 5 -5 24 -10 42
-12 17 -1 32 -5 32 -8 0 -6 17 -7 130 -10 77 -1 218 20 259 39 92 43 174 88
178 98 3 7 9 13 15 13 17 0 115 107 159 175 24 38 44 71 44 74 1 3 8 22 16 41
86 190 74 452 -27 637 -118 214 -307 347 -554 389 -29 5 -139 11 -143 8z"/>
</g>
</svg>
