<?xml version="1.0" encoding="utf-8"?>
<!-- Generator: Adobe Illustrator 26.3.1, SVG Export Plug-In . SVG Version: 6.00 Build 0)  -->
<svg version="1.1" id="Layer_1" xmlns="http://www.w3.org/2000/svg" xmlns:xlink="http://www.w3.org/1999/xlink" x="0px" y="0px"
	 viewBox="0 0 841.9 595.3" style="enable-background:new 0 0 841.9 595.3;" xml:space="preserve">
<style type="text/css">
	.st0{fill:url(#SVGID_1_);}
	.st1{fill:url(#SVGID_00000130607511627465221680000007552889499978440606_);}
</style>
<g>
	<g>
		<g>
			<linearGradient id="SVGID_1_" gradientUnits="userSpaceOnUse" x1="43.3642" y1="267.4828" x2="287.8227" y2="267.4828">
				<stop  offset="0" style="stop-color:#D8942C"/>
				<stop  offset="0" style="stop-color:#D4962D"/>
				<stop  offset="0.3198" style="stop-color:#FFCE3A"/>
				<stop  offset="0.6802" style="stop-color:#F5F093"/>
				<stop  offset="1" style="stop-color:#E7BC39"/>
			</linearGradient>
			<path class="st0" d="M160.9,173.7c-4.3,0.5-8.6,0.7-12.9,1.5c-25.8,4.8-50.4,12.8-71.8,28.4c-24.6,18-36.1,42.2-32.1,72.8
				c4.8,37.1,21.1,67.1,54.8,85.8c17.6,9.7,36.7,11.3,56.1,7.3c19.6-4,37.6-12.2,52.9-25.1c21.8-18.4,32.4-42.9,35.9-70.7
				c2.4-18.6,3.7-37.4,6.1-56c3-23.1,12.5-42,35.6-51.2c0.3-0.1,0.5-0.7,2.2-2.9c-7,0-12.9-0.9-18.5,0.1
				c-15.5,2.8-26.4,12.6-35.5,24.7c-11.8,15.8-19.5,33.7-25.7,52.2c-6,17.8-14,34.4-27.3,48c-22.9,23.4-59.3,22.4-78.8-2
				c-12.6-15.8-12.8-42.4-0.7-62.7c12.3-20.5,30.6-34.1,51.4-44.8c2.8-1.4,5.6-2.8,8.3-4.2C161.1,174.6,161,174.1,160.9,173.7z"/>
		</g>
		
			<linearGradient id="SVGID_00000138562077033018691200000018000968692329717638_" gradientUnits="userSpaceOnUse" x1="109.0841" y1="257.6768" x2="179.3584" y2="257.6768">
			<stop  offset="0" style="stop-color:#D8942C"/>
			<stop  offset="0" style="stop-color:#D4962D"/>
			<stop  offset="0.3198" style="stop-color:#FFCE3A"/>
			<stop  offset="0.6802" style="stop-color:#F5F093"/>
			<stop  offset="1" style="stop-color:#E7BC39"/>
		</linearGradient>
		<circle style="fill:url(#SVGID_00000138562077033018691200000018000968692329717638_);" cx="144.2" cy="257.7" r="35.1"/>
	</g>
	<g>
		<path d="M304.7,267.4v-23.8c0-1.7,0-3.6,0.1-5h-0.1c-0.4,1-2.3,3.8-3.1,5l-7.6,11.5h-4.7l-8.7-11.9c-1-1.3-2.1-2.8-3.1-4.5h-0.1
			c0.1,1.6,0.1,3.4,0.1,4.7v24.1h-10.8v-46.6h9.8l11.7,16.3c1.4,2,2.5,3.7,3.6,5.5h0.1c0.8-1.7,2-3.7,3.4-5.9l10.5-15.9h9.8v46.6
			H304.7z"/>
		<path d="M323.2,267.4v-46.6h28l-2.6,8.7H334v9.8h14.7v8.8H334v10.7h17.1v8.7H323.2z"/>
		<path d="M391.7,267.4l-19.4-24.6c-1.5-1.9-2.8-3.8-4.4-5.8h-0.1c0.2,1.6,0.2,4.7,0.2,6.7v23.7h-10.8v-46.6h10.8l18.8,23.6
			c1.5,1.9,2.8,3.7,4.2,5.7h0.1c-0.1-2.4-0.1-5.8-0.1-7.6v-21.6h10.8v46.6H391.7z"/>
		<path d="M443.3,229.5H431v37.9h-11v-37.9h-13.7v-8.7h39.2L443.3,229.5z"/>
		<path d="M474.1,267.4l-4.5-11.1h-15.1l-4.2,11.1h-10.6l18.3-46.9h8.5l19.3,46.9H474.1z M463.9,240.3c-0.8-2.3-1.4-4.2-1.7-5.7
			h-0.1c-0.3,1.6-0.9,3.5-1.7,5.6l-2.8,7.5h8.8L463.9,240.3z"/>
		<path d="M489.9,267.4v-46.6h10.8v37.9h16.1v8.8H489.9z"/>
		<path d="M568.7,267.4v-19.1h-20.6v19.1h-10.8v-46.6h10.8v18.3h20.6v-18.3h10.8v46.6H568.7z"/>
		<path d="M587.3,267.4v-46.6h28l-2.6,8.7h-14.6v9.8h14.7v8.8h-14.7v10.7h17.1v8.7H587.3z"/>
		<path d="M652.1,267.4l-4.5-11.1h-15.1l-4.2,11.1h-10.6l18.3-46.9h8.5l19.3,46.9H652.1z M641.8,240.3c-0.8-2.3-1.4-4.2-1.7-5.7H640
			c-0.3,1.6-0.9,3.5-1.7,5.6l-2.8,7.5h8.8L641.8,240.3z"/>
		<path d="M667.8,267.4v-46.6h10.8v37.9h16.1v8.8H667.8z"/>
		<path d="M728.8,229.5h-12.3v37.9h-11v-37.9h-13.7v-8.7H731L728.8,229.5z"/>
		<path d="M766.4,267.4v-19.1h-20.6v19.1h-10.8v-46.6h10.8v18.3h20.6v-18.3h10.8v46.6H766.4z"/>
		<path d="M296.6,338c-20.1,0-31.3-13.6-31.3-30.4c0-17.3,13.2-31.4,34.5-31.4c5.9,0,11.6,1,15.8,3.1l-0.3,12.1
			c-5.5-3.2-10.8-4-14.9-4c-14.4,0-19.8,9.6-19.8,19.2c0,10.8,7.1,19.5,18.5,19.5c5.7,0,10.3-1.5,15.2-4.1l3.7,9.6
			C310.6,336.2,303.8,338,296.6,338z"/>
		<path d="M373.6,337.1v-24.7H347v24.7h-14v-60.2h14v23.7h26.6v-23.7h14v60.2H373.6z"/>
		<path d="M445.4,337.1l-5.8-14.4h-19.6l-5.5,14.4h-13.7l23.7-60.5h11l25,60.5H445.4z M432.2,302.1c-1-2.9-1.8-5.5-2.2-7.4h-0.1
			c-0.4,2-1.2,4.6-2.2,7.2l-3.7,9.7h11.4L432.2,302.1z"/>
		<path d="M523.1,337.1v-30.7c0-2.2,0-4.7,0.1-6.5h-0.1c-0.5,1.3-3,4.8-4,6.4l-9.9,14.8h-6.1l-11.2-15.4c-1.3-1.7-2.7-3.6-4-5.9
			h-0.2c0.1,2,0.1,4.4,0.1,6v31.2h-13.9v-60.2h12.6l15.1,21c1.8,2.6,3.3,4.8,4.7,7.1h0.2c1.1-2.2,2.6-4.8,4.4-7.6l13.5-20.6H537
			v60.2H523.1z"/>
		<path d="M570.8,316.7h-1.6v20.4h-14v-60.2h17.5c13.4,0,22.6,6.7,22.6,19.7C595.3,303.8,589.5,316.7,570.8,316.7z M571.2,288.3h-2
			v18h2c6.9,0,10.2-3.3,10.2-9.1C581.5,292.4,578.1,288.3,571.2,288.3z"/>
		<path d="M610.5,337.1v-60.2h14v60.2H610.5z"/>
		<path d="M695,328.8c-5.7,5.8-13.5,9.2-23.1,9.2c-9.1,0-16.5-2.6-21.8-7.3c-6.2-5.6-9.6-13.7-9.6-22.9c0-8.9,3.1-16.8,8.8-22.6
			c5.5-5.6,13.3-9,22.7-9c10.1,0,18.3,3.4,23.8,9.2c5.1,5.5,7.6,13,7.6,21.4C703.2,315.3,700.5,323.3,695,328.8z M671.8,287.4
			c-9.5,0-16.8,7.1-16.8,19.8s7.3,19.8,16.8,19.8c9.3,0,16.6-7.1,16.6-19.8S681.1,287.4,671.8,287.4z"/>
		<path d="M763.7,337.1l-25-31.7c-1.9-2.5-3.7-4.8-5.7-7.5h-0.2c0.3,2,0.3,6,0.3,8.6v30.6h-13.9v-60.2h14l24.2,30.4
			c1.9,2.5,3.7,4.8,5.4,7.3h0.2c-0.2-3.1-0.2-7.5-0.2-9.9v-27.9h13.9v60.2H763.7z"/>
	</g>
</g>
</svg>
