<?xml version="1.0" encoding="utf-8"?>
<!-- Generator: Adobe Illustrator 25.2.3, SVG Export Plug-In . SVG Version: 6.00 Build 0)  -->
<svg version="1.0" id="Layer_1" xmlns="http://www.w3.org/2000/svg" xmlns:xlink="http://www.w3.org/1999/xlink" x="0px" y="0px"
	 viewBox="0 0 250 250" style="enable-background:new 0 0 250 250;" xml:space="preserve">
<style type="text/css">
	.st0{display:none;fill:#273446;}
	.st1{fill:#FED376;}
	.st2{fill:#273446;}
	.st3{display:none;}
	.st4{display:inline;}
	.st5{clip-path:url(#SVGID_2_);fill:#273446;}
	.st6{clip-path:url(#SVGID_4_);fill:#273446;}
	.st7{clip-path:url(#SVGID_6_);fill:#273446;}
	.st8{clip-path:url(#SVGID_8_);fill:#273446;}
	.st9{clip-path:url(#SVGID_10_);fill:#273446;}
	.st10{clip-path:url(#SVGID_12_);fill:#273446;}
	.st11{clip-path:url(#SVGID_14_);fill:#273446;}
	.st12{clip-path:url(#SVGID_16_);fill:#273446;}
	.st13{clip-path:url(#SVGID_18_);fill:#273446;}
	.st14{clip-path:url(#SVGID_20_);fill:#273446;}
	.st15{clip-path:url(#SVGID_22_);fill:#273446;}
	.st16{clip-path:url(#SVGID_24_);fill:#273446;}
	.st17{clip-path:url(#SVGID_26_);fill:#273446;}
	.st18{clip-path:url(#SVGID_28_);fill:#273446;}
	.st19{clip-path:url(#SVGID_30_);fill:#273446;}
	.st20{clip-path:url(#SVGID_32_);fill:#273446;}
	.st21{clip-path:url(#SVGID_34_);fill:#273446;}
	.st22{clip-path:url(#SVGID_36_);fill:#273446;}
	.st23{clip-path:url(#SVGID_38_);fill:#273446;}
	.st24{clip-path:url(#SVGID_40_);fill:#273446;}
	.st25{clip-path:url(#SVGID_42_);fill:#273446;}
	.st26{clip-path:url(#SVGID_44_);fill:#273446;}
	.st27{clip-path:url(#SVGID_46_);fill:#273446;}
	.st28{fill:#EF7C23;}
	.st29{fill:#A3D1CF;}
	.st30{clip-path:url(#SVGID_48_);fill:#273446;}
</style>
<g>
	<rect x="527.12" y="48.39" class="st0" width="4.89" height="36.54"/>
	<rect x="589.95" y="48.39" class="st0" width="4.74" height="36.54"/>
	<g>
		<polygon class="st1" points="53.82,214.69 137.44,248.15 166.01,185.07 		"/>
		<polygon class="st2" points="70.83,155.26 49.65,202.89 53.82,214.69 144.92,190.62 150.91,189.05 135.38,155.26 		"/>
		<g class="st3">
			<g class="st4">
				<g>
					<defs>
						<rect id="SVGID_1_" x="1.63" y="1.85" width="748.15" height="246.3"/>
					</defs>
					<clipPath id="SVGID_2_">
						<use xlink:href="#SVGID_1_"  style="overflow:visible;"/>
					</clipPath>
					<path class="st5" d="M316.06,147.82c-2.73-6.21-5.42-12.46-7.24-17.68c-1.73,4.12-4.89,12.04-7.38,17.68L316.06,147.82
						L316.06,147.82z M308.53,106.87h0.48l29.09,60.28h-13.37l-4.84-10.47h-22.38l-4.65,10.47h-13.37L308.53,106.87z"/>
				</g>
			</g>
			<g class="st4">
				<g>
					<defs>
						<rect id="SVGID_3_" x="1.63" y="1.85" width="748.15" height="246.3"/>
					</defs>
					<clipPath id="SVGID_4_">
						<use xlink:href="#SVGID_3_"  style="overflow:visible;"/>
					</clipPath>
					<path class="st6" d="M371.46,167.2l-0.34-4.69c-0.1-1.47,0.14-2.46,0.34-2.89h-0.14c-1.73,3.79-7.24,8.72-14.14,8.72
						c-9.39,0-14.47-5.69-14.47-16.59v-25.83h12.46v23.74c0,4.12,1.15,7.44,5.66,7.44c5.66,0,9.54-4.45,9.54-10.62v-20.52h12.36
						v41.23C382.72,167.2,371.46,167.2,371.46,167.2z"/>
				</g>
			</g>
			<g class="st4">
				<g>
					<defs>
						<rect id="SVGID_5_" x="1.63" y="1.85" width="748.15" height="246.3"/>
					</defs>
					<clipPath id="SVGID_6_">
						<use xlink:href="#SVGID_5_"  style="overflow:visible;"/>
					</clipPath>
					<path class="st7" d="M401.6,146.59c0,6.78,4.17,11.37,9.87,11.37c4.98,0,9.97-3.79,9.97-11.37s-4.98-11.37-9.97-11.37
						C405.72,135.17,401.6,139.72,401.6,146.59 M434.24,167.2h-11.31l-0.24-3.79c-0.1-1.66,0.14-2.7,0.14-2.7h-0.14
						c-1.92,4.12-7.38,7.68-13.47,7.68c-10.74,0-19.36-8.25-19.36-21.75c0-13.6,8.63-21.75,19.03-21.75c6.09,0,10.83,2.8,13.04,6.02
						h0.14c0,0-0.24-1.09-0.24-3.36v-19.63h12.36v59.29h0.05V167.2z"/>
				</g>
			</g>
			<g class="st4">
				<g>
					<defs>
						<rect id="SVGID_7_" x="1.63" y="1.85" width="748.15" height="246.3"/>
					</defs>
					<clipPath id="SVGID_8_">
						<use xlink:href="#SVGID_7_"  style="overflow:visible;"/>
					</clipPath>
					<path class="st8" d="M455.9,167.2h-12.46v-41.23h12.46V167.2z M449.67,107.49c4.17,0,6.9,2.56,6.9,6.68
						c0,3.98-2.73,6.59-6.9,6.59c-4.22,0-6.9-2.65-6.9-6.59C442.77,110.05,445.41,107.49,449.67,107.49"/>
				</g>
			</g>
			<g class="st4">
				<g>
					<defs>
						<rect id="SVGID_9_" x="1.63" y="1.85" width="748.15" height="246.3"/>
					</defs>
					<clipPath id="SVGID_10_">
						<use xlink:href="#SVGID_9_"  style="overflow:visible;"/>
					</clipPath>
					<path class="st9" d="M468.84,125.93v-12.37h12.08v12.37h11.07v9.67h-11.07v16.59c0,4.36,2.59,5.88,5.32,5.88
						c2.59,0,5.22-0.81,7.04-1.75v10.14c-1.82,0.9-5.66,1.9-10.54,1.9c-6.57,0-12.99-3.03-13.9-11.71c-0.1-1.33-0.24-2.7-0.24-4.22
						v-16.82h-5.75v-9.67C462.85,125.93,468.84,125.93,468.84,125.93z"/>
				</g>
			</g>
			<g class="st4">
				<g>
					<defs>
						<rect id="SVGID_11_" x="1.63" y="1.85" width="748.15" height="246.3"/>
					</defs>
					<clipPath id="SVGID_12_">
						<use xlink:href="#SVGID_11_"  style="overflow:visible;"/>
					</clipPath>
					<path class="st10" d="M549.88,156.73c10.83,0,18.45-8.58,18.45-19.19c0-10.57-7.67-19.24-18.45-19.24
						c-10.83,0-18.45,8.67-18.45,19.24C531.43,148.15,539.1,156.73,549.88,156.73 M549.88,106.64c18.02,0,31.34,13.7,31.34,30.85
						c0,17.3-13.23,30.85-31.34,30.85s-31.34-13.51-31.34-30.85C518.54,120.43,531.77,106.64,549.88,106.64"/>
				</g>
			</g>
			<g class="st4">
				<g>
					<defs>
						<rect id="SVGID_13_" x="1.63" y="1.85" width="748.15" height="246.3"/>
					</defs>
					<clipPath id="SVGID_14_">
						<use xlink:href="#SVGID_13_"  style="overflow:visible;"/>
					</clipPath>
					<path class="st11" d="M591.91,125.93v-3.7c0-9.38,6.09-15.59,17.2-15.59c2.59,0,4.74,0.33,5.46,0.47v10.47
						c-0.67-0.24-2.25-0.57-4.22-0.57c-4.22,0-7,2.32-7,6.59v2.32h9.73v9.67h-9.25v31.61h-12.35v-31.61h-5.46v-9.67
						C586.02,125.93,591.91,125.93,591.91,125.93z"/>
				</g>
			</g>
			<g class="st4">
				<g>
					<defs>
						<rect id="SVGID_15_" x="1.63" y="1.85" width="748.15" height="246.3"/>
					</defs>
					<clipPath id="SVGID_16_">
						<use xlink:href="#SVGID_15_"  style="overflow:visible;"/>
					</clipPath>
					<path class="st12" d="M622.1,125.93v-3.7c0-9.38,6.09-15.59,17.2-15.59c2.59,0,4.74,0.33,5.46,0.47v10.47
						c-0.67-0.24-2.25-0.57-4.22-0.57c-4.22,0-7,2.32-7,6.59v2.32h9.73v9.67h-9.25v31.61h-12.36v-31.61h-5.46v-9.67
						C616.21,125.93,622.1,125.93,622.1,125.93z"/>
				</g>
			</g>
			<g class="st4">
				<g>
					<defs>
						<rect id="SVGID_17_" x="1.63" y="1.85" width="748.15" height="246.3"/>
					</defs>
					<clipPath id="SVGID_18_">
						<use xlink:href="#SVGID_17_"  style="overflow:visible;"/>
					</clipPath>
					<path class="st13" d="M662.7,167.2h-12.46v-41.23h12.46V167.2z M656.46,107.49c4.17,0,6.9,2.56,6.9,6.68
						c0,3.98-2.73,6.59-6.9,6.59c-4.22,0-6.9-2.65-6.9-6.59C649.56,110.05,652.2,107.49,656.46,107.49"/>
				</g>
			</g>
			<g class="st4">
				<g>
					<defs>
						<rect id="SVGID_19_" x="1.63" y="1.85" width="748.15" height="246.3"/>
					</defs>
					<clipPath id="SVGID_20_">
						<use xlink:href="#SVGID_19_"  style="overflow:visible;"/>
					</clipPath>
					<path class="st14" d="M693.22,157.54c4.98,0,9.49-2.32,11.07-3.36v11.14c-1.68,0.81-5.99,3.03-12.7,3.03
						c-13.32,0-22.09-9.24-22.09-21.8c0-12.51,8.82-21.75,22.09-21.75c6.66,0,10.83,2.13,12.46,2.99v11.23
						c-2.35-1.66-6.47-3.36-10.83-3.36c-6.57,0-11.21,4.27-11.21,10.95C682.01,153.27,686.47,157.54,693.22,157.54"/>
				</g>
			</g>
			<g class="st4">
				<g>
					<defs>
						<rect id="SVGID_21_" x="1.63" y="1.85" width="748.15" height="246.3"/>
					</defs>
					<clipPath id="SVGID_22_">
						<use xlink:href="#SVGID_21_"  style="overflow:visible;"/>
					</clipPath>
					<path class="st15" d="M730.36,134.5c-4.98,0-7.81,3.79-8.15,8.25h15.72C738.08,138.29,735.4,134.5,730.36,134.5 M749.82,144.08
						c0,2.23-0.24,4.22-0.34,5.02h-27.27c0.48,5.59,4.84,8.81,11.55,8.81c5.89,0,12.08-1.75,14.38-3.03v10.47
						c-2.59,1.33-8.15,2.99-15.53,2.99c-14.28,0-23.29-9.15-23.29-21.75c0-12.56,9.25-21.75,21.13-21.75
						C743.21,124.79,749.82,133.89,749.82,144.08"/>
				</g>
			</g>
		</g>
		<polygon class="st0" points="321.23,85.55 298.37,60.9 297.22,59.67 297.22,84.93 292.29,84.93 292.29,47.78 292.34,47.78 
			315.24,72.42 316.39,73.65 316.39,48.39 321.33,48.39 321.33,85.55 		"/>
		<g class="st3">
			<g class="st4">
				<g>
					<defs>
						<rect id="SVGID_23_" x="1.63" y="1.85" width="748.15" height="246.3"/>
					</defs>
					<clipPath id="SVGID_24_">
						<use xlink:href="#SVGID_23_"  style="overflow:visible;"/>
					</clipPath>
					<path class="st16" d="M350.42,72.23c0-5.4-3.64-9.19-8.58-9.19c-4.89,0-8.53,3.79-8.53,9.19s3.64,9.19,8.53,9.19
						C346.78,81.42,350.42,77.63,350.42,72.23 M355.02,72.23c0,7.68-5.56,13.32-13.18,13.32c-7.57,0-13.13-5.64-13.13-13.32
						s5.56-13.32,13.13-13.32C349.46,58.96,355.02,64.6,355.02,72.23"/>
				</g>
			</g>
			<g class="st4">
				<g>
					<defs>
						<rect id="SVGID_25_" x="1.63" y="1.85" width="748.15" height="246.3"/>
					</defs>
					<clipPath id="SVGID_26_">
						<use xlink:href="#SVGID_25_"  style="overflow:visible;"/>
					</clipPath>
					<path class="st17" d="M361.83,59.58h4.45l0.05,3.55c0.05,0.95-0.1,1.71-0.05,1.9h0.05c1.49-3.6,4.22-6.02,7.86-6.02
						c0.72,0,1.34,0.09,1.53,0.14v4.55c-0.19-0.05-0.67-0.14-1.34-0.14c-4.98,0-7.81,5.45-7.81,10.33v11.04h-4.74V59.58z"/>
				</g>
			</g>
			<g class="st4">
				<g>
					<defs>
						<rect id="SVGID_27_" x="1.63" y="1.85" width="748.15" height="246.3"/>
					</defs>
					<clipPath id="SVGID_28_">
						<use xlink:href="#SVGID_27_"  style="overflow:visible;"/>
					</clipPath>
					<path class="st18" d="M383.44,59.58v-7.63h4.65v7.63h7.72v3.84h-7.72v13.13c0,3.6,1.63,4.83,3.79,4.83
						c1.58,0,3.35-0.47,4.79-1.14v4.12c-1.15,0.62-3.21,1.18-5.75,1.18c-3.69,0-7.57-1.9-7.57-7.58V63.42h-4.22v-3.84H383.44z"/>
				</g>
			</g>
			<g class="st4">
				<g>
					<defs>
						<rect id="SVGID_29_" x="1.63" y="1.85" width="748.15" height="246.3"/>
					</defs>
					<clipPath id="SVGID_30_">
						<use xlink:href="#SVGID_29_"  style="overflow:visible;"/>
					</clipPath>
					<path class="st19" d="M401.94,48.39h4.7v14.13c0,1.18-0.14,2.13-0.14,2.56h0.05c1.05-2.27,4.22-6.07,9.63-6.07
						c6.28,0,8.77,3.7,8.77,10.05v15.92h-4.74V70c0-3.51-0.62-6.63-4.84-6.63c-5.03,0-8.58,3.98-8.58,9.15v12.46h-4.74V48.39H401.94
						z"/>
				</g>
			</g>
			<g class="st4">
				<g>
					<defs>
						<rect id="SVGID_31_" x="1.63" y="1.85" width="748.15" height="246.3"/>
					</defs>
					<clipPath id="SVGID_32_">
						<use xlink:href="#SVGID_31_"  style="overflow:visible;"/>
					</clipPath>
					<path class="st20" d="M443.82,62.89c-4.41,0-7.04,3.36-7.48,7.01h14.38C450.77,66.26,448.38,62.89,443.82,62.89 M455.42,70.76
						c0,1-0.1,1.99-0.1,2.46h-19.03v0.05c0.14,4.98,3.55,8.1,8.91,8.1c3.5,0,7.09-1,9.25-2.37v4.31c-2.01,1.14-5.42,2.18-9.58,2.18
						c-8.1,0-13.56-5.45-13.56-13.32c0-7.68,5.46-13.32,12.56-13.32C451.4,58.96,455.42,64.55,455.42,70.76"/>
				</g>
			</g>
			<g class="st4">
				<g>
					<defs>
						<rect id="SVGID_33_" x="1.63" y="1.85" width="748.15" height="246.3"/>
					</defs>
					<clipPath id="SVGID_34_">
						<use xlink:href="#SVGID_33_"  style="overflow:visible;"/>
					</clipPath>
					<path class="st21" d="M462.08,59.58h4.46l0.05,3.55c0.05,0.95-0.1,1.71-0.05,1.9h0.05c1.49-3.6,4.22-6.02,7.86-6.02
						c0.72,0,1.34,0.09,1.53,0.14v4.55c-0.19-0.05-0.67-0.14-1.34-0.14c-4.98,0-7.81,5.45-7.81,10.33v11.04h-4.74
						C462.08,84.93,462.08,59.58,462.08,59.58z"/>
				</g>
			</g>
			<g class="st4">
				<g>
					<defs>
						<rect id="SVGID_35_" x="1.63" y="1.85" width="748.15" height="246.3"/>
					</defs>
					<clipPath id="SVGID_36_">
						<use xlink:href="#SVGID_35_"  style="overflow:visible;"/>
					</clipPath>
					<path class="st22" d="M486.33,59.58l0.1,3.55c0,1.09-0.14,1.85-0.19,1.94h0.1c0.96-2.27,4.36-6.07,9.78-6.07
						c6.28,0,8.77,3.7,8.77,10.05v15.92h-4.74V70c0-3.51-0.62-6.63-4.84-6.63c-5.03,0-8.58,3.98-8.58,9.15v12.46h-4.74v-25.4
						C481.97,59.58,486.33,59.58,486.33,59.58z"/>
				</g>
			</g>
		</g>
		<g class="st3">
			<g class="st4">
				<g>
					<defs>
						<rect id="SVGID_37_" x="1.63" y="1.85" width="748.15" height="246.3"/>
					</defs>
					<clipPath id="SVGID_38_">
						<use xlink:href="#SVGID_37_"  style="overflow:visible;"/>
					</clipPath>
					<path class="st23" d="M541.16,59.58h4.46l0.05,3.55c0.05,0.95-0.1,1.71-0.05,1.9h0.05c1.49-3.6,4.22-6.02,7.86-6.02
						c0.72,0,1.34,0.09,1.53,0.14v4.55c-0.19-0.05-0.67-0.14-1.34-0.14c-4.98,0-7.81,5.45-7.81,10.33v11.04h-4.74
						C541.16,84.93,541.16,59.58,541.16,59.58z"/>
				</g>
			</g>
			<g class="st4">
				<g>
					<defs>
						<rect id="SVGID_39_" x="1.63" y="1.85" width="748.15" height="246.3"/>
					</defs>
					<clipPath id="SVGID_40_">
						<use xlink:href="#SVGID_39_"  style="overflow:visible;"/>
					</clipPath>
					<path class="st24" d="M571.3,62.89c-4.41,0-7.04,3.36-7.48,7.01h14.38C578.25,66.26,575.86,62.89,571.3,62.89 M582.95,70.76
						c0,1-0.1,1.99-0.1,2.46h-19.03v0.05c0.14,4.98,3.55,8.1,8.91,8.1c3.5,0,7.09-1,9.25-2.37v4.31c-2.01,1.14-5.42,2.18-9.58,2.18
						c-8.1,0-13.56-5.45-13.56-13.32c0-7.68,5.46-13.32,12.51-13.32C578.88,58.96,582.95,64.55,582.95,70.76"/>
				</g>
			</g>
		</g>
		<g class="st3">
			<g class="st4">
				<g>
					<defs>
						<rect id="SVGID_41_" x="1.63" y="1.85" width="748.15" height="246.3"/>
					</defs>
					<clipPath id="SVGID_42_">
						<use xlink:href="#SVGID_41_"  style="overflow:visible;"/>
					</clipPath>
					<path class="st25" d="M618.17,73.56c-8.34-1.33-11.89,0.9-11.89,4.36c0,2.23,1.63,3.79,4.22,3.79
						C614.87,81.76,618.17,77.54,618.17,73.56 M603.27,60.81c1.44-0.76,4.79-1.9,9.01-1.9c7.19,0,10.74,3.46,10.74,9.81v16.21h-4.41
						l-0.05-2.99c-0.05-1.23,0.14-2.04,0.14-2.04h-0.1c-0.29,0.71-3.12,5.64-8.91,5.64c-4.7,0-8.1-2.8-8.1-7.44
						c0-6.21,5.99-9.29,16.68-7.82V69c0-4.41-2.68-5.92-6.71-5.92c-3.55,0-6.81,1.23-8.34,2.13V60.8h0.05V60.81z"/>
				</g>
			</g>
			<g class="st4">
				<g>
					<defs>
						<rect id="SVGID_43_" x="1.63" y="1.85" width="748.15" height="246.3"/>
					</defs>
					<clipPath id="SVGID_44_">
						<use xlink:href="#SVGID_43_"  style="overflow:visible;"/>
					</clipPath>
					<path class="st26" d="M635.86,59.58l0.1,3.55c0,1.09-0.14,1.85-0.19,1.94h0.1c0.96-2.27,4.36-6.07,9.78-6.07
						c6.28,0,8.77,3.7,8.77,10.05v15.92h-4.74V70c0-3.51-0.62-6.63-4.84-6.63c-5.03,0-8.58,3.98-8.58,9.15v12.46h-4.74v-25.4
						C631.5,59.58,635.86,59.58,635.86,59.58z"/>
				</g>
			</g>
			<g class="st4">
				<g>
					<defs>
						<rect id="SVGID_45_" x="1.63" y="1.85" width="748.15" height="246.3"/>
					</defs>
					<clipPath id="SVGID_46_">
						<use xlink:href="#SVGID_45_"  style="overflow:visible;"/>
					</clipPath>
					<path class="st27" d="M665.38,72.23c0,5.26,3.16,9.19,7.91,9.19c3.83,0,8.05-2.84,8.05-9.19s-4.22-9.19-8.05-9.19
						C668.54,63.08,665.38,66.88,665.38,72.23 M686.13,84.93h-4.41l-0.1-2.99c0-1.14,0.14-1.9,0.14-1.9h-0.1
						c-1.34,2.84-4.89,5.5-9.06,5.5c-6.76,0-11.89-5.45-11.89-13.32c0-7.96,5.13-13.32,11.74-13.32c4.12,0,7.52,2.23,8.91,4.6h0.1
						c0,0-0.14-0.76-0.14-2.09V48.34h4.74v36.59H686.13z"/>
				</g>
			</g>
		</g>
		<polygon class="st28" points="228.07,48.16 166.01,185.07 238.47,166.97 		"/>
		<path class="st29" d="M17.49,7.16l210.58,40.99l20.99-46.3L17.49,7.16z M249.06,1.85L17.49,7.16L249.06,1.85z"/>
		<polygon class="st2" points="1.63,67.16 33.02,155.83 97.09,22.66 17.49,7.16 		"/>
		<g>
			<g>
				<g>
					<defs>
						<rect id="SVGID_47_" x="1.63" y="1.85" width="748.15" height="246.3"/>
					</defs>
					<clipPath id="SVGID_48_">
						<use xlink:href="#SVGID_47_"  style="overflow:visible;"/>
					</clipPath>
					<path class="st30" d="M124.31,129.57c-7.91-17.87-15.58-35.97-20.9-50.95c-5.02,11.9-14.13,34.79-21.37,50.95H124.31z"/>
				</g>
			</g>
		</g>
		<polygon class="st2" points="110.7,25.31 110.61,25.31 176.5,161.9 176.55,161.8 211.63,84.41 228.07,48.16 		"/>
	</g>
</g>
</svg>
