<?xml version="1.0" encoding="utf-8"?>
<!-- Generator: Adobe Illustrator 25.2.3, SVG Export Plug-In . SVG Version: 6.00 Build 0)  -->
<svg version="1.0" id="Layer_1" xmlns="http://www.w3.org/2000/svg" xmlns:xlink="http://www.w3.org/1999/xlink" x="0px" y="0px"
	 viewBox="0 0 250 250" style="enable-background:new 0 0 250 250;" xml:space="preserve">
<style type="text/css">
	.st0{fill:#223261;}
	.st1{display:none;}
	.st2{display:inline;fill:#223261;}
</style>
<g>
	<g>
		<path class="st0" d="M115.66,150.19c-7.69-0.73-16.18-0.87-25.78-0.29c-37.96,2.76-60.86-8.41-73.35-18.42
			c-2.56-2.03-4.8-4.06-6.89-6.38c-4-4.21-5.77-7.4-6.09-7.83l0,0c-0.64-1.16-1.28-2.18-1.92-3.34v80.77l78.16,40.9
			c-8.01-9.14-12.81-20.59-12.81-33.06C66.97,176.29,87.95,154.54,115.66,150.19z"/>
		<path class="st0" d="M139.36,79.86c0.16-0.73,0.32-1.31,0.48-1.89c0.16-0.44,0.32-0.87,0.48-1.31c0.16-0.29,0.16-0.58,0.32-0.73
			c0.16-0.58,0.32-1.02,0.48-1.6c0.16-0.29,0.32-0.73,0.48-1.02c0.16-0.29,0.32-0.58,0.32-1.02c0.16-0.44,0.32-0.87,0.64-1.31
			c-4.96,5.66-9.77,12.62-14.25,21.03c-16.34,31.03-37.16,43.65-52.85,48.87c-0.48,0.15-0.8,0.29-1.28,0.44
			c-0.16,0-0.32,0.15-0.48,0.15c-3.36,1.02-6.89,1.89-10.41,2.32c7.69,0.87,16.18,1.16,25.78,0.44
			c50.45-3.63,73.83,15.08,82.8,25.67c-3.04-6.67-7.05-13.78-12.81-21.17C136.16,118.29,135.68,94.5,139.36,79.86L139.36,79.86z"/>
		<path class="st0" d="M226.16,137.28c-24.82,12.91-55.73,7.69-73.67-11.17c3.04,6.09,6.89,12.47,12.17,19.29
			c36.84,48.44,13.13,82.52,12.01,83.97h-0.16c-1.12,1.74-2.4,3.48-3.68,5.08l75.59-39.59v-78.31
			C243.46,124.81,235.93,132.06,226.16,137.28z"/>
		<path class="st0" d="M110.21,108.28c4.16-5.37,8.33-11.6,12.33-19c24.98-47.86,63.58-51.34,72.55-51.48L125.11,1.26L54.8,37.95
			c9.93,0,20.02,2.32,29.31,7.11C108.77,57.96,119.18,84.79,110.21,108.28z"/>
		<path class="st0" d="M248.42,84.06c-0.96-5.66-3.04-11.31-6.41-16.53c-2.08-3.34-4.64-6.24-7.37-8.99
			c-6.73-6.38-15.21-10.88-24.34-13.05c-0.48-0.15-0.8-0.15-1.28-0.29c-12.65-2.76-26.27-1.31-38.44,5.08
			c-1.76,0.87-3.36,1.89-4.96,2.9c0.64-0.15,1.44-0.29,2.24-0.29c1.12,0,2.24,0.29,3.2,0.73c2.56,1.16,4.16,3.34,4.16,6.09
			c0,2.76-1.76,4.93-4.16,6.09c-0.96,0.44-2.08,0.73-3.2,0.73c-1.12,0-2.24-0.29-3.2-0.73c-2.56-1.16-4.16-3.34-4.16-6.09
			c0-1.16,0.32-2.32,0.96-3.34c-3.84,3.19-7.21,6.96-9.77,10.88l0,0c0,0.15-0.32,0.44-0.64,0.87c-2.08,3.48-3.84,7.11-4.96,10.88
			c-3.52,11.75-1.92,24.65,5.29,35.96c3.52,5.51,8.01,10.15,13.29,13.78V70.29c0.96,0.29,2.08,0.44,3.2,0.44
			c1.12,0,2.24-0.15,3.2-0.44v62.21c3.84,1.89,7.85,3.34,12.01,4.35c12.97,3.19,27.23,1.74,39.72-4.79c3.2-1.6,6.09-3.63,8.65-5.66
			c-5.45,2.18-11.37,3.34-17.62,3.34c-15.37,0-28.83-7.11-36.84-17.84h15.37l21.3-52.93l-14.41,0.87l-19.06,1.74
			c0.16-0.73,0.32-1.45,0.32-2.32c0-1.6-0.32-3.19-1.12-4.5l24.34,1.6l7.85,0.44h3.04l0,0c4,0,7.37-1.6,8.17-3.63
			c0,0.15,0,0.15,0,0.29c0,2.9-3.2,5.22-7.37,5.51l21.3,52.93h7.05c1.44-2.76,2.72-5.66,3.52-8.56c0.48-1.74,0.96-3.48,1.12-5.22
			C249.22,93.49,249.22,88.85,248.42,84.06z"/>
		<polygon class="st0" points="195.89,111.91 233.21,111.91 214.63,65.5 		"/>
		<path class="st0" d="M164.82,222.41l-23.7,2.18h-3.68c0,0.44,0.16,0.87,0.16,1.16v22.91c9.77-2.03,18.42-6.53,25.14-12.62
			c4.48-4.06,8.17-8.85,10.73-14.21L164.82,222.41z"/>
		<path class="st0" d="M175.23,217.62c1.76-4.79,2.72-9.86,2.72-15.08c0-8.56-2.56-16.68-6.89-23.64l0,0c0-0.15-0.32-0.44-0.64-1.02
			c-2.24-3.19-4.8-6.24-7.69-8.85c-9.45-8.56-22.58-13.92-37-13.92s-27.55,5.22-37,13.92c-9.45,8.56-15.37,20.45-15.37,33.5
			c0,5.22,0.96,10.3,2.72,15.08l4.96-0.29l37-2.47v-31.03c2.24,1.16,4.8,1.74,7.53,1.74c2.72,0,5.29-0.58,7.53-1.74v31.03l1.92,0.15
			l35.07,2.32L175.23,217.62z M125.75,180.93c-6.25,0-11.21-4.64-11.21-10.15c0-5.66,5.12-10.15,11.21-10.15
			c6.25,0,11.21,4.64,11.21,10.15C136.96,176.44,131.99,180.93,125.75,180.93z"/>
		<path class="st0" d="M86.51,222.41l-8.49-0.58c2.56,5.37,6.25,10.15,10.73,14.21c6.73,6.09,15.53,10.59,25.14,12.62v-22.91
			c0-0.29,0-0.73,0.16-1.16h-3.68L86.51,222.41z"/>
		<path class="st0" d="M14.28,121.19l0.8-1.16c3.2-5.08,6.57-10.15,6.57-17.55c0-1.02,0-2.03-0.16-2.9v-0.29
			c-0.8-8.56-0.8-11.6,0.64-18.13c2.88-1.6,5.45-2.9,8.33-3.63c0.32,3.92,1.28,6.82,2.08,9.57c1.12,3.34,2.08,6.38,2.08,11.02
			c0,5.08-2.72,8.56-5.77,12.33c-3.2,4.06-6.41,8.27-6.41,14.5c0,1.31,0.16,2.47,0.32,3.63c1.76,1.16,3.52,2.32,5.61,3.34
			c-1.12-2.03-1.76-4.35-1.76-6.96c0-5.08,2.72-8.56,5.77-12.33c3.2-4.06,6.41-8.27,6.41-14.5c0-5.22-1.12-8.7-2.24-12.04
			c-0.96-2.9-1.76-5.51-1.92-9.28c0.96-0.15,1.92-0.15,2.88-0.15c1.6,0,3.2,0.15,4.8,0.29c0.16,4.93,2.08,8.99,3.84,12.91
			c1.76,3.92,3.52,7.54,3.52,12.04c0,5.08-2.72,8.56-5.77,12.33c-3.2,4.06-6.41,8.27-6.41,14.5c0,2.9,0.64,5.37,1.76,7.69
			c1.76,0.44,3.52,0.87,5.29,1.31c-1.76-2.61-3.04-5.37-3.04-8.85c0-5.08,2.72-8.56,5.77-12.33c3.2-4.06,6.41-8.27,6.41-14.5
			c0-5.22-1.92-9.43-3.84-13.49c-1.6-3.48-3.2-6.82-3.52-10.88c2.72,0.44,5.29,1.16,7.85,1.74c-0.32,1.02-0.48,2.03-0.48,3.19
			c0,5.51,3.04,9.28,5.77,12.62c2.56,3.19,4.96,6.09,4.96,10.44c0,5.08-2.72,8.56-5.77,12.33c-3.2,4.06-6.41,8.27-6.41,14.5
			c0,2.32,0.48,4.21,1.12,6.09c0.32,0,0.64,0,0.96,0l0,0c0.16,0,0.64,0,1.28,0c0.64,0,1.44,0,2.08-0.15
			c-0.8-1.89-1.44-3.77-1.44-6.09c0-5.08,2.72-8.56,5.77-12.33c3.2-4.06,6.41-8.27,6.41-14.5c0-5.51-3.04-9.28-5.77-12.62
			c-2.56-3.19-4.96-6.09-4.96-10.44c0-0.73,0.16-1.45,0.32-2.03c5.29,1.45,10.89,2.76,17.94,2.76h6.25c4,0,6.89-0.44,9.93-1.45
			c0.48,2.18,0.8,4.35,1.12,6.67l-3.68,0.29v1.74c0,4.79-0.64,8.99-1.92,13.78H76.26v15.66l17.46,2.76h0.16
			c2.24-2.32,4.32-4.93,6.09-7.69c7.21-11.31,8.65-24.22,5.29-35.96C101.72,67.24,93.4,56.8,80.9,50.27s-26.75-7.83-39.72-4.79
			c-0.48,0.15-0.96,0.29-1.28,0.29c-7.85,2.03-15.05,5.8-21.14,11.02c-3.52,3.05-6.73,6.67-9.29,10.59
			C2.27,78.7,0.83,91.6,4.19,103.35C6.11,109.88,9.47,115.97,14.28,121.19z M85.07,65.79c-3.04,1.16-6.09,1.6-9.61,1.74
			c2.24-2.03,4-4.5,4.16-7.83C81.7,61.58,83.47,63.61,85.07,65.79z M64.09,52.88c2.24,0.29,4.48,0.87,6.57,1.74
			c1.44,0.58,2.88,1.16,4.16,2.03c0.32,1.02,0.64,2.32,0.64,2.76c0,4.06-3.04,6.24-7.21,8.56h-2.08c-3.52-0.44-6.73-0.87-9.61-1.31
			c4.16-2.03,8.01-4.93,8.01-10.88C64.73,54.91,64.57,54.04,64.09,52.88z M58.32,52.3c0.48,0,0.8,0,1.28,0
			c0,0.15,0.16,0.29,0.16,0.58c0.32,0.87,0.8,2.18,0.8,2.61c0,4.64-3.2,6.38-8.17,8.7c-0.8,0.29-1.6,0.73-2.4,1.16
			c-2.56-0.44-5.29-0.73-8.17-1.02c3.52-2.61,7.21-5.66,7.85-11.31C52.4,52.59,55.28,52.3,58.32,52.3z M45.51,54.19
			c-0.8,3.48-3.52,5.51-6.73,7.83c-0.96,0.73-1.92,1.31-2.88,2.18c-0.8,0-1.6,0-2.4,0c-0.96,0-1.92,0-2.88,0.15
			c1.12-1.16,2.24-2.32,3.36-3.48C37.02,57.67,41.02,55.49,45.51,54.19z M21.65,69.71c0.96-0.44,1.92-0.73,2.88-1.02
			s1.76-0.44,2.72-0.58c1.6-0.29,3.36-0.44,5.12-0.44c0.32,0,0.8,0,1.12,0c1.44,0,2.72,0,4,0.15c2.72,0.15,5.29,0.29,7.85,0.58
			c1.92,0.29,3.68,0.44,5.61,0.73c0.96,0.15,2.08,0.29,3.04,0.44c2.56,0.44,5.29,0.87,8.33,1.16c1.28,0.15,2.4,0.29,3.68,0.44h3.68
			h3.36c5.61,0,9.93-0.73,14.25-2.32c0.64-0.29,1.28-0.44,1.92-0.73c0.64-0.29,1.12-0.58,1.76-0.87c0.48-0.29,0.96-0.44,1.44-0.73
			l1.76,7.4l0.64,2.61c-0.48,0.29-1.12,0.44-1.6,0.73c-0.64,0.29-1.28,0.44-1.92,0.73c-2.72,1.02-5.29,1.45-8.97,1.45H76.1
			c-6.09,0-10.89-1.02-15.86-2.32c-0.96-0.29-1.92-0.58-2.88-0.73c-0.48-0.15-0.96-0.29-1.44-0.44c-3.04-0.87-6.09-1.6-9.45-2.18
			c-1.28-0.29-2.72-0.44-4.16-0.58c-1.6-0.15-3.36-0.29-5.12-0.29c-0.96,0-1.92,0-2.72,0.15c-1.44,0.15-2.88,0.29-4.16,0.58
			c-2.56,0.58-4.8,1.45-7.05,2.47c-0.8,0.44-1.6,0.87-2.56,1.31c-0.32,0.15-0.64,0.29-0.8,0.44l-0.96-1.74l-2.08-4.06
			C18.6,71.16,20.04,70.29,21.65,69.71z"/>
		<path class="st0" d="M74.98,127.57c3.04,0,5.61,1.74,6.89,4.06c1.12-0.58,2.24-1.31,3.36-2.03c-1.92-3.34-5.77-5.66-10.25-5.66
			c-6.41,0-11.53,4.64-11.53,10.44c0,1.16,0.16,2.32,0.64,3.34c1.28-0.29,2.72-0.44,4-0.73c-0.32-0.87-0.64-1.74-0.64-2.61
			C67.61,130.61,70.97,127.57,74.98,127.57z"/>
	</g>
	<g class="st1">
		<path class="st2" d="M363.09,112.49h-33.63v-3.63c3.04-0.15,5.45-0.58,7.37-1.02c1.92-0.58,2.88-1.16,2.88-1.89
			c0-0.29,0-0.73-0.16-1.16c0-0.44-0.16-0.87-0.32-1.16l-6.73-16.39H304c-1.12,2.47-1.92,4.5-2.56,6.24s-1.28,3.48-1.76,4.93
			c-0.48,1.45-0.8,2.76-0.96,3.63c-0.16,0.87-0.32,1.74-0.32,2.32c0,1.45,1.12,2.47,3.52,3.19c2.4,0.73,5.12,1.16,8.17,1.31v3.63
			h-30.43v-3.63c0.96,0,2.24-0.29,3.68-0.58c1.44-0.29,2.72-0.73,3.68-1.31c1.6-0.87,2.72-1.89,3.52-2.9c0.8-1.02,1.6-2.47,2.4-4.21
			c4-9.14,8.49-19.58,13.45-31.03s9.29-21.75,13.13-30.6h4.64l27.07,63.08c0.64,1.31,1.28,2.47,1.92,3.19
			c0.8,0.87,1.76,1.6,3.04,2.47c0.8,0.44,2.08,0.87,3.36,1.16c1.44,0.29,2.56,0.58,3.52,0.58V112.49z M330.58,82.47l-12.33-28.42
			l-12.01,28.42H330.58z"/>
		<path class="st2" d="M398.17,110.31c-2.4,0.87-4.8,1.74-7.05,2.32c-2.24,0.58-4.96,1.02-8.17,1.02c-4.64,0-8.01-1.02-9.93-3.19
			c-1.92-2.18-2.88-5.22-2.88-9.14V66.66h-10.09v-4.93h10.41V45.92h10.41v15.81h16.18v4.93h-16.02v28.42c0,2.18,0.16,3.92,0.32,5.37
			c0.16,1.45,0.64,2.61,1.28,3.77c0.64,1.02,1.6,1.74,2.72,2.32c1.28,0.58,2.88,0.73,4.96,0.73c0.96,0,2.4-0.15,4.16-0.29
			c1.92-0.15,3.2-0.29,3.84-0.58v3.92H398.17z"/>
		<path class="st2" d="M437.41,110.31c-2.4,0.87-4.8,1.74-7.05,2.32c-2.24,0.58-4.96,1.02-8.17,1.02c-4.64,0-8.01-1.02-9.93-3.19
			c-1.92-2.18-2.88-5.22-2.88-9.14V66.66h-10.09v-4.93h10.41V45.92h10.41v15.81h16.18v4.93h-16.02v28.42c0,2.18,0.16,3.92,0.32,5.37
			s0.64,2.61,1.28,3.77c0.64,1.02,1.6,1.74,2.72,2.32c1.28,0.58,2.88,0.73,4.96,0.73c0.96,0,2.4-0.15,4.16-0.29
			c1.92-0.15,3.2-0.29,3.84-0.58v3.92H437.41z"/>
		<path class="st2" d="M496.66,86.53c0,3.63-0.64,7.11-1.92,10.59c-1.28,3.48-3.04,6.38-5.45,8.85c-2.56,2.76-5.61,4.79-9.13,6.09
			c-3.52,1.31-7.37,2.03-11.69,2.03c-3.52,0-7.05-0.58-10.25-1.89c-3.2-1.16-6.09-3.05-8.65-5.37c-2.4-2.32-4.48-5.08-5.93-8.41
			c-1.44-3.34-2.24-7.11-2.24-11.17c0-7.98,2.56-14.5,7.69-19.58c5.12-5.08,11.85-7.54,20.18-7.54c7.85,0,14.41,2.47,19.54,7.25
			C494.1,72.03,496.66,78.55,496.66,86.53z M484.81,86.53c0-2.61-0.32-5.37-0.8-8.12c-0.64-2.9-1.44-5.37-2.56-7.25
			c-1.28-2.18-2.88-3.92-4.8-5.08c-1.92-1.31-4.48-1.89-7.21-1.89c-2.88,0-5.45,0.73-7.53,2.03c-2.08,1.31-3.84,3.05-5.12,5.37
			c-1.28,2.03-2.08,4.5-2.56,7.25c-0.48,2.76-0.8,5.22-0.8,7.83c0,3.34,0.32,6.38,0.96,9.14c0.64,2.76,1.6,5.37,2.88,7.54
			c1.28,2.18,2.88,3.92,4.96,5.22c1.92,1.31,4.32,1.89,7.37,1.89c4.8,0,8.49-2.03,11.37-6.24
			C483.53,99.72,484.81,93.92,484.81,86.53z"/>
		<path class="st2" d="M546.79,68.11c0,1.74-0.48,3.34-1.44,4.64c-0.96,1.31-2.4,2.03-4.32,2.03c-2.08,0-3.68-0.44-4.8-1.45
			c-1.12-1.02-1.76-2.03-1.76-3.34c0-0.73,0-1.45,0.16-2.03c0.16-0.58,0.32-1.31,0.32-1.89c-1.76,0-3.84,0.73-6.25,2.03
			c-2.4,1.31-4.48,3.19-6.09,5.51v29.73c0,1.16,0.32,2.18,0.8,2.9c0.48,0.73,1.28,1.31,2.4,1.74c0.96,0.29,2.24,0.58,3.68,0.73
			c1.44,0.15,2.88,0.29,3.84,0.29v3.48h-29.63v-3.48c0.8,0,1.76-0.15,2.72-0.15c0.96,0,1.76-0.15,2.4-0.44
			c1.12-0.29,1.92-0.87,2.4-1.6s0.8-1.74,0.8-3.05V72.32c0-1.02-0.32-2.18-0.8-3.19s-1.28-1.89-2.24-2.47
			c-0.8-0.44-1.6-0.73-2.56-0.87c-0.96-0.15-2.08-0.29-3.2-0.44v-3.48l18.74-1.16l0.8,0.73v7.25h0.32c2.4-2.76,4.96-4.93,7.85-6.38
			c2.88-1.45,5.61-2.18,8.01-2.18c2.4,0,4.32,0.73,5.93,2.18C545.99,63.76,546.79,65.64,546.79,68.11z"/>
		<path class="st2" d="M612.45,112.49h-27.55v-3.48c0.8,0,1.76-0.15,2.88-0.15c1.12,0,1.92-0.15,2.56-0.44
			c1.12-0.29,1.92-0.87,2.4-1.6c0.48-0.73,0.8-1.74,0.8-3.05V77.54c0-3.63-0.96-6.38-2.88-8.41c-1.92-2.03-4.16-2.9-6.89-2.9
			c-2.08,0-3.84,0.29-5.61,0.87c-1.6,0.58-3.2,1.31-4.48,2.03c-1.28,0.73-2.24,1.6-3.04,2.61c-0.8,0.87-1.28,1.6-1.6,2.18v29.29
			c0,1.16,0.32,2.18,0.8,2.9c0.48,0.73,1.28,1.31,2.4,1.74c0.8,0.29,1.6,0.58,2.56,0.73c0.96,0.15,1.92,0.29,2.88,0.29v3.48h-27.55
			v-3.48c0.8,0,1.76-0.15,2.72-0.15s1.76-0.15,2.4-0.44c1.12-0.29,1.92-0.87,2.4-1.6c0.48-0.73,0.8-1.74,0.8-3.05V72.32
			c0-1.16-0.32-2.18-0.8-3.19c-0.48-1.02-1.28-1.74-2.24-2.47c-0.8-0.44-1.6-0.73-2.56-0.87c-0.96-0.15-2.08-0.29-3.2-0.44v-3.48
			l18.74-1.16l0.8,0.73v7.25h0.32c0.96-0.87,2.08-1.89,3.36-2.9c1.44-1.16,2.72-2.03,3.84-2.76c1.44-0.87,3.04-1.45,4.96-2.03
			c1.92-0.58,4.16-0.87,6.57-0.87c5.45,0,9.45,1.6,12.01,4.64c2.56,3.05,3.84,7.11,3.84,12.18v26.54c0,1.16,0.16,2.18,0.64,2.9
			c0.48,0.73,1.28,1.31,2.4,1.74c0.96,0.29,1.76,0.58,2.4,0.73c0.64,0.15,1.6,0.29,2.72,0.29v3.34H612.45z"/>
		<path class="st2" d="M666.59,100.45c-2.4,4.06-5.45,7.25-9.45,9.72s-8.49,3.63-13.61,3.63c-4.48,0-8.49-0.73-11.85-2.18
			c-3.36-1.45-6.25-3.48-8.49-5.95c-2.24-2.47-3.84-5.37-4.96-8.7c-1.12-3.34-1.6-6.82-1.6-10.44c0-3.34,0.64-6.53,1.76-9.72
			c1.12-3.19,2.88-6.09,5.12-8.56c2.24-2.47,4.8-4.35,8.01-5.95c3.2-1.45,6.89-2.32,10.89-2.32c4.16,0,7.69,0.58,10.57,1.74
			c2.88,1.16,5.29,2.76,7.21,4.79c1.76,1.89,3.04,4.21,3.84,6.82s1.28,5.51,1.28,8.56v3.48h-37.32c0,3.34,0.32,6.38,1.12,9.14
			c0.64,2.76,1.76,5.08,3.36,7.25c1.44,2.03,3.36,3.63,5.77,4.79c2.4,1.16,5.29,1.74,8.49,1.74c3.36,0,6.25-0.73,8.81-2.18
			c2.4-1.45,4.8-4.06,7.05-7.83L666.59,100.45z M654.09,81.02c0-1.89-0.16-3.92-0.48-6.24c-0.32-2.18-0.96-4.06-1.76-5.51
			c-0.8-1.6-2.08-2.9-3.52-3.92c-1.6-1.02-3.52-1.45-5.93-1.45c-4,0-7.37,1.45-9.93,4.5c-2.72,3.05-4,7.25-4.32,12.62H654.09z"/>
		<path class="st2" d="M667.71,129.16c0-1.74,0.48-3.19,1.6-4.21c1.12-1.02,2.4-1.6,3.84-1.6c1.28,0,2.24,0.15,3.2,0.58
			c0.8,0.44,1.6,0.87,2.4,1.6c0.64,0.58,1.12,1.16,1.76,2.18c0.64,0.87,1.12,1.6,1.6,2.18c1.92-0.87,4.16-3.34,6.89-7.25
			c2.72-3.92,4.48-7.4,5.77-10.3c-3.68-8.12-6.89-15.52-9.77-21.9c-2.88-6.38-5.93-13.05-9.13-20.01c-0.8-1.6-1.92-2.76-3.68-3.63
			c-1.76-0.87-3.36-1.45-5.12-1.74v-3.48h25.62v3.63c-1.12,0-2.56,0.29-4.16,0.58c-1.6,0.44-2.4,0.87-2.4,1.31
			c0,0.15,0.16,0.58,0.32,1.02c0.16,0.44,0.32,1.02,0.64,1.45c1.44,3.48,3.68,8.27,6.57,14.79c2.88,6.38,5.29,11.6,6.89,15.37
			c1.76-3.63,3.52-7.54,5.29-11.46c1.92-3.92,3.84-8.56,6.25-13.92c0.32-0.73,0.64-1.6,1.12-2.76s0.8-2.18,0.8-2.9
			c0-0.87-0.8-1.74-2.56-2.47c-1.76-0.73-3.36-1.31-4.96-1.45v-3.34h20.66v3.19c-1.12,0.15-2.72,0.73-4.48,1.74
			c-1.92,1.02-3.2,2.47-4.16,4.35c-4.48,9.57-8.49,18.13-12.01,25.96c-3.52,7.83-6.25,13.63-8.01,17.26
			c-2.4,4.79-4.48,8.56-6.41,11.31s-3.68,4.79-5.45,6.38c-1.76,1.45-3.36,2.47-4.8,2.9c-1.44,0.44-2.88,0.73-4.48,0.73
			c-3.04,0-5.29-0.58-7.05-1.89C668.51,132.21,667.71,130.76,667.71,129.16z"/>
		<path class="st2" d="M835.23,83.19c-0.96,0.15-2.08,0.29-3.68,0.44c-1.6,0.29-2.72,0.58-3.68,1.02c-1.12,0.58-1.92,1.31-2.4,2.18
			c-0.48,1.02-0.64,2.03-0.64,3.34v5.66c0,4.21,0,6.96,0.16,8.41c0,1.45,0.16,2.61,0.16,3.63c-5.12,2.03-10.09,3.63-15.05,4.79
			s-9.93,1.6-14.73,1.6c-5.12,0-10.09-0.87-14.89-2.61c-4.8-1.74-8.97-4.21-12.49-7.54c-3.68-3.34-6.57-7.25-8.65-11.89
			c-2.08-4.64-3.2-9.86-3.2-15.66c0-5.66,0.96-10.73,3.04-15.52s4.96-8.99,8.65-12.47c3.68-3.48,7.85-6.09,12.97-7.98
			c4.96-1.89,10.41-2.9,16.02-2.9c4.64,0,8.49,0.44,11.85,1.45c3.36,1.02,6.41,2.18,8.97,3.63l2.4-3.48h4.64l0.48,25.67h-5.12
			c-0.8-2.76-1.76-5.66-3.04-8.41c-1.12-2.76-2.72-5.22-4.64-7.4c-1.92-2.18-4.16-3.92-6.89-5.22s-5.93-1.89-9.61-1.89
			c-4,0-7.69,0.73-10.89,2.32c-3.2,1.45-5.93,3.77-8.33,6.67c-2.4,2.9-4.16,6.38-5.45,10.73c-1.28,4.21-1.92,8.99-1.92,14.36
			c0,4.64,0.64,8.99,1.92,13.2c1.28,4.06,3.04,7.69,5.45,10.73c2.4,3.05,5.29,5.51,8.81,7.25c3.52,1.74,7.53,2.61,12.01,2.61
			c3.36,0,6.41-0.44,9.13-1.45c2.72-0.87,4.64-1.89,5.93-2.9c0.32-1.74,0.48-3.63,0.48-5.37c0-1.89,0-3.34,0-4.64v-4.35
			c0-1.45-0.16-2.76-0.64-3.92s-1.28-1.89-2.72-2.47c-1.28-0.58-2.88-0.87-5.12-1.16c-2.08-0.29-3.84-0.44-5.12-0.44v-3.77h35.55
			v3.77H835.23z"/>
		<path class="st2" d="M889.04,100.45c-2.4,4.06-5.45,7.25-9.45,9.72s-8.49,3.63-13.61,3.63c-4.48,0-8.49-0.73-11.85-2.18
			c-3.36-1.45-6.25-3.48-8.49-5.95c-2.24-2.47-3.84-5.37-4.96-8.7c-1.12-3.34-1.6-6.82-1.6-10.44c0-3.34,0.64-6.53,1.76-9.72
			c1.12-3.19,2.88-6.09,5.12-8.56c2.24-2.47,4.8-4.35,8.01-5.95c3.2-1.45,6.89-2.32,10.89-2.32c4.16,0,7.69,0.58,10.57,1.74
			s5.29,2.76,7.21,4.79c1.76,1.89,3.04,4.21,3.84,6.82s1.28,5.51,1.28,8.56v3.48h-37.32c0,3.34,0.32,6.38,1.12,9.14
			c0.64,2.76,1.76,5.08,3.36,7.25c1.44,2.03,3.36,3.63,5.77,4.79c2.4,1.16,5.29,1.74,8.49,1.74c3.36,0,6.25-0.73,8.81-2.18
			c2.4-1.45,4.8-4.06,7.05-7.83L889.04,100.45z M876.39,81.02c0-1.89-0.16-3.92-0.48-6.24c-0.32-2.18-0.96-4.06-1.76-5.51
			c-0.8-1.6-2.08-2.9-3.52-3.92c-1.6-1.02-3.52-1.45-5.93-1.45c-4,0-7.37,1.45-9.93,4.5c-2.72,3.05-4,7.25-4.32,12.62H876.39z"/>
		<path class="st2" d="M956.46,112.49h-27.55v-3.48c0.8,0,1.76-0.15,2.88-0.15s1.92-0.15,2.56-0.44c1.12-0.29,1.92-0.87,2.4-1.6
			s0.8-1.74,0.8-3.05V77.54c0-3.63-0.96-6.38-2.88-8.41s-4.16-2.9-6.89-2.9c-2.08,0-3.84,0.29-5.61,0.87
			c-1.6,0.58-3.2,1.31-4.48,2.03c-1.28,0.73-2.24,1.6-3.04,2.61c-0.8,0.87-1.28,1.6-1.6,2.18v29.29c0,1.16,0.32,2.18,0.8,2.9
			c0.48,0.73,1.28,1.31,2.4,1.74c0.8,0.29,1.6,0.58,2.56,0.73c0.96,0.15,1.92,0.29,2.88,0.29v3.48h-27.55v-3.48
			c0.8,0,1.76-0.15,2.72-0.15c0.96,0,1.76-0.15,2.4-0.44c1.12-0.29,1.92-0.87,2.4-1.6c0.48-0.73,0.8-1.74,0.8-3.05V72.32
			c0-1.16-0.32-2.18-0.8-3.19c-0.48-1.02-1.28-1.74-2.24-2.47c-0.8-0.44-1.6-0.73-2.56-0.87c-0.96-0.15-2.08-0.29-3.2-0.44v-3.48
			l18.74-1.16l0.8,0.73v7.25h0.32c0.96-0.87,2.08-1.89,3.36-2.9c1.44-1.16,2.72-2.03,3.84-2.76c1.44-0.87,3.04-1.45,4.96-2.03
			c1.92-0.58,4.16-0.87,6.57-0.87c5.45,0,9.45,1.6,12.01,4.64s3.84,7.11,3.84,12.18v26.54c0,1.16,0.16,2.18,0.64,2.9
			c0.48,0.73,1.28,1.31,2.4,1.74c0.96,0.29,1.76,0.58,2.4,0.73c0.64,0.15,1.6,0.29,2.72,0.29v3.34H956.46z"/>
		<path class="st2" d="M1012.2,100.45c-2.4,4.06-5.45,7.25-9.45,9.72s-8.49,3.63-13.61,3.63c-4.48,0-8.49-0.73-11.85-2.18
			c-3.36-1.45-6.25-3.48-8.49-5.95c-2.24-2.47-3.84-5.37-4.96-8.7c-1.12-3.34-1.6-6.82-1.6-10.44c0-3.34,0.64-6.53,1.76-9.72
			c1.12-3.19,2.88-6.09,5.12-8.56c2.24-2.47,4.8-4.35,8.01-5.95c3.2-1.45,6.89-2.32,10.89-2.32c4.16,0,7.69,0.58,10.57,1.74
			s5.29,2.76,7.21,4.79c1.76,1.89,3.04,4.21,3.84,6.82s1.28,5.51,1.28,8.56v3.48H973.6c0,3.34,0.32,6.38,1.12,9.14
			c0.64,2.76,1.76,5.08,3.36,7.25c1.44,2.03,3.36,3.63,5.77,4.79c2.4,1.16,5.29,1.74,8.49,1.74c3.36,0,6.25-0.73,8.81-2.18
			c2.4-1.45,4.8-4.06,7.05-7.83L1012.2,100.45z M999.71,81.02c0-1.89-0.16-3.92-0.48-6.24c-0.32-2.18-0.96-4.06-1.76-5.51
			c-0.8-1.6-2.08-2.9-3.52-3.92c-1.6-1.02-3.52-1.45-5.93-1.45c-4,0-7.37,1.45-9.93,4.5c-2.72,3.05-4,7.25-4.32,12.62H999.71z"/>
		<path class="st2" d="M1059.12,68.11c0,1.74-0.48,3.34-1.44,4.64c-0.96,1.31-2.4,2.03-4.32,2.03c-2.08,0-3.68-0.44-4.8-1.45
			c-1.12-1.02-1.76-2.03-1.76-3.34c0-0.73,0-1.45,0.16-2.03c0.16-0.58,0.32-1.31,0.32-1.89c-1.76,0-3.84,0.73-6.25,2.03
			c-2.4,1.31-4.48,3.19-6.09,5.51v29.73c0,1.16,0.32,2.18,0.8,2.9c0.48,0.73,1.28,1.31,2.4,1.74c0.96,0.29,2.24,0.58,3.68,0.73
			c1.44,0.15,2.88,0.29,3.84,0.29v3.48h-29.63v-3.48c0.8,0,1.76-0.15,2.72-0.15c0.96,0,1.76-0.15,2.4-0.44
			c1.12-0.29,1.92-0.87,2.4-1.6c0.48-0.73,0.8-1.74,0.8-3.05V72.32c0-1.02-0.32-2.18-0.8-3.19c-0.48-1.02-1.28-1.89-2.24-2.47
			c-0.8-0.44-1.6-0.73-2.56-0.87c-0.96-0.15-2.08-0.29-3.2-0.44v-3.48l18.74-1.16l0.8,0.73v7.25h0.32c2.4-2.76,4.96-4.93,7.85-6.38
			c2.88-1.45,5.61-2.18,8.01-2.18c2.4,0,4.32,0.73,5.93,2.18C1058.32,63.76,1059.12,65.64,1059.12,68.11z"/>
		<path class="st2" d="M1115.98,111.62c-1.76,0.58-3.36,1.02-4.64,1.45c-1.28,0.29-2.88,0.58-4.64,0.58c-3.04,0-5.29-0.58-7.05-1.89
			c-1.76-1.31-2.88-3.05-3.36-5.51h-0.32c-2.4,2.47-5.12,4.35-8.01,5.66c-2.88,1.31-6.25,2.03-10.25,2.03
			c-4.16,0-7.69-1.16-10.41-3.48c-2.72-2.32-4-5.37-4-9.14c0-2.03,0.32-3.77,0.96-5.22c0.64-1.6,1.44-2.9,2.72-4.21
			c0.96-1.02,2.24-1.89,3.84-2.76s3.04-1.45,4.32-1.89c1.76-0.58,5.12-1.74,10.41-3.19c5.29-1.6,8.81-2.76,10.57-3.77v-5.08
			c0-0.44-0.16-1.31-0.32-2.61c-0.16-1.31-0.64-2.47-1.28-3.63c-0.8-1.31-1.76-2.32-3.2-3.34s-3.36-1.45-5.93-1.45
			c-1.76,0-3.36,0.29-4.8,0.87s-2.56,1.16-3.2,1.74c0,0.73,0.16,1.74,0.48,3.05s0.48,2.61,0.48,3.77s-0.64,2.32-1.76,3.34
			c-1.12,1.02-2.88,1.45-4.96,1.45c-1.92,0-3.36-0.58-4.16-1.89c-0.96-1.16-1.28-2.61-1.28-4.06c0-1.6,0.64-3.05,1.92-4.5
			c1.28-1.45,2.88-2.76,4.8-3.92c1.76-1.02,3.84-1.74,6.25-2.47c2.4-0.73,4.8-1.02,7.21-1.02c3.2,0,5.93,0.15,8.33,0.58
			c2.4,0.44,4.48,1.31,6.41,2.61c1.92,1.31,3.36,3.05,4.48,5.22c0.96,2.18,1.44,5.08,1.44,8.41c0,4.93,0,9.28-0.16,13.05
			c-0.16,3.77-0.16,7.98-0.16,12.47c0,1.31,0.32,2.47,0.8,3.19s1.28,1.45,2.4,2.03c0.64,0.29,1.44,0.44,2.72,0.58
			c1.28,0,2.56,0,3.84,0v2.9H1115.98z M1096.12,84.21c-3.2,0.87-6.09,1.74-8.49,2.61c-2.4,0.87-4.64,1.89-6.73,3.05
			c-1.92,1.16-3.36,2.61-4.48,4.21s-1.6,3.48-1.6,5.66c0,2.9,0.8,4.93,2.56,6.38c1.6,1.31,3.68,2.03,6.25,2.03
			c2.72,0,5.12-0.58,7.21-1.74c2.08-1.16,3.84-2.61,5.12-4.21L1096.12,84.21z"/>
		<path class="st2" d="M1146.89,112.49h-27.39v-3.48c0.8,0,1.76-0.15,2.72-0.29c0.96-0.15,1.76-0.15,2.4-0.44
			c1.12-0.29,1.92-0.87,2.4-1.6c0.48-0.73,0.8-1.74,0.8-3.05V44.76c0-1.31-0.32-2.47-0.96-3.48c-0.64-1.02-1.28-1.89-2.24-2.61
			c-0.64-0.44-1.92-0.73-3.84-1.16c-1.76-0.29-3.36-0.58-4.32-0.58V33.6l21.14-1.16l0.8,0.73v69.9c0,1.16,0.32,2.18,0.8,2.9
			s1.28,1.31,2.4,1.74c0.8,0.29,1.6,0.58,2.56,0.73c0.8,0.15,1.76,0.29,2.72,0.29V112.49z"/>
	</g>
	<g class="st1">
		<path class="st2" d="M312.65,140.47c0,1.16-0.32,2.18-0.96,2.9c-0.64,0.73-1.76,1.16-3.04,1.16c-0.8,0-1.6-0.15-2.24-0.44
			c-0.64-0.29-1.28-0.73-1.76-1.31c-0.64-0.58-1.12-1.16-1.6-1.89c-0.48-0.73-0.96-1.31-1.28-1.74c-1.92,0.15-3.36,1.31-4.32,3.63
			c-0.96,2.32-1.6,5.95-1.6,11.02v3.92h10.73v3.63h-10.73v27.12c0,0.87,0.16,1.6,0.64,2.18c0.32,0.58,0.96,1.02,1.76,1.31
			c0.64,0.29,1.6,0.44,2.72,0.58c1.12,0.15,2.08,0.29,2.88,0.29v2.47H281.9v-2.47c0.64,0,1.28-0.15,2.08-0.15
			c0.64,0,1.28-0.15,1.76-0.29c0.8-0.29,1.44-0.58,1.76-1.16c0.32-0.58,0.64-1.31,0.64-2.18v-27.41h-8.17v-3.63h8.17v-2.47
			c0-5.66,1.6-10.3,4.96-13.92c3.2-3.48,7.37-5.37,12.33-5.37c2.56,0,4.32,0.44,5.61,1.31
			C312.01,138.01,312.65,139.17,312.65,140.47z"/>
		<path class="st2" d="M350.44,175.71c0,2.61-0.48,5.22-1.44,7.83c-0.96,2.61-2.24,4.79-4,6.53c-1.92,2.03-4.16,3.63-6.73,4.5
			c-2.56,1.02-5.45,1.45-8.65,1.45c-2.72,0-5.12-0.44-7.53-1.31c-2.4-0.87-4.48-2.18-6.41-3.92c-1.76-1.74-3.36-3.77-4.32-6.24
			c-1.12-2.47-1.6-5.22-1.6-8.27c0-5.95,1.92-10.73,5.61-14.5c3.84-3.77,8.81-5.66,14.89-5.66c5.77,0,10.57,1.74,14.41,5.37
			C348.52,165.13,350.44,169.91,350.44,175.71z M341.63,175.86c0-1.89-0.16-3.92-0.64-6.09c-0.48-2.18-1.12-3.92-1.92-5.37
			c-0.96-1.6-2.08-2.9-3.52-3.77c-1.44-1.02-3.2-1.45-5.45-1.45c-2.24,0-4,0.44-5.61,1.45c-1.6,1.02-2.72,2.32-3.68,3.92
			s-1.6,3.34-1.92,5.37s-0.48,3.92-0.48,5.8c0,2.47,0.16,4.64,0.64,6.82c0.48,2.03,1.12,3.92,2.08,5.51c0.96,1.6,2.24,2.9,3.68,3.77
			c1.44,0.87,3.2,1.45,5.45,1.45c3.52,0,6.25-1.6,8.33-4.64C340.67,185.57,341.63,181.22,341.63,175.86z"/>
		<path class="st2" d="M388.4,162.23c0,1.31-0.32,2.47-1.12,3.48c-0.64,1.02-1.76,1.45-3.2,1.45c-1.6,0-2.72-0.44-3.68-1.16
			c-0.8-0.73-1.28-1.6-1.28-2.47c0-0.58,0-1.02,0.16-1.6c0.16-0.44,0.16-0.87,0.32-1.31c-1.28,0-2.88,0.44-4.64,1.45
			s-3.2,2.32-4.48,4.06v21.9c0,0.87,0.16,1.6,0.64,2.18c0.32,0.58,0.96,1.02,1.76,1.31c0.64,0.29,1.6,0.44,2.72,0.58
			c1.12,0.15,2.08,0.15,2.88,0.29v2.47h-21.94v-2.47c0.64,0,1.28-0.15,2.08-0.15c0.64,0,1.28-0.15,1.76-0.29
			c0.8-0.29,1.44-0.58,1.76-1.16c0.32-0.58,0.64-1.31,0.64-2.18v-23.2c0-0.73-0.16-1.6-0.64-2.32c-0.48-0.73-0.96-1.31-1.76-1.89
			c-0.48-0.29-1.12-0.58-1.92-0.73c-0.8-0.15-1.44-0.29-2.4-0.29v-2.47l13.77-0.87l0.64,0.58v5.37h0.16
			c1.76-2.03,3.68-3.63,5.77-4.64s4.16-1.6,5.93-1.6s3.2,0.58,4.32,1.6C387.76,159.04,388.4,160.34,388.4,162.23z"/>
		<path class="st2" d="M475.36,143.52c-0.8,0-1.92,0.29-3.68,0.58c-1.6,0.44-2.72,0.73-3.52,1.16c-0.96,0.58-1.76,1.89-2.08,3.63
			c-0.32,1.74-0.48,4.06-0.48,6.82v39.88h-3.68l-36.35-44.38v27.99c0,3.19,0.16,5.51,0.64,7.25c0.48,1.74,1.12,2.9,2.08,3.63
			c0.64,0.58,1.92,1.02,4,1.6c2.08,0.44,3.36,0.73,4,0.73v2.76h-24.5v-2.76c0.8,0,2.08-0.29,3.84-0.73s2.88-0.87,3.36-1.16
			c0.96-0.73,1.6-1.74,2.08-3.34c0.32-1.45,0.48-3.92,0.48-7.54v-26.68c0-1.16-0.16-2.32-0.64-3.48c-0.48-1.16-1.12-2.03-1.76-2.76
			c-0.96-0.87-2.4-1.6-4.16-2.18c-1.76-0.58-3.2-0.87-4.16-1.02v-2.76h17.14l33.63,41.33v-25.81c0-3.19-0.16-5.66-0.64-7.25
			c-0.48-1.74-1.12-2.76-1.92-3.34c-0.8-0.44-2.08-1.02-3.84-1.45c-1.76-0.44-3.2-0.73-4-0.73v-2.76h24.34v2.76H475.36z"/>
		<path class="st2" d="M516.52,175.71c0,2.61-0.48,5.22-1.44,7.83c-0.96,2.61-2.24,4.79-4,6.53c-1.92,2.03-4.16,3.63-6.73,4.5
			c-2.56,1.02-5.45,1.45-8.65,1.45c-2.72,0-5.12-0.44-7.53-1.31c-2.4-0.87-4.48-2.18-6.41-3.92c-1.76-1.74-3.36-3.77-4.32-6.24
			c-1.12-2.47-1.6-5.22-1.6-8.27c0-5.95,1.92-10.73,5.61-14.5c3.84-3.77,8.81-5.66,14.89-5.66c5.77,0,10.57,1.74,14.41,5.37
			C514.6,165.13,516.52,169.91,516.52,175.71z M507.71,175.86c0-1.89-0.16-3.92-0.64-6.09s-1.12-3.92-1.92-5.37
			c-0.96-1.6-2.08-2.9-3.52-3.77c-1.44-1.02-3.2-1.45-5.45-1.45c-2.24,0-4,0.44-5.61,1.45s-2.72,2.32-3.68,3.92
			c-0.96,1.6-1.6,3.34-1.92,5.37c-0.32,2.03-0.48,3.92-0.48,5.8c0,2.47,0.16,4.64,0.64,6.82c0.48,2.03,1.12,3.92,2.08,5.51
			c0.96,1.6,2.24,2.9,3.68,3.77s3.2,1.45,5.45,1.45c3.52,0,6.25-1.6,8.33-4.64C506.75,185.57,507.71,181.22,507.71,175.86z"/>
		<path class="st2" d="M554.32,162.23c0,1.31-0.32,2.47-1.12,3.48c-0.64,1.02-1.76,1.45-3.2,1.45c-1.6,0-2.72-0.44-3.68-1.16
			c-0.8-0.73-1.28-1.6-1.28-2.47c0-0.58,0-1.02,0.16-1.6c0.16-0.44,0.16-0.87,0.32-1.31c-1.28,0-2.88,0.44-4.64,1.45
			c-1.76,1.02-3.2,2.32-4.48,4.06v21.9c0,0.87,0.16,1.6,0.64,2.18c0.32,0.58,0.96,1.02,1.76,1.31c0.64,0.29,1.6,0.44,2.72,0.58
			c1.12,0.15,2.08,0.15,2.88,0.29v2.47h-21.94v-2.47c0.64,0,1.28-0.15,2.08-0.15c0.64,0,1.28-0.15,1.76-0.29
			c0.8-0.29,1.44-0.58,1.76-1.16c0.32-0.58,0.64-1.31,0.64-2.18v-23.2c0-0.73-0.16-1.6-0.64-2.32c-0.48-0.73-0.96-1.31-1.76-1.89
			c-0.48-0.29-1.12-0.58-1.92-0.73c-0.8-0.15-1.44-0.29-2.4-0.29v-2.47l13.77-0.87l0.64,0.58v5.37h0.16
			c1.76-2.03,3.68-3.63,5.77-4.64c2.08-1.02,4.16-1.6,5.93-1.6s3.2,0.58,4.32,1.6C553.84,159.04,554.32,160.34,554.32,162.23z"/>
		<path class="st2" d="M583.63,193.41c-1.76,0.73-3.52,1.31-5.12,1.74c-1.6,0.44-3.68,0.73-5.93,0.73c-3.52,0-5.93-0.73-7.37-2.32
			c-1.44-1.6-2.08-3.77-2.08-6.82v-25.52h-7.53v-3.63h7.69v-11.75h7.69v11.75h12.01v3.63h-11.85v21.03c0,1.6,0,2.9,0.16,3.92
			c0.16,1.02,0.48,2.03,0.96,2.76c0.48,0.73,1.12,1.31,2.08,1.74s2.08,0.58,3.68,0.58c0.64,0,1.76,0,3.04-0.15
			c1.44-0.15,2.4-0.29,2.88-0.44v2.76H583.63z"/>
		<path class="st2" d="M633.11,195h-20.5v-2.47c0.64,0,1.44-0.15,2.08-0.15c0.8,0,1.44-0.15,1.92-0.29c0.8-0.29,1.44-0.58,1.76-1.16
			c0.32-0.58,0.64-1.31,0.64-2.18v-19.43c0-2.61-0.64-4.79-2.08-6.24c-1.44-1.45-3.04-2.18-5.12-2.18c-1.44,0-2.88,0.15-4.16,0.58
			s-2.4,0.87-3.36,1.6c-0.96,0.58-1.76,1.31-2.24,1.89s-0.96,1.16-1.12,1.6v21.75c0,0.87,0.16,1.6,0.64,2.18
			c0.32,0.58,0.96,1.02,1.76,1.31c0.64,0.29,1.28,0.44,1.92,0.58c0.64,0.15,1.44,0.15,2.24,0.29v2.47h-20.34v-2.47
			c0.64,0,1.28-0.15,2.08-0.15c0.64,0,1.28-0.15,1.76-0.29c0.8-0.29,1.44-0.58,1.76-1.16c0.32-0.58,0.64-1.31,0.64-2.18v-44.23
			c0-0.87-0.16-1.74-0.64-2.61c-0.48-0.87-0.96-1.45-1.76-1.89c-0.48-0.29-1.44-0.58-2.72-0.73c-1.28-0.15-2.24-0.29-3.04-0.29
			v-2.47l15.37-0.87l0.64,0.58v26.25h0.16c0.96-0.87,1.76-1.6,2.56-2.18c0.8-0.58,1.76-1.31,3.04-2.03c1.12-0.58,2.4-1.16,3.84-1.6
			c1.44-0.44,3.04-0.58,4.96-0.58c3.68,0,6.57,1.02,8.65,3.19c1.92,2.18,3.04,5.22,3.04,9.14v19.72c0,0.87,0.16,1.6,0.48,2.18
			c0.32,0.58,0.96,1.02,1.76,1.31c0.64,0.29,1.28,0.44,1.76,0.58c0.48,0.15,1.28,0.15,2.08,0.29V195H633.11z"/>
		<path class="st2" d="M673.47,186.15c-1.76,3.05-4,5.37-7.05,7.25c-2.88,1.74-6.25,2.61-10.09,2.61c-3.36,0-6.25-0.58-8.81-1.6
			c-2.56-1.02-4.64-2.47-6.25-4.35s-2.88-3.92-3.68-6.38c-0.8-2.47-1.28-5.08-1.28-7.83c0-2.47,0.48-4.79,1.28-7.25
			c0.8-2.32,2.08-4.5,3.84-6.38c1.6-1.74,3.52-3.34,5.93-4.35c2.4-1.16,5.12-1.6,8.01-1.6c3.04,0,5.61,0.44,7.85,1.31
			s4,2.03,5.29,3.63c1.28,1.45,2.24,3.05,2.88,5.08c0.64,1.89,0.96,4.06,0.96,6.38v2.47H644.8c0,2.47,0.32,4.79,0.8,6.82
			c0.48,2.03,1.28,3.77,2.4,5.37c1.12,1.45,2.56,2.61,4.32,3.48c1.76,0.87,3.84,1.31,6.41,1.31c2.56,0,4.64-0.58,6.41-1.6
			c1.76-1.02,3.52-3.05,5.29-5.8L673.47,186.15z M664.18,171.8c0-1.45-0.16-2.9-0.48-4.64c-0.32-1.6-0.64-3.05-1.28-4.06
			c-0.64-1.16-1.6-2.18-2.72-2.9c-1.12-0.73-2.56-1.16-4.32-1.16c-2.88,0-5.45,1.16-7.37,3.34c-1.92,2.18-3.04,5.37-3.2,9.28h19.38
			V171.8z"/>
		<path class="st2" d="M710.15,162.23c0,1.31-0.32,2.47-1.12,3.48c-0.64,1.02-1.76,1.45-3.2,1.45c-1.6,0-2.72-0.44-3.68-1.16
			c-0.8-0.73-1.28-1.6-1.28-2.47c0-0.58,0-1.02,0.16-1.6c0.16-0.44,0.16-0.87,0.32-1.31c-1.28,0-2.88,0.44-4.64,1.45
			c-1.76,1.02-3.2,2.32-4.48,4.06v21.9c0,0.87,0.16,1.6,0.64,2.18c0.32,0.58,0.96,1.02,1.76,1.31c0.64,0.29,1.6,0.44,2.72,0.58
			c1.12,0.15,2.08,0.15,2.88,0.29v2.47h-21.94v-2.47c0.64,0,1.28-0.15,2.08-0.15c0.64,0,1.28-0.15,1.76-0.29
			c0.8-0.29,1.44-0.58,1.76-1.16c0.32-0.58,0.64-1.31,0.64-2.18v-23.2c0-0.73-0.16-1.6-0.64-2.32c-0.48-0.73-0.96-1.31-1.76-1.89
			c-0.48-0.29-1.12-0.58-1.92-0.73c-0.8-0.15-1.44-0.29-2.4-0.29v-2.47l13.77-0.87l0.64,0.58v5.37h0.16
			c1.76-2.03,3.68-3.63,5.77-4.64c2.08-1.02,4.16-1.6,5.93-1.6c1.76,0,3.2,0.58,4.32,1.6C709.67,159.04,710.15,160.34,710.15,162.23
			z"/>
		<path class="st2" d="M759.8,195h-20.34v-2.47c0.64,0,1.28-0.15,2.08-0.15s1.44-0.15,1.92-0.29c0.8-0.29,1.44-0.58,1.76-1.16
			c0.32-0.58,0.64-1.31,0.64-2.18v-19.43c0-2.61-0.64-4.79-2.08-6.24c-1.44-1.45-3.04-2.18-5.12-2.18c-1.44,0-2.88,0.15-4.16,0.58
			s-2.4,0.87-3.36,1.6c-0.96,0.58-1.6,1.16-2.24,1.89c-0.48,0.73-0.96,1.16-1.28,1.6v21.75c0,0.87,0.16,1.6,0.64,2.18
			c0.32,0.58,0.96,1.02,1.76,1.31c0.64,0.29,1.28,0.44,1.92,0.58c0.64,0.15,1.44,0.15,2.08,0.29v2.47h-20.34v-2.47
			c0.64,0,1.28-0.15,2.08-0.15c0.64,0,1.28-0.15,1.76-0.29c0.8-0.29,1.44-0.58,1.76-1.16c0.32-0.58,0.64-1.31,0.64-2.18v-23.2
			c0-0.87-0.16-1.6-0.64-2.32c-0.48-0.73-0.96-1.31-1.76-1.74c-0.48-0.29-1.12-0.58-1.92-0.73c-0.8-0.15-1.44-0.29-2.4-0.29v-2.47
			l13.77-0.87l0.64,0.58v5.37h0.16c0.64-0.58,1.44-1.31,2.56-2.18c0.96-0.87,1.92-1.6,2.88-2.03c1.12-0.58,2.24-1.16,3.68-1.6
			c1.44-0.44,3.04-0.58,4.8-0.58c4,0,6.89,1.16,8.97,3.34c1.92,2.32,2.88,5.22,2.88,8.99v19.14c0,0.87,0.16,1.6,0.48,2.18
			c0.32,0.58,0.96,1.02,1.76,1.31c0.64,0.29,1.28,0.44,1.76,0.58c0.48,0.15,1.12,0.15,2.08,0.29V195H759.8z"/>
		<path class="st2" d="M812.97,195h-26.91v-2.76c0.8,0,1.92-0.15,3.36-0.29c1.44-0.15,2.4-0.29,3.04-0.44
			c0.96-0.29,1.6-0.73,2.08-1.31c0.48-0.58,0.64-1.31,0.64-2.32v-39.3c0-0.87-0.16-1.6-0.48-2.18c-0.32-0.58-1.12-1.16-2.24-1.45
			c-0.8-0.29-1.92-0.58-3.2-0.87c-1.28-0.29-2.4-0.44-3.2-0.44v-2.76h26.91v2.76c-0.8,0-1.92,0.15-3.2,0.29
			c-1.28,0.15-2.24,0.44-3.2,0.58c-1.12,0.29-1.76,0.87-2.08,1.45c-0.32,0.73-0.48,1.45-0.48,2.32v39.3c0,0.87,0.16,1.6,0.64,2.18
			c0.48,0.58,1.12,1.16,2.08,1.6c0.64,0.15,1.6,0.44,2.88,0.73c1.28,0.29,2.4,0.44,3.36,0.44V195z"/>
		<path class="st2" d="M851.24,162.23c0,1.31-0.32,2.47-1.12,3.48c-0.64,1.02-1.76,1.45-3.2,1.45c-1.6,0-2.72-0.44-3.68-1.16
			c-0.8-0.73-1.28-1.6-1.28-2.47c0-0.58,0-1.02,0.16-1.6c0.16-0.44,0.16-0.87,0.32-1.31c-1.28,0-2.88,0.44-4.64,1.45
			c-1.76,1.02-3.2,2.32-4.48,4.06v21.9c0,0.87,0.16,1.6,0.64,2.18c0.32,0.58,0.96,1.02,1.76,1.31c0.64,0.29,1.6,0.44,2.72,0.58
			c1.12,0.15,2.08,0.15,2.88,0.29v2.47h-21.94v-2.47c0.64,0,1.28-0.15,2.08-0.15c0.64,0,1.28-0.15,1.76-0.29
			c0.8-0.29,1.44-0.58,1.76-1.16c0.32-0.58,0.64-1.31,0.64-2.18v-23.2c0-0.73-0.16-1.6-0.64-2.32c-0.48-0.73-0.96-1.31-1.76-1.89
			c-0.48-0.29-1.12-0.58-1.92-0.73c-0.8-0.15-1.44-0.29-2.4-0.29v-2.47l13.77-0.87l0.64,0.58v5.37h0.16
			c1.76-2.03,3.68-3.63,5.77-4.64s4.16-1.6,5.93-1.6c1.76,0,3.2,0.58,4.32,1.6C850.76,159.04,851.24,160.34,851.24,162.23z"/>
		<path class="st2" d="M891.76,186.15c-1.76,3.05-4,5.37-7.05,7.25c-2.88,1.74-6.25,2.61-10.09,2.61c-3.36,0-6.25-0.58-8.81-1.6
			c-2.56-1.02-4.64-2.47-6.25-4.35c-1.6-1.89-2.88-3.92-3.68-6.38c-0.8-2.47-1.28-5.08-1.28-7.83c0-2.47,0.48-4.79,1.28-7.25
			c0.8-2.32,2.08-4.5,3.84-6.38c1.6-1.74,3.52-3.34,5.93-4.35c2.4-1.16,5.12-1.6,8.01-1.6c3.04,0,5.61,0.44,7.85,1.31
			s4,2.03,5.29,3.63c1.28,1.45,2.24,3.05,2.88,5.08c0.64,1.89,0.96,4.06,0.96,6.38v2.47h-27.39c0,2.47,0.32,4.79,0.8,6.82
			c0.48,2.03,1.28,3.77,2.4,5.37c1.12,1.45,2.56,2.61,4.32,3.48c1.76,0.87,3.84,1.31,6.41,1.31s4.64-0.58,6.41-1.6
			c1.76-1.02,3.52-3.05,5.29-5.8L891.76,186.15z M882.47,171.8c0-1.45-0.16-2.9-0.48-4.64c-0.32-1.6-0.64-3.05-1.28-4.06
			c-0.64-1.16-1.6-2.18-2.72-2.9c-1.12-0.73-2.56-1.16-4.32-1.16c-2.88,0-5.45,1.16-7.37,3.34c-1.92,2.18-3.04,5.37-3.2,9.28h19.38
			V171.8z"/>
		<path class="st2" d="M916.11,195h-20.34v-2.47c0.64,0,1.28-0.15,2.08-0.15s1.28-0.15,1.76-0.29c0.8-0.29,1.44-0.58,1.76-1.16
			c0.32-0.58,0.64-1.31,0.64-2.18v-43.94c0-0.87-0.16-1.74-0.64-2.61c-0.48-0.87-0.96-1.45-1.76-1.89
			c-0.48-0.29-1.44-0.58-2.72-0.87c-1.28-0.29-2.4-0.44-3.2-0.44v-2.47l15.7-0.87l0.64,0.58v51.77c0,0.87,0.16,1.6,0.48,2.18
			s0.96,1.02,1.76,1.31c0.64,0.29,1.28,0.44,1.76,0.58c0.64,0.15,1.28,0.15,2.08,0.29L916.11,195L916.11,195z"/>
		<path class="st2" d="M960.79,194.28c-1.28,0.44-2.56,0.73-3.52,1.02c-0.96,0.29-2.08,0.44-3.36,0.44c-2.24,0-4-0.44-5.29-1.45
			c-1.28-0.87-2.08-2.32-2.56-4.06h-0.32c-1.76,1.89-3.84,3.19-5.93,4.21c-2.08,1.02-4.64,1.45-7.53,1.45
			c-3.2,0-5.77-0.87-7.69-2.61c-2.08-1.74-3.04-4.06-3.04-6.82c0-1.45,0.16-2.76,0.64-3.92c0.48-1.16,1.12-2.18,2.08-3.05
			c0.64-0.73,1.6-1.45,2.72-2.03s2.24-1.02,3.2-1.45c1.28-0.44,3.84-1.31,7.69-2.47c3.84-1.16,6.41-2.03,7.85-2.76v-3.77
			c0-0.29,0-1.02-0.16-1.89c-0.16-0.87-0.48-1.89-0.96-2.61c-0.64-0.87-1.28-1.74-2.4-2.47c-0.96-0.73-2.56-1.02-4.32-1.02
			c-1.28,0-2.56,0.15-3.68,0.58c-1.12,0.44-1.92,0.87-2.4,1.31c0,0.58,0.16,1.31,0.32,2.32c0.32,1.02,0.32,1.89,0.32,2.76
			s-0.48,1.74-1.28,2.47c-0.96,0.73-2.08,1.16-3.68,1.16c-1.44,0-2.4-0.44-3.04-1.31c-0.64-0.87-0.96-1.89-0.96-3.05
			s0.48-2.32,1.44-3.34c0.96-1.02,2.08-2.03,3.52-2.9c1.28-0.73,2.72-1.31,4.64-1.89c1.76-0.44,3.52-0.73,5.29-0.73
			c2.4,0,4.48,0.15,6.25,0.44c1.76,0.29,3.36,0.87,4.8,1.89c1.44,1.02,2.56,2.18,3.2,3.77c0.8,1.6,1.12,3.77,1.12,6.24
			c0,3.63,0,6.82-0.16,9.72c-0.16,2.76-0.16,5.95-0.16,9.28c0,1.02,0.16,1.74,0.64,2.32c0.32,0.58,0.96,1.02,1.76,1.45
			c0.48,0.29,1.12,0.29,2.08,0.44c0.96,0,1.92,0,2.88,0L960.79,194.28L960.79,194.28z M946.05,174.12c-2.4,0.58-4.48,1.31-6.25,1.89
			c-1.76,0.58-3.52,1.45-4.96,2.32c-1.44,0.87-2.56,1.89-3.36,3.05s-1.28,2.61-1.28,4.21c0,2.18,0.64,3.63,1.76,4.64
			c1.28,1.02,2.72,1.45,4.64,1.45s3.68-0.44,5.29-1.31c1.44-0.87,2.88-1.89,3.84-3.19L946.05,174.12z"/>
		<path class="st2" d="M1010.92,195h-20.34v-2.47c0.64,0,1.28-0.15,2.08-0.15s1.44-0.15,1.92-0.29c0.8-0.29,1.44-0.58,1.76-1.16
			c0.32-0.58,0.64-1.31,0.64-2.18v-19.43c0-2.61-0.64-4.79-2.08-6.24c-1.44-1.45-3.04-2.18-5.12-2.18c-1.44,0-2.88,0.15-4.16,0.58
			c-1.28,0.44-2.4,0.87-3.36,1.6c-0.96,0.58-1.6,1.16-2.24,1.89c-0.48,0.73-0.96,1.16-1.28,1.6v21.75c0,0.87,0.16,1.6,0.64,2.18
			c0.32,0.58,0.96,1.02,1.76,1.31c0.64,0.29,1.28,0.44,1.92,0.58c0.64,0.15,1.44,0.15,2.08,0.29v2.47h-20.34v-2.47
			c0.64,0,1.28-0.15,2.08-0.15c0.64,0,1.28-0.15,1.76-0.29c0.8-0.29,1.44-0.58,1.76-1.16c0.32-0.58,0.64-1.31,0.64-2.18v-23.2
			c0-0.87-0.16-1.6-0.64-2.32c-0.48-0.73-0.96-1.31-1.76-1.74c-0.48-0.29-1.12-0.58-1.92-0.73c-0.8-0.15-1.44-0.29-2.4-0.29v-2.47
			l13.77-0.87l0.64,0.58v5.37h0.16c0.64-0.58,1.44-1.31,2.56-2.18c0.96-0.87,1.92-1.6,2.88-2.03c1.12-0.58,2.24-1.16,3.68-1.6
			c1.44-0.44,3.04-0.58,4.8-0.58c4,0,6.89,1.16,8.81,3.34c1.92,2.32,2.88,5.22,2.88,8.99v19.14c0,0.87,0.16,1.6,0.48,2.18
			s0.96,1.02,1.76,1.31c0.64,0.29,1.28,0.44,1.76,0.58c0.48,0.15,1.12,0.15,2.08,0.29V195H1010.92z"/>
		<path class="st2" d="M1060.08,194.28l-14.57,0.87l-0.64-0.58v-3.48l-0.32-0.15c-1.44,1.45-3.2,2.76-5.45,3.63
			c-2.08,0.87-4.32,1.45-6.57,1.45c-2.4,0-4.64-0.44-6.89-1.45c-2.24-1.02-4.16-2.32-5.77-4.06c-1.6-1.74-3.04-3.92-4-6.38
			s-1.44-5.22-1.44-8.12c0-2.76,0.48-5.37,1.6-7.83c0.96-2.47,2.4-4.64,4.32-6.38c1.76-1.74,3.84-3.05,6.25-4.06
			c2.56-1.02,4.96-1.6,7.69-1.6c1.92,0,3.84,0.29,5.77,0.73c1.92,0.44,3.52,1.02,4.8,1.74v-13.2c0-1.02-0.16-2.03-0.64-2.9
			c-0.32-0.87-0.96-1.6-1.6-2.03c-0.8-0.44-1.92-0.87-3.2-1.02c-1.28-0.15-2.72-0.44-4.32-0.44v-2.32l17.14-0.87l0.64,0.58v50.76
			c0,0.87,0.16,1.6,0.64,2.32c0.32,0.58,0.96,1.16,1.6,1.6c0.48,0.29,1.28,0.44,2.24,0.58c0.96,0.15,1.92,0.15,2.72,0.15V194.28
			L1060.08,194.28z M1044.71,187.75v-22.04c-0.16-0.73-0.64-1.31-1.12-2.18c-0.48-0.73-1.12-1.45-1.92-2.18
			c-0.8-0.58-1.76-1.16-2.88-1.6c-1.12-0.44-2.4-0.58-3.84-0.58c-1.76,0-3.2,0.44-4.64,1.16c-1.44,0.73-2.72,1.89-3.84,3.34
			c-1.12,1.45-1.92,3.19-2.4,5.51c-0.64,2.18-0.96,4.64-0.96,7.25c0,2.18,0.16,4.06,0.64,5.8c0.48,1.74,1.28,3.34,2.24,4.93
			c0.96,1.45,2.24,2.61,3.84,3.48c1.6,0.87,3.36,1.31,5.45,1.31c2.24,0,4.16-0.44,5.61-1.31
			C1042.47,189.78,1043.75,188.77,1044.71,187.75z"/>
	</g>
</g>
<g>
</g>
<g>
</g>
<g>
</g>
<g>
</g>
<g>
</g>
<g>
</g>
</svg>
