<?xml version="1.0" standalone="no"?>
<!DOCTYPE svg PUBLIC "-//W3C//DTD SVG 20010904//EN"
 "http://www.w3.org/TR/2001/REC-SVG-20010904/DTD/svg10.dtd">
<svg version="1.0" xmlns="http://www.w3.org/2000/svg"
 width="1720.000000pt" height="1720.000000pt" viewBox="0 0 1720.000000 1720.000000"
 preserveAspectRatio="xMidYMid meet">
<metadata>
Created by potrace 1.14, written by Peter Selinger 2001-2017
</metadata>
<g transform="translate(0.000000,1720.000000) scale(0.100000,-0.100000)"
fill="#000000" stroke="none">
<path d="M0 12126 l0 -74 8600 -1 8600 -1 0 75 0 75 -8600 0 -8600 0 0 -74z"/>
<path d="M2 9525 l3 -2170 8575 0 c4716 0 8583 1 8592 3 16 4 17 65 18 851 1
465 2 1439 4 2164 l2 1317 -31 0 c-16 1 -3885 2 -8598 3 l-8567 2 2 -2170z
m4193 -2 l1 -2013 -66 0 c-66 -1 -3884 -1 -3952 0 l-38 0 0 2015 0 2015 2028
-2 2027 -3 0 -2012z m4265 2 l0 -2015 -37 0 c-361 -4 -4067 0 -4070 4 -4 4 -7
3822 -4 3999 l1 27 2055 0 2055 0 0 -2015z m4289 0 c0 -1895 -1 -2015 -17
-2015 -30 -1 -3863 -1 -3993 0 l-127 0 0 2015 0 2015 2069 0 2068 0 0 -2015z
m4296 1653 c0 -197 -4 -358 -8 -358 -5 0 -5 -5 -1 -11 10 -16 11 -289 1 -289
-5 0 -5 -5 -1 -12 10 -16 11 -168 1 -168 -5 0 -5 -5 -2 -10 9 -14 10 -244 1
-258 -3 -6 -3 -13 2 -16 4 -2 6 -31 4 -63 -4 -72 -3 -69 -2 -178 1 -49 1 -117
1 -150 0 -33 -1 -67 0 -75 0 -8 -1 -37 -1 -65 -1 -27 -1 -54 0 -60 1 -5 2 -12
1 -15 -1 -3 -3 -440 -3 -972 l-2 -968 -41 0 c-321 -3 -4088 0 -4090 2 -6 6 -8
259 -2 264 2 3 1 21 -3 40 -4 19 -5 36 -1 38 3 2 4 93 1 201 -3 108 -2 199 1
201 4 2 3 20 -1 39 -4 19 -5 37 -1 39 3 2 4 93 1 201 -3 108 -2 199 1 201 4 2
3 20 -1 39 -4 19 -5 37 -1 39 3 2 4 93 1 201 -3 108 -2 199 1 201 4 2 3 20 -1
39 -4 19 -5 37 -1 39 3 2 4 93 1 201 -3 108 -2 199 1 201 4 2 3 20 -1 39 -4
19 -5 37 -1 39 3 2 4 93 1 201 -3 108 -2 199 1 201 4 2 3 20 -1 39 -4 19 -5
37 -1 39 3 2 4 93 1 201 -3 108 -2 199 1 201 4 2 3 20 -1 39 -4 19 -5 37 -1
39 3 2 4 93 1 201 -3 108 -2 199 1 201 4 2 3 19 -1 38 -4 19 -6 37 -3 40 3 2
4 77 4 165 l-2 161 2073 -2 2073 -3 0 -357z"/>
<path d="M3405 10601 c-16 -4 -182 -7 -367 -6 -217 0 -339 -4 -341 -10 -1 -5
-3 -35 -2 -65 l0 -54 47 -2 c142 -5 224 -28 233 -66 13 -51 15 -123 21 -598 6
-536 6 -582 0 -588 -2 -2 0 -17 4 -33 5 -16 5 -31 2 -33 -6 -3 -7 -122 -1
-152 1 -5 1 -20 0 -33 -1 -22 -9 -16 -74 51 -40 42 -104 111 -142 154 -39 43
-90 101 -115 129 -25 27 -63 73 -85 100 -22 28 -45 55 -51 60 -6 6 -46 53 -90
105 -43 52 -83 100 -89 106 -9 10 -42 49 -135 160 -19 22 -51 60 -69 84 -19
23 -40 48 -46 54 -5 6 -57 70 -115 141 -57 72 -107 132 -110 135 -3 3 -18 23
-35 45 -16 22 -32 42 -35 45 -9 8 -177 226 -192 249 -12 20 -18 20 -158 14
-80 -4 -238 -7 -351 -6 l-206 1 1 -63 c1 -35 4 -66 6 -68 3 -3 34 -8 70 -11
137 -13 155 -17 178 -40 30 -30 34 -73 35 -490 1 -185 6 -336 10 -336 5 0 6
-4 3 -9 -5 -7 -7 -83 -5 -206 0 -11 -1 -66 -2 -122 -1 -55 2 -106 5 -112 4 -6
4 -16 0 -22 -5 -8 -7 -133 -3 -224 1 -29 -11 -237 -17 -279 -18 -142 -33 -160
-139 -166 -22 -1 -58 -3 -80 -5 -22 -2 -48 -4 -58 -4 -10 -1 -16 -4 -14 -8 3
-5 8 -30 12 -58 3 -27 8 -51 10 -53 2 -2 178 -4 392 -4 l388 -1 1 62 c0 34 -4
65 -9 68 -5 3 -36 7 -70 9 -149 8 -184 21 -192 69 -2 16 -7 48 -10 70 -8 48
-18 1485 -11 1485 3 0 33 -35 68 -77 35 -43 70 -87 80 -98 9 -11 96 -117 193
-235 97 -118 186 -226 198 -240 12 -14 66 -79 121 -145 54 -66 107 -129 117
-140 10 -11 48 -56 85 -100 36 -44 86 -102 109 -130 24 -27 76 -88 115 -135
40 -47 100 -116 134 -154 33 -38 64 -74 68 -81 5 -7 33 -39 63 -72 30 -32 70
-76 87 -98 47 -60 67 -72 133 -78 72 -7 188 -27 194 -32 2 -2 11 0 21 5 14 7
17 20 14 62 -22 342 -23 1851 0 1953 2 12 7 46 11 76 4 31 10 62 15 69 10 17
139 46 200 45 l48 -1 4 63 c3 57 1 63 -20 73 -13 5 -24 10 -25 9 -1 -1 -15 -4
-32 -8z"/>
<path d="M5929 10573 c-1 -17 -1 -77 0 -105 1 -20 6 -23 49 -24 72 -1 173 -14
193 -25 11 -5 19 -15 20 -22 0 -7 3 -41 6 -77 9 -94 9 -1465 0 -1595 -4 -60
-10 -130 -13 -155 -4 -25 -7 -56 -7 -69 -2 -38 -34 -50 -147 -55 -58 -2 -108
-5 -111 -5 -3 -1 -6 -34 -7 -75 l-2 -75 28 6 c28 6 933 6 990 0 23 -2 32 1 33
12 1 27 -3 126 -5 128 -1 2 -47 5 -102 7 -113 5 -149 17 -159 55 -14 50 -18
289 -19 936 0 669 6 879 27 943 17 52 59 64 250 71 14 1 17 11 17 69 l0 67
-520 0 c-418 1 -520 -2 -521 -12z"/>
<path d="M10549 10592 c-8 -1 -35 -57 -63 -130 -76 -198 -163 -417 -186 -466
-11 -25 -20 -49 -20 -54 0 -5 -6 -22 -14 -38 -8 -16 -40 -92 -71 -169 -31 -77
-63 -153 -70 -170 -8 -16 -48 -115 -90 -220 -42 -104 -85 -210 -97 -235 -11
-25 -23 -54 -28 -65 -4 -11 -15 -36 -23 -55 -8 -19 -27 -66 -42 -104 -15 -38
-31 -77 -35 -85 -5 -9 -15 -32 -23 -51 -95 -221 -127 -279 -167 -300 -17 -9
-90 -21 -149 -24 -32 -2 -34 -4 -35 -39 -1 -20 2 -37 5 -37 3 0 4 -13 1 -30
-4 -26 -1 -30 19 -30 13 -1 170 -3 349 -6 179 -2 334 -4 344 -5 11 0 22 5 26
10 5 9 6 89 1 124 -1 4 -16 7 -33 6 -54 -3 -141 11 -178 29 -31 15 -35 22 -36
57 -1 54 26 150 92 330 l56 150 411 -1 c491 -2 446 0 454 -21 10 -30 123 -316
137 -348 26 -58 38 -118 30 -151 -6 -25 -54 -36 -209 -47 l-30 -2 0 -70 c0
-57 3 -69 15 -66 8 2 240 4 515 5 l500 1 0 63 c1 72 -2 74 -101 77 -37 2 -72
10 -87 20 -26 16 -87 130 -87 160 0 8 -4 15 -10 15 -5 0 -10 7 -10 16 0 9 -7
28 -15 42 -16 30 -105 222 -105 228 0 2 -11 27 -24 56 -13 29 -47 109 -76 178
-29 69 -60 143 -70 165 -10 22 -32 74 -50 115 -18 41 -38 89 -45 105 -8 17
-26 59 -40 95 -15 36 -36 84 -46 108 -45 101 -60 134 -109 252 -51 122 -82
194 -100 235 -17 38 -48 110 -100 235 -29 69 -57 129 -61 134 -7 8 -186 15
-220 8z m-6 -662 c9 -19 25 -59 37 -89 11 -30 30 -74 41 -97 10 -24 19 -50 19
-58 0 -9 5 -16 10 -16 6 0 9 -3 8 -7 -1 -9 5 -26 38 -101 13 -29 24 -55 24
-58 0 -3 7 -21 15 -40 35 -79 45 -103 71 -169 15 -38 31 -76 37 -82 5 -7 7
-19 3 -28 -4 -13 -51 -15 -333 -14 -180 1 -331 3 -334 5 -6 3 11 57 40 129 7
17 24 59 38 95 14 36 34 84 44 107 10 23 19 46 19 51 0 5 6 22 14 38 7 16 49
118 91 227 86 219 74 207 118 107z"/>
<path d="M14887 10624 c-1 -1 -33 -5 -72 -8 -186 -16 -386 -70 -514 -138 -155
-82 -319 -226 -403 -355 -40 -62 -98 -171 -98 -186 0 -3 -5 -18 -12 -34 -6
-15 -12 -32 -14 -38 -1 -5 -10 -38 -19 -72 -37 -143 -45 -219 -41 -398 6 -245
48 -424 147 -612 26 -51 53 -99 59 -105 5 -7 30 -38 54 -68 82 -103 200 -197
323 -259 67 -33 243 -94 308 -107 22 -4 47 -9 55 -10 102 -22 416 -22 531 0 8
1 37 7 64 11 63 11 57 10 80 18 11 3 31 8 45 11 31 5 152 50 200 74 38 18 162
93 170 102 3 3 22 18 44 34 188 140 329 385 392 681 27 126 38 385 20 490 -4
22 -9 55 -11 72 -8 56 -25 126 -47 188 -24 71 -96 219 -118 243 -8 10 -31 38
-50 62 -72 92 -208 203 -310 253 -25 12 -47 24 -50 27 -17 19 -271 89 -380
105 -81 13 -344 26 -353 19z m210 -187 c4 -3 24 -8 44 -11 145 -23 295 -125
384 -261 32 -50 104 -197 110 -225 2 -8 10 -35 18 -60 8 -25 18 -61 21 -80 3
-19 8 -46 11 -60 28 -143 28 -480 0 -621 -3 -13 -7 -33 -9 -45 -10 -50 -50
-190 -57 -200 -5 -6 -7 -13 -4 -15 5 -6 -65 -147 -86 -175 -8 -10 -46 -50 -85
-89 -58 -59 -86 -78 -149 -104 -106 -44 -202 -64 -315 -63 -321 0 -562 177
-664 487 -9 28 -16 55 -17 60 -1 6 -6 21 -11 35 -10 26 -14 43 -23 95 -3 17
-8 39 -12 49 -3 11 -7 34 -9 50 -2 17 -7 64 -12 104 -9 78 -7 355 2 410 3 17
8 44 11 60 10 64 18 92 50 188 18 56 52 133 75 171 39 65 120 163 134 163 4 0
17 9 29 21 33 31 175 96 237 108 30 6 64 13 75 15 25 6 241 -1 252 -7z"/>
<path d="M2 6975 l3 -100 8595 0 8595 0 0 100 0 100 -8598 0 -8598 0 3 -100z"/>
<path d="M2847 6029 c-32 -10 -75 -20 -95 -22 -46 -5 -56 -32 -18 -47 14 -5
31 -7 38 -5 7 3 20 1 28 -5 13 -8 15 -60 14 -377 -1 -365 -5 -488 -18 -500 -3
-4 -23 -7 -44 -8 -27 0 -38 -5 -40 -19 -4 -19 6 -20 98 -1 19 4 81 7 138 6 97
-1 102 0 102 20 0 17 -5 20 -32 18 -18 -2 -42 2 -53 8 -18 11 -19 23 -20 190
-2 198 2 215 60 258 35 27 112 40 145 24 8 -3 27 -12 42 -19 49 -23 56 -63 54
-292 l-1 -208 32 -1 c125 -3 165 -1 175 9 17 17 0 32 -36 32 -19 0 -38 6 -44
13 -6 6 -11 53 -11 102 -1 50 -1 98 -2 108 0 9 0 45 1 80 1 71 -7 133 -22 161
-14 26 -56 67 -71 70 -7 2 -30 7 -52 13 -36 10 -57 11 -124 5 -11 -1 -47 -24
-80 -52 -33 -27 -64 -50 -68 -50 -4 0 -8 109 -7 243 0 133 -1 248 -4 255 -5
15 -13 14 -85 -9z"/>
<path d="M7440 5976 c-19 -7 -64 -19 -100 -26 -73 -14 -83 -20 -75 -42 4 -9
19 -15 42 -15 62 0 62 4 58 -391 -4 -372 -6 -416 -17 -427 -4 -4 -24 -8 -44
-9 -27 -1 -38 -6 -40 -19 -2 -15 4 -17 44 -15 26 2 52 7 58 11 6 3 14 4 17 0
3 -3 51 -6 106 -8 89 -2 100 0 104 17 4 15 -1 18 -31 19 -21 1 -40 1 -44 1
-26 -4 -29 42 -29 472 0 245 -3 446 -7 445 -4 0 -23 -6 -42 -13z"/>
<path d="M9605 5963 c-45 -12 -120 -25 -152 -26 -19 -1 -16 -34 3 -41 9 -3 26
-6 39 -6 13 0 27 -5 31 -12 8 -12 14 -257 7 -270 -2 -5 -17 -1 -34 7 -16 9
-29 13 -29 9 0 -4 -6 -2 -13 4 -18 15 -127 9 -159 -8 -165 -91 -186 -109 -218
-195 -76 -202 37 -405 228 -407 75 -1 96 9 165 77 31 31 58 53 58 49 1 -5 2
-31 3 -59 2 -46 4 -50 26 -50 14 0 32 3 41 7 9 4 19 5 23 1 3 -3 35 -7 71 -8
56 -2 65 0 65 15 0 13 -8 16 -31 15 -17 -1 -40 6 -52 16 -22 17 -22 19 -20
406 2 213 3 410 4 436 1 27 0 50 -2 51 -2 2 -26 -3 -54 -11z m-141 -412 c84
-41 87 -48 81 -169 -8 -182 -19 -215 -83 -257 -88 -57 -198 -20 -249 85 -22
44 -27 67 -27 125 1 83 25 163 58 194 53 50 143 59 220 22z"/>
<path d="M15177 5968 c-27 -6 -57 -26 -99 -66 -76 -72 -108 -127 -115 -194 -3
-29 -7 -55 -8 -57 -2 -1 0 -14 5 -27 9 -22 5 -27 -40 -55 -47 -29 -69 -59 -34
-45 9 3 26 9 37 11 l22 6 0 -220 c-1 -233 -5 -254 -49 -250 -43 3 -56 -1 -56
-18 0 -16 15 -18 170 -18 124 0 171 3 174 12 7 18 -12 26 -61 29 -24 1 -49 6
-56 12 -9 8 -12 64 -12 224 l0 213 79 2 c43 1 80 3 82 6 2 2 7 17 10 34 l6 30
-83 -1 -83 -1 -1 87 c-1 118 4 153 26 177 27 29 81 37 120 17 50 -25 55 -22
53 37 -1 28 -2 54 -3 57 -2 8 -43 7 -84 -2z"/>
<path d="M15576 5965 c-21 -8 -52 -26 -69 -42 -17 -15 -36 -32 -42 -38 -6 -5
-28 -31 -48 -57 -37 -49 -46 -83 -50 -187 -2 -52 -3 -54 -44 -75 -52 -26 -59
-49 -11 -35 18 5 34 9 35 9 2 0 3 -101 3 -224 0 -247 0 -248 -61 -244 -27 2
-35 -1 -37 -17 -3 -19 3 -20 163 -20 147 0 168 2 176 18 8 14 5 17 -18 18 -15
1 -32 1 -37 0 -4 -1 -23 3 -40 9 l-31 10 0 218 0 217 79 3 c44 1 81 3 82 5 1
1 4 16 6 32 l3 30 -82 -3 -82 -3 1 113 c2 117 13 159 46 174 30 13 75 12 110
-3 25 -10 37 -11 42 -4 7 12 3 91 -5 99 -10 11 -54 9 -89 -3z"/>
<path d="M12430 5954 c-30 -8 -68 -15 -85 -17 -50 -4 -44 -32 10 -46 25 -6 46
-17 46 -24 1 -6 3 -67 4 -134 l3 -123 -26 6 c-15 4 -34 10 -43 15 -8 4 -45 7
-80 5 -57 -2 -75 -8 -149 -50 -47 -27 -96 -60 -109 -74 -57 -62 -86 -199 -61
-301 21 -86 99 -170 175 -186 99 -21 152 -6 223 63 54 52 74 63 71 40 -1 -7
-1 -31 0 -53 l1 -40 103 1 c136 2 133 2 119 16 -6 6 -26 13 -44 15 -61 6 -59
-4 -58 394 1 200 2 397 4 437 2 72 2 72 -23 71 -14 -1 -51 -8 -81 -15z m-101
-405 c86 -38 89 -44 86 -177 -3 -147 -14 -189 -61 -230 -20 -18 -39 -32 -42
-33 -4 0 -14 -2 -22 -4 -41 -8 -58 -8 -92 -2 -21 5 -38 12 -38 18 0 6 -4 8 -8
5 -15 -9 -62 49 -82 103 -35 91 -19 238 33 295 27 31 100 55 146 50 19 -3 55
-14 80 -25z"/>
<path d="M14188 5932 c-29 -8 -59 -14 -65 -15 -7 0 -13 -4 -13 -8 0 -6 -30
-17 -47 -17 -3 0 -9 -4 -12 -9 -3 -5 -22 -20 -41 -33 -50 -36 -86 -78 -121
-145 -41 -78 -50 -113 -54 -214 -4 -95 15 -161 80 -276 72 -130 207 -206 370
-208 102 -1 243 39 303 87 100 79 146 139 182 235 16 39 33 141 32 186 -1 59
-38 186 -65 225 -18 26 -78 90 -103 110 -96 77 -316 117 -446 82z m202 -38
c45 -10 124 -52 161 -86 119 -109 148 -388 58 -574 -45 -93 -140 -153 -254
-160 -67 -3 -158 16 -184 40 -10 9 -22 16 -28 16 -18 0 -90 85 -116 137 -40
78 -57 149 -58 247 -1 123 33 209 116 297 72 76 192 109 305 83z"/>
<path d="M719 5929 c-23 -14 -2 -32 42 -36 24 -2 47 -7 50 -11 4 -4 10 -36 13
-72 8 -74 11 -589 4 -595 -6 -6 -98 101 -98 113 0 6 -4 12 -9 14 -5 2 -26 23
-46 48 -21 25 -54 65 -74 89 -20 24 -40 49 -46 55 -5 6 -28 34 -50 61 -59 74
-69 86 -80 99 -6 6 -35 43 -65 81 -30 39 -57 72 -60 75 -3 3 -18 22 -33 43
l-28 37 -115 0 c-113 0 -114 0 -114 -23 0 -20 4 -23 28 -19 21 3 37 -3 55 -21
l27 -24 0 -370 c0 -280 -3 -373 -12 -385 -7 -9 -30 -19 -52 -21 -43 -6 -66
-28 -38 -38 9 -3 30 -3 47 1 17 4 77 6 132 5 93 -1 101 0 100 17 -1 10 -6 18
-12 19 -54 4 -87 8 -91 11 -15 15 -27 676 -13 700 3 5 13 -1 21 -14 9 -13 26
-34 38 -48 12 -14 34 -41 49 -60 14 -19 28 -37 31 -40 6 -5 85 -103 135 -166
17 -20 53 -65 80 -98 28 -34 81 -99 118 -146 115 -146 147 -177 194 -185 l42
-7 0 374 c0 205 0 394 1 419 0 61 16 81 69 83 36 1 41 4 39 21 -3 19 -11 20
-136 20 -73 1 -137 -2 -143 -6z"/>
<path d="M5712 5922 c-7 -19 2 -24 50 -29 75 -8 70 28 69 -538 -1 -260 -3
-274 -39 -277 -15 0 -31 -2 -37 -3 -5 -2 -18 -3 -27 -4 -10 0 -18 -9 -18 -19
0 -16 15 -17 185 -17 165 0 185 2 185 16 0 12 -12 18 -47 22 -27 3 -52 12 -59
22 -9 12 -13 71 -13 201 0 101 -3 188 -6 194 -3 5 -3 10 2 10 4 0 7 75 6 167
-1 93 1 178 4 190 5 22 27 34 73 39 14 1 29 2 33 3 5 1 7 8 5 17 -3 13 -28 16
-182 17 -138 2 -180 -1 -184 -11z"/>
<path d="M10583 5932 c-7 -4 -26 -41 -43 -82 -17 -41 -38 -90 -46 -107 -34
-78 -44 -101 -64 -148 -12 -27 -32 -72 -45 -100 -12 -27 -34 -75 -47 -105
-141 -314 -144 -319 -200 -323 -26 -1 -38 -14 -32 -32 4 -8 19 -10 47 -7 23 3
66 6 94 6 29 1 53 4 53 8 0 4 10 4 23 0 12 -4 40 -8 61 -7 29 0 40 4 42 18 1
10 -4 17 -14 18 -19 1 -46 5 -78 13 -29 8 -26 40 15 135 17 40 31 79 31 86 0
21 16 22 203 21 l178 -1 38 -90 c63 -151 63 -158 -19 -168 -25 -3 -46 -6 -47
-6 -2 -1 -3 -9 -3 -19 0 -16 8 -18 78 -15 130 5 232 4 242 -2 6 -3 10 1 10 9
0 26 -4 30 -28 32 -46 5 -52 16 -177 309 -26 61 -53 124 -60 140 -7 17 -48
113 -91 215 -92 220 -92 220 -121 202z m6 -234 c13 -35 34 -85 46 -113 56
-124 83 -195 77 -198 -6 -3 -270 -2 -299 2 -8 1 -5 16 9 49 11 26 28 65 38 87
10 22 35 84 56 137 22 54 41 98 44 98 3 0 16 -28 29 -62z"/>
<path d="M12809 5899 c-39 -39 -9 -121 45 -121 29 0 76 43 76 70 -1 55 -82 90
-121 51z"/>
<path d="M15804 5897 c-23 -20 -26 -28 -20 -60 5 -26 15 -41 34 -51 31 -15 48
-12 80 17 29 27 28 60 -3 92 -32 31 -56 32 -91 2z"/>
<path d="M2447 5807 c-37 -16 -47 -25 -44 -39 3 -10 2 -18 -1 -18 -4 0 -6 -32
-5 -71 1 -40 -1 -77 -3 -84 -3 -7 -25 -18 -48 -25 -35 -10 -43 -16 -39 -31 3
-10 9 -16 14 -13 5 3 25 0 44 -7 34 -13 35 -14 32 -66 -1 -29 1 -53 4 -53 4 0
3 -17 -1 -38 -3 -20 -3 -49 1 -65 4 -15 4 -27 1 -27 -9 0 -6 -118 3 -168 12
-65 63 -102 139 -102 56 0 93 14 123 47 29 30 24 38 -24 35 -19 -2 -50 2 -68
8 -60 20 -64 37 -63 243 l0 186 72 0 c39 0 76 0 83 0 16 1 35 58 20 63 -7 2
-49 4 -94 3 -93 -1 -87 -6 -83 85 5 127 4 153 -5 156 -5 1 -32 -8 -58 -19z"/>
<path d="M13250 5820 c0 -4 -17 -14 -38 -22 l-38 -15 1 -96 1 -97 -35 -11
c-72 -23 -86 -59 -22 -59 l39 0 1 -47 c2 -71 2 -77 1 -218 0 -71 4 -145 9
-163 17 -57 62 -84 139 -83 45 0 64 6 96 30 23 16 39 33 36 37 -3 5 -31 9 -63
9 -49 0 -61 4 -76 24 -10 13 -18 39 -19 58 -1 19 -4 37 -6 41 -3 5 -1 14 4 22
5 8 5 21 -1 31 -6 11 -5 20 1 24 5 3 6 15 1 28 -7 22 -6 75 3 84 2 2 0 18 -4
34 -5 16 -5 29 -1 29 4 0 7 12 6 28 l0 27 79 2 c83 2 98 10 94 48 -3 18 -11
20 -88 20 l-85 0 1 70 c1 39 3 93 5 120 3 46 1 50 -19 51 -12 1 -22 -2 -22 -6z"/>
<path d="M4977 5656 c-27 -6 -62 -24 -81 -41 -18 -16 -43 -38 -56 -48 l-22
-18 2 38 c5 72 4 75 -27 60 -25 -13 -50 -21 -103 -34 -8 -2 -28 -5 -45 -7 -23
-2 -29 -7 -27 -22 5 -26 6 -26 51 -26 22 0 41 -5 44 -11 8 -23 6 -453 -3 -467
-5 -8 -24 -15 -43 -15 -19 -1 -43 -9 -53 -19 -17 -18 -17 -18 6 -10 14 5 85 8
158 8 118 0 132 1 132 16 0 13 -11 19 -41 23 -22 3 -44 8 -47 12 -4 3 -6 89
-6 190 1 160 3 187 19 212 49 74 136 97 220 57 57 -27 64 -61 62 -296 l-3
-205 114 0 c95 0 112 2 108 14 -3 8 -6 17 -6 19 0 2 -18 4 -39 4 -52 0 -57 17
-59 208 -2 84 -5 172 -8 195 -15 121 -122 191 -247 163z"/>
<path d="M8648 5665 c-2 -2 -14 -6 -26 -8 -21 -3 -62 -32 -116 -82 -15 -14
-28 -25 -30 -25 -1 0 -1 23 2 50 2 28 1 50 -3 50 -4 0 -37 -9 -73 -20 -58 -17
-98 -27 -124 -29 -5 -1 -8 -9 -8 -19 0 -15 9 -19 47 -21 26 -1 49 -4 52 -6 3
-3 5 -107 6 -231 1 -250 -3 -268 -54 -259 -19 3 -36 -2 -51 -15 -13 -11 -18
-20 -12 -20 6 0 13 4 16 9 3 5 71 8 151 7 110 -2 145 1 145 10 0 17 -16 26
-51 28 -17 1 -34 8 -39 15 -4 8 -7 95 -6 195 1 172 2 183 24 214 61 85 202 88
258 5 16 -25 18 -50 18 -244 l0 -216 90 0 c50 0 98 -2 106 -4 9 -3 16 5 18 19
3 19 -1 23 -20 22 -46 -4 -59 0 -68 24 -4 13 -11 106 -14 207 -3 101 -8 197
-12 213 -11 48 -84 112 -135 121 -24 4 -53 9 -65 11 -11 2 -23 2 -26 -1z"/>
<path d="M2143 5644 c-21 -7 -43 -21 -50 -31 -27 -40 -83 -95 -84 -82 -1 8 -1
38 0 67 0 28 -1 52 -2 52 -1 0 -25 -9 -54 -20 -46 -17 -75 -25 -133 -34 -8 -2
-16 -12 -18 -23 -3 -17 3 -20 44 -22 26 0 50 -4 53 -6 2 -3 4 -107 4 -230 0
-164 -3 -229 -12 -238 -7 -7 -31 -12 -54 -12 -35 -1 -42 -4 -42 -20 0 -11 5
-19 11 -18 5 1 33 3 60 6 28 2 55 6 60 9 5 3 55 4 111 2 80 -2 102 0 107 11 7
20 -8 27 -59 29 -69 2 -70 5 -69 178 0 84 4 167 8 184 9 41 53 81 94 87 27 4
38 -1 67 -29 20 -19 40 -34 45 -34 11 0 11 -2 13 100 l2 74 -32 7 c-17 3 -48
0 -70 -7z"/>
<path d="M4483 5650 c-34 -5 -56 -22 -115 -89 -21 -22 -39 -41 -40 -41 -2 0
-2 29 0 64 2 62 2 64 -20 59 -13 -3 -27 -9 -33 -13 -12 -9 -73 -24 -135 -34
-8 -2 -16 -12 -18 -23 -3 -18 3 -21 44 -21 26 -1 49 -4 52 -7 12 -12 6 -455
-7 -468 -6 -6 -31 -12 -54 -12 -31 0 -43 -5 -45 -18 -4 -21 37 -24 71 -5 14 8
67 11 154 10 119 -1 131 0 129 16 -2 13 -16 18 -60 23 -31 4 -59 9 -63 12 -3
4 -6 80 -7 169 -1 187 10 229 73 260 41 20 69 12 114 -34 l32 -32 5 45 c3 24
5 64 5 88 0 39 -3 45 -25 51 -14 3 -39 3 -57 0z"/>
<path d="M6517 5648 c-9 -5 -17 -6 -17 -3 0 16 -61 -29 -94 -69 -43 -53 -55
-57 -49 -18 6 34 4 74 -2 80 -3 3 -30 -2 -61 -12 -51 -16 -80 -23 -124 -30 -8
-2 -16 -13 -18 -24 -3 -20 0 -22 37 -19 22 2 46 0 53 -4 18 -11 18 -453 1
-470 -7 -7 -31 -13 -53 -14 -21 0 -41 -3 -44 -6 -3 -2 76 -5 175 -6 98 0 179
2 179 6 -1 19 -20 29 -68 33 -29 3 -55 7 -58 10 -3 3 -5 80 -6 171 -1 142 2
170 18 203 37 74 113 87 161 27 12 -15 25 -24 29 -20 4 4 9 41 11 81 3 73 3
74 -25 84 -18 6 -35 6 -45 0z"/>
<path d="M11724 5652 c-10 -9 -113 -40 -156 -46 -36 -6 -48 -14 -48 -32 0 -8
11 -14 28 -15 35 -1 62 -6 70 -13 7 -8 7 -293 -1 -330 -23 -110 -215 -163
-276 -77 -18 25 -19 42 -15 221 2 107 6 211 7 230 2 19 2 38 0 42 -2 4 -23 0
-46 -8 -23 -9 -46 -17 -52 -18 -5 -2 -21 -6 -35 -9 -14 -4 -38 -8 -55 -10 -21
-3 -30 -9 -30 -22 0 -14 9 -19 39 -21 21 -1 43 -7 49 -13 7 -7 12 -78 12 -204
2 -224 9 -251 81 -293 84 -49 197 -28 278 52 25 24 48 44 51 44 3 0 4 -22 1
-50 l-5 -50 77 -1 c42 -1 93 -2 112 -3 29 -1 35 3 35 19 0 14 -14 25 -52 40
-29 11 -55 26 -58 35 -11 27 -4 397 8 492 5 31 -5 51 -19 40z"/>
<path d="M1360 5639 c-127 -19 -228 -115 -256 -243 -30 -131 37 -295 141 -349
79 -40 205 -42 287 -4 70 32 118 79 154 152 26 53 29 70 29 150 -1 67 -5 99
-19 125 -51 97 -130 154 -227 166 -30 3 -56 7 -59 8 -3 2 -25 -1 -50 -5z m97
-70 c78 -38 125 -151 126 -305 1 -158 -104 -251 -227 -200 -80 33 -128 134
-140 291 -4 46 24 168 42 189 43 48 129 59 199 25z"/>
<path d="M12890 5640 c-20 -14 -114 -40 -155 -43 -25 -2 -41 -25 -27 -39 6 -6
22 -6 46 0 26 8 38 7 43 -1 11 -17 13 -446 2 -453 -5 -3 -7 -10 -3 -15 3 -6
-10 -9 -33 -8 -44 3 -64 -6 -57 -24 3 -9 48 -12 163 -12 147 -1 158 0 153 17
-4 17 -18 22 -53 19 -40 -4 -44 21 -45 288 -1 141 -2 262 -3 269 -1 14 -11 15
-31 2z"/>
<path d="M15859 5630 c-25 -10 -63 -21 -85 -25 -21 -4 -45 -8 -52 -9 -20 -4
-32 -20 -23 -34 6 -11 17 -11 45 -4 34 10 38 9 46 -12 5 -13 9 -118 10 -234 1
-200 0 -211 -19 -221 -11 -6 -33 -11 -49 -11 -32 0 -43 -7 -36 -23 3 -8 52
-12 161 -12 140 0 156 2 159 17 1 12 -4 17 -19 17 -81 -2 -85 16 -83 319 2
134 0 244 -3 246 -3 2 -27 -4 -52 -14z"/>
<path d="M16325 5627 c-123 -53 -184 -111 -211 -199 -53 -177 17 -343 164
-392 84 -28 208 -24 271 9 34 17 43 29 47 61 l2 23 -51 -21 c-41 -16 -67 -19
-120 -15 -84 5 -128 37 -169 118 -31 62 -40 97 -40 156 1 99 23 155 81 198 39
30 133 30 190 1 44 -22 52 -35 52 -89 0 -23 4 -28 21 -25 23 3 24 9 32 101 l4
57 -36 17 c-60 26 -177 26 -237 0z"/>
<path d="M3703 5616 c-35 -13 -77 -37 -95 -55 -17 -17 -34 -31 -38 -31 -27 0
-79 -169 -73 -240 15 -176 122 -281 289 -282 100 -1 216 54 226 107 5 26 -1
31 -17 17 -21 -18 -112 -47 -155 -49 -92 -4 -185 93 -192 198 l-3 53 150 3
c190 4 237 7 252 16 14 9 10 91 -8 145 -39 117 -192 171 -336 118z m137 -41
c16 -8 37 -27 48 -42 20 -28 38 -90 33 -108 -2 -5 -4 -17 -4 -25 0 -8 -4 -18
-9 -21 -17 -11 -281 -1 -288 11 -17 28 6 114 43 162 30 38 124 50 177 23z"/>
<path d="M6850 5617 c-60 -23 -58 -22 -113 -68 -148 -124 -118 -433 49 -510
55 -25 138 -36 198 -28 67 10 154 57 173 92 8 16 13 31 10 33 -2 2 -23 -6 -48
-18 -34 -17 -62 -23 -121 -23 -69 0 -80 3 -119 30 -41 29 -75 79 -85 126 -12
57 -12 79 -1 80 7 1 75 3 152 5 145 3 244 10 250 16 14 14 2 124 -17 163 -6
11 -27 37 -47 58 -63 67 -178 85 -281 44z m150 -49 c18 -13 42 -38 52 -57 18
-31 27 -109 15 -127 -4 -8 -130 -10 -270 -5 l-38 1 4 48 c6 62 19 91 53 124
48 44 131 51 184 16z"/>
<path d="M7867 5630 c-43 -11 -114 -45 -139 -68 -25 -21 -25 -89 -1 -94 18 -3
64 42 75 73 13 35 130 34 183 -2 35 -24 55 -61 60 -111 4 -34 0 -37 -77 -49
-115 -19 -211 -56 -250 -97 -55 -57 -71 -160 -34 -214 31 -46 74 -66 137 -65
46 2 63 8 109 42 30 21 57 42 60 46 3 3 15 11 28 18 21 11 22 10 22 -38 l0
-49 84 0 c46 1 88 -2 94 -5 5 -4 12 2 15 13 6 23 1 27 -38 34 -15 3 -33 10
-39 16 -7 7 -11 82 -12 203 -1 105 -2 201 -3 213 -2 31 -53 103 -87 120 -36
19 -136 26 -187 14z m157 -356 l1 -76 -38 -35 c-66 -59 -126 -73 -184 -42 -43
23 -43 128 0 166 30 28 199 80 216 66 2 -2 5 -37 5 -79z"/>
<path d="M16865 5618 c-27 -11 -63 -30 -80 -43 -42 -32 -87 -75 -79 -75 3 0 1
-6 -5 -14 -23 -28 -43 -112 -44 -182 0 -110 60 -222 142 -263 52 -26 88 -33
161 -32 84 2 180 44 209 92 11 18 19 35 17 37 -2 2 -24 -6 -48 -19 -55 -27
-157 -34 -207 -13 -72 30 -121 102 -124 182 l-2 46 155 3 c85 2 173 4 195 6
l40 2 3 70 c4 86 -1 105 -34 145 -62 73 -194 99 -299 58z m120 -38 c4 -6 10
-8 15 -5 10 6 62 -55 68 -82 2 -10 6 -41 9 -68 l5 -50 -134 1 c-170 1 -179 4
-172 52 12 83 41 133 86 151 31 13 115 13 123 1z"/>
</g>
</svg>
