<?xml version="1.0" standalone="no"?>
<!DOCTYPE svg PUBLIC "-//W3C//DTD SVG 20010904//EN"
 "http://www.w3.org/TR/2001/REC-SVG-20010904/DTD/svg10.dtd">
<svg version="1.0" xmlns="http://www.w3.org/2000/svg"
 width="1312.000000pt" height="1312.000000pt" viewBox="0 0 1312.000000 1312.000000"
 preserveAspectRatio="xMidYMid meet">
<metadata>
Created by potrace 1.14, written by Peter Selinger 2001-2017
</metadata>
<g transform="translate(0.000000,1312.000000) scale(0.100000,-0.100000)"
fill="#000000" stroke="none">
<path d="M6259 10825 c-2 -1 -60 -6 -129 -10 -181 -11 -251 -17 -335 -29 -22
-3 -65 -8 -96 -11 -31 -3 -65 -7 -76 -10 -24 -4 -94 -14 -138 -20 -16 -2 -30
-4 -30 -5 0 -1 -11 -3 -25 -6 -27 -4 -69 -12 -110 -19 -14 -3 -41 -7 -60 -9
-19 -3 -44 -8 -55 -11 -20 -5 -181 -42 -220 -50 -11 -2 -81 -20 -155 -40 -74
-20 -139 -37 -145 -38 -5 -2 -16 -6 -22 -10 -7 -5 -13 -6 -13 -3 0 3 -30 -6
-67 -18 -38 -13 -72 -24 -78 -26 -5 -1 -14 -4 -20 -5 -62 -17 -418 -144 -500
-179 -16 -8 -86 -37 -155 -66 -147 -63 -513 -238 -520 -250 -3 -5 -17 -11 -32
-15 -15 -4 -32 -13 -39 -21 -6 -8 -15 -12 -19 -9 -4 3 -13 -2 -20 -10 -7 -8
-17 -15 -22 -15 -6 0 -22 -9 -37 -19 -15 -11 -34 -21 -42 -23 -8 -2 -16 -6
-19 -9 -4 -5 -103 -63 -180 -106 -30 -16 -327 -206 -355 -227 -40 -29 -141
-98 -173 -118 -17 -11 -32 -24 -32 -28 0 -5 -9 -12 -20 -15 -11 -3 -26 -12
-33 -18 -32 -30 -97 -77 -106 -77 -5 0 -11 -3 -13 -8 -1 -4 -23 -23 -48 -42
-55 -42 -231 -181 -247 -195 -6 -5 -30 -26 -54 -45 -23 -19 -47 -39 -53 -45
-6 -5 -40 -35 -76 -65 -36 -30 -77 -66 -92 -80 -14 -14 -57 -52 -94 -85 -160
-142 -443 -420 -609 -600 -55 -60 -117 -126 -138 -148 -20 -22 -37 -41 -37
-43 0 -2 -10 -14 -22 -27 -13 -12 -41 -45 -63 -71 -22 -27 -49 -58 -61 -70
-11 -11 -40 -46 -65 -76 -24 -30 -46 -57 -49 -60 -14 -14 -170 -210 -170 -215
0 -3 -15 -26 -34 -52 -41 -59 -108 -183 -98 -183 4 0 2 -4 -3 -8 -6 -4 -16
-20 -24 -37 -23 -51 -81 -233 -83 -260 -1 -14 -5 -25 -8 -25 -3 0 -7 -12 -8
-27 -1 -16 -4 -39 -7 -53 -35 -174 -21 -462 30 -660 10 -36 17 -71 18 -77 0
-7 4 -13 9 -13 4 0 8 -11 8 -23 0 -13 3 -27 7 -31 5 -4 8 -11 9 -14 3 -24 67
-158 115 -243 34 -59 175 -254 220 -304 10 -11 66 -78 126 -150 59 -71 123
-148 143 -169 19 -22 45 -51 58 -65 289 -322 665 -686 961 -929 25 -21 52 -44
61 -52 9 -8 45 -37 81 -64 35 -27 69 -54 74 -60 6 -6 35 -29 65 -51 30 -22 57
-42 60 -45 3 -3 34 -27 70 -52 36 -26 70 -51 75 -56 6 -4 33 -23 60 -42 28
-19 52 -37 53 -42 2 -4 8 -8 13 -8 11 0 72 -42 77 -52 2 -5 8 -8 13 -8 6 0 15
-5 22 -11 19 -16 235 -156 305 -197 35 -20 85 -50 110 -65 26 -15 54 -31 62
-34 8 -4 17 -9 20 -12 3 -4 30 -19 60 -35 30 -16 78 -41 105 -56 139 -76 385
-196 556 -270 41 -18 93 -41 116 -51 23 -11 45 -19 48 -19 4 0 21 -6 38 -14
18 -7 68 -27 112 -44 44 -16 89 -33 100 -37 11 -5 22 -9 25 -10 3 -1 17 -7 33
-13 15 -7 39 -14 52 -16 14 -3 30 -8 37 -13 7 -4 18 -8 23 -9 6 -1 44 -13 85
-27 80 -26 215 -68 234 -71 6 -2 31 -8 56 -15 25 -7 53 -15 63 -17 10 -1 32
-8 50 -13 41 -13 155 -42 184 -46 12 -2 51 -10 85 -19 35 -8 77 -18 93 -21 17
-2 41 -7 55 -10 14 -3 41 -8 60 -11 19 -3 42 -7 50 -9 8 -3 33 -7 55 -10 22
-3 51 -8 65 -11 54 -10 77 -14 120 -18 25 -3 56 -7 70 -10 14 -2 48 -7 75 -10
28 -4 68 -9 90 -12 22 -3 67 -7 100 -10 33 -2 80 -6 105 -8 190 -16 307 -20
600 -20 299 -1 482 5 620 19 25 2 74 6 110 9 36 3 81 8 100 10 19 3 58 8 85
11 68 8 102 12 155 20 25 3 56 7 70 9 14 1 31 6 38 10 7 4 12 5 12 3 0 -2 21
0 48 5 26 5 65 11 87 14 22 3 58 10 80 15 22 5 54 12 70 14 46 7 80 14 210 46
66 16 129 31 140 34 40 8 62 14 205 55 80 23 150 43 155 44 6 1 15 4 20 7 6 4
62 23 125 44 63 20 117 39 119 41 3 2 -93 102 -212 222 -119 119 -360 362
-535 538 l-319 322 -64 -30 c-35 -16 -77 -36 -94 -43 -59 -28 -186 -75 -200
-75 -8 0 -15 -5 -15 -10 0 -6 -3 -9 -7 -8 -9 2 -78 -17 -143 -39 -25 -8 -54
-17 -65 -19 -20 -4 -29 -6 -100 -23 -22 -5 -51 -12 -65 -15 -14 -3 -34 -7 -45
-9 -11 -3 -40 -8 -65 -11 -25 -3 -56 -8 -70 -11 -28 -6 -71 -11 -175 -22 -88
-8 -486 -8 -540 0 -22 4 -68 9 -102 12 -34 3 -86 10 -115 16 -29 6 -66 13 -83
15 -71 13 -92 17 -155 34 -25 7 -54 14 -66 16 -32 6 -282 89 -344 114 -30 12
-64 26 -75 30 -104 42 -398 196 -403 211 -2 5 -8 9 -13 9 -24 0 -314 213 -428
315 -45 40 -196 190 -247 246 -51 56 -224 275 -224 284 0 3 -6 13 -12 20 -26
29 -38 44 -38 49 0 2 -28 48 -61 102 -124 197 -247 467 -314 689 -14 50 -29
97 -32 105 -3 8 -7 22 -9 30 -2 8 -8 35 -14 60 -11 50 -18 79 -24 113 -3 12
-7 33 -10 47 -3 13 -8 42 -11 65 -4 22 -9 54 -12 70 -3 17 -7 50 -9 75 -2 25
-6 79 -10 120 -18 212 -5 501 32 710 8 47 17 97 19 112 2 15 16 78 31 140 33
132 29 119 36 138 3 8 22 62 41 120 20 58 41 119 48 135 7 17 13 32 14 35 26
77 168 354 242 470 71 113 163 243 219 310 117 139 255 282 359 374 17 15 39
34 50 44 54 48 201 156 295 217 58 37 117 76 132 86 15 11 32 19 37 19 5 0 16
6 23 13 14 13 57 34 72 35 5 0 12 4 15 9 3 5 38 24 76 41 39 18 78 37 87 42
40 22 316 126 361 136 4 1 8 2 10 4 1 1 9 3 17 5 8 1 49 12 90 23 41 12 89 24
105 27 17 2 41 7 55 10 67 15 124 25 167 30 26 3 57 8 68 10 149 29 583 24
820 -10 31 -4 239 -44 265 -51 67 -16 107 -26 115 -29 6 -1 12 -3 15 -4 28 -6
256 -87 330 -117 107 -43 360 -169 414 -206 6 -4 68 -45 137 -91 70 -47 133
-90 140 -96 8 -6 24 -19 35 -29 75 -60 110 -89 126 -104 10 -10 20 -18 23 -18
6 0 221 -216 270 -272 52 -59 76 -88 143 -178 31 -41 59 -77 62 -80 3 -3 31
-45 63 -95 31 -49 60 -95 64 -101 38 -51 166 -310 213 -429 23 -60 46 -119 51
-130 17 -43 69 -210 73 -235 1 -8 5 -24 9 -35 3 -11 9 -31 11 -45 3 -14 10
-43 15 -65 5 -22 12 -58 15 -80 4 -23 9 -52 11 -65 43 -208 54 -679 21 -870
-3 -14 -7 -45 -10 -70 -4 -25 -9 -58 -12 -75 -4 -16 -7 -39 -8 -50 -11 -100
-94 -389 -163 -565 -65 -167 -177 -388 -253 -503 -22 -32 -40 -61 -40 -63 0
-12 -171 -238 -215 -284 l-24 -26 637 -637 c350 -350 640 -639 643 -642 5 -5
67 31 269 155 30 19 57 38 58 42 2 4 8 8 14 8 5 0 24 10 41 23 17 12 40 27 49
32 76 43 638 451 668 484 3 3 39 33 80 66 41 33 80 65 86 70 6 6 35 30 64 55
29 25 73 63 98 85 77 68 85 75 94 75 4 0 8 7 8 15 0 8 4 15 9 15 17 0 409 382
550 536 29 32 70 77 90 99 32 34 137 155 192 220 37 43 175 214 199 245 14 18
30 38 35 44 6 6 22 27 35 46 13 19 27 37 30 40 9 9 30 45 36 63 4 9 10 17 15
17 5 0 9 6 9 14 0 8 4 16 8 18 19 8 122 239 141 316 5 20 17 63 25 94 15 54
20 77 32 158 11 71 12 337 3 405 -6 39 -12 81 -13 95 -4 32 -45 189 -56 215
-5 11 -21 52 -36 90 -55 140 -148 296 -258 430 -23 28 -44 55 -49 60 -4 6 -17
21 -28 35 -12 14 -38 45 -58 70 -20 25 -40 50 -46 56 -13 14 -88 101 -116 134
-28 34 -141 160 -214 239 -96 104 -472 479 -570 568 -128 116 -193 173 -275
243 -25 21 -56 48 -70 60 -14 12 -38 31 -53 43 -15 12 -40 32 -55 45 -15 13
-40 33 -56 45 -16 12 -37 30 -47 40 -11 9 -23 17 -28 17 -6 0 -16 8 -23 18 -7
9 -21 22 -30 27 -9 6 -43 30 -76 55 -32 25 -70 52 -82 60 -13 8 -30 23 -39 33
-8 9 -21 17 -28 17 -6 0 -16 6 -20 13 -4 6 -16 17 -25 22 -9 6 -91 61 -182
123 -90 61 -168 112 -171 112 -3 0 -21 11 -38 24 -34 25 -257 160 -342 206
-27 15 -90 50 -140 77 -94 51 -338 172 -437 217 -140 63 -165 74 -200 87 -21
7 -38 17 -38 23 0 5 -3 7 -6 4 -5 -5 -94 26 -149 52 -11 6 -40 17 -65 26 -25
9 -101 36 -170 61 -69 24 -132 46 -140 48 -8 2 -15 4 -15 5 0 1 -7 3 -15 5 -8
2 -76 22 -152 44 -75 23 -144 44 -155 46 -10 2 -43 11 -75 19 -62 17 -104 27
-130 30 -10 1 -21 5 -24 9 -4 4 -19 7 -34 7 -15 0 -30 3 -34 7 -3 4 -14 8 -24
8 -15 2 -91 16 -162 32 -14 2 -34 6 -45 8 -11 2 -47 8 -80 14 -33 5 -73 12
-90 15 -16 2 -30 5 -30 6 0 1 -16 4 -35 5 -19 2 -46 6 -60 8 -14 3 -50 8 -80
11 -30 4 -66 8 -80 11 -14 2 -56 7 -95 10 -38 3 -86 7 -105 10 -19 2 -70 5
-112 7 -43 1 -78 5 -78 8 0 5 -706 11 -711 5z"/>
<path d="M6457 8425 c-1 -2 -33 -5 -72 -9 -91 -8 -134 -14 -210 -30 -106 -22
-312 -88 -362 -115 -10 -6 -45 -22 -78 -37 -33 -15 -63 -31 -66 -37 -3 -5 -9
-8 -13 -8 -12 1 -76 -33 -76 -41 0 -4 -6 -8 -13 -8 -7 0 -23 -9 -35 -20 -12
-12 -22 -18 -22 -15 0 7 -163 -118 -196 -150 -11 -11 -38 -36 -60 -55 -79 -72
-246 -278 -284 -350 -7 -14 -16 -27 -19 -30 -3 -3 -13 -18 -21 -35 -8 -16 -17
-32 -20 -35 -3 -3 -28 -54 -56 -115 -54 -115 -103 -258 -129 -370 -2 -5 -8
-37 -15 -70 -6 -33 -13 -70 -16 -83 -15 -76 -22 -361 -10 -459 15 -132 25
-192 37 -231 6 -18 12 -43 14 -55 8 -50 17 -83 26 -91 5 -6 9 -22 9 -36 0 -14
4 -30 9 -36 5 -5 18 -34 29 -66 45 -121 142 -300 218 -401 24 -31 44 -59 44
-62 0 -3 8 -13 18 -23 9 -11 50 -55 90 -100 40 -44 114 -115 165 -157 123
-102 122 -102 149 -116 13 -6 25 -15 28 -19 13 -17 185 -111 295 -160 117 -53
302 -107 425 -125 19 -3 44 -8 55 -10 84 -18 309 -23 440 -10 44 4 94 9 110
10 17 2 30 4 30 5 0 2 17 6 70 15 22 3 45 8 50 9 97 24 186 51 220 67 11 4 44
17 72 29 441 168 854 586 1030 1040 33 85 36 95 38 100 8 26 28 97 29 105 1 6
4 15 8 20 3 6 9 28 12 50 4 22 11 56 16 75 5 19 12 62 15 95 4 33 8 74 11 90
8 55 3 380 -6 380 -1 0 -3 16 -5 35 -4 51 -15 122 -21 142 -3 9 -7 27 -10 40
-27 115 -26 109 -37 138 -3 8 -15 42 -26 75 -30 90 -70 179 -125 280 -42 77
-107 178 -126 195 -3 3 -16 21 -30 40 -60 86 -240 268 -329 334 -33 24 -68 51
-76 60 -9 9 -23 16 -31 16 -8 0 -14 4 -14 8 0 5 -12 15 -27 22 -16 8 -35 20
-43 27 -26 20 -254 133 -271 133 -9 0 -19 3 -23 7 -6 6 -61 28 -96 38 -22 6
-92 25 -113 30 -9 2 -20 6 -25 8 -4 3 -23 8 -42 11 -19 3 -46 8 -60 11 -13 2
-42 7 -65 10 -22 3 -58 8 -80 12 -37 5 -302 12 -308 8z"/>
</g>
</svg>
