<?xml version="1.0" encoding="utf-8"?>
<!-- Generator: Adobe Illustrator 25.3.1, SVG Export Plug-In . SVG Version: 6.00 Build 0)  -->
<svg version="1.1" id="Layer_1" xmlns="http://www.w3.org/2000/svg" xmlns:xlink="http://www.w3.org/1999/xlink" x="0px" y="0px"
	 viewBox="0 0 816.22 100.6" style="enable-background:new 0 0 816.22 100.6;" xml:space="preserve">
<style type="text/css">
	.st0{fill:#623B93;}
	.st1{fill:#4A2E83;}
	.st2{fill:#FFFFFF;}
</style>
<g>
	<path class="st0" d="M197,49.31c0,3.12-0.43,5.86-1.29,8.23c-0.86,2.36-2.07,4.33-3.63,5.91c-1.56,1.58-3.45,2.76-5.67,3.54
		c-2.22,0.78-4.71,1.17-7.47,1.17c-2.72,0-5.18-0.39-7.38-1.17c-2.2-0.78-4.08-1.95-5.64-3.51c-1.56-1.56-2.76-3.49-3.6-5.79
		c-0.84-2.3-1.26-4.97-1.26-8.02V25.48h7.32v23.9c0,3.92,0.95,6.9,2.84,8.95c1.89,2.04,4.51,3.06,7.85,3.06
		c3.3,0,5.9-0.98,7.79-2.94c1.89-1.96,2.84-4.88,2.84-8.77V25.48H197V49.31z"/>
	<path class="st0" d="M209.46,67.5h-7.32V35.8h7.32v7.14c1-2.4,2.42-4.32,4.26-5.76c1.84-1.44,4.16-2.1,6.96-1.98v7.68h-0.42
		c-1.6,0-3.06,0.26-4.38,0.78c-1.32,0.52-2.46,1.3-3.42,2.34c-0.96,1.04-1.7,2.35-2.22,3.93c-0.52,1.58-0.78,3.41-0.78,5.49V67.5z"
		/>
	<path class="st0" d="M253.85,58.08c-0.86,2-2.04,3.75-3.54,5.25c-1.5,1.5-3.29,2.69-5.37,3.57c-2.08,0.88-4.34,1.32-6.78,1.32
		c-2.4,0-4.63-0.43-6.69-1.29s-3.84-2.04-5.34-3.54s-2.67-3.24-3.51-5.22c-0.84-1.98-1.26-4.11-1.26-6.39
		c0-2.28,0.43-4.43,1.29-6.45c0.86-2.02,2.04-3.78,3.54-5.28c1.5-1.5,3.28-2.69,5.34-3.57c2.06-0.88,4.31-1.32,6.75-1.32
		c2.44,0,4.69,0.43,6.75,1.29c2.06,0.86,3.84,2.04,5.34,3.54s2.67,3.25,3.51,5.25c0.84,2,1.26,4.14,1.26,6.42
		C255.14,53.94,254.71,56.08,253.85,58.08z M247.1,47.81c-0.48-1.24-1.14-2.33-2-3.27c-0.86-0.94-1.87-1.68-3.04-2.22
		c-1.17-0.54-2.48-0.81-3.91-0.81c-1.43,0-2.74,0.27-3.91,0.81c-1.17,0.54-2.18,1.27-3.01,2.19c-0.83,0.92-1.47,1.99-1.91,3.21
		c-0.44,1.22-0.66,2.53-0.66,3.93c0,1.4,0.24,2.73,0.72,3.99c0.48,1.26,1.14,2.35,2,3.27c0.86,0.92,1.87,1.65,3.04,2.19
		c1.17,0.54,2.46,0.81,3.85,0.81c1.47,0,2.79-0.27,3.97-0.81c1.17-0.54,2.18-1.27,3.01-2.19c0.84-0.92,1.47-1.99,1.91-3.21
		c0.44-1.22,0.66-2.53,0.66-3.93C247.81,50.37,247.58,49.05,247.1,47.81z"/>
	<path class="st0" d="M258.78,67.5V23.68h7.32V67.5H258.78z"/>
	<path class="st0" d="M302.13,58.08c-0.86,2-2.04,3.75-3.54,5.25c-1.5,1.5-3.29,2.69-5.37,3.57c-2.08,0.88-4.34,1.32-6.78,1.32
		c-2.4,0-4.63-0.43-6.69-1.29s-3.84-2.04-5.34-3.54s-2.67-3.24-3.51-5.22c-0.84-1.98-1.26-4.11-1.26-6.39
		c0-2.28,0.43-4.43,1.29-6.45c0.86-2.02,2.04-3.78,3.54-5.28c1.5-1.5,3.28-2.69,5.34-3.57c2.06-0.88,4.31-1.32,6.75-1.32
		c2.44,0,4.69,0.43,6.75,1.29c2.06,0.86,3.84,2.04,5.34,3.54s2.67,3.25,3.51,5.25c0.84,2,1.26,4.14,1.26,6.42
		C303.42,53.94,302.99,56.08,302.13,58.08z M295.38,47.81c-0.48-1.24-1.14-2.33-2-3.27c-0.86-0.94-1.87-1.68-3.04-2.22
		c-1.17-0.54-2.48-0.81-3.91-0.81c-1.43,0-2.74,0.27-3.91,0.81c-1.17,0.54-2.18,1.27-3.01,2.19c-0.83,0.92-1.47,1.99-1.91,3.21
		c-0.44,1.22-0.66,2.53-0.66,3.93c0,1.4,0.24,2.73,0.72,3.99c0.48,1.26,1.14,2.35,2,3.27c0.86,0.92,1.87,1.65,3.04,2.19
		c1.17,0.54,2.46,0.81,3.85,0.81c1.47,0,2.79-0.27,3.97-0.81c1.17-0.54,2.18-1.27,3.01-2.19c0.84-0.92,1.47-1.99,1.91-3.21
		c0.44-1.22,0.66-2.53,0.66-3.93C296.1,50.37,295.86,49.05,295.38,47.81z"/>
	<path class="st0" d="M334.75,73.33c-2.96,2.6-7.17,3.9-12.61,3.9c-5.28,0-10.01-1.26-14.17-3.78l2.7-5.46
		c1.68,1.04,3.44,1.86,5.28,2.46c1.84,0.6,3.84,0.9,6,0.9c3.24,0,5.72-0.82,7.44-2.47c1.72-1.65,2.58-4.08,2.58-7.3V59.1
		c-1.32,1.74-2.86,3.15-4.62,4.24c-1.76,1.09-3.94,1.64-6.54,1.64c-1.88,0-3.68-0.33-5.4-0.99c-1.72-0.66-3.25-1.63-4.59-2.91
		c-1.34-1.28-2.41-2.84-3.21-4.68c-0.8-1.84-1.2-3.94-1.2-6.3c0-2.36,0.4-4.46,1.2-6.3c0.8-1.84,1.87-3.4,3.21-4.68
		c1.34-1.28,2.88-2.26,4.62-2.94c1.74-0.68,3.53-1.02,5.37-1.02c2.68,0,4.89,0.54,6.63,1.61c1.74,1.07,3.23,2.35,4.47,3.85v-4.8
		h7.26v25.22C339.19,66.62,337.71,70.73,334.75,73.33z M331.3,46.48c-0.5-1.09-1.17-2.02-2.01-2.77s-1.83-1.34-2.97-1.76
		s-2.33-0.63-3.57-0.63c-1.28,0-2.46,0.21-3.54,0.63c-1.08,0.42-2.03,1-2.85,1.76c-0.82,0.76-1.46,1.67-1.92,2.74
		c-0.46,1.07-0.69,2.27-0.69,3.58c0,1.31,0.24,2.5,0.72,3.58c0.48,1.07,1.12,2,1.92,2.77c0.8,0.77,1.75,1.37,2.85,1.79
		c1.1,0.42,2.27,0.63,3.51,0.63c1.24,0,2.43-0.21,3.57-0.63c1.14-0.42,2.13-1.01,2.97-1.79c0.84-0.77,1.51-1.69,2.01-2.74
		c0.5-1.05,0.75-2.24,0.75-3.55C332.05,48.78,331.8,47.58,331.3,46.48z"/>
	<path class="st0" d="M362.41,68.4c-0.64,1.64-1.3,3.02-1.98,4.14c-0.68,1.12-1.44,2.03-2.28,2.73c-0.84,0.7-1.76,1.21-2.76,1.53
		c-1,0.32-2.14,0.48-3.42,0.48c-1.52,0-2.87-0.17-4.05-0.52c-1.18-0.34-2.33-0.82-3.45-1.42l2.46-5.44
		c0.68,0.36,1.37,0.65,2.07,0.87c0.7,0.22,1.43,0.33,2.19,0.33c1.04,0,1.9-0.26,2.58-0.78c0.68-0.52,1.32-1.48,1.92-2.88
		L342.48,35.8h7.74l9.01,23.54l8.23-23.54h7.57L362.41,68.4z"/>
	<path class="st0" d="M399.78,38.63c0.28,0.6,0.79,1.16,1.53,1.68c0.74,0.52,1.77,1,3.07,1.44c1.3,0.44,2.96,0.9,4.97,1.38
		c2.21,0.56,4.16,1.18,5.87,1.86c1.71,0.68,3.12,1.51,4.24,2.49c1.12,0.98,1.98,2.12,2.56,3.42c0.58,1.3,0.87,2.83,0.87,4.59
		c0,2-0.37,3.78-1.1,5.34c-0.73,1.56-1.76,2.88-3.07,3.96c-1.31,1.08-2.88,1.9-4.72,2.46s-3.86,0.84-6.06,0.84
		c-3.24,0-6.34-0.55-9.31-1.65c-2.96-1.1-5.7-2.79-8.23-5.07l4.44-5.28c2.04,1.76,4.1,3.11,6.18,4.05c2.08,0.94,4.44,1.41,7.09,1.41
		c2.28,0,4.09-0.48,5.43-1.44c1.34-0.96,2.01-2.26,2.01-3.9c0-0.76-0.13-1.44-0.39-2.04c-0.26-0.6-0.74-1.15-1.45-1.65
		c-0.7-0.5-1.67-0.97-2.89-1.41c-1.22-0.44-2.82-0.9-4.79-1.38c-2.25-0.52-4.24-1.1-5.99-1.74c-1.75-0.64-3.21-1.44-4.39-2.4
		c-1.18-0.96-2.09-2.12-2.71-3.48c-0.62-1.36-0.93-3.02-0.93-4.98c0-1.84,0.36-3.51,1.07-5.01c0.71-1.5,1.7-2.79,2.95-3.87
		c1.25-1.08,2.75-1.91,4.51-2.49c1.76-0.58,3.68-0.87,5.76-0.87c3.08,0,5.85,0.45,8.32,1.35c2.46,0.9,4.77,2.21,6.93,3.93
		l-3.96,5.58c-1.92-1.4-3.82-2.47-5.7-3.21c-1.88-0.74-3.78-1.11-5.7-1.11c-2.16,0-3.84,0.49-5.04,1.47c-1.2,0.98-1.8,2.17-1.8,3.57
		C399.36,37.3,399.5,38.02,399.78,38.63z"/>
	<path class="st0" d="M435.24,60.21c1.64,1.38,3.64,2.07,6,2.07c1.8,0,3.36-0.32,4.68-0.96c1.32-0.64,2.62-1.58,3.9-2.82l4.26,3.78
		c-1.52,1.8-3.33,3.24-5.43,4.32c-2.1,1.08-4.61,1.62-7.54,1.62c-2.28,0-4.41-0.4-6.39-1.2c-1.98-0.8-3.7-1.92-5.16-3.36
		c-1.46-1.44-2.61-3.17-3.45-5.19c-0.84-2.02-1.26-4.27-1.26-6.75c0-2.28,0.38-4.42,1.14-6.42c0.76-2,1.83-3.75,3.21-5.25
		c1.38-1.5,3.01-2.69,4.89-3.57c1.88-0.88,3.96-1.32,6.24-1.32c2.52,0,4.73,0.46,6.64,1.38c1.9,0.92,3.48,2.16,4.74,3.72
		c1.26,1.56,2.21,3.38,2.85,5.46c0.64,2.08,0.96,4.26,0.96,6.54c0,0.32-0.01,0.64-0.03,0.96c-0.02,0.32-0.05,0.66-0.09,1.02h-23.3
		C432.56,56.84,433.6,58.83,435.24,60.21z M448.33,49.43c-0.12-1.16-0.38-2.25-0.78-3.27c-0.4-1.02-0.94-1.9-1.62-2.64
		c-0.68-0.74-1.49-1.33-2.43-1.77c-0.94-0.44-2.01-0.66-3.21-0.66c-2.24,0-4.09,0.77-5.55,2.31c-1.46,1.54-2.35,3.55-2.67,6.03
		H448.33z"/>
	<path class="st0" d="M466.01,67.5h-7.32V35.8h7.32v7.14c1-2.4,2.42-4.32,4.26-5.76c1.84-1.44,4.16-2.1,6.96-1.98v7.68h-0.42
		c-1.6,0-3.06,0.26-4.38,0.78c-1.32,0.52-2.46,1.3-3.42,2.34c-0.96,1.04-1.7,2.35-2.22,3.93c-0.52,1.58-0.78,3.41-0.78,5.49V67.5z"
		/>
	<path class="st0" d="M505.4,35.8h7.62l-12.97,31.94h-6.54L480.48,35.8h7.81l8.53,23.3L505.4,35.8z"/>
	<path class="st0" d="M516.55,30.94v-6.9h7.86v6.9H516.55z M516.85,67.5V35.8h7.33v31.7H516.85z"/>
	<path class="st0" d="M551.77,66.57c-2,1.1-4.54,1.65-7.62,1.65c-2.36,0-4.54-0.43-6.55-1.29c-2-0.86-3.74-2.04-5.21-3.54
		c-1.47-1.5-2.62-3.24-3.45-5.22c-0.83-1.98-1.24-4.11-1.24-6.39c0-2.28,0.41-4.42,1.24-6.42c0.83-2,1.98-3.76,3.45-5.28
		c1.47-1.52,3.22-2.72,5.24-3.6c2.02-0.88,4.21-1.32,6.58-1.32c3,0,5.49,0.5,7.47,1.5c1.98,1,3.71,2.32,5.19,3.96l-4.5,4.86
		c-1.12-1.16-2.31-2.11-3.57-2.85c-1.26-0.74-2.81-1.11-4.65-1.11c-1.32,0-2.54,0.27-3.66,0.81c-1.12,0.54-2.08,1.27-2.88,2.19
		c-0.8,0.92-1.43,1.99-1.89,3.21c-0.46,1.22-0.69,2.53-0.69,3.93c0,1.44,0.23,2.78,0.69,4.02c0.46,1.24,1.11,2.32,1.95,3.24
		c0.84,0.92,1.84,1.65,3,2.19c1.16,0.54,2.44,0.81,3.84,0.81c1.72,0,3.23-0.37,4.53-1.11c1.3-0.74,2.53-1.69,3.69-2.85l4.38,4.32
		C555.55,64.04,553.77,65.47,551.77,66.57z"/>
	<path class="st0" d="M568.68,60.21c1.64,1.38,3.64,2.07,6,2.07c1.8,0,3.36-0.32,4.68-0.96c1.32-0.64,2.62-1.58,3.9-2.82l4.26,3.78
		c-1.52,1.8-3.33,3.24-5.43,4.32c-2.1,1.08-4.61,1.62-7.54,1.62c-2.28,0-4.41-0.4-6.39-1.2c-1.98-0.8-3.7-1.92-5.16-3.36
		c-1.46-1.44-2.61-3.17-3.45-5.19c-0.84-2.02-1.26-4.27-1.26-6.75c0-2.28,0.38-4.42,1.14-6.42c0.76-2,1.83-3.75,3.21-5.25
		c1.38-1.5,3.01-2.69,4.89-3.57c1.88-0.88,3.96-1.32,6.24-1.32c2.52,0,4.73,0.46,6.63,1.38c1.9,0.92,3.48,2.16,4.74,3.72
		c1.26,1.56,2.21,3.38,2.85,5.46c0.64,2.08,0.96,4.26,0.96,6.54c0,0.32-0.01,0.64-0.03,0.96c-0.02,0.32-0.05,0.66-0.09,1.02h-23.29
		C566,56.84,567.04,58.83,568.68,60.21z M581.77,49.43c-0.12-1.16-0.38-2.25-0.78-3.27c-0.4-1.02-0.94-1.9-1.62-2.64
		c-0.68-0.74-1.49-1.33-2.43-1.77c-0.94-0.44-2.01-0.66-3.21-0.66c-2.24,0-4.09,0.77-5.55,2.31c-1.46,1.54-2.35,3.55-2.67,6.03
		H581.77z"/>
	<path class="st0" d="M613.87,62.52c-0.6,1.24-1.43,2.27-2.49,3.09c-1.06,0.82-2.31,1.44-3.75,1.86c-1.44,0.42-2.98,0.63-4.62,0.63
		c-2.28,0-4.59-0.4-6.93-1.2c-2.34-0.8-4.51-1.98-6.51-3.54l3.24-4.92c1.72,1.28,3.47,2.25,5.25,2.91c1.78,0.66,3.49,0.99,5.13,0.99
		c1.56,0,2.77-0.31,3.63-0.93c0.86-0.62,1.29-1.45,1.29-2.49V58.8c0-0.6-0.19-1.12-0.57-1.56c-0.38-0.44-0.9-0.83-1.56-1.17
		c-0.66-0.34-1.42-0.64-2.28-0.9c-0.86-0.26-1.75-0.53-2.67-0.81c-1.16-0.36-2.33-0.76-3.51-1.2c-1.18-0.44-2.24-1.01-3.18-1.71
		c-0.94-0.7-1.71-1.56-2.31-2.58c-0.6-1.02-0.9-2.29-0.9-3.81v-0.12c0-1.48,0.29-2.82,0.87-4.02c0.58-1.2,1.38-2.22,2.4-3.06
		c1.02-0.84,2.22-1.48,3.6-1.92c1.38-0.44,2.85-0.66,4.41-0.66c2,0,4.02,0.32,6.06,0.96c2.04,0.64,3.9,1.52,5.58,2.64l-2.88,5.16
		c-1.52-0.92-3.06-1.65-4.62-2.19c-1.56-0.54-3-0.81-4.32-0.81c-1.4,0-2.49,0.3-3.27,0.9c-0.78,0.6-1.17,1.36-1.17,2.28v0.12
		c0,0.56,0.2,1.05,0.6,1.47c0.4,0.42,0.93,0.8,1.59,1.14c0.66,0.34,1.42,0.66,2.28,0.96c0.86,0.3,1.75,0.59,2.67,0.87
		c1.16,0.36,2.32,0.78,3.48,1.26c1.16,0.48,2.21,1.07,3.15,1.77c0.94,0.7,1.71,1.55,2.31,2.55c0.6,1,0.9,2.22,0.9,3.66v0.12
		C614.77,59.82,614.47,61.28,613.87,62.52z"/>
	<path class="st0" d="M641.81,25.48V67.5h-7.32V25.48H641.81z"/>
	<path class="st0" d="M654.03,67.5h-7.32V35.8h7.32v4.97c0.52-0.77,1.09-1.48,1.71-2.15c0.62-0.67,1.34-1.26,2.15-1.79
		c0.82-0.52,1.72-0.94,2.69-1.24c0.98-0.3,2.09-0.45,3.32-0.45c3.59,0,6.37,1.1,8.32,3.3c1.96,2.2,2.93,5.16,2.93,8.89V67.5h-7.33
		V49.53c0-2.48-0.58-4.38-1.76-5.72c-1.17-1.34-2.83-2.01-4.97-2.01c-2.1,0-3.81,0.69-5.12,2.07c-1.31,1.38-1.96,3.3-1.96,5.78V67.5
		z"/>
	<path class="st0" d="M703.6,77.11V62.22c-1.16,1.64-2.61,3.04-4.34,4.2c-1.74,1.16-3.88,1.74-6.44,1.74
		c-1.88,0-3.69-0.36-5.45-1.08c-1.76-0.72-3.31-1.79-4.67-3.21c-1.36-1.42-2.46-3.15-3.29-5.19c-0.84-2.04-1.26-4.38-1.26-7.02
		c0-2.64,0.41-4.98,1.23-7.02c0.82-2.04,1.91-3.77,3.26-5.19c1.36-1.42,2.92-2.49,4.7-3.21c1.78-0.72,3.6-1.08,5.48-1.08
		c2.59,0,4.75,0.56,6.47,1.68c1.72,1.12,3.15,2.42,4.31,3.9V35.8h7.33v41.31H703.6z M702.97,47.45c-0.5-1.24-1.17-2.31-2.01-3.21
		c-0.84-0.9-1.82-1.59-2.93-2.07c-1.12-0.48-2.27-0.72-3.47-0.72c-1.24,0-2.4,0.23-3.5,0.69c-1.1,0.46-2.06,1.13-2.9,2.01
		c-0.84,0.88-1.5,1.95-1.97,3.21c-0.48,1.26-0.72,2.69-0.72,4.29c0,1.56,0.24,2.97,0.72,4.23c0.48,1.26,1.14,2.33,1.97,3.21
		c0.84,0.88,1.81,1.56,2.9,2.04c1.1,0.48,2.27,0.72,3.5,0.72c1.2,0,2.35-0.24,3.47-0.72c1.12-0.48,2.09-1.17,2.93-2.07
		c0.84-0.9,1.51-1.97,2.01-3.21c0.5-1.24,0.75-2.64,0.75-4.2C703.72,50.09,703.47,48.69,702.97,47.45z"/>
	<path class="st0" d="M736.59,35.8h7.32v31.7h-7.32v-4.97c-1.04,1.53-2.33,2.86-3.89,3.97c-1.56,1.11-3.55,1.67-5.99,1.67
		c-3.59,0-6.37-1.1-8.32-3.3c-1.96-2.2-2.93-5.16-2.93-8.89V35.8h7.32v17.97c0,2.48,0.59,4.38,1.76,5.72
		c1.17,1.34,2.83,2.01,4.97,2.01c2.1,0,3.81-0.69,5.12-2.07c1.31-1.38,1.96-3.3,1.96-5.78V35.8z"/>
	<path class="st0" d="M749,30.94v-6.9h7.86v6.9H749z M749.3,67.5V35.8h7.32v31.7H749.3z"/>
	<path class="st0" d="M769.21,67.5h-7.32V35.8h7.32v7.14c1-2.4,2.42-4.32,4.26-5.76c1.84-1.44,4.16-2.1,6.96-1.98v7.68h-0.42
		c-1.6,0-3.06,0.26-4.38,0.78c-1.32,0.52-2.46,1.3-3.42,2.34c-0.96,1.04-1.7,2.35-2.22,3.93c-0.52,1.58-0.78,3.41-0.78,5.49V67.5z"
		/>
	<path class="st0" d="M803.61,68.4c-0.64,1.64-1.3,3.02-1.98,4.14c-0.68,1.12-1.44,2.03-2.28,2.73c-0.84,0.7-1.76,1.21-2.76,1.53
		c-1,0.32-2.14,0.48-3.42,0.48c-1.52,0-2.87-0.17-4.05-0.52c-1.18-0.34-2.33-0.82-3.45-1.42l2.46-5.44
		c0.68,0.36,1.37,0.65,2.07,0.87c0.7,0.22,1.43,0.33,2.19,0.33c1.04,0,1.9-0.26,2.58-0.78c0.68-0.52,1.32-1.48,1.92-2.88
		L783.68,35.8h7.75l9.01,23.54l8.22-23.54h7.57L803.61,68.4z"/>
</g>
<g>
	<ellipse class="st1" cx="69.46" cy="50.3" rx="69.46" ry="50.3"/>
	<g>
		<g>
			<path class="st2" d="M56.41,84.08c-3.21-2.41-5.12-6.23-6.23-10.14c-0.2-0.8-0.4-1.71-0.5-2.61c-0.8-4.82-0.5-9.84-0.5-14.76
				V24.12c0.4-7.43,8.64-7.13,8.64-7.13v-1.41H31.6v1.41c0,0,6.73-0.3,8.34,5.22c0.1,0.7,0.2,1.41,0.2,2.01v38.57
				c0,2.81,0.1,5.62,0.6,8.44c0.4,2.11,1,4.22,1.81,6.23c1,2.41,2.31,4.62,4.02,6.43c1.91,2.21,4.22,3.92,6.93,5.02
				c3.11,1.41,6.53,1.91,9.94,2.01c1.61,0,3.31-0.1,5.02-0.3c0.2,0,2.01-0.3,3.31-0.6V88.3C71.78,88.3,62.64,89,56.41,84.08z"/>
			<path class="st2" d="M98.92,71.02c0,1.81-0.1,3.62-0.5,5.42c-1,4.42-3.51,8.24-7.23,10.75c-2.81,1.91-6.13,3.11-9.54,3.62
				c-0.1,0.1-0.3,0.1-0.5,0.1V88.4c5.02-1.71,7.73-6.73,8.54-11.85c1.51-10.04-12.05-18.28-23.3-24.71
				c-11.35-6.53-11.35-16.87-11.35-16.87c-0.2-3.51,0.2-7.03,1.71-10.24c1.61-3.31,4.32-5.93,7.63-7.43
				c2.41-1.21,5.02-1.81,7.63-2.11h0.3v2.11c-1.51,0.3-2.91,0.9-4.22,1.81c-1.41,1-2.61,2.31-3.62,3.72
				c-0.1,0-9.34,12.75,13.36,23.9C91.49,53.35,98.92,62.59,98.92,71.02z"/>
			<g>
				<path class="st2" d="M98.78,24.26c0-0.6,0.1-1.31,0.2-2.01c1.61-5.52,8.34-5.22,8.34-5.22v-1.41H81.11v1.41
					c0,0,8.24-0.3,8.64,7.13V48.4h9.04V24.26z"/>
			</g>
		</g>
	</g>
</g>
</svg>
