<?xml version="1.0" encoding="utf-8"?>
<!-- Generator: Adobe Illustrator 25.2.1, SVG Export Plug-In . SVG Version: 6.00 Build 0)  -->
<svg version="1.1" id="Layer_1" xmlns="http://www.w3.org/2000/svg" xmlns:xlink="http://www.w3.org/1999/xlink" x="0px" y="0px"
	 viewBox="0 0 707.69 133.65" style="enable-background:new 0 0 707.69 133.65;" xml:space="preserve">
<style type="text/css">
	.st0{fill-rule:evenodd;clip-rule:evenodd;fill:#0369A6;}
	.st1{fill-rule:evenodd;clip-rule:evenodd;fill:#4E4E4E;}
	.st2{fill:#0369A6;}
	.st3{fill:#4E4E4E;}
</style>
<g>
	<polygon class="st0" points="105.44,94.29 57.87,121.75 10.3,94.29 10.3,39.36 57.87,11.9 77.14,23.02 77.48,11.32 57.87,0 
		28.93,16.71 0,33.41 0,66.82 0,100.24 28.93,116.94 57.87,133.65 86.81,116.94 115.74,100.24 115.74,66.82 115.74,33.41 
		105.47,27.48 105.44,27.46 105.44,39.36 105.44,58.07 105.44,94.29 	"/>
	<polygon class="st1" points="40.14,104.39 53.86,112.28 53.86,54.26 40.14,46.21 40.14,104.39 	"/>
	<polygon class="st1" points="17.49,91.32 32.25,99.81 32.25,77.87 17.49,69.08 17.49,91.32 	"/>
	<polygon class="st1" points="75.74,104.39 62.02,112.28 62.02,24.16 75.74,32.17 75.74,104.39 	"/>
	<polygon class="st1" points="98.38,91.32 83.63,99.81 83.63,14.84 98.38,24.1 98.38,91.32 	"/>
</g>
<g>
	<path class="st2" d="M144.59,111.47V65.24h26.55v4.72H149.3v16.05h17.98v4.69H149.3v20.77H144.59z"/>
	<path class="st2" d="M175.27,70.22v-5.3h4.72v5.3H175.27z M175.27,111.47V76.8h4.72v34.67H175.27z"/>
	<path class="st2" d="M200.27,112.4c-4.07,0-7.41-0.88-10.03-2.63c-2.62-1.75-4.23-4.19-4.83-7.32l4.81-0.8
		c0.51,1.97,1.69,3.54,3.51,4.7c1.83,1.17,4.09,1.75,6.79,1.75c2.63,0,4.71-0.55,6.23-1.65c1.52-1.1,2.28-2.6,2.28-4.51
		c0-1.07-0.24-1.94-0.72-2.62c-0.48-0.67-1.46-1.3-2.94-1.88c-1.48-0.58-3.68-1.26-6.61-2.05c-3.15-0.86-5.61-1.71-7.38-2.57
		c-1.78-0.86-3.04-1.85-3.79-2.97c-0.75-1.12-1.12-2.5-1.12-4.13c0-1.97,0.56-3.7,1.67-5.18c1.11-1.49,2.65-2.64,4.62-3.47
		s4.26-1.24,6.87-1.24s4.95,0.42,7.01,1.27c2.06,0.85,3.73,2.03,4.99,3.55c1.26,1.52,2.01,3.29,2.25,5.3l-4.82,0.87
		c-0.32-2.03-1.33-3.64-3.03-4.83c-1.7-1.19-3.86-1.8-6.47-1.85c-2.46-0.06-4.46,0.4-6,1.4c-1.54,1-2.31,2.32-2.31,3.96
		c0,0.92,0.28,1.71,0.83,2.36c0.56,0.65,1.57,1.27,3.03,1.85c1.47,0.58,3.56,1.21,6.28,1.89c3.19,0.81,5.69,1.67,7.51,2.57
		c1.82,0.9,3.11,1.96,3.88,3.18c0.77,1.22,1.16,2.73,1.16,4.53c0,3.27-1.21,5.85-3.64,7.72C207.88,111.46,204.53,112.4,200.27,112.4
		z"/>
	<path class="st2" d="M233.14,112.43c-3.49,0-6.44-0.78-8.86-2.34c-2.42-1.56-4.25-3.72-5.5-6.47c-1.25-2.75-1.9-5.91-1.94-9.49
		c0.04-3.64,0.71-6.83,1.99-9.58c1.28-2.75,3.14-4.89,5.55-6.42c2.42-1.53,5.35-2.3,8.8-2.3c3.51,0,6.56,0.86,9.16,2.57
		c2.6,1.71,4.38,4.06,5.35,7.03l-4.62,1.48c-0.81-2.08-2.1-3.69-3.87-4.83c-1.77-1.14-3.78-1.72-6.05-1.72
		c-2.55,0-4.65,0.58-6.32,1.75c-1.67,1.17-2.91,2.79-3.72,4.86c-0.81,2.08-1.23,4.46-1.25,7.16c0.04,4.15,1.01,7.48,2.89,10
		c1.88,2.52,4.69,3.77,8.41,3.77c2.35,0,4.36-0.54,6.02-1.62c1.66-1.08,2.92-2.66,3.77-4.73l4.75,1.41
		c-1.28,3.08-3.17,5.43-5.65,7.05C239.55,111.62,236.59,112.43,233.14,112.43z"/>
	<path class="st2" d="M261.71,112.43c-2.61,0-4.8-0.47-6.56-1.41c-1.77-0.94-3.09-2.19-3.96-3.76c-0.88-1.56-1.32-3.26-1.32-5.1
		c0-1.88,0.38-3.49,1.14-4.83c0.76-1.34,1.8-2.43,3.11-3.29c1.32-0.86,2.84-1.51,4.57-1.96c1.75-0.43,3.7-0.81,5.83-1.14
		c2.13-0.33,4.22-0.62,6.26-0.87c2.04-0.25,3.84-0.49,5.38-0.72l-1.67,1.03c0.06-3.42-0.6-5.96-1.99-7.61
		c-1.39-1.65-3.81-2.47-7.25-2.47c-2.38,0-4.38,0.54-6.02,1.61c-1.64,1.07-2.79,2.76-3.45,5.07l-4.59-1.35
		c0.79-3.1,2.39-5.51,4.78-7.22c2.4-1.71,5.51-2.57,9.34-2.57c3.17,0,5.86,0.59,8.07,1.78c2.21,1.19,3.78,2.91,4.7,5.15
		c0.43,1.01,0.71,2.13,0.83,3.37c0.13,1.24,0.19,2.5,0.19,3.79v21.54h-4.2v-8.7l1.22,0.51c-1.18,2.97-3.01,5.24-5.49,6.81
		C268.15,111.65,265.18,112.43,261.71,112.43z M262.25,108.35c2.2,0,4.13-0.4,5.78-1.19c1.65-0.79,2.97-1.88,3.98-3.26
		c1.01-1.38,1.66-2.94,1.96-4.67c0.26-1.11,0.4-2.34,0.42-3.68c0.02-1.34,0.03-2.34,0.03-3l1.8,0.93c-1.61,0.21-3.34,0.43-5.22,0.64
		c-1.87,0.21-3.71,0.46-5.52,0.74c-1.81,0.28-3.44,0.61-4.9,1c-0.98,0.28-1.94,0.67-2.86,1.17c-0.92,0.5-1.67,1.17-2.26,2.01
		c-0.59,0.83-0.88,1.87-0.88,3.11c0,1.01,0.25,1.98,0.75,2.92c0.5,0.94,1.32,1.72,2.44,2.34
		C258.9,108.04,260.39,108.35,262.25,108.35z"/>
	<path class="st2" d="M284.67,111.47V64.28h4.72v47.19H284.67z"/>
	<path class="st2" d="M327.15,112.43c-4.6,0-8.49-1.02-11.65-3.07c-3.17-2.04-5.56-4.87-7.19-8.49c-1.63-3.62-2.44-7.79-2.44-12.52
		c0-4.73,0.81-8.9,2.44-12.52c1.63-3.62,4.02-6.45,7.19-8.49c3.17-2.04,7.05-3.07,11.65-3.07c5.37,0,9.76,1.38,13.16,4.12
		c3.4,2.75,5.73,6.44,7,11.06l-4.82,1.25c-0.98-3.66-2.75-6.56-5.3-8.7c-2.55-2.14-5.9-3.21-10.05-3.21c-3.62,0-6.62,0.82-9.02,2.47
		c-2.4,1.65-4.2,3.94-5.41,6.89c-1.21,2.94-1.84,6.34-1.88,10.19c-0.02,3.85,0.57,7.24,1.78,10.18c1.21,2.93,3.03,5.23,5.46,6.89
		c2.43,1.66,5.45,2.49,9.07,2.49c4.15,0,7.5-1.07,10.05-3.23c2.55-2.15,4.31-5.04,5.3-8.68l4.82,1.25c-1.26,4.62-3.6,8.31-7,11.06
		C336.91,111.06,332.52,112.43,327.15,112.43z"/>
	<path class="st2" d="M366.57,112.43c-3.45,0-6.39-0.78-8.83-2.34s-4.31-3.72-5.62-6.48c-1.31-2.76-1.96-5.93-1.96-9.5
		c0-3.64,0.66-6.83,1.99-9.57c1.33-2.74,3.22-4.87,5.67-6.4c2.45-1.53,5.37-2.3,8.75-2.3c3.47,0,6.42,0.78,8.88,2.33
		c2.45,1.55,4.32,3.7,5.62,6.45c1.29,2.75,1.94,5.91,1.94,9.49c0,3.64-0.65,6.83-1.96,9.58c-1.31,2.75-3.19,4.9-5.65,6.44
		C372.93,111.66,369.99,112.43,366.57,112.43z M366.57,107.9c3.85,0,6.72-1.28,8.6-3.84c1.88-2.56,2.82-5.88,2.82-9.97
		c0-4.19-0.95-7.53-2.84-10.02c-1.89-2.48-4.76-3.72-8.59-3.72c-2.59,0-4.72,0.58-6.4,1.75c-1.68,1.17-2.93,2.78-3.76,4.85
		c-0.82,2.07-1.24,4.45-1.24,7.14c0,4.17,0.96,7.52,2.89,10.03C359.99,106.65,362.82,107.9,366.57,107.9z"/>
	<path class="st2" d="M386.61,111.47V76.8h4.24v8.54h0.51v26.13H386.61z M407.35,111.47l0.03-22.44c0-2.76-0.74-4.94-2.2-6.53
		c-1.47-1.59-3.4-2.39-5.79-2.39c-2.4,0-4.33,0.82-5.81,2.46c-1.48,1.64-2.21,3.82-2.21,6.53l-2.82-1.54c0-2.23,0.52-4.22,1.57-5.99
		c1.05-1.77,2.48-3.16,4.3-4.17c1.82-1.02,3.89-1.52,6.2-1.52c2.21,0,4.17,0.47,5.89,1.41c1.72,0.94,3.08,2.31,4.06,4.11
		c0.98,1.8,1.48,3.98,1.48,6.55L412,111.47H407.35z M427.99,111.47l0.03-22.76c0-2.67-0.74-4.78-2.23-6.31
		c-1.49-1.53-3.38-2.3-5.67-2.3c-1.31,0-2.58,0.3-3.82,0.9c-1.24,0.6-2.26,1.56-3.07,2.89c-0.8,1.33-1.2,3.06-1.2,5.2l-2.79-0.8
		c-0.06-2.48,0.42-4.65,1.46-6.52c1.04-1.86,2.47-3.31,4.3-4.35c1.83-1.04,3.9-1.56,6.21-1.56c3.49,0,6.28,1.08,8.38,3.23
		c2.1,2.15,3.15,5.06,3.15,8.72l-0.03,23.66H427.99z"/>
	<path class="st2" d="M437.63,111.47V76.8h4.24v8.54h0.51v26.13H437.63z M458.37,111.47l0.03-22.44c0-2.76-0.73-4.94-2.2-6.53
		c-1.47-1.59-3.4-2.39-5.79-2.39s-4.33,0.82-5.81,2.46c-1.48,1.64-2.21,3.82-2.21,6.53l-2.82-1.54c0-2.23,0.52-4.22,1.57-5.99
		c1.05-1.77,2.48-3.16,4.3-4.17c1.82-1.02,3.88-1.52,6.2-1.52c2.2,0,4.17,0.47,5.89,1.41c1.72,0.94,3.08,2.31,4.06,4.11
		c0.98,1.8,1.48,3.98,1.48,6.55l-0.03,23.53H458.37z M479.01,111.47l0.03-22.76c0-2.67-0.74-4.78-2.23-6.31
		c-1.49-1.53-3.38-2.3-5.67-2.3c-1.31,0-2.58,0.3-3.82,0.9c-1.24,0.6-2.26,1.56-3.07,2.89c-0.8,1.33-1.2,3.06-1.2,5.2l-2.79-0.8
		c-0.06-2.48,0.42-4.65,1.46-6.52c1.04-1.86,2.47-3.31,4.3-4.35s3.9-1.56,6.21-1.56c3.49,0,6.28,1.08,8.38,3.23
		c2.1,2.15,3.15,5.06,3.15,8.72l-0.03,23.66H479.01z"/>
	<path class="st2" d="M489.32,70.22v-5.3h4.72v5.3H489.32z M489.32,111.47V76.8h4.72v34.67H489.32z"/>
	<path class="st2" d="M513.18,112.4c-4.07,0-7.41-0.88-10.03-2.63c-2.62-1.75-4.23-4.19-4.83-7.32l4.82-0.8
		c0.51,1.97,1.69,3.54,3.52,4.7c1.83,1.17,4.09,1.75,6.79,1.75c2.63,0,4.71-0.55,6.23-1.65c1.52-1.1,2.28-2.6,2.28-4.51
		c0-1.07-0.24-1.94-0.72-2.62c-0.48-0.67-1.46-1.3-2.94-1.88c-1.48-0.58-3.68-1.26-6.61-2.05c-3.15-0.86-5.61-1.71-7.38-2.57
		c-1.78-0.86-3.04-1.85-3.79-2.97c-0.75-1.12-1.12-2.5-1.12-4.13c0-1.97,0.56-3.7,1.67-5.18c1.11-1.49,2.65-2.64,4.62-3.47
		c1.97-0.82,4.26-1.24,6.87-1.24c2.61,0,4.95,0.42,7.01,1.27c2.07,0.85,3.73,2.03,4.99,3.55c1.26,1.52,2.01,3.29,2.25,5.3
		l-4.82,0.87c-0.32-2.03-1.33-3.64-3.03-4.83c-1.7-1.19-3.86-1.8-6.47-1.85c-2.46-0.06-4.46,0.4-6,1.4c-1.54,1-2.31,2.32-2.31,3.96
		c0,0.92,0.28,1.71,0.84,2.36c0.56,0.65,1.57,1.27,3.03,1.85c1.46,0.58,3.56,1.21,6.28,1.89c3.19,0.81,5.69,1.67,7.51,2.57
		c1.82,0.9,3.11,1.96,3.88,3.18c0.77,1.22,1.16,2.73,1.16,4.53c0,3.27-1.21,5.85-3.64,7.72C520.79,111.46,517.44,112.4,513.18,112.4
		z"/>
	<path class="st2" d="M544.61,112.4c-4.07,0-7.41-0.88-10.03-2.63c-2.62-1.75-4.23-4.19-4.83-7.32l4.82-0.8
		c0.51,1.97,1.69,3.54,3.52,4.7c1.83,1.17,4.09,1.75,6.79,1.75c2.63,0,4.71-0.55,6.23-1.65c1.52-1.1,2.28-2.6,2.28-4.51
		c0-1.07-0.24-1.94-0.72-2.62c-0.48-0.67-1.46-1.3-2.94-1.88c-1.48-0.58-3.68-1.26-6.61-2.05c-3.15-0.86-5.61-1.71-7.38-2.57
		c-1.78-0.86-3.04-1.85-3.79-2.97c-0.75-1.12-1.12-2.5-1.12-4.13c0-1.97,0.56-3.7,1.67-5.18c1.11-1.49,2.65-2.64,4.62-3.47
		c1.97-0.82,4.26-1.24,6.87-1.24c2.61,0,4.95,0.42,7.01,1.27c2.07,0.85,3.73,2.03,4.99,3.55c1.26,1.52,2.01,3.29,2.25,5.3
		l-4.82,0.87c-0.32-2.03-1.33-3.64-3.03-4.83c-1.7-1.19-3.86-1.8-6.47-1.85c-2.46-0.06-4.46,0.4-6,1.4c-1.54,1-2.31,2.32-2.31,3.96
		c0,0.92,0.28,1.71,0.84,2.36c0.56,0.65,1.57,1.27,3.03,1.85c1.46,0.58,3.56,1.21,6.28,1.89c3.19,0.81,5.69,1.67,7.51,2.57
		c1.82,0.9,3.11,1.96,3.88,3.18c0.77,1.22,1.16,2.73,1.16,4.53c0,3.27-1.21,5.85-3.64,7.72C552.21,111.46,548.87,112.4,544.61,112.4
		z"/>
	<path class="st2" d="M562.6,70.22v-5.3h4.72v5.3H562.6z M562.6,111.47V76.8h4.72v34.67H562.6z"/>
	<path class="st2" d="M588,112.43c-3.45,0-6.39-0.78-8.83-2.34c-2.44-1.56-4.31-3.72-5.62-6.48c-1.31-2.76-1.96-5.93-1.96-9.5
		c0-3.64,0.66-6.83,1.99-9.57c1.33-2.74,3.21-4.87,5.67-6.4s5.37-2.3,8.75-2.3c3.47,0,6.42,0.78,8.88,2.33
		c2.45,1.55,4.32,3.7,5.62,6.45c1.3,2.75,1.94,5.91,1.94,9.49c0,3.64-0.65,6.83-1.96,9.58c-1.31,2.75-3.19,4.9-5.65,6.44
		C594.36,111.66,591.42,112.43,588,112.43z M588,107.9c3.85,0,6.72-1.28,8.6-3.84c1.88-2.56,2.82-5.88,2.82-9.97
		c0-4.19-0.95-7.53-2.84-10.02c-1.89-2.48-4.76-3.72-8.59-3.72c-2.59,0-4.72,0.58-6.4,1.75c-1.68,1.17-2.93,2.78-3.76,4.85
		c-0.82,2.07-1.24,4.45-1.24,7.14c0,4.17,0.96,7.52,2.89,10.03C581.42,106.65,584.25,107.9,588,107.9z"/>
	<path class="st2" d="M608.04,111.47V76.8h4.27v8.54h0.48v26.13H608.04z M633.11,111.47V93.78c0-1.93-0.18-3.7-0.55-5.31
		c-0.36-1.62-0.95-3.03-1.75-4.24c-0.8-1.21-1.84-2.14-3.11-2.81c-1.27-0.66-2.82-1-4.64-1c-1.67,0-3.14,0.29-4.41,0.87
		c-1.27,0.58-2.34,1.41-3.21,2.49c-0.87,1.08-1.52,2.39-1.97,3.93c-0.45,1.54-0.67,3.3-0.67,5.26l-3.34-0.74
		c0-3.55,0.62-6.54,1.86-8.96c1.24-2.42,2.95-4.25,5.14-5.49c2.18-1.24,4.69-1.86,7.51-1.86c2.08,0,3.89,0.32,5.44,0.96
		c1.55,0.64,2.87,1.51,3.95,2.6c1.08,1.09,1.95,2.34,2.62,3.74c0.66,1.4,1.15,2.89,1.44,4.46s0.45,3.14,0.45,4.7v19.07H633.11z"/>
	<path class="st3" d="M654.94,111.47V65.24h8.86l20.09,30.82V65.24h8.86v46.22h-8.86L663.8,80.65v30.82H654.94z"/>
	<path class="st3" d="M698.96,111.47V65.24h8.73v46.22H698.96z"/>
	<g>
		<path class="st3" d="M153.6,46.99V23.74h-9v-2.52h20.64v2.52h-9v23.25H153.6z"/>
		<path class="st3" d="M168.08,46.99V21.22h2.38v14.55h0.27v11.22H168.08z M182.05,46.99v-9.86c0-1.07-0.1-2.06-0.3-2.96
			c-0.2-0.9-0.53-1.69-0.98-2.36c-0.45-0.67-1.03-1.2-1.74-1.57c-0.71-0.37-1.57-0.55-2.59-0.55c-0.93,0-1.75,0.16-2.46,0.48
			c-0.71,0.32-1.31,0.78-1.79,1.39c-0.48,0.6-0.85,1.33-1.1,2.19s-0.38,1.84-0.38,2.94l-1.86-0.41c0-1.98,0.35-3.64,1.04-4.99
			s1.65-2.37,2.86-3.06c1.22-0.69,2.61-1.04,4.19-1.04c1.16,0,2.17,0.18,3.03,0.54c0.87,0.36,1.6,0.84,2.2,1.45
			c0.6,0.61,1.09,1.3,1.46,2.09c0.37,0.78,0.64,1.61,0.81,2.49c0.17,0.88,0.25,1.75,0.25,2.62v10.63H182.05z"/>
		<path class="st3" d="M197.54,47.53c-1.89,0-3.52-0.42-4.89-1.25c-1.38-0.84-2.45-2.01-3.21-3.53c-0.76-1.51-1.15-3.29-1.15-5.33
			c0-2.11,0.38-3.94,1.13-5.48c0.75-1.54,1.81-2.73,3.18-3.56c1.37-0.84,2.98-1.25,4.84-1.25c1.91,0,3.54,0.44,4.89,1.32
			c1.35,0.88,2.37,2.13,3.06,3.77c0.69,1.63,1.01,3.59,0.95,5.85h-2.68v-0.93c-0.05-2.51-0.59-4.4-1.62-5.67
			c-1.03-1.28-2.54-1.91-4.52-1.91c-2.08,0-3.67,0.67-4.77,2.02c-1.1,1.35-1.66,3.27-1.66,5.76c0,2.43,0.55,4.32,1.66,5.66
			s2.67,2.01,4.7,2.01c1.38,0,2.59-0.32,3.62-0.96c1.03-0.64,1.85-1.56,2.44-2.77l2.45,0.95c-0.76,1.68-1.89,2.99-3.37,3.91
			C201.09,47.06,199.41,47.53,197.54,47.53z M190.14,38.06v-2.2h14.76v2.2H190.14z"/>
		<path class="st3" d="M217.79,46.99V21.22h2.63v25.77H217.79z"/>
		<path class="st3" d="M225.78,46.99V27.66h2.38v4.76h0.27v14.57H225.78z M239.76,46.99v-9.86c0-1.07-0.1-2.06-0.3-2.96
			c-0.2-0.9-0.53-1.69-0.98-2.36c-0.45-0.67-1.03-1.2-1.74-1.57c-0.71-0.37-1.57-0.55-2.59-0.55c-0.93,0-1.75,0.16-2.46,0.48
			c-0.71,0.32-1.31,0.78-1.79,1.39c-0.48,0.6-0.85,1.33-1.1,2.19s-0.38,1.84-0.38,2.94l-1.86-0.41c0-1.98,0.35-3.64,1.04-4.99
			c0.69-1.35,1.65-2.37,2.86-3.06c1.22-0.69,2.61-1.04,4.19-1.04c1.16,0,2.17,0.18,3.03,0.54c0.87,0.36,1.6,0.84,2.2,1.45
			s1.09,1.3,1.46,2.09c0.37,0.78,0.64,1.61,0.81,2.49c0.17,0.88,0.25,1.75,0.25,2.62v10.63H239.76z"/>
		<path class="st3" d="M254.43,47.53c-1.8,0-3.34-0.45-4.62-1.35c-1.28-0.9-2.26-2.12-2.94-3.66c-0.68-1.54-1.02-3.28-1.02-5.21
			c0-1.92,0.34-3.65,1.01-5.19c0.67-1.54,1.64-2.76,2.91-3.65c1.26-0.89,2.78-1.34,4.55-1.34c1.81,0,3.34,0.44,4.58,1.32
			c1.24,0.88,2.18,2.09,2.82,3.62s0.96,3.28,0.96,5.23c0,1.92-0.32,3.65-0.95,5.2c-0.63,1.55-1.56,2.77-2.79,3.67
			C257.71,47.08,256.21,47.53,254.43,47.53z M254.7,45.07c1.37,0,2.51-0.33,3.4-1c0.89-0.67,1.56-1.59,2-2.77
			c0.44-1.18,0.66-2.51,0.66-4c0-1.51-0.22-2.85-0.66-4.02c-0.44-1.16-1.11-2.07-2-2.73c-0.89-0.66-2.01-0.98-3.36-0.98
			c-1.38,0-2.53,0.34-3.44,1.02c-0.91,0.68-1.58,1.6-2.01,2.77c-0.44,1.17-0.65,2.48-0.65,3.94c0,1.47,0.22,2.79,0.67,3.96
			c0.45,1.18,1.12,2.1,2.01,2.78S253.35,45.07,254.7,45.07z M260.77,46.99V32.44h-0.29V21.22h2.65v25.77H260.77z"/>
		<path class="st3" d="M276.32,47.53c-1.89,0-3.52-0.42-4.89-1.25c-1.38-0.84-2.45-2.01-3.21-3.53c-0.76-1.51-1.15-3.29-1.15-5.33
			c0-2.11,0.38-3.94,1.13-5.48c0.75-1.54,1.81-2.73,3.18-3.56c1.37-0.84,2.98-1.25,4.84-1.25c1.91,0,3.54,0.44,4.89,1.32
			c1.35,0.88,2.37,2.13,3.06,3.77c0.69,1.63,1.01,3.59,0.95,5.85h-2.68v-0.93c-0.05-2.51-0.59-4.4-1.62-5.67
			c-1.03-1.28-2.54-1.91-4.52-1.91c-2.08,0-3.67,0.67-4.77,2.02c-1.1,1.35-1.66,3.27-1.66,5.76c0,2.43,0.55,4.32,1.66,5.66
			s2.67,2.01,4.7,2.01c1.38,0,2.59-0.32,3.62-0.96c1.03-0.64,1.85-1.56,2.44-2.77l2.45,0.95c-0.76,1.68-1.89,2.99-3.37,3.91
			C279.87,47.06,278.19,47.53,276.32,47.53z M268.93,38.06v-2.2h14.76v2.2H268.93z"/>
		<path class="st3" d="M288.51,55.58V27.66h2.36v14.55h0.29v13.37H288.51z M297.2,47.53c-1.78,0-3.28-0.45-4.51-1.35
			c-1.23-0.9-2.16-2.12-2.79-3.67c-0.63-1.55-0.95-3.28-0.95-5.2c0-1.96,0.32-3.7,0.96-5.23s1.58-2.74,2.82-3.62
			c1.24-0.88,2.77-1.32,4.58-1.32c1.77,0,3.28,0.45,4.55,1.34c1.26,0.89,2.23,2.11,2.91,3.65c0.67,1.54,1.01,3.27,1.01,5.19
			c0,1.93-0.34,3.67-1.02,5.21c-0.68,1.54-1.66,2.76-2.94,3.66C300.55,47.08,299.01,47.53,297.2,47.53z M296.94,45.07
			c1.35,0,2.47-0.34,3.36-1.02s1.57-1.61,2.01-2.78c0.45-1.17,0.67-2.5,0.67-3.96c0-1.45-0.22-2.77-0.66-3.94
			c-0.44-1.17-1.11-2.09-2.01-2.77c-0.9-0.68-2.04-1.02-3.43-1.02c-1.35,0-2.47,0.33-3.36,0.98c-0.89,0.66-1.55,1.57-2,2.73
			c-0.44,1.16-0.66,2.5-0.66,4.02c0,1.49,0.22,2.83,0.66,4c0.44,1.17,1.11,2.1,2,2.77C294.43,44.74,295.56,45.07,296.94,45.07z"/>
		<path class="st3" d="M317.89,47.53c-1.89,0-3.52-0.42-4.89-1.25c-1.38-0.84-2.45-2.01-3.21-3.53c-0.76-1.51-1.15-3.29-1.15-5.33
			c0-2.11,0.38-3.94,1.13-5.48c0.75-1.54,1.81-2.73,3.18-3.56c1.37-0.84,2.98-1.25,4.84-1.25c1.91,0,3.54,0.44,4.89,1.32
			c1.35,0.88,2.37,2.13,3.06,3.77c0.69,1.63,1.01,3.59,0.95,5.85H324v-0.93c-0.05-2.51-0.59-4.4-1.62-5.67
			c-1.03-1.28-2.54-1.91-4.52-1.91c-2.08,0-3.67,0.67-4.77,2.02c-1.1,1.35-1.66,3.27-1.66,5.76c0,2.43,0.55,4.32,1.66,5.66
			s2.67,2.01,4.7,2.01c1.38,0,2.59-0.32,3.62-0.96c1.03-0.64,1.85-1.56,2.44-2.77l2.45,0.95c-0.76,1.68-1.89,2.99-3.37,3.91
			C321.45,47.06,319.77,47.53,317.89,47.53z M310.5,38.06v-2.2h14.76v2.2H310.5z"/>
		<path class="st3" d="M330.08,46.99V27.66h2.38v4.76h0.27v14.57H330.08z M344.06,46.99v-9.86c0-1.07-0.1-2.06-0.3-2.96
			c-0.2-0.9-0.53-1.69-0.98-2.36c-0.45-0.67-1.03-1.2-1.74-1.57c-0.71-0.37-1.57-0.55-2.59-0.55c-0.93,0-1.75,0.16-2.46,0.48
			c-0.71,0.32-1.31,0.78-1.79,1.39c-0.48,0.6-0.85,1.33-1.1,2.19s-0.38,1.84-0.38,2.94l-1.86-0.41c0-1.98,0.35-3.64,1.04-4.99
			c0.69-1.35,1.65-2.37,2.86-3.06c1.22-0.69,2.61-1.04,4.19-1.04c1.16,0,2.17,0.18,3.03,0.54c0.87,0.36,1.6,0.84,2.2,1.45
			s1.09,1.3,1.46,2.09c0.37,0.78,0.64,1.61,0.81,2.49c0.17,0.88,0.25,1.75,0.25,2.62v10.63H344.06z"/>
		<path class="st3" d="M358.74,47.53c-1.8,0-3.34-0.45-4.62-1.35c-1.28-0.9-2.26-2.12-2.94-3.66c-0.68-1.54-1.02-3.28-1.02-5.21
			c0-1.92,0.34-3.65,1.01-5.19c0.67-1.54,1.64-2.76,2.91-3.65c1.26-0.89,2.78-1.34,4.55-1.34c1.81,0,3.34,0.44,4.58,1.32
			c1.24,0.88,2.18,2.09,2.82,3.62s0.96,3.28,0.96,5.23c0,1.92-0.32,3.65-0.95,5.2c-0.63,1.55-1.56,2.77-2.79,3.67
			C362.02,47.08,360.51,47.53,358.74,47.53z M359,45.07c1.37,0,2.51-0.33,3.4-1c0.89-0.67,1.56-1.59,2-2.77
			c0.44-1.18,0.66-2.51,0.66-4c0-1.51-0.22-2.85-0.66-4.02c-0.44-1.16-1.11-2.07-2-2.73c-0.89-0.66-2.01-0.98-3.36-0.98
			c-1.38,0-2.53,0.34-3.44,1.02c-0.91,0.68-1.58,1.6-2.01,2.77c-0.44,1.17-0.65,2.48-0.65,3.94c0,1.47,0.22,2.79,0.67,3.96
			c0.45,1.18,1.12,2.1,2.01,2.78C356.53,44.73,357.66,45.07,359,45.07z M365.07,46.99V32.44h-0.29V21.22h2.65v25.77H365.07z"/>
		<path class="st3" d="M380.62,47.53c-1.89,0-3.52-0.42-4.89-1.25c-1.38-0.84-2.45-2.01-3.21-3.53c-0.76-1.51-1.15-3.29-1.15-5.33
			c0-2.11,0.38-3.94,1.13-5.48c0.75-1.54,1.81-2.73,3.18-3.56c1.37-0.84,2.98-1.25,4.84-1.25c1.91,0,3.54,0.44,4.89,1.32
			c1.35,0.88,2.37,2.13,3.06,3.77c0.69,1.63,1.01,3.59,0.95,5.85h-2.68v-0.93c-0.05-2.51-0.59-4.4-1.62-5.67
			c-1.03-1.28-2.54-1.91-4.52-1.91c-2.08,0-3.67,0.67-4.77,2.02c-1.1,1.35-1.66,3.27-1.66,5.76c0,2.43,0.55,4.32,1.66,5.66
			s2.67,2.01,4.7,2.01c1.38,0,2.59-0.32,3.62-0.96c1.03-0.64,1.85-1.56,2.44-2.77l2.45,0.95c-0.76,1.68-1.89,2.99-3.37,3.91
			C384.18,47.06,382.5,47.53,380.62,47.53z M373.23,38.06v-2.2H388v2.2H373.23z"/>
		<path class="st3" d="M392.81,46.99V27.66h2.38v4.76h0.27v14.57H392.81z M406.79,46.99v-9.86c0-1.07-0.1-2.06-0.3-2.96
			c-0.2-0.9-0.53-1.69-0.98-2.36c-0.45-0.67-1.03-1.2-1.74-1.57c-0.71-0.37-1.57-0.55-2.59-0.55c-0.93,0-1.75,0.16-2.46,0.48
			c-0.71,0.32-1.31,0.78-1.79,1.39c-0.48,0.6-0.85,1.33-1.1,2.19s-0.38,1.84-0.38,2.94l-1.86-0.41c0-1.98,0.35-3.64,1.04-4.99
			c0.69-1.35,1.65-2.37,2.86-3.06c1.22-0.69,2.61-1.04,4.19-1.04c1.16,0,2.17,0.18,3.03,0.54c0.87,0.36,1.6,0.84,2.2,1.45
			c0.6,0.61,1.09,1.3,1.46,2.09c0.37,0.78,0.64,1.61,0.81,2.49c0.17,0.88,0.25,1.75,0.25,2.62v10.63H406.79z"/>
		<path class="st3" d="M411.94,29.92v-2.26h12.67v2.26H411.94z M424.61,46.99c-1.09,0.23-2.16,0.32-3.21,0.27
			c-1.06-0.05-2-0.27-2.83-0.68c-0.83-0.4-1.46-1.04-1.89-1.9c-0.35-0.72-0.53-1.44-0.56-2.17c-0.03-0.73-0.04-1.57-0.04-2.51v-17.7
			h2.61v17.59c0,0.81,0.01,1.49,0.03,2.03c0.02,0.54,0.14,1.02,0.37,1.44c0.43,0.8,1.11,1.28,2.05,1.43
			c0.94,0.16,2.1,0.12,3.48-0.11V46.99z"/>
	</g>
</g>
</svg>
