<?xml version="1.0" encoding="utf-8"?>
<!-- Generator: Adobe Illustrator 26.0.3, SVG Export Plug-In . SVG Version: 6.00 Build 0)  -->
<svg version="1.1" id="Layer_1" xmlns="http://www.w3.org/2000/svg" xmlns:xlink="http://www.w3.org/1999/xlink" x="0px" y="0px"
	 viewBox="0 0 814 150.8" style="enable-background:new 0 0 814 150.8;" xml:space="preserve">
<style type="text/css">
	.st0{fill:#192A2E;}
	.st1{fill:#94A39F;}
	.st2{fill:#9CC5C7;}
	.st3{fill:#E5C3B7;}
	.st4{fill:#D3DFDC;}
</style>
<g>
	<g>
		<path class="st0" d="M176.3,60.7c-0.2-0.2-0.2-0.4-0.2-0.6V13c0-0.2,0.1-0.4,0.2-0.6c0.2-0.2,0.4-0.2,0.6-0.2h6.4
			c0.2,0,0.4,0.1,0.6,0.2c0.2,0.2,0.2,0.4,0.2,0.6v47.1c0,0.2-0.1,0.4-0.2,0.6c-0.2,0.2-0.4,0.2-0.6,0.2h-6.4
			C176.6,60.9,176.4,60.8,176.3,60.7z"/>
		<path class="st0" d="M216.9,28.1c2.3,2.2,3.4,5.3,3.4,9.1v22.9c0,0.2-0.1,0.4-0.2,0.6c-0.2,0.2-0.4,0.2-0.6,0.2H213
			c-0.2,0-0.4-0.1-0.6-0.2c-0.2-0.2-0.2-0.4-0.2-0.6V38.9c0-2.1-0.6-3.9-1.8-5.2c-1.2-1.3-2.8-2-4.8-2c-2,0-3.6,0.7-4.8,2
			c-1.2,1.3-1.8,3-1.8,5.2v21.3c0,0.2-0.1,0.4-0.2,0.6c-0.2,0.2-0.4,0.2-0.6,0.2h-6.4c-0.2,0-0.4-0.1-0.6-0.2
			c-0.2-0.2-0.2-0.4-0.2-0.6V26.2c0-0.2,0.1-0.4,0.2-0.6c0.2-0.2,0.4-0.2,0.6-0.2h6.4c0.2,0,0.4,0.1,0.6,0.2
			c0.2,0.2,0.2,0.4,0.2,0.6v2.2c0,0.1,0,0.2,0.1,0.3c0.1,0,0.2,0,0.2-0.1c1.9-2.5,4.8-3.8,8.6-3.8C211.6,24.8,214.6,25.9,216.9,28.1
			z"/>
		<path class="st0" d="M248,12.4c0.2-0.2,0.4-0.2,0.6-0.2h6.4c0.2,0,0.4,0.1,0.6,0.2c0.2,0.2,0.2,0.4,0.2,0.6v47.1
			c0,0.2-0.1,0.4-0.2,0.6c-0.2,0.2-0.4,0.2-0.6,0.2h-6.4c-0.2,0-0.4-0.1-0.6-0.2c-0.2-0.2-0.2-0.4-0.2-0.6V58c0-0.1,0-0.2-0.1-0.3
			c-0.1,0-0.2,0-0.3,0.1c-2,2.4-4.7,3.6-8,3.6c-3.3,0-6.1-0.9-8.4-2.6c-2.3-1.7-3.9-4.1-4.9-7.2c-0.8-2.6-1.3-5.5-1.3-8.7
			c0-3.3,0.4-6.1,1.2-8.5c1-3.1,2.7-5.5,4.9-7.2c2.3-1.7,5.1-2.6,8.6-2.6c3.2,0,5.8,1.2,7.9,3.5c0.1,0.1,0.2,0.1,0.3,0.1
			c0.1,0,0.1-0.1,0.1-0.2V13C247.7,12.8,247.8,12.6,248,12.4z M247.7,43.1c0-3.6-0.6-6.4-1.7-8.3c-1.3-2-3-3.1-5.3-3.1
			c-2.4,0-4.2,1-5.6,2.9c-1.4,2-2.1,4.9-2.1,8.5c0,3.3,0.6,5.9,1.7,8c1.3,2.2,3.3,3.3,5.9,3.3c2.4,0,4.2-1.1,5.5-3.3
			C247.1,49.3,247.7,46.6,247.7,43.1z"/>
		<path class="st0" d="M292.2,43l-0.1,2.2c0,0.6-0.3,0.8-0.8,0.8h-21.8c-0.2,0-0.3,0.1-0.3,0.3c0.1,1.5,0.3,2.6,0.6,3.1
			c1.1,3.3,3.8,5,8.2,5.1c3.2,0,5.7-1.3,7.5-3.9c0.2-0.3,0.4-0.4,0.7-0.4c0.2,0,0.3,0.1,0.5,0.2l4.3,3.6c0.4,0.3,0.5,0.7,0.2,1.1
			c-1.4,2-3.4,3.6-5.7,4.7c-2.4,1.1-5.1,1.7-8,1.7c-3.6,0-6.7-0.8-9.2-2.4c-2.5-1.6-4.4-3.9-5.5-6.8c-1.1-2.5-1.6-6-1.6-10.5
			c0-2.7,0.3-4.9,0.8-6.5c0.9-3.3,2.7-5.8,5.3-7.7c2.6-1.9,5.7-2.8,9.3-2.8c9.2,0,14.3,4.8,15.5,14.4
			C292.1,40.3,292.2,41.6,292.2,43z M272.1,33c-1.1,0.9-1.9,2.1-2.4,3.6c-0.3,0.8-0.5,1.8-0.6,3.1c-0.1,0.2,0,0.3,0.3,0.3h14.1
			c0.2,0,0.3-0.1,0.3-0.3c-0.1-1.2-0.2-2-0.4-2.6c-0.4-1.7-1.2-3-2.5-3.9c-1.2-0.9-2.8-1.4-4.6-1.4C274.7,31.7,273.3,32.2,272.1,33z
			"/>
		<path class="st0" d="M328.2,43.2c0,3.3-0.4,6.1-1.2,8.5c-1,3.1-2.7,5.5-4.9,7.2c-2.3,1.7-5.1,2.6-8.5,2.6c-3.3,0-5.9-1.2-7.9-3.6
			c-0.1-0.1-0.2-0.1-0.3-0.1c-0.1,0-0.1,0.1-0.1,0.3v15.1c0,0.2-0.1,0.4-0.2,0.6c-0.2,0.2-0.4,0.2-0.6,0.2H298
			c-0.2,0-0.4-0.1-0.6-0.2c-0.2-0.2-0.2-0.4-0.2-0.6V26.2c0-0.2,0.1-0.4,0.2-0.6c0.2-0.2,0.4-0.2,0.6-0.2h6.4c0.2,0,0.4,0.1,0.6,0.2
			c0.2,0.2,0.2,0.4,0.2,0.6v2.1c0,0.1,0,0.2,0.1,0.3c0.1,0,0.2,0,0.3-0.1c2-2.4,4.7-3.6,8-3.6c3.3,0,6.1,0.9,8.4,2.6
			c2.3,1.7,3.9,4.1,4.9,7.2C327.8,36.9,328.2,39.8,328.2,43.2z M320,43.1c0-3.4-0.6-6.1-1.7-8c-1.3-2.3-3.3-3.4-5.9-3.4
			c-2.4,0-4.2,1.1-5.4,3.3c-1.1,1.8-1.6,4.5-1.6,8.1c0,3.7,0.6,6.5,1.7,8.4c1.2,2,2.9,3.1,5.2,3.1c2.5,0,4.3-1,5.6-2.9
			C319.3,49.4,320,46.6,320,43.1z"/>
		<path class="st0" d="M363.3,43l-0.1,2.2c0,0.6-0.3,0.8-0.8,0.8h-21.8c-0.2,0-0.3,0.1-0.3,0.3c0.1,1.5,0.3,2.6,0.6,3.1
			c1.1,3.3,3.8,5,8.2,5.1c3.2,0,5.7-1.3,7.5-3.9c0.2-0.3,0.4-0.4,0.7-0.4c0.2,0,0.3,0.1,0.5,0.2l4.3,3.6c0.4,0.3,0.5,0.7,0.2,1.1
			c-1.4,2-3.4,3.6-5.7,4.7c-2.4,1.1-5.1,1.7-8,1.7c-3.6,0-6.7-0.8-9.2-2.4c-2.5-1.6-4.4-3.9-5.5-6.8c-1.1-2.5-1.6-6-1.6-10.5
			c0-2.7,0.3-4.9,0.8-6.5c0.9-3.3,2.7-5.8,5.3-7.7c2.6-1.9,5.7-2.8,9.3-2.8c9.2,0,14.3,4.8,15.5,14.4
			C363.2,40.3,363.3,41.6,363.3,43z M343.3,33c-1.1,0.9-1.9,2.1-2.4,3.6c-0.3,0.8-0.5,1.8-0.6,3.1c-0.1,0.2,0,0.3,0.3,0.3h14.1
			c0.2,0,0.3-0.1,0.3-0.3c-0.1-1.2-0.2-2-0.4-2.6c-0.4-1.7-1.2-3-2.5-3.9c-1.2-0.9-2.8-1.4-4.6-1.4C345.9,31.7,344.4,32.2,343.3,33z
			"/>
		<path class="st0" d="M395.4,28.1c2.3,2.2,3.4,5.3,3.4,9.1v22.9c0,0.2-0.1,0.4-0.2,0.6c-0.2,0.2-0.4,0.2-0.6,0.2h-6.4
			c-0.2,0-0.4-0.1-0.6-0.2c-0.2-0.2-0.2-0.4-0.2-0.6V38.9c0-2.1-0.6-3.9-1.8-5.2c-1.2-1.3-2.8-2-4.8-2c-2,0-3.6,0.7-4.8,2
			c-1.2,1.3-1.8,3-1.8,5.2v21.3c0,0.2-0.1,0.4-0.2,0.6c-0.2,0.2-0.4,0.2-0.6,0.2h-6.4c-0.2,0-0.4-0.1-0.6-0.2
			c-0.2-0.2-0.2-0.4-0.2-0.6V26.2c0-0.2,0.1-0.4,0.2-0.6c0.2-0.2,0.4-0.2,0.6-0.2h6.4c0.2,0,0.4,0.1,0.6,0.2
			c0.2,0.2,0.2,0.4,0.2,0.6v2.2c0,0.1,0,0.2,0.1,0.3c0.1,0,0.2,0,0.2-0.1c1.9-2.5,4.8-3.8,8.6-3.8C390.2,24.8,393.2,25.9,395.4,28.1
			z"/>
		<path class="st0" d="M426.6,12.4c0.2-0.2,0.4-0.2,0.6-0.2h6.4c0.2,0,0.4,0.1,0.6,0.2c0.2,0.2,0.2,0.4,0.2,0.6v47.1
			c0,0.2-0.1,0.4-0.2,0.6c-0.2,0.2-0.4,0.2-0.6,0.2h-6.4c-0.2,0-0.4-0.1-0.6-0.2c-0.2-0.2-0.2-0.4-0.2-0.6V58c0-0.1,0-0.2-0.1-0.3
			c-0.1,0-0.2,0-0.3,0.1c-2,2.4-4.7,3.6-8,3.6c-3.3,0-6.1-0.9-8.4-2.6c-2.3-1.7-3.9-4.1-4.9-7.2c-0.8-2.6-1.3-5.5-1.3-8.7
			c0-3.3,0.4-6.1,1.2-8.5c1-3.1,2.7-5.5,4.9-7.2c2.3-1.7,5.1-2.6,8.6-2.6c3.2,0,5.8,1.2,7.9,3.5c0.1,0.1,0.2,0.1,0.3,0.1
			c0.1,0,0.1-0.1,0.1-0.2V13C426.3,12.8,426.4,12.6,426.6,12.4z M426.2,43.1c0-3.6-0.6-6.4-1.7-8.3c-1.3-2-3-3.1-5.3-3.1
			c-2.4,0-4.2,1-5.6,2.9c-1.4,2-2.1,4.9-2.1,8.5c0,3.3,0.6,5.9,1.7,8c1.3,2.2,3.3,3.3,5.9,3.3c2.4,0,4.2-1.1,5.5-3.3
			C425.7,49.3,426.2,46.6,426.2,43.1z"/>
		<path class="st0" d="M470.7,43l-0.1,2.2c0,0.6-0.3,0.8-0.8,0.8H448c-0.2,0-0.3,0.1-0.3,0.3c0.1,1.5,0.3,2.6,0.6,3.1
			c1.1,3.3,3.8,5,8.2,5.1c3.2,0,5.7-1.3,7.5-3.9c0.2-0.3,0.4-0.4,0.7-0.4c0.2,0,0.3,0.1,0.5,0.2l4.3,3.6c0.4,0.3,0.5,0.7,0.2,1.1
			c-1.4,2-3.4,3.6-5.7,4.7c-2.4,1.1-5.1,1.7-8,1.7c-3.6,0-6.7-0.8-9.2-2.4c-2.5-1.6-4.4-3.9-5.5-6.8c-1.1-2.5-1.6-6-1.6-10.5
			c0-2.7,0.3-4.9,0.8-6.5c0.9-3.3,2.7-5.8,5.3-7.7s5.7-2.8,9.3-2.8c9.2,0,14.3,4.8,15.5,14.4C470.7,40.3,470.7,41.6,470.7,43z
			 M450.7,33c-1.1,0.9-1.9,2.1-2.4,3.6c-0.3,0.8-0.5,1.8-0.6,3.1c-0.1,0.2,0,0.3,0.3,0.3h14.1c0.2,0,0.3-0.1,0.3-0.3
			c-0.1-1.2-0.2-2-0.4-2.6c-0.4-1.7-1.2-3-2.5-3.9c-1.2-0.9-2.8-1.4-4.6-1.4C453.3,31.7,451.9,32.2,450.7,33z"/>
		<path class="st0" d="M501.5,28.1c2.3,2.2,3.4,5.3,3.4,9.1v22.9c0,0.2-0.1,0.4-0.2,0.6c-0.2,0.2-0.4,0.2-0.6,0.2h-6.4
			c-0.2,0-0.4-0.1-0.6-0.2c-0.2-0.2-0.2-0.4-0.2-0.6V38.9c0-2.1-0.6-3.9-1.8-5.2c-1.2-1.3-2.8-2-4.8-2c-2,0-3.6,0.7-4.8,2
			c-1.2,1.3-1.8,3-1.8,5.2v21.3c0,0.2-0.1,0.4-0.2,0.6c-0.2,0.2-0.4,0.2-0.6,0.2h-6.4c-0.2,0-0.4-0.1-0.6-0.2
			c-0.2-0.2-0.2-0.4-0.2-0.6V26.2c0-0.2,0.1-0.4,0.2-0.6c0.2-0.2,0.4-0.2,0.6-0.2h6.4c0.2,0,0.4,0.1,0.6,0.2
			c0.2,0.2,0.2,0.4,0.2,0.6v2.2c0,0.1,0,0.2,0.1,0.3c0.1,0,0.2,0,0.2-0.1c1.9-2.5,4.8-3.8,8.6-3.8C496.2,24.8,499.2,25.9,501.5,28.1
			z"/>
		<path class="st0" d="M529.2,31.6c-0.2,0.2-0.4,0.2-0.6,0.2h-7.1c-0.2,0-0.3,0.1-0.3,0.3V49c0,1.8,0.4,3,1.1,3.8
			c0.8,0.8,2,1.2,3.7,1.2h2.1c0.2,0,0.4,0.1,0.6,0.2c0.2,0.2,0.2,0.4,0.2,0.6v5.2c0,0.5-0.3,0.8-0.8,0.9l-3.6,0.1
			c-3.7,0-6.4-0.6-8.2-1.9c-1.8-1.3-2.7-3.6-2.8-7.1V32.2c0-0.2-0.1-0.3-0.3-0.3h-4c-0.2,0-0.4-0.1-0.6-0.2
			c-0.2-0.2-0.2-0.4-0.2-0.6v-4.9c0-0.2,0.1-0.4,0.2-0.6c0.2-0.2,0.4-0.2,0.6-0.2h4c0.2,0,0.3-0.1,0.3-0.3v-8.2
			c0-0.2,0.1-0.4,0.2-0.6c0.2-0.2,0.4-0.2,0.6-0.2h6.1c0.2,0,0.4,0.1,0.6,0.2c0.2,0.2,0.2,0.4,0.2,0.6V25c0,0.2,0.1,0.3,0.3,0.3h7.1
			c0.2,0,0.4,0.1,0.6,0.2c0.2,0.2,0.2,0.4,0.2,0.6V31C529.4,31.3,529.4,31.5,529.2,31.6z"/>
		<path class="st0" d="M575,60.3l-9.2-20.1c-0.1-0.2-0.2-0.3-0.4-0.3H557c-0.2,0-0.3,0.1-0.3,0.3v19.8c0,0.2-0.1,0.4-0.2,0.6
			c-0.2,0.2-0.4,0.2-0.6,0.2h-6.4c-0.2,0-0.4-0.1-0.6-0.2c-0.2-0.2-0.2-0.4-0.2-0.6V13c0-0.2,0.1-0.4,0.2-0.6
			c0.2-0.2,0.4-0.2,0.6-0.2h19.2c2.8,0,5.3,0.6,7.5,1.8c2.2,1.2,3.9,2.9,5.1,5c1.2,2.2,1.8,4.6,1.8,7.4c0,3.2-0.8,5.9-2.5,8.2
			c-1.7,2.3-3.9,3.8-6.9,4.7c-0.1,0-0.2,0-0.2,0.1c0,0.1,0,0.2,0,0.3l9.8,20.3c0.1,0.2,0.1,0.3,0.1,0.4c0,0.4-0.3,0.6-0.8,0.6H576
			C575.5,60.9,575.2,60.7,575,60.3z M556.7,19.5v13.9c0,0.2,0.1,0.3,0.3,0.3h10.5c2.2,0,4-0.7,5.4-2s2.1-3.1,2.1-5.3
			s-0.7-3.9-2.1-5.3c-1.4-1.3-3.2-2-5.4-2H557C556.8,19.1,556.7,19.2,556.7,19.5z"/>
		<path class="st0" d="M616.3,43l-0.1,2.2c0,0.6-0.3,0.8-0.8,0.8h-21.8c-0.2,0-0.3,0.1-0.3,0.3c0.1,1.5,0.3,2.6,0.6,3.1
			c1.1,3.3,3.8,5,8.2,5.1c3.2,0,5.7-1.3,7.5-3.9c0.2-0.3,0.4-0.4,0.7-0.4c0.2,0,0.3,0.1,0.5,0.2L615,54c0.4,0.3,0.5,0.7,0.2,1.1
			c-1.4,2-3.4,3.6-5.7,4.7c-2.4,1.1-5.1,1.7-8,1.7c-3.6,0-6.7-0.8-9.2-2.4c-2.5-1.6-4.4-3.9-5.5-6.8c-1.1-2.5-1.6-6-1.6-10.5
			c0-2.7,0.3-4.9,0.8-6.5c0.9-3.3,2.7-5.8,5.3-7.7c2.6-1.9,5.7-2.8,9.3-2.8c9.1,0,14.3,4.8,15.5,14.4
			C616.2,40.3,616.3,41.6,616.3,43z M596.3,33c-1.1,0.9-1.9,2.1-2.4,3.6c-0.3,0.8-0.5,1.8-0.6,3.1c-0.1,0.2,0,0.3,0.3,0.3h14.1
			c0.2,0,0.3-0.1,0.3-0.3c-0.1-1.2-0.2-2-0.4-2.6c-0.4-1.7-1.2-3-2.5-3.9c-1.2-0.9-2.8-1.4-4.6-1.4C598.8,31.7,597.4,32.2,596.3,33z
			"/>
		<path class="st0" d="M628.1,60.2l-11.2-34c0-0.1-0.1-0.2-0.1-0.3c0-0.4,0.3-0.6,0.8-0.6h7.1c0.5,0,0.8,0.2,1,0.7l6.8,23.3
			c0,0.1,0.1,0.2,0.2,0.2c0.1,0,0.2-0.1,0.2-0.2l6.8-23.3c0.1-0.5,0.5-0.7,1-0.7l7.1,0.1c0.3,0,0.5,0.1,0.6,0.2
			c0.1,0.2,0.2,0.4,0.1,0.7l-11.1,33.9c-0.1,0.5-0.4,0.7-0.9,0.7H629C628.6,60.9,628.3,60.7,628.1,60.2z"/>
		<path class="st0" d="M654.2,19c-0.9-0.9-1.4-2.1-1.4-3.6c0-1.4,0.5-2.6,1.4-3.6c0.9-0.9,2.1-1.4,3.6-1.4c1.4,0,2.6,0.5,3.6,1.4
			c0.9,0.9,1.4,2.1,1.4,3.6c0,1.4-0.5,2.6-1.4,3.6c-0.9,0.9-2.1,1.4-3.6,1.4C656.3,20.4,655.1,20,654.2,19z M653.8,60.7
			c-0.2-0.2-0.2-0.4-0.2-0.6v-34c0-0.2,0.1-0.4,0.2-0.6c0.2-0.2,0.4-0.2,0.6-0.2h6.4c0.2,0,0.4,0.1,0.6,0.2c0.2,0.2,0.2,0.4,0.2,0.6
			v34c0,0.2-0.1,0.4-0.2,0.6c-0.2,0.2-0.4,0.2-0.6,0.2h-6.4C654.2,60.9,654,60.8,653.8,60.7z"/>
		<path class="st0" d="M697.1,43l-0.1,2.2c0,0.6-0.3,0.8-0.8,0.8h-21.8c-0.2,0-0.3,0.1-0.3,0.3c0.1,1.5,0.3,2.6,0.6,3.1
			c1.1,3.3,3.8,5,8.2,5.1c3.2,0,5.7-1.3,7.5-3.9c0.2-0.3,0.4-0.4,0.7-0.4c0.2,0,0.3,0.1,0.5,0.2l4.3,3.6c0.4,0.3,0.5,0.7,0.2,1.1
			c-1.4,2-3.4,3.6-5.7,4.7c-2.4,1.1-5.1,1.7-8,1.7c-3.6,0-6.7-0.8-9.2-2.4c-2.5-1.6-4.4-3.9-5.5-6.8c-1.1-2.5-1.6-6-1.6-10.5
			c0-2.7,0.3-4.9,0.8-6.5c0.9-3.3,2.7-5.8,5.3-7.7c2.6-1.9,5.7-2.8,9.3-2.8c9.1,0,14.3,4.8,15.5,14.4C697,40.3,697.1,41.6,697.1,43z
			 M677.1,33c-1.1,0.9-1.9,2.1-2.4,3.6c-0.3,0.8-0.5,1.8-0.6,3.1c-0.1,0.2,0,0.3,0.3,0.3h14.1c0.2,0,0.3-0.1,0.3-0.3
			c-0.1-1.2-0.2-2-0.4-2.6c-0.4-1.7-1.2-3-2.5-3.9c-1.2-0.9-2.8-1.4-4.6-1.4C679.7,31.7,678.2,32.2,677.1,33z"/>
		<path class="st0" d="M707.7,60.2l-10-34l-0.1-0.3c0-0.5,0.3-0.7,0.8-0.7h6.6c0.5,0,0.8,0.2,1,0.7l5.8,23.3c0,0.1,0.1,0.2,0.2,0.2
			c0.1,0,0.2-0.1,0.2-0.2l6.1-23.3c0.1-0.5,0.5-0.7,1-0.7h5.8c0.5,0,0.8,0.2,1,0.7l6.2,23.3c0,0.1,0.1,0.2,0.2,0.2s0.2-0.1,0.2-0.2
			l6.2-23.3c0.1-0.5,0.5-0.7,1-0.7l6.5,0.1c0.3,0,0.5,0.1,0.6,0.2c0.1,0.2,0.1,0.4,0.1,0.7l-10,33.9c-0.1,0.5-0.4,0.7-0.9,0.7h-6.7
			c-0.5,0-0.8-0.2-1-0.7L722.3,39c0-0.1-0.1-0.2-0.2-0.2c-0.1,0-0.2,0.1-0.2,0.2l-5.6,21.3c-0.1,0.5-0.5,0.7-1,0.7h-6.6
			C708.2,60.9,707.8,60.7,707.7,60.2z"/>
		<path class="st1" d="M769.2,58.9c-2.4-1.7-4.1-4.1-5-7.1c-0.7-2.1-1-5-1-8.6c0-3.6,0.3-6.4,1-8.5c0.9-3,2.5-5.3,4.9-7
			c2.4-1.7,5.3-2.6,8.8-2.6c3.3,0,6.1,0.9,8.5,2.6c2.4,1.7,4,4,4.9,7c0.7,2,1,4.9,1,8.6c0,3.8-0.3,6.6-1,8.6c-0.9,3-2.5,5.4-4.9,7.1
			c-2.4,1.7-5.3,2.6-8.6,2.6C774.4,61.5,771.6,60.6,769.2,58.9z M783.5,55.3c1.6-1.2,2.6-2.9,3.2-5c0.4-1.7,0.6-4,0.6-7
			c0-3.1-0.2-5.4-0.6-7c-0.6-2.1-1.6-3.8-3.2-5c-1.6-1.2-3.5-1.8-5.8-1.8s-4.2,0.6-5.8,1.8c-1.6,1.2-2.6,2.9-3.2,5
			c-0.4,1.6-0.6,4-0.6,7s0.2,5.4,0.6,7c0.5,2.1,1.6,3.8,3.2,5c1.6,1.2,3.6,1.8,5.9,1.8C780,57.2,781.9,56.5,783.5,55.3z"/>
		<path class="st1" d="M806.5,18.2c-0.9,1.1-1.4,3.1-1.4,5.8v1.4c0,0.2,0.1,0.3,0.3,0.3h7.8c0.5,0,0.7,0.2,0.7,0.7v3.1
			c0,0.5-0.2,0.7-0.7,0.7h-7.8c-0.2,0-0.3,0.1-0.3,0.3v29.8c0,0.5-0.2,0.7-0.7,0.7h-3.5c-0.5,0-0.7-0.2-0.7-0.7V30.5
			c0-0.2-0.1-0.3-0.3-0.3h-4.7c-0.5,0-0.7-0.2-0.7-0.7v-3.1c0-0.5,0.2-0.7,0.7-0.7h4.7c0.2,0,0.3-0.1,0.3-0.3v-1.7
			c0-2.9,0.3-5.1,1-6.8c0.6-1.6,1.8-2.9,3.4-3.6c1.6-0.8,3.8-1.1,6.7-1.1h2c0.5,0,0.7,0.2,0.7,0.7v2.9c0,0.5-0.2,0.7-0.7,0.7h-1.6
			C809.2,16.5,807.4,17,806.5,18.2z"/>
		<path class="st2" d="M177.5,138.1V89.4c0-0.5,0.2-0.7,0.7-0.7h3.7c0.5,0,0.7,0.2,0.7,0.7v48.7c0,0.5-0.2,0.7-0.7,0.7h-3.7
			C177.7,138.8,177.5,138.6,177.5,138.1z"/>
		<path class="st2" d="M215,105.4c2.3,2.2,3.4,5.3,3.4,9v23.7c0,0.5-0.2,0.7-0.7,0.7H214c-0.5,0-0.7-0.2-0.7-0.7v-22.6
			c0-2.6-0.8-4.8-2.4-6.5c-1.6-1.7-3.7-2.5-6.2-2.5c-2.6,0-4.8,0.8-6.4,2.4c-1.6,1.6-2.4,3.8-2.4,6.4v22.8c0,0.5-0.2,0.7-0.7,0.7
			h-3.7c-0.5,0-0.7-0.2-0.7-0.7v-34.8c0-0.5,0.2-0.7,0.7-0.7h3.7c0.5,0,0.7,0.2,0.7,0.7v3.1c0,0.1,0,0.2,0.1,0.2
			c0.1,0,0.1,0,0.2-0.1c2.1-3,5.3-4.4,9.7-4.4C209.7,102.1,212.7,103.2,215,105.4z"/>
		<path class="st2" d="M234.4,138.3l-11.8-34.9l-0.1-0.3c0-0.3,0.2-0.5,0.6-0.5h4.1c0.4,0,0.7,0.2,0.9,0.6l9,28.1
			c0,0.1,0.1,0.1,0.2,0.1c0.1,0,0.2,0,0.2-0.1l9-28.1c0.1-0.4,0.4-0.6,0.9-0.6l4.1,0.1c0.5,0,0.7,0.3,0.6,0.8l-11.8,34.8
			c-0.1,0.4-0.4,0.6-0.9,0.6h-4.2C234.8,138.8,234.5,138.6,234.4,138.3z"/>
		<path class="st2" d="M284.1,119.6v2.3c0,0.5-0.2,0.7-0.7,0.7h-23.2c-0.2,0-0.3,0.1-0.3,0.3c0.1,2.6,0.2,4.3,0.4,5.1
			c0.5,2.1,1.6,3.8,3.4,5.1c1.7,1.2,3.9,1.9,6.6,1.9c2,0,3.8-0.5,5.3-1.4c1.5-0.9,2.7-2.2,3.6-3.9c0.3-0.4,0.6-0.5,1-0.3l2.8,1.6
			c0.4,0.2,0.5,0.6,0.3,1c-1.2,2.3-3,4.1-5.4,5.4c-2.4,1.3-5.1,2-8.2,2c-3.4,0-6.2-0.9-8.5-2.4c-2.3-1.6-3.9-3.8-4.9-6.6
			c-0.9-2.3-1.3-5.6-1.3-9.9c0-2,0-3.6,0.1-4.9c0.1-1.3,0.3-2.4,0.5-3.4c0.8-3.1,2.4-5.6,4.9-7.5c2.5-1.9,5.4-2.8,8.9-2.8
			c4.3,0,7.7,1.1,10,3.3c2.3,2.2,3.8,5.3,4.4,9.3C284,115.9,284.1,117.6,284.1,119.6z M263.5,108.3c-1.6,1.2-2.6,2.9-3,4.9
			c-0.3,1-0.5,2.6-0.6,4.9c0,0.2,0.1,0.3,0.3,0.3h18.6c0.2,0,0.3-0.1,0.3-0.3c-0.1-2.1-0.2-3.7-0.4-4.6c-0.5-2.1-1.6-3.9-3.2-5.1
			c-1.6-1.3-3.6-1.9-6.1-1.9C267,106.4,265.1,107,263.5,108.3z"/>
		<path class="st2" d="M295.5,137.9c-2.1-0.9-3.7-2-4.8-3.4c-1.1-1.4-1.7-3-1.7-4.8v-0.9c0-0.5,0.2-0.7,0.7-0.7h3.4
			c0.5,0,0.7,0.2,0.7,0.7v0.6c0,1.6,0.8,3,2.5,4.1c1.6,1.2,3.7,1.8,6.2,1.8c2.5,0,4.5-0.6,6-1.7c1.5-1.1,2.3-2.5,2.3-4.3
			c0-1.2-0.4-2.2-1.2-2.9c-0.8-0.8-1.7-1.4-2.8-1.8c-1.1-0.4-2.7-1-5-1.6c-2.7-0.8-4.9-1.5-6.6-2.3c-1.7-0.8-3.2-1.8-4.3-3.2
			c-1.2-1.4-1.8-3.1-1.8-5.2c0-3.1,1.2-5.5,3.6-7.3c2.4-1.8,5.5-2.7,9.5-2.7c2.6,0,5,0.4,7,1.3c2,0.9,3.6,2,4.7,3.5
			c1.1,1.5,1.6,3.2,1.6,5.1v0.2c0,0.5-0.2,0.7-0.7,0.7h-3.4c-0.5,0-0.7-0.2-0.7-0.7v-0.2c0-1.6-0.8-3-2.3-4.1
			c-1.6-1.1-3.6-1.6-6.3-1.6c-2.4,0-4.4,0.5-5.9,1.5c-1.5,1-2.2,2.3-2.2,4c0,1.6,0.7,2.9,2.1,3.7c1.4,0.9,3.7,1.7,6.7,2.6
			c2.8,0.8,5,1.6,6.7,2.3c1.7,0.7,3.2,1.8,4.4,3.1c1.2,1.4,1.9,3.1,1.9,5.3c0,3.1-1.2,5.6-3.7,7.5c-2.4,1.9-5.7,2.8-9.7,2.8
			C299.9,139.2,297.6,138.8,295.5,137.9z"/>
		<path class="st2" d="M337.9,106.8h-8.1c-0.2,0-0.3,0.1-0.3,0.3v21.1c0,2.3,0.5,3.9,1.5,4.8c1,0.9,2.6,1.4,4.8,1.4h1.8
			c0.5,0,0.7,0.2,0.7,0.7v2.9c0,0.5-0.2,0.7-0.7,0.7c-0.6,0-1.5,0.1-2.7,0.1c-3.4,0-6-0.6-7.8-1.9c-1.8-1.3-2.7-3.7-2.7-7.2v-22.7
			c0-0.2-0.1-0.3-0.3-0.3h-4.4c-0.5,0-0.7-0.2-0.7-0.7v-2.8c0-0.5,0.2-0.7,0.7-0.7h4.4c0.2,0,0.3-0.1,0.3-0.3V94
			c0-0.5,0.2-0.7,0.7-0.7h3.5c0.5,0,0.7,0.2,0.7,0.7v8.3c0,0.2,0.1,0.3,0.3,0.3h8.1c0.5,0,0.7,0.2,0.7,0.7v2.8
			C338.6,106.6,338.3,106.8,337.9,106.8z"/>
		<path class="st2" d="M391.5,88.7h3.7c0.5,0,0.7,0.2,0.7,0.7v48.7c0,0.5-0.2,0.7-0.7,0.7h-3.6c-0.3,0-0.6-0.2-0.9-0.5l-24.4-39.8
			c0-0.1-0.1-0.2-0.2-0.2c-0.1,0-0.1,0.1-0.1,0.3l0.1,39.5c0,0.5-0.2,0.7-0.7,0.7h-3.7c-0.5,0-0.7-0.2-0.7-0.7V89.4
			c0-0.5,0.2-0.7,0.7-0.7h3.6c0.3,0,0.6,0.2,0.9,0.5l24.4,39.8c0,0.1,0.1,0.2,0.2,0.2c0.1,0,0.1-0.1,0.1-0.3l-0.1-39.5
			C390.8,88.9,391,88.7,391.5,88.7z"/>
		<path class="st2" d="M409.1,136.8c-2.5-1.8-4.2-4.2-5.2-7.3c-0.7-2.2-1-5.1-1-8.8c0-3.7,0.3-6.6,1-8.7c0.9-3.1,2.6-5.5,5.1-7.2
			c2.5-1.8,5.5-2.7,9-2.7c3.4,0,6.3,0.9,8.8,2.7c2.5,1.8,4.1,4.2,5.1,7.2c0.7,2.1,1,5,1,8.8c0,3.9-0.3,6.8-1,8.8
			c-0.9,3.1-2.6,5.5-5.1,7.3c-2.5,1.8-5.4,2.7-8.9,2.7C414.5,139.4,411.6,138.5,409.1,136.8z M423.9,133.1c1.6-1.3,2.7-3,3.3-5.1
			c0.4-1.7,0.6-4.1,0.6-7.2c0-3.2-0.2-5.6-0.6-7.2c-0.6-2.1-1.7-3.9-3.3-5.1c-1.6-1.3-3.6-1.9-6-1.9c-2.3,0-4.3,0.6-5.9,1.9
			c-1.6,1.3-2.7,3-3.3,5.1c-0.4,1.7-0.6,4.1-0.6,7.2s0.2,5.6,0.6,7.2c0.5,2.1,1.6,3.9,3.3,5.1c1.6,1.3,3.7,1.9,6.1,1.9
			C420.3,135,422.2,134.3,423.9,133.1z"/>
		<path class="st2" d="M457.7,103.1c0.4,0.2,0.5,0.5,0.4,0.9l-0.8,3.5c-0.1,0.5-0.5,0.6-0.9,0.4c-0.8-0.3-1.7-0.5-2.8-0.5l-0.9,0.1
			c-2.5,0.1-4.5,1-6.2,2.8c-1.6,1.7-2.4,4-2.4,6.6v21.1c0,0.5-0.2,0.7-0.7,0.7h-3.7c-0.5,0-0.7-0.2-0.7-0.7v-34.8
			c0-0.5,0.2-0.7,0.7-0.7h3.7c0.5,0,0.7,0.2,0.7,0.7v4.4c0,0.1,0,0.2,0.1,0.3c0.1,0,0.1,0,0.2-0.1c1-1.8,2.3-3.1,3.8-4.1
			c1.6-1,3.4-1.5,5.4-1.5C455.2,102.2,456.5,102.5,457.7,103.1z"/>
		<path class="st2" d="M481.6,106.8h-8.1c-0.2,0-0.3,0.1-0.3,0.3v21.1c0,2.3,0.5,3.9,1.5,4.8c1,0.9,2.6,1.4,4.8,1.4h1.8
			c0.5,0,0.7,0.2,0.7,0.7v2.9c0,0.5-0.2,0.7-0.7,0.7c-0.6,0-1.5,0.1-2.7,0.1c-3.4,0-6-0.6-7.8-1.9c-1.8-1.3-2.7-3.7-2.7-7.2v-22.7
			c0-0.2-0.1-0.3-0.3-0.3h-4.4c-0.5,0-0.7-0.2-0.7-0.7v-2.8c0-0.5,0.2-0.7,0.7-0.7h4.4c0.2,0,0.3-0.1,0.3-0.3V94
			c0-0.5,0.2-0.7,0.7-0.7h3.5c0.5,0,0.7,0.2,0.7,0.7v8.3c0,0.2,0.1,0.3,0.3,0.3h8.1c0.5,0,0.7,0.2,0.7,0.7v2.8
			C482.3,106.6,482.1,106.8,481.6,106.8z"/>
		<path class="st2" d="M513.5,105.4c2.3,2.2,3.4,5.3,3.4,9v23.7c0,0.5-0.2,0.7-0.7,0.7h-3.7c-0.5,0-0.7-0.2-0.7-0.7v-22.6
			c0-2.6-0.8-4.8-2.4-6.5c-1.6-1.7-3.7-2.5-6.2-2.5c-2.6,0-4.8,0.8-6.4,2.4c-1.6,1.6-2.4,3.8-2.4,6.4v22.8c0,0.5-0.2,0.7-0.7,0.7
			h-3.7c-0.5,0-0.7-0.2-0.7-0.7V89.4c0-0.5,0.2-0.7,0.7-0.7h3.7c0.5,0,0.7,0.2,0.7,0.7v17c0,0.1,0,0.2,0.1,0.2c0.1,0,0.1,0,0.2-0.1
			c2.1-3,5.3-4.4,9.7-4.4C508.2,102.1,511.3,103.2,513.5,105.4z"/>
		<path class="st2" d="M552.8,119.6v2.3c0,0.5-0.2,0.7-0.7,0.7h-23.2c-0.2,0-0.3,0.1-0.3,0.3c0.1,2.6,0.2,4.3,0.4,5.1
			c0.5,2.1,1.6,3.8,3.4,5.1c1.7,1.2,3.9,1.9,6.6,1.9c2,0,3.8-0.5,5.3-1.4c1.5-0.9,2.7-2.2,3.6-3.9c0.3-0.4,0.6-0.5,1-0.3l2.8,1.6
			c0.4,0.2,0.5,0.6,0.3,1c-1.2,2.3-3,4.1-5.4,5.4c-2.4,1.3-5.1,2-8.2,2c-3.4,0-6.2-0.9-8.5-2.4c-2.3-1.6-3.9-3.8-4.9-6.6
			c-0.9-2.3-1.3-5.6-1.3-9.9c0-2,0-3.6,0.1-4.9c0.1-1.3,0.3-2.4,0.5-3.4c0.8-3.1,2.4-5.6,4.9-7.5c2.5-1.9,5.4-2.8,8.9-2.8
			c4.3,0,7.7,1.1,10,3.3c2.3,2.2,3.8,5.3,4.4,9.3C552.7,115.9,552.8,117.6,552.8,119.6z M532.2,108.3c-1.6,1.2-2.6,2.9-3,4.9
			c-0.3,1-0.5,2.6-0.6,4.9c0,0.2,0.1,0.3,0.3,0.3h18.6c0.2,0,0.3-0.1,0.3-0.3c-0.1-2.1-0.2-3.7-0.4-4.6c-0.5-2.1-1.6-3.9-3.2-5.1
			c-1.6-1.3-3.6-1.9-6.1-1.9C535.7,106.4,533.8,107,532.2,108.3z"/>
		<path class="st2" d="M577.3,103.1c0.4,0.2,0.5,0.5,0.4,0.9l-0.8,3.5c-0.1,0.5-0.5,0.6-0.9,0.4c-0.8-0.3-1.7-0.5-2.8-0.5l-0.9,0.1
			c-2.5,0.1-4.5,1-6.2,2.8c-1.6,1.7-2.4,4-2.4,6.6v21.1c0,0.5-0.2,0.7-0.7,0.7h-3.7c-0.5,0-0.7-0.2-0.7-0.7v-34.8
			c0-0.5,0.2-0.7,0.7-0.7h3.7c0.5,0,0.7,0.2,0.7,0.7v4.4c0,0.1,0,0.2,0.1,0.3c0.1,0,0.1,0,0.2-0.1c1-1.8,2.3-3.1,3.8-4.1
			c1.6-1,3.4-1.5,5.4-1.5C574.8,102.2,576.2,102.5,577.3,103.1z"/>
		<path class="st2" d="M606.1,105.4c2.3,2.2,3.4,5.3,3.4,9v23.7c0,0.5-0.2,0.7-0.7,0.7h-3.7c-0.5,0-0.7-0.2-0.7-0.7v-22.6
			c0-2.6-0.8-4.8-2.4-6.5c-1.6-1.7-3.7-2.5-6.2-2.5c-2.6,0-4.8,0.8-6.4,2.4c-1.6,1.6-2.4,3.8-2.4,6.4v22.8c0,0.5-0.2,0.7-0.7,0.7
			h-3.7c-0.5,0-0.7-0.2-0.7-0.7v-34.8c0-0.5,0.2-0.7,0.7-0.7h3.7c0.5,0,0.7,0.2,0.7,0.7v3.1c0,0.1,0,0.2,0.1,0.2
			c0.1,0,0.1,0,0.2-0.1c2.1-3,5.3-4.4,9.7-4.4C600.8,102.1,603.8,103.2,606.1,105.4z"/>
		<path class="st2" d="M633.1,138.1V89.4c0-0.5,0.2-0.7,0.7-0.7h3.7c0.5,0,0.7,0.2,0.7,0.7v48.7c0,0.5-0.2,0.7-0.7,0.7h-3.7
			C633.3,138.8,633.1,138.6,633.1,138.1z"/>
		<path class="st2" d="M665.1,103.1c0.4,0.2,0.5,0.5,0.4,0.9l-0.8,3.5c-0.1,0.5-0.5,0.6-0.9,0.4c-0.8-0.3-1.7-0.5-2.8-0.5l-0.9,0.1
			c-2.5,0.1-4.5,1-6.2,2.8c-1.6,1.7-2.4,4-2.4,6.6v21.1c0,0.5-0.2,0.7-0.7,0.7h-3.7c-0.5,0-0.7-0.2-0.7-0.7v-34.8
			c0-0.5,0.2-0.7,0.7-0.7h3.7c0.5,0,0.7,0.2,0.7,0.7v4.4c0,0.1,0,0.2,0.1,0.3c0.1,0,0.1,0,0.2-0.1c1-1.8,2.3-3.1,3.8-4.1
			c1.6-1,3.4-1.5,5.4-1.5C662.6,102.2,663.9,102.5,665.1,103.1z"/>
		<path class="st2" d="M697.4,119.6v2.3c0,0.5-0.2,0.7-0.7,0.7h-23.2c-0.2,0-0.3,0.1-0.3,0.3c0.1,2.6,0.2,4.3,0.4,5.1
			c0.5,2.1,1.6,3.8,3.4,5.1c1.7,1.2,3.9,1.9,6.6,1.9c2,0,3.8-0.5,5.3-1.4s2.7-2.2,3.6-3.9c0.3-0.4,0.6-0.5,1-0.3l2.8,1.6
			c0.4,0.2,0.5,0.6,0.3,1c-1.2,2.3-3,4.1-5.4,5.4c-2.4,1.3-5.1,2-8.2,2c-3.4,0-6.2-0.9-8.5-2.4c-2.3-1.6-3.9-3.8-4.9-6.6
			c-0.9-2.3-1.3-5.6-1.3-9.9c0-2,0-3.6,0.1-4.9c0.1-1.3,0.3-2.4,0.5-3.4c0.8-3.1,2.4-5.6,4.9-7.5c2.5-1.9,5.4-2.8,8.9-2.8
			c4.3,0,7.7,1.1,10,3.3c2.3,2.2,3.8,5.3,4.4,9.3C697.3,115.9,697.4,117.6,697.4,119.6z M676.9,108.3c-1.6,1.2-2.6,2.9-3,4.9
			c-0.3,1-0.5,2.6-0.6,4.9c0,0.2,0.1,0.3,0.3,0.3h18.6c0.2,0,0.3-0.1,0.3-0.3c-0.1-2.1-0.2-3.7-0.4-4.6c-0.5-2.1-1.6-3.9-3.2-5.1
			c-1.6-1.3-3.6-1.9-6.1-1.9C680.4,106.4,678.4,107,676.9,108.3z"/>
		<path class="st2" d="M703.3,138.1V89.4c0-0.5,0.2-0.7,0.7-0.7h3.7c0.5,0,0.7,0.2,0.7,0.7v48.7c0,0.5-0.2,0.7-0.7,0.7H704
			C703.5,138.8,703.3,138.6,703.3,138.1z"/>
		<path class="st2" d="M739.5,105.3c2.3,2.2,3.5,5.1,3.5,8.7v24.1c0,0.5-0.2,0.7-0.7,0.7h-3.7c-0.5,0-0.7-0.2-0.7-0.7v-2.9
			c0-0.1,0-0.2-0.1-0.2c-0.1,0-0.2,0-0.3,0.1c-1.2,1.4-2.7,2.5-4.7,3.3c-1.9,0.7-4,1.1-6.4,1.1c-3.4,0-6.2-0.9-8.5-2.6
			c-2.3-1.7-3.4-4.3-3.4-7.9c0-3.6,1.3-6.4,3.9-8.5c2.6-2.1,6.2-3.1,10.9-3.1h8.3c0.2,0,0.3-0.1,0.3-0.3v-2.7c0-2.4-0.7-4.4-2-5.8
			c-1.4-1.4-3.5-2.1-6.3-2.1c-2.3,0-4.2,0.4-5.6,1.3c-1.4,0.9-2.3,2.1-2.7,3.7c-0.1,0.5-0.4,0.7-0.9,0.6l-3.9-0.5
			c-0.5-0.1-0.7-0.3-0.6-0.6c0.4-2.7,1.8-4.8,4.3-6.5c2.5-1.7,5.6-2.5,9.3-2.5C733.8,102,737.1,103.1,739.5,105.3z M734.8,132.9
			c2.1-1.4,3.1-3.3,3.1-5.7v-5.6c0-0.2-0.1-0.3-0.3-0.3h-7.5c-3.2,0-5.7,0.6-7.6,1.9c-1.9,1.3-2.9,3.1-2.9,5.4
			c0,2.1,0.7,3.7,2.2,4.8c1.5,1.1,3.4,1.6,5.7,1.6C730.3,135,732.7,134.3,734.8,132.9z"/>
		<path class="st2" d="M774.9,105.4c2.3,2.2,3.4,5.3,3.4,9v23.7c0,0.5-0.2,0.7-0.7,0.7H774c-0.5,0-0.7-0.2-0.7-0.7v-22.6
			c0-2.6-0.8-4.8-2.4-6.5c-1.6-1.7-3.7-2.5-6.2-2.5c-2.6,0-4.8,0.8-6.4,2.4c-1.6,1.6-2.4,3.8-2.4,6.4v22.8c0,0.5-0.2,0.7-0.7,0.7
			h-3.7c-0.5,0-0.7-0.2-0.7-0.7v-34.8c0-0.5,0.2-0.7,0.7-0.7h3.7c0.5,0,0.7,0.2,0.7,0.7v3.1c0,0.1,0,0.2,0.1,0.2
			c0.1,0,0.1,0,0.2-0.1c2.1-3,5.3-4.4,9.7-4.4C769.6,102.1,772.7,103.2,774.9,105.4z"/>
		<path class="st2" d="M809.3,88.7h3.7c0.5,0,0.7,0.2,0.7,0.7v48.7c0,0.5-0.2,0.7-0.7,0.7h-3.7c-0.5,0-0.7-0.2-0.7-0.7v-3
			c0-0.1,0-0.2-0.1-0.2c-0.1,0-0.2,0-0.3,0.1c-1.1,1.4-2.4,2.5-3.9,3.2c-1.6,0.8-3.3,1.1-5.2,1.1c-3.3,0-6.2-0.9-8.4-2.6
			c-2.3-1.7-3.8-4.1-4.7-7c-0.7-2.1-1-5.2-1-9.1c0-4,0.3-6.9,0.9-8.9c0.9-3.1,2.4-5.5,4.7-7.2c2.3-1.7,5.1-2.6,8.5-2.6
			c1.9,0,3.6,0.4,5.2,1.1c1.6,0.7,2.9,1.8,3.9,3.2c0.1,0.1,0.2,0.1,0.3,0.1c0.1,0,0.1-0.1,0.1-0.2V89.4
			C808.6,88.9,808.8,88.7,809.3,88.7z M808.2,126.1c0.2-1.3,0.3-3.1,0.3-5.4c0-2.3-0.1-4.1-0.3-5.4c-0.2-1.3-0.5-2.5-1-3.5
			c-0.6-1.6-1.5-2.9-2.8-3.9c-1.3-1-2.9-1.5-4.7-1.5c-1.9,0-3.6,0.5-4.9,1.4c-1.4,1-2.4,2.2-3,3.8c-0.6,1.1-1,2.2-1.3,3.5
			c-0.3,1.3-0.4,3.1-0.4,5.5c0,2.2,0.1,4,0.3,5.3c0.2,1.3,0.5,2.4,1,3.4c0.6,1.7,1.6,3.1,3,4.1c1.5,1,3.2,1.5,5.2,1.5
			c1.9,0,3.5-0.5,4.8-1.5c1.3-1,2.2-2.3,2.9-4C807.7,128.5,808,127.4,808.2,126.1z"/>
	</g>
	<g>
		<path class="st3" d="M82.9,0H67.6c0,0-0.1,45.9-0.1,45.9c0,2.2-1.8,4-4,4c-1.1,0-2.1-0.4-2.8-1.1c0,0-22.2-22.1-22.2-22.1
			L27.7,37.4c0,0,15.7,15.9,22.4,22.4C60.3,69.5,83,67.5,83,44.1C83.1,37.4,82.9,0,82.9,0z"/>
		<path class="st2" d="M151.1,83.2V67.9c0,0-45.9-0.1-45.9-0.1c-2.2,0-4-1.8-4-4c0-1.1,0.4-2.1,1.1-2.8c0,0,22.1-22.2,22.1-22.2
			L113.7,28c0,0-15.9,15.7-22.4,22.4c-9.7,10.1-7.7,32.8,15.7,32.8C113.7,83.3,151.1,83.2,151.1,83.2z"/>
		<path class="st0" d="M0,67.7V83c0,0,45.9,0.1,45.9,0.1c2.2,0,4,1.8,4,4c0,1.1-0.4,2.1-1.1,2.8c0,0-22.1,22.2-22.1,22.2l10.8,10.8
			c0,0,15.9-15.7,22.4-22.4c9.7-10.1,7.7-32.8-15.7-32.8C37.4,67.6,0,67.7,0,67.7z"/>
		<path class="st4" d="M68.3,150.8h15.3c0,0,0.1-45.9,0.1-45.9c0-2.2,1.8-4,4-4c1.1,0,2.1,0.4,2.8,1.1c0,0,22.2,22.1,22.2,22.1
			l10.8-10.8c0,0-15.7-15.9-22.4-22.4c-10.1-9.7-32.8-7.7-32.8,15.7C68.2,113.4,68.3,150.8,68.3,150.8z"/>
	</g>
</g>
</svg>
