<svg id="Layer_1" data-name="Layer 1" xmlns="http://www.w3.org/2000/svg" viewBox="0 0 251.45 247.4"><defs><style>.cls-1{fill:#d63830;}.cls-2{fill:#a5c252;}.cls-3{fill:#e4993c;}.cls-4{fill:#f4ca45;}.cls-5{fill:#3e80ac;}.cls-6{fill:#65b0d8;}.cls-7{fill:#a73387;}.cls-8{fill:#fff;stroke:#010101;stroke-miterlimit:10;}</style></defs><path class="cls-1" d="M245.41,140.36a1.25,1.25,0,0,1-1.2.07c-8-1.91-16-3.54-23.94-5.49-2.55-.63-5.14-1.17-7.72-1.7-5.31-1.09-10.57-2.45-15.86-3.65q-17-3.86-33.92-7.66c-2-.46-2-.47-1.58-2.55q1.8-8.11,3.6-16.24c.25-1.14.48-2.28.66-3.43.23-1.42.9-1.71,2.32-1.38,7.58,1.78,15.18,3.45,22.78,5.15q19.14,4.3,38.27,8.61c6.74,1.53,13.47,3.15,20.22,4.67,1.31.29,1.62.85,1.33,2.13-1.26,5.45-2.46,10.92-3.66,16.39-.24,1.09-.39,2.2-.59,3.3a3.45,3.45,0,0,1-.71,1.78Z" transform="translate(0.97 -1.3)"/><path class="cls-2" d="M8.21,161c2.16-.52,4.13-1,6.1-1.46q17.38-3.93,34.77-7.85t34.87-8c2.12-.49,4.25-1,6.36-1.53,1.2-.33,1.74,0,2,1.24,1.39,6.09,2.84,12.16,4.27,18.24.05.2.05.4.1.6.87,3.41,1.21,3.11-2.22,3.9-8.06,1.87-16.13,3.69-24.21,5.52q-14.19,3.2-28.37,6.38c-9,2-18,4.08-27,6.21-1.45.34-2,0-2.28-1.41-1.52-6.73-3.16-13.44-4.76-20.16-.17-.72-.44-1.44.36-1.72Z" transform="translate(0.97 -1.3)"/><path class="cls-3" d="M186.31,228.56l-5.43-11.19q-3.21-6.65-6.41-13.3-2.64-5.48-5.29-11c-2.14-4.43-4.3-8.85-6.43-13.28s-4.2-8.79-6.31-13.17-4.2-8.78-6.38-13.14c-1.07-2.14-1-2.26,1.06-3.27,4.57-2.2,9.1-4.47,13.65-6.71,1.45-.72,3-1.33,4.36-2.15s1.82.06,2.28,1c1.42,3,2.81,6,4.24,8.93,2.34,4.84,4.71,9.66,7,14.51,2.81,5.85,5.57,11.73,8.39,17.57,2.2,4.57,4.49,9.1,6.7,13.67q4.18,8.63,8.28,17.29c.54,1.15,1.18,2.24,1.72,3.39s.18,1.83-.9,2.36c-2.82,1.38-5.62,2.82-8.45,4.2-3.14,1.54-6.31,3-9.45,4.58-1.18.6-2.29,1.09-2.67-.35Z" transform="translate(0.97 -1.3)"/><path class="cls-4" d="M139.69,170.55a2.7,2.7,0,0,1-.4,1.81q-4,8.4-7.95,16.81Q126.17,200,121,210.9q-8.73,18.3-17.43,36.61c-.57,1.21-1.12,1.5-2.41.87-6-2.94-12-5.79-18-8.66-2-1-2.08-1.06-1.13-3.06q6.6-13.9,13.22-27.8,11.24-23.6,22.48-47.18c.49-1,1-1.21,2-.72,6.45,3.12,12.91,6.19,19.37,9.28l.61.31Z" transform="translate(0.97 -1.3)"/><path class="cls-5" d="M109.06,88.15a7.48,7.48,0,0,1-.79.07q-10.74.11-21.48.21c-1,0-1.29-.52-1.29-1.44q0-11.2-.1-22.41-.16-22.71-.35-45.41c0-5.33,0-10.67-.09-16,0-1.36.45-1.72,1.79-1.72,6.8,0,13.6,0,20.41-.15,1.46,0,1.9.43,1.9,1.92q.09,26.9.32,53.78.11,14.77.23,29.56C109.62,87.12,109.71,87.7,109.06,88.15Z" transform="translate(0.97 -1.3)"/><path class="cls-6" d="M21,56.42c.89-.76,1.38-.21,1.89.2L32.09,64c7.38,5.88,14.78,11.73,22.15,17.63C62.32,88,70.38,94.55,78.45,101q5.1,4.1,10.25,8.12c.68.53.89,1,.29,1.75q-6.52,8.33-13,16.72c-.78,1-1.33,1-2.31.23q-15-12-30-24-13.23-10.53-26.49-21c-3-2.4-6-4.85-9-7.22-1-.74-1.14-1.33-.33-2.36,4.28-5.42,8.5-10.88,12.74-16.33C20.79,56.7,21,56.48,21,56.42Z" transform="translate(0.97 -1.3)"/><path class="cls-7" d="M146.25,92.69c-1.09,1-1.73.61-2.57-.47-3.05-3.92-6.27-7.71-9.34-11.6-1.16-1.47-2.29-3-3.55-4.37-.84-.93-.76-1.67.32-2.52,4.69-3.7,9.31-7.51,14-11.25,3.91-3.14,7.86-6.25,11.77-9.39,3.67-3,7.32-5.94,11-8.9,3.15-2.55,6.32-5.08,9.48-7.63l12-9.64,7-5.63a1,1,0,0,1,1.68.18c2.52,3.11,5.07,6.19,7.61,9.29,2,2.39,3.86,4.84,5.87,7.18.68.8.79,1.29-.07,2-3.45,2.82-6.86,5.7-10.31,8.52-3.85,3.14-7.75,6.22-11.62,9.33l-11.95,9.64-8.39,6.79L157,83.94Z" transform="translate(0.97 -1.3)"/><path class="cls-2" d="M2.47,135.17A18.38,18.38,0,0,1,8.1,109.69a18.63,18.63,0,1,1,19.73,31.6c-8.38,5.33-20.4,2.65-25.36-6.12Z" transform="translate(0.97 -1.3)"/><path class="cls-3" d="M159.69,242.81a18.66,18.66,0,0,1-19.89-31.57,18.66,18.66,0,0,1,19.89,31.57Z" transform="translate(0.97 -1.3)"/><path class="cls-4" d="M69.7,223.59A18.63,18.63,0,1,1,75.47,198a18.48,18.48,0,0,1-5.77,25.57Z" transform="translate(0.97 -1.3)"/><path class="cls-7" d="M234,66.45a18.16,18.16,0,0,1-5.63,25.62A18.66,18.66,0,1,1,234,66.45Z" transform="translate(0.97 -1.3)"/><path class="cls-1" d="M210.39,152.59a18.69,18.69,0,0,1,25.77,5.93c5.28,8.69,3.24,19.89-5.75,25.59-8.84,5.6-20.07,2.87-25.72-6a18.74,18.74,0,0,1,5.7-25.5Z" transform="translate(0.97 -1.3)"/><path class="cls-5" d="M135.21,4.28a18.61,18.61,0,1,1-5.63,25.58A18.54,18.54,0,0,1,135.21,4.28Z" transform="translate(0.97 -1.3)"/><path class="cls-6" d="M46.39,26.17a18.33,18.33,0,0,1,25.63,6A18.68,18.68,0,0,1,66.26,57.6,18.59,18.59,0,0,1,46.39,26.17Z" transform="translate(0.97 -1.3)"/><rect class="cls-8" x="-0.47" y="1.3" height="0.06" transform="translate(0.03 1.36) rotate(180)"/></svg>