<?xml version="1.0" encoding="utf-8"?>
<!-- Generator: Adobe Illustrator 26.2.1, SVG Export Plug-In . SVG Version: 6.00 Build 0)  -->
<svg version="1.1" id="Layer_1" xmlns="http://www.w3.org/2000/svg" xmlns:xlink="http://www.w3.org/1999/xlink" x="0px" y="0px"
	 viewBox="0 0 702.91 288.87" style="enable-background:new 0 0 702.91 288.87;" xml:space="preserve">
<style type="text/css">
	.st0{fill:#004D6D;}
	.st1{fill:#0782A4;}
	.st2{fill:none;}
	.st3{fill:#82C341;}
	.st4{fill:#27AAE1;}
</style>
<g>
	<path class="st0" d="M227,127.52c-0.92-0.97-2.18-1.74-3.75-2.3c-1.55-0.54-3.54-0.82-5.9-0.82h-13.52v36.75h4.15v-15.9h7.33
		c1.68,0,3.38-0.15,5.04-0.46c1.69-0.31,3.21-0.85,4.55-1.62c1.35-0.78,2.46-1.85,3.3-3.2c0.85-1.35,1.28-3.09,1.28-5.15
		c0-1.36-0.18-2.69-0.54-3.93C228.57,129.63,227.92,128.5,227,127.52z M215.4,141.61h-7.43v-13.55h8.43c3.13,0,5.43,0.56,6.84,1.67
		c1.4,1.1,2.08,2.69,2.08,4.85c0,1.47-0.23,2.66-0.69,3.56c-0.45,0.88-1.09,1.59-1.91,2.1c-0.84,0.52-1.88,0.88-3.09,1.07
		C218.4,141.51,216.97,141.61,215.4,141.61z"/>
	<path class="st0" d="M235.51,158.29c1.11,1.17,2.44,2.06,3.93,2.64c1.49,0.58,3.1,0.89,4.8,0.93h0.01c1.84,0,3.55-0.34,5.08-1.01
		c1.53-0.67,2.85-1.64,3.93-2.87c1.08-1.23,1.92-2.72,2.5-4.43c0.58-1.7,0.87-3.62,0.87-5.72c0-1.92-0.25-3.76-0.74-5.45
		c-0.5-1.71-1.27-3.21-2.29-4.46c-1.03-1.25-2.33-2.26-3.88-3c-1.54-0.74-3.38-1.11-5.46-1.11c-2.05,0-3.87,0.37-5.41,1.11
		c-1.54,0.74-2.85,1.76-3.88,3.03c-1.03,1.27-1.81,2.76-2.32,4.45c-0.51,1.68-0.77,3.51-0.77,5.43c0,2.3,0.33,4.35,0.97,6.08
		C233.5,155.65,234.39,157.12,235.51,158.29z M244.25,137.26c1.53,0,2.83,0.27,3.88,0.81c1.04,0.54,1.91,1.28,2.57,2.21
		c0.67,0.94,1.17,2.07,1.49,3.35c0.33,1.3,0.49,2.72,0.49,4.21c0,1.36-0.16,2.69-0.49,3.96c-0.32,1.25-0.83,2.39-1.5,3.38
		c-0.66,0.98-1.53,1.77-2.6,2.36c-1.05,0.58-2.35,0.88-3.84,0.88c-1.37,0-2.59-0.26-3.64-0.76c-1.04-0.5-1.92-1.22-2.62-2.14
		c-0.7-0.93-1.24-2.05-1.61-3.35c-0.37-1.31-0.56-2.76-0.56-4.32c0-1.36,0.16-2.7,0.49-3.98c0.32-1.26,0.82-2.4,1.5-3.38
		c0.66-0.96,1.54-1.75,2.6-2.33C241.46,137.55,242.76,137.26,244.25,137.26z"/>
	<rect x="261.33" y="124.41" class="st0" width="3.75" height="36.75"/>
	<rect x="271.78" y="124.41" class="st0" width="4.05" height="5.2"/>
	<rect x="271.93" y="134.51" class="st0" width="3.75" height="26.65"/>
	<path class="st0" d="M303.31,155.92c0.59-1.2,1.03-2.56,1.31-4.02l0.08-0.44h-3.97l-0.05,0.31c-0.35,2.07-1.18,3.72-2.46,4.89
		c-1.27,1.16-3,1.75-5.12,1.75c-1.5,0-2.78-0.29-3.82-0.88c-1.04-0.58-1.91-1.38-2.57-2.36c-0.67-0.99-1.17-2.12-1.47-3.38
		c-0.31-1.26-0.46-2.58-0.46-3.91c0-1.3,0.16-2.6,0.49-3.88c0.32-1.27,0.82-2.42,1.5-3.43c0.67-1,1.53-1.81,2.58-2.41
		c1.04-0.6,2.3-0.9,3.76-0.9c1.9,0,3.48,0.52,4.71,1.54c1.23,1.03,2.12,2.49,2.63,4.34l0.08,0.27h3.77l-0.07-0.43
		c-0.48-3.12-1.7-5.45-3.62-6.94c-1.91-1.48-4.43-2.23-7.5-2.23c-1.98,0-3.77,0.39-5.29,1.17c-1.53,0.77-2.82,1.82-3.85,3.13
		c-1.02,1.3-1.81,2.81-2.34,4.5c-0.53,1.68-0.79,3.46-0.79,5.29c0,1.92,0.24,3.76,0.71,5.45c0.48,1.71,1.23,3.21,2.22,4.46
		c1,1.26,2.29,2.26,3.83,2.98c1.54,0.72,3.4,1.09,5.51,1.09c1.67,0,3.18-0.24,4.48-0.72c1.31-0.48,2.45-1.17,3.4-2.05
		C301.93,158.2,302.71,157.14,303.31,155.92z"/>
	<rect x="309.82" y="134.51" class="st0" width="3.75" height="26.65"/>
	<rect x="309.68" y="124.41" class="st0" width="4.05" height="5.2"/>
	<path class="st0" d="M339.91,137.67c-0.97-1.42-2.19-2.43-3.62-3.01c-1.4-0.56-2.95-0.85-4.59-0.85c-1.86,0-3.49,0.42-4.82,1.26
		c-1.08,0.67-2.13,1.51-3.15,2.5v-3.06h-3.75v26.65h3.75v-14.33c0-0.88,0.03-1.71,0.1-2.47c0.06-0.73,0.24-1.51,0.53-2.31
		c0.22-0.63,0.54-1.24,0.95-1.8c0.41-0.57,0.91-1.08,1.5-1.52c0.58-0.44,1.25-0.8,1.98-1.07c0.72-0.27,1.54-0.4,2.42-0.4
		c2.28,0,3.92,0.55,4.87,1.62c0.97,1.09,1.46,2.78,1.46,5v17.28h3.75v-17.33c0-1.08-0.06-2.12-0.18-3.12
		C340.97,139.67,340.57,138.65,339.91,137.67z"/>
	<path class="st0" d="M358.5,171.76c2.51,0,4.6-0.37,6.21-1.11c1.62-0.74,2.91-1.75,3.84-2.99c0.93-1.24,1.58-2.69,1.94-4.32
		c0.35-1.6,0.53-3.3,0.53-5.06v-23.78h-3.75v3.75c-0.33-0.48-0.71-0.93-1.14-1.34c-0.71-0.69-1.49-1.26-2.34-1.71
		c-0.84-0.44-1.72-0.79-2.6-1.03c-0.9-0.24-1.79-0.36-2.65-0.36c-2.15,0-4,0.37-5.51,1.09c-1.51,0.72-2.78,1.73-3.76,2.98
		c-0.98,1.26-1.7,2.76-2.14,4.46c-0.44,1.69-0.66,3.52-0.66,5.44c0,1.83,0.24,3.61,0.71,5.3c0.48,1.7,1.21,3.22,2.19,4.5
		c0.98,1.29,2.24,2.33,3.73,3.11c1.5,0.77,3.28,1.17,5.3,1.17c1.88,0,3.71-0.42,5.44-1.26c1.37-0.66,2.52-1.59,3.44-2.76
		c-0.02,1.07-0.09,2.13-0.22,3.15c-0.18,1.38-0.57,2.63-1.18,3.71c-0.6,1.07-1.49,1.95-2.66,2.61c-1.17,0.67-2.76,1-4.71,1
		c-0.87,0-1.73-0.07-2.54-0.2c-0.79-0.13-1.52-0.36-2.16-0.69c-0.63-0.32-1.19-0.78-1.66-1.35c-0.46-0.57-0.81-1.32-1.03-2.23
		l-0.07-0.29h-3.89l0.02,0.39c0.04,0.81,0.29,1.7,0.77,2.63c0.47,0.92,1.17,1.78,2.07,2.54c0.9,0.76,2.06,1.4,3.47,1.89
		C354.88,171.5,356.57,171.76,358.5,171.76z M358.9,158.41c-1.5,0-2.8-0.3-3.87-0.88c-1.08-0.58-1.98-1.4-2.67-2.41
		c-0.71-1.03-1.23-2.24-1.54-3.6c-0.32-1.38-0.46-2.88-0.39-4.49c0-1.58,0.22-3,0.65-4.2c0.43-1.2,1.04-2.22,1.8-3.05
		c0.76-0.82,1.66-1.46,2.67-1.88c1.02-0.43,2.14-0.65,3.35-0.65c1.33,0,2.54,0.27,3.58,0.81c1.05,0.54,1.93,1.28,2.62,2.22
		c0.7,0.94,1.25,2.08,1.62,3.38c0.37,1.31,0.56,2.75,0.56,4.27c0,1.43-0.2,2.79-0.58,4.07c-0.39,1.27-0.95,2.39-1.66,3.33
		c-0.71,0.94-1.6,1.69-2.63,2.25C361.37,158.13,360.2,158.41,358.9,158.41z"/>
	<path class="st0" d="M412.19,157.11l3.34,4.04h5.04l-6.2-7.31c0.84-1.36,1.44-2.85,1.78-4.41c0.35-1.63,0.57-3.29,0.64-4.94
		l0.02-0.39h-3.77v0.38c0,1.2-0.09,2.4-0.27,3.57c-0.15,0.96-0.46,1.89-0.92,2.78l-8.42-9.95c0.8-0.49,1.58-0.99,2.33-1.48
		c0.89-0.58,1.67-1.23,2.34-1.93c0.68-0.71,1.22-1.54,1.62-2.46c0.4-0.93,0.61-2.03,0.61-3.27c0-0.98-0.2-1.93-0.58-2.82
		c-0.38-0.89-0.94-1.68-1.64-2.35c-0.7-0.66-1.55-1.19-2.52-1.58c-1.94-0.76-4.38-0.73-6.42-0.11c-1.03,0.31-1.94,0.79-2.7,1.42
		c-0.77,0.63-1.39,1.42-1.85,2.35c-0.46,0.93-0.69,2-0.69,3.19c0,1.66,0.42,3.2,1.26,4.57c0.72,1.19,1.51,2.31,2.37,3.35
		c-1.02,0.49-2,1.06-2.91,1.7c-1.06,0.73-2,1.59-2.8,2.54c-0.8,0.96-1.46,2.03-1.93,3.2c-0.48,1.18-0.73,2.47-0.73,3.84
		c0,1.64,0.31,3.17,0.91,4.53c0.6,1.36,1.44,2.54,2.49,3.5c1.05,0.96,2.3,1.72,3.7,2.25c1.41,0.53,2.93,0.8,4.54,0.8
		c2.45,0,4.62-0.41,6.46-1.23C409.02,160.1,410.67,158.84,412.19,157.11z M402.1,127.86c0.86,0,1.6,0.18,2.21,0.55
		c0.61,0.37,1.1,0.84,1.45,1.4c0.35,0.56,0.55,1.19,0.59,1.88c0.05,0.68-0.07,1.34-0.34,1.95c-0.47,1.07-1.19,1.95-2.15,2.62
		c-0.92,0.64-1.83,1.25-2.73,1.79c-0.28-0.34-0.59-0.73-0.94-1.17c-0.43-0.55-0.84-1.12-1.21-1.69c-0.37-0.58-0.69-1.18-0.95-1.79
		c-0.25-0.58-0.37-1.12-0.37-1.6c0-0.61,0.12-1.15,0.36-1.63c0.24-0.48,0.57-0.9,0.98-1.23c0.41-0.34,0.89-0.6,1.41-0.79
		C400.95,127.95,401.51,127.86,402.1,127.86z M401.05,158.66c-1.12,0-2.16-0.18-3.09-0.53c-0.93-0.35-1.75-0.84-2.42-1.47
		c-0.68-0.63-1.22-1.4-1.61-2.3c-0.39-0.9-0.59-1.93-0.59-3.07c0-0.91,0.18-1.82,0.52-2.69c0.35-0.88,0.83-1.71,1.42-2.48
		c0.59-0.77,1.31-1.48,2.13-2.11c0.75-0.58,1.58-1.08,2.45-1.51l9.86,11.73c-1.12,1.29-2.37,2.35-3.73,3.15
		C404.57,158.23,402.91,158.66,401.05,158.66z"/>
	<path class="st0" d="M467.72,148.56h-4.32l-0.07,0.29c-0.33,1.39-0.81,2.69-1.44,3.86c-0.62,1.16-1.41,2.18-2.32,3.03
		c-0.91,0.85-1.99,1.52-3.21,2c-1.22,0.48-2.58,0.72-4.06,0.72c-2.39,0-4.4-0.45-5.96-1.35c-1.57-0.9-2.84-2.09-3.77-3.55
		c-0.94-1.47-1.62-3.17-2.02-5.05c-0.41-1.89-0.62-3.85-0.62-5.82c0-2.1,0.24-4.11,0.71-5.98c0.47-1.86,1.21-3.53,2.2-4.95
		c0.98-1.41,2.24-2.55,3.75-3.39c1.5-0.83,3.33-1.25,5.42-1.25c2.98,0,5.41,0.63,7.24,1.88c1.81,1.24,3.07,3.37,3.75,6.32l0.07,0.29
		h4.24l-0.07-0.43c-0.3-1.9-0.86-3.6-1.67-5.05c-0.8-1.45-1.84-2.69-3.09-3.69c-1.25-0.99-2.7-1.74-4.32-2.24
		c-1.61-0.49-3.37-0.74-5.23-0.74c-2.43,0-4.71,0.35-6.77,1.04c-2.08,0.7-3.91,1.84-5.45,3.39c-1.53,1.55-2.75,3.58-3.61,6.01
		c-0.86,2.43-1.3,5.42-1.3,8.88c0,2.59,0.29,5.06,0.86,7.37c0.58,2.32,1.51,4.39,2.79,6.15c1.28,1.77,2.95,3.2,4.96,4.24
		c2.01,1.04,4.46,1.57,7.27,1.57c2.43,0,4.59-0.35,6.41-1.05c1.82-0.7,3.39-1.66,4.67-2.85c1.28-1.19,2.32-2.6,3.11-4.18
		c0.77-1.56,1.37-3.25,1.78-5.01L467.72,148.56z"/>
	<path class="st0" d="M494.88,142.38c-0.5-1.71-1.27-3.21-2.29-4.46c-1.03-1.25-2.33-2.26-3.88-3c-1.54-0.74-3.38-1.11-5.46-1.11
		c-2.05,0-3.87,0.37-5.41,1.11c-1.54,0.74-2.85,1.76-3.88,3.03c-1.03,1.27-1.81,2.76-2.32,4.45c-0.51,1.68-0.77,3.51-0.77,5.43
		c0,2.3,0.33,4.35,0.97,6.08c0.65,1.74,1.54,3.21,2.66,4.38c1.11,1.17,2.44,2.06,3.93,2.64c1.49,0.58,3.1,0.89,4.8,0.93h0.01
		c1.84,0,3.55-0.34,5.08-1.01c1.53-0.67,2.85-1.64,3.93-2.87c1.08-1.23,1.92-2.72,2.5-4.43c0.58-1.7,0.87-3.62,0.87-5.72
		C495.62,145.91,495.37,144.07,494.88,142.38z M483.25,137.26c1.53,0,2.84,0.27,3.88,0.81c1.04,0.54,1.91,1.28,2.57,2.21
		c0.67,0.94,1.17,2.07,1.49,3.35c0.33,1.3,0.49,2.72,0.49,4.21c0,1.36-0.16,2.69-0.49,3.96c-0.32,1.25-0.83,2.39-1.5,3.38
		c-0.66,0.98-1.53,1.77-2.6,2.36c-1.05,0.58-2.35,0.88-3.84,0.88c-1.37,0-2.59-0.26-3.64-0.76c-1.04-0.5-1.92-1.22-2.62-2.14
		c-0.7-0.93-1.24-2.05-1.61-3.35c-0.37-1.31-0.56-2.76-0.56-4.32c0-1.36,0.16-2.7,0.49-3.98c0.32-1.26,0.82-2.4,1.5-3.38
		c0.66-0.96,1.54-1.75,2.6-2.33C480.46,137.55,481.75,137.26,483.25,137.26z"/>
	<path class="st0" d="M533.97,137.16c-0.6-1-1.46-1.82-2.57-2.44c-1.1-0.61-2.58-0.92-4.41-0.92c-1.92,0-3.66,0.43-5.16,1.27
		c-1.31,0.74-2.4,1.83-3.25,3.24c-0.21-0.45-0.45-0.89-0.71-1.29c-0.4-0.63-0.92-1.19-1.54-1.67c-0.61-0.47-1.37-0.85-2.24-1.14
		c-0.87-0.28-1.93-0.42-3.17-0.42c-1.75,0-3.4,0.41-4.88,1.22c-1.15,0.63-2.1,1.49-2.85,2.56v-3.08h-3.75v26.65h3.75v-14.33
		c0-0.52,0.03-1.1,0.08-1.72c0.05-0.61,0.14-1.23,0.27-1.85c0.13-0.61,0.3-1.21,0.51-1.77c0.2-0.55,0.46-1.03,0.77-1.43
		c0.73-0.95,1.58-1.66,2.54-2.11c0.96-0.46,1.98-0.69,3.01-0.69c2,0,3.37,0.49,4.07,1.45c0.73,1,1.1,2.4,1.1,4.18v18.28h3.75v-14.33
		c0-0.52,0.03-1.1,0.08-1.72c0.05-0.61,0.14-1.24,0.27-1.85c0.13-0.62,0.3-1.21,0.51-1.77c0.2-0.55,0.46-1.03,0.77-1.43
		c0.72-0.95,1.58-1.66,2.54-2.11c0.96-0.46,1.98-0.69,3.01-0.69c2,0,3.37,0.49,4.07,1.45c0.73,1,1.1,2.4,1.1,4.18v18.28h3.75v-16.72
		c0-1.3-0.09-2.6-0.28-3.86C534.95,139.3,534.56,138.15,533.97,137.16z"/>
	<path class="st0" d="M576.57,161.16v-16.72c0-1.31-0.09-2.61-0.28-3.86c-0.19-1.28-0.58-2.42-1.17-3.41c-0.6-1-1.46-1.82-2.56-2.44
		c-1.1-0.61-2.59-0.92-4.41-0.92c-1.92,0-3.66,0.43-5.16,1.27c-1.3,0.74-2.39,1.83-3.24,3.24c-0.21-0.46-0.45-0.89-0.71-1.3
		c-0.41-0.64-0.92-1.2-1.54-1.67c-0.61-0.47-1.37-0.86-2.24-1.14c-0.86-0.28-1.93-0.42-3.16-0.42c-1.76,0-3.4,0.41-4.88,1.22
		c-1.15,0.63-2.1,1.49-2.84,2.56v-3.08h-3.75v26.65h3.75v-14.33c0-0.54,0.02-1.12,0.07-1.72c0.05-0.63,0.14-1.25,0.27-1.85
		c0.13-0.62,0.3-1.22,0.51-1.77c0.2-0.54,0.46-1.02,0.77-1.43c0.72-0.95,1.58-1.66,2.54-2.11c0.96-0.46,1.97-0.69,3.01-0.69
		c2,0,3.37,0.49,4.07,1.45c0.73,1,1.1,2.4,1.1,4.18v18.28h3.75v-14.33c0-0.51,0.02-1.09,0.07-1.72c0.05-0.61,0.14-1.24,0.27-1.85
		c0.13-0.61,0.3-1.21,0.51-1.77c0.2-0.55,0.46-1.03,0.77-1.43c0.73-0.95,1.58-1.66,2.54-2.11c0.96-0.46,1.97-0.69,3.01-0.69
		c2,0,3.37,0.49,4.07,1.45c0.73,1,1.1,2.4,1.1,4.18v18.28H576.57z"/>
	<path class="st0" d="M603.47,161.16v-26.65h-3.75v14.48c0,1.39-0.18,2.68-0.53,3.84c-0.35,1.15-0.85,2.16-1.49,2.98
		c-0.63,0.82-1.41,1.46-2.34,1.92c-0.92,0.46-1.99,0.69-3.16,0.69c-2.24,0-3.87-0.55-4.82-1.65c-0.97-1.1-1.46-2.75-1.46-4.88
		v-17.38h-3.75v17.43c0,1.39,0.16,2.7,0.49,3.87c0.33,1.2,0.88,2.26,1.62,3.16c0.75,0.91,1.75,1.63,2.97,2.13
		c1.21,0.5,2.72,0.75,4.49,0.75c1.16,0,2.21-0.15,3.12-0.44c0.89-0.29,1.69-0.66,2.36-1.09c0.67-0.43,1.27-0.91,1.79-1.43
		c0.25-0.25,0.49-0.5,0.71-0.73v3H603.47z"/>
	<path class="st0" d="M629.41,137.67c-0.97-1.42-2.19-2.43-3.62-3.01c-1.4-0.56-2.95-0.85-4.59-0.85c-1.86,0-3.49,0.42-4.82,1.26
		c-1.08,0.67-2.13,1.51-3.15,2.5v-3.06h-3.75v26.65h3.75v-14.33c0-0.88,0.03-1.71,0.1-2.47c0.06-0.73,0.24-1.51,0.53-2.31
		c0.22-0.63,0.54-1.24,0.95-1.8c0.41-0.57,0.91-1.08,1.5-1.52c0.58-0.44,1.25-0.8,1.98-1.07c0.72-0.27,1.54-0.4,2.42-0.4
		c2.28,0,3.92,0.55,4.87,1.62c0.97,1.09,1.46,2.78,1.46,5v17.28h3.75v-17.33c0-1.08-0.06-2.12-0.18-3.12
		C630.47,139.67,630.07,138.65,629.41,137.67z"/>
	<rect x="637.07" y="124.41" class="st0" width="4.05" height="5.2"/>
	<rect x="637.22" y="134.51" class="st0" width="3.75" height="26.65"/>
	<path class="st0" d="M655.56,158.31c-1.02,0.16-2,0.11-2.51-0.08c-0.27-0.1-0.46-0.26-0.58-0.48c-0.14-0.25-0.22-0.58-0.25-0.99
		c-0.03-0.46-0.05-1-0.05-1.62v-17.38h4.85v-3.25h-4.85v-7.2h-3.75v7.2h-3.65v3.25h3.65v18.58c0,2.06,0.42,3.47,1.29,4.3
		c0.85,0.82,2.09,1.23,3.69,1.23c0.76,0,1.47-0.09,2.1-0.26c0.59-0.16,1.07-0.28,1.42-0.34l0.31-0.06v-3.24l-0.47,0.12
		C656.37,158.16,655.97,158.25,655.56,158.31z"/>
	<path class="st0" d="M678.14,134.51l-8.04,21.55l-8.04-21.55h-4.16l10.19,26.41c-0.28,0.56-0.53,1.23-0.75,1.99
		c-0.23,0.8-0.52,1.57-0.85,2.29c-0.33,0.71-0.75,1.32-1.25,1.82c-0.46,0.46-1.05,0.69-1.78,0.69c-0.41,0-0.82-0.03-1.22-0.09
		l-1.66-0.27v3.58l0.28,0.07c0.41,0.1,0.87,0.19,1.37,0.26c0.5,0.07,1.03,0.1,1.58,0.1c1.1,0,2.07-0.26,2.88-0.79
		c0.79-0.51,1.52-1.25,2.16-2.21c0.62-0.93,1.22-2.07,1.78-3.39c0.54-1.29,1.13-2.77,1.73-4.41l9.84-26.06H678.14z"/>
	<path class="st0" d="M225.68,193.78c-1-0.75-2.15-1.36-3.43-1.81c-1.26-0.44-2.57-0.82-3.91-1.14c-1.34-0.32-2.65-0.62-3.93-0.9
		c-1.25-0.28-2.42-0.64-3.46-1.08c-1.02-0.43-1.89-0.98-2.59-1.65c-0.67-0.64-1.1-1.51-1.29-2.6c-0.16-0.87-0.11-1.76,0.14-2.63
		c0.25-0.87,0.71-1.68,1.37-2.4c0.66-0.72,1.56-1.32,2.69-1.78c1.13-0.46,2.56-0.7,4.23-0.7c1.09,0,2.17,0.15,3.2,0.44
		c1.01,0.29,1.93,0.74,2.72,1.34c0.78,0.6,1.41,1.38,1.86,2.31c0.46,0.95,0.69,2.08,0.69,3.39v0.38h4v-0.38
		c0-1.51-0.26-2.95-0.78-4.28c-0.52-1.34-1.3-2.54-2.34-3.56c-1.03-1.02-2.35-1.83-3.91-2.41c-1.55-0.58-3.39-0.87-5.46-0.87
		c-2.03,0-3.86,0.28-5.42,0.82c-1.57,0.55-2.9,1.3-3.95,2.22c-1.05,0.93-1.86,2.02-2.39,3.23c-0.54,1.21-0.81,2.47-0.81,3.75
		c0,1.82,0.33,3.35,1,4.56c0.66,1.19,1.53,2.18,2.58,2.95c1.04,0.75,2.26,1.36,3.6,1.8c1.32,0.43,2.69,0.82,4.08,1.13
		c1.38,0.32,2.73,0.64,4.04,0.97c1.28,0.33,2.43,0.76,3.41,1.29c0.96,0.52,1.75,1.2,2.35,2.02c0.58,0.8,0.88,1.87,0.88,3.18
		c0,0.95-0.17,1.86-0.5,2.71c-0.33,0.84-0.84,1.6-1.53,2.24c-0.69,0.64-1.6,1.16-2.71,1.54c-1.12,0.38-2.48,0.58-4.03,0.58
		c-1.33,0-2.59-0.16-3.75-0.46c-1.15-0.3-2.17-0.79-3.04-1.46c-0.87-0.66-1.59-1.54-2.15-2.6c-0.56-1.07-0.91-2.39-1.03-3.93
		l-0.03-0.34h-4.02v0.38c0,2.01,0.34,3.79,1.01,5.28c0.67,1.5,1.62,2.77,2.82,3.78c1.2,1.01,2.64,1.78,4.28,2.27
		c1.63,0.49,3.41,0.74,5.31,0.74c4.23,0,7.58-0.95,9.93-2.83c2.38-1.9,3.59-4.61,3.59-8.04c0-1.78-0.31-3.29-0.92-4.5
		C227.5,195.54,226.69,194.55,225.68,193.78z"/>
	<path class="st0" d="M254.75,208.26c-0.18-0.13-0.48-0.56-0.48-1.93v-14.1c0-1.55-0.26-2.88-0.76-3.96
		c-0.51-1.09-1.22-1.97-2.12-2.62c-0.89-0.64-1.94-1.12-3.13-1.41c-2.44-0.6-5.37-0.57-7.83,0.05c-1.29,0.33-2.44,0.85-3.43,1.56
		c-0.99,0.71-1.81,1.65-2.43,2.77c-0.62,1.13-0.99,2.5-1.1,4.08l-0.03,0.4h3.79l0.04-0.33c0.13-1.08,0.39-1.98,0.78-2.69
		c0.38-0.69,0.88-1.26,1.49-1.67c0.61-0.42,1.33-0.72,2.14-0.89c0.84-0.18,1.78-0.27,2.77-0.27c2.22,0,3.8,0.46,4.71,1.37
		c0.92,0.92,1.37,2.07,1.37,3.51c0,0.44-0.06,0.93-0.17,1.45c-0.09,0.43-0.33,0.73-0.71,0.91c-0.47,0.22-1.08,0.39-1.83,0.52
		c-0.78,0.13-1.44,0.23-2.01,0.3l-4.15,0.55c-6.22,0.82-9.38,3.57-9.38,8.17c0,1.32,0.25,2.48,0.74,3.45c0.49,0.96,1.16,1.79,2,2.45
		c0.84,0.66,1.81,1.16,2.9,1.47c1.08,0.31,2.22,0.46,3.38,0.46c1.94,0,3.78-0.38,5.45-1.13c1.42-0.64,2.71-1.53,3.86-2.65
		c0.02,0.17,0.04,0.33,0.06,0.5c0.07,0.46,0.21,0.88,0.41,1.26c0.2,0.39,0.48,0.73,0.82,1.01c0.35,0.29,0.82,0.48,1.36,0.55
		c0.9,0.21,1.87,0.24,2.87-0.06c0.45-0.13,0.79-0.23,1.02-0.3l0.27-0.08v-3.17l-0.5,0.19C255.83,208.38,255.04,208.47,254.75,208.26
		z M239.47,208.14c-0.63-0.17-1.2-0.43-1.67-0.79c-0.47-0.35-0.86-0.8-1.14-1.33c-0.28-0.52-0.43-1.16-0.43-1.9
		c0-1.65,0.58-2.84,1.76-3.64c1.22-0.82,2.97-1.32,5.19-1.49c1.31-0.1,2.63-0.24,3.92-0.4c1.15-0.15,2.3-0.44,3.43-0.87v3.5
		c0,1.23-0.25,2.3-0.75,3.19c-0.5,0.9-1.18,1.64-2.01,2.23c-0.84,0.59-1.82,1.03-2.91,1.32
		C243.13,208.42,241.26,208.62,239.47,208.14z"/>
	<path class="st0" d="M269.33,173.76c-0.41-0.03-0.85-0.05-1.33-0.05c-2.12,0-3.66,0.66-4.56,1.96c-0.87,1.26-1.32,2.98-1.32,5.11
		v3.72h-3.85v3.25h3.85v23.4h3.75v-23.4h5v-3.25h-5v-2.82c0-0.58,0.02-1.17,0.07-1.74c0.05-0.54,0.16-1.03,0.35-1.46
		c0.17-0.4,0.44-0.71,0.81-0.96c0.63-0.42,1.78-0.5,3.3-0.12l0.47,0.12v-3.55l-0.31-0.05C270.15,173.84,269.74,173.79,269.33,173.76
		z"/>
	<path class="st0" d="M285.2,183.81c-1.92,0-3.65,0.37-5.17,1.11c-1.51,0.74-2.8,1.76-3.85,3.05c-1.04,1.28-1.85,2.79-2.41,4.49
		c-0.56,1.7-0.84,3.54-0.84,5.47c0,1.93,0.24,3.75,0.71,5.43c0.48,1.69,1.22,3.18,2.22,4.43c1,1.26,2.29,2.26,3.83,2.98
		c1.54,0.72,3.4,1.08,5.51,1.08c1.67,0,3.15-0.23,4.42-0.67c1.27-0.45,2.39-1.09,3.32-1.9c0.93-0.81,1.71-1.76,2.33-2.85
		c0.61-1.07,1.11-2.25,1.48-3.5l0.14-0.48h-4.15l-0.07,0.29c-0.44,1.8-1.34,3.21-2.66,4.19c-1.33,0.98-2.95,1.48-4.83,1.48
		c-1.37,0-2.59-0.26-3.63-0.79c-1.05-0.52-1.92-1.23-2.6-2.1c-0.69-0.88-1.21-1.93-1.56-3.12c-0.32-1.1-0.5-2.27-0.53-3.49h20.09
		l0-0.37c0.03-4.73-1-8.41-3.09-10.92C291.79,185.09,288.87,183.81,285.2,183.81z M285.2,187.26c1.27,0,2.41,0.23,3.39,0.69
		c0.98,0.46,1.8,1.08,2.45,1.85c0.65,0.78,1.15,1.71,1.48,2.77c0.3,0.97,0.47,2,0.5,3.09h-16.1c0.14-1.05,0.4-2.05,0.77-2.99
		c0.42-1.06,0.98-2,1.66-2.79c0.68-0.79,1.51-1.43,2.48-1.91C282.8,187.49,283.93,187.26,285.2,187.26z"/>
	<path class="st0" d="M309.77,208.31c-1,0.16-2,0.11-2.51-0.08c-0.27-0.1-0.46-0.26-0.58-0.48c-0.14-0.25-0.23-0.59-0.25-1
		c-0.03-0.46-0.05-1-0.05-1.62v-17.38h4.85v-3.25h-4.85v-7.2h-3.75v7.2h-3.65v3.25h3.65v18.58c0,2.06,0.42,3.47,1.29,4.3
		c0.85,0.82,2.09,1.23,3.68,1.23c0.76,0,1.47-0.09,2.1-0.26c0.59-0.16,1.06-0.28,1.42-0.34l0.31-0.06v-3.24l-0.47,0.12
		C310.57,208.16,310.17,208.25,309.77,208.31z"/>
	<path class="st0" d="M324.3,206.06l-8.04-21.55h-4.16l10.19,26.41c-0.28,0.56-0.53,1.23-0.75,1.99c-0.23,0.8-0.52,1.57-0.85,2.29
		c-0.33,0.71-0.75,1.32-1.25,1.82c-0.46,0.46-1.05,0.69-1.78,0.69c-0.41,0-0.82-0.03-1.22-0.09l-1.66-0.27v3.58l0.28,0.07
		c0.41,0.1,0.85,0.19,1.37,0.26c0.51,0.07,1.04,0.1,1.58,0.1c1.1,0,2.07-0.26,2.88-0.79c0.79-0.51,1.51-1.25,2.16-2.2
		c0.62-0.93,1.22-2.07,1.78-3.39c0.54-1.29,1.13-2.77,1.73-4.41l9.84-26.06h-4.05L324.3,206.06z"/>
	<path class="st0" d="M376.35,177.52c-0.92-0.97-2.18-1.74-3.75-2.3c-1.55-0.54-3.54-0.82-5.9-0.82h-13.52v36.75h4.15v-15.9h7.33
		c1.68,0,3.38-0.15,5.04-0.46c1.69-0.31,3.21-0.85,4.55-1.62c1.35-0.78,2.46-1.85,3.3-3.2c0.85-1.35,1.28-3.09,1.28-5.15
		c0-1.36-0.18-2.69-0.54-3.93C377.92,179.63,377.27,178.5,376.35,177.52z M364.75,191.61h-7.43v-13.55h8.43
		c3.13,0,5.43,0.56,6.84,1.67c1.4,1.1,2.08,2.69,2.08,4.85c0,1.47-0.23,2.66-0.69,3.56c-0.45,0.88-1.09,1.59-1.91,2.1
		c-0.84,0.52-1.88,0.88-3.08,1.07C367.75,191.51,366.32,191.61,364.75,191.61z"/>
	<path class="st0" d="M404.1,208.26c-0.18-0.13-0.48-0.56-0.48-1.93v-14.1c0-1.55-0.26-2.88-0.76-3.96
		c-0.51-1.09-1.22-1.97-2.12-2.62c-0.89-0.64-1.94-1.12-3.13-1.41c-2.44-0.6-5.37-0.57-7.83,0.05c-1.29,0.33-2.44,0.85-3.43,1.56
		c-0.99,0.71-1.81,1.65-2.43,2.77c-0.62,1.13-0.99,2.5-1.1,4.08l-0.03,0.4h3.79l0.04-0.33c0.13-1.08,0.39-1.98,0.78-2.69
		c0.38-0.69,0.88-1.26,1.49-1.67c0.61-0.42,1.33-0.72,2.14-0.89c0.84-0.18,1.78-0.27,2.77-0.27c2.22,0,3.8,0.46,4.71,1.37
		c0.92,0.92,1.37,2.07,1.37,3.51c0,0.44-0.06,0.93-0.17,1.45c-0.09,0.43-0.33,0.73-0.71,0.91c-0.47,0.22-1.08,0.39-1.83,0.52
		c-0.78,0.13-1.44,0.23-2.01,0.3l-4.15,0.55c-6.22,0.82-9.38,3.57-9.38,8.17c0,1.32,0.25,2.48,0.74,3.45c0.49,0.96,1.16,1.79,2,2.45
		c0.84,0.66,1.81,1.16,2.9,1.47c1.08,0.31,2.22,0.46,3.38,0.46c1.94,0,3.78-0.38,5.45-1.13c1.42-0.64,2.71-1.53,3.86-2.65
		c0.02,0.17,0.04,0.33,0.06,0.5c0.07,0.46,0.21,0.88,0.41,1.26c0.2,0.39,0.48,0.73,0.82,1.01c0.35,0.29,0.82,0.48,1.36,0.55
		c0.9,0.21,1.87,0.24,2.87-0.06c0.45-0.13,0.79-0.23,1.02-0.3l0.27-0.08v-3.17l-0.5,0.19C405.18,208.38,404.39,208.47,404.1,208.26z
		 M388.82,208.14c-0.63-0.17-1.2-0.43-1.67-0.79c-0.47-0.35-0.86-0.8-1.14-1.33c-0.28-0.52-0.43-1.16-0.43-1.9
		c0-1.65,0.58-2.84,1.76-3.64c1.22-0.82,2.97-1.32,5.19-1.49c1.31-0.1,2.63-0.24,3.92-0.4c1.15-0.15,2.3-0.44,3.43-0.87v3.5
		c0,1.23-0.25,2.3-0.75,3.19c-0.5,0.9-1.18,1.64-2.01,2.23c-0.84,0.59-1.82,1.03-2.91,1.32
		C392.48,208.42,390.61,208.62,388.82,208.14z"/>
	<path class="st0" d="M416.88,185.09c-1.07,0.66-1.99,1.72-2.75,3.15v-3.74h-3.75v26.65h3.75v-13.08c0-1.4,0.12-2.77,0.37-4.06
		c0.24-1.26,0.67-2.37,1.29-3.29c0.61-0.91,1.45-1.64,2.49-2.18c0.98-0.5,2.24-0.76,3.75-0.76l0.65,0.01v-4.01h-0.38
		C420.07,183.81,418.25,184.24,416.88,185.09z"/>
	<path class="st0" d="M435.47,208.31c-1.02,0.16-2,0.11-2.51-0.08c-0.27-0.1-0.46-0.26-0.58-0.48c-0.14-0.25-0.22-0.58-0.25-0.99
		c-0.03-0.46-0.05-1-0.05-1.62v-17.38h4.85v-3.25h-4.85v-7.2h-3.75v7.2h-3.65v3.25h3.65v18.58c0,2.06,0.42,3.47,1.29,4.3
		c0.85,0.82,2.09,1.23,3.69,1.23c0.76,0,1.47-0.09,2.1-0.26c0.59-0.16,1.07-0.28,1.42-0.34l0.31-0.06v-3.24l-0.47,0.12
		C436.27,208.16,435.87,208.25,435.47,208.31z"/>
	<path class="st0" d="M460.61,187.67c-0.97-1.42-2.19-2.43-3.62-3.01c-1.4-0.56-2.95-0.85-4.59-0.85c-1.86,0-3.49,0.42-4.82,1.26
		c-1.08,0.67-2.13,1.51-3.15,2.5v-3.06h-3.75v26.65h3.75v-14.33c0-0.88,0.03-1.71,0.1-2.47c0.06-0.73,0.24-1.51,0.53-2.31
		c0.22-0.63,0.54-1.24,0.95-1.8c0.41-0.57,0.91-1.08,1.5-1.52c0.59-0.44,1.25-0.8,1.98-1.07c0.72-0.27,1.54-0.4,2.42-0.4
		c2.28,0,3.92,0.55,4.87,1.62c0.97,1.09,1.46,2.78,1.46,5v17.28h3.75v-17.33c0-1.08-0.06-2.12-0.18-3.12
		C461.67,189.67,461.27,188.65,460.61,187.67z"/>
	<path class="st0" d="M478.9,183.81c-1.92,0-3.65,0.37-5.17,1.11c-1.51,0.74-2.81,1.77-3.85,3.05c-1.04,1.28-1.85,2.79-2.42,4.49
		c-0.56,1.7-0.84,3.54-0.84,5.47c0,1.93,0.24,3.76,0.71,5.43c0.48,1.69,1.22,3.18,2.22,4.43c1,1.26,2.29,2.26,3.84,2.98
		c1.54,0.72,3.4,1.08,5.51,1.08c1.67,0,3.15-0.23,4.42-0.67c1.27-0.45,2.39-1.08,3.32-1.9c0.93-0.81,1.71-1.76,2.33-2.85
		c0.61-1.07,1.11-2.25,1.48-3.5l0.14-0.48h-4.15l-0.07,0.29c-0.44,1.8-1.34,3.21-2.66,4.19c-1.33,0.98-2.95,1.48-4.83,1.48
		c-1.37,0-2.59-0.26-3.63-0.79c-1.05-0.52-1.92-1.23-2.6-2.1c-0.68-0.87-1.21-1.92-1.56-3.12c-0.32-1.09-0.5-2.27-0.53-3.49h20.09
		l0-0.37c0.03-4.73-1-8.41-3.09-10.92C485.49,185.09,482.57,183.81,478.9,183.81z M478.9,187.26c1.27,0,2.41,0.23,3.39,0.69
		c0.98,0.46,1.8,1.08,2.45,1.85c0.65,0.77,1.14,1.7,1.48,2.77c0.3,0.96,0.47,2,0.5,3.09h-16.09c0.14-1.05,0.4-2.05,0.77-2.99
		c0.41-1.05,0.97-1.99,1.66-2.79c0.68-0.79,1.52-1.43,2.48-1.91C476.5,187.49,477.63,187.26,478.9,187.26z"/>
	<path class="st0" d="M501.93,185.09c-1.07,0.66-1.99,1.72-2.75,3.15v-3.74h-3.75v26.65h3.75v-13.08c0-1.4,0.12-2.77,0.37-4.06
		c0.24-1.26,0.67-2.37,1.29-3.29c0.61-0.91,1.45-1.64,2.49-2.18c0.98-0.5,2.24-0.76,3.75-0.76l0.65,0.01v-4.01h-0.38
		C505.12,183.81,503.3,184.24,501.93,185.09z"/>
	<path class="st0" d="M526.75,197.46c-1.25-0.56-2.62-1-4.08-1.3c-1.42-0.3-2.75-0.64-3.97-1.02c-1.19-0.37-2.18-0.85-2.96-1.44
		c-0.72-0.55-1.08-1.32-1.08-2.38c0-1.23,0.45-2.19,1.36-2.93c0.93-0.76,2.31-1.14,4.11-1.14c1.82,0,3.34,0.39,4.52,1.16
		c1.15,0.75,1.86,2.08,2.11,3.96l0.04,0.33h3.8l-0.05-0.42c-0.38-3.03-1.5-5.23-3.33-6.53c-1.81-1.29-4.18-1.94-7.04-1.94
		c-2.98,0-5.33,0.73-6.97,2.17c-1.66,1.45-2.5,3.34-2.5,5.61c0,1.79,0.44,3.2,1.32,4.2c0.85,0.97,1.93,1.73,3.22,2.25
		c1.25,0.51,2.62,0.89,4.08,1.15c1.41,0.25,2.75,0.55,3.96,0.89c1.18,0.34,2.18,0.8,2.95,1.39c0.72,0.55,1.08,1.37,1.08,2.53
		c0,0.58-0.12,1.13-0.37,1.64c-0.24,0.51-0.6,0.99-1.08,1.4c-0.48,0.42-1.1,0.75-1.85,1c-0.76,0.25-1.68,0.38-2.73,0.38
		c-2.17,0-3.85-0.44-5-1.3c-1.14-0.85-1.94-2.37-2.38-4.5l-0.06-0.3h-3.75l0.02,0.4c0.07,1.27,0.35,2.48,0.83,3.58
		c0.48,1.11,1.17,2.09,2.04,2.92c0.86,0.83,1.92,1.49,3.15,1.95c1.22,0.46,2.64,0.7,4.21,0.7c1.55,0,3-0.16,4.31-0.49
		c1.32-0.33,2.48-0.82,3.45-1.48c0.98-0.66,1.76-1.51,2.32-2.5c0.56-1,0.85-2.17,0.85-3.46c0-1.75-0.44-3.15-1.32-4.15
		C529.11,198.81,528.03,198.03,526.75,197.46z"/>
	<path class="st0" d="M555.86,187.67c-0.97-1.42-2.19-2.44-3.62-3.01c-1.4-0.56-2.95-0.85-4.59-0.85c-1.87,0-3.49,0.42-4.82,1.26
		c-1.07,0.67-2.13,1.51-3.15,2.5v-13.16h-3.75v36.75h3.75v-14.33c0-0.89,0.03-1.72,0.1-2.47c0.06-0.73,0.24-1.5,0.53-2.31
		c0.22-0.63,0.54-1.24,0.95-1.8c0.41-0.57,0.91-1.08,1.5-1.52c0.58-0.44,1.25-0.8,1.98-1.07c0.72-0.27,1.54-0.4,2.42-0.4
		c2.28,0,3.91,0.55,4.87,1.62c0.97,1.09,1.46,2.78,1.46,5v17.28h3.75v-17.33c0-1.08-0.06-2.12-0.18-3.12
		C556.92,189.67,556.52,188.65,555.86,187.67z"/>
	<rect x="563.53" y="174.41" class="st0" width="4.05" height="5.2"/>
	<rect x="563.68" y="184.51" class="st0" width="3.75" height="26.65"/>
	<path class="st0" d="M595.92,187.88c-0.98-1.26-2.25-2.26-3.76-2.98c-1.51-0.72-3.37-1.09-5.51-1.09c-0.86,0-1.75,0.12-2.65,0.36
		c-0.89,0.24-1.76,0.59-2.6,1.03c-0.84,0.45-1.63,1.02-2.34,1.71c-0.42,0.41-0.8,0.86-1.14,1.34v-3.75h-3.75v36.85h3.75v-13.52
		c0.92,1.17,2.07,2.09,3.44,2.76c1.73,0.84,3.56,1.26,5.44,1.26c2.02,0,3.8-0.39,5.3-1.17c1.49-0.77,2.75-1.82,3.73-3.11
		c0.97-1.28,1.71-2.79,2.19-4.5c0.47-1.69,0.71-3.48,0.71-5.3c0-1.92-0.22-3.75-0.66-5.44C597.62,190.63,596.9,189.13,595.92,187.88
		z M594.38,201.52c-0.32,1.37-0.84,2.58-1.55,3.6c-0.69,1.01-1.6,1.82-2.69,2.41c-1.09,0.58-2.38,0.88-3.85,0.88
		c-1.3,0-2.48-0.28-3.5-0.83c-1.03-0.55-1.91-1.31-2.63-2.25c-0.72-0.94-1.28-2.07-1.66-3.33c-0.39-1.28-0.58-2.65-0.58-4.07
		c0-1.53,0.19-2.96,0.56-4.27c0.37-1.3,0.91-2.43,1.61-3.38c0.69-0.93,1.58-1.68,2.62-2.22c1.04-0.54,2.25-0.81,3.58-0.81
		c1.21,0,2.34,0.22,3.35,0.65c1.01,0.43,1.91,1.06,2.67,1.88c0.76,0.83,1.37,1.85,1.8,3.05c0.43,1.2,0.65,2.62,0.65,4.21
		C594.84,198.64,594.71,200.14,594.38,201.52z"/>
	<path class="st0" d="M619.2,197.46c-1.25-0.56-2.62-1-4.08-1.3c-1.42-0.3-2.75-0.64-3.97-1.02c-1.19-0.37-2.18-0.85-2.96-1.44
		c-0.72-0.55-1.08-1.32-1.08-2.38c0-1.23,0.45-2.19,1.36-2.93c0.93-0.76,2.31-1.14,4.11-1.14c1.82,0,3.34,0.39,4.52,1.16
		c1.15,0.75,1.86,2.08,2.11,3.96l0.04,0.33h3.8l-0.05-0.42c-0.38-3.03-1.5-5.23-3.33-6.53c-1.81-1.29-4.18-1.94-7.04-1.94
		c-2.98,0-5.33,0.73-6.97,2.17c-1.66,1.45-2.5,3.34-2.5,5.61c0,1.79,0.44,3.2,1.32,4.2c0.85,0.97,1.93,1.73,3.22,2.25
		c1.25,0.51,2.62,0.89,4.08,1.15c1.41,0.25,2.75,0.55,3.96,0.89c1.18,0.34,2.18,0.8,2.95,1.39c0.72,0.55,1.08,1.37,1.08,2.53
		c0,0.58-0.12,1.13-0.37,1.64c-0.24,0.51-0.6,0.99-1.08,1.4c-0.48,0.42-1.1,0.75-1.85,1c-0.76,0.25-1.68,0.38-2.73,0.38
		c-2.17,0-3.85-0.44-5-1.3c-1.14-0.85-1.94-2.37-2.38-4.5l-0.06-0.3h-3.75l0.02,0.4c0.07,1.27,0.35,2.48,0.83,3.58
		c0.48,1.11,1.17,2.09,2.04,2.92c0.86,0.83,1.92,1.49,3.15,1.95c1.22,0.46,2.64,0.7,4.21,0.7c1.55,0,3-0.16,4.31-0.49
		c1.32-0.33,2.48-0.82,3.45-1.48c0.98-0.66,1.76-1.51,2.32-2.5c0.56-1,0.85-2.17,0.85-3.46c0-1.75-0.44-3.15-1.32-4.15
		C621.56,198.81,620.48,198.03,619.2,197.46z"/>
</g>
<g>
	<path class="st1" d="M220.46,253.46c-0.32-0.54-0.79-0.98-1.39-1.31c-0.59-0.33-1.39-0.5-2.38-0.5c-1.04,0-1.98,0.23-2.79,0.69
		c-0.71,0.4-1.29,0.99-1.75,1.76c-0.11-0.25-0.24-0.48-0.38-0.7c-0.22-0.34-0.5-0.64-0.83-0.9c-0.33-0.25-0.74-0.46-1.21-0.61
		c-0.47-0.15-1.04-0.23-1.71-0.23c-0.95,0-1.83,0.22-2.63,0.66c-0.62,0.34-1.14,0.81-1.54,1.39v-1.67h-2.02v14.39h2.02v-7.73
		c0-0.28,0.01-0.59,0.04-0.93c0.02-0.32,0.07-0.66,0.15-1c0.07-0.33,0.16-0.65,0.27-0.96c0.11-0.29,0.25-0.55,0.42-0.77
		c0.39-0.51,0.86-0.9,1.37-1.14c0.52-0.25,1.07-0.37,1.63-0.37c1.08,0,1.82,0.26,2.2,0.78c0.4,0.54,0.6,1.3,0.6,2.26v9.87h2.02
		v-7.73c0-0.28,0.01-0.59,0.04-0.93c0.03-0.34,0.08-0.67,0.14-1c0.07-0.34,0.16-0.66,0.28-0.96c0.11-0.29,0.25-0.55,0.42-0.77
		c0.39-0.51,0.85-0.9,1.37-1.14c0.52-0.25,1.07-0.37,1.63-0.37c1.08,0,1.82,0.26,2.2,0.78c0.4,0.54,0.6,1.3,0.6,2.26v9.87h2.02
		v-9.03c0-0.7-0.05-1.4-0.15-2.08C220.99,254.61,220.77,253.99,220.46,253.46z"/>
	<path class="st1" d="M235.7,264.85c-0.12-0.09-0.26-0.34-0.26-1.04v-7.61c0-0.84-0.14-1.55-0.41-2.14
		c-0.27-0.58-0.66-1.06-1.14-1.41c-0.48-0.35-1.05-0.6-1.69-0.76c-1.33-0.33-2.9-0.31-4.23,0.03c-0.69,0.17-1.32,0.46-1.85,0.84
		c-0.53,0.38-0.97,0.89-1.31,1.5c-0.34,0.61-0.54,1.35-0.59,2.2l-0.01,0.21h2.04l0.02-0.18c0.07-0.58,0.21-1.07,0.42-1.45
		c0.21-0.38,0.48-0.68,0.8-0.9c0.33-0.23,0.71-0.39,1.16-0.48c0.45-0.1,0.95-0.14,1.5-0.14c1.2,0,2.06,0.25,2.55,0.74
		c0.49,0.49,0.74,1.13,0.74,1.89c0,0.24-0.03,0.5-0.09,0.78c-0.05,0.24-0.18,0.4-0.39,0.49c-0.25,0.12-0.59,0.21-0.99,0.28
		c-0.42,0.07-0.78,0.13-1.09,0.16l-2.24,0.3c-3.36,0.45-5.06,1.93-5.06,4.41c0,0.71,0.13,1.34,0.4,1.86
		c0.26,0.52,0.63,0.96,1.08,1.32c0.45,0.36,0.98,0.62,1.57,0.79c0.58,0.17,1.19,0.25,1.82,0.25c1.05,0,2.04-0.21,2.95-0.61
		c0.76-0.34,1.46-0.82,2.09-1.44c0.01,0.09,0.02,0.19,0.04,0.27c0.04,0.24,0.11,0.47,0.22,0.68c0.11,0.21,0.26,0.39,0.44,0.55
		c0.19,0.16,0.44,0.26,0.73,0.3c0.47,0.11,1.01,0.13,1.55-0.03l0.7-0.2v-1.71l-0.27,0.1C236.28,264.92,235.85,264.97,235.7,264.85z
		 M227.45,264.79c-0.34-0.09-0.65-0.24-0.91-0.43c-0.25-0.19-0.46-0.43-0.62-0.72c-0.16-0.28-0.23-0.63-0.23-1.03
		c0-0.89,0.31-1.53,0.95-1.97c0.66-0.45,1.6-0.71,2.81-0.8c0.7-0.05,1.42-0.13,2.12-0.22c0.62-0.08,1.24-0.24,1.85-0.47v1.89
		c0,0.67-0.14,1.25-0.41,1.72c-0.27,0.49-0.64,0.89-1.09,1.2c-0.46,0.32-0.98,0.56-1.57,0.71
		C229.42,264.94,228.4,265.04,227.45,264.79z"/>
	<polygon class="st1" points="250.29,252.02 247.5,252.02 240.92,258.39 240.92,246.57 238.9,246.57 238.9,266.41 240.92,266.41 
		240.92,261 243.33,258.71 248.5,266.41 250.78,266.41 244.81,257.3 	"/>
	<rect x="252.4" y="246.57" class="st1" width="2.18" height="2.8"/>
	<rect x="252.48" y="252.02" class="st1" width="2.02" height="14.39"/>
	<path class="st1" d="M268.72,253.73c-0.52-0.77-1.18-1.31-1.95-1.62c-0.76-0.3-1.59-0.46-2.48-0.46c-1,0-1.88,0.23-2.6,0.68
		c-0.58,0.37-1.15,0.82-1.7,1.36v-1.65h-2.02v14.39h2.02v-7.73c0-0.48,0.02-0.93,0.05-1.33c0.04-0.4,0.13-0.82,0.29-1.25
		c0.12-0.34,0.29-0.67,0.51-0.97c0.22-0.3,0.49-0.58,0.81-0.82c0.31-0.24,0.67-0.43,1.07-0.58c0.39-0.14,0.83-0.21,1.31-0.21
		c1.23,0,2.12,0.29,2.63,0.88c0.52,0.59,0.79,1.5,0.79,2.7v9.33h2.02v-9.36c0-0.59-0.03-1.15-0.1-1.68
		C269.3,254.81,269.08,254.26,268.72,253.73z"/>
	<path class="st1" d="M283.5,254.05c-0.18-0.26-0.39-0.51-0.62-0.73c-0.38-0.37-0.81-0.68-1.26-0.92c-0.45-0.24-0.92-0.43-1.41-0.56
		c-0.49-0.13-0.97-0.2-1.43-0.2c-1.16,0-2.16,0.2-2.97,0.59c-0.82,0.39-1.5,0.93-2.03,1.61c-0.53,0.68-0.92,1.49-1.15,2.41
		c-0.24,0.91-0.36,1.9-0.36,2.94c0,0.99,0.13,1.95,0.38,2.86c0.26,0.92,0.65,1.74,1.18,2.43c0.53,0.7,1.21,1.26,2.01,1.68
		c0.81,0.42,1.77,0.63,2.86,0.63c1.01,0,2-0.23,2.94-0.68c0.74-0.36,1.36-0.86,1.86-1.5c-0.01,0.58-0.05,1.15-0.12,1.71
		c-0.09,0.74-0.31,1.42-0.64,2.01c-0.32,0.58-0.8,1.05-1.44,1.41c-0.63,0.36-1.49,0.54-2.55,0.54c-0.47,0-0.93-0.04-1.37-0.11
		c-0.43-0.07-0.82-0.19-1.17-0.37c-0.35-0.18-0.64-0.42-0.9-0.73c-0.25-0.31-0.43-0.71-0.55-1.2l-0.04-0.15h-2.1l0.01,0.21
		c0.02,0.45,0.16,0.92,0.41,1.42c0.25,0.5,0.63,0.96,1.12,1.37c0.48,0.41,1.11,0.75,1.87,1.02c0.76,0.27,1.67,0.4,2.71,0.4
		c1.35,0,2.48-0.2,3.35-0.6c0.87-0.4,1.57-0.94,2.08-1.61c0.5-0.67,0.85-1.45,1.05-2.33c0.19-0.86,0.29-1.78,0.29-2.73v-12.84h-2.02
		V254.05z M278.98,264.93c-0.81,0-1.51-0.16-2.09-0.48c-0.58-0.31-1.07-0.75-1.44-1.3c-0.38-0.55-0.66-1.21-0.84-1.94
		c-0.17-0.75-0.25-1.56-0.21-2.43c0-0.85,0.12-1.62,0.35-2.27c0.24-0.65,0.56-1.2,0.97-1.64c0.41-0.45,0.89-0.79,1.44-1.02
		c0.55-0.23,1.16-0.35,1.81-0.35c0.72,0,1.37,0.15,1.93,0.44c0.57,0.29,1.04,0.7,1.42,1.2c0.38,0.51,0.67,1.13,0.87,1.82
		c0.2,0.71,0.3,1.49,0.3,2.31c0,0.76-0.11,1.5-0.32,2.2c-0.21,0.69-0.51,1.29-0.9,1.8c-0.38,0.51-0.86,0.91-1.42,1.21
		C280.32,264.78,279.68,264.93,278.98,264.93z"/>
	<path class="st1" d="M306.97,253.86c-0.56-0.68-1.26-1.22-2.09-1.62c-0.84-0.4-1.83-0.6-2.95-0.6c-1.1,0-2.09,0.2-2.92,0.6
		c-0.84,0.4-1.54,0.95-2.09,1.63c-0.55,0.68-0.97,1.49-1.25,2.4c-0.27,0.9-0.41,1.89-0.41,2.93c0,1.24,0.18,2.35,0.53,3.28
		c0.35,0.94,0.83,1.74,1.43,2.36c0.6,0.63,1.32,1.11,2.12,1.43c0.8,0.31,1.67,0.48,2.59,0.5h0c0.99,0,1.91-0.18,2.74-0.54
		c0.83-0.36,1.54-0.88,2.12-1.55c0.58-0.66,1.04-1.47,1.35-2.39c0.31-0.92,0.47-1.96,0.47-3.09c0-1.04-0.13-2.03-0.4-2.94
		C307.94,255.35,307.53,254.54,306.97,253.86z M301.93,253.5c0.83,0,1.53,0.15,2.1,0.44c0.56,0.29,1.03,0.69,1.39,1.2
		c0.36,0.5,0.63,1.11,0.81,1.81c0.17,0.7,0.26,1.47,0.26,2.27c0,0.74-0.09,1.46-0.26,2.14c-0.18,0.68-0.45,1.3-0.81,1.83
		c-0.36,0.53-0.83,0.96-1.4,1.27c-0.57,0.31-1.27,0.47-2.08,0.47c-0.74,0-1.4-0.14-1.96-0.41c-0.57-0.28-1.04-0.66-1.41-1.16
		c-0.38-0.5-0.67-1.11-0.87-1.81c-0.2-0.71-0.3-1.49-0.3-2.34c0-0.73,0.09-1.46,0.26-2.15c0.17-0.69,0.45-1.3,0.81-1.83
		c0.36-0.52,0.83-0.95,1.4-1.26C300.42,253.66,301.12,253.5,301.93,253.5z"/>
	<path class="st1" d="M320.39,259.84c0,0.76-0.1,1.45-0.29,2.07c-0.19,0.62-0.46,1.16-0.8,1.61c-0.34,0.44-0.77,0.79-1.27,1.04
		c-0.5,0.25-1.08,0.37-1.71,0.37c-1.21,0-2.09-0.3-2.6-0.89c-0.52-0.6-0.79-1.48-0.79-2.64v-9.38h-2.02v9.41
		c0,0.75,0.09,1.46,0.26,2.09c0.18,0.64,0.47,1.22,0.88,1.7c0.4,0.49,0.94,0.88,1.6,1.15c0.65,0.27,1.47,0.41,2.43,0.41
		c0.63,0,1.19-0.08,1.68-0.24c0.48-0.16,0.91-0.36,1.27-0.59c0.37-0.23,0.69-0.49,0.97-0.77c0.14-0.14,0.27-0.27,0.39-0.4v1.62h2.02
		v-14.39h-2.02V259.84z"/>
	<path class="st1" d="M329.24,252.34c-0.58,0.36-1.08,0.94-1.49,1.71v-2.03h-2.02v14.39h2.02v-7.06c0-0.75,0.07-1.49,0.2-2.19
		c0.13-0.68,0.36-1.28,0.7-1.78c0.33-0.49,0.78-0.88,1.34-1.18c0.53-0.27,1.21-0.41,2.03-0.41l0.35,0.01v-2.16h-0.2
		C330.97,251.64,329.98,251.88,329.24,252.34z"/>
	<path class="st1" d="M351.65,261.34c-0.19,1.12-0.64,2.01-1.33,2.64c-0.69,0.63-1.62,0.95-2.77,0.95c-0.81,0-1.5-0.16-2.06-0.47
		c-0.56-0.32-1.03-0.74-1.39-1.27c-0.36-0.54-0.63-1.15-0.79-1.83c-0.17-0.68-0.25-1.39-0.25-2.11c0-0.7,0.09-1.41,0.26-2.1
		c0.17-0.68,0.44-1.31,0.81-1.85c0.36-0.54,0.83-0.97,1.39-1.3c0.56-0.32,1.25-0.49,2.03-0.49c1.03,0,1.88,0.28,2.55,0.83
		c0.67,0.55,1.14,1.34,1.42,2.34l0.04,0.15h2.03l-0.04-0.23c-0.26-1.68-0.92-2.94-1.95-3.75c-1.03-0.8-2.39-1.2-4.05-1.2
		c-1.07,0-2.03,0.21-2.86,0.63c-0.82,0.42-1.52,0.98-2.08,1.69c-0.55,0.7-0.98,1.52-1.26,2.43c-0.28,0.9-0.43,1.87-0.43,2.85
		c0,1.05,0.13,2.04,0.39,2.94c0.25,0.92,0.66,1.73,1.2,2.41c0.54,0.68,1.23,1.22,2.07,1.61c0.83,0.39,1.83,0.59,2.97,0.59
		c0.9,0,1.72-0.13,2.42-0.39c0.71-0.26,1.32-0.63,1.83-1.11c0.51-0.47,0.93-1.05,1.26-1.71c0.32-0.65,0.56-1.38,0.71-2.17l0.04-0.24
		h-2.14L351.65,261.34z"/>
	<path class="st1" d="M367.15,253.86c-0.55-0.67-1.26-1.22-2.09-1.62c-0.84-0.4-1.83-0.6-2.95-0.6c-1.1,0-2.08,0.2-2.92,0.6
		c-0.84,0.4-1.54,0.95-2.09,1.63c-0.55,0.69-0.98,1.49-1.25,2.4c-0.27,0.9-0.41,1.89-0.41,2.93c0,1.24,0.18,2.35,0.52,3.28
		c0.35,0.94,0.83,1.73,1.43,2.36c0.6,0.63,1.32,1.11,2.12,1.43c0.8,0.31,1.67,0.48,2.59,0.5h0c0.99,0,1.92-0.18,2.74-0.54
		c0.82-0.36,1.54-0.88,2.12-1.55c0.58-0.66,1.03-1.47,1.35-2.39c0.31-0.91,0.47-1.96,0.47-3.09c0-1.04-0.13-2.03-0.4-2.94
		C368.12,255.35,367.71,254.54,367.15,253.86z M362.11,253.5c0.83,0,1.53,0.15,2.1,0.44c0.56,0.29,1.03,0.69,1.39,1.2
		c0.36,0.51,0.63,1.12,0.8,1.81c0.17,0.7,0.26,1.47,0.26,2.27c0,0.74-0.09,1.46-0.26,2.14c-0.17,0.67-0.44,1.29-0.81,1.83
		c-0.36,0.53-0.83,0.96-1.4,1.27c-0.57,0.31-1.27,0.47-2.08,0.47c-0.74,0-1.4-0.14-1.96-0.41c-0.56-0.27-1.04-0.66-1.41-1.15
		c-0.38-0.51-0.67-1.12-0.87-1.81c-0.2-0.71-0.3-1.49-0.3-2.34c0-0.74,0.09-1.46,0.27-2.15c0.17-0.68,0.44-1.3,0.81-1.83
		c0.36-0.52,0.83-0.95,1.4-1.26C360.6,253.66,361.3,253.5,362.11,253.5z"/>
	<path class="st1" d="M389.5,253.46c-0.32-0.54-0.79-0.98-1.38-1.31c-0.6-0.33-1.4-0.5-2.38-0.5c-1.04,0-1.97,0.23-2.78,0.69
		c-0.71,0.4-1.29,0.99-1.75,1.76c-0.11-0.24-0.24-0.48-0.38-0.7c-0.22-0.34-0.5-0.64-0.83-0.9c-0.33-0.26-0.74-0.46-1.21-0.61
		c-0.47-0.15-1.04-0.23-1.71-0.23c-0.94,0-1.83,0.22-2.63,0.66c-0.62,0.34-1.14,0.81-1.54,1.39v-1.67h-2.02v14.39h2.02v-7.73
		c0-0.28,0.01-0.59,0.04-0.93c0.03-0.34,0.08-0.67,0.14-1c0.07-0.34,0.16-0.66,0.28-0.96c0.11-0.29,0.25-0.55,0.42-0.77
		c0.39-0.51,0.85-0.9,1.37-1.14c0.52-0.25,1.07-0.37,1.63-0.37c1.08,0,1.82,0.26,2.2,0.78c0.4,0.54,0.6,1.3,0.6,2.26v9.87h2.02
		v-7.73c0-0.27,0.01-0.59,0.04-0.93c0.03-0.33,0.08-0.66,0.15-1c0.07-0.33,0.16-0.65,0.27-0.96c0.11-0.29,0.25-0.55,0.42-0.77
		c0.39-0.51,0.85-0.9,1.37-1.14c0.52-0.25,1.07-0.37,1.63-0.37c1.08,0,1.82,0.26,2.2,0.78c0.4,0.54,0.6,1.3,0.6,2.26v9.87h2.02
		v-9.03c0-0.71-0.05-1.41-0.15-2.08C390.03,254.61,389.82,253.99,389.5,253.46z"/>
	<path class="st1" d="M411.72,253.46c-0.32-0.54-0.79-0.98-1.38-1.31c-0.6-0.33-1.4-0.5-2.38-0.5c-1.04,0-1.97,0.23-2.78,0.69
		c-0.7,0.4-1.29,0.99-1.75,1.76c-0.11-0.24-0.24-0.48-0.38-0.7c-0.22-0.34-0.5-0.64-0.83-0.9c-0.33-0.26-0.74-0.46-1.21-0.61
		c-0.47-0.15-1.04-0.23-1.71-0.23c-0.94,0-1.83,0.22-2.63,0.66c-0.62,0.34-1.14,0.81-1.54,1.39v-1.67h-2.02v14.39h2.02v-7.73
		c0-0.28,0.01-0.59,0.04-0.93c0.03-0.34,0.08-0.67,0.14-1c0.07-0.34,0.16-0.66,0.28-0.96c0.11-0.29,0.25-0.55,0.42-0.77
		c0.39-0.51,0.85-0.9,1.37-1.14c0.52-0.25,1.07-0.37,1.63-0.37c1.08,0,1.82,0.26,2.2,0.78c0.4,0.54,0.6,1.3,0.6,2.26v9.87h2.02
		v-7.73c0-0.27,0.01-0.59,0.04-0.93c0.03-0.33,0.08-0.66,0.15-1c0.07-0.33,0.16-0.65,0.27-0.96c0.11-0.29,0.25-0.55,0.42-0.77
		c0.39-0.51,0.85-0.9,1.37-1.14c0.52-0.25,1.07-0.37,1.63-0.37c1.08,0,1.82,0.26,2.2,0.78c0.4,0.54,0.6,1.3,0.6,2.26v9.87h2.02
		v-9.03c0-0.71-0.05-1.41-0.15-2.08C412.25,254.61,412.04,253.99,411.72,253.46z"/>
	<path class="st1" d="M425.01,259.84c0,0.75-0.1,1.45-0.29,2.07c-0.19,0.62-0.46,1.17-0.81,1.61c-0.34,0.44-0.76,0.79-1.27,1.04
		c-0.5,0.25-1.08,0.37-1.71,0.37c-1.21,0-2.09-0.3-2.6-0.89c-0.52-0.6-0.79-1.48-0.79-2.64v-9.38h-2.02v9.41
		c0,0.76,0.09,1.46,0.26,2.09c0.18,0.64,0.47,1.22,0.88,1.71c0.41,0.49,0.95,0.88,1.61,1.15c0.65,0.27,1.47,0.41,2.42,0.41
		c0.63,0,1.2-0.08,1.68-0.24c0.48-0.16,0.91-0.36,1.27-0.59c0.36-0.23,0.69-0.49,0.96-0.77c0.14-0.14,0.27-0.27,0.39-0.4v1.62h2.02
		v-14.39h-2.02V259.84z"/>
	<path class="st1" d="M441.04,253.73c-0.52-0.77-1.18-1.31-1.95-1.62c-0.76-0.3-1.59-0.46-2.48-0.46c-1,0-1.88,0.23-2.6,0.68
		c-0.58,0.36-1.15,0.82-1.71,1.36v-1.66h-2.02v14.39h2.02v-7.73c0-0.48,0.02-0.93,0.05-1.33c0.03-0.39,0.13-0.81,0.29-1.25
		c0.12-0.34,0.29-0.67,0.51-0.97c0.22-0.3,0.49-0.58,0.81-0.82c0.31-0.24,0.67-0.43,1.07-0.58c0.39-0.14,0.83-0.21,1.31-0.21
		c1.23,0,2.12,0.29,2.63,0.88c0.52,0.59,0.79,1.5,0.79,2.7v9.33h2.02v-9.36c0-0.58-0.03-1.15-0.1-1.68
		C441.61,254.81,441.39,254.26,441.04,253.73z"/>
	<rect x="445.18" y="246.57" class="st1" width="2.18" height="2.8"/>
	<rect x="445.26" y="252.02" class="st1" width="2.02" height="14.39"/>
	<path class="st1" d="M455.16,264.88c-0.53,0.09-1.08,0.06-1.36-0.04c-0.14-0.05-0.25-0.14-0.31-0.26
		c-0.08-0.13-0.12-0.31-0.14-0.54c-0.02-0.23-0.03-0.52-0.03-0.88v-9.38h2.62v-1.75h-2.62v-3.89h-2.02v3.89h-1.97v1.75h1.97v10.03
		c0,1.1,0.23,1.88,0.7,2.32c0.46,0.44,1.13,0.66,1.99,0.66c0.41,0,0.79-0.05,1.13-0.14c0.31-0.09,0.57-0.15,0.77-0.19l0.16-0.03
		v-1.74l-0.25,0.06C455.6,264.8,455.38,264.84,455.16,264.88z"/>
	<path class="st1" d="M463.01,263.67l-4.29-11.51l-0.05-0.13h-2.24l5.5,14.26c-0.15,0.31-0.29,0.67-0.41,1.08
		c-0.12,0.43-0.28,0.84-0.46,1.24c-0.18,0.38-0.41,0.71-0.68,0.98c-0.25,0.25-0.57,0.37-0.97,0.37c-0.23,0-0.45-0.02-0.66-0.05
		l-0.89-0.14v1.93l0.15,0.04c0.22,0.05,0.47,0.1,0.74,0.14c0.26,0.04,0.55,0.06,0.85,0.06c0.59,0,1.12-0.14,1.55-0.43
		c0.42-0.27,0.82-0.67,1.17-1.19c0.34-0.51,0.66-1.12,0.96-1.83c0.29-0.67,0.59-1.45,0.94-2.38l5.21-13.8l0.1-0.27h-2.18
		L463.01,263.67z"/>
	<path class="st1" d="M486.72,259.02c-0.67-0.3-1.41-0.54-2.2-0.7c-0.77-0.16-1.49-0.35-2.14-0.55c-0.64-0.2-1.18-0.46-1.6-0.78
		c-0.39-0.3-0.58-0.72-0.58-1.29c0-0.66,0.24-1.18,0.73-1.58c0.5-0.41,1.25-0.62,2.22-0.62c0.98,0,1.8,0.21,2.44,0.63
		c0.62,0.41,1,1.13,1.14,2.14l0.02,0.17h2.05l-0.03-0.23c-0.21-1.64-0.81-2.82-1.8-3.53c-0.98-0.7-2.25-1.05-3.8-1.05
		c-1.61,0-2.87,0.39-3.76,1.17c-0.9,0.79-1.35,1.8-1.35,3.03c0,0.97,0.24,1.73,0.71,2.26c0.46,0.53,1.04,0.94,1.74,1.22
		c0.68,0.28,1.42,0.48,2.2,0.62c0.76,0.13,1.48,0.29,2.14,0.48c0.64,0.18,1.18,0.43,1.59,0.75c0.39,0.29,0.58,0.74,0.58,1.37
		c0,0.31-0.07,0.61-0.2,0.89c-0.13,0.28-0.33,0.54-0.59,0.76c-0.26,0.23-0.6,0.41-1,0.54c-0.41,0.14-0.91,0.21-1.48,0.21
		c-1.17,0-2.08-0.24-2.7-0.7c-0.62-0.46-1.05-1.28-1.29-2.43l-0.03-0.16h-2.02l0.01,0.21c0.04,0.69,0.19,1.34,0.45,1.93
		c0.26,0.6,0.63,1.13,1.1,1.58c0.47,0.45,1.04,0.8,1.7,1.06c0.66,0.25,1.42,0.38,2.27,0.38c0.84,0,1.62-0.09,2.33-0.26
		c0.71-0.18,1.34-0.45,1.86-0.8c0.53-0.36,0.95-0.81,1.25-1.35c0.3-0.54,0.46-1.17,0.46-1.87c0-0.94-0.24-1.7-0.71-2.24
		C487.99,259.75,487.41,259.33,486.72,259.02z"/>
	<path class="st1" d="M503.11,264.85c-0.12-0.09-0.26-0.34-0.26-1.04v-7.61c0-0.84-0.14-1.55-0.41-2.14
		c-0.27-0.58-0.66-1.06-1.14-1.41c-0.48-0.35-1.05-0.6-1.69-0.76c-1.33-0.33-2.91-0.31-4.23,0.03c-0.69,0.17-1.32,0.46-1.85,0.84
		c-0.53,0.38-0.97,0.89-1.31,1.5c-0.34,0.61-0.54,1.35-0.59,2.2l-0.01,0.21h2.04l0.02-0.18c0.07-0.58,0.21-1.07,0.42-1.45
		c0.21-0.38,0.48-0.68,0.8-0.9c0.33-0.23,0.71-0.39,1.16-0.48c0.45-0.1,0.95-0.14,1.5-0.14c1.2,0,2.06,0.25,2.55,0.74
		c0.49,0.49,0.74,1.13,0.74,1.89c0,0.24-0.03,0.5-0.09,0.78c-0.05,0.24-0.18,0.4-0.39,0.49c-0.25,0.12-0.59,0.21-0.99,0.28
		c-0.42,0.07-0.78,0.13-1.09,0.16l-2.24,0.3c-3.36,0.45-5.06,1.93-5.06,4.41c0,0.71,0.13,1.34,0.4,1.86
		c0.26,0.52,0.63,0.96,1.08,1.32c0.45,0.36,0.98,0.62,1.57,0.79c0.58,0.17,1.19,0.25,1.82,0.25c1.05,0,2.04-0.21,2.95-0.61
		c0.76-0.34,1.46-0.82,2.09-1.44c0.01,0.09,0.02,0.19,0.04,0.27c0.04,0.24,0.11,0.47,0.22,0.68c0.11,0.21,0.26,0.39,0.44,0.55
		c0.19,0.16,0.44,0.26,0.73,0.3c0.47,0.11,1.01,0.13,1.55-0.03l0.7-0.2v-1.71l-0.27,0.1C503.69,264.92,503.26,264.97,503.11,264.85z
		 M494.85,264.79c-0.34-0.09-0.65-0.24-0.91-0.43c-0.25-0.19-0.46-0.43-0.62-0.72c-0.16-0.28-0.23-0.63-0.23-1.03
		c0-0.89,0.31-1.53,0.95-1.97c0.66-0.45,1.6-0.71,2.81-0.8c0.7-0.05,1.42-0.13,2.12-0.22c0.62-0.08,1.24-0.24,1.85-0.47v1.89
		c0,0.67-0.14,1.25-0.41,1.72c-0.27,0.49-0.64,0.89-1.09,1.2c-0.46,0.32-0.98,0.56-1.57,0.71
		C496.82,264.94,495.81,265.04,494.85,264.79z"/>
	<path class="st1" d="M510.98,246.22c-0.22-0.02-0.46-0.03-0.72-0.03c-1.14,0-1.97,0.36-2.46,1.06c-0.47,0.68-0.71,1.61-0.71,2.76
		v2.02h-2.08v1.75h2.08v12.64h2.02v-12.64h2.7v-1.75h-2.7v-1.53c0-0.31,0.01-0.63,0.04-0.94c0.03-0.3,0.09-0.56,0.19-0.79
		c0.09-0.22,0.24-0.39,0.44-0.52c0.35-0.22,0.95-0.28,1.79-0.07l0.25,0.06v-1.91l-0.17-0.03
		C511.42,246.27,511.2,246.24,510.98,246.22z"/>
	<path class="st1" d="M519.55,251.64c-1.03,0-1.97,0.2-2.79,0.6c-0.81,0.4-1.51,0.95-2.08,1.65c-0.56,0.69-1,1.51-1.3,2.43
		c-0.3,0.92-0.46,1.91-0.46,2.95c0,1.04,0.13,2.03,0.38,2.93c0.26,0.92,0.66,1.72,1.2,2.39c0.54,0.68,1.23,1.22,2.07,1.61
		c0.83,0.39,1.83,0.59,2.97,0.59c0.9,0,1.7-0.12,2.39-0.36c0.69-0.24,1.29-0.59,1.79-1.03c0.5-0.44,0.92-0.95,1.26-1.54
		c0.33-0.58,0.6-1.21,0.8-1.89l0.08-0.26h-2.24l-0.04,0.15c-0.24,0.97-0.72,1.74-1.44,2.26c-0.72,0.53-1.59,0.8-2.61,0.8
		c-0.74,0-1.4-0.14-1.96-0.42c-0.56-0.28-1.04-0.66-1.4-1.13c-0.37-0.47-0.65-1.04-0.84-1.69c-0.17-0.59-0.27-1.22-0.29-1.89h10.85
		l0-0.2c0.02-2.55-0.54-4.54-1.67-5.89C523.11,252.34,521.53,251.64,519.55,251.64z M519.55,253.5c0.69,0,1.3,0.12,1.83,0.37
		c0.53,0.25,0.97,0.58,1.32,1c0.35,0.42,0.62,0.92,0.8,1.5c0.16,0.52,0.25,1.08,0.27,1.67h-8.7c0.08-0.56,0.22-1.11,0.42-1.62
		c0.22-0.57,0.52-1.08,0.9-1.51c0.37-0.43,0.82-0.78,1.34-1.03C518.25,253.63,518.86,253.5,519.55,253.5z"/>
	<path class="st1" d="M534.91,251.64c-1.2,0-2.19,0.23-2.93,0.69c-0.58,0.36-1.08,0.94-1.49,1.71v-2.03h-2.02v14.39h2.02v-7.06
		c0-0.75,0.07-1.49,0.2-2.19c0.13-0.68,0.36-1.28,0.7-1.78c0.33-0.49,0.78-0.88,1.34-1.18c0.53-0.27,1.21-0.41,2.03-0.41l0.35,0.01
		v-2.16H534.91z"/>
</g>
<rect x="200.05" y="230.62" class="st1" width="486.12" height="2"/>
<g>
	<path class="st2" d="M50.71,58.85H33.47v36.39h11.3c3.02-7.02,7.51-13.37,13.47-19.08c3.8-3.64,7.89-6.7,12.26-9.19
		C67.25,61.56,60.66,58.85,50.71,58.85z"/>
	<path class="st2" d="M190.29,58.85h-17.24v36.39h18.24c6.77,0,11.99-1.6,15.65-4.79c3.67-3.19,5.5-7.76,5.5-13.7
		C212.44,64.82,205.06,58.85,190.29,58.85z"/>
	<path class="st1" d="M58.27,109.44c5.14-0.57,9.43-1.54,12.85-2.91c5.88-2.36,10.52-6.15,13.91-11.37
		c3.38-5.22,5.08-11.21,5.08-17.99c0-0.28-0.01-0.55-0.02-0.82c-7.42,1.95-13.93,5.59-19.52,10.93
		C64.05,93.5,59.96,100.89,58.27,109.44z"/>
	<path class="st1" d="M33.47,95.24V58.85h17.24c9.95,0,16.54,2.71,19.79,8.12c4.91-2.8,10.17-4.88,15.79-6.23
		c-1.55-2.87-3.59-5.44-6.09-7.72c-6.61-6-15.46-8.99-26.57-8.99H16.74v116.51h16.74v-50.47h7.24c0.71-5.23,2.06-10.17,4.06-14.82
		H33.47z"/>
	<path class="st1" d="M156.31,105.72v0.74c0.01-0.16,0.01-0.32,0.01-0.48C156.33,105.89,156.32,105.81,156.31,105.72z"/>
	<path class="st0" d="M219.77,53.02c-6.61-6-15.46-8.99-26.57-8.99h-36.89v31.79c10.44,7.83,15.67,17.37,15.67,28.61
		c0,9.33-3.12,16.91-9.37,22.74c-1.92,1.79-4.02,3.31-6.3,4.55v28.82h16.74v-50.47h12.32c11,0,19.43-1.18,25.32-3.54
		c5.89-2.36,10.52-6.15,13.91-11.37c3.39-5.22,5.08-11.21,5.08-17.99C229.68,67.07,226.38,59.01,219.77,53.02z M206.95,90.45
		c-3.66,3.19-8.88,4.79-15.65,4.79h-18.24V58.85h17.24c14.77,0,22.15,5.97,22.15,17.91C212.44,82.69,210.61,87.26,206.95,90.45z"/>
	<path class="st3" d="M44.77,95.24h6.94c6.77,0,11.99-1.6,15.65-4.79c3.67-3.19,5.5-7.76,5.5-13.7c0-3.9-0.79-7.16-2.37-9.78
		c-4.37,2.49-8.45,5.56-12.26,9.19C52.28,81.87,47.79,88.22,44.77,95.24z"/>
	<path class="st3" d="M40.71,110.06c-0.39,2.86-0.58,5.79-0.58,8.82c0,10.66,2.63,20.57,7.91,29.73
		c5.27,9.16,12.44,16.35,21.48,21.57c9.05,5.22,20.07,7.83,33.06,7.83c15.99,0,30.09-3.33,42.31-9.99V149.7
		c-13.44,8.66-27.2,12.99-41.31,12.99c-13.49,0-24.57-4.11-33.23-12.33c-8.66-8.21-12.99-18.71-12.99-31.48
		c0-3.29,0.3-6.44,0.9-9.45c-3.71,0.41-7.86,0.62-12.47,0.62H40.71z"/>
	<path class="st3" d="M111.4,63.83c-1.08-1.51-1.99-3.09-2.72-4.75c-1.95-0.15-3.87-0.24-5.76-0.24c-5.85,0-11.39,0.63-16.63,1.9
		c2.43,4.48,3.69,9.69,3.8,15.61c4.26-1.12,8.81-1.68,13.67-1.68c9.67,0,19.5,2.16,29.5,6.46l-4.91-2.98
		C120.4,73.29,114.76,68.52,111.4,63.83z"/>
	<path class="st0" d="M86.29,60.74c-5.62,1.35-10.88,3.43-15.79,6.23c1.57,2.63,2.37,5.88,2.37,9.78c0,5.16-1.38,9.28-4.15,12.36
		l-1.35,1.33c-3.66,3.19-8.88,4.79-15.65,4.79h-6.94c-2,4.65-3.36,9.59-4.06,14.82h5.09c4.61,0,8.76-0.21,12.47-0.62
		c1.58-7.97,5.25-14.93,11.01-20.88c0.42-0.43,0.85-0.86,1.29-1.28c5.59-5.34,12.1-8.98,19.52-10.93
		C89.98,70.42,88.72,65.22,86.29,60.74z"/>
	<path class="st1" d="M171.98,104.43c0-11.24-5.23-20.77-15.67-28.61v29.9c0,0.09,0.01,0.18,0.01,0.26c0,0.16-0.01,0.32-0.01,0.48
		v25.25c2.28-1.24,4.38-2.76,6.3-4.55C168.86,121.33,171.98,113.75,171.98,104.43z"/>
	<g>
		<path class="st4" d="M126.93,35.5c3.49-2.52,7.96-3.77,13.41-3.77c9.66,0,18.68,4.03,27.06,12.1v-18.9
			c-8.11-5.45-17.02-8.18-26.73-8.18c-10.16,0-18.42,2.86-24.78,8.58c-6.36,5.72-9.54,13.16-9.54,22.32c0,4.14,0.78,7.96,2.32,11.45
			c0.73,1.66,1.64,3.24,2.72,4.75c3.36,4.69,9.01,9.46,16.95,14.31l4.91,2.98l7.75,4.71c10.09,6.27,15.19,12.9,15.31,19.89v-29.9
			c-1.73-1.3-3.6-2.55-5.62-3.76l-12.72-7.53c-5.71-3.35-9.85-6.54-12.43-9.58c-2.58-3.04-3.87-6.3-3.87-9.79
			C121.68,41.24,123.43,38.02,126.93,35.5z"/>
		<path class="st4" d="M151.12,116.89c-3.47,2.9-7.81,4.36-13.03,4.36c-11.82,0-22.24-5.7-31.23-17.09v21.15
			c9.44,7.06,19.9,10.6,31.39,10.6c6.92,0,12.94-1.4,18.06-4.19v-25.25C156.19,110.62,154.46,114.1,151.12,116.89z"/>
	</g>
</g>
</svg>
