<svg id="Layer_1" data-name="Layer 1" xmlns="http://www.w3.org/2000/svg" viewBox="0 0 661.58 159.45"><defs><style>.cls-1{fill:#6dcff6;}.cls-2{fill:#888cb8;}.cls-3{fill:#102b72;}</style></defs><path class="cls-1" d="M468.09,405.92a75.23,75.23,0,0,0-50.19,1A75.68,75.68,0,0,0,404,461.72,80.57,80.57,0,0,1,483.34,441,75.68,75.68,0,0,0,468.09,405.92Z" transform="translate(-368.28 -402.08)"/><path class="cls-2" d="M519.92,470.56c-.14-1.43-.32-2.86-.55-4.3s-.5-3-.83-4.47a76.93,76.93,0,0,0-5.13-15.33c-.18-.4-.37-.81-.56-1.21-.34-.7-.67-1.39-1-2.07-.21-.42-.43-.84-.66-1.25-.35-.66-.71-1.31-1.09-1.95s-.56-1-.85-1.44-.63-1-1-1.53-.82-1.27-1.25-1.89l-.62-.9c-.59-.83-1.19-1.67-1.82-2.48l-.12-.16a76.14,76.14,0,0,0-19.15-17.46,78.27,78.27,0,0,0-8.91-4.62,81.15,81.15,0,0,1,12,33.1c.12.93.24,1.86.33,2.8s.13,1.7.19,2.55a80.07,80.07,0,0,1-9.38,43.12c-1,1.78-2,3.54-3.09,5.26a80,80,0,0,1-26.07,25.43,75.79,75.79,0,0,0,55.42,1q1.32-1.82,2.54-3.7A75.31,75.31,0,0,0,519.92,470.56Z" transform="translate(-368.28 -402.08)"/><path class="cls-3" d="M445,524.74c-.9-.43-1.78-.88-2.66-1.33s-1.79-.91-2.67-1.4a80.8,80.8,0,0,1-38.53-49.75q-.39-1.49-.72-3c-.23-1-.45-2-.63-3A80.42,80.42,0,0,1,408,413.41c.51-.94,1.2-1.81,1.74-2.74a88.76,88.76,0,0,0-9.51,5.6c-1.53,1-3,2.13-4.47,3.31A75.89,75.89,0,0,0,383,523.06c.43.58.88,1.16,1.32,1.73s.84,1.14,1.3,1.69a.21.21,0,0,0,.06.08c.46.55.94,1.1,1.42,1.64a75.93,75.93,0,0,0,87,19.7c.63-.27,1.25-.55,1.87-.84.33-.15.65-.29,1-.45a74.29,74.29,0,0,0,22.82-16.9A80.84,80.84,0,0,1,445,524.74Z" transform="translate(-368.28 -402.08)"/><path class="cls-3" d="M539.21,441.12h4.62l4.91,16.65h.06l2.14-16.65h3.52l-2.72,21.2H547.1l-4.9-16.52h-.06L540,462.32H536.5Z" transform="translate(-368.28 -402.08)"/><path class="cls-3" d="M564.17,446.44c3.19,0,6.65,1.67,5.83,8.05-.84,6.56-4.71,8.08-7.9,8.08s-6.7-1.52-5.86-8.08C557.06,448.11,561,446.44,564.17,446.44Zm-1.73,13.45c2.43,0,3.34-2.79,3.67-5.4s.14-5.38-2.29-5.38-3.36,2.77-3.69,5.38S560,459.89,562.44,459.89Z" transform="translate(-368.28 -402.08)"/><path class="cls-3" d="M573.77,449.26a22.73,22.73,0,0,0,.21-2.58h3.4c-.09.94-.13,1.92-.25,2.86h.06c.62-1.22,2-3.1,4.38-3.1a4,4,0,0,1,.63.09l-.45,3.52a3.8,3.8,0,0,0-1-.15c-1.55,0-3.37.94-3.74,3.86l-1.1,8.56h-3.77Z" transform="translate(-368.28 -402.08)"/><path class="cls-3" d="M586.48,443.46l3.91-1.15-.56,4.37H593l-.35,2.77h-3.13l-1,8.11c-.22,1.67.33,2.15,1.42,2.15a3.25,3.25,0,0,0,1.47-.33l-.34,2.67a6.3,6.3,0,0,1-2.59.52c-2.79,0-4.21-1.28-3.79-4.56l1.1-8.56h-2.49l.35-2.77h2.49Z" transform="translate(-368.28 -402.08)"/><path class="cls-3" d="M596.27,439.54H600l-1.17,9.15H599a4.91,4.91,0,0,1,4.17-2.25c3.56,0,4.28,2.64,3.88,5.8l-1.3,10.08H602l1.2-9.38c.31-2.4-.17-3.4-1.72-3.4-2,0-2.89,1.67-3.14,3.67l-1.17,9.11h-3.77Z" transform="translate(-368.28 -402.08)"/><path class="cls-3" d="M620.69,461.56a12.43,12.43,0,0,1-4.8,1c-5,0-6.77-3.62-6.23-7.84.6-4.68,3.53-8.29,7.51-8.29,3.37,0,6,2,5.18,8.35l-.09.73h-9c-.34,2.67.51,4.28,3.43,4.28a6.93,6.93,0,0,0,4.25-1.21Zm-1.77-8.41c.35-2.76-.38-4.16-2.08-4.16-2,0-3.06,2.1-3.33,4.16Z" transform="translate(-368.28 -402.08)"/><path class="cls-3" d="M626.1,449.26a22.73,22.73,0,0,0,.21-2.58h3.4c-.09.94-.12,1.92-.24,2.86h.06a5.13,5.13,0,0,1,4.37-3.1,3.82,3.82,0,0,1,.63.09l-.45,3.52a3.8,3.8,0,0,0-1.05-.15c-1.55,0-3.37.94-3.74,3.86l-1.1,8.56h-3.77Z" transform="translate(-368.28 -402.08)"/><path class="cls-3" d="M636.67,449.26a22.73,22.73,0,0,0,.21-2.58h3.52c-.07.79-.08,1.61-.19,2.4h.07a5.33,5.33,0,0,1,4.5-2.64c3.55,0,4.27,2.64,3.87,5.8l-1.29,10.08h-3.77l1.2-9.38c.31-2.4-.17-3.4-1.72-3.4-2,0-2.88,1.67-3.14,3.67l-1.17,9.11H635Z" transform="translate(-368.28 -402.08)"/><path class="cls-3" d="M662,441.12h3.89l-2.72,21.2h-3.89Z" transform="translate(-368.28 -402.08)"/><path class="cls-3" d="M668.89,449.26a18.88,18.88,0,0,0,.21-2.58h3.4c-.09.94-.12,1.92-.24,2.86h.06a5.14,5.14,0,0,1,4.38-3.1,3.69,3.69,0,0,1,.62.09l-.45,3.52a3.73,3.73,0,0,0-1-.15c-1.55,0-3.37.94-3.75,3.86L671,462.32h-3.77Z" transform="translate(-368.28 -402.08)"/><path class="cls-3" d="M689.07,461.56a12.5,12.5,0,0,1-4.81,1c-5,0-6.76-3.62-6.22-7.84.6-4.68,3.52-8.29,7.5-8.29,3.37,0,6,2,5.19,8.35l-.1.73h-9c-.34,2.67.52,4.28,3.43,4.28a7,7,0,0,0,4.26-1.21Zm-1.78-8.41c.36-2.76-.37-4.16-2.07-4.16-2,0-3.07,2.1-3.33,4.16Z" transform="translate(-368.28 -402.08)"/><path class="cls-3" d="M696,439.54h3.77l-2.92,22.78H693Z" transform="translate(-368.28 -402.08)"/><path class="cls-3" d="M703.22,447.59a12,12,0,0,1,5.1-1.15c4.86,0,5.68,2.37,5.18,6.29l-.88,6.83a20.22,20.22,0,0,0-.14,2.76h-3.4a7.31,7.31,0,0,1,.06-2.12h-.06a5.86,5.86,0,0,1-4.68,2.37,3.88,3.88,0,0,1-4.09-4.59c.55-4.25,4.15-5.31,8.91-5.31H710l.08-.58c.2-1.55-.38-3-2.54-3a8.07,8.07,0,0,0-4.47,1.52Zm6.51,7.08h-.34c-3.22,0-5.22.67-5.51,2.95A2,2,0,0,0,706,460c2.25,0,3.29-1.67,3.64-4.47Z" transform="translate(-368.28 -402.08)"/><path class="cls-3" d="M717.44,449.26a22.73,22.73,0,0,0,.21-2.58h3.52c-.07.79-.09,1.61-.19,2.4H721a5.36,5.36,0,0,1,4.5-2.64c3.56,0,4.28,2.64,3.88,5.8l-1.3,10.08h-3.76l1.2-9.38c.31-2.4-.17-3.4-1.72-3.4-2,0-2.89,1.67-3.14,3.67l-1.17,9.11h-3.77Z" transform="translate(-368.28 -402.08)"/><path class="cls-3" d="M747.29,439.54l-2.58,20.11a22.39,22.39,0,0,0-.22,2.67H741a23.47,23.47,0,0,1,.19-2.43h-.09a4.91,4.91,0,0,1-4.5,2.68c-3.89,0-5-3.71-4.47-8.05.65-5.1,3.07-8.08,6.44-8.08a3.59,3.59,0,0,1,3.72,2.49h.06l1.21-9.39ZM738,459.8c2.22,0,3.29-2.4,3.67-5.34s-.18-5.26-2.25-5.26-3.08,2-3.48,5.17C735.42,458,735.77,459.8,738,459.8Z" transform="translate(-368.28 -402.08)"/><path class="cls-3" d="M534.71,475.85h18.78c13.52,0,19.61,7.45,18,19.74s-9.58,19.84-23.1,19.84h-6.76l-3.26,25.42h-12Zm12.62,30.45c7.51,0,11.27-3.63,12.17-10.71S557.58,485,550.07,485h-4.51l-2.73,21.32Z" transform="translate(-368.28 -402.08)"/><path class="cls-3" d="M593.94,492.15c9.86,0,20.57,5.12,18.06,24.68-2.58,20.11-14.54,24.77-24.4,24.77s-20.71-4.66-18.13-24.77C572,497.27,584.09,492.15,593.94,492.15Zm-5.29,41.25c7.51,0,10.3-8.56,11.33-16.57s.42-16.49-7.09-16.49-10.38,8.48-11.41,16.49S581.14,533.4,588.65,533.4Z" transform="translate(-368.28 -402.08)"/><path class="cls-3" d="M625.38,471H637l-9,69.84H616.43Z" transform="translate(-368.28 -402.08)"/><path class="cls-3" d="M644.17,492.89h11.64l-6.15,48H638Zm2.43-20.39h12l-1.46,11.36h-12Z" transform="translate(-368.28 -402.08)"/><path class="cls-3" d="M691.5,539.64a35.41,35.41,0,0,1-11.7,2c-16,0-21.3-11.08-19.56-24.68s10.31-24.77,26.55-24.77a29.91,29.91,0,0,1,9.89,2l-1.82,9.13A17,17,0,0,0,687,500.9c-8.83,0-13.43,5.87-14.74,16.11-1.15,8.94,2.29,15.84,11.2,15.84a20.75,20.75,0,0,0,8.56-2.33Z" transform="translate(-368.28 -402.08)"/><path class="cls-3" d="M702.94,492.89h11.64l-6.15,48H696.79Zm2.43-20.39h12l-1.46,11.36h-12Z" transform="translate(-368.28 -402.08)"/><path class="cls-3" d="M722.39,500.81a63.06,63.06,0,0,0,.64-7.92h10.89c-.21,2.42-.25,4.94-.56,7.36h.18c2.06-2.89,6-8.1,13.91-8.1,11,0,13.23,8.1,12,17.79l-4,30.91H743.83l3.69-28.77c.94-7.36-.54-10.43-5.33-10.43-6.1,0-8.92,5.12-9.71,11.27l-3.58,27.93H717.26Z" transform="translate(-368.28 -402.08)"/><path class="cls-3" d="M763.71,548.3a27.86,27.86,0,0,0,13.75,4.1c11,0,13.74-7.54,14.7-15.09l.59-4.56h-.19c-2.35,3.73-6.2,8.1-13.81,8.1-6.76,0-16.32-4.47-13.84-23.84,1.7-13.22,8-24.86,20.65-24.86,7,0,9.82,4,11.72,8.19h.38c.32-2.51.91-4.93,1.33-7.45H809.5c-.51,2.52-1,5-1.34,7.55l-4.54,35.39c-1.92,15-7.9,25.7-25.64,25.7a45.82,45.82,0,0,1-16.24-3Zm18.85-15.92c7.33,0,10.9-5.22,12.3-16.11,1.29-10.06-1.86-15.46-7.42-15.37-6.11.1-9.17,5.68-10.43,15.46C775.57,527.63,778.62,532.38,782.56,532.38Z" transform="translate(-368.28 -402.08)"/><path class="cls-1" d="M820.79,475.85H840c13.51,0,19.07,5,17.66,16-1.33,10.34-8.29,13.41-12.82,15l0,.19c4.93,1.12,11.8,4.65,10.4,15.55-1.52,11.83-11.07,18.25-22.71,18.25h-20Zm4.48,55.88h6.67c6.47,0,10.54-3.91,11.32-10,.73-5.68-1.73-10-9.14-10h-6.29ZM829,503h6.19c5.92,0,10-4.37,10.63-9.68.71-5.5-2.82-8.76-8.54-8.76h-5.92Z" transform="translate(-368.28 -402.08)"/><path class="cls-1" d="M886.39,492.15c9.86,0,20.57,5.12,18.06,24.68-2.58,20.11-14.54,24.77-24.4,24.77s-20.71-4.66-18.13-24.77C864.43,497.27,876.54,492.15,886.39,492.15ZM881.1,533.4c7.52,0,10.3-8.56,11.33-16.57s.43-16.49-7.09-16.49-10.38,8.48-11.4,16.49S873.59,533.4,881.1,533.4Z" transform="translate(-368.28 -402.08)"/><path class="cls-1" d="M915.89,495.69a37,37,0,0,1,15.76-3.54c15,0,17.56,7.26,16,19.28L945,532.38a59,59,0,0,0-.43,8.47H934a23,23,0,0,1,.18-6.51H934c-3.41,3.91-7.5,7.26-14.45,7.26-7.51,0-13.8-5.12-12.66-14.06,1.68-13,12.8-16.3,27.54-16.3h2.34l.23-1.77c.61-4.75-1.18-9.13-7.84-9.13A25.27,25.27,0,0,0,915.35,505ZM936,517.39h-1c-10,0-16.13,2.05-17,9-.56,4.38,2,7.36,6.47,7.36,7,0,10.14-5.13,11.24-13.69Z" transform="translate(-368.28 -402.08)"/><path class="cls-1" d="M957.39,500.81a67.09,67.09,0,0,0,.64-7.92h10.51c-.27,2.89-.37,5.87-.75,8.76H968c1.89-3.73,6.29-9.5,13.52-9.5a12.4,12.4,0,0,1,1.94.28l-1.39,10.8a11.55,11.55,0,0,0-3.23-.46c-4.78,0-10.41,2.88-11.56,11.82l-3.37,26.26H952.25Z" transform="translate(-368.28 -402.08)"/><path class="cls-1" d="M1029.86,471l-7.9,61.65a59.43,59.43,0,0,0-.68,8.19h-10.89a63.32,63.32,0,0,1,.58-7.45h-.28c-2.41,4.1-6.4,8.2-13.92,8.2-12,0-15.53-11.36-13.82-24.68,2-15.65,9.46-24.77,19.88-24.77,6.95,0,10.3,3.91,11.51,7.63h.19l3.69-28.77Zm-28.81,62.11c6.86,0,10.15-7.35,11.31-16.39,1.19-9.31-.57-16.11-7-16.11s-9.53,6.24-10.76,15.83C993.23,527.54,994.29,533.12,1001.05,533.12Z" transform="translate(-368.28 -402.08)"/></svg>