<?xml version="1.0" standalone="no"?>
<!DOCTYPE svg PUBLIC "-//W3C//DTD SVG 20010904//EN"
 "http://www.w3.org/TR/2001/REC-SVG-20010904/DTD/svg10.dtd">
<svg version="1.0" xmlns="http://www.w3.org/2000/svg"
 width="2032.000000pt" height="2032.000000pt" viewBox="0 0 2032.000000 2032.000000"
 preserveAspectRatio="xMidYMid meet">
<metadata>
Created by potrace 1.14, written by Peter Selinger 2001-2017
</metadata>
<g transform="translate(0.000000,2032.000000) scale(0.100000,-0.100000)"
fill="#000000" stroke="none">
<path d="M18871 10694 l0 -3836 24 5 c14 2 25 0 25 -5 0 -5 5 -6 11 -2 15 9
103 9 118 0 6 -4 11 -4 11 1 0 8 103 8 125 0 6 -3 18 -2 25 3 7 4 26 4 41 0
16 -5 31 -5 33 -2 5 9 70 7 85 -3 6 -3 11 -3 11 2 0 9 103 8 126 -1 7 -3 15
-2 18 2 2 4 24 6 48 4 24 -2 50 -3 58 -3 41 2 106 2 115 1 6 -1 15 -1 20 0 24
5 215 1 224 -4 5 -4 12 -3 15 2 2 4 24 6 48 4 24 -2 50 -3 58 -3 61 3 111 2
119 -3 5 -4 12 -3 14 2 3 4 21 7 41 6 l36 -2 0 3834 0 3834 -724 0 -725 0 0
-3836z"/>
<path d="M12 10671 l3 -3835 668 -1 c421 0 671 4 675 10 9 15 8 505 -1 505 -5
0 -5 6 -1 12 11 17 11 468 1 468 -5 0 -5 6 -1 12 11 17 11 468 1 468 -5 0 -5
6 -1 12 11 17 11 2228 1 2228 -5 0 -5 6 -1 12 11 18 11 468 0 468 -5 0 -4 6 1
13 5 6 8 87 7 180 0 92 3 170 8 173 5 3 7 2 6 -3 -1 -4 23 -59 54 -120 31 -62
54 -113 50 -113 -4 0 -2 -4 3 -8 6 -4 22 -32 37 -62 15 -30 69 -143 121 -250
52 -107 130 -267 173 -355 43 -88 77 -163 76 -167 -1 -5 3 -8 8 -8 6 0 10 -4
10 -9 0 -5 45 -103 101 -218 56 -114 135 -278 176 -363 42 -85 113 -231 158
-325 45 -93 122 -251 171 -350 48 -99 87 -183 86 -187 -1 -5 3 -8 8 -8 5 0 9
-3 8 -7 -1 -5 24 -60 55 -124 31 -63 57 -121 57 -127 0 -7 5 -12 10 -12 6 0
10 -4 10 -9 0 -15 103 -225 115 -233 5 -4 7 -8 3 -8 -5 0 9 -33 29 -72 21 -40
38 -75 38 -78 1 -3 50 -104 109 -225 168 -342 226 -463 226 -475 0 -5 5 -10
10 -10 6 0 10 -4 10 -10 0 -5 48 -107 106 -227 59 -120 107 -224 107 -230 0
-7 4 -13 8 -13 3 0 22 -34 40 -75 28 -64 36 -75 58 -76 14 -1 131 -2 259 -3
l232 -1 52 105 c28 58 51 108 50 113 -1 4 2 7 8 7 6 0 9 3 8 8 -2 6 101 226
123 262 5 8 13 24 18 35 5 11 48 101 96 200 48 99 118 244 156 322 38 79 70
146 70 150 0 5 7 15 14 23 7 8 17 27 20 43 4 15 12 27 18 27 6 0 8 3 5 6 -3 3
12 39 33 80 21 41 36 74 31 74 -4 0 -2 4 4 8 10 7 48 82 47 92 -1 3 8 17 18
32 10 14 19 29 19 33 0 6 141 298 231 478 26 53 48 98 48 100 0 1 51 106 113
232 62 127 113 232 113 235 1 3 39 82 85 175 46 94 83 173 82 178 -1 4 2 7 8
7 5 0 10 5 10 10 0 11 119 263 159 338 44 79 128 262 123 266 -3 3 0 6 6 6 7
0 12 4 12 9 0 5 48 107 107 227 59 121 107 221 108 224 1 3 26 56 57 118 31
61 53 112 50 112 -4 0 -2 4 3 8 14 10 55 91 55 108 0 8 4 14 8 14 4 0 13 15
20 33 39 108 38 165 37 -2200 0 -1247 1 -2275 3 -2284 2 -10 9 -16 15 -15 16
2 49 22 46 27 -4 6 23 113 31 124 4 6 10 24 14 40 8 37 45 160 60 200 6 17 11
33 12 38 1 4 2 8 4 10 1 1 3 10 5 19 2 9 14 52 28 95 28 87 50 163 53 178 0 6
4 17 7 25 9 22 58 173 62 191 3 14 58 200 70 237 3 7 4 13 4 15 0 1 10 29 21
62 12 33 23 69 26 80 5 23 53 183 61 205 4 8 7 17 8 20 0 3 9 32 19 65 10 33
19 65 20 70 1 6 17 57 36 115 18 58 35 108 36 113 1 4 2 8 4 10 1 1 3 11 5 21
2 11 15 56 29 100 14 45 42 135 62 201 19 66 37 126 40 133 2 7 3 13 3 15 0 1
10 29 21 62 12 33 23 67 25 75 2 8 12 44 23 80 63 201 85 276 85 280 0 3 4 16
9 30 5 14 11 32 13 40 2 8 10 35 18 60 8 25 25 79 37 120 12 41 27 89 33 105
7 17 11 34 9 38 -1 4 5 21 13 37 9 17 13 30 10 30 -3 0 -1 9 5 21 6 11 13 29
15 40 2 11 16 59 31 107 15 48 38 123 51 167 13 44 28 87 32 95 4 8 7 23 5 33
-1 9 2 17 7 17 5 0 9 6 9 14 0 12 72 256 87 296 7 16 11 30 17 58 3 9 5 17 6
17 1 0 4 11 6 24 2 14 6 27 8 29 2 2 0 17 -4 33 -5 16 -5 29 0 29 5 0 5 13 0
30 -5 19 -5 30 1 30 6 0 6 6 0 18 -6 11 -6 24 0 34 6 10 6 19 0 23 -7 4 -7 15
-1 30 5 14 6 25 2 25 -4 0 -7 11 -7 25 0 14 3 25 7 25 4 0 3 14 -2 30 -5 19
-5 30 1 30 6 0 6 6 0 18 -6 11 -6 24 0 34 6 10 6 19 0 23 -7 4 -7 15 -1 30 5
14 6 25 2 25 -4 0 -7 11 -7 25 0 14 3 25 7 25 4 0 3 14 -2 30 -5 19 -5 30 1
30 6 0 6 6 0 18 -6 11 -6 24 0 34 6 10 6 19 0 23 -7 4 -7 15 -1 30 5 14 6 25
2 25 -4 0 -7 11 -7 25 0 14 3 25 7 25 4 0 3 14 -2 30 -5 19 -5 30 1 30 6 0 6
6 0 18 -6 11 -6 24 0 34 6 10 6 19 0 23 -7 4 -7 15 -1 30 5 14 6 25 2 25 -4 0
-7 11 -7 25 0 14 3 25 7 25 4 0 3 14 -2 30 -5 19 -5 30 1 30 6 0 6 6 0 18 -6
10 -6 24 -1 32 5 8 6 19 3 24 -9 13 -8 59 0 73 4 7 3 14 -2 18 -7 3 -7 15 -1
30 6 15 6 27 0 30 -5 3 -6 15 -1 28 5 12 5 34 0 49 -4 16 -4 28 1 28 6 0 6 9
1 23 -5 14 -5 30 0 40 7 11 6 17 0 17 -6 0 -6 11 -1 30 5 17 6 30 2 30 -4 0
-7 11 -7 25 0 14 3 25 7 25 4 0 3 11 -2 25 -6 15 -6 26 1 30 6 4 6 13 0 23 -6
10 -6 23 0 34 6 12 6 18 0 18 -6 0 -6 11 -1 30 5 17 6 30 2 30 -4 0 -7 11 -7
25 0 14 3 25 7 25 4 0 3 11 -2 25 -6 15 -6 26 0 30 6 4 7 13 1 23 -6 11 -6 24
0 35 7 11 7 17 0 17 -6 0 -6 11 -1 30 5 17 6 30 2 30 -4 0 -7 11 -7 25 0 14 3
25 7 25 4 0 3 11 -2 25 -6 15 -6 26 0 30 6 4 7 13 1 23 -6 11 -6 24 0 35 7 11
7 17 0 17 -6 0 -6 11 -1 30 5 17 6 30 2 30 -4 0 -7 11 -7 25 0 14 3 25 7 25 4
0 3 11 -2 25 -6 15 -6 26 0 30 6 4 7 13 1 23 -6 11 -6 24 0 35 7 11 7 17 0 17
-6 0 -6 11 -1 30 5 17 6 30 2 30 -4 0 -7 11 -7 25 0 14 3 25 7 25 4 0 3 11 -2
25 -6 15 -6 26 0 30 6 4 7 13 1 23 -6 11 -6 24 0 35 7 11 7 17 0 17 -6 0 -6
11 -1 30 5 17 6 30 2 30 -4 0 -7 11 -7 25 0 14 3 25 7 25 4 0 3 11 -2 25 -6
15 -6 26 0 30 6 4 7 13 1 23 -6 11 -6 24 0 35 7 11 7 17 0 17 -6 0 -6 11 -1
30 5 17 6 30 2 30 -4 0 -7 11 -7 25 0 14 3 25 7 25 4 0 3 11 -2 25 -6 15 -6
26 0 30 7 4 7 13 0 24 -5 10 -7 21 -3 24 5 6 6 78 0 150 -1 20 1 37 5 37 4 0
3 13 -3 28 l-9 28 -640 -1 c-412 0 -642 -4 -649 -10 -5 -5 -35 -62 -67 -125
-31 -63 -116 -234 -188 -380 -72 -146 -134 -266 -138 -268 -5 -2 -8 -12 -8
-23 0 -10 -4 -19 -9 -19 -5 0 -12 -13 -16 -29 -3 -16 -13 -35 -21 -42 -8 -6
-14 -17 -14 -23 0 -14 -42 -99 -53 -107 -5 -3 -8 -9 -8 -13 1 -3 -68 -146
-153 -316 -85 -171 -151 -310 -147 -310 3 0 1 -4 -5 -8 -5 -4 -48 -83 -94
-177 -46 -93 -87 -172 -90 -175 -3 -3 -7 -14 -8 -25 -2 -11 -7 -22 -11 -25 -9
-6 -182 -357 -180 -366 0 -4 -3 -10 -8 -13 -4 -3 -43 -78 -86 -166 -43 -88
-83 -167 -87 -175 -13 -21 -73 -144 -74 -150 -1 -3 -5 -10 -9 -17 -18 -28
-261 -519 -263 -531 -1 -8 -10 -22 -18 -31 -9 -10 -16 -25 -16 -34 0 -9 -4
-18 -9 -21 -9 -6 -73 -133 -77 -154 -1 -7 -8 -20 -15 -28 -14 -17 -61 -112
-65 -132 -1 -8 -10 -22 -18 -31 -9 -10 -16 -21 -16 -25 0 -12 -84 -180 -93
-187 -5 -3 -9 -10 -9 -15 0 -10 -119 -256 -128 -264 -3 -3 -15 -27 -28 -55
-86 -186 -299 -604 -307 -604 -8 0 -548 1071 -751 1492 -29 59 -58 114 -64
122 -7 8 -10 15 -6 15 4 0 0 10 -8 23 -8 12 -60 114 -116 226 -55 113 -106
211 -113 219 -6 8 -11 17 -9 19 3 4 -333 681 -347 697 -5 6 -10 16 -11 21 -2
17 -114 240 -122 243 -4 2 -8 10 -8 17 0 16 -81 177 -93 186 -5 3 -8 10 -8 15
1 5 -159 331 -355 724 -512 1027 -515 1034 -526 1045 -6 6 -237 10 -654 10
l-644 1 2 -3835z"/>
<path d="M11764 14438 c0 -38 -3 -68 -7 -68 -5 0 -5 -5 -1 -11 9 -16 11 -208
2 -202 -5 2 -4 -6 0 -19 9 -27 8 -167 -1 -192 -4 -9 -2 -16 3 -16 6 0 10 -5
10 -11 0 -5 -5 -7 -12 -3 -7 5 -8 3 -3 -6 11 -17 12 -190 2 -190 -5 0 -5 -6
-1 -12 11 -17 11 -79 1 -100 -4 -10 -4 -18 0 -18 4 0 8 -40 8 -90 0 -49 -4
-90 -8 -90 -5 0 -5 -5 -1 -11 9 -16 11 -208 2 -202 -5 2 -4 -6 0 -19 9 -27 8
-167 -1 -192 -4 -9 -2 -16 3 -16 6 0 10 -5 10 -11 0 -5 -5 -7 -12 -3 -7 5 -8
3 -3 -6 11 -17 12 -190 2 -190 -5 0 -5 -5 -1 -11 9 -16 11 -198 2 -192 -5 2
-4 -6 0 -19 9 -27 8 -170 -2 -186 -3 -6 -2 -13 4 -17 5 -3 10 -11 10 -16 0 -6
-5 -7 -12 -3 -7 5 -8 3 -3 -6 11 -17 12 -190 2 -190 -5 0 -5 -6 -1 -12 11 -17
11 -79 1 -100 -4 -10 -4 -18 0 -18 4 0 8 -40 8 -90 0 -49 -4 -90 -8 -90 -5 0
-5 -5 -1 -11 4 -6 8 -52 10 -103 3 -92 6 -118 17 -146 3 -8 16 -46 27 -85 12
-38 35 -113 51 -165 16 -52 34 -113 40 -135 6 -22 15 -49 19 -60 9 -22 30 -89
34 -108 2 -7 6 -19 9 -27 4 -8 8 -24 10 -35 1 -11 5 -24 8 -30 5 -9 11 -26 25
-80 1 -5 17 -55 34 -110 17 -55 33 -104 34 -110 3 -14 37 -127 44 -145 3 -8 6
-17 7 -20 0 -3 11 -39 24 -80 13 -41 24 -79 26 -85 1 -5 4 -17 7 -25 16 -43
68 -218 71 -235 1 -11 5 -24 8 -30 4 -5 10 -23 14 -40 9 -34 10 -34 17 -55 7
-18 32 -99 49 -160 15 -55 14 -52 22 -70 3 -8 18 -55 32 -105 22 -75 72 -238
105 -345 4 -14 18 -59 30 -100 12 -41 25 -82 28 -90 3 -8 6 -17 7 -20 1 -3 7
-25 15 -50 7 -25 25 -85 41 -135 15 -49 41 -137 59 -195 17 -58 35 -113 40
-122 6 -10 10 -24 10 -31 0 -8 9 -40 19 -73 22 -68 61 -194 153 -499 17 -55
33 -107 36 -115 3 -8 6 -20 7 -26 3 -12 57 -190 82 -269 9 -27 16 -52 16 -55
-1 -3 5 -20 13 -39 8 -18 11 -37 8 -42 -3 -5 0 -9 7 -9 7 0 9 -3 6 -7 -4 -3
-2 -12 4 -20 6 -7 9 -13 6 -13 -3 0 2 -24 12 -52 10 -29 19 -56 20 -60 1 -4 3
-13 6 -20 2 -7 9 -31 15 -53 6 -22 15 -49 20 -60 4 -11 17 -51 28 -90 l21 -70
0 1551 1 1551 169 0 c93 0 175 4 182 8 8 5 10 4 5 -3 -5 -9 0 -9 17 -3 14 6
28 7 31 4 9 -9 171 -7 186 2 9 5 11 4 6 -3 -5 -9 0 -9 18 -2 14 5 27 6 30 2 5
-9 171 -6 187 3 8 5 10 4 5 -3 -5 -9 0 -9 17 -3 14 6 28 7 31 4 9 -9 171 -7
186 2 9 5 11 4 6 -3 -5 -9 0 -9 18 -2 14 5 27 6 30 2 5 -9 171 -6 187 3 8 5
10 4 5 -3 -5 -9 0 -9 17 -3 14 6 28 7 31 4 9 -9 171 -7 186 2 9 5 11 4 6 -3
-5 -9 0 -9 18 -2 14 5 27 6 30 2 5 -9 171 -6 187 3 8 5 10 4 5 -3 -5 -9 0 -9
17 -3 14 6 28 7 31 4 9 -9 171 -7 186 2 9 5 11 4 6 -3 -5 -9 0 -9 18 -2 14 5
27 6 30 2 5 -9 171 -6 187 3 8 5 10 4 5 -3 -5 -9 0 -9 17 -3 14 6 28 7 31 4 9
-9 171 -7 186 2 9 5 11 4 6 -3 -5 -9 0 -9 18 -2 14 5 27 6 30 2 5 -9 171 -6
187 3 8 5 10 4 5 -3 -5 -9 0 -9 17 -3 14 6 28 7 31 4 9 -9 171 -7 186 2 9 5
11 4 6 -3 -5 -9 0 -9 18 -2 14 5 27 6 30 2 5 -9 171 -6 187 3 8 5 10 4 5 -3
-5 -9 0 -9 18 -2 14 5 27 6 30 2 5 -8 74 -7 83 1 2 3 17 1 32 -4 l27 -10 -1
-1562 c0 -859 1 -1569 3 -1577 3 -13 90 -15 720 -14 394 1 720 2 723 3 3 1 5
1726 5 3834 l0 3833 -718 -1 c-532 0 -721 -3 -726 -12 -4 -6 -7 -716 -6 -1577
l0 -1566 -1713 0 -1713 0 0 1578 0 1578 -724 0 -723 -1 1 -67z"/>
<path d="M9757 13062 c-15 -49 -30 -100 -32 -113 -3 -13 -9 -25 -15 -27 -6 -2
-8 -7 -5 -12 2 -4 -4 -36 -15 -71 -29 -92 -35 -113 -69 -224 -16 -55 -44 -147
-62 -205 -18 -58 -34 -112 -35 -120 -2 -8 -13 -42 -24 -75 -11 -33 -23 -71
-26 -85 -3 -14 -12 -47 -21 -75 -21 -69 -22 -75 -22 -78 0 -1 -11 -33 -24 -72
-13 -38 -25 -73 -26 -77 0 -5 -2 -10 -2 -13 -1 -3 -3 -9 -4 -15 -1 -5 -3 -11
-5 -12 -1 -2 -3 -11 -5 -20 -3 -17 -32 -111 -42 -138 -3 -8 -8 -24 -10 -34 -2
-11 -8 -25 -13 -31 -5 -7 -7 -14 -4 -17 2 -3 -2 -23 -10 -44 -8 -22 -31 -95
-51 -164 -38 -126 -53 -176 -121 -395 -21 -66 -38 -124 -39 -130 -1 -10 -49
-170 -65 -215 -11 -32 -53 -172 -56 -185 -2 -12 -54 -185 -61 -205 -4 -8 -8
-21 -10 -27 -1 -7 -5 -19 -6 -25 -2 -7 -7 -20 -10 -28 -7 -19 -67 -220 -72
-240 -2 -8 -4 -15 -5 -15 -1 0 -3 -7 -5 -15 -2 -8 -8 -30 -14 -47 -5 -18 -7
-34 -3 -34 4 -1 465 -2 1024 -3 812 -1 1019 1 1023 12 5 14 -5 73 -15 87 -4 6
-11 26 -16 45 -4 19 -8 37 -9 40 -3 11 -87 276 -95 300 -5 14 -23 72 -40 130
-18 58 -41 133 -52 168 -11 34 -21 68 -22 75 -2 6 -8 25 -14 40 -7 16 -12 32
-12 36 0 5 -12 44 -26 87 -14 44 -27 86 -29 94 -2 8 -18 60 -35 115 -17 55
-33 107 -35 115 -2 8 -4 16 -5 18 -2 1 -3 5 -4 10 -1 4 -14 45 -29 92 -15 47
-27 88 -27 92 0 5 -9 32 -19 60 -10 29 -28 87 -41 128 -12 41 -25 82 -28 90
-3 8 -7 20 -8 25 -1 6 -3 13 -4 18 -1 4 -3 10 -4 15 -2 4 -11 34 -21 67 -11
33 -20 62 -20 65 -1 3 -4 12 -8 20 -3 8 -20 62 -37 120 -17 58 -37 123 -45
145 -7 22 -29 92 -48 155 -19 63 -46 149 -59 190 -12 41 -23 80 -23 85 0 6 -3
12 -7 15 -4 3 -9 17 -12 30 -2 14 -19 70 -36 125 -17 55 -38 123 -47 150 -8
28 -23 75 -32 105 -10 30 -26 82 -35 115 -30 105 -29 105 -59 7z"/>
<path d="M8354 8418 c-6 -9 -34 -96 -59 -183 -10 -33 -31 -100 -46 -148 -24
-75 -46 -148 -55 -179 -1 -5 -3 -10 -4 -13 -1 -3 -3 -8 -4 -12 -1 -5 -12 -39
-23 -78 -36 -116 -67 -220 -68 -225 0 -3 -3 -10 -7 -16 -4 -6 -9 -21 -12 -35
-2 -13 -12 -46 -21 -73 -9 -26 -18 -56 -20 -65 -2 -9 -20 -68 -40 -131 -20
-63 -38 -122 -40 -130 -10 -40 -68 -229 -81 -262 l-14 -38 58 0 c75 -1 3646
-1 3739 0 72 0 75 1 61 40 -4 8 -22 69 -43 135 -20 66 -43 139 -51 161 -8 23
-17 50 -19 60 -2 11 -13 47 -24 82 -10 34 -17 62 -14 62 3 0 1 6 -5 13 -9 11
-22 53 -94 287 -11 36 -26 83 -33 105 -7 22 -20 63 -28 90 -23 78 -88 288 -95
305 -3 8 -6 17 -6 20 -1 3 -5 11 -9 18 -5 6 -6 12 -3 12 3 0 0 17 -8 38 -8 20
-20 58 -27 85 -7 26 -16 47 -20 47 -4 0 -6 7 -5 16 1 15 -118 17 -1437 18
-792 0 -1441 -2 -1443 -6z"/>
<path d="M13215 6840 c3 -5 8 -10 11 -10 2 0 4 5 4 10 0 6 -5 10 -11 10 -5 0
-7 -4 -4 -10z"/>
</g>
</svg>
