<svg id="Layer_1" data-name="Layer 1" xmlns="http://www.w3.org/2000/svg" viewBox="0 0 444.61 98.15"><defs><style>.cls-2{fill:#582a5b}</style></defs><path d="M47.39 41.74c.21-.6-.54-.57-.69 0zm8.52 2.16v12.28H68.1V43.87c0-.34-.07-.65-.73-.65-1.27.33-11.85-.8-11.46.68zm11.85 11.92H56.24V43.58h11.52zM45.27 43.59c.23.06.21.23.15.37s-.26-.16-.15-.37zm.49.48c.09-.13.23-.23.41-.08-.17.21-.41.08-.41.08zM53.2 73l-3-.53.15-1c-1.43-1.16-3-.26-1 0-1.48 1.14-2.26-.6-1.36-1.28-1.11-1.41-2.66-.44-1.16.22-.66.51-2.3-1.24-.51-1.87-.39-1.65-2.18-.65-1 0-1 .48-1.94-1.53 0-2.18-.61-1.12-1.68-1.63-1.48-.12-1.53-1.65 0-2.52.89-2.14-.09-1.74-1.43-2-1.55-.84-1-1.8.42-2.4 1.75-1.39.26-1.62-.41-2.9-1.12-2.3 1 1.29-1.57 1.43-1-.14.7-2 2.32-.12 5-.12 1.43 0 5.91-2.4 5.91 1l.29 11.51zm-8.72-14.1c.7.41 1.28 1.67.92 3.9 0 0-.7-1.09-1.46-.92A3.84 3.84 0 0 1 45.47 65a1.25 1.25 0 0 0-1.14-.44s1.8 1.41 1.84 2.55c0 0-.63-.59-1.18-.17a3 3 0 0 1 2.18 1.74.31.31 0 0 0-.39.15 3.57 3.57 0 0 1 1.89 1.26s-.75.46-.34.29a2.68 2.68 0 0 1 1.14 0C44 65.56 46.8 62.1 45.74 59.56c2.25 1.89 6.41-1.75 7.15.55.17.54.6.5.58-.12-.71-3.49-5.75 1.1-8.99-1.11zm8.41 13.4c.67-12.93.68-16.15-2-.37zm-6.43-11.19c-.38 3.17.2 7.39 4.15 9.11zm.5 0c.39.46 3.67 9 3.86 7.65-.3-.28-3.74-9.19-3.82-7.68zm.64-.18c.26.61 3 6.66 3.17 6.88 1.07.64-3-7-2.87-7-.18-.35-.45-.26-.3.09zm.66-.09c.35.42 2.93 7.38 3.14 5.91-.3-.28-2.96-7.53-3.14-5.94zm.69-.09c.33.43 2.45 6.24 2.61 4.8-.27-.3-2.48-6.4-2.56-4.83zm.6-.26c.32.46 2.1 5.43 2.26 4-.27-.29-2.14-5.55-2.26-4.03zm.53-.24c.3.48 1.75 4.54 1.88 3.21-.25-.36-1.78-4.69-1.88-3.24zm.65 0c.12.25 1 2.08 1.09 2.22.73 1 .88-2.4.33-2.58-.56-.49-1.62-.26-1.42.3zm-38.07-38-.6-.47v-1l-1.64-2.36s-.92.15-.7-.91c0 0-.89-.34-.44-1.11 0 0-.71-.56 0-1.09 0 0-.67-1.14.77-1.25 0 0 0-1.23 1.12-.69a.8.8 0 0 1 1.27-.28.63.63 0 0 1 1.07 0 .59.59 0 0 1 1 0 .47.47 0 0 1 .65-.17l-1-3.26 2.63-.92 1.18 2.93c.13-.35.65-.2.65-.2a.69.69 0 0 1 .92-.56c.13-.88 1.07-.64 1.07-.64.3-.75 1.36-.39 1.36-.39.56-.65 1.23.06 1.23.06a.79.79 0 0 1 1 .8c.87.11.54.95.54.95a.76.76 0 0 1 .2 1.18c.73.8-.13 1.14-.13 1.14l.08 3.15.52.58-.3.64c3.35-1 2.16 1.1 2.79 2.11.74.09 2.54 2.22 3.28 1.83-.7 1-1.52.75-1.52.75a6.09 6.09 0 0 0 2.72 2.77c-.61.61-1.9 0-1.9 0 1 2.1 3.58 2.78 3.69 3.92a3.07 3.07 0 0 0-2.2-.61c1.55 1.7 3.14 1.77 2.37 4.17a1.59 1.59 0 0 1 .94 1.33c-.28-.53-1.28-.42-1.28-.42.25 1.27 2.42.83 1.88 3.36.54.43.29 1.4 1.31.89L39.75 36c-.85-1 .61-2 .61-2l-1.52-1.19.78-1.81-2.43-8.15c-1.93.4-2-2.42-.89-2.77-1.94.62-2.37-2.42-1-2.68-1.9.36-2.71-3.66.27-3.46-2.29-.53-.79-4.79 1.62-2.82-1.45-1.44 1.13-4 2.47-2-.47-1.41 2.62-2.83 3.12-.33-.24-1.4 2.85-2.44 3.14 0 .27-1.07 3.17-.71 2.94.95.11-.57 2.19-.49 2.28.07.2-2.18 2.4-2.14 2.5-4.6a1.84 1.84 0 0 0-2 1.3c-.1.34-.38.31-.38-.05V1.67c0-.36.38-.36.38 0s.44 1.39 2 1.39a2 2 0 0 0-1.48-2c-.37-.1-.37-.5 0-.5h5.54c.37 0 .37.4 0 .5a2 2 0 0 0-1.48 2c1.58 0 2-1 2-1.39s.38-.38.38 0v4.72c0 .36-.29.39-.38.05a1.85 1.85 0 0 0-2-1.3c.1 2.46 2.29 2.42 2.5 4.6.09-.56 2.17-.63 2.28-.07-.24-1.66 2.67-2 2.94-.95.29-2.4 3.38-1.35 3.14 0 .49-2.51 3.59-1.08 3.11.33 1.34-1.95 3.92.57 2.47 2 2.42-2 3.92 2.29 1.63 2.82 3-.2 2.16 3.82.26 3.46 1.35.26.92 3.3-1 2.68 1.15.36 1 3.17-.9 2.77L70.27 31l.73 1.77L69.53 34s1.61 1.58.07 2.54a33.77 33.77 0 0 0 6.85 2.91c.4-.89 1-.74 1-.74l1-1.64c-1.06-1.54.87-2.53.87-2.53-.47-2.38 1.49-2.35 2.13-3.62-2.1.92-4.56 3.89-4.29-.22-2.69-2.84 4.56-6.7 4.74-8.86-1.71.29-3.41-1.52-4 1.58 0 0-.92-2.25 2.37-3.28a2.93 2.93 0 0 0-2.39.47s-.08-1 1.55-1.44a1.36 1.36 0 0 0-2.19.31c.57-3.65 3-.79 4.53-1.34a2.11 2.11 0 0 0-1.84-.79c1.39-1.87 4.24 1.52 3.9-1-.19-.42-7.92-14-8.07-14.32-.2-2.68 10.46 13.18 11.64 13.29a2.11 2.11 0 0 1 1.75.11c1.5-4.37.84 4 4.55-.22 2.25-2.28.65 1.83 1 2.47a4.33 4.33 0 0 1 3.49.89s-.76-.13-.87.24c0 0 2.37.14 3.33 1.7 0 0-1.26-.39-1.38 0 1.87.39 1.63 1 2.59 1.28a1.5 1.5 0 0 1-1 .12c1.73 1.64 2.84.57 3.43 2.18-1.46-.89-1.62.4-2.86.05.22 1.15 2.53.7 3 2a3.67 3.67 0 0 0-2.69.37c1 1.22 2.75.24 3.34 1.65-1.77-.59-1.77.73-2.55.47.69.7 2.68.2 2.26 2.93-1.48-1.58-1.66-.56-3.23-.88.08.82 2.47.46 2 2.94 0 0-.67-1.42-1.82-.78a2.12 2.12 0 0 1 .76 3s0-1.62-1.26-1.26c0 0 1.19.71.34 2.31 0 0-.29-1.21-1.07-1.21 0 0 .82 1.33.18 2.26 0 0 .12-1.3-1-1.25a2 2 0 0 1-1.83 2.6c1.2-.62 1.3-1.6.16-2l-1.68 2.4v.9l-.54.29v.63l-.41.23c.35 2.85-.81 3.8.35 6.67 0 0 .58-.29 1.77 1.8.84-.4 2.84 3.58 1.68 4.08.11 2.09 1.32.86.81 4.63 2.78 1.48 2.31 7.53 5.79 7.53 1.18 0 4.4-1.59.92-6.25s-4.08-4.52-4.8-8.78c-6.27-4.3-.35-10.33-4.84-9.52 0 0 1.22-1.77 3 .58 0 0 1.22-2.61-1.16-1.91 0 0-.2-2.06 2.12-1.6a1.1 1.1 0 0 1 1.45-.92c-.15-.93 2.12-2.19 2.37-.67 0 0 1.77-2.08 3.16.23 0 0-3.31 0-1.37 3.62 0 0 .76-1.1 1.19-.95 0 0-.75 1.15-.46 1.79 3.25 4.71-6.44 7.68-2 12.94-.4-4.57 2.2-3 2.2-5.93 0 0-.14-.78-.66-.78 4.08.54-.39 3.9.4 6.57.47-2.28 1.85-1.49 1.32-3.58 2.94 1.31-1.4 4.22-.1 5.78.11-1.83 1.06-1.92 1.1-2.56 0 0 1.26.47-.2 3.24a1 1 0 0 0 .28 1.19c-.14-1.48 1-1.33.76-2.5 1.31 1.29-.36 2.61 0 4.32 2.15 6.18-3.94 11.77-8.75 6.58.23 2.15-1.08 3.63-.31 5.61 1.17 3 2.78 1.79 3.54 2.86.29.4-.42 6.73-.34 7.67s1.12 3.15.57 4.46c-1.06-1.37.32 1.35-1 2.46l-.29-.6c.76 6.68-18.07 6.66-19.92 6.82a37.14 37.14 0 0 1-21.64-.28l-3.87-.17c-.32 2.8-6.68 2.66-7 0-5.18.52-15.72 4-23.31.27-1.77-.32-20.43 1.51-20.34-6.49-.67-.4-.41-1.8-.41-1.8-4-6 4.2-6.17 2.77-18.12C3.54 73 1.09 68 1.28 65.54a6.08 6.08 0 0 0-.71-3.48 1.94 1.94 0 0 1 1 .44c.69-4-.8-4.65-.8-4.65a3.27 3.27 0 0 1 2.14 2.64c1.64-4.22-1.29-4.77-1.3-4.76 2.07-.62 3 2.17 3 2.17.9-4.91-1.64-4.63-1.64-4.63 3-.45 3 3.31 3 3.31 2.13-4.75-.97-5.3-.97-5.3 2.14-1 2.87 2.42 2.87 2.42 1.15-2.49-1.66-4.29-1.66-4.29a2.84 2.84 0 0 1 2.44 1.17s-.21-1.31-.93-1.68c-7.7-3.67.5-9.34-4.32-10.58A1.81 1.81 0 0 1 6.08 38c-.43-1.7 1.25-3 1.25-3-.64 2.13.49 2.66.49 2.66a2.6 2.6 0 0 1 .56-1.69 3 3 0 0 0 1.28 2.37.8.8 0 0 1 .26-.76c1.23 4.31 5.36 7.55 1.1 11.21C13.36 58.5.87 60.63 5.22 67.15c3 2.23 4.49-3.8 7.25-6.18 3.9-8 2.4-17.26 2.4-17.26-1.37-1.67 0-3-1-3.59a1.14 1.14 0 0 1-.85.8s.45-1.48.08-1.91a4.67 4.67 0 0 1-.51-1.77c-.58 1.59-1.14 1.27-1.14 1.27a2.24 2.24 0 0 0 .36-1.69c-.1-1.18 1.21-2.64.75-3.33-1 .27-.37 1.7-1.08 2.26.12-1.37-.47-1.28-.47-2.42s1.22-2.12.85-2.64-1 1.09-1 1.09a1.88 1.88 0 0 1 0-1.65 2 2 0 0 0 .43-1.77 1 1 0 0 1-.76.43c.39-1.11-.25-1.66 1-3.49-1.53-3.08 1.13-3.08 1.13-3.08zM79.05 91c2.87-1.76 6.73-1.28 5.7 2.67 0 1-2.93 1.91-4.06 2.25l-.1-.31c1.27-.13-.64-3.23-.59-3.81-.19-.56-.34-.66-.85-.49zm2.86 3.49c.17.53.26.58.77.41 2.94-1.13.5-5.81-2-4.1zm5.42-2c.22.49.57.42 1 .19l.15.28L86.29 94l-.15-.29C87.5 93.45 85 90.59 85 90c-.19-.43-.51-.5-.92-.24l-.15-.28c1-.62 2.69-1.89 3.7-1.44a1.42 1.42 0 0 1 .37 2.33c.87.21 1.83 1.42 2.88 1l.15.28c-1.55 1.19-2.46.07-3.85-.54l-.48.26zM86.58 91a1.24 1.24 0 1 0-1.12-2.12zm3.24-5c2.31-2.23 6 1.88 3.45 4-2.55 2.42-5.92-1.94-3.45-3.93zm3.33 3.66c1.52-1.38-1.91-4.62-3.22-3.3-1.64 1.45 2.07 4.77 3.22 3.37zm-30.1 1.18c0 .67-1.69 3.67-.47 3.84l-.07.32-1.51-.29.07-.32c.54.12.6-.06.79-.73-.06-.54 1.57-3.54.54-3.68l.08-.32 1.44.34.52 3.77 2.1-3.15L68 91l-.07.32c-.5-.09-.54-.09-.64.51.1.66-1.29 3.92-.14 4l-.08.32-2.16-.51.08-.32c1.22.61 1-3.14 1.38-3.73l-2.51 3.8h-.17zm7.52.25c3.29.13 2.86 5.75-.52 5.42s-2.72-5.75.52-5.35zm-.33 5.08c2.1.13 2.05-4.71.14-4.73-2.19-.17-2.01 4.93-.14 4.8zm3.94-.63c0 .51.17.67.74.64v.33l-1.71.1v-.33c1.19.21.09-3.95.3-4.44a.81.81 0 0 0-.57-.15v-.33l1.46-.1 3.1 3.42c-.26-.62.38-3.62-1-3.22v-.33l1.82-.12v.33c-1.31-.38-.13 4.53-.34 5h-.38l-3.65-4zm17.61-11.01L93.14 83l.22.2c-1 .66 2 2.32 2.27 2.79a.47.47 0 0 0 .81-.07l.22.2-1.34 1.49-.22-.2c.89-.63-2.09-2.31-2.29-2.76-.32-.29-.56-.26-.8 0zm-37.07-9.39V57.39H42.2l-.34.71a2.73 2.73 0 0 1 .44 2.23s-.68-1.22-1.4-.16C41.49 71.57 46 73 54.72 75.14zM13.19 92.5a4.69 4.69 0 0 1 .34 2s1.36-.72-.34-2zm2.9-1.09c-.11.45.23 2 1 2.1a1.53 1.53 0 0 0-1-2.1zm.2-1.81a1.44 1.44 0 0 0 1 1.41 1.38 1.38 0 0 0-1-1.41zm-4.35-3.24 2.22-2.76 1.11-4c-4.71 3.16-3.33 6.76-3.33 6.76zm17.15-14.59c-.4 4.11-1.54 5.11-1.1 6.83a20.89 20.89 0 0 1 5.84 4s2.06-.66 2.54 2.1a10.83 10.83 0 0 0 6.84 2.54s-4.67-3-5.92-6c0 0 6.14 3.6 10.18 2.32C36.3 79.3 36.11 73.53 29.09 71.77zm45.45 4.44c1.24-1.92 5.32-5.24 7.08-5.44-2.88-6.24-.92-10.44 4-11.8-4-4.33-3.92-7.78-6.56-8.86a23.86 23.86 0 0 1-4.57 24.4zm-39.81-2.29c-4.27-4.65-5.52-11-5.89-17.28a5.36 5.36 0 0 0-.46 2.67 2.32 2.32 0 0 1-1-1.32s-.5 2 0 3a2.63 2.63 0 0 1-1.28-1.46 4.52 4.52 0 0 0-.1 2.52 1.78 1.78 0 0 1-1-1.64c-1.4 2.59 3.91 2 4.2 10.59a11 11 0 0 1 5.53 2.92zm47.12-2.33c-9.21 3.9-4.6 6.42-16.06 12.09 0 0 1.26.78 8-1.85 0 0-5.31 4.84-5.74 5.82 9.06-2.28 11.21-6.81 13.45-8.65s2.76-4 .35-7.41zm-62.24 9.28a4.23 4.23 0 0 1 2.8-2.52 8.06 8.06 0 0 0-2.24-5.54C17.43 75.93 13.19 83.16 15 87c3.3 6.83 21 13.85 32.75 8.72 2.56-.26 1.51-6.32 1.6-7 .49-2.3-6.27-1.24-2.89-3.14-1.94 1.63 3.25.31 3.25 2.68l.12 2.61h1.22v-6.53c-1 .06-7.35.24-6.19 4.09 0 1.52 4.91-.32 2.1-.93 2-.12 3 1.21-1.77 2.22a26.26 26.26 0 0 1-18.57-2c-8.16-4.26-10.5-9.54-8.26-12.1.04.03-.91 3.53 1.25 5.25zm78.64 3.29-.49.64-.24-.18c1.14-.84-2.53-2.46-2.82-3-.4.64-1.07.9-.13 1.68l-.16.21-1.07-.94.12-.16a9.86 9.86 0 0 0 2.16-2.91l.12-.16 1.21.75-.16.21c-1-.67-1.08 0-1.57.62.21.13 3 2.27 3.15 2.24.66-1-2.68-12-5.69-8.55a4.35 4.35 0 0 1-.86 3.84 2.9 2.9 0 0 0 1.91 1c1.29-1.72.55-4.42.55-4.42 3.65 2.37-5.42 19.63-29.73 14.61-4.76-1-3.81-2.34-1.77-2.22-2.81.61 2.1 2.45 2.1.93 1.17-3.84-5.24-4-6.19-4.09v6.51h1.22l.09-2.53c0-2.37 5.19-1 3.25-2.68 3.38 1.9-3.39.85-2.9 3.14.13.68-1 6.82 1.6 7 12.27 4.52 34.3-.85 36.3-11.54zm-46.39-.29c.41 1.52-1.11 10.13 1.22 10.34 2.48 0-.09-3.47.13-1.06-1.59-.44-.93-2.86.69-1.7-.45-.87-.4-1.44 1-2.82 1.4 1.38 1.44 2 1 2.82 1.62-1.16 2.28 1.26.69 1.7.22-2.41-2.35 1.06.13 1.06 2.32-.18.81-8.86 1.22-10.34zm6.08 11.35c-.43 1.74-5.71 1.73-6.13 0-.81 2.96 6.91 2.95 6.13 0zM18.46 82.34c3.08 1.63 4.78 5.39.77 6.69-1 .54-3.28-1.61-4.17-2.43l.22-.27c.8 1.09 2.48-2.41 3-2.68.39-.49.39-.68 0-1zM17 86.91c-.36.46-.36.56.07.93 2.63 2 5.32-2.85 2.49-4.13zm5.69-.82 1.91 1.26-.19.28c-.9-1-2.3 2.69-2.8 3-.28.39-.19.67.21.9l-.19.28-1.9-1.27.18-.28c.87.9 2.29-2.72 2.76-3 .29-.4.21-.67-.16-.88zm5.07 3.43-1.42-.68-.84 1.75c.51.14 1.49 1.1 1.8.18l.26.12-.74 1.55-.26-.13c.55-.75-.82-1-1.27-1.29 0 .3-1.12 1.75-.63 1.92.76.25 1.55 1.19 2.21.08l.25.12-.66 1.18-3.91-1.87.15-.31c.4.24.83.36 1-.18 0-.64 2.5-3.68 1.13-4l.15-.3 3.57 1.71-.47 1.16-.25-.12c.17-.54.17-.75-.11-.89zm4.79 1.19 1.8.57-.1.32c-1.91-.43-.78 5.34-4.22 4.16-3.72-1 .62-5-1.09-5.82l.11-.33 2.18.69-.1.32c-1-.6-1.25 2.43-1.58 2.87a1.27 1.27 0 0 0 .83 1.77c1.8.66 2.05-2 2.49-3.14.22-.66.09-1-.43-1.08zm7.48 1-1.61.06.08 2c.52-.11 1.87.28 1.71-.7h.29l.07 1.75h-.29c.13-.93-1.22-.51-1.77-.56.12.29-.17 2.12.35 2 .81-.13 2 .34 2-1h.28v1.39l-4.41.17v-.35c.48 0 .92-.07.85-.66-.28-.59.5-4.51-.87-4.13v-.35l4-.15.12 1.27h-.28c-.12-.58-.23-.77-.55-.76zM44.75 95c.06.54.4.63.9.49l.07.33-2.55.49-.06-.31c1.59.17-.24-4-.09-4.66-.83.23-1.59-.07-1.41 1.31l-.29.06-.18-1.71h.23a11.3 11.3 0 0 0 4.05-.78h.23l.43 1.57-.29.05c-.34-1.34-.95-.79-1.79-.69zm1.68-68.72c-1.38-4.9-5.42-3-3.13-.23.59-1.94 2.34-.94 2.77.35zm1-.34c.21-2.42 2.26-2.44 2.56-1 1.9-3.31-3.77-4.24-2.9 1.1zm-.68.61c-2 .46-1.8 1.37.22.88s1.78-1.43-.24-.91zm.6 3.49c-2.65.45-2.26 2.66.39 2.17s2.26-2.7-.41-2.21zm7.56 2-1.66-1.66 1.66-1.65 1.66 1.65zm0 .36a59.26 59.26 0 0 1 13.36 1.5l-.68-2.24 1.83-.95 2.21-7.53-2.34-2.95-.05.61c1.46 1.68.89 4.29.89 4.29-2.32.07-1.5-2.74-1.5-2.74l-.33-.28-1.74 5.61.39.05c1.16-2.07 2.86-1.09 2.54-.27-1.17 3.29-5.14 3.76-6.06.39l-1.33-.22c-3 4-6.44.34-6.34-2.76 2.69 0 2.71 2.14 2.71 2.14H59v-5.84h-.5c0 2.24-2.71 1.95-2.71 1.95a2.7 2.7 0 0 1 2.61-3v-.46h-7v.46a2.7 2.7 0 0 1 2.61 3s-2.72.29-2.72-1.95h-.49v5.84h.49s0-2.14 2.72-2.14c.09 3.13-3.37 6.77-6.34 2.76l-1.33.22c-.93 3.38-4.9 2.9-6.06-.39-.32-.82 1.38-1.8 2.54.27l.39-.05-1.74-5.61-.33.28s.81 2.81-1.5 2.74c0 0-.57-2.61.88-4.29l-.05-.61-2.34 2.95 2.22 7.53 1.82.95-.67 2.24a60.73 60.73 0 0 1 13.39-1.54zm8.28-6.17c1.28-3.23 3.13-4.66 1.55-7.65-2.69 2.06-1.61 4.09-1.8 7.55zm.54.18c.43-1.29 2.17-2.29 2.77-.35 2.28-2.76-1.75-4.67-3.13.23zm-1-.35c.87-5.34-4.79-4.41-2.89-1.1.29-1.45 2.34-1.43 2.56 1zm-1.32.57c-.2.55 3 1.32 3.12.74s-3.08-1.37-3.15-.78zM62.44 30c2.66.45 2.26 2.66-.38 2.17s-2.26-2.66.38-2.17zM41.2 9.9a1 1 0 0 0 0-1.9 1 1 0 0 0 0 1.9zm-2.88 1a1 1 0 0 0 0-1.91 1 1 0 0 0 0 1.95zm8.9-.34a.94.94 0 0 0 0-1.87.94.94 0 0 0 0 1.91zm-2.89-.85a.94.94 0 0 0 0-1.88.94.94 0 0 0 0 1.92zM36 13.33a1.05 1.05 0 0 0 0-2.1 1.05 1.05 0 0 0 0 2.1zm-.73 3.36a1.05 1.05 0 0 0 0-2.1 1.05 1.05 0 0 0-.01 2.1zm.62 2.88a.88.88 0 0 0 0-1.76.88.88 0 0 0-.01 1.76zm1 2.76a.88.88 0 0 0 0-1.76.88.88 0 0 0 .02 1.76zm24-11.55a.94.94 0 0 0-1.88 0 .94.94 0 0 0 1.86 0zm8.79-1.85a1 1 0 0 0-1.94 0 1 1 0 0 0 1.92 0zM72.52 10a1 1 0 0 0-1.91 0 1 1 0 0 0 1.91 0zm-8.92-.33a.94.94 0 0 0-1.87 0 .94.94 0 0 0 1.87 0zm2.89-.86a.94.94 0 0 0-1.87 0 .94.94 0 0 0 1.87 0zm8.45 3.47a1.05 1.05 0 0 0-2.1 0 1.05 1.05 0 0 0 2.1 0zm.73 3.36a1 1 0 0 0-2.09 0 1 1 0 0 0 2.09 0zm-.78 3.05a.88.88 0 0 0-1.76 0 .88.88 0 0 0 1.76 0zm-1 2.76a.88.88 0 0 0-1.76 0 .88.88 0 0 0 1.73 0zM51.78 3.1v2l1.45-.71-.9-.34.9-.4zm4.1-2h-2l.71 1.45.34-.89.4.89zm.76 2.56.9.4-.9.34 1.45.71v-2zm-.73 3.13-.71-1.45-.32.89-.42-.89-.56 1.45a2.51 2.51 0 0 1 2.01 0zm-1-3.48a.8.8 0 0 0 0 1.59.8.8 0 0 0-.04-1.59zm-1.38 5.81a6.54 6.54 0 0 0 0-1.66C52 8 51 10.41 53.53 9.12zm0 3.72c-.48-1.09 1.09-2-.12-1.83-3.06-.01-.12 2.34.15 1.83zm4.26-1c.36-.52-.38-.74-1.38-.84-1.2-.13.36.74-.11 1.83.03.01.57.44 1.52-.98zm-5.3 1.29h-.79v6h.79zm9.72 4.57a3 3 0 0 1 5 .92c2.3-1.18 3.07 1.79 3.29 1.41 4-9.92-4.68-9.3-11.84-5v1.72c2.98-.86 3.58.96 3.58.96zm-3.5-3.23c7.89-5.21 16.7-4.42 12.44 5.93.24.37.38.61.47.47 4.52-10.24-4-13.07-12.9-6.92zM58 9.18a3.07 3.07 0 0 0-1.67-1.72 7 7 0 0 0 0 1.66c.22.28 1.9.61 1.67.06zm-2.87 1.28c.94-.13 3.79 1.15 2.74-.42-2.12-.28-2.14-.62-2-2.75a5.11 5.11 0 0 0-1.83 0c.11 2.14.08 2.47-2 2.75-1.21 1.66 2.21.13 3.11.42zm2.22 8.7h.78v-6h-.78zm-2.49-1.74a1.16 1.16 0 0 0 0-2.32 1.16 1.16 0 0 0 .02 2.32zm1.06-2.18c.79-2-2.83-2.13-2.14-.05a1.56 1.56 0 0 1 2.16.05zm0-1.46c.79-2-2.83-2.13-2.14 0a1.55 1.55 0 0 1 2.16 0zm.08 5.38c.56-2-2.78-2-2.21 0zm-.28-7a.84.84 0 1 0-1.64 0c.02-.5 1.6-.46 1.63-.02zm13 54.8c3.84-1 3.67-4.39 3.47-5.72a3 3 0 0 1-2.62 1.13 31.3 31.3 0 0 1-.84 4.57zm31.52-27.19c2.53 3.4-4.58 5.86 2 11.32.81 6.35 4.82 6.67 6.41 11.84 1.13 3.64-4.12 6.55-6.26 1.85s-3-4.7-3-4.7-.35.64-.9.61l-.81 1.92c4.07 4.84-.33 7.29 2.67 12.1 2.84 2.45 3.57 2.25 3.1 5.28a4 4 0 0 0-1.07-2.64c-6.38-3.11-1.74-10-4.67-13.5 0 0-1.08 2.88-1.89 3.14L95 69.17s.72.12-.76 3.28c1.8 3.31 6.62 3.78 7.43 8.21s-2.58 7.58-3.19 8-.58 1.28.81 1.08c2.49.22 2.3-3.67 2.82-1.86.28 5 1.55.11.64-2.44a6 6 0 0 1 1 2.93A2.67 2.67 0 0 0 104 86c1.07 1-.71-2.48-.17-4.38 2.07-8.12-3.44-3.93-3.92-9.6.35-2.32 1.6-6.53-.69-9.87l.4-.52c2.09 2.58 2.55 7.17 5.86 6.7 2.48-.34 6-2.64 3.69-7s-6-6.18-6-10.24c0-2 5.25-3.74 3.22-8.36.41 4.47-2.67 4.94-3.28 7.14.47-3.39 2.21-2.93 2.38-6s-1.1-2-.9-5c-1.13 1.71 1.05 3.37-.06 5.66-1 2.07-1.79 2.23-2 4.27.15-4 3.25-4.91.84-8.94 1 3.39-2.93 5.31-1.1 9.81-2.93-3.34 2-7.29-.06-10.39.32 4.67-3.62 4.87-.49 10.44-4.57-3.84 2.13-7.56-1.47-9.97zm-2.31 50.55c0 .66-2.92 3.33-2.26 3.46s5 .18 5.55-3.56a10.36 10.36 0 0 1-3.29.1zm-3.26 1.81c-.73 2.29 3.54-1.77 2.63-1.89-.23-.12-1.79 1.25-2.63 1.89zm-7.1-31.43c-.93-1.21-6.06-.92-6.6 4.52-.45 4.62 3.53 7.44 3.28 10.4.19 4.08-10.08 10.4-3.73 9.6 1-2.09 1.69-2.37 1.69-2.37a14.39 14.39 0 0 0-.5 3.32c.85-.67 1.45-2.75 1.42-3.88a16.84 16.84 0 0 1 .21 3.24c.91-.56.77-4.12.77-4.12l.6 1.2c-.53-2 3.15-6.09 3.25-7.27 0-1.45-1.84-.74-1.48-4 .3-2.83 2.08 0 4-2a6.47 6.47 0 0 1-.5-1c-1.78.91-4.08-.25-4.08 2.73 0 5.22 3 3-.78 8 3.17-4.67-.27-3.11.22-8.86.42-3.27 3.12-1.19 4.34-2.59-.68-1.78.57-3.41-2.11-6.92zM75.44 88.43c-.56 1.36 5.09-.05 5.17-2-1.96-2.3-4.52.64-5.17 2zm1.67-3.06A9.1 9.1 0 0 1 74.89 87c-1 .44-.15.73.38.38s2.73-2.08 1.84-2.01zm3.26-42.14c-.28-6.43 7.12-4.5 7.12-4.5-6-1.29-8.84 5.9-4.06 4.7-15.05 5.5-13.66 1-13.92 18.51a1.87 1.87 0 0 0 2-1.69c0-1.14-.68-.53-.87-2.6C71.12 58.84 72 59 72.8 61c.45-1.38-.86-2.83-1.41-4l2 2v-.44a3.77 3.77 0 0 1-1.21-2.16 1.92 1.92 0 0 0 1.12.79c-1.39-1.84-2.13-5.41-1-6.31 1.57-1.24-1-1.44 5.07-2 7-.6 11.45.19 13.63-6.75-.42 10.22-11.38 5-9.56 8.71C86 57.8 88.77 64 92.72 58.51c2.85-3.64-3.55-6.85-.68-15.34C90.31 49.46 95.63 55 94 57.75c-4.08 3.19-4.74 9.11-2.17 11.79a1.6 1.6 0 0 1 1.41-1.11l.66-1.84c-.64-.26.79-4.65 1.61-4.54a7.21 7.21 0 0 0 1-3.19c-1.19-1.15-2.7.86-2.7.86A2.44 2.44 0 0 1 96.33 58l.75-2.08c-.85-1.31-2.6-6.84-3-9.3-.31-1.79 1.28-5-.56-6.15-2.88-2.21-15.91-6.47-14.33 3.33a1.13 1.13 0 0 0 1.18-.57zm-4.66 0c-.66-.73.36-2.79.36-2.79-.25-.07-.28-.47-.28-.47-2.9-.36-6.56-2.9-6.56-2.9-.54 0-.73.71-.73.71a25.29 25.29 0 0 1 7.76 7.11c.25-.69.11-.99-.55-1.71zm19.45-7c3.21-4.87 3.33-18.43-4.68-15.38-.56.28-.85-.95 2.82-4.47a4.18 4.18 0 0 0-3.23 2.91c-.48 1.21-.95.93-.95.93s.33-.51.09-.74c0 0-2 .5-.81 1.92 0 0-1.48 0-1-2a3.09 3.09 0 0 0-2.17 1.6c-1-2.9-4.14 4.53-5.73 4.78-1.42.92-3.25 5-.59 3.81 1.76-1 3.37-1.87 3.65-1.38S80.34 30 80.14 30.7c-.07.3 1.12-1 2-1.17a3.68 3.68 0 0 0 1.73-1.16c-1.51 1.65-2 4-3.33 4.41 4 0 1.39-2.49 4.21-4.78-2.17 2.81-.14 3-1.51 4.88 2-.66.41-3.88 2.52-5-.19.89-1.37 1.72-.3 3-1.1-5.76 7.12-1.26 5.43-8.23 3.67 5-4.52 5.43-5.52 9.05 0 0 .54 1.12.33 1.63a1.12 1.12 0 0 1 1.08.71l.53-1.83 4.1.92-.26 1.41a1 1 0 0 1 1.36.23c1-1.49 2.21-1.42 1.61.65a.82.82 0 0 1 1.04.76zm-17.31-5c-.47.95.56 2.07 2-1.2-1.49.55-1.35 2.17-2 1.17zm.8-2.91c.06-3 3.78-1.58 1.19 0 .57-.9-.4-1.13-1.19-.03zm11.23-11.2C86 15.79 84.29 19.28 81 18.91c3 1.5 4.52-1.85 7.64-1.58a4.68 4.68 0 0 0-3.26 2.29s1.13-1.43 4.39-1.95zm-.24 1A1.34 1.34 0 0 0 88 19s1-.76 1.51-.62zm.2-1.33.24-.48c-.75-.93-2.5-.41-2.5-.41 1.95.23 2.26.85 2.26.85zm-6.58 7.61c1.19-.88 0-3.11 3.3-2.93l-.11.28s-2-.27-1.93.93c1.16-.74 2 0 2.49-.17-.88.81-.9 1.93-2.94 2l-.47.37zm2.33-.82a.44.44 0 0 0 0-.88.44.44 0 0 0 0 .88zM77.17 3.64c-.27.1 1.27 2.54 1.48 2.34s-1.27-2.54-1.48-2.34zm2.12 2.65c-.21-.1-.55.67-.34.75s.55-.66.34-.75zm.56.65c-.29-.12-.65.92-.34 1s.65-.94.34-1zm.6.76c-.3-.13-.74 1.09-.42 1.18s.74-1.09.42-1.18zm1.07 1.55c-.46.56-.72 1.47-.18 1.75 0 0 .93-1.26.18-1.75zm.82.87c-.6.66-.94 1.71-.23 2 0 .04 1.06-1.35.23-2zM83 11c-.34 1-1.31 1.76-.16 2.53.02.02 1.08-1.73.16-2.53zm-2.14-2.63c-.39.34-.55 1.13-.16 1.42a1.25 1.25 0 0 0 .16-1.42zM84 12.08c-.41.82-1.08 2-.2 3 .27-1.08 1.2-2.08.2-3zm1.11 1.55c-.31.23-1 2.18-.46 2.88 1.18-.16 1.12-2.03.43-2.88zm1 1.44a1.74 1.74 0 0 1-.44 1.41c.72.91 1.88-1.05.39-1.41zm5.31 4.71A3 3 0 0 0 94 16.66a12.14 12.14 0 0 1-2.63 3.12zm4.52-1.46c-.57-.18-2.2.24-2.36 1-.07.3.36.54.67.11a2.91 2.91 0 0 1 1.64-1.11zm2.06 1.4a4.11 4.11 0 0 0-3.45 0c-.48.28-.28.71.34.51a9.34 9.34 0 0 1 3.11-.51zm1.27 1.54c-.67-1.76-5.79-.38-3.34 0a3.93 3.93 0 0 1 3.36 0zm2.88 2.09c-1.35-.17-3.36-2.5-5.78-1.43-.53.23-.1.76.36.58 2.08-.79 4.38 1.32 5.44.85zm.07 2.08c-1.06-.14-2.11-2.7-5-2.12-.38.08-.43.75.42.67 2.78-.27 2.85 1.68 4.6 1.45zm0 2.18c-1.2-.79-2.42-3-4.36-2.66-.47.1-.37.56.13.55 1.78-.04 2.26 1.81 4.22 2.11zm.19 1.93c-1.6-.64-1.82-2.4-4.31-2.92-.39-.08-.61.38 0 .56 2.24.64 1.6 1.87 4.3 2.36zm-.43 2.2c-1.8-1-2.13-3.18-3.71-3.57-.48-.12-.5.32-.16.46 1.89.78 1.42 2.56 3.89 3.11zm-.37 1.85c-2.52-1.2-2.17-3.11-3.53-3.58-.57-.21-.75.14-.2.42 1.2.62.89 2.46 3.72 3.16zm-4.14-1.54c1.62 1.47.55 2.48 2.92 2.8-1.44-.57-1.19-2.35-2.58-3.07-.46-.23-.54.1-.35.27zM97 34.34c-1.23-.34 1.93 2.33 1.81 2.3s-1.62-2.07-1.81-2.3zm.18-1c.18.23 1.74 2.25 2.3 2.4-.83-.74-2.38-3.67-2.35-2.41zm-9-1.81c.75-2.13 7.3-5.76 2.53-9.66 5.74 3.13-.36 7.13-2.62 9.65zm-7.91 5.86c2.36-1.94-1.64-3.81-1.57-1.1.63-1.47 2.39-.73 1.48 1.09zm-2.41 2.47c.31.08 1.88-2.58 1.45-2.76s-1.85 2.67-1.54 2.75zm-.18 2.87c.46.3 1.65-2.74 1.18-2.86s-1.73 2.56-1.27 2.85zm-.22 1.8c.54-.2-.07-2.46-.63-2.22s.01 2.41.54 2.21zm-1.43-1.75c.53.18 1.79-3.18 1.27-3.33s-1.88 3.15-1.36 3.32zm1.23-1.55c-.23.56.08.69.3.12s-.16-.69-.39-.13zm10.91-8.55c1.42 1.48-.18 2.08-.56.47L87 35.61c2-1.88 1.5 1-.61.81-2.76-.3-.47-3.37-.46-1.34 1.32-.41.5-2.21-.94-1a1.88 1.88 0 0 0 0-2c-.79.52-.57 1.72-.57 1.72-1.5-1.19-1.83.42-1.13.91.7-1.67 1.94 1.39-.39 1.39-1.48 0-1.78-2.54-.42-.87l-.14-1.94c-.52 1.16-1.2 1.28-1 .27l-.49.08.06 1.48a1.31 1.31 0 0 1 .31 1.45c7.15.75 9.91 1.89 13.68 3.71-.12-.15.67-1 .84-.84l1.56-2.52-.75-.61c-.17 2-1 1.73-1 .14l-1 1.73c2-.92 1 1.87-.73.84-2-1.25.47-3.38.36-1.51.87-.14 1.09-1.79-.84-1.37 0 0 .94-1.11.44-2a1.87 1.87 0 0 0-1 1.79c-.81-1.73-2.38-.44-1.34.54.93-1.88 1.65 2-1 1-2.06-.75-1.14-3.66-.19-1l.58-2.47c-1.09 1.31-2.29 0-.31-.7L88 32.62m-2.9 3.76c0 .42-1.16.3-1.1-.12s1.17-.26 1.11.12zm7.53 2.16c-.18.38-1.19-.13-1-.5s1.21.13 1.01.5zm-4.75-1.74a.43.43 0 0 1 .85 0 .43.43 0 0 1-.85 0zm1.18 45.74c-.12 4.31-5.34-.51-1-1 .29-.17.34-.75.34-.75-3.11-.88-3.84 4.25-.61 4.26a2.18 2.18 0 0 0 1.9-3.23 1.33 1.33 0 0 0-.63.72zm.06-2.64c-1.14 2.45-.4 2.79.72.34s.4-2.79-.72-.34zm2.52-6.2c-.93 2.53-.16 2.81.74.27s.16-2.81-.74-.27zm2.42-6.16c-1 2.31-.34 2.58.62.26s.32-2.59-.62-.26zm-4.46 9.25c-1 2.18-.41 2.46.59.27s.41-2.46-.59-.27zm1.61.61c-1 2.18-.41 2.46.59.27s.41-2.46-.59-.27zm-.55-.56c-.22.49.12.64.34.15s-.13-.63-.34-.15zm1.28-6.23c-.9 2.23-.28 2.48.6.24s.28-2.48-.6-.24zm1.64.52c-.9 2.23-.28 2.48.6.24s.28-2.48-.6-.24zm-.58-.52c-.2.49.16.63.34.13s-.15-.63-.34-.13zm2.56-6.35c-.22.47.12.62.33.15s-.12-.62-.33-.15zm-4.8 7.87c.26 1.7.19 1.87-1 3.16l-.84 2.08-.64-.32c2.08-3.39-4.93-6.57 2.9-6.24-.04 0-.26.68-.42 1.32zm9.86 12c.77-.55 1.11-5.2-3.72-7.63 3.43 3.55 1.52 9.17 3.72 7.58zM96.8 51.48c-.39.45.14 2.24.65 2.57v-.59a5 5 0 0 1-.65-1.98zm.84-.32a5.65 5.65 0 0 1 1 2.56 2.59 2.59 0 0 0-1.06-2.93zm-1.58-1.35.88 1.48.37.14c.14-.3-.82-1.62-1-1.88h-.34zM97.52 52c-.21 0 0 .74.17.67s.03-.73-.17-.67zm.31 1.7a9.53 9.53 0 0 1 .4 2.64c0 .2.31.67.5 0s-.59-4.19-.9-2.64zm.39 4.57c.28 0 .28-.44 0-.44a.22.22 0 0 0 0 .44zm.87-1.53c.09.24-1.38 4.52 0 2.73.57-.72.7-4.12 0-2.73zm-1.23-.49c-.55-.4-1.11 2.31-1.06 2.93.37 1.82 1.2-2.99 1.06-2.93zm-1.57 6.89c.71.24 2.25-3.41 1.66-3.62-.43-.14-1.95 3.48-1.66 3.62zm-.74 3.28c.83.42 2-3.14 1.62-3.27-.17-.05-1.92 3.11-1.62 3.27zm.45-3.77c-1-.81-2.55 4.62-1.41 3 .32-1.65 1.58-2.86 1.41-3zm-12.53 6.58c-1.6-1.93-.7-6.31 2.87-7.6-3.48 2.28-3.34 5.21-2.87 7.6zM40.13 36.64c-1 1-4.8 3.6-4.57 5.69.67-1.89 9.19-5.5 4.57-5.69zm-23-25.21L16 10.84 15.41 12zm-2.41-1.49 1.18.59.59-1.18zm2-.48-.59 1.18 1.17.59zm-1.49 2.46.58-1.18-1.17-.59zm-4.44 2.4a.37.37 0 0 0 0-.73.37.37 0 0 0-.02.73zm1.1-.43a.37.37 0 0 0 0-.73.37.37 0 0 0-.02.73zm1.16 0a.37.37 0 0 0 0-.73.37.37 0 0 0-.05.69zm8.29-3.17a.37.37 0 0 0 0-.73.37.37 0 0 0-.02.69zm1.18-.1a.37.37 0 0 0 0-.74.37.37 0 0 0-.02.7zm1 .38a.37.37 0 0 0 0-.73.37.37 0 0 0-.05.73zm.63.8a.37.37 0 0 0 0-.73.37.37 0 0 0-.05.69zm.3.84a.37.37 0 0 0 0-.73.37.37 0 0 0-.05.69zM9.93 15.18a.37.37 0 0 0 0-.73.37.37 0 0 0 0 .73zm-.21 1.06a.37.37 0 0 0 0-.73.37.37 0 0 0 0 .73zm.23 1a.28.28 0 0 0 0-.56.28.28 0 0 0 .05.53zm14.53-3.75a.28.28 0 0 0 0-.56.28.28 0 0 0 0 .53zM14 13.76a.28.28 0 0 0 0-.56.28.28 0 0 0 0 .56zm5.19-2a.28.28 0 0 0 0-.56.28.28 0 0 0 .04.58zm.95-.72a.28.28 0 0 0 0-.56.28.28 0 0 0 .04.58zM10.47 18a.28.28 0 0 0 0-.56.28.28 0 0 0 0 .56zm4.46-4.3a.28.28 0 0 0 0-.56.28.28 0 0 0 0 .56zm3.46-1.34a.28.28 0 0 0 0-.56.28.28 0 0 0 0 .56zm-6.15 4.22c.9-1 2.65-.79 3-1.85-4.33-.19-4.4.91-4 2.07a1.23 1.23 0 0 0 1-.22zm-1.32 1.79 1.51 2.07 1.12.43-.07.94a2.57 2.57 0 0 1 1.66-.32 2.26 2.26 0 0 1 1.9-.95s.45-.94 2.13-.62c.28-.48.88-1.42 1.76-.76 0 0 1.42-.76 2-.38a.85.85 0 0 1 1.12-.43l-.34-.73.58-.59.11-2.86-.8-.47s1.16 2.32-.58.73L23 15.94c1.53-1.1 1.28.79 0 1.18s-1.93-1.4-.41-1.4c0 0 .11-1.18-1.07-.34l-.07-1-.53-.43-.28.63.19.86s-1.14-.22-.84.93c1.18-.74 2 1 .27 1.52s-2.7-1.89-.61-1.24L18.91 15c.11 1.16-1.66 1.79-.64-.43l-2 .7c1.34.53 1.6 1.69-.32.94l.66 1.65c1-2.27 1.74.32 0 1.17-1.27.61-2.73-1-.8-1.28 0 0-.22-1.27-1.19 0l-.31-.77-.61-.25-.09.67.36.59s-1.6-.13-.55 1.09c.75-1.67 1.86.53.55 1.24s-2.42-1.29-1.06-1l-.72-1.13s-.48 2.1-.82-.38zm8.33.33-.42.82-.83-.42.42-.82zm-3 1.08c.24.41-1.19 1.09-1.36.65-.24-.42 1.19-1.1 1.36-.65zM22.46 18c.11.46-1.46.69-1.49.21-.11-.46 1.46-.69 1.49-.21zM17 14.67a.45.45 0 0 0 0-.9.45.45 0 0 0 0 .9zm-.41-1.14a.45.45 0 0 0 0-.9.45.45 0 0 0 .03.9zm2 0 1.09.3s1.11-1.44 2.11-.62a1 1 0 0 1 1.35-.21c-.03-1.37-1.23-2.57-4.48.53zm-1.21-1.68c0-.31-2.15.42-2 .67 0 .32 2.16-.41 2-.67zm-6.19 5.5c-1.13-1.7-.78-3.36 3.86-3v-.26c-5-.36-5.4 1.44-4.18 3.28zm12.61-4.3c-.54-4.47-4.91-.94-5.64 0l.15.26c.67-.92 4.83-4.35 5.3.08zm5.57 35.09c.82-.06 1.08-.3 1-1.51a4.87 4.87 0 0 1-.93 1.51zm-1.06-.74c.82-.06 1.08-.3 1-1.51a4.87 4.87 0 0 1-.93 1.51zm5.39-15.94c-.87-.94-2.69-.5-3.35-2.67 1.1 1.21 2.59.81 3.35 2.67zm-1.43 14c-.79-1.2 1.52-3.34-.06-4.34.59 1.73-1.63 2.54.06 4.33zM32 34.94c.74 4.08 3.42 3.13 3.65 4-.28-1.76-2.65-1.58-3.65-4zm3.47 2.26c-.13-.52-.58-1.15-1.34-.71a1.27 1.27 0 0 0 1.32.71zm-16.68-8c-1-1.86 1.12.37 2.39 0 1.26 0 2-.89-.84-1.55-2.22-1 2.68-.29 3-1.87.37-.45.8.26.3.79-2.57 2.81 1.37 2.61 1.41-.32a.56.56 0 0 1 .42.23c1.16-1.1.73-4.95.73-4.95 1.31-.3 2.12.7 3.09.56-1.87-1.7-2.49-1.13-3.18-1.18s-.78-.46-1.41-.36c1.06-3 2.73-1.95 2.53-.71l.25-.05c-.14-2.95-2.77-1.18-3.48.85-.72 0 0-1.21 0-1.21-.36 0-.77 1-.77 1-.35-.19.24-1 .24-1-.23-.55-1.13 1.1-1.13 1.1-.42-.1.53-1.39.53-1.39-.6-.16-1.9 2-1.9 2-.21-.21.59-1.71.59-1.71-.93.37-1.46 2.61-1.46 2.61-1.12-2-2-1.58-2-1.58 1.67 1.11 1.55 1.78 1.55 1.78-1.57-1.36-2.3-1.26-2.3-1.26 1.73.91 1.15 1.23 1.15 1.23-1.33-1-2-.77-2-.77 1.42.5 1.3.95 1.3.95a2.27 2.27 0 0 0-1.68-.51c1.5.73.43.92.43.92-1.62-1.07-2.38-.5-2.38-.5 3 1 1.52 1.23 1.52 1.23-4.59-2.08-4.58.33-3.82 1.41l.39-.29c-1.57-1.92 1.3-2.2 2.61-.74-3.35.64-3.47 3.22-3.47 3.22 1.51-2.87 3.2-2.64 3.2-2.64-1.57 2.48 4 4.43 5.36 6.07-.02.01-.57-.69-1.19-1.39zm4.91 2.44c-1.22-2.87-3.1-1.08-.81 1 .65.84 2.73 0 2.26-1-.54-3.35-2.62-2.56-1.47-.03zm.08 1.89c.16.47 1.93-.26 1.71-.71-.08-.34-1.91.42-1.73.68zM20.85 30s.13.46.48.45c0 0-.27-.4-.08-.52zm3.78-1.25s.3.22.17.48c0 0 .39-.25.22-.58zM14 25c-2.78 1.38-1.83 3.71-2.25 4.37.94-1.05-.17-2.42 2.22-3.71.03.02.26-.39.03-.66zm-.1 2c.6-.58.23-1 0-.83-2.75 2.59-.4 4.69-2.11 6.68 2.21-1.32.14-3.96 2.1-5.85zm.91.79c.27-.34-.22-1-.78-.18-1.56 2.25.72 5.75-1.34 8 3.31-1.83.31-5.41 2.11-7.79zm0 5.5c.1 1.91-2.21 3.5-.88 5.44.35-3 1.75-2.92 2-4.9.17-1.37-.69-3.56.18-4.92.33-.51-.54-1.32-1-.62-.91 1.58-.45 2.71-.32 5.03zm1.61-4c-1 3.54.74 4.58-.16 6-1.15 1.84-1.68 2.38-.91 4.54.27.74-1 .88-.37 2.18.13-1.33 1.76-1.25.82-2.85-1-2 2.19-2.53 1.5-5.41-.74-1.14.06-6.28-.9-4.42zm.19 12.42c1.9-2 .68-1.78.7-3.19s1.82-2.29 1.62-5.06c1.13 2.93-2.9 5.25.25 7.71-.58-1.28-1-1.44.81-3.92s.45-6.38-.3-6.47c-.58-.07.32 2.88.35 4 0 1.69-.77 1.76-1.62 4 0-2 2.57-3 .45-8.11-.33-.8-1.41-1.61-1.48-1-.3 2.87.67 2.39.74 4.81 0 1.25-2.12 3.19-1.28 5.68.31.9-1.78 1.88-.54 3a2.08 2.08 0 0 1 .28-1.41zm4.39-9.3c2 5.35-1.28 4.22-.84 7.76a5.56 5.56 0 0 0 .84-7.76zm1.51 1.77c1.68 4.67-.77 4.8-.13 6.67 1.44-2.54 2.27-1.76 1.25-5.55.75 2.77 3.52 3.6 3 5.63 1.57-1.34.05-3.2-.54-5.84 1.15 1.81 2 3.3 1.5 4.85 2-2.13-1.47-5.39-1.15-7.55.64 3.42 3.39 4.11 3.39 5.63.74-2.24-3-3.65-3.26-6.8 1.6 3.31 4.19 5 4 6.24.83-2.85-1.5-4.19-2.47-5.42-2-2.54-2.17-3.81-2.17-3.81-.88 1.2 1 4.75-.35 6.3 0 0-.34-.64-.66-.54 0 0-.08.88-.4.94 0-.17-1.16-1.3-1.15-.22a1.09 1.09 0 0 0-.87-.53zm2.56 1c-.07 1.67 1.37 2.69 1.52 3.55-.15-1.94-1.05-2-1.53-3.51zm-.62-14.06C24.29 22 23 22.79 23 22.79c.63 0 1.44-.95 1.44-.95.42 2.59-1 2.24-1.32 3.44-.19-1-.42-2.16-1.79-2.45a6.87 6.87 0 0 0 3.11-1.67zM30 24.47c-.58-.81-1.33-2.51-3.22-2.57-.45 0-.37.61.09.65 1.74.17 1.83 1.45 3.13 1.92zm2 4.08c-1.82-1.33-2.29-4.51-4.92-5.24-.47-.13-.57.58-.07.74 2.54.81 2.56 4.52 4.99 4.5zm-7.69 13.39a2.22 2.22 0 0 0 .83-3.13 27.16 27.16 0 0 0-.83 3.13zm3.79-2.21c-.55 1.21.62 2.28.37 2.9.9-1.06-.33-2.04-.37-2.9zm-1.29-14.34c1.74.87 2.08 4.14 3.35 5.12-1.61-.64-1.94-3.51-3.67-4.51-.35-.21-.57.5-.22.69 2.19 2.05 1.39 4.14 5.33 4.89a2.21 2.21 0 0 0-1.29-1.73c-.92-.59-.85-4.06-3.36-5.13-.47-.25-.59.44-.14.67zm-.86 2c1.46 4.89 4.1 5.45 5.54 7.3-.35-3.15-3.23-2.48-5.12-7.41-.14-.41-.54-.28-.37.08zm9.05 8.3c-2.3-.73-1.53-3.63-4.72-4.09 2.49 1.47 1.84 4.85 4.72 4.09zm-6.15 2.58c-.48 2.34 1.45 3.34 1.06 4.21s-.87 1.38-.52 2.23c2.61-3.07.04-3.6-.54-6.44zm1.47 1.67c1.79 3.72-1.43 4.3 1.19 6.79-1.92-3 1.93-4.35-.65-6.94-.47-.48-.77-.33-.54.15zm.85-1.59c.14 3.67 2.71.93 2.16 5.72 1.36-4.58-1.24-4.07-2.16-5.72zm.83-1.82c-.85 3.1 3.76 2.93 2.41 6.1 2.33-3.19-1.83-3.45-2.41-6.1zm2.15-3c-.74-.09-.94-1.84-2.19-1.77.69.62 1.44 1.87 2.22 1.74zM5.11 43.85a4.9 4.9 0 0 0 2.78 4.53C4 44.1 7.65 42 5.27 38.58c.96 1.77-.17 2.97-.16 5.27zm1.62-.78c-.53 3.16 2.39 5.85 2.69 6.36 1.21 4.64-2.06 6.54-6 11.79-5.55 10 6.45 11.3 8.2 4.6.31-.44.62-.17.38.22-1.34 2.19-1 6.22-1 9.16-.2 4.61-4.77 7.54-3.66 10.84L7.89 85l.22.37c-1.11 2.63.17 2.44.17 2.44l.39-.81a3.69 3.69 0 0 1 0 2l.48-.78c-.85 2.67-.09 2.55-.09 2.55a1.75 1.75 0 0 1 .55-1c-.46 5.43 2.43 3.06.81-.34l1 1.75c.4.7-.43 1.21.22 1.94 1.41 1.57 1.21-.29.41-1.58.68-.07 1.77.8 1.77.8.08-1.06-2.2-.87-2.47-2.15a8.94 8.94 0 0 0 2.52 1.11c.93.34.37 2.26 1.29 2.21s.17-2-.61-2.45l1-.2c-.8-1.5-2.84 1.19-4.08-1.6 1.46 1.65 3.32.3 4.17.85l.05-.68c-.75-1.26-3.2 2-4.39-1.52-3.19-8.1 13.82-14.17 7.74-26.12 1.39-.09 2.42 2.26 2.42 2.26 1.27-3.29 4.75-7.58 5.71-8.81S25.63 54 25.63 54c-.13 1.25-1 1.29-1 1.29a.71.71 0 0 0-.07-.83 1.46 1.46 0 0 1-1.13.79A12.83 12.83 0 0 1 17.68 61c2.81-1.71 5.16-5.35 5.24-6.27a1.29 1.29 0 0 1-1.68.13c.9-.42.23-.68.23-.68a1.65 1.65 0 0 1-2 .12c.51-.07.44-.72.44-.72a3.78 3.78 0 0 1-1.73.5L14 62.35s3.59-7.92 3.5-9l-.67-.51a.87.87 0 0 0 .82-.88 1 1 0 0 1-1.13-.12c1.56-1.47.12-1.39.12-1.39 1.1-1.3.84-1.76.48-1.66-.29-.86.55-1.8.55-1.8-.27-.26-.79.4-.79.4-.36-.52 1.24-2-.15-1.41a2.69 2.69 0 0 1 1.3-2.2s.94 2.63 1.87 5.49 2 1.7 7.48 4.29a35.56 35.56 0 0 0 9.83 3.11c1.29 1.26 1.5.82 1.5.82a.83.83 0 0 1 .37-1.08l-1.41-.92 3.28.79a1.6 1.6 0 0 1-.74-1.57l-1.94-.17c-1.08 1.17-2 .87-2 .87 3.26-2.19 1-3-1.56-3.81-8.92-4.08-7.64-5-11.19-3.79 1.32-1.85 4.87-.68 5.29-2.51l-.51-1.6c-.05 2-1.06 2.3-1.06 2.3a.9.9 0 0 0 .39-1.18c-1.43-1.23.76-2.32-.42-3-.08 1.34-.84.19-1.29 2.63.12-1-1.26-.84-.39-3.14-.5 1-1.57.42-1.2 2.22-1.54-1.83.08-1.77 0-3.25-2.38.53-1.18 2.18-1.18 2.18A2.43 2.43 0 0 1 21.87 40a1.75 1.75 0 0 0-.54 2.49c-1.14-.45-1.87-2.38-1.87-2.38.64 2.41-.7 3-.7 3 .53-1.35-.45-1.83-.45-1.83a5.91 5.91 0 0 1-2.08 3.33c.38 11.49-2.69 16.47-2.69 16.47-2.13.84-5.2 10-9 6.36-4.49-5 8.27-11.81 5.86-17.69-.3-3.11 1.39-3 1.13-5.87a7.35 7.35 0 0 0-2.44-4.69c1.76 1.87 1.91 5.53 1.05 9.37-.79-1.31.61-8.69-2.57-9.85 2 1.42 1.48 8.63 2.07 10-.75-.71-.74-9.3-2.1-9.21A9.35 9.35 0 0 1 8 43.75a10 10 0 0 0 1.22 4.78C7.1 47.85 7.8 40 6.74 39.31a8.41 8.41 0 0 1-.01 3.76zm28.61 11.19c-8.85-.2-12.35-3.8-14.69-6.78 0 0 4.85 5.8 14.69 6.78zM16.42 74.74s2.28-11-.41-11.31c3.99-.64.41 11.31.41 11.31zm-2.68-8.65c-3.49 11.21-1 11.61.81 11.21-.89.88-1.79.17-2.36 1S8.4 83 9.58 87.64c-2.88-4 .08-6.51 2.17-9.62.67-1.35-1.81-1.71 1.99-11.93zM21 70.21l-.14 1c5.68 7.07 0 9.33 3.54 12.57l.17-1.23s.53 2.1 1.5 2.6L26 83.69s.57 1.93 1.4 2.27l.13-1.31s.57 2.24 2 2.44c0 0 .2-.9-.14-1.13 1.57.46.77 2.74 3 2.23.86-.19.67-1.41-1.12-1.91-.47-.13.8-.38.8-.38-1.67-.2-2.33-.22-2.49-1 2.41 1.3 3-.34 4.44 1.42.18-3.09-2.24-.78-4.21-2.34 3.27 1.1 2.63-.33 4.52 0-.73-2.09-3.61 1.32-6.17-2.09-3.83-4.66 3.89-13.31-3.47-19.09l-.18.75-.64-1-.24 1.49a13.33 13.33 0 0 1 3.52 8.77s-.72-5.73-4.54-8.42l.06 2.21L22 66c-1.93 4.2 3.56 7.44 2.8 13.41a4.88 4.88 0 0 0 2.4 4.56c-6.2-2.38-.06-8.03-6.2-13.76zm-3.19-25.68a.71.71 0 0 0-.54.92s.49 0 .54-.92zm.36 1.15a.9.9 0 0 0-.64.93s.94-.24.64-.93zm.35 1.16c-.71.26-.85 1.23-.85 1.23 1.61-.37.85-1.23.85-1.23zm.69 1.71c-.55-.81-1.57 1-1.57 1 1.61-.15 1.57-1 1.57-1zm.49 1.16c-.55-.78-1.84 1.11-1.84 1.11 1.29.23 2.14-.71 1.84-1.11zM20 51c-1.12-.67-1.75 1.44-1.75 1.44 1.1-1.35 2.34-1.07 1.75-1.44zm-1.33 2.43s1 .46 2-1.47c-.78-1.11-1.61 1.42-2.03 1.47zm2 .62s1.63-.54.89-1.72c-.89-.06-.49 1.14-.96 1.72zm1.92.5a1.25 1.25 0 0 0 .07-1.82c-1.02.35.01 1.11-.14 1.82zm1.12.16a1 1 0 0 0-.2-1.68c-.61.97.35 1.04.13 1.68zm1.44.08c.58-.84-.48-1.36-.48-1.36-.45.76.51.57.41 1.36zM33 86.5s1.11 1.48.74 2.39c-.04 0 1.58-1.89-.74-2.39zm1.46-3.38s.5.37.49.68c0 0 .66 0 .82.15a1.21 1.21 0 0 0-1.35-.83zm-.05 1.61a2.55 2.55 0 0 1 .45 1.7.92.92 0 0 1 1.24.65 1.63 1.63 0 0 0-1.73-2.35zm9.44-28.37c-.21-.73-1.42-1.7-1.66-.94-.19.45.86.34 1.62.94zm.07-3c-.08-.48-1.13-1.18-1.45-.45-.25.51.75.09 1.41.47zm-1.47-1.09c-1.45-.11-2.48 2.23.78 1.77-1.43-.44-1.35-1.28-.82-1.75zm.42 2.41c-2.28-.73-3.18.71-.9 1.81.22-.84-1.58-1.76.86-1.79zm-2.38 2.52c-.72-1.25-2.36-.36-.75 1.52.17.2 1.13.32.62-.26-.36-.32-1.25-1.39.09-1.24zm1.18 1.57c-.17-1-1-1.44-1.24-1-.02.62.82.45 1.2 1.02zM38.35 53a1.88 1.88 0 0 1 .14 1.25h2.31s-.45-.73-.21-1.13c0 0-.82 0-.82-.44zm20.89 23.29 1.12-1.71-3.52 1.09a4.19 4.19 0 0 0 2.4.62zm13.26-24.1c.13 1.13 1.2.42 1.82.29.12-.2 1.79-2.49 1.81-2.64h-2.31c.18.22-1.23 1.38-1.32 2.35zm3.23 6.18a1.22 1.22 0 1 0 2.23.05zm-5.42 12.42-.23.22c-1.06-.74-2.69.27-2 1.32.82.84 2.65-1 3.74.12s-.83 2.4-1.38 3l-.12.12-1-.81.23-.22c.77.61 2.41-.21 1.87-1.11-.5-.52-1.56.32-2.82.32a1.47 1.47 0 0 1-.79-2.75c.54-.61 1.25-.56 1.2-1l.16-.15zm-2.64 6.45c.72 0 1.44-.07 2.23-.14 8.33-5.8 12-17.79 7.74-27.26h-1.07l.58 1.87-.29.09c-.3-1.51-1.41 1.26-1.73 1.41.45 0 2.65 1.22 2.14-.09l.29-.09.56 1.82-.29.1c-.15-.89-2.53-1.08-3.18-1.41-.6.26-1.84.22-1.34 1.28l-.29.09-.56-1.77a8.33 8.33 0 0 0 1.64 4.09c.57-.22 4.3.72 3.87-.67h.31c1.15 5.28-3.35 6.8-2.87 1.8h-1.34l-.29 1.57-.41-.18v.72l.31.08c-.15.45-.25 1 .3 1.08.67-.09 3.75 1.74 3.79.21l.29.08L77 66.21 75.83 66l.08-.29c1.15.37 1-1.5 1.29-2.07l-1.71-.46c0 .5-.86 1.87.05 2l-.09.31-1.51-.41.09-.31c.78.4.84-1.23 1-1.7-.31 0-1.78-.76-1.84-.19-.1.77-1 1.95.18 2.41l-.08.3-.79-.27c-.48.66 3 2.12 3.28 2.47a1.06 1.06 0 0 0 .48-.46l.26.17-.87 1.41L71.11 70c.71.18 2.54 2.33 3 .87l.27.16-1.1 1.78-.26-.16c1.18-1-3.22-2.56-3.53-3l.23-.38L75.14 68c-.72-.14-3-2.65-3.5-1.21l-.26-.16.48-.81a3.68 3.68 0 0 1-2 1.45c-1.52 4.34-10.14 5.83-8.92 9.73a34.93 34.93 0 0 0 5.88.33l.51-.34-.94-1.49c-.37.34-1.9.79-1.32 1.5l-.28.17L64 75.8l.27-.18c.31.83 1.46-.34 1.93-.54-.25-.19-.8-1.77-1.23-1.38-.6.5-2 .79-1.5 1.89l-.26.17-.58-1.1 4.12-2.6.16.26c-.41.22-.85.56-.51 1 .55.4 1.59 3.82 2.65 2.72l.16.26zm-30.3-25.15c1.08-2.18-3-3.6-4-1.89a15.3 15.3 0 0 0 4 1.89zm-2.81-4.87L36 45.09l.26.17c-1.08 1 2.29 2.18 2.64 2.7.35.27.66.12.9-.3l.26.17L38.61 50l-.25-.17c1-.93-2.34-2.15-2.66-2.65-.37-.28-.65-.15-.88.25zM39.49 42l-.68.67 1.48 1.49v-2.42c-.36-.26-.61.02-.8.26zm8.8-1.22c-.11-4.64-6.43-2.63-2.86 1H46a2.24 2.24 0 0 1 2.29-1.05zM52.88 36l2.12-.28v.3c-2.1.36 1.49 4.67-2.49 5-4.2.67-1.56-4.32-3.62-4.28v-.31l2.51-.3v.3c-1.26-.15-.26 2.38-.36 2.94a1.28 1.28 0 0 0 1.61 1.11c2-.16 1.27-2.27 1.17-3.53-.06-.63-.37-.81-.9-.7zm2.57-.23 2.57.19v.31c-1.37-.46-.75 3.07-1 3.64-.07.43.22.62.71.62v.31l-2.56-.19v-.31c1.31.42.7-3.09 1-3.62 0-.46-.2-.64-.66-.64zm9.51 6 .83-2.24-2.55 2.24zm-2.66 0L62.23 38c-.09.71-2.37 3-1 3.48l-.12.26zm12.23 4 .78-.13c-9.54-15.21-36.52-12.88-43 3.84L33 50c1.45-3.32 6.08-1.31 4.67 2.18a9.32 9.32 0 0 0 .92.17 16.25 16.25 0 0 1 1.66-3v-3.66L38 43.41c-.53.64-1.51 1-.65 1.94l-.23.24-.93-1.15.18-.18A15.41 15.41 0 0 0 39.68 41l.18-.18 1.11.92h2.88c-2.76-4.53 7.21-6.28 5.15-.74.64 1.51 10.81.53 12.06.79L59.42 41l.13-.28c1 .69 1.79-2.52 2.3-3 .19-.35.24-.52-.25-.77l.13-.28 1.55.7.09 3.63 2.73-2.39 1.59.72-.13.28c-1-.71-1.08 1.67-1.44 2.1.84 0 3.36.18 4-.53l.08-.23.89.82c-.09.77-2.21 4.45-1.41 5.1l-.22.24v1.8c.21-.29.4-.6.64-.9l-.44-.61.25-.18a.85.85 0 0 0 .53.39c.4-.91 3.79-1.51 3-2.89l.25-.18zm-5-2.84.42-1.07-.42.23zM54.88 34.2c4 0 12 1.42 13.42 1.68 4.75-1.38-7.7-3.07-13.42-3.08s-18.14 1.69-13.41 3.08c1.42-.26 9.37-1.68 13.41-1.68zM43 34.76l2.45-.85-.44.39h.9l-.87.43.46.23zm6.51-1 2.52-.61-.48.34h.91l-.91.35.44.27zm7.36-.34 2.59-.13-.54.24.89.21-1 .17.38.35zm6.52.76 2.59.08-.55.2.86.28-1 .09.35.38zm-16 47.08c-10.8-3.2-18.45-13.51-17.31-24.84-3.22 9.12 6.55 22.76 17.25 25.3zm23.67-4c8-6 11.58-17.85 7.55-27.33L78 49.8c4.09 9.22.79 20.89-7 26.89zM45.68 36a25 25 0 0 0-14.15 13l.45.22c2.86-6.35 7.47-9.66 13.7-13.22zm30.39 9.2a25.27 25.27 0 0 0-10-8.38s.25.43-.08.51a24.73 24.73 0 0 1 9.73 8.19s.5-.03.35-.32zM40.23 66.49a15.38 15.38 0 0 1-2.16-8.64l-.33-.17a15.81 15.81 0 0 0 2.5 9.46zm0-16.47A16 16 0 0 0 39 52.44h.37a15.88 15.88 0 0 1 .92-1.79zm8.92 27.89c.23.73 1.32 1.2 1.55.69s-.9-.85-1.52-.69zm2.25-2.78c-.77-1.14-2.81 3-1.37 1.84.17-.36.82-1.76 1.4-1.84zM49 79.38c0-2.38-3 4.62 1.57 4.11-2.93-.78-1.74-3.49-1.57-4.11zm.67.7s-.52.8-.27 1.38c6.16 1.84 13.44 4.4 21.65-2.85-4.33.88-13.24-.1-19.2-2.91 0 0-.77.61-.75 1.07 0 0 1.39.14.74 1.33a.92.92 0 0 1-.7 1.66c.03.24-.52 1.09-1.43.32zm.7-.72c-.57 0-.57.7 0 .7s.63-.7.04-.7zm.86-2.28c-.53 0-.53 1 0 1s.58-1 .04-1zm.44 1.31c-.49-.21-.93.89-.42 1.08s.96-.89.46-1.08zm.54-3C60.47 78.6 73 80.15 74 75.41c-1.74 4.08-11.63 3-21.4-.19zm-7.62-1.79c-.79-.58-1.17 1-1.52 1.44l2.32 1.32c.21-.57 1.44-1.74.35-2.11l.15-.27 2.25 1.29-.15.27c-1-1-2 2.47-2.47 2.85-.25.38-.05.67.35.86l-.15.27-2.22-1.24.16-.27c.81.72 1.19-.72 1.54-1.2l-2.32-1.32c-.22.54-1.28 1.56-.27 1.93l-.15.26-2.25-1.28.15-.27c1 1 2-2.44 2.48-2.83.26-.39.07-.68-.36-.88l.15-.27 2.25 1.29-.15.26zm-7.5-.07c-2.68-2.75 1.25-6.36 3.89-3.38 2.87 3.06-1.38 6.34-3.85 3.43zm3.51-3.29c-1.67-1.8-4.72 1.63-3.13 3.2 1.71 1.99 4.83-1.7 3.17-3.15zm-2.77-2.34c.44-.2.51-.41.24-1l.27-.14.84 1.77-.27.13c-.27-1.33-3.42 1.18-4 1.17a1.15 1.15 0 0 0 .13.66l-.28.13-.76-1.5 1.61-4.42c-.54.51-3.34.87-2.38 2.08l-.28.13-.86-1.91.28-.14c.16 1.51 3.91-1.31 4.48-1.3L37 64l-1.89 5.19zm-5.75-3.56-.54-2.52.3-.06c-.05 1.44 3.15-.16 3.78 0 .43-.07.53-.39.4-.86l.3-.07.54 2.52-.3.06c0-1.37-3.17.21-3.75.1-.45.07-.56.37-.43.81zm4.41-7c.31.69-.38 1.8 0 2v.21l-1.42.23v-.31c1.26-.28 1.62-2.17.35-2.33-1.17 0-1.07 2.62-2.63 2.66s-1.2-2.24-1.23-3v-.17l.87-.13c-1.07-.28-1.84-.52-1.84-.52-1.39 11.28 6.18 21.73 17 24.89.24-1 .82-2.71.82-2.71l-.42-.85 1-.27c4.3-4.49-12.18-3-11.49-19.65a7.56 7.56 0 0 1-1.01-.04zm-3.7-.72v.15c-2.23 1.14-.46 3.95 1 .1zm16.89 25.54c-.7-.09 3.18 1.32 5.18 1.46a29.8 29.8 0 0 0-5.18-1.46zM60 82c-.72.69-1.78-.47-1-1.13-1.34 0-.62-2.13.36-1.38a.77.77 0 0 1 1.53 0c1-.75 1.7 1.37.36 1.38.75.66-.31 1.82-1 1.13zm-.56-.15a.35.35 0 0 0 0-.7.35.35 0 0 0 .04.72zm1.33 0a.35.35 0 0 0 0-.7.35.35 0 0 0 .04.72zM59 80.47a.35.35 0 0 0 0-.69.35.35 0 0 0 0 .69zm2.31 0a.35.35 0 0 0 0-.69.35.35 0 0 0-.05.69zm-1.14-.67a.35.35 0 0 0 0-.69.35.35 0 0 0-.05.69zM50 11.72a.94.94 0 0 0 0-1.88.94.94 0 0 0 0 1.88zM51.14 14c-8.93-6.17-17.42-3.31-12.9 6.92.08.14.23-.1.47-.47C34.44 10 43.28 9.28 51.14 14.48zm0 2.81v-1.76C44 10.73 35.31 10.14 39.32 20c.22.38 1-2.59 3.29-1.41a3 3 0 0 1 5-.92s.64-1.78 3.55-.9zm-4.31 9.32c-.18-3.45.89-5.51-1.79-7.55-1.58 3 .26 4.41 1.54 7.65zm-23.57-2c.92.5 1.67-2.11.31-1.28 1.19.09 0 1.64-.4.53.02-.02-.23.51.11.73zm-4.06-.84c-.75 1.18-.07 2.16.51 3-1.09-.61-1.82.65-3.39-1.46 0 0 1.24.08 1.69-.37a3.75 3.75 0 0 1-2.18-.1 7 7 0 0 0 3.39-1.09zM18.31 25c.54 1.05-1.43.84-.66-.07-.65 0-.65.91.22 1 1.05.23 1.13-.85.44-.93zm48.84 17.32H56.84c.46.1 0 .67 0 .67h10.43a.45.45 0 0 1-.12-.67zM68.31 44v11.5s.38-.33.63 0V43.91a.43.43 0 0 1-.63.09zM55.7 55.51V44s-.5.25-.64-.08V55.5a.47.47 0 0 1 .64.01zm1.08 1.57h10.49c-.34-.26 0-.68 0-.68h-10.5a.48.48 0 0 1 .01.68zm10.93-14.19a.26.26 0 0 0 0-.51.26.26 0 0 0 0 .51zm.64-.34c-.38.41 0 .75.36.34s.01-.74-.36-.34zm.27 1.24a.26.26 0 0 0 0-.51.26.26 0 0 0 0 .51zm-12-1.15a.26.26 0 0 0-.51 0 .26.26 0 0 0 .49 0zm-1.36-.23c-.24.21.35.85.58.63s-.37-.86-.6-.63zm.45 1.12a.26.26 0 0 0-.51 0 .26.26 0 0 0 .49 0zm12.67 12.34a.26.26 0 0 0 .51 0 .26.26 0 0 0-.51 0zm.34.63c-.4-.38-.75 0-.34.37s.75 0 .34-.37zm-1.23.28a.25.25 0 0 0 .5 0 .25.25 0 0 0-.5 0zm-12.11-1.17a.26.26 0 0 0 0 .51.26.26 0 0 0 0-.51zM55.15 57c.21.25.85-.35.63-.58s-.86.32-.63.58zm1.12-.45a.26.26 0 0 0 0 .51.26.26 0 0 0 0-.54zm.73-6.4c.59 0 .59-.55 0-.55s-.62.55 0 .55zm-.22-.67c.3 0 .3-.47 0-.47a.24.24 0 0 0-.02.47zm0 1.26c.3 0 .3-.47 0-.47a.24.24 0 0 0-.02.47zM67 49.54c-.59 0-.59.55 0 .55s.62-.56 0-.55zm.23.67a.24.24 0 0 0 0 .47c.32 0 .32-.48.02-.47zm0-1.26a.24.24 0 0 0 0 .47c.32 0 .32-.48.02-.42zm-4.58 6.67h4.9v-4.73c-.41.14-.95-.18-.77-.62-.91-.13-.68-.8.07-.9-.17-.2-.16-.72.7-.67v-4.92H56.43v5c.42-.15 1 .18.78.62.91.13.67.8-.08.9.17.19.16.72-.7.67v4.63h5.9c-.25 0-.28-.9 0-1 0 0-.54.13-.43-.19-.22 0-.47-.05-.37.34-1.06-1.27 2.39-.4 2-1.73 0 0-1.47.06-1.64-.7a1.36 1.36 0 0 1-.65 1.15s0-.36-.18-.47c-.1.45-.59.77-.53 1.07a.89.89 0 0 1 0-1.08.84.84 0 0 0-.39.8.93.93 0 0 1-.25-1c-1-1.31-.32 1-1.49.28 0 0 .58 0 .43-.31a.23.23 0 0 1-.11-.37s-.44.13-.44-.17c0 0-.47-.06-.19.35-.68-.2-.21-1.15.74-.74 0 0 .43-.66-.28-.82 0 0 .67-.62.85.8h1c-.68-.65-1.12-2.16.35-2.16 1.12 0 .72.63 1.61.63a1.7 1.7 0 0 0-1.15-1.52s.34.38.28.63c0 0-.16-.17-.32-.12 0 0 .06.25.21.32a1.15 1.15 0 0 1-.92-.49.32.32 0 0 0 .05.28.85.85 0 0 1-.84-.45.22.22 0 0 1-.37-.06c.07.4.06 1-.5 1 0 0 .37-.33.18-.47 0 0-.41 0-.26-.31 0 0-.18.45-.41.13 0 0-.35-.08-.22.3-.37-.18-.32-1.06.41-.83 0 0-.33-.17-.21-.34 0 0-.07-.52-.35-.12 0-.4.64-.72 1.1.19 0 0 .7-.17.87-.56 0 0-.5-.07-.54-.3.38.08.57-.39.88-.45-.42-.12-.76.55-1.11-.06 0 0 .53.12.64-.21 0 0-.5.15-.63-.24 0 0 .56 0 .56-.21a.7.7 0 0 1-.36-.72c-.27.33-1.14.27-1-.31.92.72 1.17-1.42.19-.91 0 0 .65-1.1 1.21.32 0 0 .58 0 .29-.52.76.19 0 .91 0 1.2s1.39.83 1.46 1.21c0 0-.15-.59 0-.72 0 0 .47.62.86.32 0 0-.4-.17-.41-.45h.22c0-.94-1 .34-1.42-.23-.34-.41.28-.42-.11-1.07.79.2.13.94.64.94s.71-.9 1.24.33h.21c.3-1.55-1.21-.28-1.36-1.41.46-.11 1.31-.62 1.82-.22a.75.75 0 0 1 .67.15.63.63 0 0 1-.23.36c.45.24.38.61.7.72a.35.35 0 0 1-.45.07s.26.24.2.39.3.28.49.23a.64.64 0 0 1-.55.14c.26.37.49.77.72.83a.87.87 0 0 1-.92-.27s0 .72.28.92c0 0-.42-.14-.5-.42.19.72-.11 1.13.1 1.34 0 0-.36 0-.55-.53 0 1.3.9 1.3.9 2.24 0 1.53 1.56 1.44 1.56.15 0-1.09-1-1.2-1.08-2.17 0-1.45 2.49-2.69 1-3.46-.39-.19-.27.6.07.45 0 0 0 .26-.39.19.3.45.12 1.31-.62 1.08.84-.69-.15-1.06-.15-1.56.93-2.59 3 .58 1.38 1.68 0 0 .65-.15.7-.58 0 1.07-1.52 1.25-1.33 2.16s1.56 2 .32 3.3c-.84.88-1.69-.6-1.79.14s1.29-.21 1.24.78c.68 0 .45.43.84.51-.61.27-.87-.38-1.09.06.59.08.92.5 1.18.4a.87.87 0 0 1-.84.12.81.81 0 0 0 .72.31.74.74 0 0 1-.91.06.68.68 0 0 0 .68.23.72.72 0 0 1-1 0s0 .32.24.35a.69.69 0 0 1-.81-.22.23.23 0 0 1-.39 0s.9.93-.1 1c0 0 .33-.25 0-.4 0 0-.39.12-.35-.18 0 0 0 .5-.38.37 0 0 0 .39.37.22a1.16 1.16 0 0 1-.45.31zm-1.08-8.09a.46.46 0 0 1 .41-.46c-.25.2-.07.74-.07.74a.78.78 0 0 0 .51-.44 1.23 1.23 0 0 0 .14.78 1 1 0 0 0 .38-.58 1 1 0 0 0 .45.63 4.19 4.19 0 0 0-.15-1.38l.43.5v-.75l.51.29-.46-.78h.31c0-.17-.72-.7-.16-.73 0 0-.19-.5-.48-.62 0 0 .2-.16.21-.25a.49.49 0 0 0-.46-.06c-1-.45-1 .11-1.66.06.3 1 1.53-.56 1.45 1.33-.05 1.29-1.06.8-1.19.71-.26.23-.15 1.01-.15 1.01zm.15 4.1c.06.4.69 1.11 1.94 1.14.37.91.07 1.1-2.09 1.5 0 0 .91-.12.93.23 0 0-.46.52 0 .88-.17-.51.86-1.09 1-.44a.72.72 0 0 0-.32-.69s.63.1.65-.14c0 0 .47.17.57-.09 0 0-.34 0-.24-.33 0 0 .37.28.55.14 0 0-.45-.22-.4-.47a.39.39 0 0 0 .44.11s-.7-.33-.26-.65c0 0-.33-.13-.06-.3-.22.14-1.84-.8-.6-1.19.21-.66-1.1-2.31-1-3.22a2.82 2.82 0 0 1-.41.66c-.24-.17-.19-1-.19-1a3.64 3.64 0 0 1-.44.59c-.1 0-.16-.67-.16-.67l-.38.47a2.26 2.26 0 0 1-.08-1.2c-.52-.2-1.41-.74-1.5-1.58A.72.72 0 0 0 60 45s-.41.16-.57-.18c0 0 0 .7-.37.73.87-.15.33.72 1.57 1.62a1 1 0 0 0-.56.35s.15.36.71.26c0 0-1.13.95-1.87.79 0 0-.18-.33-.32-.35s.4.55-.44.86c0 0 .82-.25 1 .39 0 0-.07-.57.1-.65 0 0 1.84.38 2.48-.53.12 0 1.77 2.27.31 2.32-.04.03-.39.27-.3 1.02zm.07-1c-.93-1.2-2.53-.33-1.23 1.39 0 0-1.11.33-1.34 0a.89.89 0 0 0-.15-.52s.06.81-.85.55c0 0 .79.31.68.79 0 0 .36-.45.35-.64 0 0 2.08 1.45 2.42.16a1.11 1.11 0 0 1 .14-1.76zm4.28-4.73c.75-1.84-2.06-2.21-1.15 0-.07-2.09 1.27-1.09 1.17-.03zm-3.68-1.38c-.11 0-.1-.08 0-.08s.17.05.02.05zm-16-1.08c-.41.09-.32-.2-.32-.2-.58.13-.43-.16-.4-.3-.21.08-.48.28-.65.1a.83.83 0 0 0-.27 1 .86.86 0 0 0-.61.59c.4 0 .45.05.45.05a.57.57 0 0 0-.35.58 1.6 1.6 0 0 0 .56-.26c-.25.4 0 .63 0 .63.47 0 .7-.55.7-.55a1 1 0 0 0 .5.76c.29-.11.28-.77.28-.77.25.27.46.2.46.2a.55.55 0 0 0-.21-.55.63.63 0 0 0 .5 0 1.07 1.07 0 0 0-.5-1s.07-.19-.1-.31zm1.4 8.47s.22.14.51-.22c0 0 3 0 2.69-.44-1-.67 2.71-.57 2.24.24 0 0-.46 0-.55.2a.36.36 0 0 1 .45.4c.12-.14.56-.23.68.1 0-.18-.2-1.32-.65-1.44-.1.15-3.85-.24-1.64-.71.37 0 1.41 0 1.41-.36s-.84-.3-1-.3H49c-1.8-.22-.75-1.82 1-.85v-.24a1.51 1.51 0 0 0 1.31.39s-.55-.18-.24-.39c-.1.11-1.16.1-.86-.38-1.61-.3-3 .14-2.93.91.65 1.22 3.53.52 4.7.7.58 0 .56.24.06.24h-5.21c.12.15 0 .47 0 .47s-.41.13-.49 0c0 .9-.81.6-1 0 0 .31-.55.41-.55.41l.14.48c-1.24.56-1.83 0-1.83 0-.12-.49-.41-.43-.41-.43s.21.18.13.36c0 0-.38-.06-.48.12.28.2.44.16.44.16s0 .28-.44.41c0 0 .66.22.8-.39 1.8 1.18 3.86-1.65 6.86-1.09-1.91.44 1.51 1.19-1.74 1.19 0 0 0-.39-.34-.36 0 0 .24.3.09.39a.59.59 0 0 0-.46.05c.45.06.64.17.28.35zM44 45.07a2 2 0 0 1-.62-1.69s-.24.44-.53.13c0 0 .31.66-.43.55.94.25 1.11 1.36 1.87 1.58.04 0-.36-.3-.29-.57zm1.77-.69a.69.69 0 0 1-.26.49c0-.51-.31-.48-.46-.13-.17-.3.15-.61.15-.61.49.05.61.25.61.25zm-.54 4c.23.06.21.23.15.37s-.22-.17-.11-.39zm.49.48a.26.26 0 0 1 .41-.08c-.13.22-.37.06-.37.06zm3.76-4.49c.36.2 3.63-.49 3.79.49 0 .64-1 .71-1 .71.24.21.72.16 1.34.15s-.17.31-.17.31c.6.2.47.58.47.58.74 1-.26 1.15-.26 1.15 0-.73-.39-.23-.61-.11a.8.8 0 0 1-.04-.55c-.28-.07-.45.27-.45.27-.5-.78.43-.75.43-.75-.08-.6-.93-.41-1.85-.32 1.66 1.29-.39.85-.39.85.25 0 .31-.23-.05-.23-.2.69-.64.48-.78.26.67-.13-.38-.38-.27 0-.39 0-.62-.47-.53 0-.9-.6-1.11.71-1.77 0 .47 0 .41-.19.41-.19s-.22-.14-.64.11c-.17-.59.81-.54.81-.54a.85.85 0 0 0-.59-.15.68.68 0 0 1 1.23.08c.54-.14 1-.93.22-.93-.49 0-1.66.86-2.59.86-.74.62.07.72.3.44.06.59-.81.66-1.27.12h-.42c0 .17.29.2.29.2-.49.47-.72-.09-1.14-.16-.09.11.1.31.1.31-.44 0-.33-.44-.84-.43a.81.81 0 0 1-1.34 0c.23.16.62-.24.62-.24-.51.12-.35-.09-.7-.11.08-.53.83-.38.83-.38a.46.46 0 0 0-.52-.37c.31-.61 1.1-.15 1.15.48.4.24 1.47 0 1.4-.52-.25.32-.88.53-1.07-.32-.11 0-.15.23-.15.23-.35-.13-.27-.88-.27-.88-.18 0-.28.28-.28.28-.36-.24-.21-.8-.21-.8-.79.48-.78-.36-.78-.36a1.11 1.11 0 0 0 .85-.12 1.34 1.34 0 0 0-.91-.45c.53-.7 1.22 0 1.22 0 .16-.25-.13-.5-.13-.5 1.3-.58.37 1.86 1.15 1.68a.73.73 0 0 1 .55-.72.84.84 0 0 1 .62-1.08c0 .44.32-.23.76.06-.32.43.29.09.6.29 0 0-.27.05-.23.16s.53 0 .55.38a.19.19 0 0 0-.24 0 .89.89 0 0 1 .35.53c0-2.2 3.14-.95 3.54-1.45.15.14-.16.54-.16.54a1.14 1.14 0 0 0 1.14-.23c.17.28-.26.51-.26.51 1.52.27 1.2-.68.74-.34 1.06-1.2.89 1.56-1.77.63 0 .46-.74.55-.74.55zm-3.09 3.83c-.41.1-.32-.19-.32-.19-.58.12-.43-.17-.4-.31-.21.08-.48.29-.65.1a.85.85 0 0 0-.27 1 .84.84 0 0 0-.61.59h.45a.57.57 0 0 0-.35.58 1.6 1.6 0 0 0 .52-.17c-.25.41 0 .63 0 .63.47 0 .7-.54.7-.54a1 1 0 0 0 .5.75c.29-.11.28-.77.28-.77.25.28.46.2.46.2a.53.53 0 0 0-.21-.54.65.65 0 0 0 .5 0 1 1 0 0 0-.5-1s.11-.23-.06-.35zm1.4-1.07s.22.13.51-.23c0-.05 3 0 2.69-.44-1-.67 2.71-.56 2.24.25 0 0-.46 0-.55.2a.36.36 0 0 1 .45.4c.14-.12.57-.26.68.09 0-.17-.2-1.31-.65-1.43-.1.14-3.85-.24-1.64-.71.37 0 1.41 0 1.41-.37s-.84-.29-1-.29H49c-1.8-.23-.75-1.83 1-.85v-.25a1.48 1.48 0 0 0 1.31.39s-.57-.2-.24-.39c-.1.11-1.16.11-.86-.37-1.61-.3-3 .14-2.93.91.65 1.21 3.53.51 4.7.69.58 0 .56.25.06.25h-5.21c.12.15 0 .47 0 .47s-.41.13-.49 0c0 .89-.81.59-1 0 0 .3-.55.41-.55.41l.14.48c-1.24.55-1.83 0-1.83 0-.12-.48-.41-.42-.41-.42s.21.18.13.36c0 0-.38-.07-.48.12.28.2.44.16.44.16s0 .27-.44.41c0 0 .66.22.8-.4 1.76 1.17 3.85-1.66 6.85-1.1-1.88.43 1.45 1.18-1.74 1.19 0 0 0-.39-.34-.36 0 0 .24.3.09.39a.59.59 0 0 0-.46 0c.46.13.65.24.29.42zm11.63 12c.06-.14.08-.31-.15-.37-.07.24.19.36.19.36zm.34.11c.09-.13.23-.23.41-.08-.1.2-.37.07-.37.07zm.67-.66c-.41.09-.32-.2-.32-.2-.58.13-.43-.16-.4-.3-.21.08-.48.28-.65.1a.83.83 0 0 0-.27.95.86.86 0 0 0-.61.59h.45a.57.57 0 0 0-.35.58 1.6 1.6 0 0 0 .52-.17c-.25.4-.05.63-.05.63.47 0 .7-.55.7-.55A1 1 0 0 0 60 61c.29-.11.28-.77.28-.77.25.27.46.2.46.2a.55.55 0 0 0-.21-.55.63.63 0 0 0 .5 0 1.07 1.07 0 0 0-.5-1s.11-.19-.06-.31zm-2.39 1.66a2 2 0 0 1-.62-1.69s-.24.44-.53.13c0 0 .31.66-.43.55.94.25 1.11 1.36 1.87 1.58.04-.01-.33-.31-.25-.58zm1.77-.69a.69.69 0 0 1-.26.49c0-.51-.31-.48-.46-.13-.17-.3.15-.61.15-.61.49.04.61.24.61.24zm3.71 0c.36.2 3.63-.49 3.79.49 0 .64-1 .71-1 .71.24.21.72.16 1.34.15s-.17.31-.17.31c.6.2.47.58.47.58.74 1-.26 1.15-.26 1.15 0-.73-.39-.23-.61-.11a.8.8 0 0 1-.14-.53c-.28-.07-.45.27-.45.27-.5-.78.43-.75.43-.75-.08-.6-.93-.41-1.85-.32 1.66 1.29-.39.85-.39.85.25-.05.31-.23 0-.23-.2.69-.64.48-.78.26.67-.13-.38-.38-.27 0-.39 0-.62-.47-.53 0-.9-.6-1.11.71-1.77 0 .47 0 .41-.19.41-.19s-.22-.14-.64.11c-.17-.59.81-.54.81-.54a.85.85 0 0 0-.59-.15.68.68 0 0 1 1.23.08c.54-.14 1-.93.22-.93-.49 0-1.66.86-2.59.86-.74.62.07.72.3.44.06.59-.81.66-1.27.12h-.38c0 .17.29.2.29.2-.49.47-.72-.09-1.14-.16-.09.11.1.31.1.31-.44 0-.33-.44-.84-.43a.81.81 0 0 1-1.34 0c.23.16.62-.24.62-.24-.51.12-.35-.09-.7-.11.08-.53.83-.38.83-.38a.46.46 0 0 0-.52-.37c.31-.61 1.1-.15 1.15.48.4.24 1.47 0 1.4-.52-.25.32-.88.53-1.07-.32-.11 0-.15.23-.15.23-.35-.13-.27-.88-.27-.88-.18 0-.28.28-.28.28-.36-.24-.21-.8-.21-.8-.79.48-.78-.36-.78-.36a1.11 1.11 0 0 0 .85-.12 1.34 1.34 0 0 0-.91-.45c.53-.7 1.22 0 1.22 0 .16-.25-.13-.5-.13-.5 1.3-.58.37 1.86 1.15 1.68a.73.73 0 0 1 .55-.72.84.84 0 0 1 .62-1.08c0 .44.32-.23.76.06-.32.43.29.09.6.29 0 0-.27 0-.23.16s.53 0 .55.38a.19.19 0 0 0-.24 0 .89.89 0 0 1 .35.53c0-2.2 3.14-1 3.54-1.45.15.14-.16.54-.16.54a1.14 1.14 0 0 0 1.14-.23c.17.28-.26.51-.26.51 1.52.27 1.2-.68.74-.34 1.06-1.2.89 1.56-1.77.63.01.42-.73.51-.73.51zm-1.69 2.76s.22.13.51-.23c0 0 3 0 2.69-.44-1-.67 2.71-.56 2.24.25 0 0-.46 0-.55.2a.36.36 0 0 1 .45.4c.14-.12.57-.26.68.09 0-.17-.2-1.31-.65-1.43-.1.14-3.85-.24-1.64-.71.37 0 1.41 0 1.41-.37s-.84-.29-1-.29H63c-1.8-.23-.75-1.83 1-.85v-.25a1.48 1.48 0 0 0 1.31.39s-.56-.2-.24-.39c-.1.11-1.16.11-.86-.37-1.61-.3-3 .14-2.93.91.65 1.21 3.53.51 4.7.69.58 0 .56.25.06.25h-5.17c.12.15 0 .47 0 .47s-.41.13-.49 0c0 .89-.81.59-1 0 0 .3-.55.41-.55.41l.14.48c-1.24.55-1.83 0-1.83 0-.12-.48-.41-.42-.41-.42s.21.18.13.36c0 0-.38-.07-.48.12.28.2.44.16.44.16s0 .27-.44.41c0 0 .66.22.8-.4 1.76 1.17 3.85-1.66 6.85-1.1-1.88.43 1.45 1.18-1.74 1.19 0 0 0-.39-.34-.36 0 0 .24.3.09.39a.59.59 0 0 0-.46.05c.42.08.65.17.29.35zm-2.56 1.37c.23.07.21.23.15.37s-.22-.19-.11-.41zm.49.49c.09-.13.23-.23.41-.08-.1.16-.37.04-.37.04zm.67-.66c-.41.09-.32-.2-.32-.2-.58.12-.43-.16-.4-.31-.21.09-.48.29-.65.1a.85.85 0 0 0-.27 1 .84.84 0 0 0-.61.59h.45a.55.55 0 0 0-.35.57 1.6 1.6 0 0 0 .52-.17c-.25.41-.05.63-.05.63.47 0 .7-.54.7-.54a1 1 0 0 0 .5.76c.29-.12.28-.78.28-.78.25.28.46.2.46.2a.53.53 0 0 0-.21-.54.65.65 0 0 0 .5 0 1.05 1.05 0 0 0-.5-1s.16-.23-.01-.35zm-2.39 1.66a2 2 0 0 1-.62-1.69s-.24.43-.53.13c0 0 .31.65-.43.54.94.26 1.11 1.36 1.87 1.59.04-.04-.33-.35-.25-.61zm1.77-.7a.72.72 0 0 1-.26.5c0-.51-.31-.49-.46-.14-.17-.29.15-.6.15-.6.49 0 .61.2.61.2zm8 2.42a1.29 1.29 0 0 0-.59-.84c-.1.14-3.85-.24-1.64-.71.37 0 1.41 0 1.41-.37s-.84-.29-1-.29H63c-1.8-.23-.75-1.83 1-.86v-.24a1.51 1.51 0 0 0 1.31.39s-.6-.19-.24-.39c-.1.11-1.16.11-.86-.37-1.61-.31-3 .13-2.93.91.65 1.21 3.53.51 4.7.69.58 0 .56.24.06.24h-5.17c.12.15 0 .48 0 .48s-.41.13-.49 0c0 .9-.81.6-1 0 0 .31-.55.42-.55.42l.14.48c-1.24.55-1.83 0-1.83 0-.12-.49-.41-.42-.41-.42s.21.17.13.36c0 0-.38-.07-.48.12.28.2.44.16.44.16s0 .27-.44.41c0 0 .66.21.8-.4 1.82 1.15 3.89-1.66 6.89-1.12-1.88.43 1.45 1.19-1.74 1.19 0 0 0-.38-.34-.35 0 0 .24.29.09.38a.59.59 0 0 0-.46 0c.42.07.61.18.25.35 0 0 .22.14.51-.22 0 0 3 0 2.69-.44-1-.67 2.71-.56 2.24.24 0 0-.46 0-.55.2a.38.38 0 0 1 .45.41s.33-.23.48-.11c.05-.08.1-.19.14-.34zm-8.52 1.69c.23.06.21.23.15.37s-.24-.19-.13-.41zm.49.48c.09-.13.23-.23.41-.08-.12.17-.39.02-.39.02zm.67-.66c-.41.1-.32-.2-.32-.2-.58.13-.43-.16-.4-.3-.21.08-.48.28-.65.1a.83.83 0 0 0-.27 1 .86.86 0 0 0-.61.59h.45a.57.57 0 0 0-.35.58 1.6 1.6 0 0 0 .52-.17c-.25.41-.05.63-.05.63.47 0 .7-.55.7-.55a1 1 0 0 0 .5.76c.29-.11.28-.77.28-.77.25.27.46.2.46.2a.55.55 0 0 0-.21-.55.63.63 0 0 0 .5 0 1.07 1.07 0 0 0-.5-1s.14-.24-.03-.36zM58.08 70a2 2 0 0 1-.62-1.69s-.24.44-.53.13c0 0 .31.66-.43.55.94.26 1.11 1.36 1.87 1.58 0 .02-.37-.28-.29-.57zm1.77-.69a.69.69 0 0 1-.26.49c0-.5-.31-.48-.46-.13-.17-.29.15-.61.15-.61.45.07.57.27.57.27zm9-11.94H55.09v17.77a28.19 28.19 0 0 0 8.44-3c-.26-.12-.52-.41-.42 0-.9-.6-1.11.72-1.77 0 .47 0 .41-.2.41-.2s-.22-.14-.64.11c-.17-.59.81-.54.81-.54a.85.85 0 0 0-.59-.15.68.68 0 0 1 1.23.08c.54-.14 1-.93.22-.93-.49 0-1.66.86-2.59.86-.74.62.07.72.3.44.06.59-.81.66-1.27.12h-.38c0 .17.29.21.29.21-.49.46-.72-.09-1.14-.17-.09.11.1.31.1.31-.44 0-.33-.44-.84-.43a.81.81 0 0 1-1.34 0c.23.16.62-.24.62-.24-.51.12-.35-.09-.7-.1.08-.54.83-.39.83-.39a.46.46 0 0 0-.52-.37c.31-.61 1.1-.15 1.15.48.4.24 1.47 0 1.4-.51-.25.31-.88.52-1.07-.33-.11 0-.15.23-.15.23-.35-.12-.27-.88-.27-.88-.18 0-.28.28-.28.28-.36-.24-.21-.8-.21-.8-.79.48-.78-.36-.78-.36a1.11 1.11 0 0 0 .85-.12 1.31 1.31 0 0 0-.91-.44c.53-.71 1.22 0 1.22 0 .16-.25-.13-.5-.13-.5 1.3-.57.37 1.86 1.15 1.68a.73.73 0 0 1 .55-.72.84.84 0 0 1 .62-1.08c0 .44.32-.23.76.06-.32.44.29.09.6.29 0 0-.27.05-.23.16s.53 0 .55.38a.21.21 0 0 0-.24 0 .89.89 0 0 1 .35.53c0-2.2 3.14-1 3.54-1.44.15.14-.16.53-.16.53a1.14 1.14 0 0 0 1.14-.19c.17.28-.26.51-.26.51 1.52.27 1.2-.67.74-.34 1.06-1.2.89 1.56-1.77.63 0 .37-.74.46-.74.46h3.06a10.4 10.4 0 0 0 1-1.84l-.47.22a.77.77 0 0 1-.14-.52c-.28-.08-.45.26-.45.26-.5-.77.43-.74.43-.74-.08-.6-.93-.42-1.85-.33 1.66 1.3-.39.85-.39.85.25 0 .31-.23 0-.23-.2.69-.64.49-.78.27.67-.13-.38-.38-.27 0-.39 0-.62-.46-.53 0-.9-.61-1.11.71-1.77 0 .47 0 .41-.19.41-.19s-.22-.15-.64.1c-.17-.59.81-.53.81-.53-.18-.2-.59-.15-.59-.15a.68.68 0 0 1 1.23.07c.54-.13 1-.92.22-.92-.49 0-1.66.86-2.59.86-.74.62.07.72.3.43.06.6-.81.66-1.27.12h-.38c0 .17.29.21.29.21-.49.47-.72-.09-1.14-.17-.09.12.1.31.1.31-.44 0-.33-.43-.84-.42a.81.81 0 0 1-1.34 0c.23.15.62-.24.62-.24-.51.12-.35-.09-.7-.11.08-.53.83-.38.83-.38-.15-.46-.52-.38-.52-.38.31-.6 1.1-.15 1.15.49.4.24 1.47 0 1.4-.52-.25.31-.88.53-1.07-.33-.11 0-.15.23-.15.23-.35-.12-.27-.88-.27-.88-.18 0-.28.28-.28.28-.36-.24-.21-.79-.21-.79-.79.48-.78-.37-.78-.37a1.07 1.07 0 0 0 .85-.12 1.31 1.31 0 0 0-.91-.44c.53-.71 1.22 0 1.22 0 .16-.25-.13-.51-.13-.51 1.3-.57.37 1.87 1.15 1.69a.74.74 0 0 1 .55-.73.84.84 0 0 1 .62-1.08c0 .45.32-.22.76.06-.32.44.29.1.6.29 0 0-.27 0-.23.17s.53 0 .55.38a.19.19 0 0 0-.24 0 .85.85 0 0 1 .35.53c0-2.2 3.14-1 3.54-1.45.15.14-.16.54-.16.54a1.14 1.14 0 0 0 1.14-.23c.17.28-.26.51-.26.51 1.52.26 1.2-.68.74-.35 1.06-1.19.89 1.56-1.77.64 0 .37-.74.46-.74.46.36.19 3.63-.49 3.79.49 0 .63-1 .7-1 .7.24.21.72.17 1.34.15s-.17.31-.17.31a1 1 0 0 1 .45.31 30 30 0 0 0 .86-9m-3.51 13.53c-.86-.21-.35-.73.56-.59a3 3 0 0 0 .23-.27h-5.3c.12.15 0 .47 0 .47s-.41.13-.49 0c0 .9-.81.59-1 0 0 .3-.55.41-.55.41l.14.48c-1.24.56-1.83 0-1.83 0-.12-.48-.41-.42-.41-.42s.21.18.13.36c0 0-.38-.07-.48.12.28.2.44.16.44.16s0 .28-.44.41c0 0 .66.22.8-.4 1.76 1.17 3.85-1.66 6.85-1.1-1.88.43 1.45 1.18-1.74 1.19 0 0 0-.39-.34-.36 0 0 .24.3.09.39a.59.59 0 0 0-.46 0c.42.06.61.17.25.35 0 0 .22.13.51-.23 0 0 1.22 0 1.82-.1a9.31 9.31 0 0 0 1.22-.87zm1.09-1.24H63c-1.8-.23-.75-1.83 1-.85v-.24a1.49 1.49 0 0 0 1.31.38s-.62-.16-.24-.38c-.1.11-1.16.1-.86-.38-2.8-.68-4.17 1.56-1.25 1.6h3.32a1.34 1.34 0 0 0 .19-.13zM44 49.85a2 2 0 0 1-.62-1.7s-.24.44-.53.14c0 0 .31.65-.43.54.94.26 1.11 1.36 1.87 1.58.04 0-.36-.3-.29-.56zm1.77-.7a.69.69 0 0 1-.26.49c0-.5-.31-.48-.46-.13-.17-.29.15-.6.15-.6.49.09.61.24.61.24zm7.25 7.93c-.15-.3-.1-.43-.1-.43-.28-.08-.45.26-.45.26-.5-.77.43-.74.43-.74-.08-.6-.93-.42-1.85-.33 1.66 1.3-.39.85-.39.85.25 0 .31-.23-.05-.23-.2.69-.64.49-.78.27.67-.13-.38-.38-.27 0-.39 0-.62-.46-.53 0-.9-.61-1.11.71-1.77 0 .47 0 .41-.19.41-.19s-.22-.15-.64.1c-.17-.58.81-.53.81-.53-.18-.2-.59-.15-.59-.15a.68.68 0 0 1 1.23.07c.54-.13 1-.92.22-.92-.49 0-1.66.86-2.59.86-.74.62.07.72.3.43.06.6-.81.66-1.27.12h-.37c0 .16.28.18.28.18-.23.22-.38.22-.54.15a1.51 1.51 0 0 1-.12.2zm-8.52-3.65h.12a.84.84 0 0 1 .62-1.08c0 .45.32-.22.76.06-.32.44.29.1.6.29 0 0-.27.05-.23.17s.53 0 .55.38a.19.19 0 0 0-.24 0 .85.85 0 0 1 .35.53c0-2.2 3.14-1 3.54-1.45.15.14-.16.54-.16.54a1.14 1.14 0 0 0 1.14-.23c.17.28-.26.51-.26.51 1.52.26 1.2-.68.74-.35 1.06-1.19.89 1.56-1.77.64 0 .37-.74.46-.74.46.36.19 3.63-.49 3.79.49 0 .63-1 .7-1 .7.24.22.72.17 1.34.15s-.17.31-.17.31c.6.21.47.58.47.58.39.52.33.79.16.95h.59V42.32H40.83v9.49s1.63 0 1.66-.36c-.51.12-.35-.1-.7-.11.08-.53.83-.39.83-.39a.46.46 0 0 0-.52-.37c.31-.61 1.1-.15 1.15.49.4.23 1.47 0 1.4-.52-.25.31-.88.52-1.07-.33-.11 0-.15.23-.15.23-.35-.12-.27-.88-.27-.88-.18 0-.28.28-.28.28-.36-.24-.21-.79-.21-.79-.79.48-.78-.37-.78-.37a1.11 1.11 0 0 0 .85-.12 1.31 1.31 0 0 0-.91-.44c.53-.71 1.22 0 1.22 0 .16-.26-.13-.51-.13-.51 1.3-.57.37 1.87 1.15 1.68a.73.73 0 0 1 .55-.72.84.84 0 0 1 .62-1.08c0 .44.32-.23.76.06-.32.44.29.09.6.29 0 0-.27 0-.23.16s.53 0 .55.38a.21.21 0 0 0-.24 0A.89.89 0 0 1 47 49c0-2.2 3.14-1 3.54-1.44.15.14-.16.53-.16.53a1.12 1.12 0 0 0 1.14-.23c.17.28-.26.51-.26.51 1.52.27 1.2-.67.74-.34 1.06-1.19.89 1.56-1.77.64 0 .37-.74.46-.74.46.36.19 3.63-.5 3.79.49 0 .63-1 .7-1 .7.24.21.72.16 1.34.15s-.17.31-.17.31c.6.21.47.58.47.58.74 1-.26 1.15-.26 1.15 0-.73-.39-.23-.61-.11a.77.77 0 0 1-.14-.52c-.28-.08-.45.26-.45.26-.5-.77.43-.75.43-.75-.08-.6-.93-.41-1.85-.32 1.66 1.3-.39.85-.39.85.25-.05.31-.23-.05-.23-.2.69-.64.48-.78.27.67-.14-.38-.38-.27 0-.39 0-.62-.46-.53 0-.9-.61-1.11.71-1.77 0 .47 0 .41-.2.41-.2s-.22-.14-.64.11c-.17-.59.81-.54.81-.54-.18-.19-.59-.14-.59-.14a.68.68 0 0 1 1.23.07c.54-.13 1-.92.22-.92-.49 0-1.66.85-2.59.85-.74.63.07.72.3.44.06.59-.81.66-1.27.12h-.33c0 .17.29.21.29.21-.49.46-.72-.09-1.14-.17-.09.12.1.31.1.31-.44 0-.33-.44-.84-.42a1.2 1.2 0 0 1-.38.32.53.53 0 0 1 .25.3 1.89 1.89 0 0 1 1.39 1.13m.21 3c1.81-.25 2.38-1.77 5.35-1.35 0 0-.73.16-.64.48s.77.29.45.57a1.81 1.81 0 0 1-1.55.14s0-.38-.34-.35c0 0 .24.29.09.38a.59.59 0 0 0-.46 0c.42.07.61.18.25.35a.5.5 0 0 0 .6-.21s2.89 0 2.6-.45c-1-.67 2.71-.56 2.24.24 0 0-.46 0-.55.2a.38.38 0 0 1 .45.41c.14-.13.58-.26.68.09 0-.17-.2-1.32-.65-1.43-.1.14-3.85-.24-1.64-.71.37 0 1.41 0 1.41-.37s-.84-.29-1-.29H49c-1.8-.23-.75-1.83 1-.86V53a1.51 1.51 0 0 0 1.31.39s-.59-.2-.24-.39c-.1.11-1.16.11-.86-.37-1.61-.31-3 .13-2.93.91.65 1.21 3.53.51 4.7.69.58 0 .56.24.06.24h-5.21c.12.15 0 .48 0 .48s-.41.13-.49 0c0 .9-.81.6-1 0 0 .31-.55.42-.55.42l.14.48c-.13.05-.24.1-.35.13a1.26 1.26 0 0 1 .1.4zm.59-3.25c.23.07.21.23.15.37s-.26-.2-.15-.42zm.49.49c.09-.13.23-.23.41-.08-.17.15-.41.03-.41.03zm.67-.66c-.41.09-.32-.2-.32-.2-.58.12-.43-.16-.4-.31-.21.09-.48.29-.65.11a.83.83 0 0 0-.27.95.84.84 0 0 0-.61.59h.45a.55.55 0 0 0-.35.57 1.6 1.6 0 0 0 .52-.17c-.25.41 0 .63 0 .63.47 0 .7-.54.7-.54a1 1 0 0 0 .5.76c.29-.12.28-.78.28-.78.25.28.46.2.46.2a.53.53 0 0 0-.21-.54.65.65 0 0 0 .5 0 1.05 1.05 0 0 0-.5-1s.07-.2-.1-.28zm-2.34 2.15c.08.06.14 0 .24.08s-.4-.31-.29-.57a.92.92 0 0 1-.29-.32c-.15.05-.55.19-.57.21a2.05 2.05 0 0 1 .91.55zm1.72-1.19a.72.72 0 0 1-.26.5c0-.51-.31-.49-.46-.14-.17-.29.15-.6.15-.6.45-.01.57.19.57.19z" transform="translate(-.57)" style="fill-rule:evenodd;fill:#582a5b"/><path class="cls-2" d="M121.52 69.43h323.1v2.23h-323.1z"/><path class="cls-2" d="M124.53 1v18.88h-2.44V1zM127.07 10c0-1.4 0-2.55-.11-3.67h2l.14 2.24A4.64 4.64 0 0 1 133.41 6c1.76 0 4.5 1.12 4.5 5.77v8.09h-2.32v-7.79c0-2.19-.76-4-2.94-4a3.33 3.33 0 0 0-3.11 2.52 3.63 3.63 0 0 0-.16 1.15v8.15h-2.31zM151.16 0v16.38c0 1.2 0 2.58.1 3.5h-1.84l-.09-2.35h-.05a4.13 4.13 0 0 1-3.83 2.66c-2.72 0-4.81-2.77-4.81-6.89 0-4.51 2.3-7.28 5-7.28a3.64 3.64 0 0 1 3.39 2.07h.05V0zm-2 11.84a5.21 5.21 0 0 0-.1-1 3.2 3.2 0 0 0-3-2.86c-2.11 0-3.37 2.24-3.37 5.24 0 2.74 1.12 5 3.33 5 1.37 0 2.62-1.09 3-2.94a5.09 5.09 0 0 0 .1-1.06zM164.05 16.18c0 1.4 0 2.63.11 3.7h-2l-.16-2.21a4.71 4.71 0 0 1-4.17 2.52c-2 0-4.35-1.18-4.35-5.94V6.33h2.29v7.5c0 2.58.73 4.31 2.81 4.31a3.31 3.31 0 0 0 3-2.24 3.82 3.82 0 0 0 .21-1.26V6.33h2.29zM166.25 17.36a6.44 6.44 0 0 0 3.25 1c1.79 0 2.63-.9 2.63-2s-.7-1.82-2.52-2.49C167.18 13 166 11.62 166 10c0-2.19 1.76-4 4.68-4a6.75 6.75 0 0 1 3.33.84l-.62 1.79a5.32 5.32 0 0 0-2.77-.78c-1.46 0-2.27.84-2.27 1.85s.81 1.62 2.58 2.29c2.35.9 3.55 2.07 3.55 4.09 0 2.38-1.84 4.06-5.06 4.06a7.71 7.71 0 0 1-3.81-.92zM180.06 2.44v3.89h3.53V8.2h-3.53v7.31c0 1.68.47 2.63 1.85 2.63a5.64 5.64 0 0 0 1.42-.16l.12 1.84a6 6 0 0 1-2.19.34 3.39 3.39 0 0 1-2.66-1 5 5 0 0 1-.95-3.52V8.2h-2.1V6.33h2.1V3.08zM184.85 10.56c0-1.6 0-3-.12-4.23h2.16L187 9h.12a4.06 4.06 0 0 1 3.75-3 3 3 0 0 1 .7.08v2.35a3.38 3.38 0 0 0-4.15 3.08 7.61 7.61 0 0 0-.11 1.15v7.22h-2.43zM195.35 2.52a1.53 1.53 0 0 1-3.06 0A1.5 1.5 0 0 1 193.83 1a1.46 1.46 0 0 1 1.52 1.52zm-2.75 17.36V6.33h2.47v13.55zM205.85 19.88l-.2-1.71h-.08a5.05 5.05 0 0 1-4.15 2 3.86 3.86 0 0 1-4.14-3.89c0-3.28 2.91-5.07 8.15-5V11a2.8 2.8 0 0 0-3.08-3.14 6.72 6.72 0 0 0-3.53 1l-.56-1.63A8.47 8.47 0 0 1 202.71 6c4.14 0 5.15 2.83 5.15 5.54v5.07a18.8 18.8 0 0 0 .23 3.25zm-.37-6.88c-2.69-.05-5.74.42-5.74 3.06a2.19 2.19 0 0 0 2.33 2.35 3.36 3.36 0 0 0 3.27-2.27 2.39 2.39 0 0 0 .14-.79zM211.08 0h2.47v19.88h-2.47zM226.38 3.08h-4.88V1h11.88v2.08h-4.91v16.8h-2.09z" transform="translate(-.57)"/><path class="cls-2" d="M232.4 10.56c0-1.6 0-3-.11-4.23h2.15l.09 2.67h.11a4.06 4.06 0 0 1 3.75-3 2.93 2.93 0 0 1 .7.08v2.35a3.37 3.37 0 0 0-4.09 3.08 6.45 6.45 0 0 0-.12 1.15v7.22h-2.48zM242.9 2.52a1.53 1.53 0 0 1-3.05 0A1.5 1.5 0 0 1 241.39 1a1.46 1.46 0 0 1 1.51 1.52zm-2.75 17.36V6.33h2.47v13.55zM245 19.88c.06-.92.11-2.3.11-3.5V0h2.31v8.51h.06A4.74 4.74 0 0 1 251.85 6c3.19 0 5.45 2.8 5.42 6.92 0 4.84-2.9 7.25-5.77 7.25a4.56 4.56 0 0 1-4.31-2.55h-.08l-.1 2.24zm2.42-5.43a5 5 0 0 0 .11.89 3.65 3.65 0 0 0 3.47 2.89c2.45 0 3.91-2.1 3.91-5.21 0-2.72-1.33-5-3.83-5a3.78 3.78 0 0 0-3.56 3 4.64 4.64 0 0 0-.14 1zM269.14 16.18c0 1.4 0 2.63.1 3.7h-2l-.13-2.21h-.05a4.61 4.61 0 0 1-4.06 2.52c-1.93 0-4.25-1.18-4.25-5.94V6.33H261v7.5c0 2.58.71 4.31 2.75 4.31a3.27 3.27 0 0 0 3-2.24 3.83 3.83 0 0 0 .2-1.26V6.33h2.25zM271.48 10c0-1.4 0-2.55-.1-3.67h2l.13 2.24h.05A4.49 4.49 0 0 1 277.62 6c1.71 0 4.36 1.12 4.36 5.77v8.09h-2.25v-7.79c0-2.19-.74-4-2.85-4a3.26 3.26 0 0 0-3 2.52 4 4 0 0 0-.15 1.15v8.15h-2.24zM291.93 19.88l-.2-1.71h-.08a5 5 0 0 1-4.14 2 3.86 3.86 0 0 1-4.15-3.89c0-3.28 2.91-5.07 8.15-5V11a2.8 2.8 0 0 0-3.08-3.14 6.72 6.72 0 0 0-3.53 1l-.56-1.63A8.51 8.51 0 0 1 288.8 6c4.14 0 5.15 2.83 5.15 5.54v5.07a18.87 18.87 0 0 0 .22 3.25zm-.36-6.88c-2.69-.05-5.74.42-5.74 3.06a2.18 2.18 0 0 0 2.32 2.35 3.37 3.37 0 0 0 3.28-2.27 2.68 2.68 0 0 0 .14-.79zM298 0h2.46v19.88H298zM302.74 17.36a6.41 6.41 0 0 0 3.25 1c1.79 0 2.63-.9 2.63-2s-.7-1.82-2.52-2.49c-2.44-.87-3.59-2.21-3.59-3.83 0-2.19 1.77-4 4.68-4a6.72 6.72 0 0 1 3.33.84l-.61 1.79a5.39 5.39 0 0 0-2.78-.78c-1.45 0-2.26.84-2.26 1.85s.81 1.62 2.57 2.29c2.35.9 3.56 2.07 3.56 4.09 0 2.38-1.85 4.06-5.07 4.06a7.74 7.74 0 0 1-3.81-.92zM328.64 19.88l-.2-1.71h-.08a5 5 0 0 1-4.15 2 3.86 3.86 0 0 1-4.14-3.89c0-3.28 2.91-5.07 8.15-5V11a2.8 2.8 0 0 0-3.08-3.14 6.72 6.72 0 0 0-3.53 1l-.56-1.63A8.47 8.47 0 0 1 325.5 6c4.15 0 5.15 2.83 5.15 5.54v5.07a18.8 18.8 0 0 0 .23 3.25zm-.37-6.88c-2.68-.05-5.74.42-5.74 3.06a2.19 2.19 0 0 0 2.33 2.35 3.36 3.36 0 0 0 3.27-2.27 2.39 2.39 0 0 0 .14-.79zM333.61 10c0-1.4 0-2.55-.11-3.67h2l.13 2.24h.05A4.49 4.49 0 0 1 339.75 6c1.71 0 4.35 1.12 4.35 5.77v8.09h-2.24v-7.79c0-2.19-.74-4-2.85-4a3.25 3.25 0 0 0-3 2.52 4 4 0 0 0-.15 1.15v8.15h-2.24zM356.74 0v16.38c0 1.2 0 2.58.09 3.5H355l-.09-2.35a4.13 4.13 0 0 1-3.91 2.66c-2.72 0-4.81-2.77-4.81-6.89 0-4.51 2.3-7.28 5-7.28a3.66 3.66 0 0 1 3.4 2.07V0zm-2.05 11.84a5.19 5.19 0 0 0-.09-1 3.21 3.21 0 0 0-3-2.86c-2.12 0-3.37 2.24-3.37 5.24 0 2.74 1.11 5 3.32 5a3.26 3.26 0 0 0 3-2.94 5.11 5.11 0 0 0 .09-1.06zM369.69 2.44v3.89h3.53V8.2h-3.53v7.31c0 1.68.48 2.63 1.85 2.63A5.8 5.8 0 0 0 373 18l.11 1.84a6 6 0 0 1-2.19.34 3.4 3.4 0 0 1-2.66-1 5 5 0 0 1-1-3.52V8.2h-2.1V6.33h2.1V3.08zM374.15 0h2.07v8.46a4.24 4.24 0 0 1 1.48-1.74 3.76 3.76 0 0 1 2.12-.7c1.52 0 4 1.12 4 5.79v8.07h-2.07V12.1c0-2.19-.68-4-2.63-4a3.11 3.11 0 0 0-2.78 2.47 3.41 3.41 0 0 0-.14 1.17v8.18h-2.07zM388.5 13.55c.06 3.33 2.19 4.71 4.65 4.71a8.9 8.9 0 0 0 3.75-.7l.42 1.76a11 11 0 0 1-4.5.84c-4.18 0-6.67-2.74-6.67-6.83S388.56 6 392.51 6c4.42 0 5.6 3.89 5.6 6.38a8.6 8.6 0 0 1-.09 1.15zm7.23-1.76c0-1.57-.65-4-3.42-4-2.49 0-3.58 2.3-3.78 4zM122.09 36h10.17v2h-7.73v6.27h7.14v2h-7.14v8.54h-2.44zM140.38 54.88l-.2-1.71h-.08a5.05 5.05 0 0 1-4.15 2 3.86 3.86 0 0 1-4.14-3.89c0-3.28 2.91-5.07 8.15-5V46a2.8 2.8 0 0 0-3.08-3.14 6.72 6.72 0 0 0-3.53 1l-.56-1.63a8.47 8.47 0 0 1 4.45-1.2c4.14 0 5.15 2.83 5.15 5.54v5.07a18.8 18.8 0 0 0 .23 3.25zM140 48c-2.69-.05-5.74.42-5.74 3.06a2.19 2.19 0 0 0 2.33 2.35 3.36 3.36 0 0 0 3.27-2.27 2.39 2.39 0 0 0 .14-.79zM148.13 37.52a1.53 1.53 0 0 1-3 0 1.5 1.5 0 0 1 1.49-1.52 1.46 1.46 0 0 1 1.51 1.52zm-2.74 17.36V41.33h2.46v13.55zM151.44 45.56c0-1.6 0-3-.12-4.23h2.16l.08 2.66h.12a4.06 4.06 0 0 1 3.75-3 3 3 0 0 1 .7.08v2.33a3.38 3.38 0 0 0-4.13 3.11 7.61 7.61 0 0 0-.11 1.15v7.22h-2.43zM174.93 46h-7.34v6.81h8.18v2h-10.61V36h10.19v2h-7.76v6h7.34zM177.61 45c0-1.4 0-2.55-.1-3.67h1.94l.1 2.18h.07a4.18 4.18 0 0 1 3.84-2.51 3.65 3.65 0 0 1 3.45 2.72h.09a5.53 5.53 0 0 1 1.32-1.72 3.93 3.93 0 0 1 2.68-1c1.61 0 4 1.18 4 5.88v8h-2.17v-7.67c0-2.61-.86-4.17-2.65-4.17a2.93 2.93 0 0 0-2.62 2.24 4.43 4.43 0 0 0-.18 1.23v8.37h-2.17v-8.12c0-2.16-.85-3.72-2.54-3.72A3.12 3.12 0 0 0 180 45.5a3.87 3.87 0 0 0-.18 1.2v8.18h-2.16zM197.65 45.75c0-1.73-.05-3.13-.11-4.42h2.06l.11 2.32a4.89 4.89 0 0 1 4.53-2.65c3 0 5.34 2.77 5.34 6.89 0 4.87-2.76 7.28-5.73 7.28a4.34 4.34 0 0 1-3.85-2.11h-.06v7.36h-2.26zm2.26 3.61a6.12 6.12 0 0 0 .11 1 3.6 3.6 0 0 0 3.44 2.89c2.42 0 3.83-2.13 3.83-5.24 0-2.72-1.33-5-3.75-5a3.72 3.72 0 0 0-3.47 2.99 4.18 4.18 0 0 0-.16 1zM211.2 35h2.47v19.88h-2.47zM228 48c0 5-3.23 7.2-6.28 7.2-3.41 0-6-2.69-6-7 0-4.54 2.76-7.2 6.25-7.2s6.03 2.85 6.03 7zm-10 .14c0 3 1.59 5.21 3.83 5.21s3.83-2.21 3.83-5.26c0-2.3-1.07-5.21-3.78-5.21S218 45.56 218 48.13zM230.38 41.33l2.82 8c.29.89.61 2 .83 2.77h.05c.24-.81.51-1.85.82-2.83l2.56-8h2.47L236.42 51c-1.68 4.65-2.82 7-4.41 8.48a6.19 6.19 0 0 1-2.88 1.6l-.58-2.08a6.28 6.28 0 0 0 2-1.21 7.47 7.47 0 0 0 2-2.74 1.77 1.77 0 0 0 .19-.59 2.17 2.17 0 0 0-.16-.65l-4.76-12.48zM240.52 45c0-1.4 0-2.55-.1-3.67h1.94l.1 2.18h.08a4.16 4.16 0 0 1 3.83-2.51 3.65 3.65 0 0 1 3.45 2.72h.05a5.41 5.41 0 0 1 1.37-1.72 3.9 3.9 0 0 1 2.69-.95c1.62 0 4 1.18 4 5.88v8h-2.17v-7.72c0-2.61-.85-4.17-2.64-4.17a3 3 0 0 0-2.63 2.24 4.45 4.45 0 0 0-.17 1.23v8.37h-2.17v-8.12c0-2.16-.86-3.72-2.55-3.72a3.12 3.12 0 0 0-2.74 2.46 3.59 3.59 0 0 0-.18 1.2v8.18h-2.17zM261.75 48.55c.06 3.33 2.19 4.71 4.65 4.71a8.9 8.9 0 0 0 3.75-.7l.42 1.76a11 11 0 0 1-4.5.84c-4.18 0-6.67-2.74-6.67-6.83s2.41-7.33 6.36-7.33c4.42 0 5.6 3.89 5.6 6.38a8.6 8.6 0 0 1-.09 1.15zm7.25-1.76c0-1.57-.65-4-3.42-4-2.49 0-3.58 2.3-3.78 4zM272.71 45c0-1.4 0-2.55-.1-3.67h2l.13 2.24a4.49 4.49 0 0 1 4.11-2.57c1.71 0 4.36 1.12 4.36 5.77v8.09H281v-7.79c0-2.19-.74-4-2.85-4a3.25 3.25 0 0 0-3 2.52 4 4 0 0 0-.15 1.15v8.15h-2.25zM288.63 37.44v3.89h3.53v1.87h-3.53v7.31c0 1.68.48 2.63 1.85 2.63a5.8 5.8 0 0 0 1.43-.16l.11 1.84a5.93 5.93 0 0 1-2.18.34 3.38 3.38 0 0 1-2.66-1 5 5 0 0 1-1-3.52V43.2h-2.1v-1.87h2.1v-3.25zM301.83 38.08H297V36h11.88v2.07h-4.9v16.8h-2.1z" transform="translate(-.57)"/><path class="cls-2" d="M307.85 45.56c0-1.6 0-3-.11-4.23h2.15L310 44h.11a4.06 4.06 0 0 1 3.75-3 2.93 2.93 0 0 1 .7.08v2.33a3.37 3.37 0 0 0-4.14 3.08 6.45 6.45 0 0 0-.12 1.15v7.22h-2.43zM318.35 37.52a1.53 1.53 0 0 1-3.05 0 1.5 1.5 0 0 1 1.54-1.52 1.46 1.46 0 0 1 1.51 1.52zm-2.75 17.36V41.33h2.47v13.55zM320.43 54.88c.06-.92.11-2.3.11-3.5V35h2.32v8.51h.05A4.74 4.74 0 0 1 327.3 41c3.19 0 5.45 2.8 5.42 6.92 0 4.84-2.9 7.25-5.77 7.25a4.56 4.56 0 0 1-4.31-2.55h-.08l-.1 2.24zm2.43-5.43a5 5 0 0 0 .1.89 3.65 3.65 0 0 0 3.51 2.89c2.45 0 3.91-2.1 3.91-5.21 0-2.72-1.33-5-3.83-5A3.78 3.78 0 0 0 323 46a4.69 4.69 0 0 0-.13 1zM344.59 51.18c0 1.4 0 2.63.1 3.7h-2l-.13-2.21h-.05a4.6 4.6 0 0 1-4.08 2.52c-1.93 0-4.25-1.18-4.25-5.94v-7.92h2.24v7.5c0 2.58.71 4.31 2.75 4.31a3.27 3.27 0 0 0 3-2.24 3.83 3.83 0 0 0 .2-1.26v-8.31h2.25zM346.93 45c0-1.4 0-2.55-.1-3.67h2l.13 2.24h.04a4.49 4.49 0 0 1 4.07-2.57c1.71 0 4.36 1.12 4.36 5.77v8.09h-2.25v-7.79c0-2.19-.73-4-2.85-4a3.26 3.26 0 0 0-3 2.52 4 4 0 0 0-.15 1.15v8.15h-2.24zM367.38 54.88l-.2-1.71h-.08a5 5 0 0 1-4.14 2 3.86 3.86 0 0 1-4.15-3.89c0-3.28 2.91-5.07 8.15-5V46a2.8 2.8 0 0 0-3.08-3.14 6.72 6.72 0 0 0-3.53 1l-.56-1.63a8.51 8.51 0 0 1 4.46-1.2c4.14 0 5.15 2.83 5.15 5.54v5.07a18.87 18.87 0 0 0 .22 3.25zM367 48c-2.69-.05-5.74.42-5.74 3.06a2.18 2.18 0 0 0 2.32 2.35 3.37 3.37 0 0 0 3.28-2.27 2.68 2.68 0 0 0 .14-.79zM373.43 35h2.46v19.88h-2.46zM122.21 95.62V83.48h1.55l3.54 6.14a34.56 34.56 0 0 1 2 3.94c-.13-1.62-.16-3.1-.16-5v-5.08h1.34v12.14h-1.44l-3.5-6.16a40.87 40.87 0 0 1-2.07-4c.08 1.53.11 3 .11 5v5.19zM139.57 91.19c0 3.22-2 4.62-3.95 4.62-2.14 0-3.8-1.72-3.8-4.48 0-2.92 1.74-4.63 3.93-4.63s3.82 1.82 3.82 4.49zm-6.29.09c0 1.91 1 3.35 2.41 3.35s2.4-1.43 2.4-3.39c0-1.47-.67-3.35-2.37-3.35s-2.44 1.73-2.44 3.39zM140.85 89.62c0-1 0-1.91-.07-2.72H142l.05 1.71h.07a2.43 2.43 0 0 1 2.19-1.91 1.31 1.31 0 0 1 .41.06v1.49a2.31 2.31 0 0 0-.49 0c-1 0-1.74.84-1.93 2a4.14 4.14 0 0 0-.07.74v4.65h-1.42zM148 84.4v2.5h2v1.21h-2v4.7c0 1.08.28 1.69 1.08 1.69a2.74 2.74 0 0 0 .84-.11l.06 1.19a3.11 3.11 0 0 1-1.27.22 1.92 1.92 0 0 1-1.56-.67 3.46 3.46 0 0 1-.56-2.27v-4.75h-1.22V86.9h1.22v-2.09zM151.12 82.83h1.44v5.44a2.84 2.84 0 0 1 1-1.12 2.8 2.8 0 0 1 1.48-.45c1.06 0 2.76.72 2.76 3.73v5.19h-1.44v-5c0-1.4-.47-2.59-1.83-2.59a2.11 2.11 0 0 0-1.93 1.58 2 2 0 0 0-.1.76v5.26h-1.44zM160.47 91.55c0 2.14 1.28 3 2.72 3a4.82 4.82 0 0 0 2.19-.45l.25 1.14a6 6 0 0 1-2.64.54c-2.44 0-3.89-1.77-3.89-4.4s1.4-4.7 3.71-4.7c2.59 0 3.28 2.51 3.28 4.11 0 .32 0 .58-.05.74zm4.22-1.14c0-1-.37-2.57-2-2.57-1.46 0-2.1 1.47-2.21 2.57zM168 89.62c0-1 0-1.91-.07-2.72h1.26l.05 1.71h.07a2.43 2.43 0 0 1 2.19-1.91 1.27 1.27 0 0 1 .41.06v1.49a2.31 2.31 0 0 0-.49 0c-1 0-1.74.84-1.93 2a5.32 5.32 0 0 0-.07.74v4.65H168zM173.12 89.26c0-.9 0-1.64-.07-2.36h1.28l.08 1.44a2.88 2.88 0 0 1 2.62-1.64c1.1 0 2.8.72 2.8 3.71v5.21h-1.44v-5c0-1.4-.47-2.57-1.83-2.57a2.1 2.1 0 0 0-1.94 1.62 2.73 2.73 0 0 0-.09.74v5.24h-1.44zM188.33 83.48v12.14h-1.42V83.48zM190.76 89.62c0-1 0-1.91-.07-2.72H192l.05 1.71h.07a2.43 2.43 0 0 1 2.19-1.91 1.27 1.27 0 0 1 .41.06v1.49a2.31 2.31 0 0 0-.49 0c-1 0-1.74.84-1.93 2a5.32 5.32 0 0 0-.07.74v4.65h-1.42zM196.21 91.55c0 2.14 1.28 3 2.72 3a4.82 4.82 0 0 0 2.19-.45l.25 1.14a6 6 0 0 1-2.64.54c-2.44 0-3.89-1.77-3.89-4.4s1.4-4.7 3.71-4.7c2.59 0 3.28 2.51 3.28 4.11 0 .32 0 .58-.05.74zm4.23-1.14c0-1-.38-2.57-2-2.57-1.46 0-2.1 1.47-2.21 2.57zM204 82.83h1.44v12.79H204zM212.16 95.62l-.11-1.1H212a2.87 2.87 0 0 1-2.42 1.29 2.37 2.37 0 0 1-2.43-2.5c0-2.1 1.71-3.26 4.77-3.24v-.18c0-.72-.18-2-1.8-2a3.76 3.76 0 0 0-2.07.65l-.32-1a4.55 4.55 0 0 1 2.6-.78c2.42 0 3 1.82 3 3.57v3.26a14.72 14.72 0 0 0 .13 2.09zm-.16-4.45c-1.57 0-3.36.27-3.36 2a1.34 1.34 0 0 0 1.36 1.47 2 2 0 0 0 1.92-1.45 1.86 1.86 0 0 0 .08-.51zM215.93 89.26c0-.9 0-1.64-.06-2.36h1.27l.09 1.44a2.88 2.88 0 0 1 2.62-1.64c1.1 0 2.8.72 2.8 3.71v5.21h-1.44v-5c0-1.4-.48-2.57-1.84-2.57a2.09 2.09 0 0 0-1.93 1.62 2.7 2.7 0 0 0-.1.74v5.24h-1.44zM231.33 82.83v10.54c0 .77 0 1.65.06 2.25h-1.29l-.1-1.52a2.89 2.89 0 0 1-2.7 1.71c-1.92 0-3.39-1.78-3.39-4.42 0-2.9 1.62-4.69 3.55-4.69a2.58 2.58 0 0 1 2.39 1.3v-5.17zm-1.44 7.62a3.05 3.05 0 0 0-.07-.67 2.17 2.17 0 0 0-2.08-1.78c-1.49 0-2.37 1.44-2.37 3.36 0 1.77.78 3.23 2.34 3.23a2.22 2.22 0 0 0 2.11-1.89 3 3 0 0 0 .07-.69z" transform="translate(-.57)"/></svg>