<?xml version="1.0" standalone="no"?>
<!DOCTYPE svg PUBLIC "-//W3C//DTD SVG 20010904//EN"
 "http://www.w3.org/TR/2001/REC-SVG-20010904/DTD/svg10.dtd">
<svg version="1.0" xmlns="http://www.w3.org/2000/svg"
 width="700.000000pt" height="700.000000pt" viewBox="0 0 700.000000 700.000000"
 preserveAspectRatio="xMidYMid meet">
<metadata>
Created by potrace 1.14, written by Peter Selinger 2001-2017
</metadata>
<g transform="translate(0.000000,700.000000) scale(0.100000,-0.100000)"
fill="#000000" stroke="none">
<path d="M3130 6128 c-1 -1204 -3 -1305 -24 -1346 -33 -60 -112 -103 -180 -97
-63 7 -100 33 -234 168 -72 73 -306 306 -519 520 l-388 387 -252 -249 -251
-248 531 -532 c293 -292 559 -551 591 -575 86 -64 212 -122 329 -153 86 -23
124 -27 237 -27 127 -1 150 1 225 19 356 85 584 364 641 785 8 53 12 2017 6
2153 l-4 67 -354 0 -354 0 0 -872z"/>
<path d="M4725 5158 c-315 -316 -557 -568 -581 -603 -107 -160 -167 -357 -166
-553 0 -107 6 -149 33 -250 58 -212 213 -400 411 -499 132 -66 229 -91 413
-109 71 -7 2039 -12 2121 -5 l44 3 0 354 0 354 -867 0 c-478 0 -967 1 -1088 3
-220 2 -220 2 -267 29 -77 46 -109 147 -74 231 8 20 224 245 532 556 286 287
520 525 521 529 2 4 -109 119 -245 255 l-247 248 -540 -543z"/>
<path d="M0 3505 c0 -277 3 -355 13 -356 6 0 494 -2 1082 -3 1000 -3 1073 -4
1105 -21 49 -24 69 -44 91 -87 23 -46 24 -111 1 -160 -11 -23 -212 -234 -535
-558 -285 -287 -517 -523 -515 -525 33 -38 493 -495 498 -495 3 0 247 242 541
538 554 556 593 600 659 746 27 59 60 164 75 241 11 53 13 250 4 301 -5 27
-11 58 -13 69 -39 203 -186 411 -367 518 -62 36 -192 91 -240 101 -30 6 -62
14 -119 28 -31 8 -381 12 -1162 14 l-1118 3 0 -354z"/>
<path d="M3967 3034 c-1 -1 -29 -5 -62 -8 -328 -37 -593 -267 -688 -597 -52
-179 -52 -166 -52 -1334 l0 -1090 353 -3 c193 -1 352 1 353 5 0 5 2 492 3
1083 4 1161 1 1111 55 1167 52 54 154 73 216 41 17 -9 266 -251 553 -537 l524
-522 244 245 c134 134 245 249 246 254 2 6 -164 179 -369 384 -558 561 -712
710 -776 752 -121 79 -285 138 -419 152 -63 6 -177 11 -181 8z"/>
</g>
</svg>
