<svg viewBox="0 0 445.4 106.51" xmlns="http://www.w3.org/2000/svg"><g fill="#fff"><path d="m47.19 63.04 7.44-1.43-.01-2.4-7.44-1.43-7.42 1.53-.01 2.3z"/><path d="m55.36 64.79 7.41-1.54 5.5 1.06v3.16l-5.48 1.05-7.44-1.43z"/><path d="m55.36 67.83v2.3l7.03 1.36v-2.31z"/><path d="m63.12 77.9v-8.7l5.15-.99v10.68z"/><path d="m62.28 72.21.01 2.4-7.44 1.43-7.44-1.43.01-2.29 7.42-1.54z"/><path d="m62.77 78.58 5.5 1.04v3.17l-5.48 1.05-7.44-1.43.01-2.29z"/><path d="m55.34 93.63.03-10.47 7.02 1.35v9.12z"/><path d="m47.41 77.88 7.05 1.36v-2.52l-7.05-1.37z"/><path d="m47.18 78.58 7.44 1.43.04 2.43-7.47 1.44-7.47-1.44.04-2.32z"/><path d="m39.74 93.63.02-10.5 7.06 1.36v9.14z"/><path d="m39.76 62.35 7.03 1.36-.01 7.92-7.02-1.36z"/><path d="m39.23 70.91 7.44 1.43.02 2.41-7.44 1.43-5.28-1.02.05-3.17z"/><path d="m38.85 76.85-4.9-.94-.07 4.03.41 3.56.44 2.59.63 2.62.63 1.9.7 1.68.68 1.34h1.48z"/><path d="m9.86 79.85 6.89 1.32-.95 2.81-5.93 1.14-7.44-1.43v-2.3z"/><path d="m2.44 84.44 7.04 1.36v2.3l-7.05-1.36z"/><path d="m1.64 87.44.28-.07 7.44 1.43.01 2.42-7.44 1.43-.29-.06z"/><path d="m10.21 85.8 5.32-1.02-3.55 10.5h-10.34v-1.65h.63v-.29l7.09-1.37.01 1.66.84-.02z"/><path d="m16.17 99.11 8.92-27.96 6.01 27.96z"/><path d="m50.47 49.75 1.44-4.34 3 .83 1.24 3.76s-2.98 0-5.68-.25z" transform="translate(-8.97 -22.03)"/><path d="m49.73 49.67 1.48-4.46a44.6 44.6 0 0 0 -6.21-1.44 9.07 9.07 0 0 0 -.84 2.95v1.76a28.36 28.36 0 0 0 5.57 1.19z" transform="translate(-8.97 -22.03)"/><path d="m48.49 31.84-1.05-3.16.76-.02 1.06 3.18h1.54l-.61 1.17-.52.49-1.42.71-1.5.5-1.65.31-1.68-.01-1.52-.28-1.56-.52-1.41-.76-.62-.47-.44-1.14h1.49l1.16-3.48.74.08-1.1 3.4z"/><path d="m29.81 31.69a7 7 0 0 1 .92 0 4.73 4.73 0 0 1 .61-.5 4.08 4.08 0 0 0 .9-.93 2.6 2.6 0 0 0 .2-.52 5.26 5.26 0 0 0 -1.67.94 8.28 8.28 0 0 0 -.96 1.01z" transform="translate(-8.97 -22.03)"/><path d="m37.79 32.38a2.2 2.2 0 0 0 .73-1.51 8.44 8.44 0 0 1 .94 1.13 4.74 4.74 0 0 1 -1.67.38z" transform="translate(-8.97 -22.03)"/><path d="m34.43 32.13 1.14.19.58.07h.38a3.86 3.86 0 0 0 .93-.74 1.54 1.54 0 0 0 .32-.91l-.13-.54a5.66 5.66 0 0 0 -1.3-.58l-.62-.14a2.08 2.08 0 0 1 -1.3 2.65z" transform="translate(-8.97 -22.03)"/><path d="m25.26 65.07.71-.4.12 4.33s-.72-.39-.75.32l.59 3s.06.34.35.29l.86 24.28-6.17-2 1.3-4.51-3.05-1.12 2.19-6.55-2.89-1 3.21-18.37z" transform="translate(-8.97 -22.03)"/><path d="m26.17 69.78.4 2.06 2.79-.54-.17-.8-.45.09s0 .07-.44-.09z" transform="translate(-8.97 -22.03)"/><path d="m22.71 47.98.28-.05.16-.07 2.1-1.7.41 2.08-2.79.54z"/><path d="m19.76 42.82 1.28-.25 6.67 37.27z"/><path d="m14.73 30.05 1.94-1.23.25 10.41-1.07.26-2.35-2.55z"/><path d="m24.54 62.34-2.43-2.66s-3.82-3.91-4.88-4.62l8-4.86v-3.41a10.2 10.2 0 0 0 -.64-2 43.35 43.35 0 0 0 -6.18 4.49s-3.91 3.47-5.78 5.58a1.18 1.18 0 0 0 .07 1.59 47.74 47.74 0 0 0 6.64 4.79 60.6 60.6 0 0 0 5.85 3l1.2-.68a21.3 21.3 0 0 1 3.62.26s.39-.13.54.11l2 .51-2.63-3.4" transform="translate(-8.97 -22.03)"/><path d="m26.69 64.3.09 3.76.07 1.18 1.85.62.34-.07-1.12-5.22a.38.38 0 0 1 .08-.24z" transform="translate(-8.97 -22.03)"/><path d="m23 49.5 2.22-.43-1.36 5.26z"/><path d="m18.01 50.48 2.53-.5 2.02 9.4-3.7 14.37z"/><path d="m33.09 30.09c-.31.78-.13.53-1.28 1.66 0 0 1 .11 1.45.18a6.66 6.66 0 0 0 1.57-1 1.37 1.37 0 0 0 .3-.92l-.19-.62a9.1 9.1 0 0 0 -1.74.14" transform="translate(-8.97 -22.03)"/><path d="m27.36 33.27.52 1.15a6.08 6.08 0 0 1 2.28-.92 6.7 6.7 0 0 1 2.37.08 15.86 15.86 0 0 1 2.5.67 9.07 9.07 0 0 0 3.63.45 4.81 4.81 0 0 0 2.51-.55l-.43-1.95a7.78 7.78 0 0 1 -1.22.59 9.53 9.53 0 0 1 -1.42.31c-.37 0-2 0-2 0s-2.06-.27-2.64-.41a23.63 23.63 0 0 0 -2.86-.3 9.33 9.33 0 0 0 -1.59.11 5 5 0 0 0 -1.65.77z" transform="translate(-8.97 -22.03)"/><path d="m34.89 87.86-1.71-9.59 1.94-7.35s.38 0 .29-.42l-.1-.52 5.21-20.22-.25 19.24a27 27 0 0 1 -.69 5.6 75.53 75.53 0 0 1 -2.51 7.16z" transform="translate(-8.97 -22.03)"/><path d="m40.28 48.22a2 2 0 0 0 1.88-1.88 1.89 1.89 0 0 0 -1.88-1.88 2 2 0 0 0 -1.88 1.88 1.89 1.89 0 0 0 1.88 1.88z" transform="translate(-8.97 -22.03)"/><path d="m34.7 48.2a7.23 7.23 0 0 0 3.1-1.05 2.59 2.59 0 0 0 2.1 1.77l-4.9 19.21-.13-.67s-.2-.52-.58-.21l-2.5 2h-.17l-.82-4.56a17.48 17.48 0 0 1 3.94 1.32l-4.48-5.83-3.59.86-.27-11-.4-1.46a9.87 9.87 0 0 0 -.26-2.92 20 20 0 0 0 -.84-2l1.85-.33.8.54s1.39 1 2.24 1.81a12 12 0 0 0 2.44 1.7 3.4 3.4 0 0 0 .72.33c.32.12.62.22.75.25a8.21 8.21 0 0 0 1 .24z" transform="translate(-8.97 -22.03)"/><path d="m22.94 61.14 1.81 8.44-5.37 17.3-2.32 7.18-.99 2.95-.76 2.1h-3.85l.42-1.25 4.05-11.99 2.56-7.45z"/><path d="m40.85 121.14-5.65-31.56 2.37-7s3.22-7.76 3.43-11.32c0 0 .35-13.05.31-15.38l.07-7.15a2.7 2.7 0 0 0 1.56-2.39 2.63 2.63 0 0 0 -1.2-2.2l1.06-.74 1.29.23h.23a11.52 11.52 0 0 0 -.74 2.26c-.09.79-.1 2.64-.11 3.07h.13v2.53l-.13 3.78-.9 22.89-.45 23.84s.65 6.32.92 6.55a22.19 22.19 0 0 0 1.36 4.7 22 22 0 0 0 2.28 4.35 19.53 19.53 0 0 0 3 3.57z" transform="translate(-8.97 -22.03)"/><path d="m39.93 39.54h-2v3.08l3.56.59-.63.58a2.62 2.62 0 0 0 -2.35.67 2.79 2.79 0 0 0 -.8 1.92 6.05 6.05 0 0 1 -1.21.64 6.79 6.79 0 0 1 -1.34.19 5.73 5.73 0 0 1 -.68-1.35 3 3 0 0 1 .05-1.68 7.06 7.06 0 0 1 .54-1 11.52 11.52 0 0 0 .72-1 6.12 6.12 0 0 0 .53-1.18 3.9 3.9 0 0 0 .19-1.14 3.56 3.56 0 0 0 -.3-1.33s-.73-1.15-.88-1.35a3 3 0 0 1 -.69-2.25 11.83 11.83 0 0 0 2.77.53 21.22 21.22 0 0 0 2.48-.06l.83-.23s.22 1.22.19 1.31l-.64.06a14 14 0 0 1 -.07 1.6s-.2 1.27-.27 1.4z" transform="translate(-8.97 -22.03)"/><path d="m28.3 43.59s-1-.77-1.3-.9a9.21 9.21 0 0 0 1-1.93 5.17 5.17 0 0 0 .24-1.52 11.18 11.18 0 0 0 -.1-1.3 12.92 12.92 0 0 1 0-1.92 8.19 8.19 0 0 1 .17-1 7.59 7.59 0 0 1 1.47-.72 7.45 7.45 0 0 0 .22 1.52 9.76 9.76 0 0 1 .46 2.72 3.71 3.71 0 0 1 -.79 1.94s-.55.78-.9 1.36a3.45 3.45 0 0 0 -.47 1.75z" transform="translate(-8.97 -22.03)"/><path d="m31.36 46.07a3.72 3.72 0 0 1 -.22-2.82 5.55 5.55 0 0 1 .8-1.48 5.44 5.44 0 0 0 1.19-2.67s.28-.27-1-3.17a5.81 5.81 0 0 1 -.36-1.72 9.29 9.29 0 0 0 -1.35 0 9.92 9.92 0 0 0 .48 2.24 8.85 8.85 0 0 1 .25 2.55 3.16 3.16 0 0 1 -.15.62 5 5 0 0 1 -.66 1.16l-.74 1.14a3.14 3.14 0 0 0 -.5 2.38z" transform="translate(-8.97 -22.03)"/><path d="m34.39 47.43a3.93 3.93 0 0 1 -.72-3 5.32 5.32 0 0 1 1.33-2.49 3.46 3.46 0 0 0 .72-2.75 5.35 5.35 0 0 0 -.8-1.42s-.92-1.27-.92-1.64a5.26 5.26 0 0 1 -.12-1.06l.08-.4-1.39-.35s.1.68.12.85a8.32 8.32 0 0 0 .5 1.28 7.37 7.37 0 0 1 .63 1.77 6.27 6.27 0 0 1 0 1.75 5.47 5.47 0 0 1 -1.16 2.13 5.19 5.19 0 0 0 -.96 1.9 4.25 4.25 0 0 0 .14 1.34 8.44 8.44 0 0 0 .92 1.58 6.88 6.88 0 0 0 1.63.51z" transform="translate(-8.97 -22.03)"/><path d="m42.47 22.5.7.21 1.14-3.41 1.37 4.1.42.11-.08-1.42-1.71-5.1z"/><path d="m55.65 40.33s.07 5.6.22 6.15h-.1l1.16 3.52 2.17-.09a1.12 1.12 0 0 0 1-1.08l-.32-2.83-.47-3-.51-2.36-.59-2.12s-.7-1.93-.79-2.11l1-1.46a17 17 0 0 1 5.85-2l-3.88-1.84-4 3.38a10.35 10.35 0 0 0 -.62 3l-.12 2.07z" transform="translate(-8.97 -22.03)"/><path d="m61.89 34.29h1.51l1.49-.27 1.39-.46 1.45-.74.25-.24h-10.65l.33.29 1.38.7 1.36.47z"/><path d="m53.63 19.76.81-.65.92-.37h.65l.87-.11 5.74-.44.28-.05.53-.06.37-.05.28-.12.27-.22.17-.26.06-.37-.06-.12-.05.05-.16.39-.33.21-.18.07-.42.03h-1.36l-5.48-.31-2.27-.18v-5.42l-1.19-.9v6.23l-6.6.48-1.57.1h-.66l-.88-.03-.14-.07-.34-.21-.21-.44v.49l.16.26.27.22.26.12.39.05.37.06h.23l2.99.21 3.84.39h.64l.97.37.76.65z"/><path d="m66.99 32.3-4.34-13-4.33 13-.69-.23 5.02-15.08 5.03 15.08z"/><path d="m63.46 35.02-1.67-.01-1.57-.28-1.46-.5-1.57-.81-.53-.5-.54-1.08h13.06l-.61 1.18-.54.53h-.17l-1.32.69-1.47.49z"/><path d="m12.76 95.28h3.89l.55-1.65h-3.89z"/><path d="m0 3.64v91.64h11.98l.56-1.65h-10.9v-88.35h66.63v88.35h-30.9l.94 1.65h31.6.01v-91.64z"/><path d="m109 50.23v-28.23h3.73v11.61h14.66v-11.61h3.73v28.2h-3.73v-13.26h-14.71v13.29z" transform="translate(-8.97 -22.03)"/><path d="m148.57 47.71a13 13 0 0 1 -3.7 2.31 10.69 10.69 0 0 1 -3.82.67 7.44 7.44 0 0 1 -5.17-1.64 5.42 5.42 0 0 1 -1.81-4.2 5.65 5.65 0 0 1 .68-2.74 5.55 5.55 0 0 1 1.79-2 8.31 8.31 0 0 1 2.46-1.11 25.41 25.41 0 0 1 3.08-.52 31.41 31.41 0 0 0 6.17-1.19c0-.47 0-.78 0-.9a3.84 3.84 0 0 0 -1-3 5.8 5.8 0 0 0 -3.94-1.17 6.13 6.13 0 0 0 -3.61.86 5.19 5.19 0 0 0 -1.72 3l-3.39-.46a8.34 8.34 0 0 1 1.52-3.51 6.61 6.61 0 0 1 3.06-2.06 13.66 13.66 0 0 1 4.64-.72 12.28 12.28 0 0 1 4.25.62 4.86 4.86 0 0 1 3.48 3.91 19 19 0 0 1 .17 3.19v4.62a48.69 48.69 0 0 0 .22 6.11 7.67 7.67 0 0 0 .88 2.45h-3.62a8.3 8.3 0 0 1 -.62-2.52zm-.28-7.71a25.61 25.61 0 0 1 -5.66 1.31 13.8 13.8 0 0 0 -3 .69 3 3 0 0 0 -1.37 1.13 3.06 3.06 0 0 0 .57 4 4.49 4.49 0 0 0 3.07.92 7.09 7.09 0 0 0 3.56-.88 5.36 5.36 0 0 0 2.29-2.4 8.39 8.39 0 0 0 .56-3.46z" transform="translate(-8.97 -22.03)"/><path d="m163.12 47.13.5 3.06a13.23 13.23 0 0 1 -2.62.31 5.86 5.86 0 0 1 -2.92-.6 3.34 3.34 0 0 1 -1.46-1.57 12.5 12.5 0 0 1 -.42-4.09v-11.75h-2.54v-2.69h2.54v-5.06l3.44-2.08v7.14h3.48v2.69h-3.48v11.94a6.07 6.07 0 0 0 .18 1.9 1.39 1.39 0 0 0 .6.67 2.28 2.28 0 0 0 1.18.25 8.49 8.49 0 0 0 1.52-.12z" transform="translate(-8.97 -22.03)"/><path d="m179.69 43.65 3.58.44a8.72 8.72 0 0 1 -3.14 4.91 9.47 9.47 0 0 1 -5.85 1.73 9.35 9.35 0 0 1 -7.11-2.76q-2.62-2.76-2.63-7.74c0-3.44.88-6.1 2.65-8a9 9 0 0 1 6.89-2.85 8.72 8.72 0 0 1 6.69 2.79q2.59 2.79 2.6 7.85v.92h-15.25a7.9 7.9 0 0 0 1.9 5.16 5.67 5.67 0 0 0 4.27 1.79 5.28 5.28 0 0 0 3.25-1 6.58 6.58 0 0 0 2.15-3.24zm-11.37-5.6h11.41a6.89 6.89 0 0 0 -1.31-3.87 5.31 5.31 0 0 0 -4.29-2 5.47 5.47 0 0 0 -4 1.6 6.37 6.37 0 0 0 -1.81 4.27z" transform="translate(-8.97 -22.03)"/><path d="m209.35 42.75 3.4.44a8.78 8.78 0 0 1 -2.86 5.51 8.3 8.3 0 0 1 -5.65 2 8.75 8.75 0 0 1 -6.74-2.7q-2.5-2.79-2.5-7.91a14.21 14.21 0 0 1 1.1-5.79 7.6 7.6 0 0 1 3.34-3.72 9.87 9.87 0 0 1 4.88-1.24 8.47 8.47 0 0 1 5.39 1.66 7.74 7.74 0 0 1 2.71 4.78l-3.37.52a5.65 5.65 0 0 0 -1.7-3.1 4.41 4.41 0 0 0 -2.95-1 5.38 5.38 0 0 0 -4.25 1.88q-1.64 1.88-1.63 5.93c0 2.74.53 4.74 1.58 6a5.14 5.14 0 0 0 4.12 1.87 4.85 4.85 0 0 0 3.4-1.25 6.16 6.16 0 0 0 1.73-3.88z" transform="translate(-8.97 -22.03)"/><path d="m215.68 50.23v-20.43h3.12v3.1a8.66 8.66 0 0 1 2.2-2.9 3.84 3.84 0 0 1 2.22-.69 6.71 6.71 0 0 1 3.56 1.12l-1.19 3.21a5 5 0 0 0 -2.54-.75 3.32 3.32 0 0 0 -2 .68 3.78 3.78 0 0 0 -1.29 1.89 13.64 13.64 0 0 0 -.58 4v10.76h-3.46z" transform="translate(-8.97 -22.03)"/><path d="m228.85 26v-4h3.46v4zm0 24.22v-20.42h3.46v20.43z" transform="translate(-8.97 -22.03)"/><path d="m236 50.23v-20.43h3.1v2.87a7.2 7.2 0 0 1 6.2-3.32 6.71 6.71 0 0 1 3.72.94 5.06 5.06 0 0 1 2.05 2.64 7.33 7.33 0 0 1 6.31-3.58 6.21 6.21 0 0 1 4.62 1.65q1.63 1.68 1.64 5.18v14h-3.44v-12.82a9.31 9.31 0 0 0 -.34-3 2.86 2.86 0 0 0 -1.22-1.47 3.83 3.83 0 0 0 -2.08-.56 4.85 4.85 0 0 0 -3.56 1.44c-1 1-1.42 2.48-1.42 4.59v11.87h-3.46v-13.23a5.79 5.79 0 0 0 -.85-3.46 3.2 3.2 0 0 0 -2.77-1.15 5.07 5.07 0 0 0 -2.7.77 4.32 4.32 0 0 0 -1.8 2.25 12.71 12.71 0 0 0 -.56 4.27v10.6h-3.44z" transform="translate(-8.97 -22.03)"/><path d="m281.2 43.65 3.58.44a8.72 8.72 0 0 1 -3.14 4.91 9.47 9.47 0 0 1 -5.85 1.73 9.35 9.35 0 0 1 -7.11-2.76q-2.62-2.76-2.63-7.74c0-3.44.88-6.1 2.65-8a9 9 0 0 1 6.89-2.85 8.72 8.72 0 0 1 6.69 2.79q2.6 2.79 2.6 7.85v.92h-15.25a7.9 7.9 0 0 0 1.9 5.16 5.67 5.67 0 0 0 4.27 1.79 5.28 5.28 0 0 0 3.25-1 6.65 6.65 0 0 0 2.15-3.24zm-11.37-5.6h11.41a6.89 6.89 0 0 0 -1.31-3.87 5.31 5.31 0 0 0 -4.29-2 5.47 5.47 0 0 0 -4 1.6 6.37 6.37 0 0 0 -1.81 4.27z" transform="translate(-8.97 -22.03)"/><path d="m295.55 50.23v-28.23h3.45v28.2z" transform="translate(-8.97 -22.03)"/><path d="m316.77 43.65 3.58.44a8.72 8.72 0 0 1 -3.14 4.91 9.47 9.47 0 0 1 -5.85 1.73 9.35 9.35 0 0 1 -7.11-2.76q-2.62-2.76-2.63-7.74c0-3.44.88-6.1 2.65-8a9 9 0 0 1 6.89-2.85 8.72 8.72 0 0 1 6.69 2.79q2.59 2.79 2.6 7.85v.92h-15.25a7.9 7.9 0 0 0 1.9 5.16 5.67 5.67 0 0 0 4.27 1.79 5.28 5.28 0 0 0 3.25-1 6.65 6.65 0 0 0 2.15-3.24zm-11.37-5.6h11.41a6.89 6.89 0 0 0 -1.31-3.87 5.31 5.31 0 0 0 -4.29-2 5.47 5.47 0 0 0 -4 1.6 6.37 6.37 0 0 0 -1.81 4.27z" transform="translate(-8.97 -22.03)"/><path d="m324.06 51.92 3.37.5a3.19 3.19 0 0 0 1.17 2.27 5.77 5.77 0 0 0 3.52 1 6.18 6.18 0 0 0 3.71-1 4.76 4.76 0 0 0 1.77-2.69 22.34 22.34 0 0 0 .25-4.44 7.13 7.13 0 0 1 -5.66 2.67 7.7 7.7 0 0 1 -6.52-3 11.71 11.71 0 0 1 -2.31-7.29 13.51 13.51 0 0 1 1.06-5.4 8.51 8.51 0 0 1 3.07-3.82 8.26 8.26 0 0 1 4.72-1.35 7.31 7.31 0 0 1 6 2.92v-2.49h3.19v17.66q0 4.77-1 6.76a7.09 7.09 0 0 1 -3.08 3.15 10.64 10.64 0 0 1 -5.18 1.15 9.85 9.85 0 0 1 -5.91-1.64 5.59 5.59 0 0 1 -2.17-4.96zm2.87-12.27q0 4 1.6 5.87a5.26 5.26 0 0 0 8 0c1.08-1.22 1.62-3.15 1.62-5.76a8.44 8.44 0 0 0 -1.66-5.66 5.15 5.15 0 0 0 -4-1.9 5 5 0 0 0 -3.92 1.88c-1.11 1.25-1.64 3.11-1.64 5.57z" transform="translate(-8.97 -22.03)"/><path d="m345 26v-4h3.46v4zm0 24.22v-20.42h3.46v20.43z" transform="translate(-8.97 -22.03)"/><path d="m350.78 44.13 3.42-.54a4.76 4.76 0 0 0 1.61 3.15 5.61 5.61 0 0 0 3.68 1.1 5.4 5.4 0 0 0 3.54-1 2.91 2.91 0 0 0 1.15-2.28 2.11 2.11 0 0 0 -1-1.85 14.59 14.59 0 0 0 -3.54-1.17 33 33 0 0 1 -5.28-1.66 5.19 5.19 0 0 1 -2.25-1.88 5.12 5.12 0 0 1 -.76-2.74 5.24 5.24 0 0 1 .65-2.56 5.54 5.54 0 0 1 1.7-1.93 7.18 7.18 0 0 1 2.2-1 10.34 10.34 0 0 1 3-.41 11.85 11.85 0 0 1 4.22.69 5.69 5.69 0 0 1 2.68 1.88 7.31 7.31 0 0 1 1.2 3.15l-3.38.46a3.68 3.68 0 0 0 -1.34-2.46 4.9 4.9 0 0 0 -3.13-.88 5.59 5.59 0 0 0 -3.4.79 2.3 2.3 0 0 0 -1 1.85 1.91 1.91 0 0 0 .42 1.21 3 3 0 0 0 1.33.92c.35.13 1.37.42 3.06.88a41.28 41.28 0 0 1 5.13 1.61 5.18 5.18 0 0 1 2.28 1.82 5.09 5.09 0 0 1 .83 3 5.85 5.85 0 0 1 -1 3.26 6.51 6.51 0 0 1 -2.91 2.37 10.59 10.59 0 0 1 -4.31.84 9.63 9.63 0 0 1 -6.07-1.65 7.89 7.89 0 0 1 -2.73-4.97z" transform="translate(-8.97 -22.03)"/><path d="m371 50.23v-28.23h3.46v28.2z" transform="translate(-8.97 -22.03)"/><path d="m392.36 47.71a13 13 0 0 1 -3.7 2.31 10.69 10.69 0 0 1 -3.82.67 7.44 7.44 0 0 1 -5.17-1.64 5.42 5.42 0 0 1 -1.81-4.2 5.65 5.65 0 0 1 .68-2.74 5.55 5.55 0 0 1 1.79-2 8.31 8.31 0 0 1 2.49-1.11 25.41 25.41 0 0 1 3.08-.52 31.41 31.41 0 0 0 6.17-1.19c0-.47 0-.78 0-.9a3.84 3.84 0 0 0 -1-3 5.8 5.8 0 0 0 -3.94-1.17 6.13 6.13 0 0 0 -3.61.86 5.19 5.19 0 0 0 -1.72 3l-3.39-.46a8.34 8.34 0 0 1 1.59-3.47 6.66 6.66 0 0 1 3-2.06 13.66 13.66 0 0 1 4.64-.72 12.28 12.28 0 0 1 4.25.62 4.86 4.86 0 0 1 3.48 3.91 19 19 0 0 1 .17 3.19v4.62a48.69 48.69 0 0 0 .22 6.11 7.9 7.9 0 0 0 .87 2.45h-3.63a8 8 0 0 1 -.64-2.56zm-.29-7.71a25.64 25.64 0 0 1 -5.65 1.31 13.8 13.8 0 0 0 -3 .69 3 3 0 0 0 -1.42 1.11 3.06 3.06 0 0 0 .57 4 4.49 4.49 0 0 0 3.07.92 7.09 7.09 0 0 0 3.56-.88 5.36 5.36 0 0 0 2.29-2.4 8.39 8.39 0 0 0 .56-3.46v-1.29z" transform="translate(-8.97 -22.03)"/><path d="m406.9 47.13.5 3.06a13.31 13.31 0 0 1 -2.62.31 5.86 5.86 0 0 1 -2.92-.6 3.34 3.34 0 0 1 -1.46-1.57 12.5 12.5 0 0 1 -.42-4.09v-11.75h-2.54v-2.69h2.56v-5.06l3.44-2.08v7.14h3.48v2.69h-3.48v11.94a6.07 6.07 0 0 0 .18 1.9 1.39 1.39 0 0 0 .6.67 2.28 2.28 0 0 0 1.18.25 8.43 8.43 0 0 0 1.5-.12z" transform="translate(-8.97 -22.03)"/><path d="m410.31 26v-4h3.46v4zm0 24.22v-20.42h3.46v20.43z" transform="translate(-8.97 -22.03)"/><path d="m416.16 40q0-5.67 3.15-8.41a9.53 9.53 0 0 1 6.42-2.27 9.18 9.18 0 0 1 6.89 2.76 10.51 10.51 0 0 1 2.67 7.63 13.46 13.46 0 0 1 -1.18 6.2 8.37 8.37 0 0 1 -3.44 3.51 10.06 10.06 0 0 1 -4.93 1.25 9.18 9.18 0 0 1 -6.93-2.75c-1.81-1.81-2.65-4.46-2.65-7.92zm3.56 0q0 3.93 1.71 5.88a5.71 5.71 0 0 0 8.6 0q1.71-2 1.71-6a8.41 8.41 0 0 0 -1.74-5.72 5.71 5.71 0 0 0 -8.59 0c-1.12 1.28-1.69 3.24-1.69 5.84z" transform="translate(-8.97 -22.03)"/><path d="m437.76 50.23v-20.43h3.12v2.9a7.36 7.36 0 0 1 6.5-3.37 8.62 8.62 0 0 1 3.4.66 5.37 5.37 0 0 1 2.32 1.74 6.81 6.81 0 0 1 1.08 2.56 19.69 19.69 0 0 1 .19 3.37v12.56h-3.46v-12.42a9.27 9.27 0 0 0 -.4-3.16 3.32 3.32 0 0 0 -1.43-1.64 4.53 4.53 0 0 0 -2.41-.63 5.65 5.65 0 0 0 -3.82 1.4c-1.07.94-1.61 2.71-1.61 5.33v11.13z" transform="translate(-8.97 -22.03)"/><path d="m108.41 69.16v-4h3.46v4zm0 24.22v-20.38h3.46v20.38z" transform="translate(-8.97 -22.03)"/><path d="m115.55 93.38v-20.38h3.12v2.9a7.36 7.36 0 0 1 6.5-3.37 8.62 8.62 0 0 1 3.4.66 5.37 5.37 0 0 1 2.32 1.74 6.81 6.81 0 0 1 1.11 2.51 19.69 19.69 0 0 1 .19 3.37v12.56h-3.49v-12.37a9.27 9.27 0 0 0 -.4-3.16 3.32 3.32 0 0 0 -1.43-1.67 4.53 4.53 0 0 0 -2.41-.63 5.65 5.65 0 0 0 -3.82 1.4c-1.07.94-1.61 2.71-1.61 5.33v11.11z" transform="translate(-8.97 -22.03)"/><path d="m142.12 93.38v-28.2h3.88l14.81 22.14v-22.14h3.58v28.2h-3.83l-14.86-22.16v22.16z" transform="translate(-8.97 -22.03)"/><path d="m167.28 83.16q0-5.67 3.15-8.41a9.53 9.53 0 0 1 6.42-2.27 9.18 9.18 0 0 1 6.89 2.76 10.51 10.51 0 0 1 2.67 7.63 13.46 13.46 0 0 1 -1.18 6.2 8.37 8.37 0 0 1 -3.44 3.51 10.06 10.06 0 0 1 -4.93 1.25 9.18 9.18 0 0 1 -6.93-2.75q-2.66-2.74-2.65-7.92zm3.56 0q0 3.93 1.71 5.88a5.71 5.71 0 0 0 8.6 0q1.71-2 1.71-6a8.41 8.41 0 0 0 -1.72-5.74 5.71 5.71 0 0 0 -8.59 0c-1.14 1.29-1.71 3.25-1.71 5.86z" transform="translate(-8.97 -22.03)"/><path d="m188.85 93.38v-20.38h3.15v3.1a8.66 8.66 0 0 1 2.2-2.87 3.84 3.84 0 0 1 2.22-.69 6.71 6.71 0 0 1 3.58 1.07l-1.19 3.21a5 5 0 0 0 -2.54-.75 3.32 3.32 0 0 0 -2 .68 3.78 3.78 0 0 0 -1.29 1.89 13.64 13.64 0 0 0 -.58 4v10.73h-3.46z" transform="translate(-8.97 -22.03)"/><path d="m210.36 90.28.5 3.06a13.23 13.23 0 0 1 -2.62.31 5.86 5.86 0 0 1 -2.92-.6 3.34 3.34 0 0 1 -1.46-1.57 12.5 12.5 0 0 1 -.42-4.09v-11.75h-2.54v-2.64h2.54v-5.11l3.44-2.08v7.19h3.48v2.69h-3.48v11.89a6.07 6.07 0 0 0 .18 1.9 1.39 1.39 0 0 0 .6.67 2.28 2.28 0 0 0 1.18.25 9.46 9.46 0 0 0 1.52-.12z" transform="translate(-8.97 -22.03)"/><path d="m213.75 93.38v-28.2h3.46v10.12a7.74 7.74 0 0 1 6.12-2.81 8.3 8.3 0 0 1 3.94.89 5.24 5.24 0 0 1 2.39 2.47 11.42 11.42 0 0 1 .72 4.58v12.95h-3.46v-12.95a5.31 5.31 0 0 0 -1.13-3.78 4.17 4.17 0 0 0 -3.18-1.18 5.6 5.6 0 0 0 -2.89.8 4.48 4.48 0 0 0 -1.93 2.16 10 10 0 0 0 -.58 3.77v11.18z" transform="translate(-8.97 -22.03)"/><path d="m248.84 86.8 3.58.44a8.72 8.72 0 0 1 -3.14 4.87 9.45 9.45 0 0 1 -5.85 1.73 9.35 9.35 0 0 1 -7.11-2.76q-2.62-2.76-2.63-7.74c0-3.44.88-6.1 2.65-8a9 9 0 0 1 6.89-2.85 8.72 8.72 0 0 1 6.69 2.79q2.6 2.79 2.6 7.85v.92h-15.25a7.9 7.9 0 0 0 1.9 5.16 5.67 5.67 0 0 0 4.27 1.79 5.28 5.28 0 0 0 3.25-1 6.56 6.56 0 0 0 2.15-3.2zm-11.37-5.6h11.41a6.89 6.89 0 0 0 -1.31-3.87 5.31 5.31 0 0 0 -4.29-2 5.47 5.47 0 0 0 -4 1.6 6.35 6.35 0 0 0 -1.81 4.27z" transform="translate(-8.97 -22.03)"/><path d="m255.14 93.38v-20.38h3.12v3.1a8.53 8.53 0 0 1 2.2-2.87 3.84 3.84 0 0 1 2.22-.69 6.71 6.71 0 0 1 3.56 1.12l-1.19 3.21a5 5 0 0 0 -2.54-.75 3.32 3.32 0 0 0 -2 .68 3.78 3.78 0 0 0 -1.29 1.89 13.64 13.64 0 0 0 -.58 4v10.68h-3.46z" transform="translate(-8.97 -22.03)"/><path d="m268.29 93.38v-20.38h3.12v2.9a7.36 7.36 0 0 1 6.5-3.37 8.62 8.62 0 0 1 3.4.66 5.37 5.37 0 0 1 2.32 1.74 6.81 6.81 0 0 1 1.08 2.56 19.69 19.69 0 0 1 .19 3.37v12.51h-3.46v-12.37a9.27 9.27 0 0 0 -.4-3.16 3.32 3.32 0 0 0 -1.43-1.67 4.53 4.53 0 0 0 -2.41-.63 5.65 5.65 0 0 0 -3.82 1.4c-1.07.94-1.61 2.71-1.61 5.33v11.11z" transform="translate(-8.97 -22.03)"/><path d="m295.63 93.38v-28.2h3.73v28.2z" transform="translate(-8.97 -22.03)"/><path d="m303.07 93.38v-20.38h3.12v3.1a8.53 8.53 0 0 1 2.2-2.87 3.84 3.84 0 0 1 2.22-.69 6.71 6.71 0 0 1 3.56 1.12l-1.17 3.16a5 5 0 0 0 -2.54-.75 3.32 3.32 0 0 0 -2 .68 3.78 3.78 0 0 0 -1.29 1.89 13.64 13.64 0 0 0 -.58 4v10.73h-3.46z" transform="translate(-8.97 -22.03)"/><path d="m329.41 86.8 3.58.44a8.72 8.72 0 0 1 -3.14 4.87 9.47 9.47 0 0 1 -5.85 1.73 9.35 9.35 0 0 1 -7.11-2.76q-2.62-2.76-2.63-7.74c0-3.44.88-6.1 2.65-8a9 9 0 0 1 6.89-2.85 8.72 8.72 0 0 1 6.69 2.79q2.6 2.79 2.6 7.85v.92h-15.25a7.9 7.9 0 0 0 1.9 5.16 5.67 5.67 0 0 0 4.26 1.79 5.28 5.28 0 0 0 3.25-1 6.63 6.63 0 0 0 2.16-3.2zm-11.41-5.6h11.41a6.89 6.89 0 0 0 -1.31-3.87 5.31 5.31 0 0 0 -4.29-2 5.47 5.47 0 0 0 -4 1.6 6.35 6.35 0 0 0 -1.81 4.27z" transform="translate(-8.97 -22.03)"/><path d="m335.67 93.38v-28.2h3.46v28.2z" transform="translate(-8.97 -22.03)"/><path d="m356.23 90.86a13 13 0 0 1 -3.7 2.31 10.69 10.69 0 0 1 -3.82.67 7.44 7.44 0 0 1 -5.17-1.64 5.42 5.42 0 0 1 -1.81-4.2 5.65 5.65 0 0 1 .68-2.74 5.55 5.55 0 0 1 1.79-2 8.31 8.31 0 0 1 2.49-1.13 25.41 25.41 0 0 1 3.08-.52 31.41 31.41 0 0 0 6.17-1.19c0-.47 0-.78 0-.9a3.84 3.84 0 0 0 -1-3 5.8 5.8 0 0 0 -3.94-1.14 6.13 6.13 0 0 0 -3.61.86 5.19 5.19 0 0 0 -1.72 3l-3.39-.46a8.34 8.34 0 0 1 1.52-3.51 6.66 6.66 0 0 1 3.06-2.06 13.66 13.66 0 0 1 4.64-.72 12.28 12.28 0 0 1 4.25.62 4.86 4.86 0 0 1 3.48 3.91 19 19 0 0 1 .17 3.19v4.62a48.69 48.69 0 0 0 .22 6.11 7.9 7.9 0 0 0 .87 2.45h-3.62a8.59 8.59 0 0 1 -.64-2.53zm-.29-7.74a25.64 25.64 0 0 1 -5.65 1.31 13.8 13.8 0 0 0 -3 .69 3 3 0 0 0 -1.37 1.13 3.06 3.06 0 0 0 .57 4 4.49 4.49 0 0 0 3.07.92 7.09 7.09 0 0 0 3.56-.88 5.36 5.36 0 0 0 2.29-2.4 8.39 8.39 0 0 0 .56-3.46v-1.31z" transform="translate(-8.97 -22.03)"/><path d="m363.22 93.38v-20.38h3.12v2.9a7.36 7.36 0 0 1 6.5-3.37 8.62 8.62 0 0 1 3.4.66 5.37 5.37 0 0 1 2.32 1.74 6.81 6.81 0 0 1 1.08 2.56 19.69 19.69 0 0 1 .19 3.37v12.51h-3.46v-12.37a9.27 9.27 0 0 0 -.4-3.16 3.32 3.32 0 0 0 -1.43-1.67 4.53 4.53 0 0 0 -2.41-.63 5.65 5.65 0 0 0 -3.82 1.4c-1.07.94-1.61 2.71-1.61 5.33v11.11z" transform="translate(-8.97 -22.03)"/><path d="m396.79 93.38v-2.58a6.35 6.35 0 0 1 -5.71 3 8 8 0 0 1 -4.49-1.35 8.82 8.82 0 0 1 -3.17-3.76 13 13 0 0 1 -1.13-5.55 14.52 14.52 0 0 1 1-5.55 8.07 8.07 0 0 1 3.06-3.82 8.22 8.22 0 0 1 4.56-1.33 6.81 6.81 0 0 1 3.29.78 7 7 0 0 1 2.35 2v-10.04h3.45v28.2zm-11-10.2c0 2.62.55 4.57 1.65 5.87a5 5 0 0 0 3.9 1.94 4.91 4.91 0 0 0 3.86-1.86q1.59-1.86 1.59-5.66 0-4.2-1.62-6.16a5 5 0 0 0 -4-2 4.81 4.81 0 0 0 -3.86 1.88c-.95 1.3-1.47 3.29-1.47 5.99z" transform="translate(-8.97 -22.03)"/></g><path d="m107.83 124.34v-15.12h2v15.12z" fill="#c47d3c" transform="translate(-8.97 -22.03)"/><path d="m112.29 124.34v-11h1.71v1.56a3.94 3.94 0 0 1 3.49-1.8 4.51 4.51 0 0 1 1.82.36 2.9 2.9 0 0 1 1.24.93 3.69 3.69 0 0 1 .58 1.37 10.63 10.63 0 0 1 .1 1.81v6.74h-1.86v-6.66a4.88 4.88 0 0 0 -.22-1.7 1.81 1.81 0 0 0 -.77-.9 2.48 2.48 0 0 0 -1.29-.34 3 3 0 0 0 -2 .75 3.72 3.72 0 0 0 -.86 2.86v6z" fill="#c47d3c" transform="translate(-8.97 -22.03)"/><path d="m130.31 124.34v-1.34a3.4 3.4 0 0 1 -3.06 1.63 4.31 4.31 0 0 1 -2.41-.72 4.71 4.71 0 0 1 -1.7-2 7 7 0 0 1 -.6-3 7.72 7.72 0 0 1 .55-3 4.31 4.31 0 0 1 1.64-2 4.41 4.41 0 0 1 2.44-.71 3.61 3.61 0 0 1 1.76.42 3.71 3.71 0 0 1 1.26 1.09v-5.43h1.81v15.12h-1.73zm-5.87-5.47a4.79 4.79 0 0 0 .89 3.15 2.68 2.68 0 0 0 2.09 1 2.62 2.62 0 0 0 2.07-1 4.58 4.58 0 0 0 .85-3 5.13 5.13 0 0 0 -.87-3.3 2.67 2.67 0 0 0 -2.14-1 2.59 2.59 0 0 0 -2.07 1 5.1 5.1 0 0 0 -.82 3.15z" fill="#c47d3c" transform="translate(-8.97 -22.03)"/><path d="m141.62 120.81 1.92.24a4.66 4.66 0 0 1 -1.68 2.61 5.7 5.7 0 0 1 -7-.55 5.78 5.78 0 0 1 -1.36-4.11 6.05 6.05 0 0 1 1.42-4.29 4.81 4.81 0 0 1 3.69-1.53 4.69 4.69 0 0 1 3.59 1.5 5.94 5.94 0 0 1 1.39 4.21v.49h-8.17a4.2 4.2 0 0 0 1 2.76 3 3 0 0 0 2.29 1 2.82 2.82 0 0 0 1.74-.54 3.42 3.42 0 0 0 1.17-1.79zm-6.09-3h6.12a3.72 3.72 0 0 0 -.7-2.07 2.86 2.86 0 0 0 -2.3-1.07 3 3 0 0 0 -2.15.86 3.29 3.29 0 0 0 -.97 2.28z" fill="#c47d3c" transform="translate(-8.97 -22.03)"/><path d="m145 128.54v-15.15h1.69v1.42a4.17 4.17 0 0 1 1.35-1.25 3.7 3.7 0 0 1 1.83-.42 4.37 4.37 0 0 1 2.48.72 4.42 4.42 0 0 1 1.62 2 7.54 7.54 0 0 1 .55 2.88 7.38 7.38 0 0 1 -.6 3 4.59 4.59 0 0 1 -4.17 2.78 3.55 3.55 0 0 1 -1.67-.39 3.7 3.7 0 0 1 -1.21-1v5.33zm1.68-9.62a4.79 4.79 0 0 0 .86 3.13 2.63 2.63 0 0 0 2.07 1 2.68 2.68 0 0 0 2.12-1 5 5 0 0 0 .88-3.24 4.88 4.88 0 0 0 -.86-3.14 2.6 2.6 0 0 0 -2.06-1 2.68 2.68 0 0 0 -2.1 1.11 4.94 4.94 0 0 0 -.87 3.14z" fill="#c47d3c" transform="translate(-8.97 -22.03)"/><path d="m163.46 120.81 1.92.24a4.66 4.66 0 0 1 -1.68 2.61 5.7 5.7 0 0 1 -6.95-.55 5.78 5.78 0 0 1 -1.41-4.15 6.05 6.05 0 0 1 1.42-4.29 4.81 4.81 0 0 1 3.69-1.53 4.69 4.69 0 0 1 3.59 1.5 5.94 5.94 0 0 1 1.39 4.21v.49h-8.17a4.2 4.2 0 0 0 1 2.76 3 3 0 0 0 2.29 1 2.82 2.82 0 0 0 1.74-.54 3.55 3.55 0 0 0 1.17-1.75zm-6.1-3h6.12a3.72 3.72 0 0 0 -.7-2.07 2.86 2.86 0 0 0 -2.3-1.07 3 3 0 0 0 -2.15.86 3.29 3.29 0 0 0 -.97 2.28z" fill="#c47d3c" transform="translate(-8.97 -22.03)"/><path d="m166.87 124.34v-11h1.67v1.56a3.94 3.94 0 0 1 3.49-1.8 4.51 4.51 0 0 1 1.82.36 2.9 2.9 0 0 1 1.24.93 3.69 3.69 0 0 1 .58 1.37 10.63 10.63 0 0 1 .1 1.81v6.74h-1.86v-6.66a4.88 4.88 0 0 0 -.22-1.7 1.81 1.81 0 0 0 -.77-.9 2.48 2.48 0 0 0 -1.29-.34 3 3 0 0 0 -2 .75 3.72 3.72 0 0 0 -.86 2.86v6z" fill="#c47d3c" transform="translate(-8.97 -22.03)"/><path d="m184.9 124.34v-1.34a3.4 3.4 0 0 1 -3.06 1.63 4.31 4.31 0 0 1 -2.41-.72 4.71 4.71 0 0 1 -1.7-2 7 7 0 0 1 -.6-3 7.72 7.72 0 0 1 .55-3 4.31 4.31 0 0 1 1.64-2 4.41 4.41 0 0 1 2.44-.71 3.61 3.61 0 0 1 1.76.42 3.71 3.71 0 0 1 1.26 1.09v-5.43h1.85v15.12h-1.73zm-5.9-5.47a4.79 4.79 0 0 0 .89 3.15 2.68 2.68 0 0 0 2.09 1 2.62 2.62 0 0 0 2.07-1 4.58 4.58 0 0 0 .85-3 5.13 5.13 0 0 0 -.87-3.3 2.67 2.67 0 0 0 -2.14-1 2.59 2.59 0 0 0 -2.07 1 5 5 0 0 0 -.82 3.15z" fill="#c47d3c" transform="translate(-8.97 -22.03)"/><path d="m196.21 120.81 1.92.24a4.66 4.66 0 0 1 -1.68 2.61 5.7 5.7 0 0 1 -6.95-.55 5.78 5.78 0 0 1 -1.41-4.15 6.05 6.05 0 0 1 1.42-4.29 4.81 4.81 0 0 1 3.69-1.53 4.69 4.69 0 0 1 3.59 1.5 5.94 5.94 0 0 1 1.39 4.21v.49h-8.18a4.2 4.2 0 0 0 1 2.76 3 3 0 0 0 2.29 1 2.82 2.82 0 0 0 1.74-.54 3.55 3.55 0 0 0 1.18-1.75zm-6.1-3h6.12a3.72 3.72 0 0 0 -.7-2.07 2.86 2.86 0 0 0 -2.3-1.07 3 3 0 0 0 -2.15.86 3.29 3.29 0 0 0 -.97 2.28z" fill="#c47d3c" transform="translate(-8.97 -22.03)"/><path d="m199.62 124.34v-11h1.67v1.56a3.94 3.94 0 0 1 3.49-1.8 4.51 4.51 0 0 1 1.82.36 2.9 2.9 0 0 1 1.24.93 3.69 3.69 0 0 1 .58 1.37 10.63 10.63 0 0 1 .1 1.81v6.74h-1.86v-6.66a4.88 4.88 0 0 0 -.22-1.7 1.81 1.81 0 0 0 -.77-.9 2.48 2.48 0 0 0 -1.29-.34 3 3 0 0 0 -2 .75 3.72 3.72 0 0 0 -.86 2.86v6z" fill="#c47d3c" transform="translate(-8.97 -22.03)"/><path d="m214.59 122.68.27 1.64a6.83 6.83 0 0 1 -1.4.16 3.23 3.23 0 0 1 -1.57-.32 1.75 1.75 0 0 1 -.78-.84 6.67 6.67 0 0 1 -.23-2.19v-6.3h-1.36v-1.44h1.36v-2.71l1.85-1.11v3.83h1.87v1.44h-1.87v6.41a3.06 3.06 0 0 0 .1 1 .79.79 0 0 0 .32.36 1.23 1.23 0 0 0 .63.13 7.79 7.79 0 0 0 .81-.06z" fill="#c47d3c" transform="translate(-8.97 -22.03)"/><path d="m222.55 124.34v-15.12h6.71a8.91 8.91 0 0 1 3.07.41 3.35 3.35 0 0 1 1.68 1.44 4.3 4.3 0 0 1 .63 2.28 3.81 3.81 0 0 1 -1 2.71 5.25 5.25 0 0 1 -3.22 1.4 5.43 5.43 0 0 1 1.21.75 10.71 10.71 0 0 1 1.66 2l2.63 4.12h-2.52l-2-3.15c-.58-.91-1.07-1.6-1.44-2.08a4.53 4.53 0 0 0 -1-1 2.91 2.91 0 0 0 -.91-.4 5.91 5.91 0 0 0 -1.11-.07h-2.32v6.72h-2zm2-8.45h4.3a6.51 6.51 0 0 0 2.15-.28 2.27 2.27 0 0 0 1.18-.91 2.46 2.46 0 0 0 .4-1.36 2.25 2.25 0 0 0 -.78-1.76 3.65 3.65 0 0 0 -2.46-.69h-4.79z" fill="#c47d3c" transform="translate(-8.97 -22.03)"/><path d="m243.37 120.81 1.92.24a4.66 4.66 0 0 1 -1.68 2.61 5.7 5.7 0 0 1 -7-.55 5.78 5.78 0 0 1 -1.41-4.15 6.05 6.05 0 0 1 1.42-4.29 4.81 4.81 0 0 1 3.69-1.53 4.67 4.67 0 0 1 3.59 1.5 5.94 5.94 0 0 1 1.39 4.21v.49h-8.17a4.2 4.2 0 0 0 1 2.76 3 3 0 0 0 2.29 1 2.82 2.82 0 0 0 1.74-.54 3.42 3.42 0 0 0 1.22-1.75zm-6.1-3h6.12a3.72 3.72 0 0 0 -.7-2.07 2.86 2.86 0 0 0 -2.3-1.07 3 3 0 0 0 -2.15.86 3.4 3.4 0 0 0 -.97 2.28z" fill="#c47d3c" transform="translate(-8.97 -22.03)"/><path d="m249.83 124.34-4.17-11h2l2.35 6.56c.25.71.49 1.44.7 2.21.17-.58.4-1.27.69-2.08l2.43-6.68h1.91l-4.15 11h-1.72z" fill="#c47d3c" transform="translate(-8.97 -22.03)"/><path d="m257.36 111.35v-2.14h1.86v2.14zm0 13v-11h1.86v11z" fill="#c47d3c" transform="translate(-8.97 -22.03)"/><path d="m268.71 120.81 1.92.24a4.66 4.66 0 0 1 -1.68 2.61 5.7 5.7 0 0 1 -6.95-.55 5.78 5.78 0 0 1 -1.41-4.15 6.05 6.05 0 0 1 1.42-4.29 4.81 4.81 0 0 1 3.69-1.53 4.67 4.67 0 0 1 3.59 1.5 5.94 5.94 0 0 1 1.39 4.21v.49h-8.18a4.2 4.2 0 0 0 1 2.76 3 3 0 0 0 2.29 1 2.82 2.82 0 0 0 1.74-.54 3.42 3.42 0 0 0 1.18-1.75zm-6.1-3h6.12a3.72 3.72 0 0 0 -.7-2.07 2.86 2.86 0 0 0 -2.3-1.07 3 3 0 0 0 -2.15.86 3.38 3.38 0 0 0 -.97 2.28z" fill="#c47d3c" transform="translate(-8.97 -22.03)"/><path d="m274.15 124.34-3.35-11h1.92l1.74 6.32.65 2.35.57-2.26 1.74-6.42h1.91l1.64 6.35.55 2.09.63-2.11 1.88-6.33h1.81l-3.42 11h-1.93l-1.74-6.56-.42-1.87-2.22 8.43h-2z" fill="#c47d3c" transform="translate(-8.97 -22.03)"/></svg>