<?xml version="1.0" standalone="no"?>
<!DOCTYPE svg PUBLIC "-//W3C//DTD SVG 20010904//EN"
 "http://www.w3.org/TR/2001/REC-SVG-20010904/DTD/svg10.dtd">
<svg version="1.0" xmlns="http://www.w3.org/2000/svg"
 width="1112.000000pt" height="1112.000000pt" viewBox="0 0 1112.000000 1112.000000"
 preserveAspectRatio="xMidYMid meet">
<metadata>
Created by potrace 1.14, written by Peter Selinger 2001-2017
</metadata>
<g transform="translate(0.000000,1112.000000) scale(0.100000,-0.100000)"
fill="#000000" stroke="none">
<path d="M5249 9575 c-2 -2 -54 -6 -114 -8 -61 -3 -110 -6 -110 -7 0 0 -25 -3
-55 -4 -30 -2 -87 -7 -125 -10 -39 -4 -90 -9 -115 -11 -25 -2 -45 -5 -45 -6 0
0 -16 -3 -35 -5 -56 -5 -113 -12 -145 -18 -16 -2 -49 -8 -72 -11 -74 -10 -97
-14 -128 -20 -16 -3 -68 -12 -115 -21 -47 -8 -115 -21 -152 -29 -36 -8 -83
-18 -105 -21 -21 -3 -46 -10 -55 -15 -9 -5 -21 -9 -25 -8 -4 1 -10 1 -13 -1
-3 -1 -16 -4 -29 -6 -14 -2 -52 -12 -85 -20 -34 -9 -65 -17 -71 -18 -5 -2 -30
-8 -55 -15 -25 -8 -49 -14 -55 -15 -5 -2 -36 -11 -69 -20 -32 -10 -64 -19 -70
-21 -6 -1 -18 -5 -26 -8 -8 -4 -53 -18 -100 -32 -47 -14 -94 -30 -105 -35 -11
-5 -38 -14 -60 -21 -22 -6 -44 -14 -50 -18 -5 -3 -14 -6 -20 -8 -39 -9 -373
-147 -492 -204 -45 -21 -87 -39 -92 -39 -6 0 -11 -5 -11 -10 0 -6 -3 -9 -7 -8
-5 1 -46 -18 -93 -42 -47 -24 -103 -53 -125 -64 -22 -11 -42 -22 -45 -26 -3
-3 -30 -18 -60 -34 -30 -16 -61 -34 -69 -40 -15 -11 -48 -32 -71 -42 -8 -4
-86 -55 -173 -113 -87 -58 -166 -110 -175 -116 -9 -5 -21 -15 -27 -21 -5 -6
-31 -26 -57 -44 -27 -18 -48 -37 -48 -42 0 -4 -5 -8 -12 -8 -6 0 -18 -7 -27
-15 -51 -46 -62 -55 -67 -55 -3 0 -11 -6 -18 -12 -7 -7 -44 -40 -82 -73 -159
-139 -434 -414 -434 -435 0 -5 -4 -10 -9 -12 -8 -3 -105 -118 -148 -177 -10
-13 -25 -31 -33 -41 -8 -9 -19 -24 -25 -33 -5 -8 -38 -56 -72 -105 -35 -50
-63 -95 -63 -101 0 -6 -4 -11 -8 -11 -5 0 -23 -28 -42 -62 -18 -35 -36 -65
-40 -68 -12 -9 -177 -353 -203 -425 -15 -38 -32 -83 -38 -100 -7 -16 -13 -32
-14 -35 -1 -3 -6 -21 -12 -40 -25 -79 -54 -176 -58 -195 -3 -11 -7 -29 -9 -40
-2 -11 -9 -40 -16 -65 -7 -25 -14 -56 -15 -70 -2 -14 -10 -63 -18 -110 -24
-138 -32 -242 -31 -460 0 -182 4 -261 18 -365 3 -17 7 -51 10 -76 3 -25 7 -52
10 -60 3 -7 7 -30 10 -49 7 -46 12 -67 25 -115 5 -22 13 -54 16 -72 3 -18 10
-45 17 -60 6 -15 13 -36 15 -46 2 -10 17 -58 33 -105 17 -48 32 -91 34 -97 2
-5 8 -23 14 -38 7 -16 12 -31 12 -34 0 -6 15 -38 76 -168 26 -55 47 -103 46
-107 -1 -5 2 -8 8 -8 5 0 10 -9 10 -20 0 -11 5 -20 10 -20 6 0 10 -5 10 -11 0
-13 137 -245 156 -264 7 -7 11 -15 8 -17 -2 -3 5 -13 16 -23 11 -10 20 -24 20
-31 0 -7 3 -14 8 -16 4 -1 37 -44 73 -94 36 -49 75 -100 85 -113 41 -49 51
-60 99 -117 95 -111 190 -209 354 -364 44 -42 178 -157 216 -185 14 -11 34
-27 43 -35 55 -49 206 -157 357 -257 61 -40 115 -77 122 -83 7 -5 14 -10 17
-10 2 0 37 -20 78 -45 40 -24 90 -53 111 -62 20 -10 37 -21 37 -25 0 -5 9 -8
20 -8 11 0 20 -4 20 -9 0 -5 15 -14 33 -21 17 -8 40 -20 50 -28 9 -8 17 -12
17 -8 0 4 13 -2 29 -13 15 -11 31 -18 35 -14 3 3 6 1 6 -5 0 -7 4 -12 10 -12
5 0 56 -22 112 -49 122 -58 171 -80 258 -116 36 -14 79 -33 97 -41 17 -8 33
-14 36 -14 3 0 18 -5 34 -12 15 -6 30 -12 33 -13 3 -1 19 -7 35 -14 114 -48
549 -184 658 -206 10 -2 32 -9 50 -14 18 -6 73 -20 122 -31 50 -12 110 -26
135 -33 25 -6 49 -10 54 -9 4 2 22 -2 40 -7 17 -5 49 -13 71 -16 22 -4 63 -11
90 -16 28 -5 64 -11 80 -14 17 -2 31 -4 33 -5 4 -4 15 -6 87 -15 74 -9 92 -11
140 -19 17 -3 50 -7 75 -10 25 -2 66 -7 90 -10 25 -4 74 -9 110 -11 36 -2 65
-5 65 -6 0 -1 16 -3 35 -4 345 -27 915 -27 1245 0 22 2 72 6 110 9 39 4 86 9
105 12 19 3 57 7 84 9 27 2 61 6 75 9 14 3 46 8 71 11 25 4 56 8 70 10 14 2
45 7 70 10 25 3 52 7 60 10 15 4 40 9 114 20 21 4 48 9 60 11 11 3 44 9 71 15
28 6 61 13 75 16 14 3 34 7 45 8 11 2 20 4 20 5 0 2 20 7 115 29 89 20 167 41
260 68 30 10 57 18 60 18 3 1 19 5 35 9 17 5 50 15 75 23 25 8 52 16 60 18 16
4 183 61 210 72 8 3 20 7 25 9 15 3 176 64 210 79 17 7 59 25 95 40 36 15 80
34 97 41 18 8 34 14 35 14 5 -1 400 199 458 231 94 52 272 160 332 200 31 22
62 39 67 39 6 0 11 5 11 10 0 6 11 15 25 20 14 5 25 14 25 20 0 5 3 9 8 8 8
-3 213 145 248 180 13 12 27 22 33 22 5 0 11 3 13 8 3 6 41 39 163 142 43 37
334 327 380 380 22 26 56 65 75 89 19 24 40 49 47 56 7 7 51 66 98 131 47 66
88 124 93 129 28 39 82 127 82 135 0 5 3 10 8 10 4 0 12 10 18 23 34 69 99
183 107 188 5 3 8 8 6 10 -1 2 15 40 35 84 44 93 137 319 141 343 2 10 4 18 5
20 2 1 3 5 4 10 1 4 13 41 25 82 13 41 25 82 26 90 2 8 4 15 5 15 2 0 7 22 15
60 3 17 8 37 11 45 3 8 8 29 10 45 3 17 10 54 15 84 6 30 12 64 14 75 1 12 6
48 11 81 11 74 12 640 1 715 -4 30 -10 71 -12 90 -3 19 -9 55 -15 80 -5 25
-12 56 -14 70 -11 59 -18 89 -36 156 -11 39 -23 81 -28 95 -5 13 -10 27 -11
32 0 4 -1 8 -2 10 0 1 -2 9 -4 17 -4 19 -53 158 -65 185 -5 11 -21 49 -35 85
-41 101 -123 264 -191 382 -71 120 -183 291 -196 296 -4 2 -8 10 -8 18 0 8 -4
14 -10 14 -5 0 -10 6 -10 14 0 8 -3 16 -8 18 -4 2 -32 35 -62 73 -30 39 -59
75 -65 81 -5 6 -34 40 -64 75 -65 76 -367 377 -435 434 -27 22 -58 48 -70 58
-11 10 -34 29 -51 42 -153 121 -186 145 -195 145 -5 0 -10 4 -10 8 0 5 -30 28
-67 52 -38 25 -70 47 -73 50 -19 20 -306 196 -415 255 -50 27 -93 53 -96 58
-3 5 -9 9 -12 8 -4 0 -81 36 -172 80 -90 44 -167 80 -170 79 -3 0 -20 7 -38
17 -17 9 -34 18 -37 18 -3 1 -23 9 -45 19 -79 35 -401 159 -440 169 -5 2 -53
17 -105 34 -112 37 -234 73 -264 79 -12 2 -30 8 -41 13 -11 5 -45 14 -75 21
-30 6 -68 16 -85 21 -16 5 -93 22 -170 39 -249 54 -259 56 -330 65 -22 3 -56
10 -75 15 -19 5 -57 11 -85 14 -27 3 -61 8 -75 10 -26 5 -86 12 -167 21 -27 3
-66 8 -88 10 -81 10 -132 15 -210 21 -44 3 -105 8 -135 10 -73 6 -786 14 -791
9z"/>
</g>
</svg>
