<?xml version="1.0" standalone="no"?>
<!DOCTYPE svg PUBLIC "-//W3C//DTD SVG 20010904//EN"
 "http://www.w3.org/TR/2001/REC-SVG-20010904/DTD/svg10.dtd">
<svg version="1.0" xmlns="http://www.w3.org/2000/svg"
 width="700.000000pt" height="700.000000pt" viewBox="0 0 700.000000 700.000000"
 preserveAspectRatio="xMidYMid meet">
<metadata>
Created by potrace 1.14, written by Peter Selinger 2001-2017
</metadata>
<g transform="translate(0.000000,700.000000) scale(0.100000,-0.100000)"
fill="#000000" stroke="none">
<path d="M1755 6110 l-1730 -866 -3 -1737 -2 -1737 1736 -868 1736 -868 1736
868 1736 868 1 1730 c0 1527 -2 1733 -15 1744 -8 7 -147 79 -307 159 l-293
146 -1 -42 c0 -23 -1 -804 -2 -1736 l-2 -1695 -605 -302 c-333 -166 -606 -303
-608 -303 -1 -1 -156 -79 -345 -173 -188 -95 -349 -175 -357 -178 -8 -3 -222
-109 -475 -236 l-461 -231 -1417 707 c-780 389 -1423 712 -1429 718 -7 7 -10
444 -10 1432 0 781 1 1422 3 1424 2 2 644 323 1427 714 l1423 711 575 -286
c315 -158 576 -285 578 -282 3 2 7 96 11 209 3 113 8 247 10 297 l4 92 -572
287 c-315 157 -581 289 -592 293 -15 5 -475 -221 -1750 -859z"/>
<path d="M5039 6188 c-5 -83 -2 -4381 4 -4385 4 -2 203 93 442 211 380 188
435 218 436 238 0 30 0 3426 0 3454 -1 18 -31 38 -153 104 -84 46 -175 95
-203 110 -27 15 -120 66 -205 112 -340 186 -319 177 -321 156z"/>
<path d="M3740 3435 c0 -1371 4 -2285 9 -2285 14 0 811 400 812 408 1 4 2 848
3 1876 1 1859 1 1869 -19 1881 -25 16 -764 389 -787 398 -17 6 -18 -107 -18
-2278z"/>
<path d="M2429 4508 c0 -71 0 -2850 1 -2914 l0 -41 404 -201 c222 -111 406
-202 410 -202 3 0 5 678 4 1506 l-3 1505 -403 205 c-222 112 -406 204 -408
204 -2 0 -4 -28 -5 -62z"/>
<path d="M1070 2811 l0 -580 436 -216 c239 -118 439 -213 442 -211 8 4 9 1123
2 1129 -5 4 -196 103 -545 282 -104 54 -223 115 -262 136 l-73 39 0 -579z"/>
</g>
</svg>
