<?xml version="1.0" encoding="utf-8"?>
<!-- Generator: Adobe Illustrator 25.4.1, SVG Export Plug-In . SVG Version: 6.00 Build 0)  -->
<svg version="1.1" id="Layer_1" xmlns="http://www.w3.org/2000/svg" xmlns:xlink="http://www.w3.org/1999/xlink" x="0px" y="0px"
	 viewBox="0 0 253.7 109.3" style="enable-background:new 0 0 253.7 109.3;" xml:space="preserve">
<style type="text/css">
	.st0{fill:#174748;}
	.st1{fill:#5AACA5;}
</style>
<g>
	<g>
		<path class="st0" d="M286.7,40.4V0.9h4.5l14.9,31.5l14.9-31.5h4.5v39.5h-4.6V11.6l-13.4,28.8h-2.6l-13.4-28.8v28.8H286.7z"/>
		<path class="st0" d="M343.1,41.2c-1.9,0-3.6-0.3-4.9-0.9s-2.5-1.4-3.4-2.4c-0.9-1-1.6-2.1-2.1-3.3c-0.5-1.2-0.9-2.5-1.1-3.8
			s-0.3-2.5-0.3-3.6V10.8h4.9v14.9c0,1.4,0.1,2.7,0.4,4c0.3,1.3,0.7,2.5,1.3,3.5c0.6,1,1.4,1.9,2.5,2.5c1,0.6,2.3,0.9,3.9,0.9
			c1.2,0,2.3-0.2,3.3-0.6c1-0.4,1.9-1,2.6-1.9c0.7-0.8,1.3-1.9,1.7-3.2s0.6-2.8,0.6-4.5l3.2,1c0,2.9-0.5,5.3-1.5,7.4
			c-1,2.1-2.5,3.7-4.4,4.8C347.8,40.6,345.6,41.2,343.1,41.2z M353,40.4v-7.9h-0.5V10.8h4.9v29.7H353z"/>
		<path class="st0" d="M376.2,41.2c-3,0-5.5-0.7-7.6-2c-2.1-1.3-3.7-3.2-4.8-5.6c-1.1-2.4-1.7-5-1.7-8.1c0-3.1,0.6-5.8,1.7-8.1
			c1.1-2.4,2.8-4.2,4.9-5.5c2.1-1.3,4.6-2,7.6-2c3.1,0,5.8,0.8,8.1,2.3s3.8,3.6,4.5,6.3l-4.8,1.5c-0.6-1.7-1.7-3.1-3.1-4
			c-1.4-0.9-3-1.4-4.8-1.4c-2,0-3.7,0.5-5,1.4c-1.3,0.9-2.3,2.2-2.9,3.9s-1,3.6-1,5.7c0,3.3,0.8,6,2.3,8c1.5,2,3.7,3,6.7,3
			c1.9,0,3.5-0.4,4.8-1.3c1.3-0.9,2.2-2.2,2.9-3.9l4.9,1.3c-1,2.8-2.6,4.9-4.8,6.3S379.3,41.2,376.2,41.2z"/>
		<path class="st0" d="M394.5,40.4l0-39.5h4.9V25l12.4-14.3h6.3l-13.1,14.8l14.6,14.8H413l-13.5-14.3v14.3H394.5z"/>
		<path class="st0" d="M431,41.2c-2.2,0-4.1-0.4-5.6-1.2s-2.6-1.9-3.4-3.2s-1.1-2.8-1.1-4.4c0-1.6,0.3-2.9,0.9-4s1.4-2.1,2.5-2.9
			s2.4-1.4,3.9-1.8c1.4-0.4,3-0.7,4.7-1s3.5-0.5,5.3-0.8c1.8-0.2,3.5-0.5,5-0.7l-1.8,1c0-2.6-0.5-4.6-1.6-5.8s-3-1.9-5.7-1.9
			c-1.8,0-3.4,0.4-4.7,1.2c-1.4,0.8-2.3,2.1-2.8,4l-4.6-1.4c0.7-2.6,2.1-4.6,4.1-6.1s4.8-2.2,8.1-2.2c2.7,0,5,0.5,6.9,1.4
			s3.3,2.4,4.2,4.4c0.4,0.9,0.7,1.9,0.8,3s0.2,2.2,0.2,3.4v18.3H442v-7.1l1,0.7c-1.1,2.4-2.7,4.2-4.7,5.5
			C436.3,40.6,433.8,41.2,431,41.2z M431.7,37.1c1.8,0,3.3-0.3,4.6-1c1.3-0.6,2.3-1.5,3.1-2.5s1.3-2.2,1.5-3.4
			c0.3-0.9,0.4-1.9,0.4-3c0-1.1,0.1-2,0.1-2.6l1.7,0.7c-1.6,0.2-3.2,0.5-4.7,0.7s-3,0.4-4.4,0.6s-2.6,0.5-3.7,0.8
			c-0.8,0.3-1.6,0.6-2.3,1s-1.3,0.9-1.7,1.6c-0.4,0.6-0.6,1.4-0.6,2.3c0,0.8,0.2,1.6,0.6,2.3c0.4,0.7,1,1.3,1.9,1.8
			S430.3,37.1,431.7,37.1z"/>
		<path class="st0" d="M452.1,40.4V10.8h4.4v7.9h0.5v21.7H452.1z M469.9,40.4l0-18.8c0-2.2-0.6-4-1.8-5.3s-2.7-1.9-4.7-1.9
			c-1.9,0-3.5,0.7-4.7,2s-1.8,3.1-1.8,5.2l-2.6-1.5c0-1.9,0.5-3.6,1.4-5.1c0.9-1.5,2.2-2.7,3.7-3.6s3.4-1.3,5.4-1.3
			c2,0,3.7,0.4,5.2,1.3c1.5,0.9,2.6,2.1,3.4,3.6c0.8,1.6,1.2,3.4,1.2,5.6l0,20L469.9,40.4L469.9,40.4z M487.6,40.4l0-19
			c0-2.2-0.6-4-1.8-5.2c-1.2-1.2-2.7-1.9-4.6-1.9c-1.1,0-2.1,0.3-3.1,0.8c-1,0.5-1.8,1.3-2.4,2.4c-0.6,1.1-0.9,2.4-0.9,4.1l-2.6-1
			c0-2.1,0.4-4,1.3-5.5s2.1-2.8,3.7-3.7c1.6-0.9,3.4-1.3,5.3-1.3c3.1,0,5.5,0.9,7.3,2.8c1.8,1.9,2.7,4.4,2.7,7.6l0,20H487.6z"/>
		<path class="st0" d="M510.8,41.2c-3,0-5.5-0.7-7.6-2c-2.1-1.3-3.8-3.2-4.9-5.5s-1.7-5.1-1.7-8.1c0-3.1,0.6-5.8,1.8-8.2
			s2.8-4.2,5-5.5s4.7-2,7.5-2c3,0,5.5,0.7,7.7,2c2.1,1.3,3.8,3.2,4.9,5.5c1.1,2.3,1.7,5,1.7,8.1c0,3.1-0.6,5.8-1.7,8.2
			s-2.8,4.2-4.9,5.5C516.2,40.6,513.7,41.2,510.8,41.2z M510.8,36.6c3.1,0,5.3-1,6.8-3.1c1.5-2,2.3-4.7,2.3-8c0-3.3-0.8-6-2.3-8
			s-3.8-3-6.8-3c-2.1,0-3.8,0.5-5.1,1.4c-1.3,0.9-2.3,2.2-3,3.9c-0.7,1.6-1,3.5-1,5.7c0,3.3,0.8,6,2.3,8
			C505.5,35.6,507.8,36.6,510.8,36.6z"/>
		<path class="st0" d="M529.8,40.4V10.8h4.4v7.2l-0.7-0.9c0.3-0.9,0.8-1.8,1.4-2.5s1.2-1.4,1.9-1.9c0.8-0.6,1.6-1.1,2.6-1.4
			s2-0.5,3-0.6c1-0.1,2,0,2.8,0.2v4.6c-1-0.3-2.2-0.3-3.4-0.2s-2.4,0.6-3.4,1.3c-1,0.7-1.7,1.5-2.2,2.5s-0.9,2-1.1,3.1
			c-0.2,1.1-0.3,2.3-0.3,3.4v14.9H529.8z"/>
		<path class="st0" d="M562.6,41.2c-2.9,0-5.5-0.7-7.6-1.9c-2.2-1.3-3.9-3.1-5.1-5.4s-1.8-5-1.8-8.1c0-3.2,0.6-6,1.8-8.4
			c1.2-2.4,2.8-4.2,5-5.5s4.6-1.9,7.5-1.9c3,0,5.5,0.7,7.6,2.1s3.7,3.3,4.7,5.9c1,2.5,1.5,5.6,1.4,9.1h-4.9v-1.8
			c0-3.6-0.8-6.4-2.2-8.2c-1.4-1.8-3.5-2.7-6.4-2.7c-3,0-5.3,1-6.9,2.9s-2.4,4.7-2.4,8.4c0,3.5,0.8,6.2,2.4,8.1
			c1.6,1.9,3.8,2.9,6.7,2.9c2,0,3.7-0.5,5.1-1.3s2.6-2.2,3.4-3.9l4.7,1.6c-1.2,2.6-2.9,4.6-5.2,6.1
			C568.1,40.5,565.5,41.2,562.6,41.2z M551.7,27V23h21.9V27H551.7z"/>
		<path class="st0" d="M596.8,40.4L610,0.9h6.8l13.2,39.5H625L612.6,3.7h1.5l-12.3,36.7H596.8z M603.2,31.1v-4.6h20.5v4.6H603.2z"/>
		<path class="st0" d="M633.7,40.4V0.9h4.9v17.7h-0.5v21.8H633.7z M647.4,41.2c-2.8,0-5.1-0.7-7-2.1c-1.9-1.4-3.3-3.2-4.3-5.6
			c-1-2.4-1.5-5-1.5-8c0-3,0.5-5.6,1.5-8s2.4-4.2,4.3-5.6c1.9-1.4,4.3-2,7-2c2.8,0,5.1,0.7,7.1,2s3.5,3.2,4.6,5.6s1.6,5,1.6,8
			s-0.5,5.6-1.6,8s-2.6,4.2-4.6,5.6C652.5,40.5,650.1,41.2,647.4,41.2z M646.8,36.8c1.9,0,3.6-0.5,4.8-1.5c1.3-1,2.3-2.3,2.9-4
			c0.6-1.7,1-3.6,1-5.7c0-2.1-0.3-4-1-5.7c-0.6-1.7-1.6-3-2.9-4s-3-1.5-5-1.5c-1.9,0-3.5,0.5-4.8,1.4c-1.3,0.9-2.2,2.3-2.8,3.9
			s-0.9,3.6-0.9,5.8c0,2.2,0.3,4.1,0.9,5.8s1.6,3,2.8,4C643.1,36.3,644.8,36.8,646.8,36.8z"/>
		<path class="st0" d="M664.1,40.4V0.9h4.9v17.7h-0.5v21.8H664.1z M677.8,41.2c-2.8,0-5.1-0.7-7-2.1c-1.9-1.4-3.3-3.2-4.3-5.6
			c-1-2.4-1.5-5-1.5-8c0-3,0.5-5.6,1.5-8s2.4-4.2,4.3-5.6c1.9-1.4,4.3-2,7-2c2.8,0,5.1,0.7,7.1,2s3.5,3.2,4.6,5.6s1.6,5,1.6,8
			s-0.5,5.6-1.6,8s-2.6,4.2-4.6,5.6C682.9,40.5,680.5,41.2,677.8,41.2z M677.2,36.8c1.9,0,3.6-0.5,4.8-1.5c1.3-1,2.3-2.3,2.9-4
			c0.6-1.7,1-3.6,1-5.7c0-2.1-0.3-4-1-5.7c-0.6-1.7-1.6-3-2.9-4s-3-1.5-5-1.5c-1.9,0-3.5,0.5-4.8,1.4c-1.3,0.9-2.2,2.3-2.8,3.9
			s-0.9,3.6-0.9,5.8c0,2.2,0.3,4.1,0.9,5.8s1.6,3,2.8,4S675.2,36.8,677.2,36.8z"/>
		<path class="st0" d="M708.7,41.2c-2.9,0-5.5-0.7-7.6-1.9c-2.2-1.3-3.9-3.1-5.1-5.4s-1.8-5-1.8-8.1c0-3.2,0.6-6,1.8-8.4
			c1.2-2.4,2.8-4.2,5-5.5s4.6-1.9,7.5-1.9c3,0,5.5,0.7,7.6,2.1s3.7,3.3,4.7,5.9s1.5,5.6,1.4,9.1h-4.9v-1.8c-0.1-3.6-0.8-6.4-2.2-8.2
			c-1.4-1.8-3.5-2.7-6.4-2.7c-3,0-5.3,1-6.9,2.9s-2.4,4.7-2.4,8.4c0,3.5,0.8,6.2,2.4,8.1c1.6,1.9,3.8,2.9,6.7,2.9
			c2,0,3.7-0.5,5.1-1.3s2.6-2.2,3.4-3.9l4.7,1.6c-1.2,2.6-2.9,4.6-5.2,6.1C714.1,40.5,711.5,41.2,708.7,41.2z M697.7,27V23h21.9V27
			H697.7z"/>
		<path class="st0" d="M731.8,53.6l5.7-15.6l0.1,4.6l-13-31.9h5.1L740,36.4h-1.8l9.5-25.6h5l-16.1,42.8H731.8z"/>
		<path class="st0" d="M286.7,96.1V56.6h4.9V74h20.8V56.6h4.9v39.5h-4.9V78.7h-20.8v17.5H286.7z"/>
		<path class="st0" d="M336.3,96.9c-3,0-5.5-0.7-7.6-2c-2.1-1.3-3.8-3.2-4.9-5.5c-1.1-2.3-1.7-5.1-1.7-8.1c0-3.1,0.6-5.8,1.8-8.2
			s2.8-4.2,5-5.5s4.7-2,7.5-2c3,0,5.5,0.7,7.7,2c2.1,1.3,3.8,3.2,4.9,5.5c1.1,2.3,1.7,5,1.7,8.1c0,3.1-0.6,5.8-1.7,8.2
			c-1.1,2.3-2.8,4.2-4.9,5.5C341.8,96.3,339.2,96.9,336.3,96.9z M336.3,92.3c3.1,0,5.3-1,6.9-3.1c1.5-2.1,2.3-4.7,2.3-8
			c0-3.3-0.8-6-2.3-8s-3.8-3-6.8-3c-2.1,0-3.8,0.5-5.1,1.4s-2.3,2.2-3,3.9s-1,3.6-1,5.7c0,3.3,0.8,6,2.3,8
			C331.1,91.3,333.3,92.3,336.3,92.3z"/>
		<path class="st0" d="M366.2,96.9c-3.5,0-6.4-0.8-8.7-2.3s-3.6-3.7-4.2-6.5l5-0.8c0.4,1.6,1.3,2.9,2.8,3.8c1.5,0.9,3.2,1.4,5.4,1.4
			c2,0,3.6-0.4,4.8-1.3c1.2-0.8,1.7-2,1.7-3.4c0-0.8-0.2-1.5-0.6-2c-0.4-0.5-1.2-1-2.4-1.5s-3-1-5.4-1.7c-2.6-0.7-4.7-1.4-6.2-2.2
			s-2.6-1.6-3.2-2.6c-0.6-1-1-2.2-1-3.6c0-1.7,0.5-3.3,1.4-4.6c1-1.3,2.3-2.3,4-3s3.7-1.1,6-1.1c2.2,0,4.3,0.4,6,1.1
			c1.8,0.7,3.2,1.7,4.3,3c1.1,1.3,1.7,2.8,1.9,4.6l-5,0.9c-0.2-1.6-1-2.8-2.3-3.8c-1.3-0.9-3-1.4-5-1.5c-1.9-0.1-3.5,0.3-4.7,1
			c-1.2,0.8-1.8,1.8-1.8,3c0,0.7,0.2,1.3,0.7,1.8s1.3,1,2.5,1.4s3,1,5.3,1.6c2.6,0.7,4.7,1.4,6.2,2.2c1.5,0.8,2.6,1.7,3.2,2.8
			c0.6,1.1,1,2.3,1,3.9c0,2.9-1,5.1-3.2,6.7C372.8,96.1,369.9,96.9,366.2,96.9z"/>
		<path class="st0" d="M382.8,109.3V66.5h4.4v21.8h0.5v21C387.7,109.3,382.8,109.3,382.8,109.3z M396.4,96.9c-2.8,0-5.1-0.7-7-2.1
			c-1.9-1.4-3.4-3.2-4.3-5.6c-1-2.4-1.5-5-1.5-8c0-3,0.5-5.7,1.5-8s2.4-4.2,4.3-5.6s4.3-2,7-2c2.8,0,5.1,0.7,7.1,2
			c2,1.4,3.5,3.2,4.6,5.6s1.6,5,1.6,8s-0.5,5.6-1.6,8s-2.6,4.2-4.6,5.6C401.6,96.3,399.2,96.9,396.4,96.9z M395.8,92.5
			c1.9,0,3.6-0.5,4.9-1.5c1.3-1,2.3-2.3,2.9-4c0.6-1.7,1-3.6,1-5.7c0-2.1-0.3-4-1-5.7c-0.6-1.7-1.6-3-2.9-4c-1.3-1-3-1.5-5-1.5
			c-1.9,0-3.5,0.5-4.8,1.4c-1.3,0.9-2.2,2.3-2.8,3.9s-0.9,3.6-0.9,5.8c0,2.2,0.3,4.1,0.9,5.8c0.6,1.7,1.6,3,2.8,4
			C392.2,92,393.8,92.5,395.8,92.5z"/>
		<path class="st0" d="M415,61.2v-5h4.9v5H415z M415,96.1V66.5h4.9v29.7C419.9,96.1,415,96.1,415,96.1z"/>
		<path class="st0" d="M424.9,70.5v-4h19.9v4H424.9z M444.7,96.1c-1.8,0.4-3.5,0.5-5.2,0.4c-1.7-0.1-3.2-0.4-4.6-1s-2.4-1.6-3-3
			c-0.6-1.2-0.9-2.4-1-3.6c0-1.2-0.1-2.6-0.1-4.1V58.2h4.9v26.5c0,1.2,0,2.2,0,3.1s0.2,1.6,0.6,2.2c0.7,1.2,1.7,1.9,3.1,2.1
			c1.4,0.2,3.2,0.2,5.2-0.2L444.7,96.1L444.7,96.1z"/>
		<path class="st0" d="M459.2,96.9c-2.2,0-4.1-0.4-5.6-1.2s-2.6-1.9-3.4-3.2c-0.8-1.3-1.1-2.8-1.1-4.4c0-1.6,0.3-2.9,0.9-4
			c0.6-1.1,1.4-2.1,2.5-2.9c1.1-0.8,2.4-1.4,3.9-1.8c1.4-0.4,3-0.7,4.7-1s3.5-0.5,5.3-0.8c1.8-0.2,3.5-0.5,5-0.7l-1.8,1
			c0-2.6-0.5-4.6-1.6-5.8c-1.1-1.3-3-1.9-5.7-1.9c-1.8,0-3.4,0.4-4.7,1.2c-1.4,0.8-2.3,2.1-2.8,3.9l-4.6-1.4
			c0.7-2.6,2.1-4.6,4.1-6.1s4.8-2.2,8.1-2.2c2.7,0,5,0.5,6.9,1.4s3.3,2.4,4.2,4.3c0.4,0.9,0.7,1.9,0.8,3s0.2,2.2,0.2,3.4v18.3h-4.3
			V89l1,0.7c-1.1,2.4-2.7,4.2-4.7,5.4C464.5,96.3,462,96.9,459.2,96.9z M459.9,92.9c1.8,0,3.3-0.3,4.6-0.9c1.3-0.6,2.3-1.5,3.1-2.5
			c0.8-1,1.3-2.2,1.5-3.4c0.3-0.9,0.4-1.9,0.4-3.1s0-2,0-2.6l1.7,0.7c-1.6,0.2-3.2,0.5-4.7,0.7c-1.5,0.2-3,0.4-4.4,0.6
			c-1.4,0.2-2.6,0.5-3.7,0.8c-0.8,0.3-1.6,0.6-2.3,1c-0.7,0.4-1.3,0.9-1.7,1.6c-0.4,0.6-0.6,1.4-0.6,2.3c0,0.8,0.2,1.6,0.6,2.3
			c0.4,0.7,1,1.3,1.9,1.8C457.4,92.6,458.5,92.9,459.9,92.9z"/>
		<path class="st0" d="M480.9,96.1V55.8h4.9v40.4C485.8,96.1,480.9,96.1,480.9,96.1z"/>
		<path class="st1" d="M505.6,96.1V56.6h6.6v39.5H505.6z"/>
		<path class="st1" d="M519.1,96.1V66.5h5.9v9.2h0.8v20.5C525.8,96.1,519.1,96.1,519.1,96.1z M539.7,96.1V81.8c0-0.9-0.1-2-0.2-3.1
			s-0.4-2.2-0.9-3.3c-0.5-1.1-1.2-1.9-2.1-2.6c-0.9-0.7-2.2-1-3.8-1c-0.8,0-1.7,0.1-2.5,0.4c-0.8,0.3-1.6,0.8-2.2,1.4
			c-0.7,0.7-1.2,1.6-1.6,2.8c-0.4,1.2-0.6,2.7-0.6,4.5l-3.9-1.7c0-2.5,0.5-4.8,1.5-6.9s2.4-3.7,4.3-4.9s4.2-1.8,7-1.8
			c2.2,0,4,0.4,5.4,1.1c1.4,0.7,2.6,1.7,3.4,2.8c0.8,1.1,1.5,2.3,1.9,3.6c0.4,1.3,0.7,2.5,0.8,3.6c0.1,1.1,0.2,2.1,0.2,2.8v16.6
			L539.7,96.1L539.7,96.1z"/>
		<path class="st1" d="M564.1,96.9c-2.7,0-5.1-0.7-7.1-2.1c-2-1.4-3.6-3.2-4.7-5.6c-1.1-2.4-1.7-5-1.7-8c0-3,0.6-5.7,1.7-8
			s2.7-4.2,4.8-5.6s4.5-2,7.3-2c2.8,0,5.2,0.7,7.1,2c1.9,1.4,3.4,3.2,4.3,5.6s1.5,5,1.5,8c0,2.9-0.5,5.6-1.5,8
			c-1,2.4-2.5,4.2-4.4,5.6C569.5,96.3,567,96.9,564.1,96.9z M565.2,91c1.8,0,3.2-0.4,4.3-1.2c1.1-0.8,1.9-1.9,2.4-3.4
			c0.5-1.5,0.8-3.2,0.8-5.1c0-1.9-0.2-3.6-0.8-5.1c-0.5-1.4-1.3-2.6-2.3-3.4c-1.1-0.8-2.4-1.2-4.1-1.2c-1.8,0-3.2,0.4-4.4,1.3
			c-1.2,0.9-2,2-2.5,3.5s-0.8,3.1-0.8,4.9c0,1.8,0.3,3.4,0.8,4.9c0.5,1.5,1.4,2.6,2.5,3.5S563.4,91,565.2,91z M571.8,109.3v-22h0.8
			V66.5h5.8v42.8C578.4,109.3,571.8,109.3,571.8,109.3z"/>
		<path class="st1" d="M596,97c-2.2,0-4-0.4-5.4-1.1c-1.4-0.7-2.6-1.7-3.4-2.8c-0.8-1.1-1.5-2.3-1.9-3.6c-0.4-1.3-0.7-2.5-0.8-3.6
			c-0.1-1.1-0.2-2.1-0.2-2.8V66.5h6.7v14.3c0,0.9,0.1,1.9,0.2,3.1c0.1,1.1,0.4,2.2,0.9,3.3c0.5,1.1,1.2,1.9,2.1,2.6
			c0.9,0.7,2.2,1,3.8,1c0.8,0,1.7-0.1,2.5-0.4c0.8-0.3,1.6-0.8,2.2-1.4c0.7-0.7,1.2-1.6,1.6-2.8c0.4-1.2,0.6-2.7,0.6-4.4l3.9,1.7
			c0,2.5-0.5,4.8-1.5,6.9s-2.4,3.7-4.3,4.9C601.1,96.4,598.8,97,596,97z M605.7,96.1v-9.2h-0.8V66.5h6.6v29.7
			C611.5,96.1,605.7,96.1,605.7,96.1z"/>
		<path class="st1" d="M618.5,62v-6.1h6.6V62H618.5z M618.5,96.1V66.5h6.6v29.7C625.1,96.1,618.5,96.1,618.5,96.1z"/>
		<path class="st1" d="M632.1,96.1V66.5h5.8v7.2l-0.7-0.9c0.4-1,0.9-1.9,1.5-2.7s1.3-1.5,2.2-2c0.7-0.5,1.5-0.9,2.4-1.2
			c0.9-0.3,1.8-0.5,2.7-0.5s1.8,0,2.7,0.1v6.2c-0.9-0.3-1.9-0.3-3-0.2s-2.2,0.4-3.1,1c-0.9,0.5-1.7,1.1-2.2,1.9s-1,1.6-1.3,2.6
			s-0.4,2-0.4,3.2v15.1L632.1,96.1L632.1,96.1z"/>
		<path class="st1" d="M658.2,109.3l5.7-15.7l0.1,4.6l-12.9-31.8h6.9l9.2,23.5h-1.8l8.9-23.5h6.6l-16.5,42.8H658.2z"/>
	</g>
	<g>
		<g>
			<polygon class="st0" points="109.4,59.2 135.1,59.2 122.1,17.2 			"/>
			<polygon class="st0" points="95.8,0.3 79.6,0.3 47.9,63.9 16.2,0.3 0,0.3 0,96.1 16.9,96.1 16.9,38.9 44.7,96.1 51.1,96.1 
				78.9,38.9 78.9,96.1 79.5,96.1 95.8,42.9 			"/>
			<polygon class="st0" points="165.1,96.1 164.9,95.5 164.9,96.1 			"/>
			<polygon class="st0" points="207.7,0.3 207.7,39.7 164.9,39.7 164.9,0.3 146.8,0.3 146.8,36.3 164.9,95.5 164.9,56.6 207.7,56.6 
				207.7,96.1 225.8,96.1 225.8,0.3 			"/>
		</g>
		<path class="st1" d="M235.6,95.8V0h18.1v95.8H235.6z"/>
		<g>
			<polygon class="st0" points="104.2,76.3 98.1,96.2 146.4,96.2 140.2,76.3 			"/>
			<polygon class="st0" points="109.3,59.4 135,59.4 122.1,17.4 			"/>
		</g>
	</g>
</g>
</svg>
